<svg width="1159" height="760" viewBox="0 0 1159 760" fill="none" xmlns="http://www.w3.org/2000/svg">
<path fill-rule="evenodd" clip-rule="evenodd" d="M440.561 -183.018C454.129 -206.303 473.764 -226.477 498.766 -240.93C575.129 -285.072 672.745 -259.19 717.247 -183.167C690.129 -183.029 662.677 -176.04 637.518 -161.496C612.358 -146.952 592.6 -126.651 578.947 -103.219C549.142 -154.139 495.657 -182.706 440.561 -183.018ZM439.406 -183.021C453.069 -206.663 472.928 -227.149 498.266 -241.796C575.273 -286.311 673.76 -260.055 718.404 -183.168C773.881 -183.052 827.803 -154.279 857.654 -102.871C913.133 -102.756 967.058 -73.9827 996.909 -22.5725C1052.49 -22.456 1106.5 6.41989 1136.32 58.0022C1166.14 109.585 1164.2 170.805 1136.57 219.025C1166.22 270.55 1164.24 331.638 1136.65 379.772C1166.3 431.296 1164.32 492.383 1136.74 540.516C1181.08 617.574 1154.68 716.022 1077.68 760.537C1052.34 775.183 1024.67 782.168 997.369 782.209C983.706 805.851 963.847 826.337 938.509 840.983C913.171 855.63 885.508 862.615 858.202 862.656C844.54 886.297 824.681 906.783 799.343 921.43C774.005 936.077 746.342 943.062 719.036 943.102C705.373 966.744 685.514 987.23 660.176 1001.88C583.169 1046.39 484.682 1020.14 440.039 943.25C384.561 943.134 330.638 914.361 300.787 862.953C245.308 862.837 191.384 834.064 161.533 782.654C105.955 782.537 51.9382 753.661 22.1205 702.079C-7.69725 650.497 -5.76137 589.277 21.8752 541.057C-7.77633 489.533 -5.79797 428.445 21.7895 380.311C-7.86142 328.786 -5.88272 267.699 21.705 219.565C-22.6401 142.507 3.76051 44.0596 80.767 -0.454899C106.105 -15.1017 133.768 -22.0867 161.074 -22.1274C174.736 -45.7689 194.595 -66.2546 219.933 -80.9013C245.271 -95.5482 272.935 -102.533 300.24 -102.574C313.903 -126.216 333.762 -146.701 359.1 -161.348C384.438 -175.995 412.101 -182.98 439.406 -183.021ZM717.827 -182.168C690.691 -182.128 663.199 -175.186 638.018 -160.63C613.016 -146.177 593.382 -126.004 579.814 -102.72C634.91 -102.407 688.395 -73.8399 718.199 -22.9197C718.541 -23.5066 718.887 -24.0916 719.237 -24.6745C745.421 -72.1597 746.853 -131.772 717.827 -182.168ZM724.707 -33.1772C746.444 -79.1832 746.099 -134.697 718.981 -182.166C773.73 -181.853 826.877 -153.467 856.497 -102.87C829.381 -102.732 801.93 -95.7421 776.772 -81.1992C755.36 -68.8218 737.861 -52.2748 724.707 -33.1772ZM719.122 -22.4215C719.453 -23.004 719.78 -23.5884 720.103 -24.1746C733.627 -46.7187 752.899 -66.2443 777.272 -80.3334C802.452 -94.8887 829.942 -101.83 857.077 -101.871C886.107 -51.4708 884.673 8.1474 858.483 55.6351C858.136 56.2146 857.792 56.7961 857.452 57.3794C827.658 6.47582 774.199 -22.0893 719.122 -22.4215ZM717.196 -19.1218C717.544 -19.7025 717.889 -20.2852 718.229 -20.8698C746.926 29.4057 745.411 88.7508 719.329 136.061C718.978 136.645 718.632 137.232 718.289 137.82C689.59 87.5404 691.108 28.19 717.196 -19.1218ZM716.33 -19.6219C716.662 -20.224 716.998 -20.8241 717.338 -21.4222C690.388 -21.2852 663.107 -14.3391 638.104 0.113976C613.746 14.1944 594.483 33.7047 580.96 56.2312C580.629 56.8313 580.295 57.4295 579.956 58.0256C580.628 58.0297 581.299 58.0379 581.971 58.0504C608.254 57.5809 634.789 50.6255 659.16 36.5377C683.533 22.4484 702.805 2.92246 716.33 -19.6219ZM592.064 58.5541C615.177 56.6864 638.249 49.7805 659.66 37.4034C681.072 25.026 698.572 8.47885 711.726 -10.6188C691.586 32.0064 690.402 82.7931 711.905 127.782C683.652 86.6956 639.052 62.3755 592.064 58.5541ZM579.931 59.074C580.611 59.0705 581.291 59.0628 581.97 59.0507C635.987 60.0581 688.171 88.3637 717.418 138.324C716.731 138.327 716.043 138.335 715.356 138.347C661.348 137.332 609.173 109.028 579.931 59.074ZM576.127 59.0484C576.798 59.0609 577.47 59.0691 578.142 59.0731C577.804 59.6695 577.469 60.2679 577.138 60.8682C563.615 83.3945 544.352 102.905 519.994 116.985C495.633 131.067 469.109 138.023 442.837 138.497C442.155 138.485 441.472 138.476 440.79 138.472C441.128 137.877 441.462 137.28 441.792 136.681C455.315 114.153 474.579 94.6421 498.937 80.5611C523.308 66.4733 549.844 59.5179 576.127 59.0484ZM576.127 58.0481C576.806 58.036 577.486 58.0282 578.165 58.0248C548.546 7.42856 495.4 -20.9578 440.652 -21.2723C469.893 28.7172 522.093 57.0402 576.127 58.0481ZM446.199 -10.6737C474.452 30.4069 519.049 54.7235 566.034 58.5447C542.92 60.4124 519.848 67.3183 498.437 79.6954C477.028 92.0708 459.531 108.615 446.378 127.709C466.512 85.0882 467.696 34.3095 446.199 -10.6737ZM433.395 -32.8241C402.712 -77.4373 352.754 -102.279 301.395 -102.571C314.964 -125.856 334.598 -146.03 359.601 -160.483C384.603 -174.935 411.883 -181.881 438.832 -182.019C413.453 -137.368 410.048 -81.6781 433.395 -32.8241ZM439.783 -22.7763C410.617 -73.8748 412.659 -134.342 439.984 -182.021C494.938 -181.905 548.356 -153.497 578.081 -102.72C550.963 -102.582 523.511 -95.593 498.352 -81.0495C473.193 -66.5063 453.436 -46.2063 439.783 -22.7763ZM81.2675 0.41086C4.90585 44.5526 -21.3833 142.059 22.2837 218.564C35.9368 195.134 55.6937 174.835 80.852 160.292C106.013 145.747 133.466 138.758 160.586 138.621C131.335 87.3801 133.273 26.7752 160.499 -21.1253C133.55 -20.9881 106.27 -14.042 81.2675 0.41086ZM220.434 -80.0356C245.436 -94.4885 272.717 -101.435 299.666 -101.572C274.288 -56.9219 270.882 -1.23351 294.227 47.6198C263.544 3.00804 213.586 -21.8332 162.229 -22.125C175.797 -45.4091 195.431 -65.5828 220.434 -80.0356ZM300.819 -101.573C273.493 -53.8954 271.451 6.57166 300.617 57.6701C314.27 34.2403 334.027 13.9406 359.185 -0.602507C384.344 -15.1459 411.796 -22.1353 438.913 -22.2731C409.19 -73.0491 355.772 -101.457 300.819 -101.573ZM307.212 208.155C327.346 165.535 328.53 114.758 307.035 69.7763C335.287 110.853 379.88 135.169 426.86 138.992C403.749 140.86 380.68 147.766 359.271 160.142C337.863 172.517 320.365 189.061 307.212 208.155ZM301.486 59.1741C330.72 109.154 382.906 137.476 436.927 138.495C437.388 138.487 437.849 138.48 438.31 138.476C438.54 138.474 438.769 138.472 438.999 138.471C409.38 87.8747 356.234 59.4884 301.486 59.1741ZM441.95 139.511C441.555 139.516 441.16 139.519 440.766 139.521C470.011 189.48 522.193 217.785 576.207 218.794C576.889 218.782 577.57 218.774 578.252 218.771C549.012 168.82 496.842 140.516 442.837 139.498C442.541 139.503 442.245 139.507 441.95 139.511ZM438.975 139.521C438.293 139.516 437.61 139.508 436.928 139.495C410.656 139.97 384.132 146.925 359.771 161.007C335.413 175.088 316.15 194.598 302.627 217.125C302.296 217.725 301.962 218.323 301.623 218.919C302.304 218.923 302.984 218.932 303.664 218.944C329.938 218.471 356.464 211.515 380.827 197.432C405.186 183.351 424.45 163.84 437.973 141.312C438.303 140.713 438.637 140.116 438.975 139.521ZM520.495 117.851C499.085 130.227 476.016 137.132 452.905 139.001C499.886 142.824 544.479 167.139 572.731 208.216C551.235 163.234 552.42 112.457 572.553 69.8382C559.4 88.9318 541.903 105.476 520.495 117.851ZM579.035 57.5224C579.384 56.9234 579.737 56.3264 580.094 55.7315C606.168 8.41095 607.669 -50.9427 578.949 -101.218C551.897 -53.6181 549.972 6.60368 579.035 57.5224ZM579.814 -101.719C606.932 -54.253 607.278 1.25653 585.545 47.261C598.698 28.1673 616.196 11.6236 637.604 -0.751783C662.763 -15.2951 690.214 -22.2845 717.332 -22.4223C687.712 -73.02 634.564 -101.407 579.814 -101.719ZM579.063 59.5783C578.714 60.1767 578.362 60.773 578.005 61.3672C551.938 108.673 550.431 168.004 579.121 218.269C579.462 217.684 579.806 217.102 580.154 216.521C606.244 169.21 607.761 109.858 579.063 59.5783ZM161.652 -21.127C134.326 26.5513 132.284 87.0189 161.45 138.118C175.103 114.687 194.86 94.3873 220.019 79.8439C245.178 65.3005 272.63 58.3111 299.747 58.1733C270.023 7.39711 216.606 -21.0112 161.652 -21.127ZM161.452 140.12C134.398 187.72 132.472 247.942 161.535 298.862C175.188 275.432 194.945 255.132 220.104 240.589C241.513 228.213 264.583 221.307 287.695 219.439C236.982 215.312 189.051 187.309 161.452 140.12ZM297.767 218.942C243.743 217.926 191.555 189.603 162.319 139.622C217.067 139.936 270.212 168.322 299.832 218.918C299.144 218.922 298.455 218.93 297.767 218.942ZM301.599 219.969C302.287 219.965 302.976 219.957 303.665 219.945C357.671 220.961 409.843 249.266 439.084 299.217C438.396 299.221 437.708 299.229 437.02 299.241C383.013 298.225 330.84 269.92 301.599 219.969ZM297.767 219.942C298.447 219.955 299.128 219.964 299.809 219.968C299.47 220.563 299.136 221.161 298.806 221.761C285.283 244.287 266.019 263.798 241.661 277.879C217.287 291.968 190.747 298.924 164.461 299.392C163.774 299.379 163.086 299.371 162.399 299.367C175.967 276.082 195.602 255.908 220.604 241.455C244.967 227.372 271.493 220.416 297.767 219.942ZM313.737 219.448C336.848 217.58 359.918 210.674 381.327 198.298C402.736 185.922 420.233 169.379 433.386 150.285C413.253 192.904 412.068 243.681 433.564 288.664C405.311 247.586 360.718 223.271 313.737 219.448ZM438.839 141.812C439.196 141.218 439.548 140.622 439.897 140.024C468.593 190.3 467.078 249.646 440.995 296.956C440.644 297.541 440.297 298.127 439.954 298.716C411.263 248.45 412.772 189.118 438.839 141.812ZM439.783 -20.7701C468.502 29.5058 467.001 88.8604 440.925 136.181C440.569 136.775 440.217 137.371 439.868 137.968C410.806 87.0502 412.731 26.8293 439.783 -20.7701ZM300.701 218.416C271.639 167.497 273.564 107.275 300.616 59.6757C329.336 109.951 327.835 169.305 301.76 216.626C301.403 217.221 301.05 217.817 300.701 218.416ZM300.73 220.472C300.381 221.07 300.029 221.666 299.672 222.26C273.605 269.566 272.098 328.897 300.788 379.162C301.13 378.575 301.476 377.99 301.826 377.407C327.911 330.097 329.427 270.749 300.73 220.472ZM242.161 278.744C220.749 291.122 197.676 298.028 174.562 299.895C221.549 303.716 266.148 328.035 294.402 369.119C272.902 324.135 274.085 273.354 294.22 230.732C281.067 249.825 263.57 266.369 242.161 278.744ZM164.462 300.392C163.786 300.404 163.109 300.412 162.433 300.415C191.678 350.374 243.861 378.679 297.876 379.688C298.557 379.676 299.237 379.668 299.917 379.664C270.669 329.702 218.481 301.396 164.462 300.392ZM160.642 300.414C159.974 300.41 159.306 300.402 158.638 300.39C132.351 300.857 105.812 307.813 81.4374 321.902C56.2575 336.458 36.522 356.816 22.944 380.31C52.1256 430.61 104.489 459.12 158.699 460.135C159.385 460.123 160.071 460.115 160.757 460.112C131.516 408.888 133.443 348.307 160.642 300.414ZM80.9369 321.037C102.349 308.659 125.422 301.753 148.536 299.886C97.8205 295.762 49.8862 267.757 22.2855 220.566C-4.76867 268.166 -6.6953 328.39 22.3682 379.31C36.0214 355.88 55.7784 335.58 80.9369 321.037ZM22.8594 219.564C52.0451 269.87 104.419 298.381 158.636 299.389C159.315 299.377 159.993 299.369 160.672 299.366C131.421 248.126 133.359 187.521 160.585 139.621C133.636 139.758 106.355 146.704 81.3524 161.157C56.1728 175.713 36.4375 196.07 22.8594 219.564ZM220.519 80.7097C195.517 95.1627 175.882 115.337 162.314 138.621C213.672 138.913 263.629 163.755 294.313 208.367C270.966 159.513 274.372 103.824 299.751 59.1735C272.802 59.3108 245.522 66.2568 220.519 80.7097ZM578.084 -101.72C551.135 -101.583 523.855 -94.6366 498.853 -80.1838C473.85 -65.7308 454.216 -45.557 440.647 -22.2726C492.005 -21.9806 541.962 2.86061 572.645 47.4721C549.3 -1.38139 552.706 -57.07 578.084 -101.72ZM585.453 69.6286C606.95 114.614 605.763 165.396 585.625 208.017C598.779 188.919 616.279 172.372 637.691 159.994C659.1 147.618 682.17 140.713 705.281 138.844C658.299 135.022 613.705 110.706 585.453 69.6286ZM719.187 139.374C719.874 139.37 720.561 139.362 721.248 139.35C775.255 140.365 827.429 168.67 856.671 218.622C856.001 218.626 855.33 218.633 854.659 218.645C800.634 217.646 748.438 189.341 719.187 139.374ZM715.356 139.348C716.036 139.36 716.715 139.369 717.395 139.373C717.062 139.959 716.733 140.547 716.408 141.137C702.884 163.676 683.615 183.197 659.246 197.284C634.877 211.371 608.344 218.326 582.064 218.797C581.39 218.784 580.715 218.776 580.041 218.772C580.105 218.66 580.168 218.548 580.231 218.436C580.325 218.27 580.419 218.103 580.512 217.937C580.682 217.632 580.852 217.327 581.021 217.021C594.545 194.476 613.817 174.95 638.191 160.86C662.555 146.777 689.081 139.821 715.356 139.348ZM731.322 138.853C754.433 136.985 777.503 130.079 798.912 117.703C820.325 105.325 837.825 88.7772 850.979 69.6785C830.84 112.302 829.654 163.088 851.155 208.076C822.903 166.994 778.306 142.676 731.322 138.853ZM855.588 60.6676C842.063 83.2164 822.789 102.746 798.412 116.837C774.049 130.921 747.522 137.876 721.247 138.35C720.976 138.345 720.705 138.34 720.435 138.337C720.285 138.335 720.136 138.333 719.987 138.331C719.831 138.329 719.675 138.328 719.518 138.327C719.415 138.326 719.312 138.325 719.208 138.325C719.541 137.738 719.87 137.151 720.195 136.561C733.719 114.022 752.989 94.5004 777.357 80.4137C802.36 65.9607 829.641 59.0146 856.59 58.8775C856.521 58.9988 856.452 59.1201 856.384 59.2416C856.274 59.436 856.165 59.6306 856.056 59.8253C855.998 59.9279 855.941 60.0305 855.884 60.1331C855.785 60.3111 855.686 60.4893 855.588 60.6676ZM858.374 57.8782C858.703 57.299 859.028 56.7181 859.35 56.1353C872.874 33.5866 892.148 14.0569 916.525 -0.0344452C941.705 -14.5901 969.196 -21.5318 996.332 -21.5725C1025.73 29.4645 1023.89 89.953 996.733 137.726C966.943 86.7929 913.468 58.2101 858.374 57.8782ZM856.453 61.1692C856.8 60.5911 857.143 60.0109 857.482 59.429C886.187 109.721 884.662 169.089 858.554 216.407C858.37 216.714 858.187 217.021 858.005 217.329C857.929 217.458 857.853 217.587 857.778 217.716L857.655 217.926L857.542 218.119C828.842 167.837 830.36 108.482 856.453 61.1692ZM863.958 47.1243C885.696 1.11704 885.352 -54.3985 858.231 -101.869C912.983 -101.557 966.132 -73.1702 995.753 -22.5708C968.635 -22.4329 941.183 -15.4435 916.025 -0.900204C894.612 11.4777 877.112 28.0257 863.958 47.1243ZM359.685 0.263252C384.688 -14.1897 411.969 -21.1358 438.918 -21.2729C413.54 23.3769 410.134 79.0653 433.479 127.919C402.795 83.3069 352.838 58.4656 301.481 58.1739C315.049 34.8897 334.683 14.716 359.685 0.263252ZM446.461 288.461C466.597 245.84 467.783 195.06 446.287 150.075C474.54 191.154 519.136 215.47 566.119 219.291C543.006 221.159 519.935 228.065 498.524 240.441C477.113 252.818 459.614 269.364 446.461 288.461ZM582.063 219.797C581.381 219.809 580.7 219.817 580.019 219.82C609.269 269.787 661.463 298.093 715.487 299.093C716.16 299.081 716.832 299.073 717.504 299.07C688.259 249.111 636.077 220.806 582.063 219.797ZM578.229 219.819C577.555 219.815 576.881 219.807 576.207 219.795C549.926 220.265 523.393 227.221 499.024 241.307C474.655 255.394 455.385 274.916 441.861 297.456L441.741 297.673L441.596 297.936C441.549 298.02 441.502 298.103 441.456 298.187C441.263 298.531 441.07 298.875 440.875 299.218C441.556 299.222 442.237 299.231 442.917 299.243C469.191 298.769 495.717 291.814 520.079 277.731C544.453 263.641 563.725 244.115 577.249 221.57C577.572 220.985 577.899 220.401 578.229 219.819ZM659.746 198.15C638.336 210.526 615.264 217.432 592.152 219.3C639.135 223.122 683.73 247.437 711.984 288.516C690.487 243.531 691.673 192.751 711.81 150.131C698.656 169.227 681.157 185.773 659.746 198.15ZM719.066 -21.4217C746.185 26.0475 746.53 81.5609 724.794 127.567C737.947 108.471 755.446 91.9246 776.857 79.5479C802.016 65.0045 829.467 58.0152 856.585 57.8774C826.965 7.27828 773.816 -21.109 719.066 -21.4217ZM718.315 139.877C717.972 140.465 717.625 141.052 717.275 141.636C691.192 188.946 689.678 248.291 718.374 298.567C718.712 297.986 719.055 297.406 719.401 296.829C745.495 249.515 747.015 190.16 718.315 139.877ZM307.119 230.521C328.616 275.506 327.431 326.288 307.293 368.909C320.447 349.812 337.946 333.265 359.358 320.888C380.767 308.512 403.836 301.606 426.948 299.738C379.966 295.915 335.371 271.599 307.119 230.521ZM440.851 300.267C441.54 300.264 442.228 300.256 442.917 300.244C496.924 301.259 549.097 329.564 578.339 379.516C577.663 379.52 576.986 379.528 576.31 379.539C522.29 378.536 470.1 350.231 440.851 300.267ZM437.02 300.241C437.7 300.254 438.381 300.262 439.062 300.267C438.865 300.613 438.669 300.961 438.475 301.309C438.341 301.549 438.208 301.789 438.076 302.029C424.552 324.568 405.282 344.09 380.913 358.177C356.543 372.265 330.009 379.22 303.727 379.69C303.055 379.678 302.382 379.669 301.708 379.665C302.04 379.081 302.368 378.495 302.692 377.907C316.216 355.365 335.487 335.842 359.858 321.754C384.22 307.671 410.746 300.715 437.02 300.241ZM452.99 299.747C476.101 297.878 499.17 290.973 520.579 278.597C541.991 266.219 559.491 249.672 572.645 230.574C552.507 273.195 551.321 323.977 572.818 368.962C544.565 327.885 499.971 303.569 452.99 299.747ZM578.116 222.069C578.464 221.489 578.808 220.907 579.149 220.323C607.851 270.61 606.329 329.971 580.229 377.286C579.885 377.86 579.544 378.436 579.208 379.014C550.509 328.733 552.027 269.381 578.116 222.069ZM439.982 300.77C439.64 301.358 439.293 301.944 438.943 302.528C412.859 349.838 411.344 409.184 440.041 459.461C440.094 459.369 440.148 459.278 440.201 459.186C440.283 459.047 440.365 458.907 440.447 458.768C440.652 458.42 440.858 458.074 441.065 457.728C467.162 410.414 468.683 351.055 439.982 300.77ZM381.413 359.043C360.002 371.42 336.931 378.326 313.818 380.194C360.801 384.015 405.397 408.331 433.651 449.409C412.154 404.425 413.34 353.644 433.477 311.024C420.323 330.12 402.824 346.666 381.413 359.043ZM303.728 380.69C303.047 380.703 302.366 380.71 301.686 380.714C330.939 430.685 383.141 458.992 437.171 459.986C437.304 459.984 437.437 459.982 437.569 459.98C437.717 459.978 437.864 459.976 438.011 459.974C438.398 459.969 438.785 459.966 439.172 459.964C409.926 410.004 357.743 381.699 303.728 380.69ZM299.896 380.713C299.223 380.709 298.55 380.701 297.878 380.688C271.596 381.158 245.061 388.114 220.691 402.201C195.689 416.654 176.054 436.828 162.486 460.112C163.181 460.116 163.875 460.125 164.57 460.138C190.848 459.666 217.379 452.711 241.746 438.625C266.117 424.537 285.388 405.013 298.912 382.471C299.236 381.883 299.564 381.297 299.896 380.713ZM287.786 380.184C237.071 376.06 189.137 348.055 161.537 300.864C134.483 348.465 132.557 408.689 161.621 459.609C175.275 436.179 195.032 415.878 220.191 401.335C241.602 388.958 264.673 382.052 287.786 380.184ZM299.779 382.971C300.128 382.389 300.473 381.804 300.815 381.218C329.519 431.508 327.995 490.874 301.89 538.191C301.548 538.761 301.21 539.333 300.875 539.907C272.178 489.63 273.693 430.282 299.779 382.971ZM174.653 460.641C197.765 458.773 220.836 451.867 242.246 439.491C263.658 427.114 281.157 410.567 294.311 391.47C274.172 434.094 272.988 484.88 294.491 529.868C266.238 488.783 221.639 464.463 174.653 460.641ZM162.519 461.161C163.202 461.158 163.886 461.15 164.571 461.138C218.582 462.15 270.76 490.455 300.004 540.411C299.337 540.414 298.671 540.422 298.004 540.434C243.974 539.439 191.772 511.133 162.519 461.161ZM158.699 461.136C159.375 461.148 160.052 461.156 160.729 461.161C133.521 509.068 131.602 569.672 160.871 620.906C105.922 620.593 52.5857 592.001 23.0296 541.056C36.6077 517.562 56.3432 497.204 81.5234 482.648C105.89 468.563 132.421 461.607 158.699 461.136ZM148.617 460.632C125.504 462.5 102.433 469.406 81.0229 481.782C55.8641 496.326 36.107 516.626 22.4539 540.056C-6.61019 489.136 -4.68389 428.912 22.3701 381.312C49.9698 428.502 97.9023 456.506 148.617 460.632ZM724.876 288.317C745.017 245.691 746.202 194.903 724.699 149.914C752.953 191.002 797.555 215.322 844.545 219.142C821.43 221.009 798.356 227.915 776.943 240.293C755.53 252.671 738.03 269.219 724.876 288.317ZM860.449 219.648C859.779 219.66 859.109 219.667 858.439 219.671C887.685 269.631 939.869 297.936 993.885 298.944C994.564 298.932 995.244 298.924 995.923 298.92C966.672 248.953 914.475 220.646 860.449 219.648ZM856.65 219.67C855.986 219.666 855.323 219.658 854.66 219.646C828.368 220.111 801.823 227.066 777.443 241.159C753.066 255.25 733.792 274.78 720.267 297.329C719.946 297.912 719.621 298.492 719.292 299.071C719.957 299.075 720.621 299.083 721.286 299.095C747.576 298.629 774.12 291.674 798.498 277.582C822.884 263.485 842.164 243.946 855.689 221.386C855.75 221.276 855.811 221.166 855.872 221.056L856.002 220.821C856.217 220.437 856.432 220.053 856.65 219.67ZM938.166 198C916.753 210.378 893.679 217.284 870.564 219.151C921.281 223.274 969.217 251.279 996.819 298.471C1023.87 250.871 1025.8 190.648 996.734 139.728C983.081 163.158 963.324 183.457 938.166 198ZM937.666 197.134C962.685 182.672 982.329 162.48 995.899 139.176C968.932 139.304 941.631 146.249 916.611 160.712C892.225 174.809 872.945 194.348 859.42 216.907C859.328 217.075 859.235 217.243 859.142 217.41L859.041 217.591C858.953 217.749 858.865 217.906 858.776 218.063C858.671 218.25 858.565 218.437 858.459 218.623C858.832 218.626 859.205 218.629 859.577 218.634C859.868 218.638 860.159 218.642 860.449 218.648C886.741 218.182 913.287 211.227 937.666 197.134ZM1135.99 218.024C1106.2 167.091 1052.72 138.508 997.627 138.177C1024.84 90.2686 1026.76 29.6639 997.486 -21.5701C1052.52 -21.2559 1105.93 7.41923 1135.46 58.5026C1164.99 109.586 1163.18 170.181 1135.99 218.024ZM585.539 230.373C607.036 275.36 605.849 326.144 585.709 368.766C598.863 349.667 616.364 333.118 637.777 320.74C659.189 308.363 682.263 301.456 705.377 299.589C658.392 295.77 613.793 271.454 585.539 230.373ZM719.27 300.118C719.943 300.115 720.615 300.107 721.288 300.095C775.312 301.095 827.506 329.401 856.757 379.368C856.068 379.371 855.38 379.379 854.691 379.391C800.684 378.375 748.512 350.07 719.27 300.118ZM715.489 300.093C716.153 300.105 716.817 300.113 717.482 300.117C717.153 300.696 716.828 301.276 716.507 301.859C702.982 324.408 683.708 343.937 659.331 358.029C634.957 372.119 608.417 379.074 582.131 379.542C581.463 379.529 580.795 379.521 580.126 379.517C580.453 378.942 580.775 378.366 581.095 377.787C594.619 355.234 613.896 335.7 638.277 321.606C662.655 307.514 689.198 300.559 715.489 300.093ZM731.397 299.598C754.512 297.731 777.586 290.825 798.998 278.447C820.413 266.068 837.914 249.519 851.069 230.418C830.926 273.043 829.739 323.831 851.241 368.821C822.986 327.736 778.385 303.418 731.397 299.598ZM864.041 207.876C885.782 161.868 885.439 106.351 858.319 58.8781C913.069 59.1908 966.217 87.5775 995.837 138.176C968.72 138.314 941.269 145.303 916.111 159.846C894.696 172.225 877.195 188.775 864.041 207.876ZM856.555 221.887C856.896 221.317 857.234 220.746 857.568 220.173C886.258 270.438 884.751 329.769 858.684 377.075C858.328 377.669 857.975 378.265 857.626 378.863C828.922 328.571 830.448 269.204 856.555 221.887ZM446.543 449.212C466.682 406.59 467.869 355.807 446.372 310.82C474.626 351.9 519.223 376.216 566.208 380.036C543.094 381.904 520.022 388.81 498.61 401.187C477.197 413.565 459.697 430.113 446.543 449.212ZM582.13 380.542C581.455 380.554 580.78 380.562 580.105 380.565C609.345 430.516 661.516 458.82 715.521 459.838C715.818 459.832 716.114 459.828 716.411 459.824C716.804 459.819 717.197 459.816 717.589 459.814C688.341 409.851 636.15 381.545 582.13 380.542ZM578.316 380.564C577.885 380.562 577.455 380.558 577.025 380.551C576.787 380.548 576.549 380.544 576.311 380.54C550.025 381.008 523.485 387.963 499.11 402.053C474.731 416.145 455.456 435.677 441.931 458.229C441.611 458.809 441.287 459.388 440.959 459.965C441.618 459.969 442.277 459.977 442.936 459.989C469.232 459.525 495.782 452.57 520.165 438.475C544.546 424.381 563.823 404.847 577.348 382.294C577.456 382.097 577.565 381.9 577.675 381.703C577.887 381.323 578.101 380.943 578.316 380.564ZM659.831 358.895C638.42 371.272 615.347 378.178 592.233 380.045C639.218 383.866 683.816 408.182 712.071 449.263C690.572 404.276 691.759 353.493 711.898 310.87C698.744 329.969 681.244 346.517 659.831 358.895ZM718.401 300.62C718.062 301.202 717.72 301.781 717.374 302.358C691.279 349.672 689.759 409.027 718.459 459.311C718.808 458.713 719.16 458.117 719.516 457.523C745.584 410.217 747.092 350.886 718.401 300.62ZM578.214 382.794C578.558 382.22 578.898 381.644 579.235 381.067C607.926 431.332 606.418 490.663 580.351 537.969C579.994 538.563 579.642 539.159 579.293 539.758C550.59 489.47 552.113 430.109 578.214 382.794ZM453.061 460.492C476.177 458.626 499.252 451.719 520.665 439.341C542.079 426.963 559.579 410.414 572.733 391.315C552.593 433.937 551.406 484.722 572.904 529.71C544.649 488.627 500.048 464.311 453.061 460.492ZM440.937 461.011C441.604 461.008 442.271 461.001 442.938 460.989C496.967 461.983 549.17 490.29 578.424 540.262C577.739 540.265 577.054 540.273 576.369 540.285C522.358 539.272 470.18 510.967 440.937 461.011ZM437.173 460.987C437.472 460.992 437.771 460.997 438.07 461.001C438.311 461.004 438.551 461.006 438.791 461.008C438.911 461.009 439.03 461.01 439.149 461.011C438.821 461.588 438.497 462.166 438.177 462.747C424.652 485.298 405.377 504.83 380.998 518.922C356.615 533.017 330.065 539.973 303.769 540.436C303.111 540.424 302.452 540.416 301.792 540.412C302.117 539.84 302.439 539.266 302.756 538.691C316.281 516.133 335.56 496.596 359.944 482.5C384.327 468.405 410.877 461.45 437.173 460.987ZM307.2 391.258C335.455 432.345 380.058 456.664 427.048 460.483C403.932 462.35 380.858 469.256 359.444 481.634C338.03 494.013 320.529 510.563 307.374 529.663C327.517 487.037 328.703 436.249 307.2 391.258ZM440.068 461.514C439.73 462.094 439.389 462.671 439.043 463.247C412.946 510.561 411.425 569.92 440.126 620.205C440.317 619.877 440.51 619.549 440.704 619.222C440.862 618.954 441.021 618.688 441.181 618.422C467.251 571.115 468.76 511.781 440.068 461.514ZM381.498 519.788C360.084 532.167 337.009 539.073 313.893 540.939C360.883 544.758 405.485 569.077 433.74 610.163C412.239 565.174 413.425 514.387 433.566 471.763C420.412 490.862 402.911 507.41 381.498 519.788ZM303.77 541.436C303.104 541.448 302.438 541.455 301.772 541.459C331.016 591.415 383.195 619.72 437.207 620.731C437.89 620.719 438.573 620.711 439.255 620.708C410.002 570.737 357.799 542.43 303.77 541.436ZM299.983 541.458C299.324 541.454 298.664 541.446 298.006 541.434C271.71 541.897 245.159 548.852 220.776 562.947C195.757 577.41 176.112 597.602 162.543 620.907C189.51 620.779 216.811 613.833 241.831 599.37C266.215 585.275 285.494 565.737 299.019 543.18C299.337 542.604 299.658 542.03 299.983 541.458ZM287.881 540.93C237.163 536.808 189.226 508.804 161.623 461.611C134.57 509.211 132.644 569.434 161.708 620.354C175.361 596.924 195.118 576.625 220.276 562.082C241.69 549.703 264.765 542.797 287.881 540.93ZM299.885 543.68C300.227 543.11 300.566 542.537 300.9 541.962C329.598 592.24 328.082 651.588 301.996 698.899C301.647 699.482 301.301 700.066 300.96 700.652C272.256 650.362 273.78 590.997 299.885 543.68ZM162.605 621.907C189.722 621.768 217.173 614.779 242.331 600.236C263.746 587.857 281.247 571.308 294.401 552.207C272.66 598.215 273.003 653.732 300.124 701.204C245.373 700.892 192.225 672.505 162.605 621.907ZM160.815 621.906C133.606 669.813 131.686 730.418 160.956 781.651C105.926 781.337 52.5156 752.662 22.9863 701.579C-6.54311 650.495 -4.73575 589.901 22.4557 542.058C52.245 592.991 105.72 621.574 160.815 621.906ZM864.136 368.604C884.271 325.982 885.454 275.202 863.955 230.218C892.208 271.301 936.806 295.619 983.792 299.44C960.678 301.308 937.606 308.214 916.195 320.591C894.786 332.966 877.289 349.51 864.136 368.604ZM997.713 298.921C998.385 298.925 999.057 298.934 999.729 298.946C1026.01 298.477 1052.55 291.521 1076.92 277.433C1102.1 262.878 1121.83 242.52 1135.41 219.025C1105.86 168.082 1052.52 139.49 997.571 139.176C1026.84 190.41 1024.92 251.013 997.713 298.921ZM1077.42 278.299C1056.01 290.676 1032.94 297.582 1009.82 299.45C1060.54 303.574 1108.47 331.579 1136.07 378.771C1163.13 331.17 1165.05 270.946 1135.99 220.026C1122.33 243.456 1102.58 263.756 1077.42 278.299ZM999.731 299.946C999.446 299.951 999.161 299.956 998.876 299.959C998.479 299.964 998.082 299.968 997.685 299.97C1026.93 351.193 1025 411.775 997.799 459.668C998.472 459.672 999.145 459.68 999.818 459.692C1026.1 459.222 1052.63 452.267 1077 438.18C1102.18 423.624 1121.92 403.267 1135.5 379.773C1106.31 329.469 1053.95 300.958 999.731 299.946ZM995.957 299.969C995.266 299.965 994.576 299.957 993.885 299.944C967.602 300.413 941.066 307.369 916.695 321.457C892.337 335.538 873.073 355.048 859.55 377.575C859.22 378.175 858.885 378.773 858.547 379.368C859.228 379.373 859.909 379.381 860.589 379.394C886.863 378.92 913.389 371.964 937.751 357.881C962.754 343.428 982.388 323.254 995.957 299.969ZM724.792 310.673C746.287 355.655 745.102 406.432 724.969 449.051C738.122 429.957 755.619 413.414 777.028 401.038C798.437 388.662 821.507 381.756 844.619 379.888C797.637 376.065 753.044 351.75 724.792 310.673ZM858.525 380.418C859.213 380.414 859.901 380.406 860.589 380.394C914.595 381.41 966.767 409.715 996.008 459.667C995.328 459.67 994.647 459.678 993.966 459.69C939.952 458.681 887.77 430.376 858.525 380.418ZM854.69 380.392C855.37 380.404 856.051 380.413 856.733 380.417C856.395 381.012 856.06 381.61 855.73 382.209C842.207 404.736 822.943 424.247 798.585 438.328C774.223 452.41 747.698 459.366 721.425 459.84C721.036 459.833 720.648 459.827 720.259 459.822C719.966 459.819 719.673 459.816 719.38 459.815C719.718 459.22 720.052 458.623 720.382 458.024C733.905 435.496 753.169 415.985 777.528 401.904C801.89 387.821 828.416 380.866 854.69 380.392ZM870.661 379.897C893.772 378.029 916.842 371.123 938.251 358.747C963.41 344.204 983.167 323.904 996.821 300.473C1025.88 351.393 1023.96 411.617 996.904 459.217C969.305 412.028 921.374 384.024 870.661 379.897ZM585.803 529.497C605.936 486.878 607.121 436.101 585.626 391.119C613.878 432.196 658.471 456.511 705.452 460.334C682.341 462.203 659.271 469.109 637.862 481.484C616.453 493.86 598.956 510.404 585.803 529.497ZM721.425 460.84C720.736 460.853 720.046 460.861 719.357 460.864C748.602 510.823 800.785 539.128 854.799 540.137C855.481 540.125 856.162 540.117 856.843 540.113C827.602 490.162 775.431 461.858 721.425 460.84ZM717.566 460.863C716.884 460.859 716.202 460.851 715.521 460.838C689.248 461.312 662.723 468.268 638.362 482.35C614.004 496.431 594.74 515.942 581.217 538.469C580.887 539.069 580.552 539.666 580.214 540.262C580.89 540.267 581.566 540.275 582.242 540.287C608.521 539.816 635.051 532.86 659.418 518.775C683.776 504.694 703.04 485.183 716.563 462.656C716.893 462.056 717.228 461.459 717.566 460.863ZM799.085 439.194C777.676 451.569 754.606 458.475 731.495 460.344C778.476 464.167 823.069 488.482 851.321 529.559C829.826 484.577 831.011 433.8 851.144 391.181C837.991 410.274 820.494 426.818 799.085 439.194ZM857.654 380.92C857.306 381.518 856.954 382.114 856.597 382.708C830.53 430.013 829.021 489.345 857.712 539.61C857.783 539.489 857.854 539.367 857.925 539.246L858.044 539.043L858.104 538.941C858.171 538.828 858.238 538.714 858.305 538.601C858.459 538.342 858.613 538.083 858.768 537.825C884.836 490.519 886.345 431.187 857.654 380.92ZM446.459 471.566C467.954 516.549 466.77 567.327 446.635 609.946C459.789 590.852 477.286 574.308 498.695 561.932C520.105 549.556 543.176 542.65 566.288 540.782C519.306 536.96 474.711 512.644 446.459 471.566ZM580.191 541.311C580.875 541.308 581.559 541.3 582.243 541.288C636.254 542.3 688.432 570.605 717.675 620.56C717.388 620.561 717.101 620.564 716.813 620.567C716.413 620.571 716.012 620.576 715.611 620.584C661.604 619.567 609.432 591.263 580.191 541.311ZM576.368 541.285C577.045 541.298 577.722 541.306 578.4 541.31C578.2 541.662 578.001 542.015 577.804 542.368C577.734 542.494 577.664 542.62 577.594 542.746L577.513 542.892L577.396 543.104C563.873 565.63 544.61 585.141 520.252 599.221C495.885 613.307 469.354 620.262 443.075 620.734C442.687 620.727 442.299 620.721 441.911 620.716C441.623 620.713 441.335 620.711 441.047 620.709C441.385 620.115 441.718 619.519 442.048 618.921C455.571 596.392 474.835 576.88 499.195 562.798C523.561 548.713 550.09 541.758 576.368 541.285ZM592.325 540.791C615.437 538.923 638.508 532.017 659.918 519.641C681.327 507.265 698.824 490.721 711.977 471.628C691.843 514.247 690.659 565.025 712.155 610.008C683.902 568.929 639.307 544.613 592.325 540.791ZM717.43 463.155C717.786 462.561 718.139 461.965 718.487 461.367C747.182 511.641 745.669 570.983 719.589 618.293C719.502 618.439 719.414 618.585 719.327 618.731C719.184 618.972 719.041 619.213 718.899 619.454L718.812 619.601C718.723 619.754 718.634 619.906 718.545 620.058C689.854 569.793 691.362 510.461 717.43 463.155ZM307.464 690.4C327.603 647.775 328.787 596.989 307.285 552.001C335.537 593.086 380.136 617.406 427.123 621.228C404.01 623.096 380.939 630.002 359.529 642.379C338.117 654.756 320.618 671.303 307.464 690.4ZM443.073 621.734C442.39 621.746 441.707 621.754 441.024 621.758C470.267 671.714 522.446 700.019 576.458 701.031C577.142 701.019 577.826 701.011 578.509 701.007C549.265 651.05 497.086 622.745 443.073 621.734ZM439.233 621.757C438.558 621.753 437.882 621.744 437.207 621.732C410.928 622.203 384.396 629.159 360.029 643.244C335.658 657.333 316.387 676.857 302.863 699.399C302.53 700.003 302.192 700.605 301.852 701.205C328.801 701.068 356.082 694.122 381.085 679.669C405.445 665.587 424.709 646.075 438.232 623.546C438.562 622.947 438.896 622.351 439.233 621.757ZM520.752 600.087C499.342 612.464 476.271 619.369 453.158 621.237C500.141 625.059 544.736 649.375 572.989 690.454C551.493 645.472 552.677 594.694 572.811 552.074C559.658 571.168 542.161 587.712 520.752 600.087ZM579.321 541.814C578.972 542.412 578.62 543.009 578.263 543.603C552.196 590.908 550.689 650.24 579.379 700.505C579.725 699.911 580.075 699.32 580.429 698.73C606.503 651.422 608.015 592.084 579.321 541.814ZM161.709 622.356C134.557 670.129 132.715 730.617 162.11 781.654C189.246 781.613 216.737 774.671 241.917 760.116C266.288 746.028 285.559 726.504 299.083 703.962C299.407 703.374 299.735 702.788 300.067 702.204C244.973 701.872 191.498 673.289 161.709 622.356ZM301.857 702.205C331.477 752.803 384.625 781.19 439.375 781.503C412.257 734.036 411.911 678.526 433.645 632.52C420.491 651.615 402.994 668.159 381.585 680.534C356.427 695.078 328.975 702.067 301.857 702.205ZM439.1 624.044C439.455 623.452 439.806 622.858 440.154 622.262C468.85 672.539 467.335 731.886 441.25 779.197C440.9 779.78 440.554 780.365 440.212 780.952C411.52 730.685 413.03 671.351 439.1 624.044ZM300.99 702.702C300.647 703.291 300.3 703.877 299.95 704.462C273.768 751.947 272.338 811.558 301.364 861.953C328.499 861.912 355.99 854.971 381.17 840.415C405.541 826.327 424.812 806.803 438.336 784.262C438.66 783.674 438.988 783.087 439.32 782.503C384.243 782.171 330.784 753.606 300.99 702.702ZM300.21 861.951C273.09 814.481 272.745 758.967 294.482 712.96C281.328 732.058 263.829 748.604 242.417 760.982C217.259 775.525 189.807 782.514 162.69 782.652C192.31 833.251 245.459 861.639 300.21 861.951ZM864.041 390.965C885.54 435.949 884.356 486.729 864.221 529.351C877.375 510.257 894.872 493.713 916.281 481.337C937.692 468.96 960.764 462.054 983.877 460.187C936.892 456.365 892.294 432.047 864.041 390.965ZM997.77 460.716C998.039 460.715 998.308 460.713 998.576 460.71C998.99 460.706 999.405 460.7 999.819 460.693C1054.03 461.705 1106.4 490.215 1135.58 540.517C1122 564.011 1102.27 584.369 1077.09 598.924C1052.09 613.377 1024.81 620.324 997.856 620.461C1025.08 572.561 1027.02 511.956 997.77 460.716ZM993.966 460.69C994.658 460.703 995.35 460.712 996.042 460.716C982.474 484 962.839 504.174 937.837 518.626C913.467 532.714 886.933 539.669 860.651 540.139C859.979 540.127 859.306 540.118 858.633 540.114C858.97 539.52 859.304 538.924 859.633 538.326C873.156 515.797 892.421 496.285 916.781 482.203C941.151 468.116 967.685 461.16 993.966 460.69ZM1009.91 460.196C1033.02 458.328 1056.09 451.423 1077.51 439.045C1102.66 424.502 1122.42 404.203 1136.07 380.773C1165.14 431.693 1163.21 491.915 1136.16 539.515C1108.56 492.325 1060.62 464.321 1009.91 460.196ZM938.337 519.492C916.926 531.869 893.855 538.775 870.742 540.643C921.456 544.767 969.389 572.771 996.99 619.961C1024.04 572.361 1025.97 512.139 996.906 461.219C983.253 484.649 963.496 504.949 938.337 519.492ZM860.651 541.14C859.97 541.152 859.29 541.159 858.609 541.163C888.228 591.76 941.375 620.146 996.123 620.46C966.883 570.471 914.684 542.148 860.651 541.14ZM856.819 541.162C856.146 541.158 855.473 541.15 854.801 541.137C828.519 541.607 801.985 548.563 777.615 562.65C753.247 576.736 733.979 596.256 720.455 618.794C720.129 619.385 719.8 619.974 719.466 620.561C719.76 620.563 720.054 620.565 720.348 620.569C720.735 620.573 721.121 620.579 721.507 620.586C747.781 620.113 774.308 613.157 798.671 599.074C823.031 584.992 842.295 565.48 855.819 542.951C855.999 542.623 856.181 542.296 856.363 541.97L856.435 541.842C856.496 541.734 856.557 541.626 856.617 541.519C856.685 541.4 856.752 541.281 856.819 541.162ZM844.71 540.634C797.726 536.812 753.13 512.496 724.876 471.416C746.374 516.401 745.189 567.181 725.052 609.802C738.206 590.706 755.704 574.161 777.115 561.784C798.526 549.407 821.597 542.501 844.71 540.634ZM585.711 551.864C607.207 596.848 606.023 647.627 585.887 690.247C599.041 671.152 616.539 654.607 637.949 642.231C659.358 629.855 682.428 622.949 705.539 621.08C658.557 617.258 613.963 592.942 585.711 551.864ZM719.442 621.61C720.131 621.607 720.819 621.599 721.508 621.586C775.533 622.603 827.721 650.925 856.957 700.907C802.209 700.594 749.062 672.207 719.442 621.61ZM715.61 621.584C716.291 621.597 716.972 621.605 717.653 621.609C717.319 622.197 716.989 622.787 716.663 623.378C703.139 645.915 683.871 665.435 659.504 679.521C635.137 693.606 608.606 700.562 582.327 701.033C581.652 701.021 580.976 701.012 580.3 701.008C580.635 700.418 580.967 699.825 581.295 699.231C594.818 676.697 614.085 657.18 638.449 643.096C662.811 629.013 689.337 622.058 715.61 621.584ZM731.581 621.09C754.692 619.221 777.762 612.315 799.171 599.94C820.58 587.564 838.077 571.02 851.231 551.926C831.097 594.543 829.912 645.319 851.405 690.3C823.152 649.225 778.56 624.912 731.581 621.09ZM856.685 543.45C857.041 542.858 857.392 542.263 857.74 541.666C886.802 592.584 884.877 652.806 857.825 700.405C829.105 650.128 830.607 590.772 856.685 543.45ZM717.692 623.606C717.638 623.696 717.584 623.787 717.53 623.877C691.442 671.201 689.935 730.567 718.659 780.851C745.71 733.252 747.635 673.031 718.573 622.113C718.358 622.481 718.142 622.849 717.925 623.215C717.848 623.346 717.77 623.476 717.692 623.606ZM660.004 680.386C638.594 692.763 615.523 699.669 592.411 701.537C639.393 705.358 683.988 729.674 712.242 770.753C690.745 725.768 691.93 674.989 712.067 632.368C698.913 651.464 681.415 668.01 660.004 680.386ZM582.329 702.033C581.645 702.046 580.96 702.053 580.277 702.057C609.896 752.653 663.042 781.039 717.79 781.354C688.551 731.368 636.357 703.046 582.329 702.033ZM578.487 702.056C577.811 702.052 577.134 702.044 576.459 702.031C550.18 702.503 523.649 709.458 499.282 723.544C474.911 737.632 455.64 757.155 442.116 779.697C441.783 780.301 441.446 780.904 441.104 781.504C468.054 781.367 495.335 774.421 520.338 759.968C544.702 745.884 563.969 726.367 577.492 703.834C577.82 703.239 578.151 702.647 578.487 702.056ZM566.375 701.527C519.39 697.705 474.793 673.387 446.54 632.305C468.04 677.292 466.855 728.076 446.717 770.699C459.871 751.602 477.37 735.055 498.782 722.678C520.192 710.301 543.263 703.395 566.375 701.527ZM441.109 782.504C470.73 833.102 523.878 861.489 578.629 861.801C551.511 814.333 551.165 758.822 572.9 712.817C559.746 731.912 542.248 748.457 520.838 760.834C495.679 775.377 468.227 782.367 441.109 782.504ZM578.359 704.333C578.712 703.744 579.062 703.153 579.407 702.56C608.469 753.478 606.544 813.698 579.493 861.298C550.771 811.017 552.275 751.656 578.359 704.333ZM440.242 783.002C439.899 783.59 439.553 784.177 439.202 784.761C413.021 832.246 411.591 891.855 440.616 942.25C467.751 942.209 495.243 935.268 520.423 920.712C545.425 906.259 565.059 886.086 578.628 862.801C523.532 862.488 470.047 833.922 440.242 783.002ZM439.462 942.248C412.343 894.779 411.998 839.266 433.735 793.26C420.581 812.357 403.082 828.904 381.67 841.281C356.512 855.824 329.061 862.813 301.944 862.951C331.564 913.549 384.712 941.935 439.462 942.248ZM864.13 551.716C887.475 600.569 884.068 656.258 858.69 700.908C885.639 700.771 912.919 693.824 937.922 679.372C962.924 664.919 982.559 644.745 996.127 621.46C944.77 621.168 894.813 596.327 864.13 551.716ZM997.856 621.461C1024.98 621.324 1052.43 614.334 1077.59 599.79C1102.75 585.247 1122.5 564.947 1136.16 541.517C1179.83 618.022 1153.54 715.529 1077.17 759.671C1052.17 774.124 1024.89 781.07 997.943 781.207C1025.17 733.306 1027.11 672.702 997.856 621.461ZM719.524 781.354C744.902 736.704 748.308 681.015 724.962 632.162C755.645 676.774 805.603 701.616 856.961 701.907C843.392 725.192 823.758 745.365 798.756 759.818C773.753 774.271 746.473 781.217 719.524 781.354ZM996.791 781.209C941.837 781.093 888.418 752.685 858.694 701.908C885.812 701.77 913.264 694.781 938.422 680.237C963.581 665.694 983.338 645.394 996.992 621.963C1026.16 673.062 1024.12 733.53 996.791 781.209ZM719.528 782.354C746.646 782.216 774.097 775.227 799.256 760.684C824.415 746.14 844.172 725.84 857.826 702.41C886.992 753.509 884.95 813.977 857.624 861.655C802.67 861.54 749.252 833.131 719.528 782.354ZM585.796 712.608C616.479 757.22 666.436 782.062 717.794 782.354C704.226 805.638 684.591 825.813 659.589 840.266C634.587 854.718 607.306 861.664 580.357 861.802C605.736 817.151 609.142 761.462 585.796 712.608ZM718.458 942.102C663.504 941.986 610.087 913.578 580.363 862.802C607.48 862.664 634.931 855.674 660.089 841.131C685.248 826.588 705.005 806.288 718.659 782.857C747.825 833.956 745.783 894.423 718.458 942.102ZM579.495 863.299C609.3 914.22 662.785 942.787 717.881 943.1C704.313 966.384 684.678 986.558 659.676 1001.01C583.314 1045.15 485.698 1019.27 441.195 943.248C468.313 943.111 495.764 936.121 520.923 921.578C546.084 907.033 565.842 886.731 579.495 863.299ZM996.214 782.207C944.858 781.915 894.903 757.076 864.219 712.467C887.561 761.319 884.155 817.006 858.777 861.654C885.726 861.517 913.006 854.57 938.009 840.118C963.011 825.665 982.645 805.491 996.214 782.207ZM857.048 862.653C805.69 862.362 755.732 837.52 725.049 792.908C748.395 841.762 744.989 897.45 719.61 942.1C746.559 941.963 773.84 935.017 798.843 920.564C823.845 906.111 843.479 885.938 857.048 862.653Z" fill="#FDFDFD"/>
</svg>
