<svg width="664" height="446" viewBox="0 0 664 446" fill="none" xmlns="http://www.w3.org/2000/svg">
<path fill-rule="evenodd" clip-rule="evenodd" d="M193.561 -326.439C207.129 -349.724 226.764 -369.898 251.766 -384.351C328.129 -428.493 425.745 -402.61 470.247 -326.588C443.129 -326.45 415.677 -319.46 390.518 -304.917C365.358 -290.373 345.6 -270.072 331.947 -246.64C302.142 -297.56 248.657 -326.127 193.561 -326.439ZM192.406 -326.442C206.069 -350.084 225.928 -370.57 251.266 -385.217C328.273 -429.732 426.76 -403.476 471.404 -326.589C526.881 -326.472 580.803 -297.7 610.654 -246.292C666.133 -246.177 720.058 -217.404 749.909 -165.993C805.487 -165.877 859.504 -137.001 889.322 -85.4187C919.14 -33.8363 917.203 27.3841 889.567 75.6037C919.219 127.129 917.24 188.217 889.652 236.351C919.302 287.875 917.324 348.962 889.737 397.095C934.082 474.153 907.682 572.601 830.675 617.116C805.337 631.762 777.674 638.747 750.369 638.788C736.706 662.43 716.847 682.916 691.509 697.562C666.171 712.209 638.508 719.194 611.202 719.235C597.54 742.876 577.681 763.362 552.343 778.009C527.005 792.656 499.342 799.641 472.036 799.681C458.373 823.323 438.514 843.809 413.176 858.456C336.169 902.971 237.682 876.715 193.039 799.829C137.561 799.713 83.6381 770.94 53.7872 719.532C-1.69201 719.416 -55.6162 690.643 -85.467 639.233C-141.045 639.116 -195.062 610.24 -224.88 558.658C-254.697 507.076 -252.761 445.856 -225.125 397.636C-254.776 346.112 -252.798 285.024 -225.21 236.89C-254.861 185.365 -252.883 124.278 -225.295 76.1443C-269.64 -0.913594 -243.239 -99.3613 -166.233 -143.876C-140.895 -158.523 -113.232 -165.508 -85.9264 -165.548C-72.2636 -189.19 -52.4046 -209.675 -27.0669 -224.322C-1.72896 -238.969 25.9345 -245.954 53.2403 -245.995C66.9031 -269.636 86.7622 -290.122 112.1 -304.769C137.438 -319.416 165.101 -326.401 192.406 -326.442ZM470.827 -325.589C443.691 -325.549 416.199 -318.607 391.018 -304.051C366.016 -289.598 346.382 -269.425 332.814 -246.14C387.91 -245.828 441.395 -217.261 471.199 -166.341C471.541 -166.928 471.887 -167.512 472.237 -168.095C498.421 -215.581 499.853 -275.193 470.827 -325.589ZM477.707 -176.598C499.444 -222.604 499.099 -278.117 471.981 -325.587C526.73 -325.274 579.877 -296.888 609.497 -246.291C582.381 -246.152 554.93 -239.163 529.772 -224.62C508.36 -212.243 490.861 -195.696 477.707 -176.598ZM472.122 -165.842C472.453 -166.425 472.78 -167.009 473.103 -167.596C486.627 -190.14 505.899 -209.665 530.272 -223.754C555.452 -238.31 582.942 -245.251 610.077 -245.292C639.107 -194.892 637.673 -135.273 611.483 -87.7858C611.136 -87.2063 610.792 -86.6248 610.452 -86.0415C580.658 -136.945 527.199 -165.51 472.122 -165.842ZM470.196 -162.543C470.544 -163.123 470.889 -163.706 471.229 -164.291C499.926 -114.015 498.411 -54.6701 472.329 -7.36002C471.978 -6.77569 471.632 -6.18937 471.289 -5.60105C442.59 -55.8805 444.108 -115.231 470.196 -162.543ZM469.33 -163.043C469.662 -163.645 469.998 -164.245 470.338 -164.843C443.388 -164.706 416.107 -157.76 391.104 -143.307C366.746 -129.226 347.483 -109.716 333.96 -87.1897C333.629 -86.5896 333.295 -85.9914 332.956 -85.3953C333.628 -85.3912 334.299 -85.383 334.971 -85.3705C361.254 -85.84 387.789 -92.7954 412.16 -106.883C436.533 -120.973 455.805 -140.498 469.33 -163.043ZM345.064 -84.8668C368.177 -86.7345 391.249 -93.6404 412.66 -106.017C434.072 -118.395 451.572 -134.942 464.726 -154.04C444.586 -111.415 443.402 -60.6278 464.905 -15.6392C436.652 -56.7253 392.052 -81.0454 345.064 -84.8668ZM332.931 -84.3469C333.611 -84.3504 334.291 -84.3581 334.97 -84.3702C388.987 -83.3628 441.171 -55.0572 470.418 -5.09716C469.731 -5.09368 469.043 -5.08575 468.356 -5.07344C414.348 -6.0884 362.173 -34.3933 332.931 -84.3469ZM329.127 -84.3725C329.798 -84.36 330.47 -84.3518 331.142 -84.3477C330.804 -83.7514 330.469 -83.153 330.138 -82.5527C316.615 -60.0264 297.352 -40.5162 272.994 -26.4358C248.633 -12.3537 222.109 -5.39811 195.837 -4.92358C195.155 -4.93636 194.472 -4.94484 193.79 -4.94895C194.128 -5.54409 194.462 -6.14124 194.792 -6.74025C208.315 -29.2677 227.579 -48.7788 251.937 -62.8598C276.308 -76.9476 302.844 -83.903 329.127 -84.3725ZM329.127 -85.3728C329.806 -85.3849 330.486 -85.3927 331.165 -85.3961C301.546 -135.992 248.4 -164.379 193.652 -164.693C222.893 -114.704 275.093 -86.3807 329.127 -85.3728ZM199.199 -154.095C227.452 -113.014 272.049 -88.6974 319.034 -84.8762C295.92 -83.0085 272.848 -76.1026 251.437 -63.7255C230.028 -51.3501 212.531 -34.8061 199.378 -15.7123C219.512 -58.3327 220.696 -109.111 199.199 -154.095ZM186.395 -176.245C155.712 -220.858 105.754 -245.7 54.3953 -245.992C67.9638 -269.277 87.5981 -289.451 112.601 -303.904C137.603 -318.356 164.883 -325.302 191.832 -325.44C166.453 -280.789 163.048 -225.099 186.395 -176.245ZM192.783 -166.197C163.617 -217.296 165.659 -277.763 192.984 -325.441C247.938 -325.326 301.356 -296.917 331.081 -246.141C303.963 -246.003 276.511 -239.014 251.352 -224.47C226.193 -209.927 206.436 -189.627 192.783 -166.197ZM-165.733 -143.01C-242.094 -98.8683 -268.383 -1.36201 -224.716 75.1429C-211.063 51.7133 -191.306 31.4137 -166.148 16.8707C-140.987 2.32631 -113.534 -4.66307 -86.4143 -4.79995C-115.665 -56.0408 -113.727 -116.646 -86.5007 -164.546C-113.45 -164.409 -140.73 -157.463 -165.733 -143.01ZM-26.5665 -223.456C-1.56405 -237.909 25.7169 -244.856 52.666 -244.993C27.2876 -200.343 23.8816 -144.654 47.2268 -95.8011C16.5435 -140.413 -33.4138 -165.254 -84.7714 -165.546C-71.2029 -188.83 -51.5686 -209.004 -26.5665 -223.456ZM53.8186 -244.994C26.4932 -197.316 24.4511 -136.849 53.6165 -85.7508C67.2697 -109.181 87.0266 -129.48 112.185 -144.023C137.344 -158.567 164.796 -165.556 191.913 -165.694C162.19 -216.47 108.772 -244.878 53.8186 -244.994ZM60.2122 64.7338C80.3456 22.1145 81.53 -28.6624 60.0347 -73.6446C88.2868 -32.5677 132.88 -8.25234 179.86 -4.42926C156.749 -2.56072 133.68 4.34502 112.271 16.7208C90.8625 29.0962 73.3654 45.64 60.2122 64.7338ZM54.4856 -84.2468C83.7203 -34.2668 135.906 -5.94475 189.927 -4.92598C190.388 -4.93427 190.849 -4.94058 191.31 -4.94486C191.54 -4.947 191.769 -4.94865 191.999 -4.94983C162.38 -55.5462 109.234 -83.9325 54.4856 -84.2468ZM194.95 -3.90978C194.555 -3.90486 194.16 -3.90142 193.766 -3.89941C223.011 46.0588 275.193 74.364 329.207 75.3733C329.889 75.3612 330.57 75.3534 331.252 75.35C302.012 25.3994 249.842 -2.90516 195.837 -3.92326C195.541 -3.91795 195.245 -3.91347 194.95 -3.90978ZM191.975 -3.90027C191.293 -3.9044 190.61 -3.91285 189.928 -3.92563C163.656 -3.45101 137.132 3.50452 112.771 17.5865C88.4133 31.667 69.15 51.1774 55.6271 73.704C55.2964 74.304 54.9617 74.9022 54.6231 75.4983C55.3037 75.5024 55.984 75.5108 56.664 75.5235C82.9384 75.0499 109.464 68.0944 133.827 54.0113C158.186 39.9303 177.45 20.4191 190.973 -2.10851C191.303 -2.7077 191.637 -3.30496 191.975 -3.90027ZM273.495 -25.57C252.085 -13.1942 229.016 -6.28844 205.905 -4.41992C252.886 -0.59685 297.479 23.7185 325.731 64.7955C304.235 19.8134 305.42 -30.9635 325.553 -73.5827C312.4 -54.4891 294.903 -37.9454 273.495 -25.57ZM332.035 -85.8985C332.384 -86.4975 332.737 -87.0945 333.094 -87.6894C359.168 -135.01 360.669 -194.364 331.949 -244.639C304.897 -197.039 302.972 -136.817 332.035 -85.8985ZM332.814 -245.14C359.932 -197.674 360.278 -142.164 338.545 -96.1599C351.698 -115.254 369.196 -131.797 390.604 -144.173C415.763 -158.716 443.214 -165.705 470.332 -165.843C440.712 -216.441 387.564 -244.827 332.814 -245.14ZM332.063 -83.8426C331.714 -83.2442 331.362 -82.6479 331.005 -82.0537C304.938 -34.7483 303.431 24.5826 332.121 74.8476C332.462 74.2633 332.806 73.681 333.154 73.1006C359.244 25.7887 360.761 -33.5625 332.063 -83.8426ZM-85.3481 -164.548C-112.674 -116.87 -114.716 -56.402 -85.5502 -5.30324C-71.897 -28.7334 -52.1398 -49.0336 -26.981 -63.577C-1.82207 -78.1204 25.6297 -85.1098 52.7475 -85.2476C23.0235 -136.024 -30.3944 -164.432 -85.3481 -164.548ZM-85.5483 -3.3013C-112.602 44.2987 -114.528 104.521 -85.4648 155.441C-71.8116 132.011 -52.0546 111.711 -26.8961 97.168C-5.48655 84.792 17.5833 77.8862 40.6947 76.0179C-10.0182 71.8915 -57.949 43.8877 -85.5483 -3.3013ZM50.767 75.5212C-3.25686 74.5046 -55.4451 46.1824 -84.6811 -3.7992C-29.933 -3.48477 23.2124 24.9014 52.8316 75.4975C52.1436 75.501 51.4554 75.5089 50.767 75.5212ZM54.599 76.5476C55.2873 76.5441 55.9759 76.5362 56.6646 76.5239C110.671 77.5403 162.843 105.845 192.084 155.796C191.396 155.8 190.708 155.808 190.02 155.82C136.013 154.804 83.8404 126.5 54.599 76.5476ZM50.767 76.5215C51.4473 76.5343 52.1279 76.5427 52.8088 76.5468C52.4704 77.1425 52.136 77.7402 51.8055 78.3399C38.2825 100.867 19.0192 120.377 -5.33902 134.458C-29.7132 148.547 -56.2527 155.503 -82.5392 155.971C-83.2263 155.958 -83.9137 155.95 -84.6013 155.946C-71.0328 132.661 -51.3983 112.487 -26.3956 98.0338C-2.03308 83.9508 24.4928 76.9952 50.767 76.5215ZM66.7368 76.0272C89.8482 74.1588 112.918 67.253 134.327 54.877C155.736 42.5016 173.233 25.9577 186.386 6.86383C166.253 49.4832 165.068 100.26 186.564 145.243C158.311 104.165 113.718 79.8499 66.7368 76.0272ZM191.839 -1.60906C192.196 -2.20288 192.548 -2.79875 192.897 -3.39668C221.593 46.8794 220.078 106.225 193.995 153.535C193.644 154.12 193.297 154.706 192.954 155.295C164.263 105.029 165.772 45.6968 191.839 -1.60906ZM192.783 -164.191C221.502 -113.915 220.001 -54.5605 193.925 -7.23979C193.569 -6.64609 193.217 -6.0503 192.868 -5.45248C163.806 -56.3707 165.731 -116.592 192.783 -164.191ZM53.7015 74.995C24.6385 24.0763 26.5643 -36.1455 53.6163 -83.7452C82.3356 -33.4697 80.8353 25.8844 54.76 73.2051C54.4032 73.7997 54.0504 74.3963 53.7015 74.995ZM53.7298 77.0512C53.3812 77.6493 53.0287 78.2453 52.6723 78.8393C26.6055 126.145 25.0977 185.476 53.7884 235.741C54.1304 235.154 54.4761 234.569 54.8257 233.987C80.9109 186.676 82.4267 127.328 53.7298 77.0512ZM-4.83855 135.323C-26.2508 147.701 -49.3237 154.607 -72.4381 156.474C-25.451 160.295 19.1484 184.614 47.4021 225.698C25.9022 180.714 27.0853 129.933 47.2202 87.3106C34.067 106.404 16.5698 122.948 -4.83855 135.323ZM-82.5379 156.971C-83.2145 156.983 -83.8908 156.991 -84.567 156.994C-55.3215 206.953 -3.13876 235.258 50.876 236.267C51.5566 236.255 52.237 236.247 52.9171 236.244C23.6694 186.281 -28.519 157.976 -82.5379 156.971ZM-86.3577 156.993C-87.0262 156.989 -87.6944 156.981 -88.3623 156.969C-114.649 157.436 -141.188 164.392 -165.563 178.482C-190.743 193.037 -210.478 213.395 -224.056 236.889C-194.874 287.189 -142.511 315.699 -88.3009 316.714C-87.6148 316.702 -86.9288 316.694 -86.2431 316.691C-115.484 265.467 -113.557 204.886 -86.3577 156.993ZM-166.063 177.616C-144.651 165.238 -121.578 158.332 -98.4637 156.465C-149.18 152.341 -197.114 124.336 -224.715 77.1449C-251.769 124.745 -253.695 184.969 -224.632 235.889C-210.979 212.459 -191.222 192.159 -166.063 177.616ZM-224.141 76.1434C-194.955 126.449 -142.581 154.96 -88.3636 155.968C-87.685 155.956 -87.0066 155.949 -86.3285 155.945C-115.579 104.705 -113.641 44.1005 -86.4155 -3.79976C-113.364 -3.66255 -140.645 3.28352 -165.648 17.7364C-190.827 32.2918 -210.563 52.6496 -224.141 76.1434ZM-26.4806 -62.7112C-51.4832 -48.2582 -71.1177 -28.0841 -84.6862 -4.7994C-33.3282 -4.5076 16.6294 20.3341 47.3126 64.9464C23.9663 16.0925 27.3723 -39.5969 52.7513 -84.2474C25.8024 -84.1101 -1.47831 -77.1641 -26.4806 -62.7112ZM331.084 -245.141C304.135 -245.004 276.855 -238.058 251.853 -223.605C226.85 -209.152 207.216 -188.978 193.647 -165.693C245.005 -165.402 294.962 -140.56 325.645 -95.9488C302.3 -144.802 305.706 -200.491 331.084 -245.141ZM338.453 -73.7923C359.95 -28.8066 358.763 21.9748 338.625 64.596C351.779 45.4982 369.279 28.9509 390.691 16.5734C412.1 4.19748 435.17 -2.70828 458.281 -4.57669C411.299 -8.39895 366.705 -32.7145 338.453 -73.7923ZM472.187 -4.04711C472.874 -4.05063 473.561 -4.0585 474.248 -4.07079C528.255 -3.05577 580.429 25.2487 609.671 75.2015C609.001 75.2049 608.33 75.2125 607.659 75.2243C553.634 74.2255 501.438 45.9197 472.187 -4.04711ZM468.356 -4.07313C469.036 -4.06046 469.715 -4.05201 470.395 -4.04793C470.062 -3.46185 469.733 -2.87392 469.408 -2.2841C455.884 20.255 436.615 39.7764 412.246 53.863C387.877 67.9497 361.344 74.9051 335.064 75.3757C334.39 75.3631 333.715 75.3549 333.041 75.3508C333.105 75.2389 333.168 75.127 333.231 75.015C333.325 74.8488 333.419 74.6825 333.512 74.5161C333.682 74.2113 333.852 73.9061 334.021 73.6004C347.545 51.0554 366.817 31.5288 391.191 17.4392C415.555 3.35573 442.081 -3.5998 468.356 -4.07313ZM484.322 -4.56756C507.433 -6.43597 530.503 -13.3417 551.912 -25.7177C573.325 -38.0956 590.825 -54.6437 603.979 -73.7424C583.84 -31.1185 582.654 19.6667 604.155 64.6547C575.903 23.5728 531.306 -0.745096 484.322 -4.56756ZM608.588 -82.7533C595.063 -60.2045 575.789 -40.6748 551.412 -26.5834C527.049 -12.4999 500.522 -5.54445 474.247 -5.07114C473.976 -5.07621 473.705 -5.08057 473.435 -5.08425C473.285 -5.08631 473.136 -5.08812 472.987 -5.08974C472.831 -5.09145 472.675 -5.09291 472.518 -5.09415C472.415 -5.09499 472.312 -5.0957 472.208 -5.09633C472.541 -5.6824 472.87 -6.27033 473.195 -6.86016C486.719 -29.3992 505.989 -48.9205 530.357 -63.0072C555.36 -77.4602 582.641 -84.4063 609.59 -84.5434C609.521 -84.4221 609.452 -84.3008 609.384 -84.1793C609.274 -83.9849 609.165 -83.7903 609.056 -83.5956C608.998 -83.493 608.941 -83.3904 608.884 -83.2878C608.785 -83.1098 608.686 -82.9316 608.588 -82.7533ZM611.374 -85.5427C611.703 -86.1219 612.028 -86.7028 612.35 -87.2856C625.874 -109.834 645.148 -129.364 669.525 -143.455C694.705 -158.011 722.196 -164.953 749.332 -164.993C778.727 -113.956 776.885 -53.4679 749.733 -5.69467C719.943 -56.628 666.468 -85.2108 611.374 -85.5427ZM609.453 -82.2517C609.8 -82.8298 610.143 -83.41 610.482 -83.9919C639.187 -33.6997 637.662 25.6681 611.554 72.9857C611.37 73.2928 611.187 73.6004 611.005 73.9086C610.929 74.0373 610.853 74.1662 610.778 74.2952L610.655 74.5047L610.542 74.6985C581.842 24.4161 583.36 -34.9384 609.453 -82.2517ZM616.958 -96.2966C638.696 -142.304 638.352 -197.819 611.231 -245.29C665.983 -244.978 719.132 -216.591 748.753 -165.992C721.635 -165.854 694.183 -158.864 669.025 -144.321C647.612 -131.943 630.112 -115.395 616.958 -96.2966ZM112.685 -143.158C137.688 -157.611 164.969 -164.557 191.918 -164.694C166.54 -120.044 163.134 -64.3556 186.479 -15.5023C155.795 -60.114 105.838 -84.9553 54.4806 -85.247C68.049 -108.531 87.6833 -128.705 112.685 -143.158ZM199.461 145.04C219.597 102.419 220.783 51.639 199.287 6.65415C227.54 47.733 272.136 72.0487 319.119 75.8701C296.006 77.7379 272.935 84.6438 251.524 97.0206C230.113 109.397 212.614 125.944 199.461 145.04ZM335.063 76.3761C334.381 76.3882 333.7 76.396 333.019 76.3994C362.269 126.366 414.463 154.672 468.487 155.672C469.16 155.66 469.832 155.652 470.504 155.649C441.259 105.69 389.077 77.3852 335.063 76.3761ZM331.229 76.3986C330.555 76.3945 329.881 76.3862 329.207 76.3737C302.926 76.8442 276.393 83.7997 252.024 97.8863C227.655 111.973 208.385 131.495 194.861 154.035L194.741 154.252L194.596 154.515C194.549 154.599 194.502 154.682 194.456 154.766C194.263 155.11 194.07 155.454 193.875 155.797C194.556 155.801 195.237 155.81 195.917 155.822C222.191 155.349 248.717 148.393 273.079 134.31C297.453 120.221 316.725 100.694 330.249 78.1492C330.572 77.5638 330.899 76.9802 331.229 76.3986ZM412.746 54.7288C391.336 67.1055 368.264 74.0114 345.152 75.8793C392.135 79.7007 436.73 104.016 464.984 145.095C443.487 100.111 444.673 49.3304 464.81 6.70965C451.656 25.806 434.157 42.3521 412.746 54.7288ZM472.066 -164.843C499.185 -117.373 499.53 -61.86 477.794 -15.8538C490.947 -34.9502 508.446 -51.4962 529.857 -63.873C555.016 -78.4164 582.467 -85.4057 609.585 -85.5435C579.965 -136.143 526.816 -164.53 472.066 -164.843ZM471.315 -3.54423C470.972 -2.95565 470.625 -2.36902 470.275 -1.78441C444.192 45.5255 442.678 104.87 471.374 155.146C471.712 154.565 472.055 153.985 472.401 153.408C498.495 106.095 500.015 46.7391 471.315 -3.54423ZM60.1188 87.1001C81.6163 132.085 80.4307 182.867 60.2935 225.488C73.4473 206.391 90.9464 189.844 112.358 177.467C133.767 165.091 156.836 158.185 179.948 156.317C132.966 152.494 88.3714 128.178 60.1188 87.1001ZM193.851 156.846C194.54 156.843 195.228 156.835 195.917 156.823C249.924 157.838 302.097 186.143 331.339 236.096C330.663 236.099 329.986 236.107 329.31 236.119C275.29 235.115 223.1 206.81 193.851 156.846ZM190.02 156.82C190.7 156.833 191.381 156.842 192.062 156.846C191.865 157.193 191.669 157.54 191.475 157.889C191.341 158.128 191.208 158.368 191.076 158.608C177.552 181.148 158.282 200.67 133.913 214.757C109.543 228.844 83.009 235.799 56.7272 236.269C56.0545 236.257 55.3815 236.248 54.7083 236.244C55.0401 235.66 55.368 235.074 55.6923 234.486C69.2163 211.944 88.4871 192.421 112.858 178.333C137.22 164.25 163.746 157.294 190.02 156.82ZM205.99 156.326C229.101 154.457 252.17 147.552 273.579 135.176C294.991 122.798 312.491 106.251 325.645 87.1533C305.507 129.775 304.321 180.556 325.818 225.541C297.565 184.464 252.971 160.148 205.99 156.326ZM331.116 78.6482C331.464 78.0679 331.808 77.4858 332.149 76.9017C360.851 127.189 359.329 186.55 333.229 233.865C332.885 234.439 332.544 235.015 332.208 235.593C303.509 185.312 305.027 125.961 331.116 78.6482ZM192.982 157.349C192.64 157.937 192.293 158.523 191.943 159.107C165.859 206.418 164.344 265.764 193.041 316.04C193.094 315.948 193.148 315.857 193.201 315.765C193.283 315.626 193.365 315.486 193.447 315.347C193.652 315 193.858 314.653 194.065 314.307C220.162 266.993 221.683 207.635 192.982 157.349ZM134.413 215.622C113.002 227.999 89.9309 234.905 66.8179 236.773C113.801 240.594 158.397 264.91 186.651 305.989C165.154 261.004 166.34 210.224 186.477 167.603C173.323 186.699 155.824 203.245 134.413 215.622ZM56.7275 237.27C56.0467 237.282 55.366 237.289 54.6855 237.293C83.9389 287.264 136.141 315.571 190.171 316.565C190.304 316.563 190.437 316.561 190.569 316.559C190.717 316.557 190.864 316.555 191.011 316.553C191.398 316.548 191.785 316.545 192.172 316.543C162.926 266.583 110.743 238.278 56.7275 237.27ZM52.8962 237.292C52.2231 237.288 51.5502 237.28 50.8776 237.267C24.5957 237.737 -1.9388 244.693 -26.3087 258.78C-51.3111 273.233 -70.9456 293.407 -84.5141 316.691C-83.8192 316.695 -83.1247 316.704 -82.4304 316.717C-56.1517 316.245 -29.6208 309.29 -5.25406 295.204C19.1173 281.116 38.3882 261.592 51.9122 239.05C52.2364 238.462 52.5644 237.876 52.8962 237.292ZM40.7863 236.764C-9.9291 232.639 -57.8627 204.634 -85.463 157.443C-112.517 205.044 -114.443 265.268 -85.3785 316.188C-71.7253 292.758 -51.9681 272.458 -26.8091 257.914C-5.39819 245.537 17.6733 238.631 40.7863 236.764ZM52.7786 239.55C53.1279 238.968 53.4734 238.383 53.8151 237.797C82.5193 288.088 80.9949 347.453 54.8898 394.77C54.5479 395.34 54.2096 395.912 53.875 396.486C25.1776 346.209 26.6933 286.861 52.7786 239.55ZM-72.3474 317.22C-49.2349 315.352 -26.164 308.446 -4.75359 296.07C16.6579 283.693 34.1571 267.146 47.3109 248.049C27.1719 290.674 25.9877 341.459 47.4906 386.447C19.238 345.362 -25.3607 321.043 -72.3474 317.22ZM-84.4812 317.74C-83.7975 317.737 -83.1136 317.729 -82.4295 317.717C-28.4182 318.729 23.76 347.034 53.0036 396.99C52.3372 396.993 51.6706 397.001 51.0038 397.013C-3.02572 396.018 -55.2279 367.712 -84.4812 317.74ZM-88.301 317.715C-87.6246 317.727 -86.9479 317.736 -86.271 317.74C-113.479 365.648 -115.398 426.252 -86.1288 477.485C-141.078 477.172 -194.414 448.58 -223.97 397.635C-210.392 374.141 -190.657 353.783 -165.477 339.227C-141.11 325.142 -114.579 318.186 -88.301 317.715ZM-98.3834 317.211C-121.496 319.079 -144.567 325.985 -165.977 338.361C-191.136 352.905 -210.893 373.205 -224.546 396.635C-253.61 345.715 -251.684 285.491 -224.63 237.891C-197.03 285.081 -149.098 313.086 -98.3834 317.211ZM477.876 144.896C498.017 102.271 499.202 51.4826 477.699 6.49297C505.953 47.5808 550.555 71.9011 597.545 75.721C574.43 77.5879 551.356 84.494 529.943 96.8721C508.53 109.25 491.03 125.798 477.876 144.896ZM613.449 76.2269C612.779 76.2387 612.109 76.2463 611.439 76.2497C640.685 126.21 692.869 154.515 746.885 155.523C747.564 155.511 748.244 155.503 748.923 155.5C719.672 105.532 667.475 77.2253 613.449 76.2269ZM609.65 76.2489C608.986 76.2449 608.323 76.2368 607.66 76.2247C581.368 76.6898 554.823 83.6451 530.443 97.7378C506.066 111.829 486.792 131.359 473.267 153.909C472.946 154.491 472.621 155.071 472.292 155.65C472.957 155.654 473.621 155.662 474.286 155.674C500.576 155.208 527.12 148.253 551.498 134.161C575.884 120.064 595.164 100.525 608.689 77.9656C608.75 77.8552 608.811 77.7449 608.872 77.6347L609.002 77.4006C609.217 77.0159 609.432 76.632 609.65 76.2489ZM691.166 54.5792C669.753 66.9573 646.679 73.8633 623.564 75.7303C674.281 79.8532 722.217 107.858 749.819 155.051C776.872 107.45 778.798 47.2269 749.734 -3.6928C736.081 19.7367 716.324 40.0362 691.166 54.5792ZM690.666 53.7134C715.685 39.2506 735.329 19.0592 748.899 -4.24527C721.932 -4.11725 694.631 2.82829 669.611 17.2911C645.225 31.3878 625.945 50.9269 612.42 73.4864C612.328 73.6542 612.235 73.8217 612.142 73.9891L612.041 74.1701C611.953 74.3277 611.865 74.485 611.776 74.6423C611.671 74.8292 611.565 75.0159 611.459 75.2024C611.832 75.2046 612.205 75.2082 612.577 75.213C612.868 75.2167 613.159 75.2213 613.449 75.2266C639.741 74.7616 666.287 67.8061 690.666 53.7134ZM888.986 74.603C859.197 23.6697 805.721 -4.91263 750.627 -5.24436C777.836 -53.1523 779.756 -113.757 750.486 -164.991C805.516 -164.677 858.927 -136.002 888.456 -84.9183C917.985 -33.8348 916.178 26.7601 888.986 74.603ZM338.539 86.952C360.036 131.939 358.849 182.723 338.709 225.345C351.863 206.246 369.364 189.698 390.777 177.319C412.189 164.942 435.263 158.036 458.377 156.168C411.392 152.349 366.793 128.033 338.539 86.952ZM472.27 156.697C472.943 156.694 473.615 156.686 474.288 156.674C528.312 157.674 580.506 185.98 609.757 235.947C609.068 235.95 608.38 235.958 607.691 235.97C553.684 234.954 501.512 206.65 472.27 156.697ZM468.489 156.672C469.153 156.684 469.817 156.692 470.482 156.696C470.153 157.275 469.828 157.856 469.507 158.438C455.982 180.987 436.708 200.516 412.331 214.608C387.957 228.698 361.417 235.653 335.131 236.121C334.463 236.109 333.795 236.1 333.126 236.096C333.453 235.522 333.775 234.945 334.095 234.367C347.619 211.813 366.896 192.279 391.277 178.185C415.655 164.093 442.198 157.138 468.489 156.672ZM484.397 156.178C507.512 154.31 530.586 147.404 551.998 135.027C573.413 122.648 590.914 106.098 604.069 86.9969C583.926 129.622 582.739 180.41 604.241 225.4C575.986 184.315 531.385 159.997 484.397 156.178ZM617.041 64.4547C638.782 18.447 638.439 -37.0704 611.319 -84.5428C666.069 -84.2301 719.217 -55.8434 748.837 -5.24529C721.72 -5.10719 694.269 1.88232 669.111 16.4253C647.696 28.8043 630.195 45.354 617.041 64.4547ZM609.555 78.4657C609.896 77.8965 610.234 77.3254 610.568 76.7524C639.258 127.017 637.751 186.348 611.684 233.654C611.328 234.248 610.975 234.844 610.626 235.442C581.922 185.15 583.448 125.783 609.555 78.4657ZM199.543 305.791C219.682 263.169 220.869 212.386 199.372 167.399C227.626 208.479 272.223 232.795 319.208 236.615C296.094 238.483 273.022 245.389 251.61 257.766C230.197 270.144 212.697 286.692 199.543 305.791ZM335.13 237.121C334.455 237.133 333.78 237.141 333.105 237.144C362.345 287.095 414.516 315.399 468.521 316.417C468.818 316.411 469.114 316.407 469.411 316.403C469.804 316.398 470.197 316.395 470.589 316.393C441.341 266.43 389.15 238.124 335.13 237.121ZM331.316 237.143C330.885 237.141 330.455 237.137 330.025 237.131C329.787 237.127 329.549 237.123 329.311 237.119C303.025 237.587 276.485 244.542 252.11 258.632C227.731 272.725 208.456 292.257 194.931 314.808C194.611 315.388 194.287 315.967 193.959 316.544C194.618 316.548 195.277 316.556 195.936 316.568C222.232 316.104 248.782 309.149 273.165 295.054C297.546 280.96 316.823 261.426 330.348 238.873C330.456 238.676 330.565 238.479 330.675 238.282C330.887 237.902 331.101 237.522 331.316 237.143ZM412.831 215.474C391.42 227.851 368.347 234.757 345.233 236.624C392.218 240.445 436.816 264.761 465.071 305.842C443.572 260.855 444.759 210.072 464.898 167.449C451.744 186.548 434.244 203.096 412.831 215.474ZM471.401 157.2C471.062 157.781 470.72 158.36 470.374 158.937C444.279 206.251 442.759 265.607 471.459 315.89C471.808 315.292 472.16 314.696 472.516 314.102C498.584 266.797 500.092 207.465 471.401 157.2ZM331.214 239.373C331.558 238.799 331.898 238.223 332.235 237.646C360.926 287.911 359.418 347.242 333.351 394.548C332.994 395.142 332.642 395.738 332.293 396.337C303.59 346.049 305.113 286.688 331.214 239.373ZM206.061 317.071C229.177 315.205 252.252 308.299 273.665 295.92C295.079 283.542 312.579 266.993 325.733 247.894C305.593 290.517 304.406 341.301 325.904 386.289C297.649 345.206 253.048 320.89 206.061 317.071ZM193.937 317.591C194.604 317.587 195.271 317.58 195.938 317.568C249.967 318.562 302.17 346.869 331.424 396.841C330.739 396.844 330.054 396.852 329.369 396.864C275.358 395.852 223.18 367.546 193.937 317.591ZM190.173 317.566C190.472 317.571 190.771 317.576 191.07 317.58C191.311 317.583 191.551 317.585 191.791 317.587C191.911 317.588 192.03 317.589 192.149 317.59C191.821 318.167 191.497 318.745 191.177 319.326C177.652 341.877 158.377 361.409 133.998 375.502C109.615 389.596 83.0651 396.552 56.7693 397.015C56.1106 397.003 55.4517 396.995 54.7925 396.991C55.1173 396.419 55.4386 395.845 55.7562 395.27C69.2813 372.712 88.5598 353.175 112.944 339.079C137.327 324.984 163.877 318.029 190.173 317.566ZM60.2001 247.838C88.4554 288.924 133.058 313.243 180.048 317.062C156.932 318.929 133.858 325.835 112.444 338.213C91.0295 350.592 73.5286 367.142 60.3742 386.242C80.5167 343.616 81.7029 292.828 60.2001 247.838ZM193.068 318.093C192.73 318.673 192.389 319.25 192.043 319.826C165.946 367.14 164.425 426.499 193.126 476.784C193.317 476.456 193.51 476.128 193.704 475.801C193.862 475.534 194.021 475.267 194.181 475.001C220.251 427.694 221.76 368.36 193.068 318.093ZM134.498 376.367C113.084 388.746 90.0095 395.652 66.8933 397.519C113.883 401.337 158.485 425.656 186.74 466.742C165.239 421.753 166.425 370.967 186.566 328.342C173.412 347.441 155.911 363.989 134.498 376.367ZM56.7697 398.015C56.1036 398.027 55.4376 398.034 54.7718 398.038C84.0158 447.994 136.195 476.299 190.207 477.311C190.89 477.298 191.573 477.291 192.255 477.287C163.002 427.316 110.799 399.01 56.7697 398.015ZM52.983 398.037C52.3236 398.033 51.6645 398.025 51.0056 398.013C24.7096 398.476 -1.8406 405.431 -26.2237 419.526C-51.2433 433.989 -70.8875 454.181 -84.457 477.486C-57.4899 477.358 -30.1887 470.412 -5.16909 455.949C19.2153 441.854 38.4938 422.316 52.0189 399.759C52.3367 399.183 52.658 398.609 52.983 398.037ZM40.8809 397.509C-9.83721 393.387 -57.7745 365.383 -85.3767 318.19C-112.43 365.79 -114.356 426.013 -85.2925 476.933C-71.6393 453.503 -51.8825 433.204 -26.7242 418.661C-5.31029 406.282 17.7647 399.376 40.8809 397.509ZM52.885 400.26C53.2271 399.689 53.5657 399.116 53.9004 398.542C82.5979 448.819 81.0818 508.167 54.996 555.478C54.6468 556.061 54.3014 556.645 53.9598 557.231C25.256 506.941 26.7803 447.576 52.885 400.26ZM-84.3949 478.486C-57.2778 478.347 -29.8269 471.358 -4.66863 456.815C16.7457 444.436 34.2466 427.887 47.401 408.786C25.6603 454.794 26.0032 510.311 53.1236 557.783C-1.62667 557.471 -54.775 529.084 -84.3949 478.486ZM-86.1853 478.485C-113.394 526.393 -115.314 586.997 -86.0444 638.231C-141.074 637.916 -194.484 609.241 -224.014 558.158C-253.543 507.074 -251.736 446.48 -224.544 398.637C-194.755 449.57 -141.28 478.153 -86.1853 478.485ZM617.136 225.183C637.271 182.561 638.454 131.781 616.955 86.797C645.208 127.88 689.806 152.198 736.792 156.019C713.678 157.887 690.606 164.793 669.195 177.17C647.786 189.545 630.289 206.089 617.136 225.183ZM750.713 155.5C751.385 155.504 752.057 155.513 752.729 155.525C779.012 155.056 805.548 148.1 829.919 134.012C855.099 119.457 874.834 99.0987 888.412 75.6045C858.856 24.6606 805.52 -3.93138 750.571 -4.24459C779.84 46.9887 777.921 107.593 750.713 155.5ZM830.419 134.878C809.008 147.255 785.936 154.161 762.822 156.029C813.538 160.154 861.472 188.158 889.072 235.35C916.126 187.75 918.053 127.525 888.988 76.605C875.335 100.035 855.578 120.335 830.419 134.878ZM752.731 156.525C752.446 156.531 752.161 156.535 751.876 156.538C751.479 156.543 751.082 156.547 750.685 156.549C779.925 207.772 777.999 268.354 750.799 316.247C751.472 316.251 752.145 316.259 752.818 316.272C779.1 315.802 805.635 308.846 830.005 294.759C855.184 280.203 874.92 259.846 888.498 236.352C859.314 186.048 806.945 157.537 752.731 156.525ZM748.957 156.548C748.266 156.544 747.576 156.536 746.885 156.523C720.602 156.992 694.066 163.948 669.695 178.036C645.337 192.117 626.073 211.627 612.55 234.155C612.22 234.754 611.885 235.352 611.547 235.947C612.228 235.952 612.909 235.96 613.589 235.973C639.863 235.499 666.389 228.543 690.751 214.461C715.754 200.007 735.388 179.833 748.957 156.548ZM477.792 167.252C499.287 212.234 498.102 263.011 477.969 305.63C491.122 286.537 508.619 269.993 530.028 257.617C551.437 245.241 574.507 238.335 597.619 236.467C550.637 232.644 506.044 208.329 477.792 167.252ZM611.525 236.997C612.213 236.993 612.901 236.985 613.589 236.973C667.595 237.99 719.767 266.294 749.008 316.246C748.328 316.249 747.647 316.257 746.966 316.269C692.952 315.26 640.77 286.955 611.525 236.997ZM607.69 236.971C608.37 236.983 609.051 236.992 609.733 236.996C609.395 237.591 609.06 238.189 608.73 238.788C595.207 261.315 575.943 280.826 551.585 294.907C527.223 308.989 500.698 315.945 474.425 316.419C474.036 316.412 473.648 316.406 473.259 316.401C472.966 316.398 472.673 316.396 472.38 316.394C472.718 315.799 473.052 315.202 473.382 314.603C486.905 292.075 506.169 272.564 530.528 258.483C554.89 244.4 581.416 237.445 607.69 236.971ZM623.661 236.476C646.772 234.608 669.842 227.702 691.251 215.326C716.41 200.783 736.167 180.483 749.821 157.052C778.884 207.973 776.958 268.196 749.904 315.796C722.305 268.607 674.374 240.603 623.661 236.476ZM338.803 386.076C358.936 343.457 360.121 292.68 338.626 247.698C366.878 288.775 411.471 313.091 458.452 316.913C435.341 318.782 412.271 325.688 390.862 338.064C369.453 350.439 351.956 366.983 338.803 386.076ZM474.425 317.419C473.736 317.432 473.046 317.44 472.357 317.443C501.602 367.402 553.785 395.707 607.799 396.716C608.481 396.704 609.162 396.696 609.843 396.693C580.602 346.741 528.431 318.437 474.425 317.419ZM470.566 317.442C469.884 317.438 469.202 317.43 468.521 317.417C442.248 317.891 415.723 324.847 391.362 338.929C367.004 353.01 347.74 372.521 334.217 395.048C333.887 395.648 333.552 396.246 333.214 396.842C333.89 396.846 334.566 396.854 335.242 396.867C361.521 396.395 388.051 389.439 412.418 375.354C436.776 361.273 456.04 341.762 469.563 319.235C469.893 318.636 470.228 318.038 470.566 317.442ZM552.085 295.773C530.676 308.149 507.606 315.054 484.495 316.923C531.476 320.746 576.069 345.061 604.321 386.138C582.826 341.156 584.011 290.379 604.144 247.76C590.991 266.853 573.494 283.397 552.085 295.773ZM610.654 237.499C610.306 238.097 609.954 238.693 609.597 239.287C583.53 286.592 582.021 345.924 610.712 396.19C610.783 396.068 610.854 395.946 610.925 395.825L611.044 395.622L611.104 395.521C611.171 395.407 611.238 395.293 611.305 395.18C611.459 394.921 611.613 394.662 611.768 394.404C637.836 347.098 639.345 287.766 610.654 237.499ZM199.459 328.145C220.954 373.128 219.77 423.906 199.635 466.525C212.789 447.431 230.286 430.887 251.695 418.511C273.105 406.135 296.176 399.229 319.288 397.361C272.306 393.539 227.711 369.223 199.459 328.145ZM333.191 397.89C333.875 397.887 334.559 397.879 335.243 397.867C389.254 398.879 441.432 427.184 470.675 477.139C470.388 477.14 470.101 477.143 469.813 477.146C469.413 477.15 469.012 477.156 468.611 477.163C414.604 476.146 362.432 447.842 333.191 397.89ZM329.368 397.864C330.045 397.877 330.722 397.885 331.4 397.89C331.2 398.241 331.001 398.594 330.804 398.947C330.734 399.073 330.664 399.199 330.594 399.325L330.513 399.471L330.396 399.683C316.873 422.209 297.61 441.72 273.252 455.8C248.885 469.886 222.354 476.841 196.075 477.313C195.687 477.306 195.299 477.3 194.911 477.295C194.623 477.292 194.335 477.29 194.047 477.288C194.385 476.694 194.718 476.098 195.048 475.5C208.571 452.971 227.835 433.459 252.195 419.377C276.561 405.292 303.09 398.337 329.368 397.864ZM345.325 397.37C368.437 395.502 391.508 388.596 412.918 376.22C434.327 363.844 451.824 347.3 464.977 328.207C444.843 370.826 443.659 421.604 465.155 466.587C436.902 425.508 392.307 401.192 345.325 397.37ZM470.43 319.734C470.786 319.14 471.139 318.544 471.487 317.946C500.182 368.22 498.669 427.563 472.589 474.872C472.502 475.018 472.414 475.164 472.327 475.31C472.184 475.551 472.041 475.792 471.899 476.033L471.812 476.181C471.723 476.333 471.634 476.485 471.545 476.637C442.854 426.372 444.362 367.04 470.43 319.734ZM60.4642 546.979C80.6033 504.354 81.7875 453.568 60.2846 408.58C88.5373 449.665 133.136 473.985 180.123 477.807C157.01 479.675 133.939 486.581 112.529 498.958C91.1172 511.335 73.618 527.882 60.4642 546.979ZM196.073 478.313C195.39 478.325 194.707 478.333 194.024 478.337C223.267 528.293 275.446 556.598 329.458 557.61C330.142 557.598 330.826 557.59 331.509 557.586C302.265 507.629 250.086 479.324 196.073 478.313ZM192.233 478.336C191.558 478.332 190.882 478.323 190.207 478.311C163.928 478.782 137.396 485.738 113.029 499.823C88.6576 513.912 69.3866 533.436 55.8625 555.978C55.5295 556.582 55.1925 557.184 54.8515 557.784C81.8009 557.647 109.082 550.701 134.085 536.248C158.445 522.166 177.709 502.654 191.232 480.125C191.562 479.527 191.896 478.93 192.233 478.336ZM273.752 456.666C252.342 469.043 229.271 475.949 206.158 477.817C253.141 481.638 297.736 505.954 325.989 547.033C304.493 502.051 305.677 451.273 325.811 408.653C312.658 427.747 295.161 444.291 273.752 456.666ZM332.321 398.393C331.972 398.991 331.62 399.588 331.263 400.182C305.196 447.487 303.689 506.819 332.379 557.084C332.725 556.49 333.075 555.899 333.429 555.309C359.503 508.002 361.015 448.663 332.321 398.393ZM-85.2907 478.935C-112.443 526.708 -114.285 587.196 -84.8901 638.233C-57.7544 638.192 -30.2633 631.251 -5.08313 616.695C19.2881 602.607 38.5589 583.083 52.0829 560.541C52.4072 559.953 52.7351 559.367 53.0669 558.783C-2.02695 558.451 -55.5017 529.868 -85.2907 478.935ZM54.8574 558.784C84.4771 609.382 137.625 637.77 192.375 638.083C165.257 590.615 164.911 535.105 186.645 489.1C173.491 508.194 155.994 524.738 134.585 537.113C109.427 551.657 81.975 558.646 54.8574 558.784ZM192.1 480.624C192.455 480.031 192.806 479.437 193.154 478.841C221.85 529.118 220.335 588.465 194.25 635.776C193.9 636.359 193.554 636.944 193.212 637.531C164.52 587.264 166.03 527.93 192.1 480.624ZM53.9898 559.281C53.6469 559.87 53.3002 560.456 52.9496 561.041C26.7681 608.526 25.3375 668.137 54.3641 718.532C81.4994 718.491 108.99 711.55 134.17 696.994C158.541 682.906 177.812 663.382 191.336 640.841C191.66 640.253 191.988 639.667 192.32 639.082C137.243 638.75 83.7842 610.185 53.9898 559.281ZM53.2099 718.53C26.09 671.06 25.745 615.546 47.4817 569.54C34.3279 588.637 16.8288 605.183 -4.58267 617.561C-29.7414 632.104 -57.1929 639.093 -84.3105 639.231C-54.6904 689.83 -1.54119 718.218 53.2099 718.53ZM617.041 247.544C638.54 292.528 637.356 343.309 617.221 385.93C630.375 366.836 647.872 350.292 669.281 337.916C690.692 325.539 713.764 318.634 736.877 316.766C689.892 312.944 645.294 288.626 617.041 247.544ZM750.77 317.295C751.039 317.294 751.308 317.292 751.576 317.289C751.99 317.285 752.405 317.279 752.819 317.272C807.032 318.285 859.399 346.794 888.582 397.096C875.004 420.59 855.269 440.948 830.089 455.504C805.086 469.957 777.805 476.903 750.856 477.04C778.082 429.14 780.02 368.536 750.77 317.295ZM746.966 317.269C747.658 317.282 748.35 317.291 749.042 317.295C735.474 340.579 715.839 360.753 690.837 375.206C666.467 389.293 639.933 396.248 613.651 396.718C612.979 396.706 612.306 396.697 611.633 396.693C611.97 396.099 612.304 395.503 612.633 394.906C626.156 372.376 645.421 352.864 669.781 338.782C694.151 324.695 720.685 317.74 746.966 317.269ZM762.909 316.775C786.022 314.908 809.094 308.002 830.505 295.625C855.664 281.082 875.42 260.782 889.074 237.352C918.136 288.272 916.21 348.494 889.156 396.094C861.556 348.904 813.623 320.9 762.909 316.775ZM691.337 376.071C669.926 388.448 646.855 395.354 623.742 397.222C674.456 401.347 722.389 429.35 749.99 476.54C777.043 428.94 778.969 368.718 749.906 317.798C736.253 341.228 716.496 361.528 691.337 376.071ZM613.651 397.719C612.97 397.731 612.29 397.739 611.609 397.742C641.228 448.339 694.375 476.725 749.123 477.039C719.883 427.05 667.684 398.727 613.651 397.719ZM609.819 397.741C609.146 397.737 608.473 397.729 607.801 397.716C581.519 398.186 554.985 405.142 530.615 419.229C506.247 433.315 486.979 452.835 473.455 475.373C473.129 475.964 472.8 476.553 472.466 477.14C472.76 477.142 473.054 477.144 473.348 477.148C473.735 477.152 474.121 477.158 474.507 477.165C500.781 476.692 527.308 469.736 551.671 455.653C576.031 441.571 595.295 422.059 608.819 399.53C608.999 399.202 609.181 398.875 609.363 398.549L609.435 398.421C609.496 398.313 609.557 398.205 609.617 398.098C609.685 397.979 609.752 397.86 609.819 397.741ZM597.71 397.213C550.726 393.391 506.13 369.075 477.876 327.995C499.374 372.98 498.189 423.76 478.052 466.382C491.206 447.285 508.704 430.74 530.115 418.363C551.526 405.986 574.597 399.08 597.71 397.213ZM338.711 408.443C360.207 453.427 359.023 504.206 338.887 546.826C352.041 527.731 369.539 511.186 390.949 498.81C412.358 486.434 435.428 479.528 458.539 477.659C411.557 473.837 366.963 449.521 338.711 408.443ZM472.442 478.189C473.131 478.186 473.819 478.178 474.508 478.165C528.533 479.182 580.721 507.504 609.957 557.486C555.209 557.173 502.062 528.786 472.442 478.189ZM468.61 478.163C469.291 478.176 469.972 478.184 470.653 478.188C470.319 478.776 469.989 479.366 469.663 479.957C456.139 502.494 436.871 522.014 412.504 536.1C388.137 550.185 361.606 557.141 335.327 557.612C334.652 557.6 333.976 557.591 333.3 557.587C333.635 556.997 333.967 556.404 334.295 555.81C347.818 533.276 367.085 513.759 391.449 499.675C415.811 485.593 442.337 478.637 468.61 478.163ZM484.581 477.669C507.692 475.8 530.762 468.895 552.171 456.519C573.58 444.143 591.077 427.599 604.231 408.505C584.097 451.122 582.912 501.898 604.405 546.879C576.152 505.805 531.56 481.491 484.581 477.669ZM609.685 400.029C610.041 399.437 610.392 398.842 610.74 398.245C639.802 449.164 637.877 509.385 610.825 556.984C582.105 506.707 583.607 447.351 609.685 400.029ZM470.692 480.185C470.638 480.275 470.584 480.366 470.53 480.456C444.442 527.78 442.935 587.146 471.659 637.43C498.71 589.831 500.635 529.61 471.573 478.692C471.358 479.061 471.142 479.428 470.925 479.795C470.848 479.925 470.77 480.055 470.692 480.185ZM413.004 536.965C391.594 549.342 368.523 556.248 345.411 558.116C392.393 561.937 436.988 586.253 465.242 627.332C443.745 582.347 444.93 531.568 465.067 488.947C451.913 508.043 434.415 524.589 413.004 536.965ZM335.329 558.612C334.645 558.625 333.96 558.632 333.277 558.636C362.896 609.232 416.042 637.618 470.79 637.933C441.551 587.947 389.357 559.625 335.329 558.612ZM331.487 558.635C330.811 558.631 330.134 558.623 329.459 558.61C303.18 559.082 276.649 566.037 252.282 580.123C227.911 594.211 208.64 613.734 195.116 636.276C194.783 636.88 194.446 637.483 194.104 638.083C221.054 637.946 248.335 631 273.338 616.547C297.702 602.463 316.969 582.946 330.492 560.413C330.82 559.818 331.151 559.226 331.487 558.635ZM319.375 558.107C272.39 554.285 227.793 529.967 199.54 488.884C221.04 533.871 219.855 584.655 199.717 627.278C212.871 608.181 230.37 591.634 251.782 579.257C273.192 566.88 296.263 559.975 319.375 558.107ZM194.109 639.083C223.73 689.682 276.878 718.068 331.629 718.38C304.511 670.913 304.165 615.401 325.9 569.396C312.746 588.491 295.248 605.036 273.838 617.413C248.679 631.956 221.227 638.946 194.109 639.083ZM331.359 560.912C331.712 560.323 332.062 559.732 332.407 559.139C361.469 610.057 359.544 670.278 332.493 717.877C303.771 667.596 305.275 608.235 331.359 560.912ZM193.242 639.581C192.899 640.17 192.553 640.756 192.202 641.34C166.021 688.825 164.591 748.434 193.616 798.829C220.751 798.789 248.243 791.847 273.423 777.291C298.425 762.838 318.059 742.665 331.628 719.381C276.532 719.068 223.047 690.501 193.242 639.581ZM192.462 798.827C165.343 751.358 164.998 695.845 186.735 649.839C173.581 668.936 156.082 685.483 134.67 697.86C109.512 712.403 82.0609 719.392 54.9438 719.531C84.5639 770.128 137.712 798.514 192.462 798.827ZM617.13 408.295C640.475 457.149 637.068 512.837 611.69 557.487C638.639 557.35 665.919 550.404 690.922 535.951C715.924 521.498 735.559 501.324 749.127 478.039C697.77 477.748 647.813 452.906 617.13 408.295ZM750.856 478.04C777.976 477.903 805.429 470.914 830.589 456.369C855.748 441.826 875.505 421.526 889.158 398.096C932.826 474.601 906.537 572.108 830.175 616.25C805.172 630.703 777.892 637.649 750.943 637.786C778.169 589.886 780.107 529.281 750.856 478.04ZM472.524 637.933C497.902 593.283 501.308 537.594 477.962 488.741C508.645 533.353 558.603 558.195 609.961 558.487C596.392 581.771 576.758 601.944 551.756 616.397C526.753 630.85 499.473 637.796 472.524 637.933ZM749.791 637.788C694.837 637.672 641.418 609.264 611.694 558.487C638.812 558.349 666.264 551.36 691.422 536.816C716.581 522.273 736.338 501.973 749.992 478.542C779.158 529.641 777.116 590.109 749.791 637.788ZM472.528 638.933C499.646 638.796 527.097 631.806 552.256 617.263C577.415 602.719 597.172 582.419 610.826 558.989C639.992 610.088 637.95 670.556 610.624 718.235C555.67 718.119 502.252 689.71 472.528 638.933ZM338.796 569.187C369.479 613.799 419.436 638.641 470.794 638.933C457.226 662.218 437.591 682.392 412.589 696.845C387.587 711.298 360.306 718.244 333.357 718.381C358.736 673.73 362.142 618.041 338.796 569.187ZM471.458 798.681C416.504 798.565 363.087 770.157 333.363 719.381C360.48 719.243 387.931 712.254 413.089 697.71C438.248 683.167 458.005 662.867 471.659 639.436C500.825 690.535 498.783 751.002 471.458 798.681ZM332.495 719.878C362.3 770.799 415.785 799.366 470.881 799.679C457.313 822.964 437.678 843.137 412.676 857.59C336.314 901.732 238.698 875.85 194.195 799.828C221.313 799.69 248.764 792.7 273.923 778.157C299.084 763.613 318.842 743.311 332.495 719.878ZM749.214 638.786C697.858 638.494 647.903 613.655 617.219 569.046C640.561 617.898 637.155 673.585 611.777 718.233C638.726 718.096 666.006 711.15 691.009 696.697C716.011 682.244 735.645 662.07 749.214 638.786ZM610.048 719.233C558.69 718.941 508.732 694.099 478.049 649.488C501.395 698.341 497.989 754.029 472.61 798.679C499.559 798.542 526.84 791.596 551.843 777.143C576.845 762.69 596.479 742.517 610.048 719.233Z" fill="#FDFDFD"/>
</svg>
