<svg width="1080" height="258" viewBox="0 0 1080 258" fill="none" xmlns="http://www.w3.org/2000/svg">
<path fill-rule="evenodd" clip-rule="evenodd" d="M401.561 -434.018C415.129 -457.303 434.764 -477.477 459.766 -491.93C536.129 -536.072 633.745 -510.189 678.247 -434.166C651.129 -434.029 623.677 -427.039 598.518 -412.496C573.358 -397.952 553.6 -377.651 539.947 -354.219C510.142 -405.139 456.657 -433.705 401.561 -434.018ZM400.406 -434.021C414.069 -457.663 433.928 -478.149 459.266 -492.796C536.273 -537.31 634.76 -511.055 679.404 -434.168C734.881 -434.051 788.803 -405.279 818.654 -353.871C874.133 -353.756 928.058 -324.982 957.909 -273.572C1013.49 -273.456 1067.5 -244.58 1097.32 -192.998C1127.14 -141.415 1125.2 -80.1948 1097.57 -31.9752C1127.22 19.5498 1125.24 80.6383 1097.65 128.772C1127.3 180.296 1125.32 241.383 1097.74 289.516C1142.08 366.574 1115.68 465.022 1038.68 509.537C1013.34 524.184 985.674 531.169 958.369 531.209C944.706 554.851 924.847 575.337 899.509 589.984C874.171 604.63 846.508 611.615 819.202 611.656C805.54 635.298 785.681 655.783 760.343 670.43C735.005 685.077 707.342 692.062 680.036 692.103C666.373 715.744 646.514 736.23 621.176 750.877C544.169 795.392 445.682 769.137 401.039 692.25C345.561 692.134 291.638 663.362 261.787 611.953C206.308 611.838 152.384 583.064 122.533 531.654C66.9552 531.538 12.9382 502.662 -16.8795 451.079C-46.6973 399.497 -44.7614 338.277 -17.1248 290.057C-46.7763 238.533 -44.798 177.445 -17.2105 129.311C-46.8614 77.7865 -44.8827 16.6988 -17.295 -31.4346C-61.6401 -108.492 -35.2395 -206.94 41.767 -251.455C67.1048 -266.101 94.768 -273.086 122.074 -273.127C135.736 -296.769 155.595 -317.254 180.933 -331.901C206.271 -346.548 233.935 -353.533 261.24 -353.574C274.903 -377.215 294.762 -397.701 320.1 -412.348C345.438 -426.995 373.101 -433.98 400.406 -434.021ZM678.827 -433.168C651.691 -433.128 624.199 -426.186 599.018 -411.63C574.016 -397.177 554.382 -377.004 540.814 -353.719C595.91 -353.406 649.395 -324.84 679.199 -273.92C679.541 -274.506 679.887 -275.091 680.237 -275.674C706.421 -323.159 707.853 -382.771 678.827 -433.168ZM685.707 -284.177C707.444 -330.183 707.099 -385.696 679.981 -433.166C734.73 -432.853 787.877 -404.466 817.497 -353.87C790.381 -353.731 762.93 -346.742 737.772 -332.199C716.36 -319.822 698.861 -303.275 685.707 -284.177ZM680.122 -273.421C680.453 -274.004 680.78 -274.588 681.103 -275.174C694.627 -297.718 713.899 -317.244 738.272 -331.333C763.452 -345.888 790.942 -352.83 818.077 -352.871C847.107 -302.471 845.673 -242.852 819.483 -195.365C819.136 -194.785 818.792 -194.204 818.452 -193.62C788.658 -244.524 735.199 -273.089 680.122 -273.421ZM678.196 -270.122C678.544 -270.702 678.889 -271.285 679.229 -271.87C707.926 -221.594 706.411 -162.249 680.329 -114.939C679.978 -114.355 679.632 -113.768 679.289 -113.18C650.59 -163.459 652.108 -222.81 678.196 -270.122ZM677.33 -270.622C677.662 -271.224 677.998 -271.824 678.338 -272.422C651.388 -272.285 624.107 -265.339 599.104 -250.886C574.746 -236.805 555.483 -217.295 541.96 -194.769C541.629 -194.168 541.295 -193.57 540.956 -192.974C541.628 -192.97 542.299 -192.962 542.971 -192.949C569.254 -193.419 595.789 -200.374 620.16 -214.462C644.533 -228.551 663.805 -248.077 677.33 -270.622ZM553.064 -192.446C576.177 -194.313 599.249 -201.219 620.66 -213.596C642.072 -225.974 659.572 -242.521 672.726 -261.619C652.586 -218.993 651.402 -168.207 672.905 -123.218C644.652 -164.304 600.052 -188.624 553.064 -192.446ZM540.931 -191.926C541.611 -191.929 542.291 -191.937 542.97 -191.949C596.987 -190.942 649.171 -162.636 678.418 -112.676C677.731 -112.673 677.043 -112.665 676.356 -112.652C622.348 -113.667 570.173 -141.972 540.931 -191.926ZM537.127 -191.951C537.798 -191.939 538.47 -191.931 539.142 -191.927C538.804 -191.33 538.469 -190.732 538.138 -190.132C524.615 -167.605 505.352 -148.095 480.994 -134.015C456.633 -119.933 430.109 -112.977 403.837 -112.502C403.155 -112.515 402.472 -112.524 401.79 -112.528C402.128 -113.123 402.462 -113.72 402.792 -114.319C416.315 -136.847 435.579 -156.358 459.937 -170.439C484.308 -184.526 510.844 -191.482 537.127 -191.951ZM537.127 -192.952C537.806 -192.964 538.486 -192.972 539.165 -192.975C509.546 -243.571 456.4 -271.958 401.652 -272.272C430.893 -222.283 483.093 -193.96 537.127 -192.952ZM407.199 -261.673C435.452 -220.593 480.049 -196.276 527.034 -192.455C503.92 -190.587 480.848 -183.681 459.437 -171.304C438.028 -158.929 420.531 -142.385 407.378 -123.291C427.512 -165.912 428.696 -216.69 407.199 -261.673ZM394.395 -283.824C363.712 -328.437 313.754 -353.279 262.395 -353.571C275.964 -376.856 295.598 -397.029 320.601 -411.482C345.603 -425.935 372.883 -432.881 399.832 -433.019C374.453 -388.368 371.048 -332.678 394.395 -283.824ZM400.783 -273.776C371.617 -324.875 373.659 -385.342 400.984 -433.02C455.938 -432.905 509.356 -404.496 539.081 -353.72C511.963 -353.582 484.511 -346.593 459.352 -332.049C434.193 -317.506 414.436 -297.206 400.783 -273.776ZM42.2675 -250.589C-34.0941 -206.447 -60.3833 -108.941 -16.7163 -32.4359C-3.06319 -55.8655 16.6937 -76.1651 41.852 -90.7082C67.0125 -105.253 94.4662 -112.242 121.586 -112.379C92.335 -163.62 94.2731 -224.225 121.499 -272.125C94.5504 -271.988 67.2697 -265.042 42.2675 -250.589ZM181.434 -331.035C206.436 -345.488 233.717 -352.434 260.666 -352.572C235.288 -307.922 231.882 -252.233 255.227 -203.38C224.544 -247.992 174.586 -272.833 123.229 -273.125C136.797 -296.409 156.431 -316.583 181.434 -331.035ZM261.819 -352.573C234.493 -304.895 232.451 -244.428 261.617 -193.33C275.27 -216.759 295.027 -237.059 320.185 -251.602C345.344 -266.146 372.796 -273.135 399.913 -273.273C370.19 -324.049 316.772 -352.457 261.819 -352.573ZM268.212 -42.8451C288.346 -85.4643 289.53 -136.241 268.035 -181.223C296.287 -140.147 340.88 -115.831 387.86 -112.008C364.749 -110.14 341.68 -103.234 320.271 -90.8581C298.863 -78.4827 281.365 -61.9389 268.212 -42.8451ZM262.486 -191.826C291.72 -141.846 343.906 -113.524 397.927 -112.505C398.388 -112.513 398.849 -112.519 399.31 -112.524C399.54 -112.526 399.769 -112.528 399.999 -112.529C370.38 -163.125 317.234 -191.511 262.486 -191.826ZM402.95 -111.489C402.555 -111.484 402.16 -111.48 401.766 -111.478C431.011 -61.5201 483.193 -33.2148 537.207 -32.2055C537.889 -32.2177 538.57 -32.2254 539.252 -32.2289C510.012 -82.1795 457.842 -110.484 403.837 -111.502C403.541 -111.497 403.245 -111.492 402.95 -111.489ZM399.975 -111.479C399.293 -111.483 398.61 -111.492 397.928 -111.504C371.656 -111.03 345.132 -104.074 320.771 -89.9923C296.413 -75.9118 277.15 -56.4015 263.627 -33.8749C263.296 -33.2748 262.962 -32.6767 262.623 -32.0806C263.304 -32.0765 263.984 -32.0681 264.664 -32.0553C290.938 -32.529 317.464 -39.4845 341.827 -53.5676C366.186 -67.6486 385.45 -87.1598 398.973 -109.687C399.303 -110.287 399.637 -110.884 399.975 -111.479ZM481.495 -133.149C460.085 -120.773 437.016 -113.867 413.905 -111.999C460.886 -108.176 505.479 -83.8604 533.731 -42.7834C512.235 -87.7655 513.42 -138.542 533.553 -181.162C520.4 -162.068 502.903 -145.524 481.495 -133.149ZM540.035 -193.477C540.384 -194.076 540.737 -194.673 541.094 -195.268C567.168 -242.589 568.669 -301.943 539.949 -352.218C512.897 -304.618 510.972 -244.396 540.035 -193.477ZM540.814 -352.719C567.932 -305.253 568.278 -249.743 546.545 -203.739C559.698 -222.832 577.196 -239.376 598.604 -251.752C623.763 -266.295 651.214 -273.284 678.332 -273.422C648.712 -324.02 595.564 -352.406 540.814 -352.719ZM540.063 -191.421C539.714 -190.823 539.362 -190.227 539.005 -189.633C512.938 -142.327 511.431 -82.9962 540.121 -32.7312C540.462 -33.3156 540.806 -33.8979 541.154 -34.4783C567.244 -81.7902 568.761 -141.141 540.063 -191.421ZM122.652 -272.127C95.3261 -224.448 93.2839 -163.981 122.45 -112.882C136.103 -136.312 155.86 -156.612 181.019 -171.156C206.178 -185.699 233.63 -192.689 260.747 -192.826C231.023 -243.603 177.606 -272.011 122.652 -272.127ZM122.452 -110.88C95.3983 -63.2801 93.472 -3.0574 122.535 47.8622C136.188 24.4323 155.945 4.13236 181.104 -10.4108C202.513 -22.7868 225.583 -29.6926 248.695 -31.561C197.982 -35.6873 150.051 -63.6911 122.452 -110.88ZM258.767 -32.0577C204.743 -33.0742 152.555 -61.3964 123.319 -111.378C178.067 -111.064 231.212 -82.6774 260.832 -32.0814C260.144 -32.0779 259.455 -32.07 258.767 -32.0577ZM262.599 -31.0312C263.287 -31.0347 263.976 -31.0426 264.665 -31.055C318.671 -30.0386 370.843 -1.73422 400.084 48.2174C399.396 48.2209 398.708 48.2288 398.02 48.2412C344.013 47.2251 291.84 18.9207 262.599 -31.0312ZM258.767 -31.0573C259.447 -31.0446 260.128 -31.0362 260.809 -31.0321C260.47 -30.4364 260.136 -29.8386 259.806 -29.239C246.283 -6.71227 227.019 12.7983 202.661 26.8788C178.287 40.9686 151.747 47.924 125.461 48.3918C124.774 48.3791 124.086 48.3708 123.399 48.3669C136.967 25.0821 156.602 4.90801 181.604 -9.54507C205.967 -23.6281 232.493 -30.5836 258.767 -31.0573ZM274.737 -31.5517C297.848 -33.42 320.918 -40.3258 342.327 -52.7018C363.736 -65.0773 381.233 -81.6212 394.386 -100.715C374.253 -58.0956 373.068 -7.31851 394.564 37.6638C366.311 -3.41353 321.718 -27.729 274.737 -31.5517ZM399.839 -109.188C400.196 -109.782 400.548 -110.378 400.897 -110.976C429.593 -60.6994 428.078 -1.35365 401.995 45.9566C401.644 46.541 401.297 47.1274 400.954 47.7159C372.263 -2.55 373.772 -61.8821 399.839 -109.188ZM400.783 -271.77C429.502 -221.494 428.001 -162.139 401.925 -114.819C401.569 -114.225 401.217 -113.629 400.868 -113.031C371.806 -163.95 373.731 -224.17 400.783 -271.77ZM261.701 -32.5838C232.639 -83.5026 234.564 -143.724 261.616 -191.324C290.336 -141.049 288.835 -81.6945 262.76 -34.3738C262.403 -33.7792 262.05 -33.1826 261.701 -32.5838ZM261.73 -30.5277C261.381 -29.9296 261.029 -29.3336 260.672 -28.7396C234.605 18.5659 233.098 77.897 261.788 128.162C262.13 127.575 262.476 126.991 262.826 126.408C288.911 79.097 290.427 19.7496 261.73 -30.5277ZM203.161 27.7446C181.749 40.1222 158.676 47.0281 135.562 48.8955C182.549 52.7163 227.148 77.035 255.402 118.119C233.902 73.1349 235.085 22.3539 255.22 -20.2682C242.067 -1.17454 224.57 15.3692 203.161 27.7446ZM125.462 49.3921C124.786 49.4041 124.109 49.4118 123.433 49.4152C152.678 99.374 204.861 127.679 258.876 128.688C259.557 128.676 260.237 128.668 260.917 128.665C231.669 78.7023 179.481 50.3967 125.462 49.3921ZM121.642 49.4143C120.974 49.4103 120.306 49.4021 119.638 49.3898C93.3511 49.8575 66.8115 56.8129 42.4374 70.9027C17.2575 85.4582 -2.47796 105.816 -16.056 129.31C13.1256 179.61 65.4891 208.12 119.699 209.135C120.385 209.123 121.071 209.115 121.757 209.112C92.5159 157.889 94.4426 97.3073 121.642 49.4143ZM41.9369 70.0369C63.3491 57.6594 86.422 50.7534 109.536 48.8861C58.8205 44.7619 10.8862 16.7575 -16.7145 -30.434C-43.7687 17.1663 -45.6953 77.3898 -16.6318 128.31C-2.9786 104.88 16.7784 84.5801 41.9369 70.0369ZM-16.1406 -31.4354C13.0451 18.8706 65.4187 47.3812 119.636 48.3894C120.315 48.3774 120.993 48.3697 121.672 48.3663C92.4212 -2.87406 94.359 -63.4783 121.585 -111.379C94.6356 -111.241 67.3548 -104.295 42.3524 -89.8424C17.1728 -75.287 -2.56255 -54.9293 -16.1406 -31.4354ZM181.519 -170.29C156.517 -155.837 136.882 -135.663 123.314 -112.378C174.672 -112.086 224.629 -87.2448 255.313 -42.6325C231.966 -91.4864 235.372 -147.176 260.751 -191.826C233.802 -191.689 206.522 -184.743 181.519 -170.29ZM539.084 -352.72C512.135 -352.582 484.855 -345.636 459.853 -331.184C434.85 -316.731 415.216 -296.557 401.647 -273.272C453.005 -272.98 502.962 -248.139 533.645 -203.528C510.3 -252.381 513.706 -308.07 539.084 -352.72ZM546.453 -181.371C567.95 -136.385 566.763 -85.6041 546.625 -42.9828C559.779 -62.0807 577.279 -78.6279 598.691 -91.0054C620.1 -103.381 643.17 -110.287 666.281 -112.156C619.299 -115.978 574.705 -140.293 546.453 -181.371ZM680.187 -111.626C680.874 -111.629 681.561 -111.637 682.248 -111.65C736.255 -110.635 788.429 -82.3302 817.671 -32.3774C817.001 -32.374 816.33 -32.3664 815.659 -32.3546C761.634 -33.3534 709.438 -61.6591 680.187 -111.626ZM676.356 -111.652C677.036 -111.639 677.715 -111.631 678.395 -111.627C678.062 -111.041 677.733 -110.453 677.408 -109.863C663.884 -87.3238 644.615 -67.8025 620.246 -53.7158C595.877 -39.6292 569.344 -32.6738 543.064 -32.2032C542.39 -32.2157 541.715 -32.224 541.041 -32.2281C541.105 -32.3399 541.168 -32.4519 541.231 -32.5638C541.325 -32.73 541.419 -32.8964 541.512 -33.0628C541.682 -33.3675 541.852 -33.6727 542.021 -33.9784C555.545 -56.5235 574.817 -76.05 599.191 -90.1397C623.555 -104.223 650.081 -111.179 676.356 -111.652ZM692.322 -112.146C715.433 -114.015 738.503 -120.921 759.912 -133.297C781.325 -145.674 798.825 -162.223 811.979 -181.321C791.84 -138.697 790.654 -87.9122 812.155 -42.9242C783.903 -84.006 739.306 -108.324 692.322 -112.146ZM816.588 -190.332C803.063 -167.783 783.789 -148.254 759.412 -134.162C735.049 -120.079 708.522 -113.123 682.247 -112.65C681.976 -112.655 681.705 -112.659 681.435 -112.663C681.285 -112.665 681.136 -112.667 680.987 -112.669C680.831 -112.67 680.675 -112.672 680.518 -112.673C680.415 -112.674 680.312 -112.675 680.208 -112.675C680.541 -113.261 680.87 -113.849 681.195 -114.439C694.719 -136.978 713.989 -156.499 738.357 -170.586C763.36 -185.039 790.641 -191.985 817.59 -192.122C817.521 -192.001 817.452 -191.88 817.384 -191.758C817.274 -191.564 817.165 -191.369 817.056 -191.174C816.998 -191.072 816.941 -190.969 816.884 -190.867C816.785 -190.689 816.686 -190.51 816.588 -190.332ZM819.374 -193.122C819.703 -193.701 820.028 -194.282 820.35 -194.865C833.874 -217.413 853.148 -236.943 877.525 -251.034C902.705 -265.59 930.196 -272.532 957.332 -272.572C986.727 -221.535 984.885 -161.047 957.733 -113.274C927.943 -164.207 874.468 -192.79 819.374 -193.122ZM817.453 -189.831C817.8 -190.409 818.143 -190.989 818.482 -191.571C847.187 -141.279 845.662 -81.9107 819.554 -34.5931C819.37 -34.286 819.187 -33.9784 819.005 -33.6703C818.929 -33.5415 818.853 -33.4127 818.778 -33.2837L818.655 -33.0742L818.542 -32.8804C789.842 -83.1628 791.36 -142.517 817.453 -189.831ZM824.958 -203.875C846.696 -249.883 846.352 -305.398 819.231 -352.869C873.983 -352.557 927.132 -324.17 956.753 -273.571C929.635 -273.433 902.183 -266.443 877.025 -251.9C855.612 -239.522 838.112 -222.974 824.958 -203.875ZM320.685 -250.737C345.688 -265.189 372.969 -272.136 399.918 -272.273C374.54 -227.623 371.134 -171.934 394.479 -123.081C363.795 -167.693 313.838 -192.534 262.481 -192.826C276.049 -216.11 295.683 -236.284 320.685 -250.737ZM407.461 37.4613C427.597 -5.1595 428.783 -55.9399 407.287 -100.925C435.54 -59.8458 480.136 -35.5301 527.119 -31.7088C504.006 -29.8409 480.935 -22.935 459.524 -10.5583C438.113 1.8185 420.614 18.3647 407.461 37.4613ZM543.063 -31.2028C542.381 -31.1907 541.7 -31.1829 541.019 -31.1794C570.269 18.7868 622.463 47.0927 676.487 48.0928C677.16 48.0809 677.832 48.0733 678.504 48.0699C649.259 -1.88836 597.077 -30.1936 543.063 -31.2028ZM539.229 -31.1803C538.555 -31.1844 537.881 -31.1927 537.207 -31.2052C510.926 -30.7347 484.393 -23.7792 460.024 -9.69255C435.655 4.39443 416.385 23.9163 402.861 46.456L402.741 46.6735L402.596 46.9361C402.549 47.0198 402.502 47.1036 402.456 47.1872C402.263 47.5316 402.07 47.8752 401.875 48.2183C402.556 48.2224 403.237 48.2308 403.917 48.2435C430.191 47.7697 456.717 40.8141 481.079 26.7312C505.453 12.6417 524.725 -6.88471 538.249 -29.4297C538.572 -30.015 538.899 -30.5986 539.229 -31.1803ZM620.746 -52.8501C599.336 -40.4733 576.264 -33.5675 553.152 -31.6996C600.135 -27.8782 644.73 -3.56249 672.984 37.5163C651.487 -7.46834 652.673 -58.2485 672.81 -100.869C659.656 -81.7728 642.157 -65.2268 620.746 -52.8501ZM680.066 -272.421C707.185 -224.952 707.53 -169.439 685.794 -123.433C698.947 -142.529 716.446 -159.075 737.857 -171.452C763.016 -185.995 790.467 -192.985 817.585 -193.122C787.965 -243.721 734.816 -272.109 680.066 -272.421ZM679.315 -111.123C678.972 -110.535 678.625 -109.948 678.275 -109.363C652.192 -62.0533 650.678 -2.70836 679.374 47.5671C679.712 46.9858 680.055 46.4065 680.401 45.8291C706.495 -1.48431 708.015 -60.8398 679.315 -111.123ZM268.119 -20.4787C289.616 24.5066 288.431 75.2878 268.293 117.909C281.447 98.8119 298.946 82.2652 320.358 69.888C341.767 57.5122 364.836 50.6064 387.948 48.7379C340.966 44.9155 296.371 20.5996 268.119 -20.4787ZM401.851 49.2676C402.54 49.2641 403.228 49.2562 403.917 49.2439C457.924 50.2596 510.097 78.5642 539.339 128.517C538.663 128.52 537.986 128.528 537.31 128.54C483.29 127.536 431.1 99.2308 401.851 49.2676ZM398.02 49.2415C398.7 49.2543 399.381 49.2627 400.062 49.2668C399.865 49.6137 399.669 49.9614 399.475 50.3097C399.341 50.5492 399.208 50.7889 399.076 51.0289C385.552 73.5687 366.282 93.0907 341.913 107.178C317.543 121.265 291.009 128.22 264.727 128.69C264.055 128.678 263.382 128.67 262.708 128.666C263.04 128.081 263.368 127.495 263.692 126.907C277.216 104.366 296.487 84.8418 320.858 70.7538C345.22 56.6709 371.746 49.7154 398.02 49.2415ZM413.99 48.7471C437.101 46.8786 460.17 39.9728 481.579 27.597C502.991 15.2196 520.491 -1.3277 533.645 -20.4255C513.507 22.1956 512.321 72.9769 533.818 117.962C505.565 76.885 460.971 52.5695 413.99 48.7471ZM539.116 -28.9307C539.464 -29.5109 539.808 -30.0931 540.149 -30.6772C568.851 19.61 567.329 78.9709 541.229 126.286C540.885 126.86 540.544 127.436 540.208 128.014C511.509 77.7333 513.027 18.3816 539.116 -28.9307ZM400.982 49.7704C400.64 50.3584 400.293 50.9444 399.943 51.5284C373.859 98.8387 372.344 158.185 401.041 208.461C401.094 208.369 401.148 208.278 401.201 208.186C401.283 208.047 401.365 207.907 401.447 207.768C401.652 207.421 401.858 207.074 402.065 206.728C428.162 159.414 429.683 100.056 400.982 49.7704ZM342.413 108.043C321.002 120.42 297.931 127.326 274.818 129.194C321.801 133.015 366.397 157.331 394.651 198.41C373.154 153.425 374.34 102.645 394.477 60.0239C381.323 79.1205 363.824 95.6666 342.413 108.043ZM264.728 129.691C264.047 129.703 263.366 129.711 262.686 129.714C291.939 179.686 344.141 207.992 398.171 208.987C398.304 208.984 398.437 208.982 398.569 208.98C398.717 208.978 398.864 208.976 399.011 208.974C399.398 208.969 399.785 208.966 400.172 208.964C370.926 159.005 318.743 130.699 264.728 129.691ZM260.896 129.713C260.223 129.709 259.55 129.701 258.878 129.688C232.596 130.158 206.061 137.114 181.691 151.201C156.689 165.654 137.054 185.828 123.486 209.112C124.181 209.116 124.875 209.125 125.57 209.138C151.848 208.666 178.379 201.711 202.746 187.625C227.117 173.537 246.388 154.013 259.912 131.471C260.236 130.883 260.564 130.297 260.896 129.713ZM248.786 129.185C198.071 125.06 150.137 97.0554 122.537 49.8641C95.4829 97.4649 93.5568 157.689 122.621 208.609C136.275 185.179 156.032 164.879 181.191 150.335C202.602 137.958 225.673 131.053 248.786 129.185ZM260.779 131.971C261.128 131.389 261.473 130.804 261.815 130.218C290.519 180.509 288.995 239.874 262.89 287.191C262.548 287.761 262.21 288.333 261.875 288.908C233.178 238.63 234.693 179.282 260.779 131.971ZM135.653 209.641C158.765 207.773 181.836 200.868 203.246 188.491C224.658 176.114 242.157 159.567 255.311 140.47C235.172 183.095 233.988 233.881 255.491 278.869C227.238 237.783 182.639 213.464 135.653 209.641ZM123.519 210.162C124.202 210.158 124.886 210.15 125.571 210.138C179.582 211.15 231.76 239.455 261.004 289.411C260.337 289.415 259.671 289.422 259.004 289.434C204.974 288.439 152.772 260.133 123.519 210.162ZM119.699 210.136C120.375 210.148 121.052 210.157 121.729 210.161C94.521 258.069 92.6017 318.673 121.871 369.906C66.9217 369.593 13.5857 341.001 -15.9704 290.057C-2.39233 266.562 17.3432 246.204 42.5234 231.648C66.8899 217.563 93.4205 210.607 119.699 210.136ZM109.617 209.632C86.5042 211.5 63.4333 218.406 42.0229 230.783C16.8641 245.326 -2.89297 265.626 -16.5461 289.056C-45.6102 238.136 -43.6839 177.912 -16.6299 130.312C10.9698 177.502 58.9023 205.507 109.617 209.632ZM685.876 37.3174C706.017 -5.30835 707.202 -56.0963 685.699 -101.086C713.953 -59.9981 758.555 -35.6778 805.545 -31.8579C782.43 -29.9909 759.356 -23.0849 737.943 -10.7068C716.53 1.67107 699.03 18.2189 685.876 37.3174ZM821.449 -31.3519C820.779 -31.3401 820.109 -31.3325 819.439 -31.3291C848.685 18.6308 900.869 46.9363 954.885 47.9439C955.564 47.9318 956.244 47.9242 956.923 47.9207C927.672 -2.04719 875.475 -30.3535 821.449 -31.3519ZM817.65 -31.3299C816.986 -31.334 816.323 -31.342 815.66 -31.3542C789.368 -30.8891 762.823 -23.9337 738.443 -9.84102C714.066 4.25057 694.792 23.7806 681.267 46.3297C680.946 46.9118 680.621 47.4923 680.292 48.0708C680.957 48.0748 681.621 48.0829 682.286 48.0951C708.576 47.6293 735.12 40.6739 759.498 26.5819C783.884 12.4852 803.164 -7.05383 816.689 -29.6133C816.75 -29.7236 816.811 -29.8339 816.872 -29.9441L817.002 -30.1783C817.217 -30.563 817.432 -30.9469 817.65 -31.3299ZM899.166 -52.9997C877.753 -40.6216 854.679 -33.7156 831.564 -31.8486C882.281 -27.7257 930.217 0.278812 957.819 47.4717C984.872 -0.128646 986.798 -60.3519 957.734 -111.272C944.081 -87.8422 924.324 -67.5427 899.166 -52.9997ZM898.666 -53.8655C923.685 -68.3282 943.329 -88.5196 956.899 -111.824C929.932 -111.696 902.631 -104.751 877.611 -90.2878C853.225 -76.191 833.945 -56.6519 820.42 -34.0924C820.328 -33.9247 820.235 -33.7572 820.142 -33.5898L820.041 -33.4088C819.953 -33.2512 819.865 -33.0938 819.776 -32.9365C819.671 -32.7496 819.565 -32.563 819.459 -32.3765C819.832 -32.3742 820.205 -32.3707 820.577 -32.3659C820.868 -32.3621 821.159 -32.3576 821.449 -32.3522C847.741 -32.8173 874.287 -39.7727 898.666 -53.8655ZM1096.99 -32.9759C1067.2 -83.9091 1013.72 -112.491 958.627 -112.823C985.836 -160.731 987.756 -221.336 958.486 -272.57C1013.52 -272.256 1066.93 -243.581 1096.46 -192.497C1125.99 -141.414 1124.18 -80.8187 1096.99 -32.9759ZM546.539 -20.6269C568.036 24.3606 566.849 75.1442 546.709 117.767C559.863 98.6672 577.364 82.1187 598.777 69.7405C620.189 57.3628 643.263 50.4567 666.377 48.5895C619.392 44.7699 574.793 20.4539 546.539 -20.6269ZM680.27 49.1183C680.943 49.1149 681.615 49.1073 682.288 49.0954C736.312 50.0953 788.506 78.4013 817.757 128.368C817.068 128.371 816.38 128.379 815.691 128.392C761.684 127.375 709.512 99.0707 680.27 49.1183ZM676.489 49.0931C677.153 49.1053 677.817 49.1134 678.482 49.1174C678.153 49.6961 677.828 50.2767 677.507 50.8589C663.982 73.4078 644.708 92.9376 620.331 107.029C595.957 121.119 569.417 128.074 543.131 128.542C542.463 128.53 541.795 128.522 541.126 128.518C541.453 127.943 541.775 127.366 542.095 126.788C555.619 104.234 574.896 84.7001 599.277 70.6063C623.655 56.5145 650.198 49.5591 676.489 49.0931ZM692.397 48.5987C715.512 46.7315 738.586 39.8255 759.998 27.4477C781.413 15.0687 798.914 -1.48117 812.069 -20.582C791.926 22.043 790.739 72.8307 812.241 117.821C783.986 76.7365 739.385 52.4183 692.397 48.5987ZM825.041 -43.1241C846.782 -89.1319 846.439 -144.649 819.319 -192.122C874.069 -191.809 927.217 -163.422 956.837 -112.824C929.72 -112.686 902.269 -105.697 877.111 -91.1535C855.696 -78.7746 838.195 -62.2249 825.041 -43.1241ZM817.555 -29.1132C817.896 -29.6824 818.234 -30.2535 818.568 -30.8265C847.258 19.4385 845.751 78.7694 819.684 126.075C819.328 126.669 818.975 127.265 818.626 127.863C789.922 77.5714 791.448 18.204 817.555 -29.1132ZM407.543 198.212C427.682 155.59 428.869 104.807 407.372 59.8203C435.626 100.9 480.223 125.216 527.208 129.036C504.094 130.904 481.022 137.81 459.61 150.187C438.197 162.565 420.697 179.113 407.543 198.212ZM543.13 129.542C542.455 129.554 541.78 129.562 541.105 129.565C570.345 179.516 622.516 207.82 676.521 208.838C676.818 208.833 677.114 208.828 677.411 208.824C677.804 208.82 678.197 208.816 678.589 208.814C649.341 158.851 597.15 130.545 543.13 129.542ZM539.316 129.565C538.885 129.562 538.455 129.558 538.025 129.552C537.787 129.548 537.549 129.544 537.311 129.54C511.025 130.008 484.485 136.963 460.11 151.053C435.731 165.146 416.456 184.678 402.931 207.229C402.611 207.809 402.287 208.388 401.959 208.965C402.618 208.969 403.277 208.977 403.936 208.989C430.232 208.526 456.782 201.57 481.165 187.475C505.546 173.382 524.823 153.848 538.348 131.294C538.456 131.097 538.565 130.9 538.675 130.703C538.887 130.323 539.101 129.943 539.316 129.565ZM620.831 107.895C599.42 120.272 576.347 127.178 553.233 129.046C600.218 132.866 644.816 157.182 673.071 198.263C651.572 153.276 652.759 102.493 672.898 59.8705C659.744 78.9691 642.244 95.517 620.831 107.895ZM679.401 49.6207C679.062 50.2018 678.72 50.781 678.374 51.3582C652.279 98.6718 650.759 158.028 679.459 208.311C679.808 207.713 680.16 207.117 680.516 206.523C706.584 159.218 708.092 99.8862 679.401 49.6207ZM539.214 131.794C539.558 131.22 539.898 130.645 540.235 130.067C568.926 180.332 567.418 239.663 541.351 286.969C540.994 287.563 540.642 288.16 540.293 288.758C511.59 238.471 513.113 179.109 539.214 131.794ZM414.061 209.492C437.177 207.626 460.252 200.72 481.665 188.341C503.079 175.963 520.579 159.414 533.733 140.315C513.593 182.938 512.406 233.722 533.904 278.71C505.649 237.628 461.048 213.311 414.061 209.492ZM401.937 210.012C402.604 210.008 403.271 210.001 403.938 209.989C457.967 210.983 510.17 239.29 539.424 289.262C538.739 289.265 538.054 289.273 537.369 289.285C483.358 288.273 431.18 259.967 401.937 210.012ZM398.173 209.987C398.472 209.992 398.771 209.997 399.07 210.001C399.311 210.004 399.551 210.006 399.791 210.008C399.911 210.009 400.03 210.01 400.149 210.011C399.821 210.588 399.497 211.167 399.177 211.747C385.652 234.298 366.377 253.83 341.998 267.923C317.615 282.017 291.065 288.973 264.769 289.436C264.111 289.424 263.452 289.416 262.792 289.412C263.117 288.84 263.439 288.266 263.756 287.691C277.281 265.133 296.56 245.596 320.944 231.5C345.327 217.406 371.877 210.45 398.173 209.987ZM268.2 140.259C296.455 181.345 341.058 205.665 388.048 209.483C364.932 211.35 341.858 218.256 320.444 230.635C299.03 243.013 281.529 259.563 268.374 278.663C288.517 236.037 289.703 185.249 268.2 140.259ZM401.068 210.514C400.73 211.094 400.389 211.672 400.043 212.247C373.946 259.562 372.425 318.92 401.126 369.205C401.317 368.877 401.51 368.549 401.704 368.222C401.862 367.955 402.021 367.688 402.181 367.422C428.251 320.115 429.76 260.781 401.068 210.514ZM342.498 268.788C321.084 281.167 298.009 288.073 274.893 289.94C321.883 293.759 366.485 318.077 394.74 359.163C373.239 314.174 374.425 263.388 394.566 220.763C381.412 239.862 363.911 256.41 342.498 268.788ZM264.77 290.436C264.104 290.448 263.438 290.456 262.772 290.459C292.016 340.415 344.195 368.72 398.207 369.732C398.89 369.72 399.573 369.712 400.255 369.708C371.002 319.737 318.799 291.431 264.77 290.436ZM260.983 290.458C260.324 290.454 259.664 290.446 259.006 290.434C232.71 290.897 206.159 297.853 181.776 311.948C156.757 326.41 137.112 346.602 123.543 369.907C150.51 369.779 177.811 362.833 202.831 348.37C227.215 334.275 246.494 314.737 260.019 292.18C260.337 291.604 260.658 291.03 260.983 290.458ZM248.881 289.931C198.163 285.809 150.226 257.804 122.623 210.611C95.5701 258.212 93.644 318.434 122.708 369.354C136.361 345.924 156.118 325.625 181.276 311.082C202.69 298.703 225.765 291.797 248.881 289.931ZM260.885 292.681C261.227 292.11 261.566 291.537 261.9 290.963C290.598 341.24 289.082 400.589 262.996 447.9C262.647 448.482 262.301 449.066 261.96 449.652C233.256 399.362 234.78 339.997 260.885 292.681ZM123.605 370.907C150.722 370.769 178.173 363.779 203.331 349.236C224.746 336.857 242.247 320.308 255.401 301.207C233.66 347.215 234.003 402.732 261.124 450.204C206.373 449.892 153.225 421.505 123.605 370.907ZM121.815 370.906C94.6061 418.814 92.6863 479.418 121.956 530.652C66.9264 530.337 13.5156 501.662 -16.0137 450.579C-45.5431 399.496 -43.7357 338.901 -16.5443 291.058C13.245 341.991 66.7204 370.574 121.815 370.906ZM825.136 117.604C845.271 74.9824 846.454 24.2021 824.955 -20.7819C853.208 20.301 897.806 44.6191 944.792 48.4406C921.678 50.3082 898.606 57.2141 877.195 69.5912C855.786 81.9666 838.289 98.5103 825.136 117.604ZM958.713 47.9215C959.385 47.9256 960.057 47.9338 960.729 47.9463C987.012 47.4769 1013.55 40.5214 1037.92 26.4335C1063.1 11.8779 1082.83 -8.48014 1096.41 -31.9744C1066.86 -82.9182 1013.52 -111.51 958.571 -111.823C987.84 -60.5902 985.921 0.0136812 958.713 47.9215ZM1038.42 27.2993C1017.01 39.6764 993.936 46.5823 970.822 48.4499C1021.54 52.5747 1069.47 80.5796 1097.07 127.771C1124.13 80.1707 1126.05 19.9465 1096.99 -30.9739C1083.33 -7.5439 1063.58 12.756 1038.42 27.2993ZM960.731 48.9466C960.446 48.9517 960.161 48.956 959.876 48.9594C959.479 48.9644 959.082 48.9679 958.685 48.9699C987.925 100.193 985.999 160.775 958.799 208.668C959.472 208.672 960.145 208.68 960.818 208.693C987.1 208.223 1013.63 201.267 1038 187.18C1063.18 172.625 1082.92 152.267 1096.5 128.773C1067.31 78.4692 1014.95 49.9584 960.731 48.9466ZM956.957 48.9694C956.266 48.9654 955.576 48.957 954.885 48.9442C928.602 49.4136 902.066 56.369 877.695 70.457C853.337 84.5378 834.073 104.049 820.55 126.576C820.22 127.175 819.885 127.773 819.547 128.369C820.228 128.373 820.909 128.381 821.589 128.394C847.863 127.92 874.389 120.965 898.751 106.882C923.754 92.4285 943.388 72.2543 956.957 48.9694ZM685.792 59.6728C707.287 104.655 706.102 155.432 685.969 198.052C699.122 178.958 716.619 162.414 738.028 150.038C759.437 137.662 782.507 130.757 805.619 128.888C758.637 125.066 714.044 100.75 685.792 59.6728ZM819.525 129.418C820.213 129.415 820.901 129.407 821.589 129.394C875.595 130.411 927.767 158.715 957.008 208.667C956.328 208.67 955.647 208.678 954.966 208.69C900.952 207.681 848.77 179.376 819.525 129.418ZM815.69 129.392C816.37 129.405 817.051 129.413 817.733 129.417C817.395 130.013 817.06 130.61 816.73 131.209C803.207 153.736 783.943 173.247 759.585 187.328C735.223 201.411 708.698 208.366 682.425 208.84C682.036 208.833 681.648 208.827 681.259 208.823C680.966 208.819 680.673 208.817 680.38 208.815C680.718 208.22 681.052 207.623 681.382 207.024C694.905 184.497 714.169 164.985 738.528 150.904C762.89 136.821 789.416 129.866 815.69 129.392ZM831.661 128.898C854.772 127.029 877.842 120.123 899.251 107.747C924.41 93.204 944.167 72.9039 957.821 49.4736C986.884 100.394 984.958 160.617 957.904 208.218C930.305 161.028 882.374 133.024 831.661 128.898ZM546.803 278.498C566.936 235.878 568.121 185.102 546.626 140.12C574.878 181.196 619.471 205.512 666.452 209.335C643.341 211.203 620.271 218.109 598.862 230.485C577.453 242.86 559.956 259.404 546.803 278.498ZM682.425 209.841C681.736 209.853 681.046 209.861 680.357 209.864C709.602 259.823 761.785 288.128 815.799 289.137C816.481 289.125 817.162 289.117 817.843 289.114C788.602 239.162 736.431 210.858 682.425 209.841ZM678.566 209.864C677.884 209.859 677.202 209.851 676.521 209.838C650.248 210.313 623.723 217.268 599.362 231.35C575.004 245.431 555.74 264.942 542.217 287.469C541.887 288.069 541.552 288.667 541.214 289.263C541.89 289.267 542.566 289.275 543.242 289.288C569.521 288.816 596.051 281.861 620.418 267.775C644.776 253.694 664.04 234.183 677.563 211.656C677.893 211.057 678.228 210.459 678.566 209.864ZM760.085 188.194C738.676 200.57 715.606 207.476 692.495 209.344C739.476 213.167 784.069 237.482 812.321 278.559C790.826 233.577 792.011 182.8 812.144 140.181C798.991 159.275 781.494 175.818 760.085 188.194ZM818.654 129.92C818.306 130.518 817.954 131.114 817.597 131.708C791.53 179.013 790.021 238.345 818.712 288.611C818.783 288.489 818.854 288.367 818.925 288.246L819.044 288.043L819.104 287.942C819.171 287.828 819.238 287.714 819.305 287.601C819.459 287.342 819.613 287.083 819.768 286.825C845.836 239.519 847.345 180.187 818.654 129.92ZM407.459 220.566C428.954 265.549 427.77 316.327 407.635 358.946C420.789 339.852 438.286 323.308 459.695 310.932C481.105 298.556 504.176 291.65 527.288 289.782C480.306 285.96 435.711 261.644 407.459 220.566ZM541.191 290.312C541.875 290.308 542.559 290.3 543.243 290.288C597.254 291.3 649.432 319.605 678.675 369.56C678.388 369.562 678.101 369.564 677.813 369.567C677.413 369.571 677.012 369.577 676.611 369.584C622.604 368.568 570.432 340.263 541.191 290.312ZM537.368 290.286C538.045 290.298 538.722 290.307 539.4 290.311C539.2 290.663 539.001 291.015 538.804 291.369C538.734 291.494 538.664 291.62 538.594 291.747L538.513 291.892L538.396 292.104C524.873 314.63 505.61 334.141 481.252 348.222C456.885 362.307 430.354 369.263 404.075 369.734C403.687 369.727 403.299 369.721 402.911 369.717C402.623 369.713 402.335 369.711 402.047 369.709C402.385 369.115 402.718 368.519 403.048 367.921C416.571 345.392 435.835 325.88 460.195 311.798C484.561 297.713 511.09 290.758 537.368 290.286ZM553.325 289.791C576.437 287.923 599.508 281.017 620.918 268.641C642.327 256.266 659.824 239.722 672.977 220.628C652.843 263.248 651.659 314.025 673.155 359.008C644.902 317.929 600.307 293.613 553.325 289.791ZM678.43 212.155C678.786 211.561 679.139 210.965 679.487 210.367C708.182 260.641 706.669 319.984 680.589 367.293C680.502 367.439 680.414 367.585 680.327 367.731C680.184 367.972 680.041 368.213 679.899 368.454L679.812 368.602C679.723 368.754 679.634 368.906 679.545 369.059C650.854 318.793 652.362 259.461 678.43 212.155ZM268.464 439.4C288.603 396.775 289.787 345.989 268.285 301.001C296.537 342.087 341.136 366.406 388.123 370.228C365.01 372.096 341.939 379.002 320.529 391.379C299.117 403.756 281.618 420.303 268.464 439.4ZM404.073 370.734C403.39 370.747 402.707 370.754 402.024 370.758C431.267 420.714 483.446 449.019 537.458 450.031C538.142 450.019 538.826 450.011 539.509 450.007C510.265 400.051 458.086 371.745 404.073 370.734ZM400.233 370.757C399.558 370.753 398.882 370.745 398.207 370.732C371.928 371.203 345.396 378.159 321.029 392.245C296.658 406.333 277.387 425.857 263.863 448.399C263.53 449.003 263.192 449.605 262.852 450.205C289.801 450.068 317.082 443.122 342.085 428.669C366.445 414.587 385.709 395.075 399.232 372.546C399.562 371.948 399.896 371.351 400.233 370.757ZM481.752 349.087C460.342 361.464 437.271 368.37 414.158 370.238C461.141 374.06 505.736 398.376 533.989 439.455C512.493 394.472 513.677 343.694 533.811 301.074C520.658 320.168 503.161 336.712 481.752 349.087ZM540.321 290.814C539.972 291.413 539.62 292.009 539.263 292.603C513.196 339.909 511.689 399.24 540.379 449.505C540.725 448.911 541.075 448.32 541.429 447.731C567.503 400.423 569.015 341.085 540.321 290.814ZM122.709 371.356C95.557 419.129 93.7149 479.617 123.11 530.654C150.246 530.613 177.737 523.672 202.917 509.116C227.288 495.028 246.559 475.504 260.083 452.962C260.407 452.374 260.735 451.788 261.067 451.204C205.973 450.872 152.498 422.289 122.709 371.356ZM262.857 451.205C292.477 501.804 345.625 530.191 400.375 530.504C373.257 483.037 372.911 427.526 394.645 381.521C381.491 400.615 363.994 417.159 342.585 429.535C317.427 444.078 289.975 451.067 262.857 451.205ZM400.1 373.045C400.455 372.453 400.806 371.858 401.154 371.262C429.85 421.539 428.335 480.887 402.25 528.197C401.9 528.78 401.554 529.365 401.212 529.952C372.52 479.685 374.03 420.351 400.1 373.045ZM261.99 451.702C261.647 452.291 261.3 452.877 260.95 453.462C234.768 500.947 233.338 560.558 262.364 610.953C289.499 610.912 316.99 603.971 342.17 589.415C366.541 575.327 385.812 555.804 399.336 533.262C399.66 532.674 399.988 532.088 400.32 531.504C345.243 531.171 291.784 502.606 261.99 451.702ZM261.21 610.951C234.09 563.481 233.745 507.967 255.482 461.961C242.328 481.058 224.829 497.605 203.417 509.982C178.259 524.525 150.807 531.515 123.69 531.652C153.31 582.252 206.459 610.639 261.21 610.951ZM825.041 139.965C846.54 184.949 845.356 235.73 825.221 278.351C838.375 259.257 855.872 242.713 877.281 230.338C898.692 217.961 921.764 211.055 944.877 209.187C897.892 205.365 853.294 181.047 825.041 139.965ZM958.77 209.716C959.039 209.715 959.308 209.713 959.576 209.71C959.99 209.706 960.405 209.7 960.819 209.693C1015.03 210.706 1067.4 239.215 1096.58 289.517C1083 313.011 1063.27 333.369 1038.09 347.925C1013.09 362.378 985.805 369.324 958.856 369.461C986.082 321.561 988.02 260.957 958.77 209.716ZM954.966 209.691C955.658 209.703 956.35 209.712 957.042 209.716C943.474 233 923.839 253.174 898.837 267.627C874.467 281.714 847.933 288.669 821.651 289.139C820.979 289.127 820.306 289.119 819.633 289.115C819.97 288.521 820.304 287.925 820.633 287.327C834.156 264.798 853.421 245.285 877.781 231.203C902.151 217.116 928.685 210.161 954.966 209.691ZM970.909 209.196C994.022 207.329 1017.09 200.423 1038.51 188.046C1063.66 173.503 1083.42 153.203 1097.07 129.773C1126.14 180.693 1124.21 240.916 1097.16 288.515C1069.56 241.325 1021.62 213.321 970.909 209.196ZM899.337 268.492C877.926 280.869 854.855 287.775 831.742 289.643C882.456 293.768 930.389 321.771 957.99 368.962C985.043 321.362 986.969 261.139 957.906 210.22C944.253 233.649 924.496 253.949 899.337 268.492ZM821.651 290.14C820.97 290.152 820.29 290.16 819.609 290.163C849.228 340.76 902.375 369.146 957.123 369.46C927.883 319.472 875.684 291.149 821.651 290.14ZM817.819 290.162C817.146 290.158 816.473 290.15 815.801 290.137C789.519 290.608 762.985 297.563 738.615 311.65C714.247 325.736 694.979 345.256 681.455 367.794C681.129 368.385 680.8 368.974 680.466 369.561C680.76 369.563 681.054 369.565 681.348 369.569C681.735 369.573 682.121 369.579 682.507 369.586C708.781 369.113 735.308 362.157 759.671 348.074C784.031 333.992 803.295 314.48 816.819 291.951C816.999 291.623 817.181 291.297 817.363 290.97L817.435 290.842C817.496 290.735 817.557 290.627 817.617 290.519C817.685 290.4 817.752 290.281 817.819 290.162ZM805.71 289.634C758.726 285.812 714.13 261.496 685.876 220.416C707.374 265.401 706.189 316.182 686.052 358.803C699.206 339.707 716.704 323.161 738.115 310.784C759.526 298.408 782.597 291.502 805.71 289.634ZM546.711 300.864C568.207 345.848 567.023 396.627 546.887 439.247C560.041 420.152 577.539 403.607 598.949 391.231C620.358 378.855 643.428 371.949 666.539 370.081C619.557 366.258 574.963 341.942 546.711 300.864ZM680.442 370.61C681.131 370.607 681.819 370.599 682.508 370.587C736.533 371.603 788.721 399.925 817.957 449.907C763.209 449.594 710.062 421.207 680.442 370.61ZM676.61 370.584C677.291 370.597 677.972 370.605 678.653 370.61C678.319 371.197 677.989 371.787 677.663 372.378C664.139 394.916 644.871 414.435 620.504 428.521C596.137 442.606 569.606 449.562 543.327 450.033C542.652 450.021 541.976 450.012 541.3 450.008C541.635 449.418 541.967 448.825 542.295 448.231C555.818 425.697 575.085 406.181 599.449 392.097C623.811 378.014 650.337 371.058 676.61 370.584ZM692.581 370.09C715.692 368.221 738.762 361.316 760.171 348.94C781.58 336.564 799.077 320.02 812.231 300.926C792.097 343.544 790.912 394.319 812.405 439.3C784.152 398.226 739.56 373.912 692.581 370.09ZM817.685 292.451C818.041 291.858 818.392 291.263 818.74 290.666C847.802 341.585 845.877 401.806 818.825 449.405C790.105 399.128 791.607 339.772 817.685 292.451ZM678.692 372.606C678.638 372.697 678.584 372.787 678.53 372.877C652.442 420.201 650.935 479.567 679.659 529.851C706.71 482.252 708.635 422.031 679.573 371.113C679.358 371.482 679.142 371.849 678.925 372.216C678.848 372.346 678.77 372.476 678.692 372.606ZM621.004 429.387C599.594 441.763 576.523 448.669 553.411 450.537C600.393 454.359 644.988 478.674 673.242 519.753C651.745 474.768 652.93 423.989 673.067 381.368C659.913 400.464 642.415 417.01 621.004 429.387ZM543.329 451.034C542.645 451.046 541.96 451.054 541.277 451.057C570.896 501.653 624.042 530.04 678.79 530.354C649.551 480.368 597.357 452.046 543.329 451.034ZM539.487 451.056C538.811 451.052 538.134 451.044 537.459 451.031C511.18 451.503 484.649 458.458 460.282 472.544C435.911 486.632 416.64 506.155 403.116 528.697C402.783 529.302 402.446 529.904 402.104 530.504C429.054 530.367 456.335 523.421 481.338 508.968C505.702 494.884 524.969 475.368 538.492 452.834C538.82 452.24 539.151 451.647 539.487 451.056ZM527.375 450.528C480.39 446.706 435.793 422.388 407.54 381.305C429.04 426.292 427.855 477.076 407.717 519.699C420.871 500.602 438.37 484.055 459.782 471.678C481.192 459.302 504.263 452.396 527.375 450.528ZM402.109 531.504C431.73 582.103 484.878 610.489 539.629 610.801C512.511 563.334 512.165 507.822 533.9 461.817C520.746 480.912 503.248 497.458 481.838 509.834C456.679 524.377 429.227 531.367 402.109 531.504ZM539.359 453.333C539.712 452.744 540.062 452.153 540.407 451.56C569.469 502.478 567.544 562.699 540.493 610.298C511.771 560.017 513.275 500.656 539.359 453.333ZM401.242 532.002C400.899 532.591 400.553 533.177 400.202 533.761C374.021 581.246 372.591 640.856 401.616 691.25C428.751 691.21 456.243 684.268 481.423 669.712C506.425 655.26 526.059 635.086 539.628 611.802C484.532 611.489 431.047 582.922 401.242 532.002ZM400.462 691.248C373.343 643.779 372.998 588.266 394.735 542.26C381.581 561.357 364.082 577.904 342.67 590.281C317.512 604.824 290.061 611.814 262.944 611.952C292.564 662.549 345.712 690.935 400.462 691.248ZM825.13 300.716C848.475 349.57 845.068 405.258 819.69 449.908C846.639 449.771 873.919 442.825 898.922 428.372C923.924 413.919 943.559 393.745 957.127 370.461C905.77 370.169 855.813 345.328 825.13 300.716ZM958.856 370.461C985.976 370.324 1013.43 363.335 1038.59 348.79C1063.75 334.247 1083.5 313.947 1097.16 290.517C1140.83 367.022 1114.54 464.529 1038.17 508.671C1013.17 523.124 985.892 530.07 958.943 530.207C986.169 482.307 988.107 421.702 958.856 370.461ZM680.524 530.354C705.902 485.704 709.308 430.016 685.962 381.162C716.645 425.774 766.603 450.616 817.961 450.908C804.392 474.192 784.758 494.365 759.756 508.818C734.753 523.271 707.473 530.217 680.524 530.354ZM957.791 530.209C902.837 530.093 849.418 501.685 819.694 450.908C846.812 450.77 874.264 443.781 899.422 429.238C924.581 414.694 944.338 394.394 957.992 370.963C987.158 422.062 985.116 482.53 957.791 530.209ZM680.528 531.355C707.646 531.217 735.097 524.227 760.256 509.684C785.415 495.14 805.172 474.84 818.826 451.41C847.992 502.509 845.95 562.977 818.624 610.656C763.67 610.54 710.252 582.131 680.528 531.355ZM546.796 461.608C577.479 506.221 627.436 531.062 678.794 531.354C665.226 554.639 645.591 574.813 620.589 589.266C595.587 603.719 568.306 610.665 541.357 610.802C566.736 566.151 570.142 510.462 546.796 461.608ZM679.458 691.102C624.504 690.986 571.087 662.578 541.363 611.802C568.48 611.664 595.931 604.675 621.089 590.132C646.248 575.588 666.005 555.288 679.659 531.857C708.825 582.956 706.783 643.424 679.458 691.102ZM540.495 612.299C570.3 663.22 623.785 691.787 678.881 692.1C665.313 715.385 645.678 735.559 620.676 750.012C544.314 794.153 446.698 768.271 402.195 692.249C429.313 692.111 456.764 685.121 481.923 670.578C507.084 656.034 526.842 635.732 540.495 612.299ZM957.214 531.207C905.858 530.915 855.903 506.076 825.219 461.467C848.561 510.32 845.155 566.006 819.777 610.654C846.726 610.517 874.006 603.571 899.009 589.118C924.011 574.665 943.645 554.491 957.214 531.207ZM818.048 611.654C766.69 611.362 716.732 586.521 686.049 541.909C709.395 590.762 705.989 646.451 680.61 691.1C707.559 690.963 734.84 684.017 759.843 669.564C784.845 655.111 804.479 634.938 818.048 611.654Z" fill="#FDFDFD"/>
</svg>
