<svg width="805" height="632" viewBox="0 0 805 632" fill="none" xmlns="http://www.w3.org/2000/svg">
<path fill-rule="evenodd" clip-rule="evenodd" d="M86.561 -326.439C100.129 -349.724 119.764 -369.898 144.766 -384.351C221.129 -428.493 318.745 -402.61 363.247 -326.587C336.129 -326.45 308.677 -319.46 283.518 -304.917C258.358 -290.373 238.6 -270.071 224.947 -246.64C195.142 -297.56 141.657 -326.126 86.561 -326.439ZM85.406 -326.441C99.0688 -350.083 118.928 -370.57 144.266 -385.216C221.273 -429.731 319.76 -403.475 364.404 -326.589C419.881 -326.472 473.803 -297.7 503.654 -246.292C559.133 -246.177 613.058 -217.403 642.909 -165.993C698.487 -165.877 752.504 -137.001 782.322 -85.4185C812.14 -33.836 810.203 27.3843 782.567 75.6039C812.219 127.129 810.24 188.217 782.652 236.351C812.302 287.875 810.324 348.962 782.737 397.095C827.082 474.153 800.682 572.601 723.675 617.116C698.337 631.763 670.674 638.748 643.369 638.788C629.706 662.43 609.847 682.916 584.509 697.563C559.171 712.21 531.508 719.194 504.202 719.235C490.54 742.877 470.681 763.362 445.343 778.009C420.005 792.656 392.342 799.641 365.036 799.682C351.373 823.323 331.514 843.809 306.176 858.456C229.169 902.971 130.682 876.716 86.0389 799.83C30.5609 799.713 -23.3619 770.941 -53.2128 719.532C-108.692 719.417 -162.616 690.643 -192.467 639.233C-248.045 639.117 -302.062 610.241 -331.88 558.659C-361.697 507.076 -359.761 445.856 -332.125 397.637C-361.776 346.112 -359.798 285.024 -332.21 236.89C-361.861 185.366 -359.883 124.278 -332.295 76.1445C-376.64 -0.913349 -350.239 -99.361 -273.233 -143.876C-247.895 -158.522 -220.232 -165.507 -192.926 -165.548C-179.264 -189.19 -159.405 -209.675 -134.067 -224.322C-108.729 -238.969 -81.0655 -245.954 -53.7597 -245.994C-40.0969 -269.636 -20.2378 -290.122 5.1001 -304.769C30.4376 -319.416 58.1006 -326.401 85.406 -326.441ZM363.827 -325.589C336.691 -325.549 309.199 -318.607 284.018 -304.051C259.016 -289.598 239.382 -269.424 225.814 -246.14C280.91 -245.827 334.395 -217.261 364.199 -166.34C364.541 -166.927 364.887 -167.512 365.237 -168.095C391.421 -215.58 392.853 -275.192 363.827 -325.589ZM370.707 -176.598C392.444 -222.604 392.099 -278.117 364.981 -325.587C419.73 -325.273 472.877 -296.887 502.497 -246.29C475.381 -246.152 447.93 -239.163 422.772 -224.62C401.36 -212.243 383.861 -195.695 370.707 -176.598ZM365.122 -165.842C365.453 -166.425 365.78 -167.009 366.103 -167.595C379.627 -190.139 398.899 -209.665 423.272 -223.754C448.452 -238.309 475.942 -245.251 503.077 -245.292C532.107 -194.891 530.673 -135.273 504.483 -87.7855C504.136 -87.206 503.792 -86.6246 503.452 -86.0412C473.658 -136.945 420.199 -165.51 365.122 -165.842ZM363.196 -162.542C363.544 -163.123 363.889 -163.706 364.229 -164.29C392.926 -114.015 391.411 -54.6699 365.329 -7.35977C364.978 -6.77544 364.632 -6.18913 364.289 -5.60081C335.59 -55.8802 337.108 -115.231 363.196 -162.542ZM362.33 -163.043C362.662 -163.645 362.998 -164.245 363.338 -164.843C336.388 -164.706 309.107 -157.76 284.104 -143.307C259.746 -129.226 240.483 -109.716 226.96 -87.1894C226.629 -86.5894 226.295 -85.9912 225.956 -85.395C226.628 -85.3909 227.299 -85.3827 227.971 -85.3703C254.254 -85.8397 280.789 -92.7952 305.16 -106.883C329.533 -120.972 348.805 -140.498 362.33 -163.043ZM238.064 -84.8666C261.177 -86.7343 284.249 -93.6402 305.66 -106.017C327.072 -118.395 344.572 -134.942 357.726 -154.039C337.586 -111.414 336.402 -60.6276 357.905 -15.639C329.652 -56.7251 285.052 -81.0451 238.064 -84.8666ZM225.931 -84.3467C226.611 -84.3501 227.291 -84.3578 227.97 -84.3699C281.987 -83.3626 334.171 -55.057 363.418 -5.09692C362.731 -5.09344 362.043 -5.08551 361.356 -5.0732C307.348 -6.08816 255.173 -34.3931 225.931 -84.3467ZM222.127 -84.3723C222.798 -84.3598 223.47 -84.3515 224.142 -84.3475C223.804 -83.7511 223.469 -83.1528 223.138 -82.5525C209.615 -60.0261 190.352 -40.5159 165.994 -26.4355C141.633 -12.3534 115.109 -5.39786 88.8366 -4.92334C88.1546 -4.93612 87.4722 -4.9446 86.7896 -4.94871C87.1276 -5.54385 87.4617 -6.14099 87.7919 -6.74001C101.315 -29.2675 120.579 -48.7786 144.937 -62.8595C169.308 -76.9473 195.844 -83.9028 222.127 -84.3723ZM222.127 -85.3726C222.806 -85.3846 223.486 -85.3924 224.165 -85.3959C194.546 -135.992 141.4 -164.378 86.6522 -164.693C115.893 -114.703 168.093 -86.3804 222.127 -85.3726ZM92.1989 -154.094C120.452 -113.014 165.049 -88.6971 212.034 -84.8759C188.92 -83.0083 165.848 -76.1023 144.437 -63.7253C123.028 -51.3498 105.531 -34.8059 92.378 -15.712C112.512 -58.3325 113.696 -109.111 92.1989 -154.094ZM79.3946 -176.245C48.7116 -220.858 -1.24638 -245.7 -52.6047 -245.992C-39.0362 -269.276 -19.4019 -289.45 5.60056 -303.903C30.6026 -318.356 57.883 -325.302 84.8317 -325.439C59.453 -280.789 56.0475 -225.099 79.3946 -176.245ZM85.7832 -166.197C56.6171 -217.295 58.6591 -277.763 85.9843 -325.441C140.938 -325.326 194.356 -296.917 224.081 -246.141C196.963 -246.003 169.511 -239.014 144.352 -224.47C119.193 -209.927 99.4363 -189.627 85.7832 -166.197ZM-272.733 -143.01C-349.094 -98.8681 -375.383 -1.36176 -331.716 75.1432C-318.063 51.7136 -298.306 31.414 -273.148 16.8709C-247.987 2.32656 -220.534 -4.66283 -193.414 -4.7997C-222.665 -56.0405 -220.727 -116.645 -193.501 -164.546C-220.45 -164.409 -247.73 -157.463 -272.733 -143.01ZM-133.566 -223.456C-108.564 -237.909 -81.2831 -244.855 -54.334 -244.992C-79.7124 -200.343 -83.1184 -144.654 -59.7732 -95.8009C-90.4565 -140.413 -140.414 -165.254 -191.771 -165.546C-178.203 -188.83 -158.569 -209.003 -133.566 -223.456ZM-53.1814 -244.994C-80.5068 -197.316 -82.5489 -136.849 -53.3835 -85.7506C-39.7303 -109.18 -19.9734 -129.48 5.18503 -144.023C30.344 -158.567 57.7957 -165.556 84.9134 -165.694C55.1896 -216.47 1.77198 -244.878 -53.1814 -244.994ZM-46.7878 64.734C-26.6544 22.1148 -25.47 -28.6622 -46.9653 -73.6444C-18.7132 -32.5674 25.8795 -8.25209 72.8602 -4.42902C49.7492 -2.56047 26.68 4.34526 5.27095 16.721C-16.1375 29.0964 -33.6346 45.6402 -46.7878 64.734ZM-52.5144 -84.2466C-23.2797 -34.2666 28.9057 -5.94451 82.9275 -4.92574C83.3885 -4.93402 83.8494 -4.94033 84.3103 -4.94462C84.5398 -4.94676 84.7693 -4.9484 84.9988 -4.94959C55.3797 -55.5459 2.23383 -83.9323 -52.5144 -84.2466ZM87.9497 -3.90954C87.555 -3.90462 87.1605 -3.90118 86.766 -3.89917C116.011 46.0591 168.193 74.3643 222.207 75.3736C222.889 75.3615 223.57 75.3537 224.252 75.3502C195.012 25.3996 142.842 -2.90492 88.8369 -3.92301C88.5411 -3.91771 88.2454 -3.91323 87.9497 -3.90954ZM84.9752 -3.90002C84.2926 -3.90416 83.6102 -3.9126 82.9281 -3.92539C56.6558 -3.45077 30.1321 3.50476 5.77141 17.5868C-18.5867 31.6673 -37.85 51.1777 -51.3729 73.7042C-51.7036 74.3043 -52.0383 74.9024 -52.3769 75.4985C-51.6963 75.5026 -51.016 75.511 -50.336 75.5238C-24.0616 75.0501 2.46436 68.0946 26.827 54.0115C51.186 39.9305 70.4497 20.4193 83.9727 -2.10827C84.303 -2.70746 84.6371 -3.30471 84.9752 -3.90002ZM166.495 -25.5698C145.085 -13.194 122.016 -6.2882 98.9049 -4.41967C145.886 -0.596606 190.479 23.7187 218.731 64.7957C197.235 19.8136 198.42 -30.9633 218.553 -73.5825C205.4 -54.4888 187.903 -37.9451 166.495 -25.5698ZM225.035 -85.8982C225.384 -86.4973 225.737 -87.0943 226.094 -87.6892C252.168 -135.01 253.669 -194.363 224.949 -244.639C197.897 -197.039 195.972 -136.817 225.035 -85.8982ZM225.814 -245.14C252.932 -197.674 253.278 -142.164 231.545 -96.1596C244.698 -115.253 262.196 -131.797 283.604 -144.172C308.763 -158.716 336.214 -165.705 363.332 -165.843C333.712 -216.441 280.564 -244.827 225.814 -245.14ZM225.063 -83.8423C224.714 -83.244 224.362 -82.6477 224.005 -82.0534C197.938 -34.748 196.431 24.5829 225.121 74.8479C225.462 74.2635 225.806 73.6812 226.154 73.1008C252.244 25.7889 253.761 -33.5622 225.063 -83.8423ZM-192.348 -164.548C-219.674 -116.869 -221.716 -56.4017 -192.55 -5.30299C-178.897 -28.7332 -159.14 -49.0334 -133.981 -63.5767C-108.822 -78.1202 -81.3703 -85.1096 -54.2525 -85.2473C-83.9765 -136.024 -137.394 -164.432 -192.348 -164.548ZM-192.548 -3.30105C-219.602 44.299 -221.528 104.522 -192.465 155.441C-178.812 132.011 -159.055 111.711 -133.896 97.1683C-112.487 84.7923 -89.4167 77.8865 -66.3053 76.0181C-117.018 71.8918 -164.949 43.888 -192.548 -3.30105ZM-56.233 75.5214C-110.257 74.5049 -162.445 46.1827 -191.681 -3.79896C-136.933 -3.48453 -83.7876 24.9017 -54.1684 75.4977C-54.8564 75.5012 -55.5446 75.5091 -56.233 75.5214ZM-52.401 76.5479C-51.7127 76.5444 -51.0241 76.5365 -50.3354 76.5241C3.67116 77.5405 55.8431 105.845 85.0844 155.797C84.3963 155.8 83.7081 155.808 83.0196 155.82C29.0128 154.804 -23.1596 126.5 -52.401 76.5479ZM-56.233 76.5218C-55.5527 76.5345 -54.8721 76.5429 -54.1912 76.547C-54.5296 77.1427 -54.864 77.7405 -55.1945 78.3401C-68.7175 100.867 -87.9808 120.377 -112.339 134.458C-136.713 148.548 -163.253 155.503 -189.539 155.971C-190.226 155.958 -190.914 155.95 -191.601 155.946C-178.033 132.661 -158.398 112.487 -133.396 98.034C-109.033 83.951 -82.5072 76.9955 -56.233 76.5218ZM-40.2632 76.0274C-17.1518 74.1591 5.91798 67.2533 27.3275 54.8773C48.736 42.5018 66.2332 25.9579 79.3864 6.86408C59.2527 49.4835 58.0683 100.261 79.5638 145.243C51.3115 104.166 6.71798 79.8501 -40.2632 76.0274ZM84.8395 -1.60881C85.1958 -2.20263 85.5482 -2.7985 85.8966 -3.39644C114.593 46.8797 113.078 106.225 86.9946 153.536C86.644 154.12 86.2973 154.707 85.9545 155.295C57.2633 105.029 58.7715 45.697 84.8395 -1.60881ZM85.7826 -164.191C114.502 -113.915 113.001 -54.5603 86.9252 -7.23955C86.5689 -6.64584 86.2166 -6.05006 85.8682 -5.45224C56.8058 -56.3704 58.7313 -116.591 85.7826 -164.191ZM-53.2985 74.9953C-82.3615 24.0765 -80.4357 -36.1452 -53.3837 -83.745C-24.6644 -33.4695 -26.1647 25.8846 -52.24 73.2053C-52.5968 73.7999 -52.9496 74.3965 -53.2985 74.9953ZM-53.2702 77.0514C-53.6188 77.6495 -53.9713 78.2455 -54.3277 78.8395C-80.3945 126.145 -81.9023 185.476 -53.2116 235.741C-52.8696 235.154 -52.5239 234.57 -52.1743 233.987C-26.0891 186.676 -24.5733 127.329 -53.2702 77.0514ZM-111.839 135.324C-133.251 147.701 -156.324 154.607 -179.438 156.475C-132.451 160.295 -87.8516 184.614 -59.5979 225.698C-81.0978 180.714 -79.9147 129.933 -59.7798 87.3109C-72.933 106.405 -90.4302 122.948 -111.839 135.324ZM-189.538 156.971C-190.214 156.983 -190.891 156.991 -191.567 156.994C-162.322 206.953 -110.139 235.258 -56.124 236.267C-55.4434 236.255 -54.763 236.247 -54.0829 236.244C-83.3306 186.281 -135.519 157.976 -189.538 156.971ZM-193.358 156.993C-194.026 156.989 -194.694 156.981 -195.362 156.969C-221.649 157.437 -248.188 164.392 -272.563 178.482C-297.743 193.037 -317.478 213.395 -331.056 236.889C-301.874 287.189 -249.511 315.699 -195.301 316.715C-194.615 316.702 -193.929 316.694 -193.243 316.691C-222.484 265.468 -220.557 204.886 -193.358 156.993ZM-273.063 177.616C-251.651 165.238 -228.578 158.332 -205.464 156.465C-256.18 152.341 -304.114 124.337 -331.715 77.1451C-358.769 124.745 -360.695 184.969 -331.632 235.889C-317.979 212.459 -298.222 192.159 -273.063 177.616ZM-331.141 76.1437C-301.955 126.45 -249.581 154.96 -195.364 155.969C-194.685 155.957 -194.007 155.949 -193.328 155.945C-222.579 104.705 -220.641 44.1008 -193.415 -3.79952C-220.364 -3.6623 -247.645 3.28377 -272.648 17.7367C-297.827 32.2921 -317.563 52.6498 -331.141 76.1437ZM-133.481 -62.711C-158.483 -48.2579 -178.118 -28.0839 -191.686 -4.79916C-140.328 -4.50736 -90.3706 20.3343 -59.6874 64.9466C-83.0337 16.0927 -79.6277 -39.5967 -54.2487 -84.2472C-81.1976 -84.1099 -108.478 -77.1638 -133.481 -62.711ZM224.084 -245.141C197.135 -245.003 169.855 -238.057 144.853 -223.604C119.85 -209.151 100.216 -188.978 86.6472 -165.693C138.005 -165.401 187.962 -140.56 218.645 -95.9485C195.3 -144.802 198.706 -200.491 224.084 -245.141ZM231.453 -73.7921C252.95 -28.8064 251.763 21.975 231.625 64.5963C244.779 45.4984 262.279 28.9512 283.691 16.5737C305.1 4.19772 328.17 -2.70804 351.281 -4.57644C304.299 -8.39871 259.705 -32.7143 231.453 -73.7921ZM365.187 -4.04686C365.874 -4.05038 366.561 -4.05826 367.248 -4.07055C421.255 -3.05553 473.429 25.2489 502.671 75.2017C502.001 75.2051 501.33 75.2127 500.659 75.2245C446.634 74.2257 394.438 45.92 365.187 -4.04686ZM361.356 -4.07289C362.036 -4.06021 362.715 -4.05176 363.395 -4.04768C363.062 -3.46161 362.733 -2.87368 362.408 -2.28385C348.884 20.2553 329.615 39.7766 305.246 53.8633C280.877 67.9499 254.344 74.9053 228.064 75.3759C227.39 75.3634 226.715 75.3551 226.041 75.351C226.105 75.2392 226.168 75.1272 226.231 75.0153C226.325 74.8491 226.419 74.6827 226.512 74.5163C226.682 74.2116 226.852 73.9064 227.021 73.6007C240.545 51.0556 259.817 31.5291 284.191 17.4394C308.555 3.35597 335.081 -3.59955 361.356 -4.07289ZM377.322 -4.56732C400.433 -6.43572 423.503 -13.3415 444.912 -25.7174C466.325 -38.0954 483.825 -54.6435 496.979 -73.7422C476.84 -31.1182 475.654 19.6669 497.155 64.6549C468.903 23.5731 424.306 -0.744851 377.322 -4.56732ZM501.588 -82.753C488.063 -60.2043 468.789 -40.6746 444.412 -26.5832C420.049 -12.4997 393.522 -5.54421 367.247 -5.07089C366.976 -5.07597 366.705 -5.08033 366.435 -5.084C366.285 -5.08606 366.136 -5.08787 365.987 -5.08949C365.831 -5.0912 365.675 -5.09266 365.518 -5.0939C365.415 -5.09475 365.312 -5.09546 365.208 -5.09608C365.541 -5.68216 365.87 -6.27008 366.195 -6.85991C379.719 -29.399 398.989 -48.9203 423.357 -63.007C448.36 -77.46 475.641 -84.4061 502.59 -84.5432C502.521 -84.4219 502.452 -84.3006 502.384 -84.1791C502.274 -83.9847 502.165 -83.7901 502.056 -83.5953C501.998 -83.4928 501.941 -83.3902 501.884 -83.2875C501.785 -83.1096 501.686 -82.9314 501.588 -82.753ZM504.374 -85.5425C504.703 -86.1216 505.028 -86.7026 505.35 -87.2854C518.874 -109.834 538.148 -129.364 562.525 -143.455C587.705 -158.011 615.196 -164.952 642.332 -164.993C671.727 -113.956 669.885 -53.4676 642.733 -5.69442C612.943 -56.6278 559.468 -85.2105 504.374 -85.5425ZM502.453 -82.2515C502.8 -82.8296 503.143 -83.4097 503.482 -83.9917C532.187 -33.6995 530.662 25.6684 504.554 72.986C504.37 73.2931 504.187 73.6007 504.005 73.9088C503.929 74.0376 503.853 74.1664 503.778 74.2954L503.655 74.5049L503.542 74.6987C474.842 24.4163 476.36 -34.9382 502.453 -82.2515ZM509.958 -96.2963C531.696 -142.304 531.352 -197.819 504.231 -245.29C558.983 -244.978 612.132 -216.591 641.753 -165.991C614.635 -165.854 587.183 -158.864 562.025 -144.321C540.612 -131.943 523.112 -115.395 509.958 -96.2963ZM5.68549 -143.157C30.6879 -157.61 57.9689 -164.556 84.9179 -164.694C59.5396 -120.044 56.1336 -64.3554 79.4788 -15.5021C48.7955 -60.1138 -1.16181 -84.9551 -52.5194 -85.2468C-38.951 -108.531 -19.3167 -128.705 5.68549 -143.157ZM92.4605 145.04C112.597 102.42 113.783 51.6392 92.2866 6.65439C120.54 47.7333 165.136 72.049 212.119 75.8703C189.006 77.7382 165.935 84.6441 144.524 97.0208C123.113 109.398 105.614 125.944 92.4605 145.04ZM228.063 76.3763C227.381 76.3884 226.7 76.3962 226.019 76.3997C255.269 126.366 307.463 154.672 361.487 155.672C362.16 155.66 362.832 155.652 363.504 155.649C334.259 105.691 282.077 77.3855 228.063 76.3763ZM224.229 76.3988C223.555 76.3947 222.881 76.3864 222.207 76.3739C195.926 76.8444 169.393 83.7999 145.024 97.8866C120.655 111.974 101.385 131.495 87.8614 154.035L87.7413 154.253L87.5956 154.515C87.549 154.599 87.5024 154.683 87.4556 154.766C87.2634 155.111 87.0699 155.454 86.8751 155.797C87.5561 155.801 88.2368 155.81 88.9172 155.823C115.191 155.349 141.717 148.393 166.079 134.31C190.453 120.221 209.725 100.694 223.249 78.1495C223.572 77.5641 223.899 76.9805 224.229 76.3988ZM305.746 54.729C284.336 67.1058 261.264 74.0116 238.152 75.8795C285.135 79.7009 329.73 104.017 357.984 145.095C336.487 100.111 337.673 49.3306 357.81 6.70989C344.656 25.8063 327.157 42.3523 305.746 54.729ZM365.066 -164.842C392.185 -117.373 392.53 -61.8598 370.794 -15.8535C383.947 -34.9499 401.446 -51.496 422.857 -63.8727C448.016 -78.4161 475.467 -85.4055 502.585 -85.5433C472.965 -136.142 419.816 -164.53 365.066 -164.842ZM364.315 -3.54398C363.972 -2.9554 363.625 -2.36878 363.275 -1.78417C337.192 45.5258 335.678 104.871 364.374 155.146C364.712 154.565 365.055 153.986 365.401 153.408C391.495 106.095 393.015 46.7393 364.315 -3.54398ZM-46.8812 87.1004C-25.3837 132.086 -26.5693 182.867 -46.7065 225.488C-33.5527 206.391 -16.0536 189.844 5.35786 177.467C26.767 165.091 49.8365 158.186 72.9476 156.317C25.9656 152.495 -18.6286 128.179 -46.8812 87.1004ZM86.8515 156.847C87.5398 156.843 88.2282 156.835 88.9169 156.823C142.924 157.839 195.097 186.143 224.339 236.096C223.663 236.099 222.986 236.107 222.31 236.119C168.29 235.115 116.1 206.81 86.8515 156.847ZM83.0199 156.821C83.7004 156.833 84.3812 156.842 85.0622 156.846C84.8652 157.193 84.6695 157.54 84.475 157.889C84.3414 158.128 84.2084 158.368 84.076 158.608C70.5522 181.148 51.2824 200.67 26.913 214.757C2.54328 228.844 -23.991 235.799 -50.2728 236.269C-50.9455 236.257 -51.6185 236.249 -52.2917 236.245C-51.9599 235.661 -51.632 235.074 -51.3077 234.487C-37.7837 211.945 -18.5129 192.421 5.85832 178.333C30.2205 164.25 56.746 157.294 83.0199 156.821ZM98.9897 156.326C122.101 154.458 145.17 147.552 166.579 135.176C187.991 122.799 205.491 106.251 218.645 87.1536C198.507 129.775 197.321 180.556 218.818 225.542C190.565 184.464 145.971 160.149 98.9897 156.326ZM224.116 78.6484C224.464 78.0682 224.808 77.486 225.149 76.9019C253.851 127.189 252.329 186.55 226.229 233.865C225.885 234.439 225.544 235.015 225.208 235.593C196.509 185.312 198.027 125.961 224.116 78.6484ZM85.9821 157.35C85.6395 157.937 85.293 158.523 84.9428 159.107C58.8593 206.418 57.3442 265.764 86.0407 316.04C86.0941 315.948 86.1476 315.857 86.2011 315.765C86.2828 315.626 86.3647 315.486 86.4469 315.347C86.6515 315 86.8576 314.653 87.065 314.307C113.162 266.993 114.683 207.635 85.9821 157.35ZM27.4134 215.623C6.00246 227.999 -17.0691 234.905 -40.1821 236.773C6.80116 240.594 51.397 264.91 79.6506 305.989C58.154 261.004 59.3398 210.224 79.4767 167.603C66.323 186.7 48.8243 203.246 27.4134 215.623ZM-50.2725 237.27C-50.9533 237.282 -51.634 237.29 -52.3145 237.293C-23.0611 287.265 29.1415 315.571 83.1713 316.566C83.3039 316.563 83.4366 316.561 83.5692 316.559C83.7167 316.557 83.8641 316.555 84.0115 316.553C84.3982 316.548 84.7849 316.545 85.1716 316.543C55.926 266.584 3.7427 238.278 -50.2725 237.27ZM-54.1038 237.292C-54.7769 237.288 -55.4498 237.28 -56.1224 237.267C-82.4043 237.737 -108.939 244.693 -133.309 258.78C-158.311 273.233 -177.946 293.407 -191.514 316.692C-190.819 316.696 -190.125 316.704 -189.43 316.717C-163.152 316.245 -136.621 309.29 -112.254 295.204C-87.8827 281.116 -68.6118 261.592 -55.0878 239.05C-54.7636 238.462 -54.4356 237.876 -54.1038 237.292ZM-66.2137 236.764C-116.929 232.639 -164.863 204.635 -192.463 157.443C-219.517 205.044 -221.443 265.268 -192.379 316.189C-178.725 292.758 -158.968 272.458 -133.809 257.914C-112.398 245.538 -89.3267 238.632 -66.2137 236.764ZM-54.2214 239.55C-53.8721 238.968 -53.5266 238.384 -53.1849 237.797C-24.4807 288.088 -26.0051 347.453 -52.1102 394.77C-52.4521 395.34 -52.7904 395.913 -53.125 396.487C-81.8224 346.209 -80.3067 286.861 -54.2214 239.55ZM-179.347 317.221C-156.235 315.353 -133.164 308.447 -111.754 296.07C-90.3421 283.693 -72.8429 267.146 -59.6891 248.049C-79.8281 290.674 -81.0123 341.46 -59.5094 386.448C-87.762 345.363 -132.361 321.043 -179.347 317.221ZM-191.481 317.741C-190.798 317.737 -190.114 317.729 -189.429 317.717C-135.418 318.729 -83.24 347.034 -53.9964 396.99C-54.6628 396.994 -55.3294 397.001 -55.9962 397.013C-110.026 396.018 -162.228 367.712 -191.481 317.741ZM-195.301 317.715C-194.625 317.728 -193.948 317.736 -193.271 317.74C-220.479 365.648 -222.398 426.252 -193.129 477.485C-248.078 477.172 -301.414 448.58 -330.97 397.636C-317.392 374.141 -297.657 353.783 -272.477 339.227C-248.11 325.142 -221.579 318.187 -195.301 317.715ZM-205.383 317.211C-228.496 319.079 -251.567 325.985 -272.977 338.362C-298.136 352.905 -317.893 373.205 -331.546 396.635C-360.61 345.715 -358.684 285.491 -331.63 237.891C-304.03 285.081 -256.098 313.086 -205.383 317.211ZM370.876 144.897C391.017 102.271 392.202 51.4828 370.699 6.49321C398.953 47.581 443.555 71.9013 490.545 75.7212C467.43 77.5882 444.356 84.4942 422.943 96.8723C401.53 109.25 384.03 125.798 370.876 144.897ZM506.449 76.2272C505.779 76.239 505.109 76.2466 504.439 76.25C533.685 126.21 585.869 154.515 639.885 155.523C640.564 155.511 641.244 155.503 641.923 155.5C612.672 105.532 560.475 77.2256 506.449 76.2272ZM502.65 76.2492C501.986 76.2452 501.323 76.2371 500.66 76.2249C474.368 76.69 447.823 83.6454 423.443 97.7381C399.066 111.83 379.792 131.36 366.267 153.909C365.946 154.491 365.621 155.071 365.292 155.65C365.957 155.654 366.621 155.662 367.286 155.674C393.576 155.208 420.12 148.253 444.498 134.161C468.884 120.064 488.164 100.525 501.689 77.9658C501.75 77.8555 501.811 77.7452 501.872 77.635L502.002 77.4008C502.217 77.0161 502.432 76.6322 502.65 76.2492ZM584.166 54.5794C562.753 66.9576 539.679 73.8636 516.564 75.7305C567.281 79.8534 615.217 107.858 642.819 155.051C669.872 107.45 671.798 47.2272 642.734 -3.69255C629.081 19.7369 609.324 40.0364 584.166 54.5794ZM583.666 53.7136C608.685 39.2509 628.329 19.0595 641.899 -4.24503C614.932 -4.117 587.631 2.82853 562.611 17.2913C538.225 31.3881 518.945 50.9272 505.42 73.4867C505.328 73.6544 505.235 73.8219 505.142 73.9893L505.041 74.1703C504.953 74.3279 504.865 74.4853 504.776 74.6426C504.671 74.8295 504.565 75.0161 504.459 75.2026C504.832 75.2049 505.205 75.2084 505.577 75.2132C505.868 75.217 506.159 75.2215 506.449 75.2269C532.741 74.7618 559.287 67.8064 583.666 53.7136ZM781.986 74.6032C752.197 23.67 698.721 -4.91238 643.627 -5.24412C670.836 -53.1521 672.756 -113.757 643.486 -164.991C698.516 -164.677 751.927 -136.001 781.456 -84.918C810.985 -33.8345 809.178 26.7604 781.986 74.6032ZM231.539 86.9522C253.036 131.94 251.849 182.723 231.709 225.346C244.863 206.246 262.364 189.698 283.777 177.32C305.189 164.942 328.263 158.036 351.377 156.169C304.392 152.349 259.793 128.033 231.539 86.9522ZM365.27 156.697C365.943 156.694 366.615 156.686 367.288 156.675C421.312 157.674 473.506 185.98 502.757 235.947C502.068 235.95 501.38 235.958 500.691 235.971C446.684 234.954 394.512 206.65 365.27 156.697ZM361.489 156.672C362.153 156.684 362.817 156.693 363.482 156.697C363.153 157.275 362.828 157.856 362.507 158.438C348.982 180.987 329.708 200.517 305.331 214.608C280.957 228.698 254.417 235.653 228.131 236.121C227.463 236.109 226.795 236.101 226.126 236.097C226.453 235.522 226.775 234.945 227.095 234.367C240.619 211.813 259.896 192.279 284.277 178.185C308.655 164.094 335.198 157.138 361.489 156.672ZM377.397 156.178C400.512 154.311 423.586 147.405 444.998 135.027C466.413 122.648 483.914 106.098 497.069 86.9971C476.926 129.622 475.739 180.41 497.241 225.4C468.986 184.316 424.385 159.997 377.397 156.178ZM510.041 64.455C531.782 18.4472 531.439 -37.0702 504.319 -84.5426C559.069 -84.2298 612.217 -55.8431 641.837 -5.24504C614.72 -5.10695 587.269 1.88256 562.111 16.4256C540.696 28.8045 523.195 45.3542 510.041 64.455ZM502.555 78.4659C502.896 77.8967 503.234 77.3256 503.568 76.7526C532.258 127.018 530.751 186.348 504.684 233.654C504.328 234.248 503.975 234.844 503.626 235.443C474.922 185.15 476.448 125.783 502.555 78.4659ZM92.5426 305.792C112.682 263.169 113.869 212.386 92.3716 167.399C120.626 208.479 165.223 232.795 212.208 236.616C189.094 238.483 166.022 245.389 144.61 257.766C123.197 270.144 105.697 286.693 92.5426 305.792ZM228.13 237.122C227.455 237.133 226.78 237.141 226.105 237.145C255.345 287.095 307.516 315.4 361.521 316.417C361.818 316.412 362.114 316.407 362.411 316.403C362.804 316.399 363.197 316.395 363.589 316.393C334.341 266.43 282.15 238.125 228.13 237.122ZM224.316 237.144C223.885 237.141 223.455 237.137 223.025 237.131C222.787 237.127 222.549 237.124 222.311 237.119C196.025 237.587 169.485 244.542 145.11 258.632C120.731 272.725 101.456 292.257 87.9309 314.808C87.6107 315.389 87.2868 315.967 86.9592 316.544C87.6184 316.548 88.2773 316.556 88.9361 316.568C115.232 316.105 141.782 309.149 166.165 295.054C190.546 280.961 209.823 261.427 223.348 238.873C223.456 238.676 223.565 238.479 223.675 238.282C223.887 237.902 224.101 237.523 224.316 237.144ZM305.831 215.474C284.42 227.851 261.347 234.757 238.233 236.625C285.218 240.445 329.816 264.761 358.071 305.842C336.572 260.855 337.759 210.072 357.898 167.45C344.744 186.548 327.244 203.096 305.831 215.474ZM364.401 157.2C364.062 157.781 363.72 158.36 363.374 158.937C337.279 206.251 335.759 265.607 364.459 315.89C364.808 315.292 365.16 314.696 365.516 314.102C391.584 266.797 393.092 207.465 364.401 157.2ZM224.214 239.373C224.558 238.799 224.898 238.224 225.235 237.646C253.926 287.911 252.418 347.242 226.351 394.548C225.994 395.142 225.642 395.739 225.293 396.337C196.59 346.05 198.113 286.688 224.214 239.373ZM99.0607 317.072C122.177 315.205 145.252 308.299 166.665 295.92C188.079 283.542 205.579 266.993 218.733 247.894C198.593 290.517 197.406 341.301 218.904 386.289C190.649 345.207 146.048 320.89 99.0607 317.072ZM86.9373 317.591C87.6039 317.587 88.2706 317.58 88.9375 317.568C142.967 318.562 195.17 346.869 224.424 396.841C223.739 396.844 223.054 396.852 222.369 396.864C168.358 395.852 116.18 367.547 86.9373 317.591ZM83.1727 317.566C83.4718 317.571 83.771 317.576 84.0703 317.58C84.3106 317.583 84.551 317.585 84.7914 317.587C84.9106 317.588 85.0298 317.589 85.149 317.59C84.8214 318.167 84.4974 318.746 84.1771 319.326C70.6524 341.877 51.377 361.409 26.9979 375.502C2.615 389.597 -23.9349 396.552 -50.2307 397.015C-50.8894 397.003 -51.5483 396.995 -52.2075 396.991C-51.8827 396.419 -51.5614 395.845 -51.2438 395.27C-37.7187 372.712 -18.4402 353.175 5.94422 339.079C30.3271 324.985 56.8769 318.029 83.1727 317.566ZM-46.7999 247.838C-18.5446 288.925 26.0584 313.244 73.0484 317.062C49.9323 318.929 26.8575 325.835 5.44375 338.214C-15.9705 350.592 -33.4714 367.142 -46.6258 386.242C-26.4833 343.617 -25.2971 292.828 -46.7999 247.838ZM86.0677 318.093C85.73 318.673 85.3885 319.251 85.0434 319.826C58.946 367.141 57.4248 426.499 86.1261 476.784C86.3175 476.456 86.5101 476.128 86.7039 475.801C86.8621 475.534 87.0211 475.267 87.1808 475.001C113.251 427.694 114.76 368.361 86.0677 318.093ZM27.4984 376.368C6.08445 388.746 -16.9905 395.652 -40.1067 397.519C6.88272 401.338 51.4852 425.656 79.7404 466.743C58.2388 421.753 59.4247 370.967 79.5657 328.342C66.4115 347.441 48.9114 363.989 27.4984 376.368ZM-50.2303 398.016C-50.8964 398.027 -51.5624 398.035 -52.2282 398.038C-22.9842 447.995 29.1949 476.3 83.2069 477.311C83.8899 477.299 84.5726 477.291 85.2552 477.287C56.0017 427.316 3.79932 399.01 -50.2303 398.016ZM-54.017 398.037C-54.6764 398.033 -55.3355 398.025 -55.9944 398.013C-82.2904 398.476 -108.841 405.432 -133.224 419.527C-158.243 433.99 -177.888 454.181 -191.457 477.486C-164.49 477.358 -137.189 470.412 -112.169 455.95C-87.7847 441.854 -68.5062 422.317 -54.9811 399.759C-54.6633 399.183 -54.342 398.609 -54.017 398.037ZM-66.1191 397.51C-116.837 393.388 -164.774 365.383 -192.377 318.19C-219.43 365.791 -221.356 426.014 -192.292 476.933C-178.639 453.504 -158.882 433.204 -133.724 418.661C-112.31 406.282 -89.2353 399.376 -66.1191 397.51ZM-54.115 400.26C-53.7729 399.689 -53.4343 399.116 -53.0996 398.542C-24.4021 448.82 -25.9182 508.168 -52.004 555.479C-52.3532 556.061 -52.6986 556.645 -53.0402 557.231C-81.744 506.941 -80.2197 447.576 -54.115 400.26ZM-191.395 478.486C-164.278 478.348 -136.827 471.358 -111.669 456.815C-90.2543 444.436 -72.7534 427.887 -59.599 408.787C-81.3397 454.794 -80.9968 510.311 -53.8764 557.784C-108.627 557.471 -161.775 529.084 -191.395 478.486ZM-193.185 478.485C-220.394 526.393 -222.314 586.997 -193.044 638.231C-248.074 637.917 -301.484 609.241 -331.014 558.158C-360.543 507.075 -358.736 446.48 -331.544 398.637C-301.755 449.571 -248.28 478.153 -193.185 478.485ZM510.136 225.183C530.271 182.561 531.454 131.781 509.955 86.7972C538.208 127.88 582.806 152.198 629.792 156.02C606.678 157.887 583.606 164.793 562.195 177.17C540.786 189.546 523.289 206.089 510.136 225.183ZM643.713 155.501C644.385 155.505 645.057 155.513 645.729 155.525C672.012 155.056 698.548 148.101 722.919 134.013C748.099 119.457 767.834 99.099 781.412 75.6047C751.856 24.6609 698.52 -3.93113 643.571 -4.24435C672.84 46.9889 670.921 107.593 643.713 155.501ZM723.419 134.878C702.008 147.256 678.936 154.161 655.822 156.029C706.538 160.154 754.472 188.159 782.072 235.351C809.126 187.75 811.053 127.526 781.988 76.6052C768.335 100.035 748.578 120.335 723.419 134.878ZM645.731 156.526C645.446 156.531 645.161 156.535 644.876 156.539C644.479 156.544 644.082 156.547 643.685 156.549C672.925 207.773 670.999 268.354 643.799 316.247C644.472 316.251 645.145 316.259 645.818 316.272C672.1 315.802 698.635 308.846 723.005 294.759C748.184 280.204 767.92 259.846 781.498 236.352C752.314 186.048 699.945 157.538 645.731 156.526ZM641.957 156.548C641.266 156.545 640.576 156.536 639.885 156.523C613.602 156.993 587.066 163.948 562.695 178.036C538.337 192.117 519.073 211.628 505.55 234.155C505.22 234.754 504.885 235.352 504.547 235.948C505.228 235.952 505.909 235.96 506.589 235.973C532.863 235.499 559.389 228.544 583.751 214.461C608.754 200.008 628.388 179.833 641.957 156.548ZM370.792 167.252C392.287 212.234 391.102 263.011 370.969 305.631C384.122 286.537 401.619 269.993 423.028 257.617C444.437 245.241 467.507 238.336 490.619 236.467C443.637 232.645 399.044 208.329 370.792 167.252ZM504.525 236.997C505.213 236.994 505.901 236.986 506.589 236.973C560.595 237.99 612.767 266.294 642.008 316.246C641.328 316.249 640.647 316.257 639.966 316.269C585.952 315.26 533.77 286.955 504.525 236.997ZM500.69 236.971C501.37 236.984 502.051 236.992 502.733 236.996C502.395 237.592 502.06 238.189 501.73 238.788C488.207 261.315 468.943 280.826 444.585 294.907C420.223 308.99 393.698 315.945 367.425 316.419C367.036 316.412 366.648 316.406 366.259 316.402C365.966 316.398 365.673 316.396 365.38 316.394C365.718 315.799 366.052 315.202 366.382 314.603C379.905 292.076 399.169 272.564 423.528 258.483C447.89 244.4 474.416 237.445 500.69 236.971ZM516.661 236.477C539.772 234.608 562.842 227.702 584.251 215.327C609.41 200.783 629.167 180.483 642.821 157.053C671.884 207.973 669.958 268.196 642.904 315.797C615.305 268.607 567.374 240.603 516.661 236.477ZM231.803 386.077C251.936 343.458 253.121 292.681 231.626 247.699C259.878 288.776 304.471 313.091 351.452 316.914C328.341 318.782 305.271 325.688 283.862 338.064C262.453 350.439 244.956 366.983 231.803 386.077ZM367.425 317.42C366.736 317.432 366.046 317.44 365.357 317.444C394.602 367.402 446.785 395.707 500.799 396.716C501.481 396.704 502.162 396.696 502.843 396.693C473.602 346.742 421.431 318.437 367.425 317.42ZM363.566 317.443C362.884 317.439 362.202 317.43 361.521 317.417C335.248 317.892 308.723 324.847 284.362 338.93C260.004 353.01 240.74 372.521 227.217 395.048C226.887 395.648 226.552 396.246 226.214 396.842C226.89 396.846 227.566 396.854 228.242 396.867C254.521 396.395 281.051 389.44 305.418 375.354C329.776 361.273 349.04 341.763 362.563 319.235C362.893 318.636 363.228 318.038 363.566 317.443ZM445.085 295.773C423.676 308.149 400.606 315.055 377.495 316.923C424.476 320.746 469.069 345.061 497.321 386.138C475.826 341.156 477.011 290.379 497.144 247.76C483.991 266.854 466.494 283.397 445.085 295.773ZM503.654 237.5C503.306 238.097 502.954 238.693 502.597 239.287C476.53 286.593 475.021 345.924 503.712 396.19C503.783 396.068 503.854 395.946 503.925 395.825L504.044 395.622L504.104 395.521C504.171 395.407 504.238 395.293 504.305 395.18C504.459 394.921 504.613 394.663 504.768 394.404C530.836 347.099 532.345 287.766 503.654 237.5ZM92.4585 328.146C113.954 373.128 112.77 423.906 92.6353 466.525C105.789 447.431 123.286 430.887 144.695 418.511C166.105 406.135 189.176 399.229 212.288 397.361C165.306 393.539 120.711 369.224 92.4585 328.146ZM226.191 397.891C226.875 397.887 227.559 397.879 228.243 397.867C282.254 398.879 334.432 427.184 363.675 477.139C363.388 477.141 363.101 477.143 362.813 477.146C362.413 477.15 362.012 477.156 361.611 477.163C307.604 476.147 255.432 447.842 226.191 397.891ZM222.368 397.865C223.045 397.877 223.722 397.886 224.4 397.89C224.2 398.242 224.001 398.594 223.804 398.948C223.734 399.074 223.664 399.2 223.594 399.326L223.513 399.471L223.396 399.683C209.873 422.21 190.61 441.72 166.252 455.801C141.885 469.886 115.354 476.842 89.0746 477.313C88.6869 477.306 88.2991 477.3 87.9112 477.296C87.6232 477.292 87.3352 477.29 87.0472 477.288C87.3845 476.694 87.718 476.098 88.0476 475.5C101.571 452.971 120.835 433.459 145.195 419.377C169.561 405.292 196.09 398.337 222.368 397.865ZM238.325 397.37C261.437 395.502 284.508 388.597 305.918 376.22C327.327 363.845 344.824 347.301 357.977 328.207C337.843 370.827 336.659 421.604 358.155 466.587C329.902 425.508 285.307 401.192 238.325 397.37ZM363.43 319.734C363.786 319.14 364.139 318.544 364.487 317.947C393.182 368.22 391.669 427.563 365.589 474.872C365.502 475.018 365.414 475.164 365.327 475.311C365.184 475.551 365.041 475.792 364.899 476.033L364.812 476.181C364.723 476.333 364.634 476.485 364.545 476.638C335.854 426.372 337.362 367.04 363.43 319.734ZM-46.5358 546.979C-26.3967 504.354 -25.2125 453.568 -46.7154 408.58C-18.4627 449.666 26.1362 473.985 73.123 477.808C50.0104 479.675 26.9393 486.581 5.52875 498.958C-15.8828 511.335 -33.382 527.882 -46.5358 546.979ZM89.0732 478.314C88.3898 478.326 87.7065 478.333 87.0235 478.337C116.267 528.293 168.446 556.598 222.458 557.61C223.142 557.598 223.826 557.59 224.509 557.587C195.265 507.63 143.086 479.325 89.0732 478.314ZM85.2333 478.336C84.5577 478.332 83.8823 478.324 83.2072 478.311C56.9279 478.782 30.3965 485.738 6.02921 499.824C-18.3424 513.912 -37.6134 533.436 -51.1375 555.979C-51.4705 556.582 -51.8075 557.184 -52.1485 557.784C-25.1991 557.647 2.08213 550.701 27.0848 536.248C51.4449 522.166 70.7092 502.654 84.2323 480.125C84.5621 479.527 84.8958 478.93 85.2333 478.336ZM166.752 456.666C145.342 469.043 122.271 475.949 99.1583 477.817C146.141 481.639 190.736 505.955 218.989 547.034C197.493 502.051 198.677 451.273 218.811 408.653C205.658 427.747 188.161 444.291 166.752 456.666ZM225.321 398.393C224.972 398.992 224.62 399.588 224.263 400.182C198.196 447.488 196.689 506.819 225.379 557.084C225.725 556.491 226.075 555.899 226.429 555.31C252.503 508.002 254.015 448.664 225.321 398.393ZM-192.291 478.935C-219.443 526.708 -221.285 587.196 -191.89 638.233C-164.754 638.193 -137.263 631.251 -112.083 616.695C-87.7119 602.607 -68.4411 583.083 -54.9171 560.541C-54.5928 559.954 -54.2649 559.367 -53.9331 558.783C-109.027 558.451 -162.502 529.868 -192.291 478.935ZM-52.1426 558.784C-22.5229 609.383 30.6253 637.77 85.3755 638.083C58.2573 590.616 57.9111 535.105 79.6447 489.1C66.4914 508.194 48.9941 524.738 27.5853 537.114C2.42655 551.657 -25.025 558.646 -52.1426 558.784ZM85.0995 480.624C85.4548 480.032 85.8062 479.438 86.1536 478.841C114.85 529.119 113.335 588.466 87.2498 635.776C86.9001 636.359 86.5542 636.944 86.2121 637.531C57.5203 587.264 59.0295 527.93 85.0995 480.624ZM-53.0102 559.281C-53.3531 559.87 -53.6998 560.457 -54.0504 561.041C-80.2319 608.526 -81.6625 668.137 -52.6359 718.533C-25.5006 718.492 1.99003 711.55 27.1698 696.994C51.5409 682.906 70.8117 663.383 84.3357 640.841C84.66 640.253 84.988 639.667 85.3198 639.083C30.243 638.75 -23.2158 610.185 -53.0102 559.281ZM-53.7901 718.53C-80.91 671.061 -81.255 615.546 -59.5183 569.54C-72.6721 588.637 -90.1712 605.184 -111.583 617.561C-136.741 632.104 -164.193 639.094 -191.31 639.232C-161.69 689.831 -108.541 718.218 -53.7901 718.53ZM510.041 247.544C531.54 292.529 530.356 343.309 510.221 385.93C523.375 366.836 540.872 350.292 562.281 337.917C583.692 325.54 606.764 318.634 629.877 316.766C582.892 312.944 538.294 288.627 510.041 247.544ZM643.77 317.295C644.039 317.294 644.308 317.292 644.576 317.289C644.99 317.285 645.405 317.279 645.819 317.272C700.032 318.285 752.399 346.794 781.582 397.096C768.004 420.59 748.269 440.948 723.089 455.504C698.086 469.957 670.805 476.903 643.856 477.04C671.082 429.14 673.02 368.536 643.77 317.295ZM639.966 317.27C640.658 317.283 641.35 317.291 642.042 317.295C628.474 340.579 608.839 360.753 583.837 375.206C559.467 389.293 532.933 396.248 506.651 396.719C505.979 396.706 505.306 396.698 504.633 396.694C504.97 396.1 505.304 395.504 505.633 394.906C519.156 372.377 538.421 352.864 562.781 338.782C587.151 324.695 613.685 317.74 639.966 317.27ZM655.909 316.775C679.022 314.908 702.094 308.002 723.505 295.625C748.664 281.082 768.42 260.782 782.074 237.352C811.136 288.272 809.21 348.495 782.156 396.094C754.556 348.904 706.623 320.9 655.909 316.775ZM584.337 376.072C562.926 388.448 539.855 395.354 516.742 397.222C567.456 401.347 615.389 429.35 642.99 476.541C670.043 428.941 671.969 368.718 642.906 317.799C629.253 341.229 609.496 361.528 584.337 376.072ZM506.651 397.719C505.97 397.731 505.29 397.739 504.609 397.742C534.228 448.339 587.375 476.725 642.123 477.039C612.883 427.051 560.684 398.728 506.651 397.719ZM502.819 397.741C502.146 397.737 501.473 397.729 500.801 397.717C474.519 398.187 447.985 405.142 423.615 419.229C399.247 433.315 379.979 452.835 366.455 475.373C366.129 475.964 365.8 476.553 365.466 477.14C365.76 477.142 366.054 477.145 366.348 477.148C366.735 477.152 367.121 477.158 367.507 477.165C393.781 476.692 420.308 469.736 444.671 455.653C469.031 441.571 488.295 422.059 501.819 399.53C501.999 399.202 502.181 398.876 502.363 398.549L502.435 398.422C502.496 398.314 502.557 398.206 502.617 398.098C502.685 397.979 502.752 397.86 502.819 397.741ZM490.71 397.213C443.726 393.392 399.13 369.075 370.876 327.996C392.374 372.98 391.189 423.761 371.052 466.382C384.206 447.286 401.704 430.74 423.115 418.363C444.526 405.987 467.597 399.081 490.71 397.213ZM231.711 408.443C253.207 453.427 252.023 504.206 231.887 546.826C245.041 527.731 262.539 511.186 283.949 498.81C305.358 486.434 328.428 479.528 351.539 477.66C304.557 473.837 259.963 449.521 231.711 408.443ZM365.442 478.189C366.131 478.186 366.819 478.178 367.508 478.166C421.533 479.182 473.721 507.505 502.957 557.487C448.209 557.173 395.062 528.787 365.442 478.189ZM361.61 478.163C362.291 478.176 362.972 478.185 363.653 478.189C363.319 478.776 362.989 479.366 362.663 479.958C349.139 502.495 329.871 522.014 305.504 536.1C281.137 550.185 254.606 557.141 228.327 557.612C227.652 557.6 226.976 557.592 226.3 557.587C226.635 556.997 226.967 556.404 227.295 555.81C240.818 533.276 260.085 513.76 284.449 499.676C308.811 485.593 335.337 478.637 361.61 478.163ZM377.581 477.669C400.692 475.801 423.762 468.895 445.171 456.519C466.58 444.143 484.077 427.599 497.231 408.505C477.097 451.123 475.912 501.898 497.405 546.879C469.152 505.805 424.56 481.491 377.581 477.669ZM502.685 400.03C503.041 399.437 503.392 398.842 503.74 398.245C532.802 449.164 530.877 509.385 503.825 556.984C475.105 506.707 476.607 447.351 502.685 400.03ZM363.692 480.185C363.638 480.276 363.584 480.366 363.53 480.456C337.442 527.78 335.935 587.146 364.659 637.431C391.71 589.831 393.635 529.611 364.573 478.693C364.358 479.061 364.142 479.428 363.925 479.795C363.848 479.925 363.77 480.055 363.692 480.185ZM306.004 536.966C284.594 549.342 261.523 556.248 238.411 558.116C285.393 561.938 329.988 586.253 358.242 627.332C336.745 582.348 337.93 531.568 358.067 488.947C344.913 508.043 327.415 524.589 306.004 536.966ZM228.329 558.613C227.645 558.625 226.96 558.633 226.277 558.636C255.896 609.232 309.042 637.619 363.79 637.933C334.551 587.948 282.357 559.625 228.329 558.613ZM224.487 558.635C223.811 558.631 223.134 558.623 222.459 558.61C196.18 559.082 169.649 566.037 145.282 580.123C120.911 594.211 101.64 613.735 88.1161 636.276C87.7829 636.881 87.4456 637.483 87.1044 638.083C114.054 637.946 141.335 631 166.338 616.547C190.702 602.463 209.969 582.947 223.492 560.413C223.82 559.819 224.151 559.226 224.487 558.635ZM212.375 558.107C165.39 554.285 120.793 529.967 92.5398 488.884C114.04 533.871 112.855 584.655 92.7173 627.278C105.871 608.181 123.37 591.634 144.782 579.257C166.192 566.881 189.263 559.975 212.375 558.107ZM87.1094 639.084C116.73 689.682 169.878 718.068 224.629 718.381C197.511 670.913 197.165 615.401 218.9 569.396C205.746 588.492 188.248 605.037 166.838 617.413C141.679 631.956 114.227 638.946 87.1094 639.084ZM224.359 560.913C224.712 560.324 225.062 559.733 225.407 559.14C254.469 610.057 252.544 670.278 225.493 717.877C196.771 667.596 198.275 608.235 224.359 560.913ZM86.2422 639.582C85.8995 640.17 85.5529 640.756 85.2024 641.34C59.0214 688.825 57.5905 748.435 86.6157 798.83C113.751 798.789 141.243 791.847 166.423 777.291C191.425 762.839 211.059 742.665 224.628 719.381C169.532 719.068 116.047 690.501 86.2422 639.582ZM85.4615 798.827C58.3429 751.358 57.9982 695.845 79.7346 649.839C66.5808 668.936 49.0817 685.483 27.6702 697.86C2.51188 712.403 -24.9391 719.393 -52.0562 719.531C-22.4361 770.128 30.7118 798.514 85.4615 798.827ZM510.13 408.295C533.475 457.149 530.068 512.837 504.69 557.487C531.639 557.35 558.919 550.404 583.922 535.951C608.924 521.498 628.559 501.324 642.127 478.04C590.77 477.748 540.813 452.907 510.13 408.295ZM643.856 478.04C670.976 477.903 698.429 470.914 723.589 456.37C748.748 441.826 768.505 421.526 782.158 398.096C825.826 474.601 799.537 572.108 723.175 616.25C698.172 630.703 670.892 637.649 643.943 637.786C671.169 589.886 673.107 529.281 643.856 478.04ZM365.524 637.933C390.902 593.283 394.308 537.595 370.962 488.741C401.645 533.354 451.603 558.195 502.961 558.487C489.392 581.771 469.758 601.944 444.756 616.397C419.753 630.85 392.473 637.796 365.524 637.933ZM642.791 637.788C587.837 637.672 534.418 609.264 504.694 558.487C531.812 558.349 559.264 551.36 584.422 536.817C609.581 522.273 629.338 501.973 642.992 478.543C672.158 529.641 670.116 590.109 642.791 637.788ZM365.528 638.934C392.646 638.796 420.097 631.806 445.256 617.263C470.415 602.72 490.172 582.419 503.826 558.989C532.992 610.088 530.95 670.556 503.624 718.235C448.67 718.119 395.252 689.71 365.528 638.934ZM231.796 569.187C262.479 613.8 312.436 638.641 363.794 638.933C350.226 662.218 330.591 682.392 305.589 696.845C280.587 711.298 253.306 718.244 226.357 718.381C251.736 673.731 255.142 618.041 231.796 569.187ZM364.458 798.681C309.504 798.565 256.087 770.157 226.363 719.381C253.48 719.243 280.931 712.254 306.089 697.711C331.248 683.167 351.005 662.867 364.659 639.436C393.825 690.535 391.783 751.003 364.458 798.681ZM225.495 719.878C255.3 770.799 308.785 799.366 363.881 799.679C350.313 822.964 330.678 843.138 305.676 857.591C229.314 901.733 131.698 875.85 87.1954 799.828C114.313 799.69 141.764 792.7 166.923 778.157C192.084 763.613 211.842 743.311 225.495 719.878ZM642.214 638.786C590.858 638.494 540.903 613.655 510.219 569.047C533.561 617.899 530.155 673.585 504.777 718.233C531.726 718.096 559.006 711.15 584.009 696.697C609.011 682.244 628.645 662.07 642.214 638.786ZM503.048 719.233C451.69 718.941 401.732 694.1 371.049 649.488C394.395 698.341 390.989 754.03 365.61 798.68C392.559 798.542 419.84 791.596 444.843 777.143C469.845 762.691 489.479 742.517 503.048 719.233Z" fill="#FDFDFD"/>
</svg>
