<svg width="328" height="408" viewBox="0 0 328 408" fill="none" xmlns="http://www.w3.org/2000/svg">
<path fill-rule="evenodd" clip-rule="evenodd" d="M94.7807 -57.2197C101.565 -68.862 111.382 -78.949 123.883 -86.1755C162.065 -108.246 210.873 -95.3052 233.124 -57.2937C219.565 -57.2249 205.839 -53.7302 193.259 -46.4584C180.679 -39.1865 170.8 -29.0358 163.974 -17.3201C149.071 -42.78 122.329 -57.0634 94.7807 -57.2197ZM94.2033 -57.221C101.035 -69.0419 110.964 -79.2849 123.633 -86.6083C162.137 -108.866 211.38 -95.7378 233.702 -57.2946C261.441 -57.2362 288.402 -42.85 303.327 -17.1462C331.067 -17.0884 358.029 -2.70178 372.955 23.0033C400.744 23.0615 427.752 37.4995 442.661 63.2906C457.57 89.0818 456.602 119.692 442.784 143.802C457.61 169.564 456.62 200.109 442.826 224.175C457.651 249.938 456.662 280.481 442.869 304.547C465.041 343.076 451.841 392.3 413.338 414.558C400.669 421.881 386.837 425.374 373.185 425.394C366.353 437.215 356.424 447.458 343.755 454.781C331.086 462.105 317.254 465.597 303.601 465.617C296.77 477.438 286.841 487.681 274.172 495.004C261.503 502.328 247.671 505.82 234.018 505.841C227.187 517.662 217.257 527.905 204.588 535.228C166.085 557.485 116.841 544.358 94.5197 505.915C66.7806 505.856 39.8192 491.47 24.8938 465.766C-2.84581 465.708 -29.8079 451.321 -44.7333 425.616C-72.5222 425.558 -99.5307 411.12 -114.44 385.329C-129.348 359.538 -128.38 328.928 -114.562 304.818C-129.388 279.056 -128.399 248.512 -114.605 224.445C-129.431 198.683 -128.441 168.139 -114.647 144.072C-136.82 105.543 -123.62 56.3193 -85.1163 34.0621C-72.4474 26.7387 -58.6158 23.2462 -44.963 23.2258C-38.1316 11.4051 -28.2021 1.16228 -15.5333 -6.16108C-2.86432 -13.4845 10.9674 -16.977 24.6203 -16.9973C31.4517 -28.8182 41.3812 -39.0613 54.0502 -46.3847C66.719 -53.7081 80.5506 -57.2006 94.2033 -57.221ZM233.414 -56.7946C219.845 -56.7744 206.1 -53.3035 193.509 -46.0256C181.008 -38.7992 171.191 -28.7124 164.407 -17.0703C191.955 -16.9138 218.698 -2.63043 233.6 22.8297C233.771 22.5362 233.944 22.2438 234.119 21.9524C247.21 -1.79026 247.927 -31.5963 233.414 -56.7946ZM236.854 17.701C247.722 -5.30196 247.55 -33.0587 233.991 -56.7934C261.365 -56.6368 287.939 -42.4438 302.749 -17.1453C289.19 -17.0762 275.465 -13.5815 262.886 -6.31001C252.18 -0.121327 243.431 8.15223 236.854 17.701ZM234.061 23.0788C234.227 22.7876 234.39 22.4955 234.552 22.2025C241.314 10.9304 250.95 1.16747 263.136 -5.87713C275.726 -13.1548 289.471 -16.6256 303.039 -16.6461C317.553 8.55395 316.837 38.3628 303.742 62.1065C303.568 62.3965 303.396 62.6874 303.226 62.9793C288.329 37.5275 261.6 23.2449 234.061 23.0788ZM233.098 24.7285C233.272 24.4382 233.445 24.1469 233.615 23.8546C247.963 48.9928 247.206 78.666 234.164 102.321C233.989 102.613 233.816 102.906 233.645 103.2C219.295 78.0597 220.054 48.3844 233.098 24.7285ZM232.665 24.4789C232.831 24.1777 232.999 23.8776 233.169 23.5784C219.694 23.6469 206.054 27.12 193.552 34.3465C181.373 41.3869 171.741 51.1424 164.98 62.406C164.815 62.7058 164.647 63.0046 164.478 63.3024C164.814 63.3044 165.15 63.3086 165.485 63.3148C178.627 63.0801 191.895 59.6024 204.08 52.5584C216.267 45.5138 225.903 35.751 232.665 24.4789ZM170.532 63.5666C182.089 62.6328 193.625 59.1798 204.33 52.9913C215.036 46.8026 223.786 38.529 230.363 28.9802C220.293 50.2928 219.701 75.6861 230.453 98.1804C216.326 77.6373 194.026 65.4774 170.532 63.5666ZM164.466 63.8266C164.806 63.8248 165.146 63.821 165.486 63.8149C192.494 64.3189 218.586 78.4716 233.209 103.451C233.157 103.452 233.104 103.452 233.052 103.452L232.932 103.453C232.827 103.454 232.722 103.455 232.617 103.457C232.47 103.458 232.323 103.461 232.176 103.463C205.173 102.955 179.086 88.8027 164.466 63.8266ZM162.564 63.8138C162.899 63.82 163.235 63.8241 163.571 63.8262C163.402 64.124 163.235 64.4229 163.07 64.7227C156.308 75.9862 146.676 85.7417 134.497 92.782C122.317 99.823 109.055 103.301 95.9189 103.538C95.5778 103.532 95.2365 103.527 94.8951 103.525C95.0641 103.228 95.2311 102.929 95.3962 102.63C102.158 91.3661 111.79 81.6106 123.969 74.5701C136.154 67.5262 149.422 64.0485 162.564 63.8138ZM162.563 63.3136C162.903 63.3076 163.243 63.3037 163.583 63.302C148.773 38.0038 122.2 23.8107 94.8263 23.6534C109.447 48.6481 135.547 62.8097 162.563 63.3136ZM97.5998 28.9529C111.727 49.4931 134.025 61.6514 157.517 63.562C145.96 64.4958 134.424 67.9487 123.719 74.1373C113.014 80.325 104.266 88.5969 97.6892 98.1439C107.756 76.8337 108.348 51.4444 97.5998 28.9529ZM91.1974 17.8774C75.8559 -4.42914 50.8769 -16.8502 25.1978 -16.9961C31.982 -28.6384 41.7992 -38.7254 54.3005 -45.9518C66.8015 -53.1782 80.4418 -56.6513 93.9161 -56.7199C81.2267 -34.3945 79.5239 -6.54966 91.1974 17.8774ZM94.3917 22.9014C79.8087 -2.64791 80.8297 -32.8816 94.4924 -56.7208C121.969 -56.663 148.678 -42.4588 163.54 -17.0706C149.982 -17.0017 136.256 -13.507 123.676 -6.23531C111.097 1.03634 101.218 11.1863 94.3917 22.9014ZM-84.8661 34.495C-123.047 56.5658 -136.191 105.319 -114.358 143.571C-107.531 131.857 -97.653 121.707 -85.0738 114.435C-72.4936 107.163 -58.7667 103.668 -45.207 103.6C-59.8323 77.9795 -58.8632 47.6771 -45.2501 23.7269C-58.7246 23.7955 -72.3649 27.2685 -84.8661 34.495ZM-15.283 -5.7282C-2.78183 -12.9547 10.8586 -16.4277 24.3331 -16.4963C11.644 5.82862 9.94101 33.6728 21.6136 58.0994C6.27199 35.7935 -18.7067 23.3729 -44.3855 23.227C-37.6012 11.585 -27.7841 1.49818 -15.283 -5.7282ZM24.9094 -16.4972C11.2468 7.34187 10.2258 37.5754 24.8085 63.1246C31.6351 51.4097 41.5135 41.2599 54.0927 33.9883C66.6722 26.7166 80.3981 23.2219 93.9569 23.153C79.095 -2.235 52.3862 -16.4392 24.9094 -16.4972ZM28.1064 138.366C38.173 117.057 38.7652 91.6686 28.0175 69.1776C42.1436 89.7161 64.44 101.874 87.9303 103.785C76.3748 104.72 64.8402 108.172 54.1357 114.36C43.4316 120.548 34.683 128.82 28.1064 138.366ZM25.243 63.8765C39.8603 88.8664 65.953 103.027 92.9638 103.537C93.3091 103.531 93.6544 103.527 93.9996 103.525C79.19 78.2268 52.6171 64.0337 25.243 63.8765ZM95.9188 104.038C95.5735 104.044 95.2283 104.048 94.8832 104.05C109.506 129.029 135.596 143.182 162.603 143.687C162.944 143.681 163.285 143.677 163.626 143.675C149.006 118.7 122.921 104.547 95.9188 104.038ZM93.9879 104.05C93.6465 104.048 93.3052 104.043 92.964 104.037C79.828 104.274 66.5662 107.752 54.3859 114.793C42.2072 121.833 32.5757 131.588 25.8143 142.851C25.6487 143.151 25.4813 143.451 25.3118 143.749C25.6533 143.751 25.9947 143.755 26.336 143.762C39.4719 143.524 52.7335 140.047 64.9137 133.006C77.093 125.965 86.7247 116.21 93.4862 104.946C93.6514 104.647 93.8187 104.348 93.9879 104.05ZM134.747 93.2149C124.043 99.4028 112.508 102.856 100.953 103.79C124.443 105.701 146.739 117.859 160.865 138.397C150.118 115.906 150.71 90.5179 160.777 69.2084C154.2 78.7553 145.452 87.0272 134.747 93.2149ZM164.017 63.0508C164.192 62.7515 164.368 62.4533 164.546 62.1562C177.584 38.4957 178.335 8.81847 163.975 -16.3194C150.449 7.48046 149.486 37.5914 164.017 63.0508ZM164.407 -16.5703C177.966 7.16303 178.139 34.9179 167.273 57.9202C173.849 48.3733 182.598 40.1014 193.302 33.9137C205.882 26.642 219.607 23.1473 233.166 23.0784C218.356 -2.22054 191.782 -16.4138 164.407 -16.5703ZM164.032 64.0787C163.857 64.3776 163.681 64.6755 163.503 64.9724C150.469 88.6252 149.715 118.291 164.061 143.424C164.104 143.35 164.147 143.277 164.19 143.204C164.234 143.129 164.278 143.054 164.322 142.979C164.377 142.885 164.433 142.792 164.488 142.699L164.578 142.549C177.622 118.893 178.381 89.2182 164.032 64.0787ZM-44.6738 23.726C-58.3367 47.5652 -59.3579 77.799 -44.7749 103.348C-37.9483 91.6333 -28.0697 81.4832 -15.4903 74.2115C-2.91085 66.9398 10.8151 63.445 24.3739 63.3762C9.51197 37.9881 -17.197 23.7839 -44.6738 23.726ZM-44.774 104.349C-58.3006 128.149 -59.2638 158.261 -44.7322 183.72C-37.9056 172.005 -28.0271 161.856 -15.4478 154.584C-4.74333 148.396 6.79126 144.943 18.3467 144.009C-7.00945 141.946 -30.9745 127.944 -44.774 104.349ZM23.38 143.761C-3.63067 143.251 -29.7231 129.09 -44.3404 104.1C-16.9664 104.258 9.60638 118.451 24.416 143.749C24.0708 143.75 23.7254 143.754 23.38 143.761ZM25.2997 144.274C25.6449 144.272 25.9903 144.268 26.3357 144.262C53.3378 144.771 79.4223 158.923 94.0424 183.898C93.6971 183.9 93.3517 183.904 93.0063 183.91C66.0042 183.401 39.9197 169.249 25.2997 144.274ZM23.38 144.261C23.7214 144.267 24.0628 144.271 24.4045 144.273C24.2352 144.572 24.0678 144.871 23.9024 145.171C17.141 156.434 7.5095 166.189 -4.66931 173.229C-16.8559 180.273 -30.1251 183.751 -43.2678 183.985C-43.6119 183.979 -43.9561 183.975 -44.3005 183.973C-37.5162 172.33 -27.6989 162.243 -15.1976 155.017C-3.0175 147.976 10.2441 144.498 23.38 144.261ZM31.3694 144.014C42.9249 143.079 54.4595 139.626 65.1639 133.439C75.8682 127.251 84.6168 118.979 91.1934 109.432C81.1266 130.742 80.5344 156.13 91.2819 178.621C77.1559 158.083 54.8596 145.925 31.3694 144.014ZM93.9196 105.196C94.0979 104.899 94.2742 104.601 94.4485 104.302C108.797 129.439 108.039 159.112 94.9981 182.767C94.8226 183.059 94.649 183.353 94.4774 183.647C80.132 158.515 80.8859 128.849 93.9196 105.196ZM94.3915 23.9044C108.751 49.0423 108.001 78.7194 94.9631 102.38C94.7848 102.677 94.6086 102.975 94.4343 103.274C79.9031 77.8146 80.8658 47.7042 94.3915 23.9044ZM24.8509 143.497C10.3195 118.038 11.2823 87.9272 24.8084 64.1274C39.1678 89.2646 38.4179 118.941 25.381 142.601C25.2023 142.899 25.0256 143.198 24.8509 143.497ZM24.5777 145.015C24.4974 145.15 24.4167 145.286 24.3356 145.421C11.3029 169.073 10.5493 198.738 24.8944 223.87C25.0654 223.577 25.2383 223.285 25.4131 222.993C38.4556 199.338 39.2135 169.664 24.8651 144.526C24.7699 144.689 24.6741 144.852 24.5777 145.015ZM-4.41908 173.662C-15.1251 179.85 -26.6614 183.303 -38.2185 184.237C-14.7251 186.148 7.57449 198.307 21.7013 218.849C10.9513 196.357 11.5429 170.966 21.6102 149.655C15.0336 159.202 6.28505 167.474 -4.41908 173.662ZM-43.267 184.485C-43.6058 184.491 -43.9446 184.495 -44.2833 184.497C-29.6609 209.476 -3.57041 223.628 23.4363 224.133C23.7772 224.127 24.1181 224.123 24.4588 224.122C9.8352 199.141 -16.2581 184.988 -43.267 184.485ZM-45.1787 184.497C-45.5136 184.495 -45.8483 184.49 -46.1829 184.484C-59.3255 184.718 -72.5946 188.196 -84.7811 195.241C-97.3711 202.518 -107.239 212.697 -114.028 224.445C-99.4371 249.594 -73.2554 263.849 -46.1505 264.357C-45.8074 264.351 -45.4643 264.347 -45.1214 264.345C-59.7418 238.734 -58.7785 208.443 -45.1787 184.497ZM-85.0313 194.808C-74.3254 188.619 -62.789 185.166 -51.232 184.232C-76.5898 182.17 -100.557 168.168 -114.357 144.572C-127.884 168.373 -128.847 198.484 -114.316 223.944C-107.489 212.229 -97.6106 202.079 -85.0313 194.808ZM-114.07 144.072C-99.4775 169.224 -73.2914 183.479 -46.183 183.984C-45.8433 183.978 -45.5036 183.974 -45.1641 183.972C-59.7892 158.352 -58.8203 128.05 -45.2075 104.1C-58.682 104.169 -72.3224 107.642 -84.8236 114.868C-97.4134 122.146 -107.281 132.325 -114.07 144.072ZM-15.2401 74.6444C-27.7414 81.8709 -37.5586 91.9579 -44.3429 103.6C-18.664 103.746 6.3147 116.167 21.6563 138.473C9.98339 114.046 11.6865 86.2014 24.3759 63.8763C10.9014 63.9449 -2.73895 67.4179 -15.2401 74.6444ZM163.542 -16.5705C150.068 -16.5019 136.428 -13.0289 123.926 -5.80244C111.425 1.42405 101.608 11.511 94.8237 23.1533C120.502 23.2992 145.481 35.7198 160.823 58.0255C149.15 33.5987 150.853 5.75443 163.542 -16.5705ZM167.227 69.104C177.975 91.5967 177.382 116.987 167.313 138.298C173.89 128.749 182.64 120.475 193.346 114.287C204.05 108.099 215.585 104.646 227.14 103.712C203.65 101.8 181.353 89.6427 167.227 69.104ZM234.094 103.976C234.438 103.975 234.782 103.971 235.126 103.965C262.129 104.473 288.215 118.625 302.836 143.601C302.647 143.602 302.458 143.603 302.27 143.606C302.19 143.606 302.11 143.608 302.031 143.609L301.826 143.612C274.815 143.112 248.719 128.959 234.094 103.976ZM232.176 103.963C232.517 103.97 232.857 103.974 233.198 103.976C233.032 104.269 232.867 104.562 232.705 104.857C225.943 116.127 216.308 125.888 204.123 132.931C191.939 139.975 178.672 143.452 165.532 143.688C165.427 143.686 165.322 143.684 165.217 143.683C164.985 143.679 164.753 143.677 164.521 143.675C164.686 143.384 164.85 143.092 165.011 142.799C171.773 131.527 181.409 121.764 193.596 114.72C205.777 107.678 219.039 104.2 232.176 103.963ZM240.162 103.716C251.717 102.782 263.252 99.3291 273.956 93.1412C284.663 86.9522 293.413 78.6783 299.99 69.1289C289.92 90.4409 289.327 115.833 300.078 138.327C285.952 117.787 263.654 105.628 240.162 103.716ZM302.294 64.624C295.531 75.8981 285.894 85.6627 273.706 92.7083C261.525 99.7498 248.262 103.228 235.125 103.464C234.785 103.458 234.445 103.454 234.104 103.452C234.151 103.37 234.197 103.287 234.244 103.205C234.303 103.1 234.362 102.994 234.421 102.888L234.493 102.759L234.597 102.571C241.359 91.3012 250.994 81.5401 263.179 74.4964C275.68 67.2699 289.321 63.7969 302.795 63.7283C302.626 64.0259 302.459 64.3245 302.294 64.624ZM303.687 63.2287C303.852 62.9386 304.015 62.6477 304.176 62.3558C310.938 51.0821 320.575 41.3177 332.763 34.2723C345.353 26.9945 359.098 23.5236 372.666 23.5033C387.364 49.0218 386.443 79.2661 372.867 103.153C357.972 77.6861 331.234 63.3946 303.687 63.2287ZM302.727 64.8744L302.815 64.7266L302.913 64.5627C303.023 64.3769 303.132 64.1907 303.241 64.0041C317.594 89.1501 316.831 118.834 303.778 142.492C303.607 142.777 303.438 143.063 303.271 143.349C288.921 118.208 289.68 88.531 302.727 64.8744ZM306.479 57.8516C317.348 34.848 317.176 7.0903 303.616 -16.645C330.991 -16.4891 357.566 -2.29553 372.376 23.0041C358.818 23.073 345.092 26.5678 332.513 33.8394C321.806 40.0283 313.056 48.3023 306.479 57.8516ZM54.3429 34.4212C66.8441 27.1947 80.4846 23.7217 93.9591 23.6531C81.27 45.978 79.567 73.8222 91.2396 98.2488C75.898 75.9429 50.9193 63.5223 25.2405 63.3764C32.0248 51.7344 41.8419 41.6476 54.3429 34.4212ZM97.7306 178.52C107.799 157.209 108.392 131.819 97.6435 109.327C111.77 129.866 134.068 142.024 157.559 143.935C146.003 144.869 134.467 148.322 123.762 154.51C113.057 160.699 104.307 168.972 97.7306 178.52ZM165.533 144.188C165.192 144.194 164.85 144.198 164.509 144.2C179.134 169.182 205.231 183.335 232.242 183.836C232.579 183.83 232.916 183.826 233.252 183.824C218.63 158.845 192.539 144.693 165.533 144.188ZM163.615 144.199C163.278 144.197 162.94 144.193 162.603 144.187C149.463 144.422 136.197 147.9 124.012 154.943C111.828 161.986 102.193 171.747 95.4314 183.017C95.2688 183.311 95.1042 183.605 94.9378 183.898C95.2794 183.901 95.621 183.905 95.9623 183.911C109.098 183.674 122.36 180.196 134.54 173.155C146.726 166.11 156.362 156.348 163.124 145.076C163.286 144.783 163.449 144.49 163.615 144.199ZM204.373 133.364C193.668 139.553 182.132 143.006 170.576 143.94C194.067 145.85 216.365 158.008 230.492 178.547C219.744 156.055 220.337 130.665 230.405 109.355C223.828 118.903 215.079 127.176 204.373 133.364ZM234.033 23.5787C247.593 47.3134 247.765 75.0702 236.897 98.0733C243.474 88.5251 252.223 80.252 262.929 74.0635C275.508 66.7919 289.234 63.2972 302.793 63.2282C287.983 37.9287 261.408 23.7351 234.033 23.5787ZM233.658 104.228C233.487 104.522 233.314 104.814 233.139 105.106C220.096 128.761 219.339 158.435 233.687 183.573C233.79 183.397 233.893 183.221 233.997 183.045C234.065 182.931 234.133 182.817 234.201 182.703C247.248 159.046 248.008 129.369 233.658 104.228ZM28.0598 149.55C38.8083 172.043 38.2155 197.433 28.147 218.744C34.7239 209.195 43.4734 200.922 54.1791 194.733C64.8834 188.546 76.4179 185.093 87.9732 184.158C64.4826 182.247 42.1859 170.089 28.0598 149.55ZM94.9259 184.423C95.2713 184.422 95.6168 184.418 95.9624 184.411C122.965 184.92 149.049 199.073 163.67 224.048C163.33 224.049 162.991 224.053 162.652 224.059C135.643 223.557 109.55 209.404 94.9259 184.423ZM93.007 184.41C93.3483 184.417 93.6897 184.421 94.0312 184.423C93.8648 184.716 93.7002 185.01 93.5375 185.305C86.7756 196.574 77.141 206.335 64.9567 213.378C52.7723 220.422 39.5057 223.899 26.3653 224.135C26.0284 224.128 25.6915 224.124 25.3544 224.122C25.5202 223.83 25.6842 223.537 25.8463 223.243C32.6084 211.972 42.2437 202.21 54.4294 195.166C66.6095 188.125 79.8711 184.648 93.007 184.41ZM100.996 184.163C112.551 183.229 124.086 179.776 134.79 173.588C145.496 167.399 154.246 159.126 160.822 149.577C150.754 170.887 150.161 196.278 160.909 218.77C146.783 198.232 124.486 186.074 100.996 184.163ZM163.558 145.325C163.732 145.035 163.904 144.743 164.075 144.451C178.426 169.594 177.665 199.275 164.615 222.933C164.443 223.22 164.272 223.507 164.104 223.796C149.755 198.657 150.513 168.981 163.558 145.325ZM94.4913 184.675C94.3198 184.969 94.1464 185.262 93.9711 185.554C80.9298 209.209 80.1725 238.882 94.5206 264.02C94.6894 263.73 94.86 263.441 95.0325 263.154C108.081 239.496 108.842 209.817 94.4913 184.675ZM65.2069 213.811C54.5015 219.999 42.9659 223.452 31.4095 224.386C54.901 226.297 77.1988 238.455 91.3255 258.994C80.5772 236.502 81.1701 211.112 91.2384 189.802C84.6616 199.35 75.9122 207.623 65.2069 213.811ZM26.3659 224.635C26.0249 224.641 25.6839 224.645 25.343 224.646C39.9697 249.632 66.071 263.786 93.086 264.283C93.4194 264.277 93.7527 264.273 94.086 264.271C79.4636 239.292 53.3728 225.14 26.3659 224.635ZM24.4482 224.646C24.1111 224.644 23.774 224.64 23.4371 224.634C10.2967 224.869 -2.96982 228.347 -15.1542 235.39C-27.6554 242.616 -37.4726 252.703 -44.2569 264.346C-43.9092 264.348 -43.5617 264.352 -43.2144 264.358C-30.0752 264.122 -16.81 260.645 -4.62683 253.602C7.5588 246.558 17.1942 236.796 23.9562 225.525C24.1184 225.231 24.2824 224.938 24.4482 224.646ZM18.3929 224.382C-6.96464 222.319 -30.9313 208.317 -44.7313 184.721C-58.2584 208.522 -59.2214 238.634 -44.6891 264.094C-37.8625 252.379 -27.9839 242.229 -15.4044 234.957C-4.69905 228.769 6.83654 225.316 18.3929 224.382ZM24.3893 225.775C24.564 225.484 24.7369 225.192 24.9077 224.898C39.26 250.044 38.4976 279.727 25.4447 303.385C25.2739 303.67 25.1049 303.956 24.9377 304.243C10.589 279.105 11.3468 249.431 24.3893 225.775ZM-38.1733 264.61C-26.6172 263.676 -15.0818 260.223 -4.3766 254.035C6.32913 247.846 15.0787 239.573 21.6556 230.024C11.5861 251.337 10.9941 276.73 21.7455 299.224C7.61921 278.681 -14.6801 266.521 -38.1733 264.61ZM-44.2404 264.87C-43.8985 264.868 -43.5564 264.865 -43.2142 264.858C-16.2087 265.365 9.88026 279.517 24.502 304.495C24.1689 304.497 23.8356 304.5 23.5023 304.506C-3.51252 304.009 -29.6137 289.856 -44.2404 264.87ZM-46.1505 264.857C-45.8123 264.864 -45.4739 264.868 -45.1353 264.87C-58.7393 288.824 -59.699 319.126 -45.0642 344.742C-72.539 344.586 -99.207 330.29 -113.985 304.818C-107.196 293.07 -97.3282 282.891 -84.7381 275.613C-72.5549 268.571 -59.2897 265.093 -46.1505 264.857ZM-51.1916 264.605C-62.7478 265.539 -74.2832 268.992 -84.9884 275.181C-97.5677 282.452 -107.446 292.602 -114.273 304.317C-128.805 278.857 -127.842 248.746 -114.315 224.945C-100.515 248.54 -76.5487 262.543 -51.1916 264.605ZM236.938 178.448C247.009 157.135 247.601 131.741 236.849 109.247C250.976 129.79 273.277 141.95 296.772 143.86C285.215 144.794 273.678 148.247 262.972 154.436C252.265 160.625 243.515 168.899 236.938 178.448ZM304.182 144.121C304.028 144.123 303.874 144.124 303.72 144.125C318.343 169.105 344.434 183.257 371.442 183.761C371.782 183.755 372.122 183.751 372.462 183.75C357.837 158.767 331.74 144.614 304.728 144.113C304.546 144.117 304.364 144.119 304.182 144.121ZM302.825 144.124C302.492 144.122 302.16 144.118 301.827 144.112C288.682 144.345 275.411 147.823 263.222 154.869C251.034 161.914 241.397 171.679 234.634 182.953C234.546 183.113 234.457 183.273 234.368 183.433C234.294 183.563 234.221 183.694 234.147 183.825C234.479 183.827 234.812 183.831 235.145 183.837C248.29 183.604 261.561 180.126 273.749 173.08C285.942 166.032 295.582 156.263 302.344 144.983C302.429 144.831 302.513 144.678 302.599 144.526C302.674 144.392 302.749 144.258 302.825 144.124ZM343.583 133.29C332.877 139.479 321.34 142.932 309.783 143.865C335.141 145.927 359.109 159.929 372.91 183.525C386.436 159.725 387.399 129.613 372.867 104.154C366.041 115.868 356.162 126.018 343.583 133.29ZM343.333 132.857C355.843 125.625 365.665 115.53 372.45 103.877C358.966 103.941 345.316 107.414 332.806 114.645C320.613 121.694 310.973 131.463 304.211 142.743C304.052 143.03 303.892 143.316 303.73 143.601C304.063 143.603 304.395 143.607 304.727 143.613C317.873 143.38 331.144 139.903 343.333 132.857ZM442.493 143.301C427.599 117.835 400.861 103.544 373.314 103.378C386.918 79.4237 387.878 49.1214 373.243 23.5045C400.758 23.6616 427.463 37.9991 442.228 63.5409C456.993 89.0826 456.089 119.38 442.493 143.301ZM167.27 149.476C178.018 171.97 177.425 197.362 167.355 218.673C173.932 209.123 182.682 200.849 193.389 194.66C204.095 188.471 215.631 185.018 227.189 184.084C203.696 182.174 181.397 170.016 167.27 149.476ZM234.655 184.344C234.818 184.342 234.982 184.34 235.145 184.337C262.157 184.837 288.254 198.99 302.879 223.973C302.533 223.975 302.188 223.979 301.842 223.985C274.84 223.476 248.755 209.324 234.135 184.349L234.33 184.347L234.467 184.346L234.655 184.344ZM232.243 184.336C232.575 184.342 232.908 184.346 233.241 184.348C233.077 184.638 232.914 184.928 232.753 185.22C225.991 196.494 216.354 206.258 204.166 213.304C191.979 220.348 178.711 223.826 165.568 224.06C165.233 224.054 164.898 224.05 164.563 224.048C164.727 223.761 164.888 223.472 165.048 223.183C171.81 211.906 181.448 202.139 193.639 195.092C205.827 188.047 219.098 184.569 232.243 184.336ZM240.199 184.089C251.757 183.155 263.293 179.702 273.999 173.513C284.707 167.324 293.457 159.049 300.034 149.499C289.963 170.811 289.37 196.205 300.121 218.7C285.993 198.158 263.693 185.999 240.199 184.089ZM306.521 138.227C317.391 115.223 317.22 87.4648 303.66 63.7286C331.035 63.885 357.609 78.0783 372.419 103.377C358.86 103.446 345.135 106.941 332.556 114.213C321.848 120.402 313.098 128.677 306.521 138.227ZM302.778 145.233C302.948 144.948 303.117 144.663 303.284 144.376C317.629 169.509 316.876 199.174 303.842 222.827C303.759 222.965 303.677 223.104 303.595 223.242C303.5 223.401 303.407 223.561 303.313 223.721C288.961 198.575 289.724 168.892 302.778 145.233ZM97.7715 258.896C107.841 237.585 108.435 212.193 97.6862 189.7C111.813 210.24 134.112 222.397 157.604 224.308C146.047 225.241 134.511 228.694 123.805 234.883C113.099 241.072 104.349 249.346 97.7715 258.896ZM164.994 224.569C164.847 224.57 164.7 224.571 164.553 224.572C179.173 249.547 205.258 263.699 232.26 264.208C232.605 264.202 232.95 264.198 233.295 264.196C218.671 239.216 192.578 225.063 165.569 224.561C165.455 224.563 165.342 224.564 165.229 224.566L165.101 224.568L164.994 224.569ZM163.658 224.572C163.323 224.57 162.988 224.566 162.653 224.559C149.51 224.794 136.242 228.271 124.055 235.316C111.866 242.362 102.228 252.128 95.4656 263.404C95.3055 263.694 95.1436 263.983 94.9798 264.272C95.3094 264.274 95.6388 264.278 95.9681 264.284C109.116 264.052 122.391 260.575 134.583 253.527C146.773 246.48 156.411 236.713 163.174 225.436C163.333 225.147 163.495 224.859 163.658 224.572ZM204.416 213.737C193.71 219.925 182.174 223.378 170.617 224.312C194.11 226.222 216.408 238.381 230.535 258.921C219.786 236.428 220.379 211.036 230.449 189.725C223.872 199.274 215.122 207.548 204.416 213.737ZM233.701 184.6C233.531 184.891 233.36 185.181 233.186 185.47C220.14 209.126 219.38 238.804 233.73 263.945C233.904 263.646 234.08 263.348 234.258 263.052C247.292 239.399 248.046 209.733 233.701 184.6ZM163.607 225.686L163.701 225.529C163.751 225.446 163.8 225.363 163.849 225.28C163.939 225.128 164.029 224.975 164.118 224.823C178.463 249.955 177.709 279.62 164.676 303.273C164.498 303.57 164.321 303.869 164.147 304.168C149.795 279.025 150.557 249.344 163.607 225.686ZM101.031 264.536C112.589 263.602 124.126 260.149 134.833 253.96C145.54 247.771 154.29 239.496 160.867 229.947C150.796 251.258 150.203 276.65 160.952 299.144C146.825 278.603 124.524 266.445 101.031 264.536ZM94.9689 264.795C95.3021 264.794 95.6355 264.79 95.969 264.784C122.984 265.281 149.085 279.434 163.712 304.42C163.37 304.422 163.027 304.426 162.685 304.432C135.679 303.926 109.59 289.773 94.9689 264.795ZM93.0865 264.783C93.4158 264.789 93.7452 264.793 94.0747 264.795C93.9109 265.083 93.749 265.372 93.5889 265.663C86.8265 276.938 77.1888 286.704 64.9992 293.751C52.8075 300.798 39.5323 304.276 26.3842 304.507L26.2273 304.505L26.1142 304.503C26.0176 304.501 25.921 304.5 25.8244 304.499C25.6817 304.498 25.5391 304.496 25.3964 304.495C25.5587 304.21 25.7192 303.923 25.8779 303.635C32.6405 292.356 42.2799 282.587 54.4723 275.54C66.6637 268.492 79.9386 265.014 93.0865 264.783ZM28.1002 229.919C42.2279 250.462 64.5294 262.622 88.0244 264.531C76.4664 265.464 64.929 268.917 54.2221 275.107C43.5149 281.296 34.7644 289.571 28.1872 299.121C38.2585 277.808 38.8517 252.414 28.1002 229.919ZM94.5341 265.046C94.3652 265.336 94.1945 265.625 94.0219 265.913C80.9731 289.57 80.2126 319.249 94.5632 344.392C94.6731 344.203 94.7838 344.015 94.8953 343.827C94.9601 343.718 95.0251 343.609 95.0905 343.5C108.126 319.847 108.88 290.18 94.5341 265.046ZM65.2494 294.184C54.5424 300.373 43.0049 303.826 31.4467 304.759C54.9415 306.669 77.2427 318.828 91.3704 339.371C80.6196 316.877 81.2125 291.483 91.283 270.171C84.706 279.72 75.9559 287.995 65.2494 294.184ZM26.3851 305.008C26.052 305.013 25.719 305.017 25.3861 305.019C40.0084 329.998 66.0988 344.15 93.1053 344.655C93.4463 344.649 93.7871 344.645 94.1278 344.644C79.5011 319.658 53.3999 305.505 26.3851 305.008ZM24.4917 305.018C24.162 305.016 23.8325 305.012 23.503 305.006C10.355 305.238 -2.92009 308.716 -15.1117 315.763C-27.6215 322.995 -37.4436 333.09 -44.2283 344.743C-30.7447 344.679 -17.0941 341.206 -4.58436 333.975C7.60807 326.927 17.2474 317.158 24.01 305.879C24.1688 305.591 24.3293 305.304 24.4917 305.018ZM18.4407 304.755C-6.91841 302.694 -30.8871 288.692 -44.6882 265.095C-58.2148 288.895 -59.1778 319.007 -44.646 344.466C-37.8195 332.752 -27.941 322.602 -15.3619 315.33C-4.65493 309.141 6.88253 305.688 18.4407 304.755ZM24.443 306.129C24.614 305.844 24.7831 305.558 24.9504 305.271C39.2993 330.41 38.5411 360.084 25.4977 383.74C25.3233 384.031 25.1507 384.323 24.9801 384.615C10.628 359.47 11.3903 329.787 24.443 306.129ZM-44.1973 345.243C-30.6387 345.174 -16.9133 341.679 -4.33413 334.407C6.37308 328.218 15.1236 319.943 21.7008 310.393C10.8304 333.397 11.0018 361.155 24.562 384.892C-2.81315 384.735 -29.3873 370.542 -44.1973 345.243ZM-45.0924 345.242C-58.6968 369.196 -59.6566 399.498 -45.022 425.115C-72.5366 424.958 -99.242 410.62 -114.007 385.079C-128.771 359.537 -127.868 329.24 -114.272 305.318C-99.3773 330.785 -72.6396 345.076 -45.0924 345.242ZM306.568 218.591C316.636 197.281 317.227 171.89 306.478 149.398C320.604 169.94 342.903 182.099 366.396 184.01C354.839 184.943 343.303 188.396 332.598 194.585C321.893 200.773 313.145 209.045 306.568 218.591ZM373.357 183.75L373.495 183.751L373.686 183.753C373.912 183.755 374.138 183.758 374.364 183.763C387.506 183.528 400.774 180.05 412.96 173.006C425.55 165.728 435.417 155.549 442.206 143.802C427.428 118.33 400.76 104.034 373.286 103.878C387.92 129.494 386.961 159.796 373.357 183.75ZM413.21 173.439C402.504 179.628 390.968 183.081 379.411 184.014C404.769 186.077 428.736 200.079 442.536 223.675C456.063 199.875 457.026 169.763 442.494 144.302C435.668 156.017 425.789 166.167 413.21 173.439ZM374.365 184.263C374.024 184.269 373.683 184.273 373.342 184.274C387.963 209.886 386.999 240.177 373.4 264.123C373.736 264.125 374.073 264.129 374.409 264.136C387.55 263.901 400.817 260.423 413.003 253.379C425.592 246.102 435.46 235.923 442.249 224.176C427.657 199.024 401.473 184.769 374.365 184.263ZM372.479 184.274C372.133 184.272 371.788 184.268 371.443 184.262C358.301 184.496 345.033 187.974 332.848 195.018C320.669 202.058 311.037 211.814 304.275 223.077C304.176 223.258 304.076 223.438 303.975 223.618C303.908 223.737 303.841 223.855 303.774 223.974C303.933 223.975 304.093 223.976 304.252 223.978C304.434 223.98 304.616 223.983 304.798 223.986C317.934 223.749 331.195 220.271 343.376 213.23C355.877 206.004 365.694 195.917 372.479 184.274ZM236.896 189.626C247.644 212.117 247.051 237.506 236.985 258.815C243.561 249.268 252.31 240.996 263.014 234.809C273.719 228.621 285.253 225.168 296.809 224.234C273.319 222.322 251.022 210.165 236.896 189.626ZM303.763 224.498C304.108 224.497 304.452 224.493 304.797 224.487C331.8 224.996 357.884 239.148 372.504 264.123C372.165 264.125 371.825 264.128 371.485 264.135C344.477 263.63 318.386 249.478 303.763 224.498ZM302.469 224.495C302.601 224.496 302.734 224.497 302.866 224.498C302.697 224.796 302.53 225.095 302.365 225.394C295.604 236.658 285.972 246.413 273.793 253.453C261.612 260.494 248.351 263.972 235.215 264.209C234.873 264.203 234.532 264.199 234.19 264.197C234.359 263.899 234.527 263.601 234.692 263.301C241.453 252.037 251.085 242.282 263.264 235.241C275.445 228.201 288.706 224.723 301.842 224.485C302.051 224.489 302.26 224.492 302.469 224.495ZM309.831 224.238C321.387 223.304 332.921 219.851 343.626 213.663C356.205 206.391 366.084 196.241 372.91 184.526C387.442 209.986 386.479 240.098 372.952 263.898C359.153 240.304 335.188 226.302 309.831 224.238ZM167.402 299.038C177.468 277.729 178.061 252.34 167.313 229.849C181.439 250.388 203.736 262.545 227.226 264.457C215.67 265.391 204.136 268.844 193.431 275.032C182.727 281.219 173.978 289.491 167.402 299.038ZM235.214 264.71C234.869 264.716 234.524 264.72 234.179 264.722C248.802 289.701 274.893 303.854 301.901 304.358C302.071 304.355 302.242 304.352 302.412 304.35L302.613 304.348L302.8 304.347L302.922 304.346C288.301 279.371 262.217 265.219 235.214 264.71ZM233.283 264.721C232.942 264.719 232.601 264.715 232.259 264.708C219.123 264.946 205.862 268.424 193.681 275.465C181.502 282.505 171.87 292.26 165.109 303.524C164.944 303.824 164.776 304.123 164.607 304.421C164.802 304.422 164.996 304.424 165.191 304.426L165.373 304.429L165.503 304.431L165.621 304.433C178.761 304.197 192.026 300.72 204.209 293.677C216.388 286.637 226.02 276.881 232.782 265.618C232.947 265.318 233.114 265.019 233.283 264.721ZM274.043 253.886C263.338 260.074 251.804 263.527 240.248 264.461C263.738 266.373 286.035 278.53 300.161 299.069C289.413 276.578 290.006 251.189 300.072 229.88C293.496 239.427 284.747 247.699 274.043 253.886ZM303.327 224.75C303.153 225.049 302.977 225.346 302.799 225.643C289.765 249.296 289.011 278.962 303.356 304.095C303.466 303.907 303.576 303.719 303.687 303.532C303.728 303.463 303.769 303.394 303.811 303.324L303.883 303.203C316.918 279.55 317.673 249.883 303.327 224.75ZM97.7295 270.073C108.477 292.564 107.885 317.953 97.8178 339.263C104.394 329.716 113.143 321.443 123.848 315.256C134.553 309.067 146.088 305.614 157.644 304.68C134.153 302.769 111.856 290.612 97.7295 270.073ZM164.596 304.945C164.937 304.943 165.279 304.939 165.621 304.933C192.626 305.439 218.716 319.592 233.338 344.569C232.994 344.571 232.649 344.575 232.305 344.581C205.302 344.073 179.216 329.921 164.596 304.945ZM162.686 304.932C162.845 304.935 163.003 304.938 163.162 304.94C163.285 304.941 163.408 304.942 163.531 304.943L163.7 304.945C163.531 305.243 163.363 305.542 163.198 305.841C156.437 317.105 146.805 326.86 134.626 333.9C122.442 340.943 109.175 344.421 96.0353 344.656C95.6982 344.65 95.361 344.646 95.0237 344.644C95.1923 344.347 95.3589 344.049 95.5236 343.751C102.285 332.486 111.917 322.729 124.098 315.688C136.281 308.646 149.547 305.168 162.686 304.932ZM170.662 304.685C182.219 303.751 193.754 300.298 204.459 294.11C215.164 287.922 223.912 279.65 230.489 270.103C220.422 291.413 219.83 316.802 230.578 339.293C216.451 318.754 194.154 306.596 170.662 304.685ZM233.215 265.867C233.393 265.57 233.57 265.272 233.744 264.973C248.092 290.11 247.335 319.782 234.295 343.436C234.119 343.729 233.945 344.024 233.773 344.319C219.427 319.186 220.181 289.52 233.215 265.867ZM28.2322 379.49C38.3018 358.177 38.894 332.784 28.1425 310.29C42.2689 330.833 64.5685 342.993 88.0621 344.904C76.5056 345.837 64.97 349.29 54.2646 355.479C43.5587 361.667 34.8091 369.941 28.2322 379.49ZM96.0353 345.157C95.6941 345.163 95.353 345.167 95.0119 345.168C109.634 370.146 135.723 384.299 162.729 384.805C163.071 384.799 163.413 384.795 163.755 384.793C149.133 359.814 123.042 345.662 96.0353 345.157ZM94.1169 345.168C93.7798 345.166 93.4429 345.162 93.1061 345.155C79.9657 345.391 66.6992 348.868 54.5148 355.912C42.3288 362.956 32.6932 372.718 25.9311 383.99C25.7647 384.291 25.5963 384.592 25.426 384.892C38.9006 384.823 52.5413 381.35 65.0426 374.124C77.2229 367.083 86.8552 357.326 93.6168 346.062C93.7095 345.894 93.8028 345.726 93.8967 345.558L93.9537 345.457L94.0051 345.365L94.1169 345.168ZM134.876 334.333C124.171 340.521 112.635 343.974 101.079 344.908C124.571 346.819 146.868 358.977 160.995 379.517C150.247 357.025 150.839 331.637 160.906 310.327C154.329 319.873 145.581 328.145 134.876 334.333ZM164.161 305.196C163.987 305.495 163.81 305.793 163.632 306.09C150.598 329.743 149.844 359.409 164.19 384.542C164.363 384.245 164.538 383.949 164.714 383.655C177.752 360.001 178.507 330.332 164.161 305.196ZM-44.6451 345.467C-58.2213 369.354 -59.1424 399.598 -44.4449 425.116C-30.877 425.096 -17.1314 421.625 -4.54137 414.347C7.64476 407.303 17.2805 397.541 24.0425 386.269C24.2044 385.976 24.3681 385.683 24.5337 385.391C-3.01323 385.225 -29.7506 370.934 -44.6451 345.467ZM25.4289 385.392C40.2388 410.691 66.8128 424.885 94.1879 425.041C80.6288 401.308 80.4558 373.552 91.3226 350.55C84.746 360.097 75.9973 368.369 65.2928 374.557C52.7135 381.828 38.9877 385.323 25.4289 385.392ZM94.05 346.312C94.2277 346.016 94.4033 345.719 94.577 345.421C108.925 370.559 108.168 400.233 95.125 423.888C94.9502 424.18 94.7772 424.472 94.6063 424.766C80.2603 399.632 81.0149 369.965 94.05 346.312ZM24.9951 385.641C24.8239 385.934 24.6508 386.227 24.4757 386.519C11.3843 410.262 10.6687 440.068 25.1822 465.266C38.7499 465.246 52.4952 461.775 65.0851 454.497C77.2707 447.453 86.9062 437.691 93.6682 426.42C93.8303 426.126 93.9942 425.833 94.1601 425.541C66.6217 425.375 39.8923 411.092 24.9951 385.641ZM24.6051 465.265C11.0451 441.53 10.8727 413.773 21.7412 390.769C15.1643 400.318 6.4147 408.592 -4.29114 414.78C-16.8705 422.052 -30.5963 425.547 -44.155 425.616C-29.345 450.915 -2.77042 465.109 24.6051 465.265ZM306.521 229.772C317.27 252.264 316.678 277.654 306.611 298.965C313.187 289.418 321.936 281.146 332.641 274.958C343.346 268.77 354.882 265.317 366.439 264.383C342.946 262.472 320.648 250.313 306.521 229.772ZM373.385 264.648C373.726 264.646 374.068 264.642 374.409 264.636C401.516 265.142 427.7 279.397 442.291 304.548C435.502 316.295 425.635 326.474 413.045 333.752C400.543 340.978 386.903 344.451 373.428 344.52C387.041 320.57 388.01 290.268 373.385 264.648ZM371.485 264.635C371.83 264.641 372.176 264.645 372.521 264.647C365.737 276.289 355.92 286.376 343.419 293.603C331.233 300.647 317.966 304.124 304.824 304.359C304.489 304.353 304.153 304.349 303.817 304.347C303.854 304.28 303.892 304.213 303.93 304.147C304.002 304.018 304.074 303.89 304.146 303.761C304.203 303.659 304.26 303.556 304.317 303.453C311.078 292.188 320.711 282.432 332.891 275.391C345.076 268.347 358.343 264.87 371.485 264.635ZM379.455 264.388C391.011 263.454 402.547 260.001 413.253 253.812C425.832 246.541 435.71 236.391 442.537 224.676C457.068 250.136 456.105 280.247 442.578 304.047C428.778 280.452 404.812 266.45 379.455 264.388ZM343.669 294.036C332.963 300.224 321.427 303.677 309.871 304.611C335.228 306.673 359.195 320.675 372.995 344.27C386.522 320.47 387.485 290.359 372.953 264.899C366.127 276.614 356.248 286.764 343.669 294.036ZM304.825 304.859C304.485 304.865 304.145 304.869 303.805 304.871C318.614 330.169 345.187 344.363 372.562 344.52C357.941 319.525 331.841 305.363 304.825 304.859ZM302.91 304.87C302.574 304.868 302.238 304.864 301.902 304.858C288.76 305.093 275.493 308.571 263.308 315.614C251.124 322.657 241.49 332.417 234.728 343.686C234.565 343.982 234.4 344.276 234.233 344.57C234.574 344.572 234.914 344.576 235.254 344.582C248.392 344.346 261.654 340.868 273.836 333.826C286.016 326.785 295.648 317.029 302.41 305.764C302.534 305.539 302.659 305.315 302.785 305.091C302.827 305.017 302.868 304.944 302.91 304.87ZM296.855 304.606C273.364 302.696 251.065 290.538 236.939 269.998C247.687 292.49 247.094 317.88 237.026 339.191C243.603 329.643 252.352 321.37 263.058 315.182C273.763 308.993 285.299 305.54 296.855 304.606ZM167.356 310.221C178.104 332.713 177.512 358.103 167.444 379.413C174.021 369.865 182.77 361.593 193.475 355.405C204.179 349.217 215.714 345.764 227.27 344.83C203.779 342.918 181.482 330.76 167.356 310.221ZM234.632 345.091C234.84 345.089 235.047 345.086 235.254 345.083C262.267 345.591 288.361 359.752 302.979 384.743C275.604 384.586 249.031 370.393 234.221 345.095C234.358 345.094 234.495 345.093 234.632 345.091ZM232.306 345.081C232.646 345.088 232.986 345.092 233.327 345.094C233.231 345.262 233.136 345.43 233.042 345.599C232.972 345.725 232.902 345.852 232.832 345.978C226.07 357.247 216.436 367.007 204.252 374.05C192.069 381.093 178.803 384.57 165.664 384.806C165.522 384.803 165.38 384.801 165.239 384.799C165.043 384.797 164.846 384.795 164.65 384.794C164.818 384.498 164.984 384.202 165.148 383.905C171.909 372.638 181.543 362.88 193.725 355.838C205.906 348.796 219.169 345.318 232.306 345.081ZM240.291 344.834C251.846 343.9 263.381 340.447 274.086 334.259C284.79 328.071 293.539 319.799 300.116 310.252C290.049 331.561 289.456 356.948 300.202 379.439C286.076 358.902 263.78 346.745 240.291 344.834ZM302.843 306.014C303.021 305.718 303.197 305.421 303.37 305.122C317.901 330.582 316.939 360.692 303.413 384.492C289.053 359.353 289.804 329.675 302.843 306.014ZM233.787 345.346C233.615 345.641 233.441 345.935 233.265 346.228C220.221 369.89 219.468 399.573 233.83 424.715C247.355 400.916 248.318 370.805 233.787 345.346ZM204.502 374.483C193.797 380.671 182.262 384.124 170.706 385.058C194.197 386.969 216.494 399.126 230.621 419.666C219.873 397.173 220.465 371.784 230.534 350.473C223.957 360.021 215.208 368.294 204.502 374.483ZM165.664 385.306C165.322 385.312 164.98 385.316 164.638 385.318C179.448 410.616 206.021 424.809 233.395 424.966C218.776 399.973 192.678 385.812 165.664 385.306ZM163.744 385.318C163.405 385.315 163.067 385.311 162.729 385.305C149.59 385.541 136.325 389.019 124.141 396.061C111.956 403.105 102.32 412.867 95.5582 424.138C95.3916 424.44 95.223 424.741 95.0524 425.041C108.527 424.973 122.168 421.5 134.669 414.273C146.851 407.231 156.485 397.473 163.246 386.206C163.41 385.909 163.576 385.613 163.744 385.318ZM157.688 385.053C134.195 383.142 111.896 370.983 97.77 350.442C108.52 372.935 107.928 398.327 97.8588 419.639C104.436 410.09 113.185 401.817 123.891 395.628C134.596 389.44 146.132 385.987 157.688 385.053ZM95.0549 425.542C109.865 450.841 136.439 465.034 163.815 465.19C150.256 441.456 150.083 413.701 160.95 390.698C154.373 400.246 145.624 408.518 134.919 414.706C122.34 421.978 108.614 425.473 95.0549 425.542ZM163.679 386.457C163.856 386.162 164.031 385.866 164.204 385.57C178.735 411.029 177.772 441.139 164.247 464.938C149.886 439.798 150.638 410.118 163.679 386.457ZM94.6213 425.791C94.4499 426.085 94.2767 426.378 94.1015 426.67C81.0109 450.412 80.2954 480.217 94.8081 505.415C108.376 505.394 122.122 501.923 134.712 494.646C147.213 487.419 157.03 477.332 163.814 465.69C136.266 465.534 109.524 451.251 94.6213 425.791ZM94.231 505.413C80.6717 481.679 80.4993 453.922 91.3675 430.919C84.7906 440.468 76.041 448.741 65.3353 454.93C52.7561 462.201 39.0306 465.696 25.472 465.765C40.2821 491.064 66.8561 505.257 94.231 505.413ZM306.565 310.148C318.238 334.574 316.534 362.419 303.845 384.743C317.32 384.675 330.96 381.202 343.461 373.975C355.962 366.749 365.779 356.662 372.564 345.02C346.885 344.874 321.907 332.453 306.565 310.148ZM373.428 345.02C386.988 344.951 400.715 341.457 413.295 334.185C425.874 326.913 435.753 316.763 442.579 305.048C464.413 343.301 451.268 392.054 413.088 414.125C400.586 421.351 386.946 424.824 373.472 424.893C387.085 400.943 388.054 370.64 373.428 345.02ZM234.262 424.967C246.951 402.641 248.654 374.797 236.981 350.37C252.323 372.677 277.301 385.097 302.98 385.243C296.196 396.885 286.379 406.972 273.878 414.198C261.377 421.425 247.737 424.898 234.262 424.967ZM372.895 424.894C345.418 424.836 318.709 410.632 303.847 385.243C317.406 385.175 331.132 381.68 343.711 374.408C356.291 367.136 366.169 356.986 372.996 345.271C387.579 370.821 386.558 401.055 372.895 424.894ZM234.264 425.467C247.823 425.398 261.549 421.903 274.128 414.631C286.708 407.36 296.586 397.209 303.413 385.494C317.996 411.044 316.975 441.278 303.312 465.117C275.835 465.059 249.126 450.855 234.264 425.467ZM167.398 390.593C182.739 412.9 207.718 425.32 233.397 425.466C226.613 437.109 216.796 447.196 204.295 454.422C191.793 461.649 178.153 465.122 164.679 465.19C177.368 442.865 179.071 415.02 167.398 390.593ZM233.729 505.34C206.252 505.282 179.544 491.078 164.682 465.69C178.24 465.621 191.966 462.127 204.545 454.855C217.124 447.583 227.003 437.433 233.83 425.718C248.413 451.267 247.392 481.501 233.729 505.34ZM164.248 465.939C179.15 491.399 205.893 505.683 233.441 505.839C226.656 517.482 216.839 527.569 204.338 534.795C166.157 556.866 117.349 543.925 95.098 505.914C108.657 505.845 122.382 502.35 134.962 495.078C147.542 487.806 157.421 477.655 164.248 465.939ZM303.889 465.116C316.577 442.792 318.281 414.949 306.61 390.523C321.952 412.827 346.929 425.247 372.607 425.393C365.823 437.035 356.006 447.122 343.504 454.348C331.003 461.575 317.363 465.048 303.889 465.116ZM303.024 465.616C277.345 465.47 252.367 453.05 237.025 430.744C248.697 455.171 246.994 483.015 234.305 505.34C247.78 505.271 261.42 501.798 273.922 494.571C286.423 487.345 296.24 477.258 303.024 465.616Z" fill="#FDFDFD"/>
</svg>
