<svg width="328" height="328" viewBox="0 0 328 328" fill="none" xmlns="http://www.w3.org/2000/svg">
<path fill-rule="evenodd" clip-rule="evenodd" d="M94.7807 -150.509C101.565 -162.151 111.382 -172.239 123.883 -179.465C162.065 -201.536 210.873 -188.595 233.124 -150.583C219.565 -150.514 205.839 -147.02 193.259 -139.748C180.679 -132.476 170.8 -122.325 163.974 -110.61C149.071 -136.069 122.329 -150.353 94.7807 -150.509ZM94.2032 -150.51C101.035 -162.331 110.964 -172.574 123.633 -179.898C162.137 -202.155 211.38 -189.027 233.702 -150.584C261.441 -150.526 288.402 -136.14 303.327 -110.436C331.067 -110.378 358.029 -95.9913 372.955 -70.2863C400.744 -70.2281 427.752 -55.7902 442.661 -29.999C457.57 -4.20775 456.602 26.4025 442.784 50.5123C457.61 76.2748 456.62 106.819 442.826 130.886C457.651 156.648 456.662 187.191 442.869 211.258C465.042 249.787 451.841 299.011 413.338 321.268C400.669 328.592 386.837 332.084 373.185 332.105C366.353 343.925 356.424 354.168 343.755 361.492C331.086 368.815 317.254 372.308 303.601 372.328C296.77 384.149 286.841 394.392 274.172 401.715C261.503 409.038 247.671 412.531 234.018 412.551C227.187 424.372 217.257 434.615 204.588 441.939C166.085 464.196 116.841 451.068 94.5197 412.625C66.7807 412.567 39.8194 398.181 24.8939 372.477C-2.84572 372.419 -29.8078 358.032 -44.7333 332.327C-72.5222 332.269 -99.5307 317.831 -114.44 292.04C-129.348 266.248 -128.38 235.638 -114.562 211.529C-129.388 185.766 -128.399 155.222 -114.605 131.155C-129.43 105.393 -128.441 74.8492 -114.647 50.7826C-136.82 12.2536 -123.62 -36.9702 -85.1163 -59.2275C-72.4474 -66.5509 -58.6157 -70.0434 -44.9629 -70.0638C-38.1315 -81.8845 -28.202 -92.1273 -15.5332 -99.4507C-2.86424 -106.774 10.9676 -110.267 24.6205 -110.287C31.4519 -122.108 41.3814 -132.351 54.0503 -139.674C66.719 -146.997 80.5505 -150.49 94.2032 -150.51ZM233.414 -150.084C219.846 -150.064 206.1 -146.593 193.509 -139.315C181.008 -132.089 171.191 -122.002 164.407 -110.36C191.955 -110.203 218.697 -95.9198 233.6 -70.4598C233.771 -70.7533 233.944 -71.0459 234.119 -71.3375C247.211 -95.08 247.927 -124.886 233.414 -150.084ZM236.854 -75.5886C247.722 -98.5916 247.55 -126.348 233.991 -150.083C261.365 -149.926 287.939 -135.733 302.749 -110.435C289.191 -110.366 275.465 -106.871 262.886 -99.5996C252.18 -93.4109 243.431 -85.1374 236.854 -75.5886ZM234.061 -70.2108C234.227 -70.502 234.39 -70.7941 234.552 -71.0871C241.314 -82.3592 250.95 -92.1221 263.136 -99.1667C275.726 -106.444 289.471 -109.915 303.039 -109.936C317.553 -84.7356 316.837 -54.9268 303.742 -31.1831C303.568 -30.8931 303.396 -30.6022 303.226 -30.3103C288.329 -55.7621 261.6 -70.0447 234.061 -70.2108ZM233.098 -68.5611C233.272 -68.8514 233.445 -69.1426 233.615 -69.4348C247.963 -44.2976 247.206 -14.6256 234.165 9.02919C233.99 9.32177 233.816 9.61537 233.645 9.90995C219.295 -15.2298 220.054 -44.9052 233.098 -68.5611ZM232.665 -68.8107C232.831 -69.1118 232.999 -69.412 233.169 -69.7112C219.694 -69.6426 206.054 -66.1696 193.552 -58.9431C181.374 -51.9032 171.743 -42.1488 164.982 -30.8864C164.816 -30.5857 164.648 -30.2859 164.478 -29.9872C164.814 -29.9852 165.15 -29.981 165.486 -29.9748C178.627 -30.2095 191.895 -33.6873 204.08 -40.7312C216.267 -47.7757 225.903 -57.5386 232.665 -68.8107ZM170.532 -29.723C182.089 -30.6568 193.625 -34.1098 204.33 -40.2983C215.036 -46.487 223.786 -54.7605 230.363 -64.3094C220.293 -42.9968 219.701 -17.6036 230.453 4.89071C216.326 -15.6523 194.026 -27.8122 170.532 -29.723ZM164.466 -29.463C164.806 -29.4647 165.146 -29.4686 165.486 -29.4746C192.494 -28.9708 218.586 -14.8181 233.209 10.1618C232.865 10.1635 232.52 10.1675 232.176 10.1737C205.173 9.66548 179.087 -4.48689 164.466 -29.463ZM162.564 -29.4758C162.899 -29.4696 163.235 -29.4655 163.571 -29.4634C163.511 -29.3577 163.452 -29.2519 163.392 -29.1459C163.283 -28.9523 163.175 -28.7582 163.068 -28.5638C156.307 -17.3015 146.676 -7.54709 134.497 -0.507299C122.318 6.53306 109.057 10.0108 95.9225 10.2487C95.5802 10.2423 95.2377 10.238 94.8951 10.236C95.0641 9.93828 95.2312 9.63965 95.3964 9.34001C102.158 -1.92357 111.79 -11.6791 123.969 -18.7194C136.154 -25.7634 149.422 -29.2411 162.564 -29.4758ZM162.564 -29.976C162.903 -29.982 163.243 -29.9859 163.583 -29.9876C148.773 -55.2857 122.2 -69.4789 94.8263 -69.6362C109.447 -44.6414 135.547 -30.4799 162.564 -29.976ZM97.5998 -64.3367C111.727 -43.7965 134.025 -31.6382 157.517 -29.7276C145.96 -28.7938 134.424 -25.3408 123.719 -19.1523C113.015 -12.9646 104.266 -4.6927 97.6893 4.85421C107.756 -16.4559 108.348 -41.8452 97.5998 -64.3367ZM91.1974 -75.4122C75.8559 -97.7187 50.877 -110.14 25.198 -110.286C31.9822 -121.928 41.7994 -132.015 54.3005 -139.241C66.8015 -146.468 80.4417 -149.941 93.916 -150.009C81.2267 -127.684 79.524 -99.8391 91.1974 -75.4122ZM94.3918 -70.3881C79.8088 -95.9373 80.8298 -126.171 94.4923 -150.01C121.969 -149.952 148.678 -135.748 163.541 -110.36C149.982 -110.291 136.256 -106.796 123.676 -99.5246C111.097 -92.253 101.218 -82.1031 94.3918 -70.3881ZM-84.866 -58.7946C-123.047 -36.7238 -136.191 12.0294 -114.358 50.2819C-107.531 38.5671 -97.6529 28.4173 -85.0738 21.1458C-72.4935 13.8736 -58.7667 10.3789 -45.2069 10.3105C-59.8323 -15.3099 -58.8632 -45.6125 -45.2501 -69.5627C-58.7245 -69.4941 -72.3649 -66.0211 -84.866 -58.7946ZM-15.283 -99.0178C-2.78175 -106.244 10.8587 -109.717 24.3333 -109.786C11.6442 -87.4612 9.94106 -59.6173 21.6133 -35.1907C6.27162 -57.4962 -18.7068 -69.9167 -44.3854 -70.0625C-37.6012 -81.7046 -27.784 -91.7914 -15.283 -99.0178ZM24.9096 -109.787C11.2469 -85.9477 10.2257 -55.7141 24.8085 -30.1649C31.6351 -41.8798 41.5135 -52.0297 54.0928 -59.3013C66.6722 -66.573 80.3981 -70.0677 93.957 -70.1365C79.0951 -95.5245 52.3863 -109.729 24.9096 -109.787ZM28.1063 45.0774C38.173 23.768 38.7653 -1.62022 28.018 -24.1112C42.1439 -3.57326 64.4398 8.58417 87.9296 10.4959C76.3744 11.4302 64.84 14.8831 54.1357 21.0708C43.4315 27.2585 34.6829 35.5305 28.1063 45.0774ZM25.2429 -29.413C39.8597 -4.42393 65.951 9.73707 92.9608 10.2475C93.3072 10.2413 93.6535 10.2373 93.9997 10.2355C79.1901 -15.0627 52.6171 -29.2559 25.2429 -29.413ZM95.9227 10.7489C95.5761 10.7551 95.2296 10.7591 94.8832 10.7609C109.505 35.7386 135.594 49.891 162.599 50.3972C162.942 50.3911 163.284 50.3872 163.626 50.3854C149.007 25.4114 122.924 11.2592 95.9227 10.7489ZM93.9878 10.7604C93.6452 10.7584 93.3027 10.7541 92.9604 10.7477C79.8256 10.9856 66.5651 14.4634 54.386 21.5037C42.2067 28.5441 32.5749 38.2995 25.8134 49.5631C25.6482 49.8629 25.4809 50.1617 25.3118 50.4596C25.6522 50.4617 25.9924 50.4659 26.3325 50.4722C39.4696 50.2354 52.7325 46.7576 64.9138 39.7161C77.093 32.6758 86.7246 22.9204 93.4861 11.657C93.6514 11.3572 93.8186 11.0583 93.9878 10.7604ZM134.747 -0.0744197C124.043 6.11331 112.509 9.56618 100.954 10.5005C124.444 12.4123 146.74 24.5699 160.866 45.1082C150.118 22.6173 150.71 -2.77092 160.777 -24.0804C154.2 -14.5337 145.452 -6.26202 134.747 -0.0744197ZM164.017 -30.2388C164.192 -30.539 164.369 -30.8381 164.548 -31.1362C177.584 -54.7962 178.334 -84.472 163.975 -109.609C150.449 -85.809 149.486 -55.6982 164.017 -30.2388ZM164.407 -109.86C177.966 -86.1266 178.139 -58.372 167.273 -35.3699C173.85 -44.9166 182.598 -53.1883 193.302 -59.3759C205.882 -66.6476 219.607 -70.1423 233.166 -70.2112C218.356 -95.51 191.782 -109.703 164.407 -109.86ZM164.032 -29.2108C163.857 -28.9108 163.68 -28.6119 163.501 -28.3141C150.469 -4.66175 149.716 25.0025 164.061 50.1342C164.231 49.8416 164.404 49.5501 164.578 49.2595C177.622 25.6038 178.381 -4.07119 164.032 -29.2108ZM-44.6738 -69.5636C-58.3367 -45.7244 -59.3578 -15.4906 -44.7749 10.0588C-37.9483 -1.65633 -28.0697 -11.8064 -15.4903 -19.0781C-2.91081 -26.3498 10.8151 -29.8445 24.374 -29.9134C9.51203 -55.3015 -17.1969 -69.5057 -44.6738 -69.5636ZM-44.774 11.0598C-58.3006 34.8598 -59.2638 64.9712 -44.7321 90.4309C-37.9056 78.716 -28.0271 68.5661 -15.4478 61.2945C-4.74306 55.1065 6.79183 51.6536 18.3475 50.7194C-7.00892 48.6562 -30.9743 34.6543 -44.774 11.0598ZM23.3834 50.471C-3.6284 49.9626 -29.7224 35.8015 -44.3403 10.8109C-16.9663 10.9681 9.60644 25.1612 24.416 50.4592C24.3189 50.4597 24.2217 50.4603 24.1245 50.4612C24.067 50.4617 24.0095 50.4623 23.952 50.4629C23.852 50.464 23.752 50.4652 23.6519 50.4667C23.5624 50.468 23.4729 50.4694 23.3834 50.471ZM25.2997 50.9843C25.6438 50.9825 25.988 50.9786 26.3323 50.9724C53.3356 51.4805 79.4218 65.6327 94.0425 90.6086C93.6983 90.6103 93.3542 90.6143 93.0098 90.6205C66.0065 90.1124 39.9204 75.9602 25.2997 50.9843ZM23.3836 50.9712C23.7238 50.9776 24.0641 50.9818 24.4046 50.9838C24.2355 51.2816 24.0684 51.5803 23.9032 51.8799C17.1417 63.1435 7.51 72.8989 -4.66927 79.9393C-16.8568 86.9844 -30.1272 90.4621 -43.271 90.6957C-43.614 90.6894 -43.9571 90.6853 -44.3004 90.6833C-37.5162 79.041 -27.6989 68.9539 -15.1976 61.7273C-3.01634 54.6858 10.2465 51.2081 23.3836 50.9712ZM31.3687 50.7241C42.9244 49.7899 54.4593 46.337 65.164 40.149C75.8682 33.9613 84.6168 25.6894 91.1934 16.1425C81.1266 37.4522 80.5344 62.8407 91.2821 85.3318C77.156 64.7931 54.8592 52.6354 31.3687 50.7241ZM93.9197 11.9064C94.098 11.6094 94.2743 11.3112 94.4486 11.0121C108.797 36.1503 108.039 65.8234 94.9973 89.4786C94.8221 89.7707 94.6488 90.0638 94.4775 90.3578C80.132 65.2251 80.886 35.5593 93.9197 11.9064ZM94.3916 -69.3851C108.751 -44.2473 108.001 -14.5704 94.9632 9.0899C94.785 9.38699 94.6086 9.68513 94.4343 9.98429C79.9031 -15.4748 80.8659 -45.5853 94.3916 -69.3851ZM24.851 50.208C10.3195 24.7486 11.2824 -5.36233 24.8084 -29.1622C39.1682 -4.02433 38.4179 25.6529 25.38 49.3133C25.2017 49.6105 25.0253 49.9087 24.851 50.208ZM24.8651 51.236C24.6909 51.5349 24.5147 51.8328 24.3366 52.1297C11.303 75.7825 10.549 105.448 24.8945 130.581C25.0655 130.288 25.2384 129.995 25.4132 129.704C38.4557 106.048 39.2136 76.3746 24.8651 51.236ZM-4.41904 80.3721C-15.1252 86.561 -26.6618 90.014 -38.2191 90.9476C-14.7255 92.8579 7.57441 105.017 21.7013 125.56C10.9513 103.067 11.5429 77.6767 21.6104 56.3656C15.0338 65.9125 6.28518 74.1844 -4.41904 80.3721ZM-43.2702 91.1959C-43.608 91.2019 -43.9457 91.2057 -44.2833 91.2074C-29.6603 116.187 -3.56832 130.34 23.4395 130.844C23.7794 130.838 24.1192 130.834 24.4588 130.832C9.83466 105.851 -16.2602 91.6977 -43.2702 91.1959ZM-45.1786 91.207C-45.5124 91.205 -45.8461 91.2009 -46.1796 91.1947C-59.3233 91.4284 -72.5936 94.9061 -84.781 101.951C-97.371 109.229 -107.239 119.408 -114.028 131.155C-99.4371 156.305 -73.2556 170.56 -46.1507 171.068C-45.8075 171.061 -45.4644 171.058 -45.1213 171.056C-59.7418 145.444 -58.7785 115.153 -45.1786 91.207ZM-85.0313 101.518C-74.3251 95.3295 -62.7885 91.8765 -51.2312 90.9429C-76.5893 88.8809 -100.557 74.8787 -114.357 51.2829C-127.884 75.083 -128.847 105.195 -114.316 130.655C-107.489 118.94 -97.6105 108.79 -85.0313 101.518ZM-114.07 50.7821C-99.4769 75.9357 -73.2892 90.1911 -46.1797 90.6946C-45.841 90.6886 -45.5024 90.6848 -45.164 90.683C-59.7892 65.0629 -58.8203 34.7607 -45.2075 10.8106C-58.682 10.8792 -72.3224 14.3522 -84.8235 21.5787C-97.4134 28.8564 -107.281 39.0352 -114.07 50.7821ZM-15.24 -18.6452C-27.7414 -11.4187 -37.5586 -1.33163 -44.3429 10.3108C-18.6639 10.4566 6.31487 22.8774 21.6565 45.1836C9.98341 20.7566 11.6864 -7.0881 24.3759 -29.4133C10.9015 -29.3447 -2.73893 -25.8716 -15.24 -18.6452ZM163.542 -109.86C150.068 -109.791 136.428 -106.318 123.926 -99.0917C111.425 -91.8653 101.608 -81.7785 94.8239 -70.1363C120.503 -69.9903 145.481 -57.5697 160.823 -35.2639C149.15 -59.6906 150.853 -87.5349 163.542 -109.86ZM167.227 -24.1857C177.975 -1.69297 177.382 23.6976 167.313 45.0082C173.89 35.4593 182.64 27.1858 193.346 20.9971C204.05 14.8092 215.585 11.3563 227.14 10.4221C203.65 8.5108 181.353 -3.64693 167.227 -24.1857ZM234.641 10.6822C234.803 10.6803 234.964 10.6779 235.126 10.675C262.129 11.1832 288.215 25.3353 302.836 50.3112C302.647 50.3122 302.458 50.3138 302.269 50.3161C302.122 50.3179 301.976 50.32 301.83 50.3226C274.818 49.8235 248.719 35.6706 234.094 10.6869L234.233 10.6861L234.326 10.6854C234.431 10.6845 234.536 10.6835 234.641 10.6822ZM232.176 10.6738C232.517 10.6802 232.857 10.6844 233.198 10.6865C233.031 10.98 232.866 11.2745 232.703 11.5699C225.942 22.8389 216.307 32.5991 204.123 39.6421C191.94 46.6847 178.675 50.1625 165.536 50.3984C165.198 50.3921 164.859 50.3879 164.521 50.3859C164.686 50.0948 164.849 49.8029 165.011 49.51C171.773 38.2377 181.409 28.4746 193.596 21.43C205.777 14.3886 219.039 10.9108 232.176 10.6738ZM240.162 10.4266C251.717 9.49239 263.252 6.03952 273.956 -0.148379C284.663 -6.33733 293.413 -14.6113 299.99 -24.1606C289.92 -2.8487 289.327 22.5438 300.078 45.0377C285.952 24.497 263.654 12.338 240.162 10.4266ZM302.294 -28.6656C295.531 -17.3915 285.895 -7.62684 273.706 -0.581258C261.525 6.46014 248.263 9.9379 235.126 10.1749C234.785 10.1685 234.445 10.1643 234.104 10.1622C234.271 9.86887 234.436 9.5746 234.598 9.27936C241.36 -1.98974 250.995 -11.75 263.179 -18.7932C275.68 -26.0197 289.321 -29.4927 302.795 -29.5613C302.717 -29.4243 302.64 -29.287 302.563 -29.1496C302.473 -28.9886 302.383 -28.8272 302.294 -28.6656ZM303.687 -30.0609C303.852 -30.351 304.015 -30.6419 304.176 -30.9338C310.938 -42.2076 320.575 -51.9719 332.763 -59.0173C345.353 -66.2951 359.098 -69.7659 372.666 -69.7863C387.364 -44.2678 386.443 -14.0235 372.867 9.86309C357.972 -15.6036 331.234 -29.8949 303.687 -30.0609ZM302.727 -28.4151C302.9 -28.7043 303.072 -28.9944 303.241 -29.2855C317.594 -4.13904 316.831 25.5453 303.777 49.2042C303.607 49.4884 303.438 49.7736 303.271 50.0597C288.921 24.9186 289.681 -4.75855 302.727 -28.4151ZM306.479 -35.438C317.348 -58.4416 317.176 -86.1993 303.616 -109.935C330.991 -109.779 357.566 -95.5851 372.376 -70.2855C358.818 -70.2165 345.092 -66.7218 332.513 -59.4502C321.806 -53.2612 313.056 -44.9873 306.479 -35.438ZM54.343 -58.8684C66.8442 -66.0949 80.4847 -69.5679 93.9593 -69.6365C81.2702 -47.3118 79.567 -19.468 91.2392 4.95848C75.8975 -17.3469 50.9191 -29.7673 25.2406 -29.9131C32.0248 -41.5552 41.8419 -51.642 54.343 -58.8684ZM97.7305 85.2306C107.799 63.9205 108.392 38.5307 97.644 16.0384C111.771 36.5771 134.068 48.7346 157.559 50.6456C146.003 51.5796 134.467 55.0325 123.762 61.2207C113.057 67.4091 104.307 75.6823 97.7305 85.2306ZM165.536 50.8985C165.194 50.9046 164.852 50.9086 164.51 50.9103C179.135 75.8939 205.233 90.0469 232.246 90.5463C232.581 90.5403 232.917 90.5365 233.252 90.5348C218.631 65.5571 192.542 51.4046 165.536 50.8985ZM163.615 50.9099C163.276 50.9078 162.938 50.9037 162.599 50.8974C149.46 51.1333 136.195 54.611 124.012 61.6536C111.828 68.6972 102.193 78.4583 95.4307 89.7283C95.2683 90.0228 95.104 90.3164 94.9378 90.609C95.2784 90.6111 95.6188 90.6153 95.959 90.6216C109.096 90.3847 122.359 86.9069 134.54 79.8655C146.726 72.8209 156.362 63.0581 163.124 51.786C163.238 51.5801 163.352 51.3747 163.468 51.1698C163.517 51.083 163.566 50.9964 163.615 50.9099ZM204.373 40.075C193.668 46.2632 182.133 49.7161 170.577 50.6502C194.068 52.5611 216.366 64.7189 230.492 85.258C219.744 62.7658 220.337 37.3759 230.405 16.0657C223.828 25.6138 215.079 33.8867 204.373 40.075ZM234.033 -69.7109C247.593 -45.9764 247.765 -18.2198 236.897 4.78327C243.474 -4.7648 252.223 -13.0377 262.929 -19.226C275.508 -26.4977 289.234 -29.9924 302.793 -30.0613C287.983 -55.3609 261.408 -69.5546 234.033 -69.7109ZM233.658 10.9384C233.486 11.233 233.313 11.5266 233.137 11.8192C220.096 35.474 219.339 65.146 233.687 90.2834C233.734 90.2021 233.782 90.1208 233.83 90.0396C233.952 89.8306 234.076 89.622 234.201 89.414C247.248 65.7574 248.008 36.0799 233.658 10.9384ZM28.0597 56.2606C38.8084 78.7532 38.2156 104.144 28.147 125.454C34.7239 115.906 43.4735 107.632 54.1792 101.444C64.8837 95.256 76.4185 91.8031 87.974 90.8688C64.4831 88.9576 42.186 76.7997 28.0597 56.2606ZM94.926 91.1337C95.2702 91.1319 95.6145 91.128 95.9589 91.1218C122.962 91.6298 149.049 105.782 163.67 130.758C163.332 130.76 162.993 130.764 162.655 130.77C135.645 130.268 109.55 116.115 94.926 91.1337ZM93.01 91.1206C93.3503 91.127 93.6908 91.1312 94.0314 91.1333C93.8652 91.4258 93.7009 91.7193 93.5385 92.0138C86.7766 103.284 77.1416 113.045 64.9567 120.089C52.7714 127.133 39.5036 130.61 26.3622 130.845C26.0264 130.839 25.6905 130.835 25.3544 130.833C25.5203 130.541 25.6843 130.248 25.8464 129.954C32.6084 118.683 42.2438 108.921 54.4294 101.877C66.6104 94.8354 79.8731 91.3576 93.01 91.1206ZM100.995 90.8734C112.551 89.9392 124.085 86.4863 134.79 80.2984C145.496 74.1097 154.246 65.8361 160.823 56.2873C150.754 77.5979 150.161 102.988 160.909 125.481C146.783 104.942 124.486 92.7847 100.995 90.8734ZM163.558 52.0353C163.732 51.7449 163.904 51.4536 164.075 51.1612C178.426 76.3049 177.665 105.985 164.615 129.643C164.443 129.93 164.273 130.218 164.104 130.507C149.755 105.367 150.514 75.6914 163.558 52.0353ZM94.4913 91.3851C94.3913 91.5566 94.2907 91.7279 94.1894 91.8988L94.1388 91.984L94.07 92.0996L93.9719 92.2636C80.9299 115.919 80.1722 145.592 94.5206 170.73C94.6894 170.441 94.8602 170.152 95.0327 169.864C108.081 146.207 108.842 116.528 94.4913 91.3851ZM65.2069 120.522C54.5013 126.71 42.9655 130.163 31.4088 131.097C54.9006 133.007 77.1987 145.165 91.3255 165.705C80.5772 143.212 81.1701 117.822 91.2386 96.5117C84.6618 106.06 75.9124 114.333 65.2069 120.522ZM25.6509 131.355L25.5417 131.356L25.343 131.357C39.9697 156.343 66.0709 170.496 93.0858 170.993C93.4193 170.987 93.7527 170.984 94.086 170.982C79.463 146.002 53.3708 131.849 26.3628 131.345C26.2492 131.347 26.1355 131.349 26.0219 131.351C25.9478 131.352 25.8737 131.352 25.7996 131.353L25.6509 131.355ZM24.4484 131.356C24.1122 131.354 23.7762 131.35 23.4403 131.344C10.2989 131.579 -2.9688 135.057 -15.1541 142.1C-27.6553 149.327 -37.4726 159.414 -44.2568 171.056C-43.9092 171.058 -43.5618 171.062 -43.2145 171.069C-30.0753 170.833 -16.81 167.355 -4.62678 160.313C7.55885 153.268 17.1943 143.507 23.9563 132.236C24.1185 131.942 24.2824 131.649 24.4484 131.356ZM18.3936 131.092C-6.96413 129.03 -30.9311 115.028 -44.7312 91.4319C-58.2583 115.232 -59.2214 145.344 -44.689 170.805C-37.8624 159.089 -27.9838 148.939 -15.4043 141.668C-4.69877 135.479 6.83706 132.026 18.3936 131.092ZM24.3894 132.486C24.5641 132.195 24.7369 131.902 24.9078 131.609C39.2598 156.754 38.4977 186.437 25.4454 210.095C25.2743 210.38 25.1051 210.666 24.9377 210.954C10.5891 185.815 11.3468 156.141 24.3894 132.486ZM-38.1733 171.321C-26.6171 170.387 -15.0817 166.934 -4.37655 160.745C6.32918 154.557 15.0787 146.283 21.6556 136.735C11.5862 158.047 10.9941 183.44 21.7455 205.934C7.61926 185.392 -14.68 173.232 -38.1733 171.321ZM-44.2404 171.581C-43.8984 171.579 -43.5563 171.575 -43.2142 171.569C-16.2086 172.075 9.88032 186.228 24.5021 211.206C24.3244 211.206 24.1466 211.208 23.9689 211.21L23.8054 211.212L23.6965 211.214L23.5027 211.217C-3.51226 210.72 -29.6136 196.566 -44.2404 171.581ZM-46.1505 171.568C-45.8123 171.574 -45.4738 171.578 -45.1353 171.58C-58.7393 195.534 -59.6989 225.836 -45.0641 251.453C-72.5389 251.296 -99.2069 237 -113.985 211.528C-107.196 199.781 -97.3281 189.602 -84.7381 182.324C-72.5549 175.281 -59.2897 171.804 -46.1505 171.568ZM-51.1916 171.316C-62.7478 172.25 -74.2831 175.703 -84.9883 181.891C-97.5677 189.163 -107.446 199.313 -114.273 211.028C-128.805 185.568 -127.842 155.456 -114.315 131.656C-100.515 155.251 -76.5487 169.253 -51.1916 171.316ZM236.938 85.1585C247.009 63.8457 247.601 38.4519 236.85 15.9571C250.977 36.501 273.278 48.661 296.773 50.571C285.215 51.5044 273.678 54.9574 262.972 61.1465C252.265 67.3354 243.515 75.6093 236.938 85.1585ZM304.177 50.8317C304.025 50.8333 303.872 50.8345 303.72 50.8353C318.343 75.8152 344.435 89.9679 371.443 90.4717C371.782 90.4657 372.122 90.4619 372.462 90.4601C357.836 65.476 331.737 51.3229 304.724 50.824C304.542 50.8271 304.359 50.8297 304.177 50.8317ZM302.663 50.8338C302.571 50.8331 302.479 50.8322 302.387 50.8311C302.201 50.829 302.016 50.8262 301.83 50.8228C288.684 51.0553 275.412 54.533 263.222 61.5794C251.034 68.625 241.397 78.3896 234.634 89.6637C234.474 89.9551 234.311 90.2456 234.147 90.5353C234.479 90.5373 234.811 90.5413 235.142 90.5474C248.288 90.3146 261.56 86.8369 273.749 79.7908C285.942 72.7424 295.582 62.9728 302.345 51.693C302.426 51.5463 302.507 51.3998 302.589 51.2535L302.671 51.1083C302.722 51.0171 302.774 50.926 302.825 50.8349L302.663 50.8338ZM343.583 40C332.877 46.1891 321.34 49.6421 309.782 50.5756C335.141 52.637 359.109 66.6393 372.91 90.2357C386.436 66.4356 387.399 36.3239 372.867 10.864C366.041 22.5788 356.162 32.7285 343.583 40ZM343.333 39.5671C355.843 32.3358 365.665 22.24 372.45 10.5878C358.966 10.6518 345.316 14.1246 332.806 21.356C320.613 28.4044 310.973 38.174 304.21 49.4538C304.175 49.5185 304.139 49.5831 304.103 49.6476L304.013 49.8099C303.964 49.8967 303.915 49.9835 303.867 50.0701C303.821 50.1507 303.776 50.2312 303.73 50.3116C303.891 50.3126 304.052 50.3141 304.214 50.316C304.384 50.3181 304.554 50.3207 304.725 50.3238C317.871 50.0912 331.143 46.6136 343.333 39.5671ZM442.493 50.0119C427.599 24.5453 400.861 10.2541 373.314 10.0882C386.918 -13.8658 387.878 -44.1681 373.243 -69.7851C400.758 -69.6281 427.464 -55.2905 442.228 -29.7487C456.993 -4.20699 456.089 26.0905 442.493 50.0119ZM167.27 56.1864C178.018 78.6802 177.425 104.072 167.355 125.383C173.932 115.834 182.682 107.559 193.389 101.37C204.095 95.1812 215.632 91.7282 227.189 90.7946C203.696 88.885 181.397 76.7269 167.27 56.1864ZM234.135 91.059C234.471 91.0572 234.806 91.0535 235.142 91.0476C262.155 91.5468 288.253 105.7 302.879 130.684C302.653 130.685 302.427 130.687 302.201 130.69C302.083 130.692 301.964 130.694 301.845 130.696C274.842 130.187 248.756 116.035 234.135 91.059ZM232.246 91.0464C232.362 91.0485 232.478 91.0505 232.595 91.0521C232.81 91.0551 233.026 91.0573 233.241 91.0586C233.137 91.2411 233.034 91.424 232.932 91.6073C232.872 91.7148 232.813 91.8225 232.753 91.9302C225.991 103.204 216.354 112.969 204.166 120.014C191.978 127.059 178.709 130.537 165.565 130.771C165.231 130.765 164.897 130.761 164.563 130.759C164.648 130.61 164.732 130.461 164.815 130.312L164.904 130.152L164.956 130.059L165.048 129.894C171.81 118.617 181.448 108.85 193.639 101.803C205.828 94.757 219.1 91.2792 232.246 91.0464ZM240.199 90.7992C251.756 89.8657 263.293 86.4127 273.999 80.2237C284.707 74.0342 293.457 65.7593 300.035 56.2089C289.963 77.5213 289.37 102.915 300.121 125.41C285.993 104.868 263.693 92.709 240.199 90.7992ZM306.52 44.938C317.391 21.9341 317.22 -5.82468 303.66 -29.561C331.035 -29.4046 357.609 -15.2112 372.419 10.0878C358.86 10.1569 345.135 13.6516 332.556 20.9231C321.848 27.1126 313.098 35.3876 306.52 44.938ZM302.778 51.9424C302.949 51.6581 303.117 51.3728 303.284 51.0866C317.63 76.2191 316.876 105.885 303.842 129.537C303.741 129.707 303.64 129.876 303.539 130.046C303.464 130.175 303.388 130.303 303.313 130.432C288.961 105.285 289.724 75.6012 302.778 51.9424ZM97.7716 165.606C107.841 144.295 108.435 118.904 97.686 96.41C111.813 116.95 134.112 129.108 157.604 131.018C146.047 131.952 134.511 135.405 123.805 141.594C113.099 147.783 104.349 156.057 97.7716 165.606ZM165.566 131.271C165.228 131.277 164.89 131.281 164.553 131.283C179.173 156.259 205.259 170.411 232.263 170.919C232.347 170.917 232.43 170.916 232.514 170.915C232.605 170.913 232.696 170.912 232.787 170.911C232.956 170.909 233.126 170.908 233.295 170.907C218.671 145.925 192.576 131.773 165.566 131.271ZM163.658 131.282C163.324 131.28 162.99 131.276 162.656 131.27C149.512 131.504 136.243 134.981 124.055 142.026C111.866 149.073 102.228 158.839 95.4658 170.114C95.3607 170.305 95.2548 170.495 95.1482 170.684C95.0923 170.784 95.0362 170.883 94.9798 170.982C95.1934 170.984 95.407 170.986 95.6205 170.989C95.7364 170.99 95.8522 170.992 95.9681 170.994C109.116 170.763 122.391 167.285 134.583 160.238C146.773 153.191 156.411 143.424 163.174 132.147C163.333 131.858 163.495 131.57 163.658 131.282ZM204.416 120.447C193.71 126.636 182.174 130.089 170.617 131.023C194.109 132.933 216.408 145.091 230.535 165.631C219.786 143.138 220.38 117.746 230.449 96.4354C223.872 105.985 215.122 114.258 204.416 120.447ZM233.407 91.8098C233.334 91.9333 233.261 92.0565 233.187 92.1796C220.14 115.836 219.38 145.514 233.73 170.656C233.904 170.357 234.08 170.059 234.258 169.762C247.292 146.109 248.046 116.443 233.701 91.3102C233.603 91.4771 233.506 91.6436 233.407 91.8098ZM163.607 132.397C163.779 132.11 163.949 131.822 164.118 131.533C178.463 156.666 177.709 186.331 164.676 209.984C164.498 210.281 164.321 210.58 164.147 210.879C149.796 185.735 150.557 156.055 163.607 132.397ZM101.03 171.246C112.589 170.313 124.126 166.86 134.833 160.67C145.54 154.481 154.29 146.207 160.867 136.657C150.797 157.969 150.203 183.361 160.952 205.855C146.825 185.314 124.524 173.155 101.03 171.246ZM95.2272 171.504L95.3448 171.503C95.5528 171.501 95.7608 171.498 95.9689 171.494C122.984 171.991 149.085 186.145 163.712 211.131C163.37 211.133 163.028 211.136 162.686 211.143C135.68 210.637 109.591 196.484 94.9689 171.506C95.055 171.505 95.1411 171.505 95.2272 171.504ZM93.0867 171.493C93.4159 171.499 93.7453 171.503 94.0747 171.505C93.9109 171.794 93.7489 172.083 93.5888 172.373C86.8264 183.649 77.1887 193.415 64.9992 200.461C52.8077 207.509 39.5327 210.986 26.3848 211.218C26.0555 211.212 25.726 211.208 25.3965 211.206C25.5589 210.92 25.7196 210.633 25.8785 210.345C32.6411 199.066 42.2803 189.298 54.4724 182.25C66.6638 175.203 79.9388 171.725 93.0867 171.493ZM28.1003 136.629C42.2279 157.173 64.5294 169.332 88.0244 171.242C76.4664 172.175 64.929 175.628 54.2221 181.817C43.515 188.007 34.7646 196.281 28.1874 205.831C38.2586 184.519 38.8517 159.124 28.1003 136.629ZM94.5341 171.757C94.3653 172.047 94.1945 172.336 94.0219 172.623C80.9732 196.281 80.2126 225.96 94.5633 251.103C94.737 250.804 94.9127 250.507 95.0904 250.211C108.126 226.558 108.88 196.891 94.5341 171.757ZM65.2494 200.894C54.5424 207.083 43.005 210.536 31.4469 211.47C54.9416 213.379 77.2428 225.539 91.3704 246.082C80.6196 223.587 81.2126 198.194 91.283 176.881C84.706 186.431 75.9559 194.705 65.2494 200.894ZM26.3846 211.718C26.0517 211.724 25.7189 211.728 25.3862 211.729C40.008 236.707 66.0973 250.86 93.103 251.366C93.4447 251.36 93.7863 251.356 94.1278 251.354C79.5009 226.368 53.3995 212.215 26.3846 211.718ZM24.4917 211.729C24.1621 211.727 23.8327 211.723 23.5033 211.717C10.3552 211.948 -2.91995 215.426 -15.1116 222.474C-27.6214 229.705 -37.4435 239.801 -44.2282 251.453C-30.7447 251.389 -17.0941 247.917 -4.5843 240.685C7.6078 233.637 17.247 223.869 24.0096 212.59C24.1684 212.302 24.3292 212.015 24.4917 211.729ZM18.4408 211.465C-6.91832 209.404 -30.887 195.402 -44.6881 171.806C-58.2147 195.606 -59.1778 225.717 -44.646 251.177C-37.8194 239.462 -27.941 229.312 -15.3618 222.041C-4.65486 215.852 6.88263 212.398 18.4408 211.465ZM24.4431 212.84C24.6141 212.554 24.7832 212.268 24.9505 211.981C39.2991 237.12 38.5412 266.794 25.4986 290.449C25.3239 290.74 25.151 291.033 24.9801 291.326C10.6281 266.181 11.3904 236.498 24.4431 212.84ZM-44.1972 251.953C-30.6387 251.884 -16.9132 248.389 -4.33407 241.118C6.37304 234.929 15.1235 226.654 21.7007 217.104C10.8304 240.108 11.0019 267.866 24.562 291.602C-2.8131 291.446 -29.3872 277.252 -44.1972 251.953ZM-45.0924 251.953C-58.6967 275.907 -59.6566 306.209 -45.022 331.826C-72.5365 331.669 -99.242 317.331 -114.007 291.789C-128.771 266.248 -127.868 235.95 -114.272 212.029C-99.3772 237.496 -72.6395 251.787 -45.0924 251.953ZM306.568 125.302C316.636 103.991 317.227 78.6009 306.478 56.1089C320.604 76.6503 342.903 88.8094 366.396 90.7201C354.839 91.6539 343.303 95.1069 332.598 101.295C321.893 107.483 313.145 115.755 306.568 125.302ZM373.357 90.4606C373.693 90.4626 374.029 90.4667 374.364 90.473C387.506 90.2384 400.774 86.7606 412.96 79.7166C425.55 72.4388 435.417 62.2598 442.206 50.5127C427.428 25.0408 400.76 10.7448 373.286 10.5882C387.92 36.2048 386.961 66.5067 373.357 90.4606ZM413.21 80.1494C402.504 86.338 390.968 89.791 379.411 90.7248C404.769 92.7872 428.736 106.79 442.536 130.386C456.063 106.585 457.027 76.4731 442.494 51.0129C435.668 62.7279 425.789 72.8778 413.21 80.1494ZM374.365 90.9731C374.024 90.9792 373.683 90.983 373.342 90.9847C387.963 116.597 387 146.887 373.4 170.834C373.584 170.835 373.769 170.837 373.954 170.839C374.105 170.841 374.257 170.843 374.408 170.846C387.55 170.611 400.817 167.134 413.003 160.09C425.592 152.812 435.46 142.633 442.249 130.886C427.657 105.734 401.472 91.4789 374.365 90.9731ZM372.479 90.9845C372.133 90.9825 371.788 90.9783 371.443 90.9719C358.301 91.2066 345.033 94.6843 332.848 101.728C320.668 108.769 311.037 118.524 304.275 129.788C304.11 130.088 303.943 130.386 303.774 130.684C304.114 130.686 304.454 130.69 304.794 130.697C317.931 130.46 331.194 126.982 343.376 119.941C355.877 112.714 365.694 102.627 372.479 90.9845ZM236.896 96.3363C247.644 118.827 247.051 144.216 236.985 165.526C243.561 155.979 252.31 147.707 263.014 141.519C273.719 135.331 285.254 131.878 296.809 130.944C273.319 129.033 251.022 116.875 236.896 96.3363ZM303.763 131.209C304.107 131.207 304.451 131.203 304.795 131.197C331.798 131.705 357.884 145.857 372.505 170.833C372.165 170.835 371.825 170.839 371.485 170.845C344.478 170.341 318.386 156.189 303.763 131.209ZM301.845 131.196C302.186 131.202 302.526 131.206 302.867 131.208L302.77 131.379C302.634 131.62 302.499 131.862 302.365 132.105C295.603 143.368 285.972 153.124 273.793 160.164C261.611 167.205 248.348 170.683 235.211 170.92C234.972 170.916 234.734 170.912 234.495 170.91C234.393 170.909 234.292 170.908 234.19 170.907C234.36 170.61 234.527 170.311 234.692 170.012C241.453 158.748 251.085 148.992 263.264 141.952C275.446 134.91 288.708 131.433 301.845 131.196ZM309.83 130.949C321.386 130.014 332.921 126.562 343.626 120.374C356.205 113.102 366.084 102.952 372.91 91.2367C387.442 116.697 386.479 146.808 372.952 170.609C359.153 147.014 335.187 133.012 309.83 130.949ZM167.402 205.749C177.468 184.439 178.061 159.051 167.313 136.559C181.439 157.098 203.736 169.256 227.227 171.167C215.671 172.101 204.136 175.554 193.431 181.742C182.727 187.93 173.978 196.202 167.402 205.749ZM235.211 171.42C234.867 171.426 234.523 171.43 234.179 171.432C248.802 196.412 274.893 210.564 301.901 211.068C302.1 211.065 302.3 211.062 302.499 211.06C302.64 211.059 302.781 211.058 302.922 211.057C288.301 186.08 262.214 171.928 235.211 171.42ZM233.283 171.432C232.943 171.43 232.603 171.425 232.262 171.419C219.125 171.656 205.863 175.134 193.681 182.175C181.502 189.215 171.871 198.971 165.109 210.234C164.944 210.534 164.776 210.833 164.607 211.131C164.758 211.132 164.909 211.133 165.061 211.135C165.179 211.137 165.298 211.138 165.417 211.14C165.485 211.141 165.553 211.142 165.622 211.144C178.761 210.908 192.026 207.43 204.209 200.387C216.389 193.347 226.02 183.592 232.782 172.328C232.856 172.192 232.932 172.057 233.007 171.922C233.073 171.804 233.139 171.686 233.206 171.568L233.283 171.432ZM274.043 160.597C263.338 166.785 251.803 170.238 240.248 171.172C263.738 173.083 286.035 185.241 300.161 205.779C289.413 183.288 290.006 157.9 300.072 136.59C293.496 146.137 284.747 154.409 274.043 160.597ZM303.063 131.911C302.975 132.059 302.887 132.206 302.799 132.354C289.765 156.007 289.011 185.672 303.356 210.805C303.41 210.713 303.464 210.621 303.518 210.529C303.563 210.452 303.609 210.374 303.655 210.297L303.747 210.143L303.806 210.043L303.883 209.914C316.918 186.26 317.673 156.594 303.327 131.46C303.24 131.611 303.151 131.761 303.063 131.911ZM97.7295 176.783C108.477 199.275 107.885 224.663 97.8179 245.973C104.394 236.426 113.143 228.154 123.848 221.966C134.553 215.778 146.088 212.325 157.645 211.391C134.153 209.48 111.856 197.322 97.7295 176.783ZM164.596 211.656C164.937 211.654 165.279 211.65 165.621 211.644C192.627 212.15 218.716 226.302 233.338 251.28C232.994 251.282 232.65 251.286 232.306 251.292C205.302 250.784 179.216 236.632 164.596 211.656ZM162.685 211.643C163.023 211.649 163.362 211.653 163.7 211.655C163.531 211.953 163.364 212.252 163.198 212.552C156.437 223.815 146.805 233.57 134.626 240.611C122.443 247.653 109.177 251.131 96.0377 251.367L95.8553 251.364C95.7692 251.362 95.6831 251.361 95.597 251.36L95.4548 251.358L95.2603 251.356C95.1815 251.355 95.1027 251.355 95.0238 251.354C95.1924 251.058 95.3591 250.76 95.5238 250.461C102.285 239.196 111.918 229.44 124.098 222.399C136.281 215.356 149.546 211.879 162.685 211.643ZM170.663 211.396C182.219 210.462 193.754 207.009 204.459 200.82C215.164 194.633 223.912 186.361 230.489 176.814C220.422 198.124 219.83 223.513 230.578 246.004C216.451 225.465 194.154 213.307 170.663 211.396ZM233.215 172.577C233.313 172.414 233.411 172.251 233.507 172.087C233.558 172.002 233.608 171.916 233.658 171.831L233.744 171.684C248.092 196.821 247.335 226.493 234.294 250.148C234.209 250.29 234.123 250.433 234.039 250.576L233.94 250.744L233.87 250.862L233.773 251.029C219.427 225.896 220.181 196.23 233.215 172.577ZM28.2325 286.2C38.3019 264.887 38.894 239.495 28.1425 217.001C42.2688 237.543 64.5682 249.703 88.0616 251.614C76.5053 252.548 64.9698 256.001 54.2646 262.189C43.5589 268.378 34.8094 276.651 28.2325 286.2ZM96.038 251.867C95.6959 251.873 95.3539 251.877 95.012 251.879C109.634 276.857 135.723 291.009 162.729 291.515C163.071 291.509 163.413 291.505 163.755 291.504C149.133 266.526 123.044 252.373 96.038 251.867ZM94.117 251.878C93.7789 251.876 93.441 251.872 93.1032 251.866C79.9638 252.102 66.6983 255.579 54.5148 262.622C42.3293 269.666 32.6939 279.428 25.9319 290.699C25.7653 291.001 25.5966 291.302 25.426 291.602C38.9007 291.534 52.5413 288.061 65.0427 280.834C77.2229 273.793 86.8552 264.037 93.6168 252.772C93.7815 252.473 93.9483 252.175 94.117 251.878ZM134.876 241.044C124.171 247.232 112.636 250.685 101.079 251.619C124.571 253.53 146.868 265.688 160.995 286.227C150.247 263.736 150.839 238.347 160.906 217.037C154.329 226.584 145.581 234.856 134.876 241.044ZM163.956 212.257C163.849 212.439 163.741 212.62 163.632 212.801C150.598 236.454 149.844 266.12 164.19 291.252C164.319 291.03 164.45 290.809 164.582 290.588C164.626 290.513 164.67 290.439 164.714 290.365C177.752 266.711 178.507 237.042 164.161 211.907C164.12 211.976 164.08 212.045 164.04 212.114L163.956 212.257ZM-44.6451 252.178C-58.2213 276.064 -59.1423 306.309 -44.4448 331.827C-30.877 331.807 -17.1314 328.336 -4.54132 321.058C7.64434 314.014 17.2798 304.252 24.0418 292.981C24.2039 292.687 24.3679 292.394 24.5337 292.102C-3.0132 291.936 -29.7506 277.644 -44.6451 252.178ZM25.429 292.102C40.2388 317.402 66.8128 331.595 94.1879 331.752C80.6289 308.018 80.4558 280.263 91.3226 257.26C84.746 266.807 75.9973 275.079 65.2929 281.267C52.7135 288.539 38.9878 292.034 25.429 292.102ZM94.05 253.022C94.2276 252.726 94.4033 252.429 94.577 252.131C108.925 277.269 108.168 306.943 95.1254 330.598C94.9505 330.89 94.7774 331.182 94.6063 331.476C80.2604 306.342 81.015 276.675 94.05 253.022ZM24.9951 292.351C24.8237 292.645 24.6503 292.939 24.475 293.231C11.3843 316.974 10.669 346.779 25.1823 371.977C38.75 371.956 52.4953 368.485 65.0851 361.208C77.2705 354.164 86.9058 344.402 93.6678 333.131C93.8301 332.837 93.9941 332.544 94.1601 332.252C66.6217 332.085 39.8923 317.803 24.9951 292.351ZM24.6052 371.975C11.0453 348.241 10.8727 320.484 21.7411 297.48C15.1642 307.029 6.41465 315.302 -4.29109 321.491C-16.8705 328.762 -30.5962 332.257 -44.155 332.326C-29.3449 357.626 -2.77031 371.819 24.6052 371.975ZM306.521 136.483C317.27 158.975 316.678 184.365 306.611 205.676C313.187 196.129 321.936 187.857 332.641 181.669C343.346 175.48 354.882 172.027 366.439 171.093C342.946 169.183 320.648 157.024 306.521 136.483ZM373.385 171.358C373.726 171.356 374.067 171.352 374.408 171.346C401.515 171.852 427.699 186.107 442.291 211.258C435.502 223.005 425.635 233.184 413.045 240.462C400.543 247.689 386.903 251.162 373.428 251.23C387.041 227.28 388.01 196.978 373.385 171.358ZM371.485 171.345C371.831 171.352 372.176 171.356 372.521 171.358C365.737 183 355.92 193.087 343.419 200.313C331.233 207.357 317.966 210.835 304.824 211.07L304.647 211.067L304.487 211.064L304.347 211.062C304.17 211.06 303.993 211.058 303.817 211.057C303.985 210.761 304.152 210.463 304.316 210.164C311.078 198.899 320.71 189.143 332.891 182.102C345.076 175.058 358.344 171.58 371.485 171.345ZM379.454 171.098C391.011 170.164 402.547 166.711 413.253 160.523C425.832 153.251 435.71 143.101 442.537 131.387C457.068 156.846 456.105 186.958 442.578 210.758C428.778 187.162 404.812 173.16 379.454 171.098ZM343.669 200.746C332.963 206.935 321.427 210.388 309.871 211.321C335.228 213.384 359.195 227.385 372.995 250.981C386.522 227.181 387.485 197.069 372.953 171.61C366.127 183.325 356.248 193.475 343.669 200.746ZM304.825 211.57C304.485 211.576 304.145 211.58 303.805 211.581C318.615 236.88 345.188 251.073 372.562 251.23C357.941 226.235 331.841 212.074 304.825 211.57ZM302.009 211.571L301.902 211.569C288.761 211.803 275.493 215.281 263.308 222.325C251.124 229.368 241.49 239.128 234.728 250.397C234.565 250.692 234.4 250.987 234.233 251.28C234.574 251.282 234.914 251.287 235.255 251.293C248.392 251.056 261.655 247.578 273.836 240.537C286.016 233.496 295.648 223.739 302.41 212.474C302.575 212.176 302.741 211.878 302.91 211.581C302.731 211.58 302.553 211.578 302.374 211.576L302.253 211.574L302.123 211.572L302.009 211.571ZM296.855 211.317C273.364 209.406 251.065 197.248 236.939 176.708C247.687 199.201 247.095 224.591 237.026 245.902C243.603 236.353 252.352 228.08 263.058 221.892C273.763 215.704 285.299 212.251 296.855 211.317ZM167.356 216.932C178.104 239.424 177.512 264.813 167.444 286.124C174.021 276.576 182.77 268.303 193.475 262.115C204.179 255.927 215.714 252.474 227.27 251.54C203.779 249.629 181.482 237.471 167.356 216.932ZM234.221 251.805C234.315 251.805 234.409 251.804 234.503 251.803C234.643 251.802 234.783 251.8 234.924 251.798C235.034 251.797 235.144 251.795 235.254 251.793C262.266 252.301 288.361 266.462 302.979 291.454C275.604 291.297 249.031 277.104 234.221 251.805ZM232.894 251.801C233.038 251.803 233.182 251.804 233.327 251.805C233.16 252.098 232.995 252.393 232.832 252.688C226.07 263.957 216.436 273.717 204.252 280.76C192.069 287.803 178.803 291.281 165.664 291.517C165.326 291.51 164.988 291.506 164.65 291.504C164.736 291.353 164.821 291.202 164.906 291.051C164.987 290.906 165.067 290.761 165.148 290.615C171.909 279.348 181.543 269.59 193.725 262.548C205.906 255.507 219.169 252.029 232.306 251.792C232.502 251.796 232.698 251.799 232.894 251.801ZM240.291 251.545C251.846 250.611 263.381 247.158 274.086 240.97C284.79 234.782 293.539 226.51 300.116 216.963C290.049 238.271 289.456 263.659 300.203 286.15C286.076 265.613 263.78 253.456 240.291 251.545ZM302.843 212.724C303.021 212.428 303.197 212.131 303.37 211.833C317.902 237.292 316.939 267.403 303.413 291.202C289.053 266.063 289.804 236.385 302.843 212.724ZM233.787 252.057C233.615 252.351 233.441 252.645 233.266 252.938C220.221 276.6 219.468 306.283 233.83 331.426C247.355 307.626 248.318 277.516 233.787 252.057ZM204.502 281.193C193.797 287.381 182.262 290.834 170.706 291.768C194.197 293.679 216.494 305.837 230.621 326.376C219.873 303.884 220.466 278.494 230.534 257.184C223.957 266.732 215.208 275.005 204.502 281.193ZM165.664 292.017C165.322 292.023 164.98 292.027 164.639 292.028C179.448 317.327 206.021 331.52 233.395 331.677C218.776 306.684 192.679 292.523 165.664 292.017ZM163.744 292.028C163.405 292.026 163.067 292.022 162.73 292.016C149.59 292.251 136.325 295.729 124.141 302.772C111.956 309.816 102.321 319.577 95.5587 330.848C95.4584 331.03 95.3574 331.211 95.2557 331.392C95.1883 331.512 95.1205 331.632 95.0525 331.752C108.527 331.683 122.168 328.21 134.669 320.984C146.851 313.942 156.484 304.184 163.246 292.917C163.41 292.62 163.576 292.323 163.744 292.028ZM157.688 291.764C134.195 289.853 111.897 277.694 97.7702 257.153C108.52 279.646 107.928 305.038 97.859 326.349C104.436 316.801 113.185 308.527 123.891 302.339C134.596 296.151 146.132 292.698 157.688 291.764ZM95.0549 332.252C109.865 357.551 136.439 371.745 163.815 371.901C150.256 348.167 150.083 320.411 160.95 297.408C154.373 306.956 145.624 315.229 134.919 321.417C122.34 328.689 108.614 332.183 95.0549 332.252ZM163.679 293.167C163.782 292.996 163.884 292.824 163.985 292.653C164.059 292.529 164.131 292.404 164.204 292.28C178.735 317.739 177.772 347.849 164.247 371.649C149.886 346.509 150.638 316.828 163.679 293.167ZM94.6213 332.501C94.4498 332.796 94.2764 333.089 94.1011 333.381C81.0109 357.123 80.2957 386.928 94.8081 412.125C108.376 412.105 122.122 408.634 134.712 401.356C147.213 394.13 157.03 384.043 163.814 372.401C136.266 372.244 109.524 357.961 94.6213 332.501ZM94.231 412.124C80.6717 388.389 80.4994 360.633 91.3675 337.63C84.7906 347.179 76.041 355.452 65.3354 361.64C52.7562 368.912 39.0307 372.407 25.4722 372.476C40.2823 397.774 66.8561 411.967 94.231 412.124ZM306.565 216.858C318.238 241.285 316.535 269.129 303.845 291.454C317.32 291.385 330.96 287.912 343.461 280.686C355.962 273.459 365.78 263.372 372.564 251.73C346.885 251.584 321.907 239.164 306.565 216.858ZM373.428 251.73C386.988 251.662 400.715 248.167 413.295 240.895C425.874 233.623 435.753 223.473 442.579 211.758C464.413 250.011 451.269 298.765 413.088 320.836C400.586 328.062 386.946 331.535 373.472 331.604C387.085 307.653 388.054 277.351 373.428 251.73ZM234.262 331.677C246.951 309.352 248.654 281.508 236.981 257.081C252.323 279.387 277.302 291.808 302.981 291.954C296.196 303.596 286.379 313.683 273.878 320.909C261.377 328.135 247.737 331.608 234.262 331.677ZM372.895 331.604C345.419 331.547 318.709 317.342 303.847 291.954C317.406 291.885 331.132 288.39 343.711 281.119C356.291 273.847 366.169 263.697 372.996 251.982C387.579 277.531 386.558 307.765 372.895 331.604ZM234.264 332.177C247.823 332.108 261.549 328.614 274.128 321.342C286.708 314.07 296.586 303.92 303.413 292.205C317.996 317.754 316.975 347.988 303.312 371.828C275.835 371.77 249.126 357.565 234.264 332.177ZM167.398 297.304C182.74 319.61 207.718 332.031 233.397 332.177C226.613 343.819 216.796 353.906 204.295 361.133C191.793 368.359 178.153 371.832 164.679 371.901C177.368 349.576 179.071 321.731 167.398 297.304ZM233.729 412.051C206.252 411.993 179.544 397.789 164.682 372.401C178.24 372.332 191.966 368.837 204.545 361.566C217.124 354.294 227.003 344.144 233.83 332.429C248.413 357.978 247.392 388.212 233.729 412.051ZM164.248 372.65C179.15 398.11 205.893 412.393 233.441 412.55C226.657 424.192 216.839 434.279 204.338 441.506C166.157 463.577 117.349 450.635 95.0979 412.624C108.657 412.555 122.382 409.061 134.962 401.789C147.542 394.517 157.421 384.366 164.248 372.65ZM303.889 371.827C316.577 349.503 318.281 321.66 306.61 297.234C321.952 319.538 346.929 331.958 372.607 332.103C365.823 343.746 356.006 353.832 343.505 361.059C331.003 368.285 317.363 371.758 303.889 371.827ZM303.024 372.327C277.345 372.181 252.367 359.76 237.025 337.454C248.697 361.881 246.995 389.725 234.305 412.05C247.78 411.982 261.42 408.508 273.922 401.282C286.423 394.056 296.24 383.969 303.024 372.327Z" fill="#FDFDFD"/>
</svg>
