<svg width="1159" height="768" viewBox="0 0 1159 768" fill="none" xmlns="http://www.w3.org/2000/svg">
<path fill-rule="evenodd" clip-rule="evenodd" d="M440.561 -179.439C454.129 -202.724 473.764 -222.898 498.766 -237.351C575.129 -281.493 672.745 -255.61 717.247 -179.588C690.129 -179.45 662.677 -172.46 637.518 -157.917C612.358 -143.373 592.6 -123.072 578.947 -99.6402C549.142 -150.56 495.657 -179.127 440.561 -179.439ZM439.406 -179.442C453.069 -203.084 472.928 -223.57 498.266 -238.217C575.273 -282.732 673.76 -256.476 718.404 -179.589C773.881 -179.472 827.803 -150.7 857.654 -99.2924C913.133 -99.1768 967.058 -70.4036 996.909 -18.9934C1052.49 -18.8769 1106.5 9.99899 1136.32 61.5813C1166.14 113.164 1164.2 174.384 1136.57 222.604C1166.22 274.129 1164.24 335.217 1136.65 383.351C1166.3 434.875 1164.32 495.962 1136.74 544.095C1181.08 621.153 1154.68 719.601 1077.68 764.116C1052.34 778.762 1024.67 785.747 997.369 785.788C983.706 809.43 963.847 829.916 938.509 844.562C913.171 859.209 885.508 866.194 858.202 866.235C844.54 889.876 824.681 910.362 799.343 925.009C774.005 939.656 746.342 946.641 719.036 946.681C705.373 970.323 685.514 990.809 660.176 1005.46C583.169 1049.97 484.682 1023.72 440.039 946.829C384.561 946.713 330.638 917.94 300.787 866.532C245.308 866.416 191.384 837.643 161.533 786.233C105.955 786.116 51.9382 757.24 22.1205 705.658C-7.69725 654.076 -5.76137 592.856 21.8752 544.636C-7.77633 493.112 -5.79797 432.024 21.7895 383.89C-7.86142 332.365 -5.88272 271.278 21.705 223.144C-22.6401 146.086 3.76051 47.6387 80.767 3.1242C106.105 -11.5226 133.768 -18.5076 161.074 -18.5483C174.736 -42.1898 194.595 -62.6755 219.933 -77.3222C245.271 -91.9691 272.935 -98.9541 300.24 -98.9947C313.903 -122.636 333.762 -143.122 359.1 -157.769C384.438 -172.416 412.101 -179.401 439.406 -179.442ZM717.827 -178.589C690.691 -178.549 663.199 -171.607 638.018 -157.051C613.016 -142.598 593.382 -122.425 579.814 -99.1405C634.91 -98.8276 688.395 -70.2608 718.199 -19.3406C718.541 -19.9275 718.887 -20.5125 719.237 -21.0954C745.421 -68.5806 746.853 -128.193 717.827 -178.589ZM724.707 -29.5981C746.444 -75.6041 746.099 -131.117 718.981 -178.587C773.73 -178.274 826.877 -149.888 856.497 -99.2907C829.381 -99.1524 801.93 -92.163 776.772 -77.6201C755.36 -65.2427 737.861 -48.6957 724.707 -29.5981ZM719.122 -18.8424C719.453 -19.4249 719.78 -20.0093 720.103 -20.5955C733.627 -43.1396 752.899 -62.6652 777.272 -76.7543C802.452 -91.3096 829.942 -98.2513 857.077 -98.2924C886.107 -47.8917 884.673 11.7265 858.483 59.2142C858.136 59.7937 857.792 60.3752 857.452 60.9585C827.658 10.0549 774.199 -18.5102 719.122 -18.8424ZM717.196 -15.5427C717.544 -16.1234 717.889 -16.7061 718.229 -17.2907C746.926 32.9848 745.411 92.3299 719.329 139.64C718.978 140.224 718.632 140.811 718.289 141.399C689.59 91.1195 691.108 31.7691 717.196 -15.5427ZM716.33 -16.0428C716.662 -16.6449 716.998 -17.245 717.338 -17.8431C690.388 -17.7061 663.107 -10.76 638.104 3.69308C613.746 17.7735 594.483 37.2838 580.96 59.8103C580.629 60.4104 580.295 61.0086 579.956 61.6047C580.628 61.6088 581.299 61.617 581.971 61.6295C608.254 61.16 634.789 54.2046 659.16 40.1168C683.533 26.0275 702.805 6.50156 716.33 -16.0428ZM592.064 62.1332C615.177 60.2655 638.249 53.3596 659.66 40.9825C681.072 28.6051 698.572 12.058 711.726 -7.03972C691.586 35.5855 690.402 86.3722 711.905 131.361C683.652 90.2747 639.052 65.9546 592.064 62.1332ZM579.931 62.6531C580.611 62.6496 581.291 62.6419 581.97 62.6298C635.987 63.6372 688.171 91.9428 717.418 141.903C716.731 141.906 716.043 141.914 715.356 141.927C661.348 140.912 609.173 112.607 579.931 62.6531ZM576.127 62.6275C576.798 62.64 577.47 62.6482 578.142 62.6523C577.804 63.2486 577.469 63.847 577.138 64.4473C563.615 86.9736 544.352 106.484 519.994 120.564C495.633 134.646 469.109 141.602 442.837 142.076C442.155 142.064 441.472 142.055 440.79 142.051C441.128 141.456 441.462 140.859 441.792 140.26C455.315 117.732 474.579 98.2212 498.937 84.1402C523.308 70.0524 549.844 63.097 576.127 62.6275ZM576.127 61.6272C576.806 61.6151 577.486 61.6073 578.165 61.6039C548.546 11.0077 495.4 -17.3787 440.652 -17.6932C469.893 32.2963 522.093 60.6193 576.127 61.6272ZM446.199 -7.09462C474.452 33.986 519.049 58.3026 566.034 62.1238C542.92 63.9915 519.848 70.8974 498.437 83.2745C477.028 95.6499 459.531 112.194 446.378 131.288C466.512 88.6673 467.696 37.8886 446.199 -7.09462ZM433.395 -29.245C402.712 -73.8582 352.754 -98.7003 301.395 -98.9923C314.964 -122.277 334.598 -142.451 359.601 -156.904C384.603 -171.356 411.883 -178.302 438.832 -178.44C413.453 -133.789 410.048 -78.099 433.395 -29.245ZM439.783 -19.1972C410.617 -70.2957 412.659 -130.763 439.984 -178.441C494.938 -178.326 548.356 -149.917 578.081 -99.141C550.963 -99.0033 523.511 -92.0139 498.352 -77.4704C473.193 -62.9272 453.436 -42.6272 439.783 -19.1972ZM81.2675 3.98996C4.90585 48.1317 -21.3833 145.638 22.2837 222.143C35.9368 198.713 55.6937 178.414 80.852 163.871C106.013 149.326 133.466 142.337 160.586 142.2C131.335 90.9592 133.273 30.3543 160.499 -17.5462C133.55 -17.409 106.27 -10.4629 81.2675 3.98996ZM220.434 -76.4565C245.436 -90.9094 272.717 -97.8555 299.666 -97.9926C274.288 -53.3428 270.882 2.34559 294.227 51.1989C263.544 6.58714 213.586 -18.2541 162.229 -18.5459C175.797 -41.83 195.431 -62.0037 220.434 -76.4565ZM300.819 -97.9944C273.493 -50.3163 271.451 10.1508 300.617 61.2492C314.27 37.8194 334.027 17.5197 359.185 2.9766C384.344 -11.5668 411.796 -18.5562 438.913 -18.694C409.19 -69.47 355.772 -97.8783 300.819 -97.9944ZM307.212 211.734C327.346 169.115 328.53 118.338 307.035 73.3554C335.287 114.432 379.88 138.748 426.86 142.571C403.749 144.439 380.68 151.345 359.271 163.721C337.863 176.096 320.365 192.64 307.212 211.734ZM301.486 62.7532C330.72 112.733 382.906 141.055 436.927 142.074C437.388 142.066 437.849 142.059 438.31 142.055C438.54 142.053 438.769 142.051 438.999 142.05C409.38 91.4538 356.234 63.0675 301.486 62.7532ZM441.95 143.09C441.555 143.095 441.16 143.099 440.766 143.101C470.011 193.059 522.193 221.364 576.207 222.373C576.889 222.361 577.57 222.353 578.252 222.35C549.012 172.399 496.842 144.095 442.837 143.077C442.541 143.082 442.245 143.087 441.95 143.09ZM438.975 143.1C438.293 143.096 437.61 143.087 436.928 143.074C410.656 143.549 384.132 150.505 359.771 164.587C335.413 178.667 316.15 198.177 302.627 220.704C302.296 221.304 301.962 221.902 301.623 222.498C302.304 222.502 302.984 222.511 303.664 222.524C329.938 222.05 356.464 215.094 380.827 201.011C405.186 186.93 424.45 167.419 437.973 144.891C438.303 144.292 438.637 143.695 438.975 143.1ZM520.495 121.43C499.085 133.806 476.016 140.712 452.905 142.58C499.886 146.403 544.479 170.718 572.731 211.795C551.235 166.813 552.42 116.036 572.553 73.4173C559.4 92.5109 541.903 109.055 520.495 121.43ZM579.035 61.1015C579.384 60.5025 579.737 59.9055 580.094 59.3106C606.168 11.9901 607.669 -47.3636 578.949 -97.6388C551.897 -50.039 549.972 10.1828 579.035 61.1015ZM579.814 -98.1403C606.932 -50.6739 607.278 4.83563 585.545 50.8401C598.698 31.7464 616.196 15.2027 637.604 2.82732C662.763 -11.716 690.214 -18.7054 717.332 -18.8432C687.712 -69.4409 634.564 -97.8274 579.814 -98.1403ZM579.063 63.1574C578.714 63.7558 578.362 64.3521 578.005 64.9463C551.938 112.252 550.431 171.583 579.121 221.848C579.462 221.263 579.806 220.681 580.154 220.101C606.244 172.789 607.761 113.438 579.063 63.1574ZM161.652 -17.5479C134.326 30.1304 132.284 90.598 161.45 141.697C175.103 118.267 194.86 97.9664 220.019 83.423C245.178 68.8796 272.63 61.8902 299.747 61.7524C270.023 10.9762 216.606 -17.4321 161.652 -17.5479ZM161.452 143.699C134.398 191.299 132.472 251.521 161.535 302.441C175.188 279.011 194.945 258.711 220.104 244.168C241.513 231.792 264.583 224.886 287.695 223.018C236.982 218.892 189.051 190.888 161.452 143.699ZM297.767 222.521C243.743 221.505 191.555 193.182 162.319 143.201C217.067 143.515 270.212 171.901 299.832 222.497C299.144 222.501 298.455 222.509 297.767 222.521ZM301.599 223.548C302.287 223.544 302.976 223.536 303.665 223.524C357.671 224.54 409.843 252.845 439.084 302.796C438.396 302.8 437.708 302.808 437.02 302.82C383.013 301.804 330.84 273.5 301.599 223.548ZM297.767 223.522C298.447 223.534 299.128 223.543 299.809 223.547C299.47 224.142 299.136 224.74 298.806 225.34C285.283 247.867 266.019 267.377 241.661 281.458C217.287 295.547 190.747 302.503 164.461 302.971C163.774 302.958 163.086 302.95 162.399 302.946C175.967 279.661 195.602 259.487 220.604 245.034C244.967 230.951 271.493 223.995 297.767 223.522ZM313.737 223.027C336.848 221.159 359.918 214.253 381.327 201.877C402.736 189.502 420.233 172.958 433.386 153.864C413.253 196.483 412.068 247.26 433.564 292.243C405.311 251.165 360.718 226.85 313.737 223.027ZM438.839 145.391C439.196 144.797 439.548 144.201 439.897 143.603C468.593 193.879 467.078 253.225 440.995 300.535C440.644 301.12 440.297 301.706 439.954 302.295C411.263 252.029 412.772 192.697 438.839 145.391ZM439.783 -17.191C468.502 33.0849 467.001 92.4395 440.925 139.76C440.569 140.354 440.217 140.95 439.868 141.548C410.806 90.6293 412.731 30.4084 439.783 -17.191ZM300.701 221.995C271.639 171.076 273.564 110.855 300.616 63.2548C329.336 113.53 327.835 172.884 301.76 220.205C301.403 220.8 301.05 221.396 300.701 221.995ZM300.73 224.051C300.381 224.649 300.029 225.245 299.672 225.839C273.605 273.145 272.098 332.476 300.788 382.741C301.13 382.154 301.476 381.569 301.826 380.987C327.911 333.676 329.427 274.328 300.73 224.051ZM242.161 282.323C220.749 294.701 197.676 301.607 174.562 303.474C221.549 307.295 266.148 331.614 294.402 372.698C272.902 327.714 274.085 276.933 294.22 234.311C281.067 253.404 263.57 269.948 242.161 282.323ZM164.462 303.971C163.786 303.983 163.109 303.991 162.433 303.994C191.678 353.953 243.861 382.258 297.876 383.267C298.557 383.255 299.237 383.247 299.917 383.244C270.669 333.281 218.481 304.976 164.462 303.971ZM160.642 303.993C159.974 303.989 159.306 303.981 158.638 303.969C132.351 304.436 105.812 311.392 81.4374 325.482C56.2575 340.037 36.522 360.395 22.944 383.889C52.1256 434.189 104.489 462.699 158.699 463.714C159.385 463.702 160.071 463.694 160.757 463.691C131.516 412.467 133.443 351.886 160.642 303.993ZM80.9369 324.616C102.349 312.238 125.422 305.332 148.536 303.465C97.8205 299.341 49.8862 271.336 22.2855 224.145C-4.76867 271.745 -6.6953 331.969 22.3682 382.889C36.0214 359.459 55.7784 339.159 80.9369 324.616ZM22.8594 223.143C52.0451 273.449 104.419 301.96 158.636 302.968C159.315 302.956 159.993 302.949 160.672 302.945C131.421 251.705 133.359 191.101 160.585 143.2C133.636 143.337 106.355 150.284 81.3524 164.736C56.1728 179.292 36.4375 199.65 22.8594 223.143ZM220.519 84.2888C195.517 98.7418 175.882 118.916 162.314 142.201C213.672 142.492 263.629 167.334 294.313 211.946C270.966 163.092 274.372 107.403 299.751 62.7526C272.802 62.8899 245.522 69.8359 220.519 84.2888ZM578.084 -98.1409C551.135 -98.0036 523.855 -91.0575 498.853 -76.6047C473.85 -62.1517 454.216 -41.9779 440.647 -18.6935C492.005 -18.4015 541.962 6.43971 572.645 51.0512C549.3 2.19771 552.706 -53.4909 578.084 -98.1409ZM585.453 73.2077C606.95 118.193 605.763 168.975 585.625 211.596C598.779 192.498 616.279 175.951 637.691 163.573C659.1 151.197 682.17 144.292 705.281 142.423C658.299 138.601 613.705 114.285 585.453 73.2077ZM719.187 142.953C719.874 142.949 720.561 142.941 721.248 142.929C775.255 143.944 827.429 172.249 856.671 222.201C856.001 222.205 855.33 222.212 854.659 222.224C800.634 221.225 748.438 192.92 719.187 142.953ZM715.356 142.927C716.036 142.94 716.715 142.948 717.395 142.952C717.062 143.538 716.733 144.126 716.408 144.716C702.884 167.255 683.615 186.776 659.246 200.863C634.877 214.95 608.344 221.905 582.064 222.376C581.39 222.363 580.715 222.355 580.041 222.351C580.105 222.239 580.168 222.127 580.231 222.015C580.325 221.849 580.419 221.682 580.512 221.516C580.682 221.211 580.852 220.906 581.021 220.6C594.545 198.055 613.817 178.529 638.191 164.439C662.555 150.356 689.081 143.4 715.356 142.927ZM731.322 142.432C754.433 140.564 777.503 133.658 798.912 121.282C820.325 108.904 837.825 92.3563 850.979 73.2576C830.84 115.882 829.654 166.667 851.155 211.655C822.903 170.573 778.306 146.255 731.322 142.432ZM855.588 64.2467C842.063 86.7955 822.789 106.325 798.412 120.417C774.049 134.5 747.522 141.456 721.247 141.929C720.976 141.924 720.705 141.919 720.435 141.916C720.285 141.914 720.136 141.912 719.987 141.91C719.831 141.909 719.675 141.907 719.518 141.906C719.415 141.905 719.312 141.904 719.208 141.904C719.541 141.318 719.87 140.73 720.195 140.14C733.719 117.601 752.989 98.0795 777.357 83.9928C802.36 69.5398 829.641 62.5937 856.59 62.4566C856.521 62.5779 856.452 62.6992 856.384 62.8207C856.274 63.0151 856.165 63.2097 856.056 63.4044C855.998 63.507 855.941 63.6096 855.884 63.7122C855.785 63.8902 855.686 64.0684 855.588 64.2467ZM858.374 61.4573C858.703 60.8781 859.028 60.2972 859.35 59.7144C872.874 37.1657 892.148 17.636 916.525 3.54466C941.705 -11.011 969.196 -17.9527 996.332 -17.9934C1025.73 33.0436 1023.89 93.5321 996.733 141.305C966.943 90.372 913.468 61.7892 858.374 61.4573ZM856.453 64.7483C856.8 64.1702 857.143 63.59 857.482 63.0081C886.187 113.3 884.662 172.668 858.554 219.986C858.37 220.293 858.187 220.6 858.005 220.909C857.929 221.037 857.853 221.166 857.778 221.295L857.655 221.505L857.542 221.698C828.842 171.416 830.36 112.062 856.453 64.7483ZM863.958 50.7034C885.696 4.69614 885.352 -50.8194 858.231 -98.29C912.983 -97.9782 966.132 -69.5911 995.753 -18.9917C968.635 -18.8538 941.183 -11.8644 916.025 2.6789C894.612 15.0568 877.112 31.6048 863.958 50.7034ZM359.685 3.84235C384.688 -10.6106 411.969 -17.5567 438.918 -17.6938C413.54 26.956 410.134 82.6444 433.479 131.498C402.795 86.886 352.838 62.0447 301.481 61.753C315.049 38.4688 334.683 18.2951 359.685 3.84235ZM446.461 292.04C466.597 249.419 467.783 198.639 446.287 153.654C474.54 194.733 519.136 219.049 566.119 222.87C543.006 224.738 519.935 231.644 498.524 244.021C477.113 256.397 459.614 272.944 446.461 292.04ZM582.063 223.376C581.381 223.388 580.7 223.396 580.019 223.399C609.269 273.366 661.463 301.672 715.487 302.672C716.16 302.66 716.832 302.652 717.504 302.649C688.259 252.69 636.077 224.385 582.063 223.376ZM578.229 223.399C577.555 223.394 576.881 223.386 576.207 223.374C549.926 223.844 523.393 230.8 499.024 244.886C474.655 258.973 455.385 278.495 441.861 301.035L441.741 301.252L441.596 301.515C441.549 301.599 441.502 301.682 441.456 301.766C441.263 302.11 441.07 302.454 440.875 302.797C441.556 302.801 442.237 302.81 442.917 302.822C469.191 302.349 495.717 295.393 520.079 281.31C544.453 267.221 563.725 247.694 577.249 225.149C577.572 224.564 577.899 223.98 578.229 223.399ZM659.746 201.729C638.336 214.106 615.264 221.011 592.152 222.879C639.135 226.701 683.73 251.016 711.984 292.095C690.487 247.111 691.673 196.33 711.81 153.71C698.656 172.806 681.157 189.352 659.746 201.729ZM719.066 -17.8425C746.185 29.6266 746.53 85.14 724.794 131.146C737.947 112.05 755.446 95.5038 776.857 83.127C802.016 68.5836 829.467 61.5943 856.585 61.4565C826.965 10.8574 773.816 -17.5299 719.066 -17.8425ZM718.315 143.456C717.972 144.044 717.625 144.631 717.275 145.216C691.192 192.526 689.678 251.87 718.374 302.146C718.712 301.565 719.055 300.985 719.401 300.408C745.495 253.095 747.015 193.739 718.315 143.456ZM307.119 234.1C328.616 279.085 327.431 329.867 307.293 372.488C320.447 353.391 337.946 336.844 359.358 324.467C380.767 312.091 403.836 305.185 426.948 303.317C379.966 299.494 335.371 275.178 307.119 234.1ZM440.851 303.846C441.54 303.843 442.228 303.835 442.917 303.823C496.924 304.838 549.097 333.143 578.339 383.096C577.663 383.099 576.986 383.107 576.31 383.119C522.29 382.115 470.1 353.81 440.851 303.846ZM437.02 303.82C437.7 303.833 438.381 303.842 439.062 303.846C438.865 304.193 438.669 304.54 438.475 304.889C438.341 305.128 438.208 305.368 438.076 305.608C424.552 328.148 405.282 347.67 380.913 361.757C356.543 375.844 330.009 382.799 303.727 383.269C303.055 383.257 302.382 383.248 301.708 383.244C302.04 382.66 302.368 382.074 302.692 381.486C316.216 358.944 335.487 339.421 359.858 325.333C384.22 311.25 410.746 304.294 437.02 303.82ZM452.99 303.326C476.101 301.457 499.17 294.552 520.579 282.176C541.991 269.798 559.491 253.251 572.645 234.153C552.507 276.775 551.321 327.556 572.818 372.541C544.565 331.464 499.971 307.148 452.99 303.326ZM578.116 225.648C578.464 225.068 578.808 224.486 579.149 223.902C607.851 274.189 606.329 333.55 580.229 380.865C579.885 381.439 579.544 382.015 579.208 382.593C550.509 332.312 552.027 272.961 578.116 225.648ZM439.982 304.349C439.64 304.937 439.293 305.523 438.943 306.107C412.859 353.418 411.344 412.764 440.041 463.04C440.094 462.948 440.148 462.857 440.201 462.765C440.283 462.626 440.365 462.486 440.447 462.347C440.652 462 440.858 461.653 441.065 461.307C467.162 413.993 468.683 354.635 439.982 304.349ZM381.413 362.622C360.002 374.999 336.931 381.905 313.818 383.773C360.801 387.594 405.397 411.91 433.651 452.989C412.154 408.004 413.34 357.224 433.477 314.603C420.323 333.699 402.824 350.245 381.413 362.622ZM303.728 384.27C303.047 384.282 302.366 384.289 301.686 384.293C330.939 434.264 383.141 462.571 437.171 463.565C437.304 463.563 437.437 463.561 437.569 463.559C437.717 463.557 437.864 463.555 438.011 463.553C438.398 463.548 438.785 463.545 439.172 463.543C409.926 413.583 357.743 385.278 303.728 384.27ZM299.896 384.292C299.223 384.288 298.55 384.28 297.878 384.267C271.596 384.737 245.061 391.693 220.691 405.78C195.689 420.233 176.054 440.407 162.486 463.691C163.181 463.695 163.875 463.704 164.57 463.717C190.848 463.245 217.379 456.29 241.746 442.204C266.117 428.116 285.388 408.592 298.912 386.05C299.236 385.462 299.564 384.876 299.896 384.292ZM287.786 383.764C237.071 379.639 189.137 351.634 161.537 304.443C134.483 352.044 132.557 412.268 161.621 463.188C175.275 439.758 195.032 419.458 220.191 404.914C241.602 392.537 264.673 385.631 287.786 383.764ZM299.779 386.55C300.128 385.968 300.473 385.383 300.815 384.797C329.519 435.088 327.995 494.453 301.89 541.77C301.548 542.34 301.21 542.912 300.875 543.486C272.178 493.209 273.693 433.861 299.779 386.55ZM174.653 464.22C197.765 462.352 220.836 455.446 242.246 443.07C263.658 430.693 281.157 414.146 294.311 395.049C274.172 437.674 272.988 488.459 294.491 533.447C266.238 492.362 221.639 468.043 174.653 464.22ZM162.519 464.74C163.202 464.737 163.886 464.729 164.571 464.717C218.582 465.729 270.76 494.034 300.004 543.99C299.337 543.993 298.671 544.001 298.004 544.013C243.974 543.018 191.772 514.712 162.519 464.74ZM158.699 464.715C159.375 464.727 160.052 464.736 160.729 464.74C133.521 512.648 131.602 573.252 160.871 624.485C105.922 624.172 52.5857 595.58 23.0296 544.635C36.6077 521.141 56.3432 500.783 81.5234 486.227C105.89 472.142 132.421 465.186 158.699 464.715ZM148.617 464.211C125.504 466.079 102.433 472.985 81.0229 485.361C55.8641 499.905 36.107 520.205 22.4539 543.635C-6.61019 492.715 -4.68389 432.491 22.3701 384.891C49.9698 432.081 97.9023 460.086 148.617 464.211ZM724.876 291.896C745.017 249.271 746.202 198.483 724.699 153.493C752.953 194.581 797.555 218.901 844.545 222.721C821.43 224.588 798.356 231.494 776.943 243.872C755.53 256.25 738.03 272.798 724.876 291.896ZM860.449 223.227C859.779 223.239 859.109 223.246 858.439 223.25C887.685 273.21 939.869 301.515 993.885 302.523C994.564 302.511 995.244 302.503 995.923 302.5C966.672 252.532 914.475 224.225 860.449 223.227ZM856.65 223.249C855.986 223.245 855.323 223.237 854.66 223.225C828.368 223.69 801.823 230.645 777.443 244.738C753.066 258.829 733.792 278.359 720.267 300.909C719.946 301.491 719.621 302.071 719.292 302.65C719.957 302.654 720.621 302.662 721.286 302.674C747.576 302.208 774.12 295.253 798.498 281.161C822.884 267.064 842.164 247.525 855.689 224.966C855.75 224.855 855.811 224.745 855.872 224.635L856.002 224.401C856.217 224.016 856.432 223.632 856.65 223.249ZM938.166 201.579C916.753 213.957 893.679 220.863 870.564 222.73C921.281 226.853 969.217 254.858 996.819 302.051C1023.87 254.45 1025.8 194.227 996.734 143.307C983.081 166.737 963.324 187.036 938.166 201.579ZM937.666 200.713C962.685 186.251 982.329 166.059 995.899 142.755C968.932 142.883 941.631 149.828 916.611 164.291C892.225 178.388 872.945 197.927 859.42 220.486C859.328 220.654 859.235 220.822 859.142 220.989L859.041 221.17C858.953 221.328 858.865 221.485 858.776 221.642C858.671 221.829 858.565 222.016 858.459 222.202C858.832 222.205 859.205 222.208 859.577 222.213C859.868 222.217 860.159 222.221 860.449 222.227C886.741 221.762 913.287 214.806 937.666 200.713ZM1135.99 221.603C1106.2 170.67 1052.72 142.087 997.627 141.756C1024.84 93.8477 1026.76 33.243 997.486 -17.991C1052.52 -17.6768 1105.93 10.9983 1135.46 62.0817C1164.99 113.165 1163.18 173.76 1135.99 221.603ZM585.539 233.952C607.036 278.939 605.849 329.723 585.709 372.345C598.863 353.246 616.364 336.698 637.777 324.319C659.189 311.942 682.263 305.036 705.377 303.168C658.392 299.349 613.793 275.033 585.539 233.952ZM719.27 303.697C719.943 303.694 720.615 303.686 721.288 303.674C775.312 304.674 827.506 332.98 856.757 382.947C856.068 382.95 855.38 382.958 854.691 382.97C800.684 381.954 748.512 353.65 719.27 303.697ZM715.489 303.672C716.153 303.684 716.817 303.692 717.482 303.696C717.153 304.275 716.828 304.856 716.507 305.438C702.982 327.987 683.708 347.516 659.331 361.608C634.957 375.698 608.417 382.653 582.131 383.121C581.463 383.109 580.795 383.1 580.126 383.096C580.453 382.522 580.775 381.945 581.095 381.367C594.619 358.813 613.896 339.279 638.277 325.185C662.655 311.093 689.198 304.138 715.489 303.672ZM731.397 303.178C754.512 301.31 777.586 294.404 798.998 282.027C820.413 269.648 837.914 253.098 851.069 233.997C830.926 276.622 829.739 327.41 851.241 372.4C822.986 331.315 778.385 306.997 731.397 303.178ZM864.041 211.455C885.782 165.447 885.439 109.93 858.319 62.4572C913.069 62.7699 966.217 91.1566 995.837 141.755C968.72 141.893 941.269 148.882 916.111 163.425C894.696 175.804 877.195 192.354 864.041 211.455ZM856.555 225.466C856.896 224.896 857.234 224.325 857.568 223.752C886.258 274.017 884.751 333.348 858.684 380.654C858.328 381.248 857.975 381.844 857.626 382.442C828.922 332.15 830.448 272.783 856.555 225.466ZM446.543 452.791C466.682 410.169 467.869 359.386 446.372 314.399C474.626 355.479 519.223 379.795 566.208 383.615C543.094 385.483 520.022 392.389 498.61 404.766C477.197 417.144 459.697 433.692 446.543 452.791ZM582.13 384.121C581.455 384.133 580.78 384.141 580.105 384.144C609.345 434.095 661.516 462.399 715.521 463.417C715.818 463.411 716.114 463.407 716.411 463.403C716.804 463.398 717.197 463.395 717.589 463.393C688.341 413.43 636.15 385.124 582.13 384.121ZM578.316 384.143C577.885 384.141 577.455 384.137 577.025 384.131C576.787 384.127 576.549 384.123 576.311 384.119C550.025 384.587 523.485 391.542 499.11 405.632C474.731 419.725 455.456 439.257 441.931 461.808C441.611 462.388 441.287 462.967 440.959 463.544C441.618 463.548 442.277 463.556 442.936 463.568C469.232 463.104 495.782 456.149 520.165 442.054C544.546 427.96 563.823 408.426 577.348 385.873C577.456 385.676 577.565 385.479 577.675 385.282C577.887 384.902 578.101 384.522 578.316 384.143ZM659.831 362.474C638.42 374.851 615.347 381.757 592.233 383.624C639.218 387.445 683.816 411.761 712.071 452.842C690.572 407.855 691.759 357.072 711.898 314.449C698.744 333.548 681.244 350.096 659.831 362.474ZM718.401 304.2C718.062 304.781 717.72 305.36 717.374 305.937C691.279 353.251 689.759 412.607 718.459 462.89C718.808 462.292 719.16 461.696 719.516 461.102C745.584 413.797 747.092 354.465 718.401 304.2ZM578.214 386.373C578.558 385.799 578.898 385.223 579.235 384.646C607.926 434.911 606.418 494.242 580.351 541.548C579.994 542.142 579.642 542.738 579.293 543.337C550.59 493.049 552.113 433.688 578.214 386.373ZM453.061 464.071C476.177 462.205 499.252 455.299 520.665 442.92C542.079 430.542 559.579 413.993 572.733 394.894C552.593 437.517 551.406 488.301 572.904 533.289C544.649 492.206 500.048 467.89 453.061 464.071ZM440.937 464.591C441.604 464.587 442.271 464.58 442.938 464.568C496.967 465.562 549.17 493.869 578.424 543.841C577.739 543.844 577.054 543.852 576.369 543.864C522.358 542.852 470.18 514.546 440.937 464.591ZM437.173 464.566C437.472 464.571 437.771 464.576 438.07 464.58C438.311 464.583 438.551 464.585 438.791 464.587C438.911 464.588 439.03 464.589 439.149 464.59C438.821 465.167 438.497 465.745 438.177 466.326C424.652 488.877 405.377 508.409 380.998 522.502C356.615 536.596 330.065 543.552 303.769 544.015C303.111 544.003 302.452 543.995 301.792 543.991C302.117 543.419 302.439 542.845 302.756 542.27C316.281 519.712 335.56 500.175 359.944 486.079C384.327 471.984 410.877 465.029 437.173 464.566ZM307.2 394.838C335.455 435.924 380.058 460.243 427.048 464.062C403.932 465.929 380.858 472.835 359.444 485.213C338.03 497.592 320.529 514.142 307.374 533.242C327.517 490.616 328.703 439.828 307.2 394.838ZM440.068 465.093C439.73 465.673 439.389 466.25 439.043 466.826C412.946 514.14 411.425 573.499 440.126 623.784C440.317 623.456 440.51 623.128 440.704 622.801C440.862 622.534 441.021 622.267 441.181 622.001C467.251 574.694 468.76 515.36 440.068 465.093ZM381.498 523.367C360.084 535.746 337.009 542.652 313.893 544.519C360.883 548.337 405.485 572.656 433.74 613.742C412.239 568.753 413.425 517.967 433.566 475.342C420.412 494.441 402.911 510.989 381.498 523.367ZM303.77 545.015C303.104 545.027 302.438 545.034 301.772 545.038C331.016 594.994 383.195 623.299 437.207 624.311C437.89 624.298 438.573 624.291 439.255 624.287C410.002 574.316 357.799 546.01 303.77 545.015ZM299.983 545.037C299.324 545.033 298.664 545.025 298.006 545.013C271.71 545.476 245.159 552.431 220.776 566.526C195.757 580.989 176.112 601.181 162.543 624.486C189.51 624.358 216.811 617.412 241.831 602.949C266.215 588.854 285.494 569.316 299.019 546.759C299.337 546.183 299.658 545.609 299.983 545.037ZM287.881 544.509C237.163 540.387 189.226 512.383 161.623 465.19C134.57 512.79 132.644 573.013 161.708 623.933C175.361 600.503 195.118 580.204 220.276 565.661C241.69 553.282 264.765 546.376 287.881 544.509ZM299.885 547.26C300.227 546.689 300.566 546.116 300.9 545.542C329.598 595.819 328.082 655.167 301.996 702.478C301.647 703.061 301.301 703.645 300.96 704.231C272.256 653.941 273.78 594.576 299.885 547.26ZM162.605 625.486C189.722 625.347 217.173 618.358 242.331 603.815C263.746 591.436 281.247 574.887 294.401 555.786C272.66 601.794 273.003 657.311 300.124 704.783C245.373 704.471 192.225 676.084 162.605 625.486ZM160.815 625.485C133.606 673.393 131.686 733.997 160.956 785.231C105.926 784.916 52.5156 756.241 22.9863 705.158C-6.54311 654.074 -4.73575 593.48 22.4557 545.637C52.245 596.57 105.72 625.153 160.815 625.485ZM864.136 372.183C884.271 329.561 885.454 278.781 863.955 233.797C892.208 274.88 936.806 299.198 983.792 303.019C960.678 304.887 937.606 311.793 916.195 324.17C894.786 336.545 877.289 353.089 864.136 372.183ZM997.713 302.5C998.385 302.504 999.057 302.513 999.729 302.525C1026.01 302.056 1052.55 295.1 1076.92 281.012C1102.1 266.457 1121.83 246.099 1135.41 222.604C1105.86 171.661 1052.52 143.069 997.571 142.755C1026.84 193.989 1024.92 254.593 997.713 302.5ZM1077.42 281.878C1056.01 294.255 1032.94 301.161 1009.82 303.029C1060.54 307.154 1108.47 335.158 1136.07 382.35C1163.13 334.75 1165.05 274.525 1135.99 223.605C1122.33 247.035 1102.58 267.335 1077.42 281.878ZM999.731 303.525C999.446 303.531 999.161 303.535 998.876 303.538C998.479 303.543 998.082 303.547 997.685 303.549C1026.93 354.772 1025 415.354 997.799 463.247C998.472 463.251 999.145 463.259 999.818 463.272C1026.1 462.802 1052.63 455.846 1077 441.759C1102.18 427.203 1121.92 406.846 1135.5 383.352C1106.31 333.048 1053.95 304.537 999.731 303.525ZM995.957 303.548C995.266 303.544 994.576 303.536 993.885 303.523C967.602 303.992 941.066 310.948 916.695 325.036C892.337 339.117 873.073 358.627 859.55 381.155C859.22 381.754 858.885 382.352 858.547 382.947C859.228 382.952 859.909 382.96 860.589 382.973C886.863 382.499 913.389 375.543 937.751 361.461C962.754 347.007 982.388 326.833 995.957 303.548ZM724.792 314.252C746.287 359.234 745.102 410.011 724.969 452.63C738.122 433.537 755.619 416.993 777.028 404.617C798.437 392.241 821.507 385.335 844.619 383.467C797.637 379.644 753.044 355.329 724.792 314.252ZM858.525 383.997C859.213 383.993 859.901 383.985 860.589 383.973C914.595 384.99 966.767 413.294 996.008 463.246C995.328 463.249 994.647 463.257 993.966 463.269C939.952 462.26 887.77 433.955 858.525 383.997ZM854.69 383.971C855.37 383.983 856.051 383.992 856.733 383.996C856.395 384.591 856.06 385.189 855.73 385.788C842.207 408.315 822.943 427.826 798.585 441.907C774.223 455.989 747.698 462.945 721.425 463.419C721.036 463.412 720.648 463.406 720.259 463.401C719.966 463.398 719.673 463.396 719.38 463.394C719.718 462.799 720.052 462.202 720.382 461.603C733.905 439.075 753.169 419.564 777.528 405.483C801.89 391.4 828.416 384.445 854.69 383.971ZM870.661 383.476C893.772 381.608 916.842 374.702 938.251 362.326C963.41 347.783 983.167 327.483 996.821 304.052C1025.88 354.973 1023.96 415.196 996.904 462.796C969.305 415.607 921.374 387.603 870.661 383.476ZM585.803 533.076C605.936 490.457 607.121 439.68 585.626 394.698C613.878 435.775 658.471 460.091 705.452 463.913C682.341 465.782 659.271 472.688 637.862 485.064C616.453 497.439 598.956 513.983 585.803 533.076ZM721.425 464.419C720.736 464.432 720.046 464.44 719.357 464.443C748.602 514.402 800.785 542.707 854.799 543.716C855.481 543.704 856.162 543.696 856.843 543.693C827.602 493.741 775.431 465.437 721.425 464.419ZM717.566 464.442C716.884 464.438 716.202 464.43 715.521 464.417C689.248 464.891 662.723 471.847 638.362 485.929C614.004 500.01 594.74 519.521 581.217 542.048C580.887 542.648 580.552 543.246 580.214 543.842C580.89 543.846 581.566 543.854 582.242 543.867C608.521 543.395 635.051 536.439 659.418 522.354C683.776 508.273 703.04 488.762 716.563 466.235C716.893 465.636 717.228 465.038 717.566 464.442ZM799.085 442.773C777.676 455.149 754.606 462.054 731.495 463.923C778.476 467.746 823.069 492.061 851.321 533.138C829.826 488.156 831.011 437.379 851.144 394.76C837.991 413.853 820.494 430.397 799.085 442.773ZM857.654 384.499C857.306 385.097 856.954 385.693 856.597 386.287C830.53 433.592 829.021 492.924 857.712 543.19C857.783 543.068 857.854 542.946 857.925 542.825L858.044 542.622L858.104 542.521C858.171 542.407 858.238 542.293 858.305 542.18C858.459 541.921 858.613 541.662 858.768 541.404C884.836 494.098 886.345 434.766 857.654 384.499ZM446.459 475.145C467.954 520.128 466.77 570.906 446.635 613.525C459.789 594.431 477.286 577.887 498.695 565.511C520.105 553.135 543.176 546.229 566.288 544.361C519.306 540.539 474.711 516.223 446.459 475.145ZM580.191 544.89C580.875 544.887 581.559 544.879 582.243 544.867C636.254 545.879 688.432 574.184 717.675 624.139C717.388 624.14 717.101 624.143 716.813 624.146C716.413 624.15 716.012 624.156 715.611 624.163C661.604 623.146 609.432 594.842 580.191 544.89ZM576.368 544.864C577.045 544.877 577.722 544.885 578.4 544.89C578.2 545.241 578.001 545.594 577.804 545.947C577.734 546.073 577.664 546.199 577.594 546.325L577.513 546.471L577.396 546.683C563.873 569.209 544.61 588.72 520.252 602.8C495.885 616.886 469.354 623.841 443.075 624.313C442.687 624.306 442.299 624.3 441.911 624.295C441.623 624.292 441.335 624.29 441.047 624.288C441.385 623.694 441.718 623.098 442.048 622.5C455.571 599.971 474.835 580.459 499.195 566.377C523.561 552.292 550.09 545.337 576.368 544.864ZM592.325 544.37C615.437 542.502 638.508 535.596 659.918 523.22C681.327 510.844 698.824 494.3 711.977 475.207C691.843 517.826 690.659 568.604 712.155 613.587C683.902 572.508 639.307 548.192 592.325 544.37ZM717.43 466.734C717.786 466.14 718.139 465.544 718.487 464.946C747.182 515.22 745.669 574.563 719.589 621.872C719.502 622.018 719.414 622.164 719.327 622.31C719.184 622.551 719.041 622.792 718.899 623.033L718.812 623.181C718.723 623.333 718.634 623.485 718.545 623.637C689.854 573.372 691.362 514.04 717.43 466.734ZM307.464 693.979C327.603 651.354 328.787 600.568 307.285 555.58C335.537 596.665 380.136 620.985 427.123 624.807C404.01 626.675 380.939 633.581 359.529 645.958C338.117 658.335 320.618 674.882 307.464 693.979ZM443.073 625.313C442.39 625.325 441.707 625.333 441.024 625.337C470.267 675.293 522.446 703.598 576.458 704.61C577.142 704.598 577.826 704.59 578.509 704.586C549.265 654.629 497.086 626.324 443.073 625.313ZM439.233 625.336C438.558 625.332 437.882 625.323 437.207 625.311C410.928 625.782 384.396 632.738 360.029 646.823C335.658 660.912 316.387 680.436 302.863 702.978C302.53 703.582 302.192 704.184 301.852 704.784C328.801 704.647 356.082 697.701 381.085 683.248C405.445 669.166 424.709 649.654 438.232 627.125C438.562 626.527 438.896 625.93 439.233 625.336ZM520.752 603.666C499.342 616.043 476.271 622.949 453.158 624.817C500.141 628.638 544.736 652.954 572.989 694.033C551.493 649.051 552.677 598.273 572.811 555.653C559.658 574.747 542.161 591.291 520.752 603.666ZM579.321 545.393C578.972 545.991 578.62 546.588 578.263 547.182C552.196 594.487 550.689 653.819 579.379 704.084C579.725 703.49 580.075 702.899 580.429 702.309C606.503 655.002 608.015 595.663 579.321 545.393ZM161.709 625.935C134.557 673.708 132.715 734.196 162.11 785.233C189.246 785.192 216.737 778.251 241.917 763.695C266.288 749.607 285.559 730.083 299.083 707.541C299.407 706.953 299.735 706.367 300.067 705.783C244.973 705.451 191.498 676.868 161.709 625.935ZM301.857 705.784C331.477 756.382 384.625 784.77 439.375 785.083C412.257 737.615 411.911 682.105 433.645 636.1C420.491 655.194 402.994 671.738 381.585 684.113C356.427 698.657 328.975 705.646 301.857 705.784ZM439.1 627.624C439.455 627.031 439.806 626.437 440.154 625.841C468.85 676.118 467.335 735.465 441.25 782.776C440.9 783.359 440.554 783.944 440.212 784.531C411.52 734.264 413.03 674.93 439.1 627.624ZM300.99 706.281C300.647 706.87 300.3 707.456 299.95 708.041C273.768 755.526 272.338 815.137 301.364 865.532C328.499 865.491 355.99 858.55 381.17 843.994C405.541 829.906 424.812 810.382 438.336 787.841C438.66 787.253 438.988 786.667 439.32 786.082C384.243 785.75 330.784 757.185 300.99 706.281ZM300.21 865.53C273.09 818.06 272.745 762.546 294.482 716.54C281.328 735.637 263.829 752.183 242.417 764.561C217.259 779.104 189.807 786.093 162.69 786.231C192.31 836.83 245.459 865.218 300.21 865.53ZM864.041 394.544C885.54 439.528 884.356 490.309 864.221 532.93C877.375 513.836 894.872 497.292 916.281 484.916C937.692 472.539 960.764 465.634 983.877 463.766C936.892 459.944 892.294 435.626 864.041 394.544ZM997.77 464.295C998.039 464.294 998.308 464.292 998.576 464.289C998.99 464.285 999.405 464.279 999.819 464.272C1054.03 465.285 1106.4 493.794 1135.58 544.096C1122 567.59 1102.27 587.948 1077.09 602.504C1052.09 616.957 1024.81 623.903 997.856 624.04C1025.08 576.14 1027.02 515.536 997.77 464.295ZM993.966 464.269C994.658 464.282 995.35 464.291 996.042 464.295C982.474 487.579 962.839 507.753 937.837 522.206C913.467 536.293 886.933 543.248 860.651 543.718C859.979 543.706 859.306 543.697 858.633 543.693C858.97 543.099 859.304 542.503 859.633 541.906C873.156 519.376 892.421 499.864 916.781 485.782C941.151 471.695 967.685 464.74 993.966 464.269ZM1009.91 463.775C1033.02 461.908 1056.09 455.002 1077.51 442.625C1102.66 428.082 1122.42 407.782 1136.07 384.352C1165.14 435.272 1163.21 495.494 1136.16 543.094C1108.56 495.904 1060.62 467.9 1009.91 463.775ZM938.337 523.071C916.926 535.448 893.855 542.354 870.742 544.222C921.456 548.347 969.389 576.35 996.99 623.54C1024.04 575.94 1025.97 515.718 996.906 464.798C983.253 488.228 963.496 508.528 938.337 523.071ZM860.651 544.719C859.97 544.731 859.29 544.739 858.609 544.742C888.228 595.339 941.375 623.725 996.123 624.039C966.883 574.05 914.684 545.727 860.651 544.719ZM856.819 544.741C856.146 544.737 855.473 544.729 854.801 544.716C828.519 545.186 801.985 552.142 777.615 566.229C753.247 580.315 733.979 599.835 720.455 622.373C720.129 622.964 719.8 623.553 719.466 624.14C719.76 624.142 720.054 624.144 720.348 624.148C720.735 624.152 721.121 624.158 721.507 624.165C747.781 623.692 774.308 616.736 798.671 602.653C823.031 588.571 842.295 569.059 855.819 546.53C855.999 546.202 856.181 545.875 856.363 545.549L856.435 545.421C856.496 545.313 856.557 545.205 856.617 545.098C856.685 544.979 856.752 544.86 856.819 544.741ZM844.71 544.213C797.726 540.391 753.13 516.075 724.876 474.995C746.374 519.98 745.189 570.76 725.052 613.382C738.206 594.285 755.704 577.74 777.115 565.363C798.526 552.986 821.597 546.08 844.71 544.213ZM585.711 555.443C607.207 600.427 606.023 651.206 585.887 693.826C599.041 674.731 616.539 658.186 637.949 645.81C659.358 633.434 682.428 626.528 705.539 624.659C658.557 620.837 613.963 596.521 585.711 555.443ZM719.442 625.189C720.131 625.186 720.819 625.178 721.508 625.165C775.533 626.182 827.721 654.504 856.957 704.486C802.209 704.173 749.062 675.786 719.442 625.189ZM715.61 625.163C716.291 625.176 716.972 625.184 717.653 625.188C717.319 625.776 716.989 626.366 716.663 626.957C703.139 649.494 683.871 669.014 659.504 683.1C635.137 697.185 608.606 704.141 582.327 704.612C581.652 704.6 580.976 704.591 580.3 704.587C580.635 703.997 580.967 703.404 581.295 702.81C594.818 680.276 614.085 660.759 638.449 646.675C662.811 632.593 689.337 625.637 715.61 625.163ZM731.581 624.669C754.692 622.8 777.762 615.895 799.171 603.519C820.58 591.143 838.077 574.599 851.231 555.505C831.097 598.122 829.912 648.898 851.405 693.879C823.152 652.805 778.56 628.491 731.581 624.669ZM856.685 547.029C857.041 546.437 857.392 545.842 857.74 545.245C886.802 596.164 884.877 656.385 857.825 703.984C829.105 653.707 830.607 594.351 856.685 547.029ZM717.692 627.185C717.638 627.275 717.584 627.366 717.53 627.456C691.442 674.78 689.935 734.146 718.659 784.43C745.71 736.831 747.635 676.61 718.573 625.692C718.358 626.061 718.142 626.428 717.925 626.795C717.848 626.925 717.77 627.055 717.692 627.185ZM660.004 683.965C638.594 696.342 615.523 703.248 592.411 705.116C639.393 708.937 683.988 733.253 712.242 774.332C690.745 729.347 691.93 678.568 712.067 635.947C698.913 655.043 681.415 671.589 660.004 683.965ZM582.329 705.612C581.645 705.625 580.96 705.632 580.277 705.636C609.896 756.232 663.042 784.618 717.79 784.933C688.551 734.947 636.357 706.625 582.329 705.612ZM578.487 705.635C577.811 705.631 577.134 705.623 576.459 705.61C550.18 706.082 523.649 713.037 499.282 727.123C474.911 741.211 455.64 760.734 442.116 783.276C441.783 783.88 441.446 784.483 441.104 785.083C468.054 784.946 495.335 778 520.338 763.547C544.702 749.463 563.969 729.946 577.492 707.413C577.82 706.818 578.151 706.226 578.487 705.635ZM566.375 705.107C519.39 701.285 474.793 676.967 446.54 635.884C468.04 680.871 466.855 731.655 446.717 774.278C459.871 755.181 477.37 738.634 498.782 726.257C520.192 713.88 543.263 706.975 566.375 705.107ZM441.109 786.083C470.73 836.682 523.878 865.068 578.629 865.38C551.511 817.913 551.165 762.401 572.9 716.396C559.746 735.491 542.248 752.036 520.838 764.413C495.679 778.956 468.227 785.946 441.109 786.083ZM578.359 707.912C578.712 707.323 579.062 706.732 579.407 706.139C608.469 757.057 606.544 817.278 579.493 864.877C550.771 814.596 552.275 755.235 578.359 707.912ZM440.242 786.581C439.899 787.17 439.553 787.756 439.202 788.34C413.021 835.825 411.591 895.434 440.616 945.829C467.751 945.789 495.243 938.847 520.423 924.291C545.425 909.838 565.059 889.665 578.628 866.381C523.532 866.068 470.047 837.501 440.242 786.581ZM439.462 945.827C412.343 898.358 411.998 842.845 433.735 796.839C420.581 815.936 403.082 832.483 381.67 844.86C356.512 859.403 329.061 866.392 301.944 866.531C331.564 917.128 384.712 945.514 439.462 945.827ZM864.13 555.295C887.475 604.149 884.068 659.837 858.69 704.487C885.639 704.35 912.919 697.404 937.922 682.951C962.924 668.498 982.559 648.324 996.127 625.039C944.77 624.748 894.813 599.906 864.13 555.295ZM997.856 625.04C1024.98 624.903 1052.43 617.914 1077.59 603.369C1102.75 588.826 1122.5 568.526 1136.16 545.096C1179.83 621.601 1153.54 719.108 1077.17 763.25C1052.17 777.703 1024.89 784.649 997.943 784.786C1025.17 736.886 1027.11 676.281 997.856 625.04ZM719.524 784.933C744.902 740.283 748.308 684.594 724.962 635.741C755.645 680.353 805.603 705.195 856.961 705.487C843.392 728.771 823.758 748.944 798.756 763.397C773.753 777.85 746.473 784.796 719.524 784.933ZM996.791 784.788C941.837 784.672 888.418 756.264 858.694 705.487C885.812 705.349 913.264 698.36 938.422 683.816C963.581 669.273 983.338 648.973 996.992 625.542C1026.16 676.641 1024.12 737.109 996.791 784.788ZM719.528 785.933C746.646 785.796 774.097 778.806 799.256 764.263C824.415 749.719 844.172 729.419 857.826 705.989C886.992 757.088 884.95 817.556 857.624 865.235C802.67 865.119 749.252 836.71 719.528 785.933ZM585.796 716.187C616.479 760.799 666.436 785.641 717.794 785.933C704.226 809.218 684.591 829.392 659.589 843.845C634.587 858.298 607.306 865.244 580.357 865.381C605.736 820.73 609.142 765.041 585.796 716.187ZM718.458 945.681C663.504 945.565 610.087 917.157 580.363 866.381C607.48 866.243 634.931 859.254 660.089 844.71C685.248 830.167 705.005 809.867 718.659 786.436C747.825 837.535 745.783 898.002 718.458 945.681ZM579.495 866.878C609.3 917.799 662.785 946.366 717.881 946.679C704.313 969.964 684.678 990.137 659.676 1004.59C583.314 1048.73 485.698 1022.85 441.195 946.828C468.313 946.69 495.764 939.7 520.923 925.157C546.084 910.613 565.842 890.311 579.495 866.878ZM996.214 785.786C944.858 785.494 894.903 760.655 864.219 716.046C887.561 764.898 884.155 820.585 858.777 865.233C885.726 865.096 913.006 858.15 938.009 843.697C963.011 829.244 982.645 809.07 996.214 785.786ZM857.048 866.233C805.69 865.941 755.732 841.099 725.049 796.488C748.395 845.341 744.989 901.029 719.61 945.679C746.559 945.542 773.84 938.596 798.843 924.143C823.845 909.69 843.479 889.517 857.048 866.233Z" fill="#FDFDFD"/>
</svg>
