<svg width="328" height="260" viewBox="0 0 328 260" fill="none" xmlns="http://www.w3.org/2000/svg">
<path fill-rule="evenodd" clip-rule="evenodd" d="M94.7807 -57.2195C101.565 -68.8619 111.382 -78.949 123.883 -86.1755C162.065 -108.247 210.873 -95.3052 233.124 -57.2938C219.565 -57.2249 205.839 -53.7302 193.259 -46.4585C180.679 -39.1865 170.8 -29.0358 163.974 -17.32C149.071 -42.7799 122.329 -57.0632 94.7807 -57.2195ZM94.2032 -57.2207C101.035 -69.0418 110.964 -79.2849 123.633 -86.6084C162.137 -108.866 211.38 -95.7378 233.702 -57.2946C261.441 -57.2362 288.402 -42.85 303.327 -17.1462C331.067 -17.0884 358.029 -2.70177 372.955 23.0032C400.744 23.0614 427.752 37.4994 442.661 63.2906C457.57 89.0818 456.602 119.692 442.784 143.802C457.61 169.564 456.62 200.109 442.826 224.175C457.651 249.938 456.662 280.481 442.869 304.547C465.042 343.076 451.841 392.301 413.338 414.558C400.669 421.881 386.837 425.374 373.185 425.394C366.353 437.215 356.424 447.458 343.755 454.781C331.086 462.105 317.254 465.597 303.601 465.618C296.77 477.438 286.841 487.681 274.172 495.004C261.503 502.328 247.671 505.82 234.018 505.841C227.187 517.662 217.257 527.905 204.588 535.228C166.085 557.485 116.841 544.358 94.5197 505.915C66.7807 505.856 39.8194 491.47 24.8939 465.766C-2.84572 465.708 -29.8078 451.322 -44.7333 425.616C-72.5222 425.558 -99.5307 411.12 -114.44 385.329C-129.348 359.538 -128.38 328.928 -114.562 304.818C-129.388 279.056 -128.399 248.512 -114.605 224.445C-129.43 198.683 -128.441 168.139 -114.647 144.072C-136.82 105.543 -123.62 56.3193 -85.1163 34.062C-72.4474 26.7386 -58.6157 23.2461 -44.9629 23.2258C-38.1315 11.4051 -28.202 1.16225 -15.5332 -6.16111C-2.86424 -13.4846 10.9676 -16.9771 24.6205 -16.9974C31.4519 -28.8182 41.3814 -39.0611 54.0503 -46.3845C66.719 -53.7078 80.5505 -57.2003 94.2032 -57.2207ZM233.414 -56.7946C219.846 -56.7744 206.1 -53.3035 193.509 -46.0256C181.008 -38.7992 171.191 -28.7123 164.407 -17.0701C191.955 -16.9137 218.697 -2.63029 233.6 22.8298C233.771 22.5362 233.944 22.2436 234.119 21.9521C247.211 -1.79048 247.927 -31.5964 233.414 -56.7946ZM236.854 17.7009C247.722 -5.30206 247.55 -33.0587 233.991 -56.7934C261.365 -56.6368 287.939 -42.4438 302.749 -17.1453C289.191 -17.0762 275.465 -13.5815 262.886 -6.31004C252.18 -0.121358 243.431 8.15214 236.854 17.7009ZM234.061 23.0787C234.227 22.7876 234.39 22.4955 234.552 22.2025C241.314 10.9303 250.95 1.16744 263.136 -5.87716C275.726 -13.1548 289.471 -16.6256 303.039 -16.6462C317.553 8.55392 316.837 38.3627 303.742 62.1065C303.568 62.3964 303.396 62.6873 303.226 62.9793C288.329 37.5274 261.6 23.2448 234.061 23.0787ZM233.098 24.7284C233.272 24.4382 233.445 24.1469 233.615 23.8547C247.963 48.992 247.206 78.6639 234.165 102.319C233.99 102.611 233.816 102.905 233.645 103.2C219.295 78.0597 220.054 48.3844 233.098 24.7284ZM232.665 24.4789C232.831 24.1777 232.999 23.8776 233.169 23.5784C219.694 23.6469 206.054 27.1199 193.552 34.3465C181.374 41.3863 171.743 51.1407 164.982 62.4031C164.816 62.7038 164.648 63.0036 164.478 63.3024C164.814 63.3044 165.15 63.3085 165.486 63.3147C178.627 63.08 191.895 59.6023 204.08 52.5584C216.267 45.5138 225.903 35.7509 232.665 24.4789ZM170.532 63.5666C182.089 62.6328 193.625 59.1798 204.33 52.9913C215.036 46.8026 223.786 38.529 230.363 28.9802C220.293 50.2927 219.701 75.686 230.453 98.1803C216.326 77.6373 194.026 65.4773 170.532 63.5666ZM164.466 63.8265C164.806 63.8248 165.146 63.821 165.486 63.8149C192.494 64.3187 218.586 78.4715 233.209 103.451C232.865 103.453 232.52 103.457 232.176 103.463C205.173 102.955 179.087 88.8027 164.466 63.8265ZM162.564 63.8137C162.899 63.82 163.235 63.8241 163.571 63.8261C163.511 63.9318 163.452 64.0377 163.392 64.1436C163.283 64.3373 163.175 64.5313 163.068 64.7257C156.307 75.9881 146.676 85.7425 134.497 92.7823C122.318 99.8226 109.057 103.3 95.9225 103.538C95.5802 103.532 95.2377 103.528 94.8951 103.526C95.0641 103.228 95.2312 102.929 95.3964 102.63C102.158 91.366 111.79 81.6105 123.969 74.5701C136.154 67.5262 149.422 64.0485 162.564 63.8137ZM162.564 63.3136C162.903 63.3076 163.243 63.3037 163.583 63.3019C148.773 38.0038 122.2 23.8106 94.8263 23.6534C109.447 48.6481 135.547 62.8097 162.564 63.3136ZM97.5998 28.9529C111.727 49.4931 134.025 61.6513 157.517 63.5619C145.96 64.4958 134.424 67.9487 123.719 74.1372C113.015 80.3249 104.266 88.5969 97.6893 98.1438C107.756 76.8336 108.348 51.4444 97.5998 28.9529ZM91.1974 17.8773C75.8559 -4.42912 50.877 -16.8501 25.198 -16.9961C31.9822 -28.6383 41.7994 -38.7252 54.3005 -45.9516C66.8015 -53.178 80.4417 -56.651 93.916 -56.7197C81.2267 -34.3943 79.524 -6.54958 91.1974 17.8773ZM94.3918 22.9014C79.8088 -2.64778 80.8298 -32.8815 94.4923 -56.7206C121.969 -56.6628 148.678 -42.4586 163.541 -17.0704C149.982 -17.0015 136.256 -13.5068 123.676 -6.23507C111.097 1.03653 101.218 11.1865 94.3918 22.9014ZM-84.866 34.4949C-123.047 56.5658 -136.191 105.319 -114.358 143.571C-107.531 131.857 -97.6529 121.707 -85.0738 114.435C-72.4935 107.163 -58.7667 103.668 -45.2069 103.6C-59.8323 77.9796 -58.8632 47.6771 -45.2501 23.7268C-58.7245 23.7955 -72.3649 27.2685 -84.866 34.4949ZM-15.283 -5.72823C-2.78175 -12.9547 10.8587 -16.4278 24.3333 -16.4963C11.6442 5.82838 9.94106 33.6723 21.6133 58.0988C6.27162 35.7933 -18.7068 23.3729 -44.3854 23.227C-37.6012 11.5849 -27.784 1.49815 -15.283 -5.72823ZM24.9096 -16.4972C11.2469 7.34183 10.2257 37.5754 24.8085 63.1246C31.6351 51.4097 41.5135 41.2599 54.0928 33.9883C66.6722 26.7166 80.3981 23.2219 93.957 23.153C79.0951 -2.235 52.3863 -16.4392 24.9096 -16.4972ZM28.1063 138.367C38.173 117.058 38.7653 91.6693 28.018 69.1784C42.1439 89.7163 64.4398 101.874 87.9296 103.785C76.3744 104.72 64.84 108.173 54.1357 114.36C43.4315 120.548 34.6829 128.82 28.1063 138.367ZM25.2429 63.8765C39.8597 88.8656 65.951 103.027 92.9608 103.537C93.3072 103.531 93.6535 103.527 93.9997 103.525C79.1901 78.2268 52.6171 64.0337 25.2429 63.8765ZM95.9227 104.038C95.5761 104.045 95.2296 104.049 94.8832 104.05C109.505 129.028 135.594 143.181 162.599 143.687C162.942 143.681 163.284 143.677 163.626 143.675C149.007 118.701 122.924 104.549 95.9227 104.038ZM93.9878 104.05C93.6452 104.048 93.3027 104.044 92.9604 104.037C79.8256 104.275 66.5651 107.753 54.386 114.793C42.2067 121.834 32.5749 131.589 25.8134 142.853C25.6482 143.152 25.4809 143.451 25.3118 143.749C25.6522 143.751 25.9924 143.755 26.3325 143.762C39.4696 143.525 52.7325 140.047 64.9138 133.006C77.093 125.965 86.7246 116.21 93.4861 104.947C93.6514 104.647 93.8186 104.348 93.9878 104.05ZM134.747 93.2151C124.043 99.4029 112.509 102.856 100.954 103.79C124.444 105.702 146.74 117.859 160.866 138.398C150.118 115.907 150.71 90.5186 160.777 69.2091C154.2 78.7558 145.452 87.0275 134.747 93.2151ZM164.017 63.0507C164.192 62.7506 164.369 62.4514 164.548 62.1533C177.584 38.4934 178.334 8.81752 163.975 -16.3193C150.449 7.48055 149.486 37.5914 164.017 63.0507ZM164.407 -16.57C177.966 7.16297 178.139 34.9175 167.273 57.9196C173.85 48.373 182.598 40.1012 193.302 33.9136C205.882 26.642 219.607 23.1473 233.166 23.0783C218.356 -2.2204 191.782 -16.4136 164.407 -16.57ZM164.032 64.0788C163.857 64.3787 163.68 64.6776 163.501 64.9755C150.469 88.6278 149.716 118.292 164.061 143.424C164.231 143.131 164.404 142.84 164.578 142.549C177.622 118.893 178.381 89.2184 164.032 64.0788ZM-44.6738 23.726C-58.3367 47.5651 -59.3578 77.799 -44.7749 103.348C-37.9483 91.6332 -28.0697 81.4831 -15.4903 74.2115C-2.91081 66.9397 10.8151 63.445 24.374 63.3762C9.51203 37.9881 -17.1969 23.7839 -44.6738 23.726ZM-44.774 104.349C-58.3006 128.149 -59.2638 158.261 -44.7321 183.72C-37.9056 172.006 -28.0271 161.856 -15.4478 154.584C-4.74306 148.396 6.79183 144.943 18.3475 144.009C-7.00892 141.946 -30.9743 127.944 -44.774 104.349ZM23.3834 143.761C-3.6284 143.252 -29.7224 129.091 -44.3403 104.1C-16.9663 104.258 9.60644 118.451 24.416 143.749C24.3189 143.749 24.2217 143.75 24.1245 143.751C24.067 143.751 24.0095 143.752 23.952 143.752C23.852 143.754 23.752 143.755 23.6519 143.756C23.5624 143.758 23.4729 143.759 23.3834 143.761ZM25.2997 144.274C25.6438 144.272 25.988 144.268 26.3323 144.262C53.3356 144.77 79.4218 158.922 94.0425 183.898C93.6983 183.9 93.3542 183.904 93.0098 183.91C66.0065 183.402 39.9204 169.25 25.2997 144.274ZM23.3836 144.261C23.7238 144.267 24.0641 144.271 24.4046 144.273C24.2355 144.571 24.0684 144.87 23.9032 145.169C17.1417 156.433 7.51 166.188 -4.66927 173.229C-16.8568 180.274 -30.1272 183.752 -43.271 183.985C-43.614 183.979 -43.9571 183.975 -44.3004 183.973C-37.5162 172.331 -27.6989 162.243 -15.1976 155.017C-3.01634 147.975 10.2465 144.498 23.3836 144.261ZM31.3687 144.014C42.9244 143.079 54.4593 139.627 65.164 133.439C75.8682 127.251 84.6168 118.979 91.1934 109.432C81.1266 130.742 80.5344 156.13 91.2821 178.621C77.156 158.083 54.8592 145.925 31.3687 144.014ZM93.9197 105.196C94.098 104.899 94.2743 104.601 94.4486 104.302C108.797 129.44 108.039 159.113 94.9973 182.768C94.8221 183.06 94.6488 183.353 94.4775 183.647C80.132 158.515 80.886 128.849 93.9197 105.196ZM94.3916 23.9045C108.751 49.0422 108.001 78.7192 94.9632 102.379C94.785 102.677 94.6086 102.975 94.4343 103.274C79.9031 77.8147 80.8659 47.7042 94.3916 23.9045ZM24.851 143.498C10.3195 118.038 11.2824 87.9272 24.8084 64.1273C39.1682 89.2652 38.4179 118.942 25.38 142.603C25.2017 142.9 25.0253 143.198 24.851 143.498ZM24.8651 144.526C24.6909 144.824 24.5147 145.122 24.3366 145.419C11.303 169.072 10.549 198.738 24.8945 223.871C25.0655 223.577 25.2384 223.285 25.4132 222.993C38.4557 199.338 39.2136 169.664 24.8651 144.526ZM-4.41904 173.662C-15.1252 179.851 -26.6618 183.304 -38.2191 184.237C-14.7255 186.147 7.57441 198.307 21.7013 218.849C10.9513 196.357 11.5429 170.966 21.6104 149.655C15.0338 159.202 6.28518 167.474 -4.41904 173.662ZM-43.2702 184.485C-43.608 184.491 -43.9457 184.495 -44.2833 184.497C-29.6603 209.477 -3.56832 223.63 23.4395 224.133C23.7794 224.127 24.1192 224.123 24.4588 224.122C9.83466 199.14 -16.2602 184.987 -43.2702 184.485ZM-45.1786 184.497C-45.5124 184.495 -45.8461 184.49 -46.1796 184.484C-59.3233 184.718 -72.5936 188.196 -84.781 195.241C-97.371 202.519 -107.239 212.698 -114.028 224.445C-99.4371 249.594 -73.2556 263.849 -46.1507 264.357C-45.8075 264.351 -45.4644 264.347 -45.1213 264.345C-59.7418 238.734 -58.7785 208.443 -45.1786 184.497ZM-85.0313 194.808C-74.3251 188.619 -62.7885 185.166 -51.2312 184.232C-76.5893 182.17 -100.557 168.168 -114.357 144.572C-127.884 168.373 -128.847 198.484 -114.316 223.944C-107.489 212.229 -97.6105 202.079 -85.0313 194.808ZM-114.07 144.072C-99.4769 169.225 -73.2892 183.481 -46.1797 183.984C-45.841 183.978 -45.5024 183.974 -45.164 183.973C-59.7892 158.352 -58.8203 128.05 -45.2075 104.1C-58.682 104.169 -72.3224 107.642 -84.8235 114.868C-97.4134 122.146 -107.281 132.325 -114.07 144.072ZM-15.24 74.6443C-27.7414 81.8709 -37.5586 91.9579 -44.3429 103.6C-18.6639 103.746 6.31487 116.167 21.6565 138.473C9.98341 114.046 11.6864 86.2014 24.3759 63.8762C10.9015 63.9449 -2.73893 67.4179 -15.24 74.6443ZM163.542 -16.5703C150.068 -16.5017 136.428 -13.0286 123.926 -5.8022C111.425 1.42423 101.608 11.5111 94.8239 23.1533C120.503 23.2993 145.481 35.7199 160.823 58.0256C149.15 33.5989 150.853 5.75465 163.542 -16.5703ZM167.227 69.1039C177.975 91.5966 177.382 116.987 167.313 138.298C173.89 128.749 182.64 120.475 193.346 114.287C204.05 108.099 215.585 104.646 227.14 103.712C203.65 101.8 181.353 89.6426 167.227 69.1039ZM234.641 103.972C234.803 103.97 234.964 103.967 235.126 103.965C262.129 104.473 288.215 118.625 302.836 143.601C302.647 143.602 302.458 143.603 302.269 143.606C302.122 143.607 301.976 143.61 301.83 143.612C274.818 143.113 248.719 128.96 234.094 103.976L234.233 103.976L234.326 103.975C234.431 103.974 234.536 103.973 234.641 103.972ZM232.176 103.963C232.517 103.97 232.857 103.974 233.198 103.976C233.031 104.27 232.866 104.564 232.703 104.859C225.942 116.128 216.307 125.889 204.123 132.932C191.94 139.974 178.675 143.452 165.536 143.688C165.198 143.682 164.859 143.677 164.521 143.675C164.686 143.384 164.849 143.092 165.011 142.8C171.773 131.527 181.409 121.764 193.596 114.72C205.777 107.678 219.039 104.2 232.176 103.963ZM240.162 103.716C251.717 102.782 263.252 99.3291 273.956 93.1412C284.663 86.9522 293.413 78.6782 299.99 69.1289C289.92 90.4409 289.327 115.833 300.078 138.327C285.952 117.787 263.654 105.628 240.162 103.716ZM302.294 64.624C295.531 75.8981 285.895 85.6627 273.706 92.7083C261.525 99.7497 248.263 103.227 235.126 103.464C234.785 103.458 234.445 103.454 234.104 103.452C234.271 103.158 234.436 102.864 234.598 102.569C241.36 91.2998 250.995 81.5395 263.179 74.4964C275.68 67.2699 289.321 63.7968 302.795 63.7283C302.717 63.8653 302.64 64.0025 302.563 64.1399C302.473 64.301 302.383 64.4623 302.294 64.624ZM303.687 63.2287C303.852 62.9386 304.015 62.6476 304.176 62.3558C310.938 51.082 320.575 41.3177 332.763 34.2723C345.353 26.9945 359.098 23.5236 372.666 23.5032C387.364 49.0218 386.443 79.266 372.867 103.153C357.972 77.686 331.234 63.3946 303.687 63.2287ZM302.727 64.8744C302.9 64.5853 303.072 64.2951 303.241 64.004C317.594 89.1505 316.831 118.835 303.777 142.494C303.607 142.778 303.438 143.063 303.271 143.349C288.921 118.208 289.681 88.531 302.727 64.8744ZM306.479 57.8515C317.348 34.8479 317.176 7.09026 303.616 -16.645C330.991 -16.4891 357.566 -2.29555 372.376 23.0041C358.818 23.073 345.092 26.5678 332.513 33.8394C321.806 40.0283 313.056 48.3023 306.479 57.8515ZM54.343 34.4212C66.8442 27.1947 80.4847 23.7217 93.9593 23.6531C81.2702 45.9777 79.567 73.8215 91.2392 98.248C75.8975 75.9426 50.9191 63.5223 25.2406 63.3764C32.0248 51.7343 41.8419 41.6476 54.343 34.4212ZM97.7305 178.52C107.799 157.21 108.392 131.82 97.644 109.328C111.771 129.867 134.068 142.024 157.559 143.935C146.003 144.869 134.467 148.322 123.762 154.51C113.057 160.699 104.307 168.972 97.7305 178.52ZM165.536 144.188C165.194 144.194 164.852 144.198 164.51 144.2C179.135 169.183 205.233 183.336 232.246 183.836C232.581 183.83 232.917 183.826 233.252 183.824C218.631 158.847 192.542 144.694 165.536 144.188ZM163.615 144.199C163.276 144.197 162.938 144.193 162.599 144.187C149.46 144.423 136.195 147.901 124.012 154.943C111.828 161.987 102.193 171.748 95.4307 183.018C95.2683 183.312 95.104 183.606 94.9378 183.899C95.2784 183.901 95.6188 183.905 95.959 183.911C109.096 183.674 122.359 180.196 134.54 173.155C146.726 166.11 156.362 156.348 163.124 145.076C163.238 144.87 163.352 144.664 163.468 144.459C163.517 144.373 163.566 144.286 163.615 144.199ZM204.373 133.365C193.668 139.553 182.133 143.006 170.577 143.94C194.068 145.851 216.366 158.008 230.492 178.548C219.744 156.055 220.337 130.665 230.405 109.355C223.828 118.903 215.079 127.176 204.373 133.365ZM234.033 23.5787C247.593 47.3131 247.765 75.0697 236.897 98.0728C243.474 88.5247 252.223 80.2518 262.929 74.0635C275.508 66.7918 289.234 63.2971 302.793 63.2282C287.983 37.9286 261.408 23.735 234.033 23.5787ZM233.658 104.228C233.486 104.523 233.313 104.816 233.137 105.109C220.096 128.764 219.339 158.436 233.687 183.573C233.734 183.492 233.782 183.41 233.83 183.329C233.952 183.12 234.076 182.912 234.201 182.704C247.248 159.047 248.008 129.369 233.658 104.228ZM28.0597 149.55C38.8084 172.043 38.2156 197.433 28.147 218.744C34.7239 209.195 43.4735 200.922 54.1792 194.733C64.8837 188.546 76.4185 185.093 87.974 184.158C64.4831 182.247 42.186 170.089 28.0597 149.55ZM94.926 184.423C95.2702 184.421 95.6145 184.418 95.9589 184.411C122.962 184.919 149.049 199.072 163.67 224.048C163.332 224.049 162.993 224.053 162.655 224.059C135.645 223.558 109.55 209.405 94.926 184.423ZM93.01 184.41C93.3503 184.417 93.6908 184.421 94.0314 184.423C93.8652 184.715 93.7009 185.009 93.5385 185.303C86.7766 196.573 77.1416 206.335 64.9567 213.378C52.7714 220.422 39.5036 223.9 26.3622 224.135C26.0264 224.128 25.6905 224.124 25.3544 224.122C25.5203 223.83 25.6843 223.537 25.8464 223.243C32.6084 211.972 42.2438 202.21 54.4294 195.166C66.6104 188.125 79.8731 184.647 93.01 184.41ZM100.995 184.163C112.551 183.229 124.085 179.776 134.79 173.588C145.496 167.399 154.246 159.126 160.823 149.577C150.754 170.887 150.161 196.278 160.909 218.771C146.783 198.232 124.486 186.074 100.995 184.163ZM163.558 145.325C163.732 145.034 163.904 144.743 164.075 144.451C178.426 169.594 177.665 199.275 164.615 222.933C164.443 223.22 164.273 223.507 164.104 223.796C149.755 198.656 150.514 168.981 163.558 145.325ZM94.4913 184.675C94.3913 184.846 94.2907 185.017 94.1894 185.188L94.1388 185.274L94.07 185.389L93.9719 185.553C80.9299 209.208 80.1722 238.882 94.5206 264.02C94.6894 263.73 94.8602 263.441 95.0327 263.154C108.081 239.496 108.842 209.817 94.4913 184.675ZM65.2069 213.811C54.5013 220 42.9655 223.453 31.4088 224.386C54.9006 226.297 77.1987 238.455 91.3255 258.994C80.5772 236.502 81.1701 211.112 91.2386 189.801C84.6618 199.35 75.9124 207.623 65.2069 213.811ZM25.6509 224.644L25.5417 224.645L25.343 224.646C39.9697 249.632 66.0709 263.786 93.0858 264.283C93.4193 264.277 93.7527 264.273 94.086 264.271C79.463 239.291 53.3708 225.139 26.3628 224.635C26.2492 224.637 26.1355 224.639 26.0219 224.64C25.9478 224.641 25.8737 224.642 25.7996 224.643L25.6509 224.644ZM24.4484 224.646C24.1122 224.644 23.7762 224.64 23.4403 224.634C10.2989 224.868 -2.9688 228.346 -15.1541 235.39C-27.6553 242.616 -37.4726 252.703 -44.2568 264.346C-43.9092 264.348 -43.5618 264.352 -43.2145 264.358C-30.0753 264.122 -16.81 260.645 -4.62678 253.602C7.55885 246.558 17.1943 236.796 23.9563 225.525C24.1185 225.231 24.2824 224.938 24.4484 224.646ZM18.3936 224.382C-6.96413 222.319 -30.9311 208.317 -44.7312 184.721C-58.2583 208.522 -59.2214 238.634 -44.689 264.094C-37.8624 252.379 -27.9838 242.229 -15.4043 234.957C-4.69877 228.769 6.83706 225.316 18.3936 224.382ZM24.3894 225.775C24.5641 225.484 24.7369 225.192 24.9078 224.899C39.2598 250.044 38.4977 279.726 25.4454 303.384C25.2743 303.67 25.1051 303.956 24.9377 304.243C10.5891 279.105 11.3468 249.431 24.3894 225.775ZM-38.1733 264.61C-26.6171 263.676 -15.0817 260.223 -4.37655 254.035C6.32918 247.846 15.0787 239.573 21.6556 230.024C11.5862 251.337 10.9941 276.73 21.7455 299.224C7.61926 278.681 -14.68 266.521 -38.1733 264.61ZM-44.2404 264.87C-43.8984 264.869 -43.5563 264.865 -43.2142 264.859C-16.2086 265.365 9.88032 279.517 24.5021 304.495C24.3244 304.496 24.1466 304.497 23.9689 304.5L23.8054 304.502L23.6965 304.503L23.5027 304.506C-3.51226 304.009 -29.6136 289.856 -44.2404 264.87ZM-46.1505 264.857C-45.8123 264.864 -45.4738 264.868 -45.1353 264.87C-58.7393 288.824 -59.6989 319.126 -45.0641 344.742C-72.5389 344.586 -99.2069 330.29 -113.985 304.818C-107.196 293.071 -97.3281 282.891 -84.7381 275.614C-72.5549 268.571 -59.2897 265.093 -46.1505 264.857ZM-51.1916 264.606C-62.7478 265.54 -74.2831 268.992 -84.9883 275.181C-97.5677 282.452 -107.446 292.602 -114.273 304.317C-128.805 278.857 -127.842 248.746 -114.315 224.945C-100.515 248.541 -76.5487 262.543 -51.1916 264.606ZM236.938 178.448C247.009 157.135 247.601 131.741 236.85 109.247C250.977 129.791 273.278 141.951 296.773 143.861C285.215 144.794 273.678 148.247 262.972 154.436C252.265 160.625 243.515 168.899 236.938 178.448ZM304.177 144.121C304.025 144.123 303.872 144.124 303.72 144.125C318.343 169.105 344.435 183.257 371.443 183.761C371.782 183.755 372.122 183.751 372.462 183.75C357.836 158.766 331.737 144.612 304.724 144.114C304.542 144.117 304.359 144.119 304.177 144.121ZM302.663 144.123C302.571 144.123 302.479 144.122 302.387 144.121C302.201 144.119 302.016 144.116 301.83 144.112C288.684 144.345 275.412 147.823 263.222 154.869C251.034 161.915 241.397 171.679 234.634 182.953C234.474 183.245 234.311 183.535 234.147 183.825C234.479 183.827 234.811 183.831 235.142 183.837C248.288 183.604 261.56 180.126 273.749 173.08C285.942 166.032 295.582 156.262 302.345 144.983C302.426 144.836 302.507 144.689 302.589 144.543L302.671 144.398C302.722 144.307 302.774 144.216 302.825 144.124L302.663 144.123ZM343.583 133.29C332.877 139.479 321.34 142.932 309.782 143.865C335.141 145.927 359.109 159.929 372.91 183.525C386.436 159.725 387.399 129.613 372.867 104.154C366.041 115.868 356.162 126.018 343.583 133.29ZM343.333 132.857C355.843 125.625 365.665 115.53 372.45 103.877C358.966 103.941 345.316 107.414 332.806 114.646C320.613 121.694 310.973 131.464 304.21 142.743C304.175 142.808 304.139 142.873 304.103 142.937L304.013 143.099C303.964 143.186 303.915 143.273 303.867 143.36C303.821 143.44 303.776 143.521 303.73 143.601C303.891 143.602 304.052 143.604 304.214 143.606C304.384 143.608 304.554 143.61 304.725 143.613C317.871 143.381 331.143 139.903 343.333 132.857ZM442.493 143.301C427.599 117.835 400.861 103.544 373.314 103.378C386.918 79.4238 387.878 49.1214 373.243 23.5044C400.758 23.6615 427.464 37.9991 442.228 63.5408C456.993 89.0826 456.089 119.38 442.493 143.301ZM167.27 149.476C178.018 171.97 177.425 197.362 167.355 218.673C173.932 209.123 182.682 200.849 193.389 194.66C204.095 188.471 215.632 185.018 227.189 184.084C203.696 182.175 181.397 170.016 167.27 149.476ZM234.135 184.349C234.471 184.347 234.806 184.343 235.142 184.337C262.155 184.836 288.253 198.989 302.879 223.973C302.653 223.974 302.427 223.977 302.201 223.98C302.083 223.981 301.964 223.983 301.845 223.985C274.842 223.477 248.756 209.325 234.135 184.349ZM232.246 184.336C232.362 184.338 232.478 184.34 232.595 184.342C232.81 184.345 233.026 184.347 233.241 184.348C233.137 184.531 233.034 184.714 232.932 184.897C232.872 185.004 232.813 185.112 232.753 185.22C225.991 196.494 216.354 206.258 204.166 213.304C191.978 220.349 178.709 223.827 165.565 224.06C165.231 224.054 164.897 224.05 164.563 224.048C164.648 223.899 164.732 223.751 164.815 223.601L164.904 223.442L164.956 223.349L165.048 223.183C171.81 211.906 181.448 202.139 193.639 195.093C205.828 188.047 219.1 184.569 232.246 184.336ZM240.199 184.089C251.756 183.155 263.293 179.702 273.999 173.513C284.707 167.324 293.457 159.049 300.035 149.498C289.963 170.811 289.37 196.205 300.121 218.7C285.993 198.158 263.693 185.999 240.199 184.089ZM306.52 138.228C317.391 115.224 317.22 87.4649 303.66 63.7286C331.035 63.8849 357.609 78.0783 372.419 103.377C358.86 103.446 345.135 106.941 332.556 114.213C321.848 120.402 313.098 128.677 306.52 138.228ZM302.778 145.232C302.949 144.948 303.117 144.662 303.284 144.376C317.63 169.509 316.876 199.174 303.842 222.827C303.741 222.996 303.64 223.166 303.539 223.336C303.464 223.464 303.388 223.592 303.313 223.721C288.961 198.575 289.724 168.891 302.778 145.232ZM97.7716 258.896C107.841 237.585 108.435 212.193 97.686 189.7C111.813 210.24 134.112 222.398 157.604 224.308C146.047 225.241 134.511 228.694 123.805 234.883C113.099 241.072 104.349 249.346 97.7716 258.896ZM165.566 224.561C165.228 224.567 164.89 224.57 164.553 224.572C179.173 249.548 205.259 263.7 232.263 264.208C232.347 264.207 232.43 264.205 232.514 264.204C232.605 264.203 232.696 264.202 232.787 264.201C232.956 264.199 233.126 264.197 233.295 264.196C218.671 239.215 192.576 225.062 165.566 224.561ZM163.658 224.572C163.324 224.57 162.99 224.566 162.656 224.559C149.512 224.793 136.243 228.271 124.055 235.316C111.866 242.362 102.228 252.128 95.4658 263.404C95.3607 263.594 95.2548 263.784 95.1482 263.974C95.0923 264.073 95.0362 264.173 94.9798 264.272C95.1934 264.273 95.407 264.275 95.6205 264.278C95.7364 264.28 95.8522 264.282 95.9681 264.284C109.116 264.052 122.391 260.575 134.583 253.527C146.773 246.48 156.411 236.713 163.174 225.437C163.333 225.147 163.495 224.859 163.658 224.572ZM204.416 213.737C193.71 219.926 182.174 223.379 170.617 224.312C194.109 226.222 216.408 238.38 230.535 258.921C219.786 236.428 220.38 211.036 230.449 189.725C223.872 199.274 215.122 207.548 204.416 213.737ZM233.407 185.099C233.334 185.223 233.261 185.346 233.187 185.469C220.14 209.126 219.38 238.803 233.73 263.945C233.904 263.646 234.08 263.348 234.258 263.051C247.292 239.399 248.046 209.733 233.701 184.6C233.603 184.767 233.506 184.933 233.407 185.099ZM163.607 225.687C163.779 225.4 163.949 225.112 164.118 224.823C178.463 249.955 177.709 279.621 164.676 303.274C164.498 303.571 164.321 303.869 164.147 304.168C149.796 279.025 150.557 249.344 163.607 225.687ZM101.03 264.536C112.589 263.602 124.126 260.149 134.833 253.96C145.54 247.771 154.29 239.497 160.867 229.947C150.797 251.258 150.203 276.651 160.952 299.145C146.825 278.603 124.524 266.445 101.03 264.536ZM95.2272 264.794L95.3448 264.793C95.5528 264.79 95.7608 264.788 95.9689 264.784C122.984 265.281 149.085 279.434 163.712 304.42C163.37 304.422 163.028 304.426 162.686 304.432C135.68 303.926 109.591 289.774 94.9689 264.795C95.055 264.795 95.1411 264.794 95.2272 264.794ZM93.0867 264.783C93.4159 264.789 93.7453 264.793 94.0747 264.795C93.9109 265.083 93.7489 265.373 93.5888 265.663C86.8264 276.939 77.1887 286.704 64.9992 293.751C52.8077 300.798 39.5327 304.276 26.3848 304.507C26.0555 304.501 25.726 304.497 25.3965 304.495C25.5589 304.209 25.7196 303.922 25.8785 303.635C32.6411 292.356 42.2803 282.587 54.4724 275.54C66.6638 268.492 79.9388 265.014 93.0867 264.783ZM28.1003 229.919C42.2279 250.462 64.5294 262.622 88.0244 264.531C76.4664 265.464 64.929 268.917 54.2221 275.107C43.515 281.296 34.7646 289.571 28.1874 299.121C38.2586 277.808 38.8517 252.414 28.1003 229.919ZM94.5341 265.047C94.3653 265.336 94.1945 265.625 94.0219 265.913C80.9732 289.57 80.2126 319.249 94.5633 344.392C94.737 344.094 94.9127 343.797 95.0904 343.501C108.126 319.848 108.88 290.18 94.5341 265.047ZM65.2494 294.184C54.5424 300.373 43.005 303.826 31.4469 304.759C54.9416 306.669 77.2428 318.828 91.3704 339.371C80.6196 316.877 81.2126 291.483 91.283 270.171C84.706 279.72 75.9559 287.995 65.2494 294.184ZM26.3846 305.008C26.0517 305.013 25.7189 305.017 25.3862 305.019C40.008 329.997 66.0973 344.149 93.103 344.655C93.4447 344.649 93.7863 344.645 94.1278 344.644C79.5009 319.658 53.3995 305.505 26.3846 305.008ZM24.4917 305.019C24.1621 305.017 23.8327 305.013 23.5033 305.007C10.3552 305.238 -2.91995 308.716 -15.1116 315.763C-27.6214 322.995 -37.4435 333.091 -44.2282 344.743C-30.7447 344.679 -17.0941 341.206 -4.5843 333.975C7.6078 326.927 17.247 317.158 24.0096 305.88C24.1684 305.592 24.3292 305.305 24.4917 305.019ZM18.4408 304.755C-6.91832 302.694 -30.887 288.692 -44.6881 265.095C-58.2147 288.895 -59.1778 319.007 -44.646 344.466C-37.8194 332.752 -27.941 322.602 -15.3618 315.33C-4.65486 309.141 6.88263 305.688 18.4408 304.755ZM24.4431 306.129C24.6141 305.844 24.7832 305.558 24.9505 305.271C39.2991 330.409 38.5412 360.083 25.4986 383.739C25.3239 384.03 25.151 384.322 24.9801 384.616C10.6281 359.47 11.3904 329.787 24.4431 306.129ZM-44.1972 345.243C-30.6387 345.174 -16.9132 341.679 -4.33407 334.408C6.37304 328.218 15.1235 319.943 21.7007 310.393C10.8304 333.397 11.0019 361.156 24.562 384.892C-2.8131 384.735 -29.3872 370.542 -44.1972 345.243ZM-45.0924 345.242C-58.6967 369.196 -59.6566 399.498 -45.022 425.115C-72.5365 424.958 -99.242 410.621 -114.007 385.079C-128.771 359.537 -127.868 329.24 -114.272 305.318C-99.3772 330.785 -72.6395 345.077 -45.0924 345.242ZM306.568 218.591C316.636 197.281 317.227 171.89 306.478 149.398C320.604 169.94 342.903 182.099 366.396 184.01C354.839 184.943 343.303 188.396 332.598 194.585C321.893 200.773 313.145 209.045 306.568 218.591ZM373.357 183.75C373.693 183.752 374.029 183.756 374.364 183.763C387.506 183.528 400.774 180.05 412.96 173.006C425.55 165.728 435.417 155.549 442.206 143.802C427.428 118.33 400.76 104.034 373.286 103.878C387.92 129.494 386.961 159.796 373.357 183.75ZM413.21 173.439C402.504 179.628 390.968 183.081 379.411 184.014C404.769 186.077 428.736 200.079 442.536 223.675C456.063 199.875 457.027 169.763 442.494 144.302C435.668 156.017 425.789 166.167 413.21 173.439ZM374.365 184.263C374.024 184.269 373.683 184.273 373.342 184.274C387.963 209.886 387 240.177 373.4 264.123C373.584 264.125 373.769 264.126 373.954 264.129C374.105 264.131 374.257 264.133 374.408 264.136C387.55 263.901 400.817 260.423 413.003 253.379C425.592 246.102 435.46 235.923 442.249 224.176C427.657 199.024 401.472 184.768 374.365 184.263ZM372.479 184.274C372.133 184.272 371.788 184.268 371.443 184.262C358.301 184.496 345.033 187.974 332.848 195.018C320.668 202.058 311.037 211.814 304.275 223.078C304.11 223.377 303.943 223.676 303.774 223.974C304.114 223.976 304.454 223.98 304.794 223.986C317.931 223.75 331.194 220.272 343.376 213.23C355.877 206.004 365.694 195.917 372.479 184.274ZM236.896 189.626C247.644 212.117 247.051 237.506 236.985 258.815C243.561 249.268 252.31 240.996 263.014 234.809C273.719 228.621 285.254 225.168 296.809 224.234C273.319 222.322 251.022 210.164 236.896 189.626ZM303.763 224.498C304.107 224.497 304.451 224.493 304.795 224.487C331.798 224.995 357.884 239.147 372.505 264.123C372.165 264.125 371.825 264.129 371.485 264.135C344.478 263.631 318.386 249.478 303.763 224.498ZM301.845 224.485C302.186 224.492 302.526 224.496 302.867 224.498L302.77 224.669C302.634 224.91 302.499 225.152 302.365 225.394C295.603 236.658 285.972 246.413 273.793 253.453C261.611 260.495 248.348 263.973 235.211 264.21C234.972 264.205 234.734 264.202 234.495 264.199C234.393 264.198 234.292 264.198 234.19 264.197C234.36 263.899 234.527 263.601 234.692 263.301C241.453 252.037 251.085 242.282 263.264 235.241C275.446 228.2 288.708 224.722 301.845 224.485ZM309.83 224.238C321.386 223.304 332.921 219.851 343.626 213.663C356.205 206.391 366.084 196.241 372.91 184.526C387.442 209.986 386.479 240.098 372.952 263.898C359.153 240.303 335.187 226.301 309.83 224.238ZM167.402 299.038C177.468 277.729 178.061 252.34 167.313 229.849C181.439 250.388 203.736 262.545 227.227 264.457C215.671 265.391 204.136 268.844 193.431 275.032C182.727 281.219 173.978 289.491 167.402 299.038ZM235.211 264.71C234.867 264.716 234.523 264.72 234.179 264.722C248.802 289.701 274.893 303.854 301.901 304.358C302.1 304.354 302.3 304.352 302.499 304.35C302.64 304.348 302.781 304.347 302.922 304.346C288.301 279.37 262.214 265.218 235.211 264.71ZM233.283 264.721C232.943 264.719 232.603 264.715 232.262 264.708C219.125 264.945 205.863 268.423 193.681 275.465C181.502 282.505 171.871 292.26 165.109 303.523C164.944 303.823 164.776 304.123 164.607 304.421C164.758 304.422 164.909 304.423 165.061 304.425C165.179 304.426 165.298 304.428 165.417 304.43C165.485 304.431 165.553 304.432 165.622 304.433C178.761 304.197 192.026 300.72 204.209 293.677C216.389 286.637 226.02 276.881 232.782 265.617C232.856 265.482 232.932 265.347 233.007 265.212C233.073 265.093 233.139 264.975 233.206 264.857L233.283 264.721ZM274.043 253.886C263.338 260.074 251.803 263.527 240.248 264.461C263.738 266.373 286.035 278.53 300.161 299.069C289.413 276.578 290.006 251.189 300.072 229.88C293.496 239.427 284.747 247.699 274.043 253.886ZM303.063 225.2C302.975 225.348 302.887 225.496 302.799 225.643C289.765 249.296 289.011 278.962 303.356 304.095C303.41 304.003 303.464 303.911 303.518 303.819C303.563 303.741 303.609 303.664 303.655 303.587L303.747 303.432L303.806 303.333L303.883 303.203C316.918 279.55 317.673 249.883 303.327 224.75C303.24 224.9 303.151 225.05 303.063 225.2ZM97.7295 270.073C108.477 292.564 107.885 317.953 97.8179 339.263C104.394 329.716 113.143 321.443 123.848 315.256C134.553 309.067 146.088 305.614 157.645 304.68C134.153 302.77 111.856 290.612 97.7295 270.073ZM164.596 304.945C164.937 304.943 165.279 304.94 165.621 304.933C192.627 305.439 218.716 319.592 233.338 344.57C232.994 344.571 232.65 344.575 232.306 344.581C205.302 344.073 179.216 329.921 164.596 304.945ZM162.685 304.932C163.023 304.939 163.362 304.943 163.7 304.945C163.531 305.243 163.364 305.542 163.198 305.841C156.437 317.105 146.805 326.86 134.626 333.9C122.443 340.943 109.177 344.421 96.0377 344.656L95.8553 344.653C95.7692 344.652 95.6831 344.651 95.597 344.649L95.4548 344.648L95.2603 344.646C95.1815 344.645 95.1027 344.644 95.0238 344.644C95.1924 344.347 95.3591 344.049 95.5238 343.75C102.285 332.486 111.918 322.729 124.098 315.689C136.281 308.646 149.546 305.168 162.685 304.932ZM170.663 304.685C182.219 303.751 193.754 300.298 204.459 294.11C215.164 287.922 223.912 279.65 230.489 270.103C220.422 291.413 219.83 316.802 230.578 339.294C216.451 318.754 194.154 306.596 170.663 304.685ZM233.215 265.867C233.313 265.704 233.411 265.54 233.507 265.376C233.558 265.291 233.608 265.206 233.658 265.12L233.744 264.973C248.092 290.11 247.335 319.782 234.294 343.437C234.209 343.58 234.123 343.723 234.039 343.866L233.94 344.034L233.87 344.152L233.773 344.319C219.427 319.186 220.181 289.52 233.215 265.867ZM28.2325 379.489C38.3019 358.177 38.894 332.784 28.1425 310.29C42.2688 330.833 64.5682 342.993 88.0616 344.904C76.5053 345.838 64.9698 349.291 54.2646 355.479C43.5589 361.667 34.8094 369.941 28.2325 379.489ZM96.038 345.157C95.6959 345.163 95.3539 345.167 95.012 345.168C109.634 370.146 135.723 384.299 162.729 384.805C163.071 384.799 163.413 384.795 163.755 384.793C149.133 359.815 123.044 345.663 96.038 345.157ZM94.117 345.168C93.7789 345.166 93.441 345.162 93.1032 345.155C79.9638 345.391 66.6983 348.869 54.5148 355.912C42.3293 362.956 32.6939 372.718 25.9319 383.988C25.7653 384.291 25.5966 384.592 25.426 384.892C38.9007 384.823 52.5413 381.35 65.0427 374.124C77.2229 367.083 86.8552 357.326 93.6168 346.062C93.7815 345.763 93.9483 345.465 94.117 345.168ZM134.876 334.333C124.171 340.521 112.636 343.974 101.079 344.908C124.571 346.819 146.868 358.977 160.995 379.517C150.247 357.025 150.839 331.636 160.906 310.327C154.329 319.873 145.581 328.145 134.876 334.333ZM163.956 305.546C163.849 305.728 163.741 305.909 163.632 306.09C150.598 329.743 149.844 359.409 164.19 384.542C164.319 384.32 164.45 384.098 164.582 383.877C164.626 383.803 164.67 383.729 164.714 383.655C177.752 360.001 178.507 330.332 164.161 305.197C164.12 305.266 164.08 305.335 164.04 305.404L163.956 305.546ZM-44.6451 345.467C-58.2213 369.354 -59.1423 399.598 -44.4448 425.116C-30.877 425.096 -17.1314 421.625 -4.54132 414.347C7.64434 407.303 17.2798 397.541 24.0418 386.27C24.2039 385.977 24.3679 385.684 24.5337 385.392C-3.0132 385.225 -29.7506 370.934 -44.6451 345.467ZM25.429 385.392C40.2388 410.691 66.8128 424.885 94.1879 425.041C80.6289 401.308 80.4558 373.552 91.3226 350.55C84.746 360.097 75.9973 368.369 65.2929 374.557C52.7135 381.828 38.9878 385.323 25.429 385.392ZM94.05 346.312C94.2276 346.016 94.4033 345.719 94.577 345.421C108.925 370.559 108.168 400.232 95.1254 423.888C94.9505 424.179 94.7774 424.472 94.6063 424.766C80.2604 399.632 81.015 369.965 94.05 346.312ZM24.9951 385.641C24.8237 385.935 24.6503 386.228 24.475 386.52C11.3843 410.263 10.669 440.068 25.1823 465.266C38.75 465.246 52.4953 461.775 65.0851 454.497C77.2705 447.453 86.9058 437.692 93.6678 426.421C93.8301 426.127 93.9941 425.833 94.1601 425.541C66.6217 425.375 39.8923 411.092 24.9951 385.641ZM24.6052 465.265C11.0453 441.53 10.8727 413.773 21.7411 390.77C15.1642 400.318 6.41465 408.592 -4.29109 414.78C-16.8705 422.052 -30.5962 425.547 -44.155 425.616C-29.3449 450.915 -2.77031 465.109 24.6052 465.265ZM306.521 229.772C317.27 252.264 316.678 277.654 306.611 298.965C313.187 289.418 321.936 281.146 332.641 274.958C343.346 268.77 354.882 265.317 366.439 264.383C342.946 262.472 320.648 250.313 306.521 229.772ZM373.385 264.648C373.726 264.646 374.067 264.642 374.408 264.636C401.515 265.142 427.699 279.397 442.291 304.548C435.502 316.295 425.635 326.474 413.045 333.752C400.543 340.978 386.903 344.451 373.428 344.52C387.041 320.57 388.01 290.268 373.385 264.648ZM371.485 264.635C371.831 264.641 372.176 264.645 372.521 264.647C365.737 276.289 355.92 286.376 343.419 293.603C331.233 300.647 317.966 304.124 304.824 304.359L304.647 304.356L304.487 304.354L304.347 304.352C304.17 304.35 303.993 304.348 303.817 304.347C303.985 304.05 304.152 303.752 304.316 303.454C311.078 292.189 320.71 282.432 332.891 275.391C345.076 268.347 358.344 264.87 371.485 264.635ZM379.454 264.388C391.011 263.454 402.547 260.001 413.253 253.812C425.832 246.541 435.71 236.391 442.537 224.676C457.068 250.136 456.105 280.247 442.578 304.047C428.778 280.452 404.812 266.45 379.454 264.388ZM343.669 294.036C332.963 300.224 321.427 303.677 309.871 304.611C335.228 306.673 359.195 320.675 372.995 344.27C386.522 320.47 387.485 290.359 372.953 264.899C366.127 276.614 356.248 286.764 343.669 294.036ZM304.825 304.859C304.485 304.865 304.145 304.869 303.805 304.871C318.615 330.169 345.188 344.362 372.562 344.52C357.941 319.525 331.841 305.363 304.825 304.859ZM302.009 304.86L301.902 304.858C288.761 305.093 275.493 308.571 263.308 315.615C251.124 322.658 241.49 332.418 234.728 343.687C234.565 343.982 234.4 344.276 234.233 344.57C234.574 344.572 234.914 344.576 235.255 344.583C248.392 344.346 261.655 340.868 273.836 333.826C286.016 326.785 295.648 317.029 302.41 305.764C302.575 305.465 302.741 305.167 302.91 304.871C302.731 304.869 302.553 304.868 302.374 304.866L302.253 304.864L302.123 304.862L302.009 304.86ZM296.855 304.606C273.364 302.696 251.065 290.538 236.939 269.998C247.687 292.49 247.095 317.881 237.026 339.191C243.603 329.643 252.352 321.37 263.058 315.182C273.763 308.993 285.299 305.54 296.855 304.606ZM167.356 310.221C178.104 332.713 177.512 358.103 167.444 379.413C174.021 369.865 182.77 361.593 193.475 355.405C204.179 349.217 215.714 345.764 227.27 344.83C203.779 342.918 181.482 330.761 167.356 310.221ZM234.221 345.095C234.315 345.094 234.409 345.094 234.503 345.093C234.643 345.092 234.783 345.09 234.924 345.088C235.034 345.086 235.144 345.085 235.254 345.083C262.266 345.591 288.361 359.752 302.979 384.743C275.604 384.586 249.031 370.393 234.221 345.095ZM232.894 345.09C233.038 345.092 233.182 345.093 233.327 345.094C233.16 345.388 232.995 345.682 232.832 345.978C226.07 357.247 216.436 367.007 204.252 374.05C192.069 381.093 178.803 384.57 165.664 384.806C165.326 384.8 164.988 384.796 164.65 384.794C164.736 384.643 164.821 384.492 164.906 384.341C164.987 384.196 165.067 384.05 165.148 383.905C171.909 372.638 181.543 362.88 193.725 355.838C205.906 348.796 219.169 345.318 232.306 345.082C232.502 345.085 232.698 345.088 232.894 345.09ZM240.291 344.834C251.846 343.9 263.381 340.447 274.086 334.259C284.79 328.071 293.539 319.799 300.116 310.252C290.049 331.561 289.456 356.949 300.203 379.439C286.076 358.902 263.78 346.746 240.291 344.834ZM302.843 306.014C303.021 305.718 303.197 305.421 303.37 305.123C317.902 330.582 316.939 360.692 303.413 384.492C289.053 359.353 289.804 329.674 302.843 306.014ZM233.787 345.346C233.615 345.641 233.441 345.935 233.266 346.227C220.221 369.89 219.468 399.573 233.83 424.715C247.355 400.916 248.318 370.805 233.787 345.346ZM204.502 374.483C193.797 380.671 182.262 384.124 170.706 385.058C194.197 386.969 216.494 399.126 230.621 419.666C219.873 397.174 220.466 371.784 230.534 350.473C223.957 360.021 215.208 368.294 204.502 374.483ZM165.664 385.306C165.322 385.312 164.98 385.316 164.639 385.318C179.448 410.616 206.021 424.809 233.395 424.966C218.776 399.973 192.679 385.812 165.664 385.306ZM163.744 385.318C163.405 385.316 163.067 385.311 162.73 385.305C149.59 385.541 136.325 389.019 124.141 396.061C111.956 403.105 102.321 412.867 95.5587 424.137C95.4584 424.319 95.3574 424.501 95.2557 424.682C95.1883 424.802 95.1205 424.922 95.0525 425.042C108.527 424.973 122.168 421.5 134.669 414.273C146.851 407.232 156.484 397.473 163.246 386.207C163.41 385.909 163.576 385.613 163.744 385.318ZM157.688 385.053C134.195 383.142 111.897 370.983 97.7702 350.442C108.52 372.935 107.928 398.327 97.859 419.639C104.436 410.09 113.185 401.817 123.891 395.628C134.596 389.44 146.132 385.987 157.688 385.053ZM95.0549 425.542C109.865 450.841 136.439 465.034 163.815 465.19C150.256 441.456 150.083 413.701 160.95 390.698C154.373 400.246 145.624 408.518 134.919 414.706C122.34 421.978 108.614 425.473 95.0549 425.542ZM163.679 386.457C163.782 386.285 163.884 386.114 163.985 385.942C164.059 385.818 164.131 385.694 164.204 385.57C178.735 411.029 177.772 441.139 164.247 464.938C149.886 439.798 150.638 410.118 163.679 386.457ZM94.6213 425.791C94.4498 426.085 94.2764 426.378 94.1011 426.671C81.0109 450.413 80.2957 480.217 94.8081 505.415C108.376 505.394 122.122 501.923 134.712 494.646C147.213 487.419 157.03 477.332 163.814 465.69C136.266 465.534 109.524 451.251 94.6213 425.791ZM94.231 505.413C80.6717 481.679 80.4994 453.923 91.3675 430.92C84.7906 440.468 76.041 448.741 65.3354 454.93C52.7562 462.202 39.0307 465.696 25.4722 465.765C40.2823 491.064 66.8561 505.257 94.231 505.413ZM306.565 310.148C318.238 334.574 316.535 362.419 303.845 384.743C317.32 384.675 330.96 381.202 343.461 373.975C355.962 366.749 365.78 356.662 372.564 345.02C346.885 344.874 321.907 332.453 306.565 310.148ZM373.428 345.02C386.988 344.951 400.715 341.457 413.295 334.185C425.874 326.913 435.753 316.763 442.579 305.048C464.413 343.301 451.269 392.054 413.088 414.125C400.586 421.351 386.946 424.825 373.472 424.893C387.085 400.943 388.054 370.64 373.428 345.02ZM234.262 424.967C246.951 402.641 248.654 374.797 236.981 350.37C252.323 372.677 277.302 385.097 302.981 385.243C296.196 396.885 286.379 406.972 273.878 414.199C261.377 421.425 247.737 424.898 234.262 424.967ZM372.895 424.894C345.419 424.836 318.709 410.632 303.847 385.244C317.406 385.175 331.132 381.68 343.711 374.408C356.291 367.137 366.169 356.986 372.996 345.271C387.579 370.821 386.558 401.055 372.895 424.894ZM234.264 425.467C247.823 425.398 261.549 421.903 274.128 414.631C286.708 407.36 296.586 397.21 303.413 385.494C317.996 411.044 316.975 441.278 303.312 465.117C275.835 465.059 249.126 450.855 234.264 425.467ZM167.398 390.594C182.74 412.9 207.718 425.32 233.397 425.466C226.613 437.109 216.796 447.196 204.295 454.422C191.793 461.649 178.153 465.122 164.679 465.19C177.368 442.865 179.071 415.021 167.398 390.594ZM233.729 505.34C206.252 505.282 179.544 491.078 164.682 465.691C178.24 465.622 191.966 462.127 204.545 454.855C217.124 447.584 227.003 437.433 233.83 425.718C248.413 451.267 247.392 481.501 233.729 505.34ZM164.248 465.939C179.15 491.399 205.893 505.683 233.441 505.84C226.657 517.482 216.839 527.569 204.338 534.795C166.157 556.866 117.349 543.925 95.0979 505.914C108.657 505.845 122.382 502.35 134.962 495.078C147.542 487.806 157.421 477.655 164.248 465.939ZM303.889 465.116C316.577 442.792 318.281 414.949 306.61 390.523C321.952 412.828 346.929 425.247 372.607 425.393C365.823 437.035 356.006 447.122 343.505 454.348C331.003 461.575 317.363 465.048 303.889 465.116ZM303.024 465.616C277.345 465.47 252.367 453.05 237.025 430.744C248.697 455.171 246.995 483.015 234.305 505.34C247.78 505.271 261.42 501.798 273.922 494.572C286.423 487.345 296.24 477.258 303.024 465.616Z" fill="#FDFDFD"/>
</svg>
