<svg width="178" height="125" viewBox="0 0 178 125" fill="none" xmlns="http://www.w3.org/2000/svg">
<g id="Property 1=gucci" clip-path="url(#clip0_362_6963)">
<path id="path855" fill-rule="evenodd" clip-rule="evenodd" d="M144.174 88.4948C144.174 108.652 127.771 125.004 107.552 125.004C101.727 125.004 96.2374 123.67 91.2832 121.2C86.3952 123.603 80.8385 125.004 75.0817 125.004C54.8617 125.004 38.459 108.652 38.459 88.4948C38.459 68.3378 54.8617 51.9854 75.0807 51.9854C80.9056 51.9854 86.3952 53.3204 91.2823 55.723C96.1703 53.3204 101.727 51.9854 107.552 51.9854C127.771 51.9854 144.174 68.3378 144.174 88.4948ZM136.944 88.4948C136.944 72.3429 123.753 59.1943 107.552 59.1943C104.472 59.1943 101.46 59.6612 98.7145 60.5293C104.338 65.2008 108.423 71.4748 110.43 78.6837H102.865C100.74 72.6658 96.6954 67.5079 91.3503 63.9995C86.0609 67.4698 82.0435 72.6103 79.9017 78.6837H72.3364C74.3176 71.5748 78.4001 65.2254 84.0522 60.4624C81.1677 59.576 78.1662 59.126 75.1477 59.1274C58.9461 59.1274 45.7571 72.276 45.7571 88.428C45.7571 104.58 58.9461 117.73 75.1477 117.73C78.2273 117.73 81.1728 117.263 83.9181 116.394C76.621 110.321 71.868 101.377 71.1314 91.3654H88.538V98.5064L80.0348 98.6402C82.2447 104.514 86.195 109.454 91.3503 112.857C96.5046 109.453 100.455 104.514 102.665 98.6402L94.1617 98.5064V91.3654H111.569C110.766 101.377 105.946 110.254 98.6474 116.328C101.46 117.196 104.472 117.73 107.552 117.73C123.821 117.796 136.944 104.714 136.944 88.4948Z" fill="#232323"/>
<path id="Vector" d="M138.093 7.43237L137.868 7.50707C136.993 5.61236 135.743 4.104 134.117 2.98198C132.517 1.86062 130.504 1.29994 128.079 1.29994C126.729 1.29994 125.441 1.58667 124.216 2.16013C122.99 2.70803 121.915 3.49318 120.99 4.51558C120.089 5.51242 119.364 6.7216 118.815 8.14313C118.264 9.56334 117.989 11.1336 117.989 12.854C117.989 14.5738 118.264 16.1441 118.815 17.5649C119.365 18.9858 120.09 20.2074 120.99 21.2298C121.915 22.2267 122.99 22.9994 124.215 23.5479C125.441 24.0965 126.729 24.3708 128.079 24.3708C130.479 24.3708 132.429 23.9969 133.93 23.2491C135.455 22.4757 136.743 21.3039 137.793 19.7336L138.018 19.8083L137.943 22.2011C137.368 22.7995 136.705 23.3356 135.955 23.8094C135.206 24.2584 134.393 24.645 133.517 24.9694C132.667 25.2676 131.78 25.4918 130.855 25.6419C129.929 25.8162 129.004 25.9034 128.079 25.9034C126.154 25.9034 124.316 25.5921 122.566 24.9694C120.815 24.3455 119.277 23.4729 117.952 22.3515C116.627 21.2046 115.576 19.8335 114.801 18.2383C114.026 16.6182 113.639 14.8235 113.639 12.854C113.639 10.8846 114.027 9.10196 114.802 7.5061C115.577 5.88599 116.627 4.5028 117.952 3.35653C119.277 2.20961 120.815 1.33697 122.566 0.738606C124.316 0.115992 126.153 -0.195312 128.078 -0.195312C129.004 -0.195312 129.929 -0.120922 130.855 0.0278505C131.78 0.177933 132.667 0.414847 133.517 0.738606C134.392 1.03812 135.205 1.4248 135.955 1.89864C136.705 2.34693 137.368 2.87025 137.943 3.46861L138.093 7.43237Z" fill="#232323"/>
<path id="Vector_2" d="M55.4422 14.5739C55.1674 14.6984 54.9051 14.8603 54.6553 15.0596C54.4055 15.2588 54.2806 15.5331 54.2806 15.8824V20.4822C53.0795 22.2019 51.5412 23.5356 49.6656 24.4833C47.7907 25.4304 45.7157 25.9039 43.4404 25.9039C41.5149 25.9039 39.6768 25.5922 37.9262 24.969C36.1762 24.3457 34.6385 23.473 33.3132 22.351C31.9879 21.2041 30.9377 19.8334 30.1626 18.2388C29.3875 16.6181 29 14.823 29 12.8535C29 10.8848 29.3879 9.10245 30.1636 7.50659C30.938 5.88648 31.9879 4.50296 33.3132 3.35604C34.6385 2.20912 36.1762 1.33682 37.9262 0.739108C39.6768 0.115838 41.5149 -0.195801 43.4404 -0.195801C44.3654 -0.195801 45.2903 -0.12109 46.2153 0.0283373C47.1409 0.177765 48.0284 0.414693 48.8778 0.739108C49.7534 1.03796 50.5663 1.42431 51.3164 1.89815C52.0665 2.34709 52.7291 2.87042 53.3043 3.46813L53.4552 7.43188L53.2294 7.50659C52.3551 5.61253 51.105 4.1045 49.4793 2.98248C47.8785 1.86047 45.8656 1.29945 43.4404 1.29945C42.0901 1.29945 40.8023 1.58618 39.5769 2.15964C38.3521 2.7082 37.2773 3.49335 36.3523 4.51509C35.4517 5.51258 34.7263 6.72177 34.176 8.14264C33.6258 9.56351 33.3507 11.1338 33.3507 12.8535C33.3507 14.5484 33.6136 16.1062 34.1395 17.5271C34.6891 18.9486 35.4139 20.1702 36.3139 21.192C37.2395 22.1888 38.3147 22.974 39.5394 23.5474C40.7648 24.096 42.0651 24.3703 43.4404 24.3703C46.0411 24.3703 48.2664 23.8719 50.1163 22.875V15.8824C50.1163 15.5337 49.9789 15.2595 49.7041 15.0596C49.4543 14.8603 49.2045 14.6981 48.9547 14.5729L48.9882 14.3861C49.1131 14.4091 49.3383 14.434 49.6637 14.4609C49.9891 14.4838 50.3267 14.5087 50.6764 14.5356H53.9019C54.2024 14.5126 54.49 14.4877 54.7648 14.4609C55.0396 14.4379 55.2519 14.413 55.4018 14.3861L55.4422 14.5739Z" fill="#232323"/>
<path id="Vector_3" d="M82.6091 0.58913C82.3593 0.713653 82.1095 0.875856 81.8597 1.07575C81.6092 1.27498 81.4715 1.64887 81.4465 2.19743C81.4235 2.79579 81.3985 3.55605 81.3716 4.47817C81.3716 5.37605 81.3604 6.39844 81.338 7.54536C81.338 8.69163 81.3265 9.93785 81.3035 11.284V15.4719C81.2805 17.092 81.0803 18.4755 80.703 19.6224C80.3283 20.7694 79.8283 21.7288 79.2031 22.5009C78.6029 23.2742 77.9278 23.8851 77.1777 24.3333C76.4526 24.7823 75.7275 25.1188 75.0024 25.343C74.3022 25.592 73.6396 25.7418 73.0144 25.7922C72.3892 25.8669 71.9014 25.9043 71.551 25.9043C70.1258 25.9043 68.7505 25.7175 67.4252 25.344C66.0999 24.9946 64.9373 24.4212 63.9374 23.6236C62.9375 22.8253 62.1374 21.7908 61.5372 20.52C60.937 19.2485 60.6369 17.7028 60.6369 15.8828V11.6576V7.76852C60.6369 6.57245 60.6254 5.50089 60.6024 4.55386C60.6024 3.58127 60.5909 2.79579 60.5679 2.19743C60.5455 1.64887 60.4081 1.2753 60.1557 1.07672C59.9059 0.876831 59.6561 0.714309 59.4062 0.58913L59.4398 0.402344C59.5647 0.425282 59.7652 0.450176 60.0413 0.477046C60.3411 0.499985 60.6408 0.524893 60.9406 0.551764C61.266 0.551764 61.5783 0.563237 61.8774 0.586175H63.2284C63.5288 0.563237 63.8414 0.551764 64.1661 0.551764C64.4916 0.528826 64.7917 0.503917 65.0665 0.477046C65.3662 0.454108 65.5786 0.429214 65.7035 0.402344L65.738 0.58913C65.4632 0.713653 65.2006 0.875856 64.9501 1.07575C64.7253 1.27498 64.6004 1.64887 64.5754 2.19743C64.5524 2.79579 64.5274 3.58095 64.5004 4.55289V15.8828C64.5004 18.6 65.1381 20.6068 66.4135 21.9032C67.6888 23.1995 69.5765 23.8477 72.0766 23.8477C72.8017 23.8477 73.6268 23.7602 74.5517 23.5852C75.4773 23.386 76.3402 22.9872 77.1402 22.3888C77.9653 21.7904 78.6529 20.943 79.2031 19.8466C79.7784 18.7495 80.066 17.2912 80.066 15.4719C80.066 13.5025 80.0545 11.8198 80.0315 10.4238C80.0315 9.00294 80.02 7.79376 79.997 6.79626C79.997 5.77387 79.9855 4.90155 79.9624 4.17931C79.9401 3.45643 79.9151 2.79579 79.8875 2.19743C79.8651 1.64887 79.7278 1.27498 79.4753 1.07575C79.2255 0.876511 78.9757 0.714309 78.7259 0.58913L78.7594 0.402344C79.0349 0.452153 79.3474 0.50229 79.6972 0.552754C80.0476 0.575037 80.373 0.586175 80.6734 0.586175C80.9476 0.586175 81.2598 0.575037 81.6102 0.552754C81.9849 0.502945 82.31 0.452808 82.5855 0.402344L82.6091 0.58913Z" fill="#232323"/>
<path id="Vector_4" d="M109.826 7.43237L109.601 7.50707C108.726 5.61236 107.475 4.104 105.85 2.98198C104.25 1.86062 102.237 1.29994 99.8115 1.29994C98.4619 1.29994 97.1744 1.58667 95.949 2.16013C94.7236 2.70803 93.6484 3.49318 92.7234 4.51558C91.8228 5.51242 91.0977 6.7216 90.5481 8.14313C89.9979 9.56334 89.7227 11.1336 89.7227 12.854C89.7227 14.5738 89.9979 16.1441 90.5481 17.5649C91.0977 18.9858 91.8228 20.2074 92.7234 21.2298C93.6484 22.2267 94.7232 22.9994 95.948 23.5479C97.174 24.0965 98.4619 24.3708 99.8115 24.3708C102.212 24.3708 104.163 23.9969 105.663 23.2491C107.188 22.4757 108.476 21.3039 109.527 19.7336L109.751 19.8083L109.676 22.2011C109.101 22.7995 108.439 23.3356 107.688 23.8094C106.939 24.2584 106.126 24.645 105.251 24.9694C104.401 25.2676 103.513 25.4918 102.588 25.6419C101.663 25.8162 100.737 25.9034 99.8125 25.9034C97.8863 25.9034 96.0482 25.5921 94.2982 24.9694C92.5482 24.3455 91.0106 23.4729 89.6853 22.3515C88.36 21.2046 87.3098 19.8335 86.5347 18.2383C85.759 16.6182 85.3711 14.8235 85.3711 12.854C85.3711 10.8846 85.759 9.10196 86.5347 7.5061C87.3104 5.88599 88.3606 4.5028 89.6853 3.35653C91.0106 2.20961 92.5482 1.33697 94.2982 0.738606C96.0489 0.115992 97.887 -0.195312 99.8125 -0.195312C100.737 -0.195312 101.662 -0.120922 102.587 0.0278505C103.513 0.177933 104.4 0.414847 105.25 0.738606C106.125 1.03812 106.938 1.4248 107.688 1.89864C108.439 2.34693 109.101 2.87025 109.676 3.46861L109.826 7.43237Z" fill="#232323"/>
<path id="Vector_5" d="M149.399 25.2673C149.274 25.245 149.062 25.2204 148.762 25.1935C148.487 25.1935 148.187 25.1821 147.861 25.1591C147.536 25.1591 147.223 25.148 146.924 25.1257H144.674C144.374 25.148 144.074 25.1726 143.773 25.1994C143.498 25.2224 143.286 25.2473 143.136 25.2741L143.102 25.1247C143.351 25.0002 143.601 24.838 143.851 24.6381C144.101 24.4389 144.239 24.065 144.264 23.5164C144.287 22.918 144.299 22.2948 144.299 21.6466C144.322 20.9984 144.333 20.2631 144.333 19.4406V16.6359V12.8599V9.08289V6.2418C144.333 5.41864 144.322 4.69543 144.299 4.07216C144.299 3.42398 144.287 2.80104 144.264 2.20333C144.241 1.65477 144.104 1.28087 143.852 1.08163C143.602 0.856836 143.352 0.682172 143.103 0.557649L143.136 0.408229C143.286 0.458038 143.498 0.495393 143.773 0.520298C144.074 0.520298 144.374 0.53177 144.673 0.554709C144.999 0.577647 145.311 0.58912 145.611 0.58912H146.924C147.223 0.566182 147.536 0.554709 147.86 0.554709C148.187 0.53177 148.487 0.506862 148.762 0.479991C149.062 0.457053 149.274 0.432144 149.399 0.405273L149.433 0.555684C149.159 0.680207 148.896 0.854551 148.645 1.07869C148.421 1.27793 148.296 1.6515 148.271 2.1994C148.248 2.79842 148.223 3.42202 148.196 4.07019V21.6446C148.219 22.2921 148.244 22.9151 148.271 23.5135C148.293 24.062 148.418 24.4359 148.645 24.6351C148.895 24.8344 149.158 24.9966 149.433 25.1218L149.399 25.2673Z" fill="#232323"/>
</g>
<defs>
<clipPath id="clip0_362_6963">
<rect width="178" height="125" fill="white"/>
</clipPath>
</defs>
</svg>
