<svg width="328" height="621" viewBox="0 0 328 621" fill="none" xmlns="http://www.w3.org/2000/svg">
<path fill-rule="evenodd" clip-rule="evenodd" d="M233.413 41.2056C219.845 41.2258 206.1 44.6966 193.51 51.9743C181.009 59.2008 171.191 69.2877 164.407 80.93C191.955 81.0866 218.697 95.3703 233.6 120.83C233.769 120.54 233.94 120.251 234.113 119.963C247.21 96.2186 247.928 66.4076 233.413 41.2056ZM233.99 41.2068C247.55 64.9423 247.722 92.6999 236.852 115.703C243.43 106.153 252.18 97.8791 262.886 91.6899C275.465 84.4186 289.19 80.924 302.749 80.8549C287.939 55.5565 261.365 41.3634 233.99 41.2068ZM234.061 121.079C234.224 120.791 234.386 120.503 234.546 120.213C241.308 108.936 250.946 99.1696 263.137 92.1228C275.726 84.8453 289.471 81.3746 303.038 81.354C317.556 106.558 316.836 136.373 303.736 160.118C303.564 160.405 303.394 160.692 303.226 160.98C288.329 135.528 261.599 121.245 234.061 121.079ZM233.104 122.718C233.276 122.431 233.446 122.143 233.615 121.855C247.965 146.996 247.205 176.674 234.159 200.331C234.055 200.503 233.952 200.676 233.85 200.849L233.797 200.939L233.743 201.032L233.645 201.2C219.293 176.056 220.054 146.376 233.104 122.718ZM232.671 122.468C232.835 122.171 233.001 121.874 233.169 121.579C219.695 121.647 206.054 125.12 193.553 132.346C181.37 139.389 171.736 149.148 164.974 160.416C164.811 160.712 164.645 161.008 164.478 161.303C164.809 161.305 165.141 161.309 165.472 161.315C178.618 161.082 191.891 157.604 204.08 150.558C216.271 143.511 225.909 133.744 232.671 122.468ZM170.529 161.567C182.087 160.633 193.624 157.18 204.331 150.991C215.037 144.802 223.787 136.527 230.364 126.978C220.293 148.292 219.701 173.687 230.454 196.183C216.327 175.638 194.025 163.477 170.529 161.567ZM164.466 161.826C164.801 161.825 165.137 161.821 165.473 161.815C192.485 162.315 218.583 176.468 233.209 201.452C233.074 201.452 232.939 201.453 232.805 201.455C232.693 201.456 232.581 201.457 232.468 201.459C232.376 201.46 232.283 201.462 232.19 201.463C205.182 200.96 179.089 186.807 164.466 161.826ZM162.576 161.814C162.908 161.82 163.24 161.824 163.572 161.826C163.405 162.12 163.239 162.416 163.076 162.713C156.314 173.98 146.68 183.739 134.497 190.782C122.313 197.825 109.047 201.303 95.9064 201.538C95.5693 201.532 95.2321 201.528 94.8947 201.526C95.0618 201.232 95.2269 200.936 95.3901 200.64C102.152 189.372 111.786 179.613 123.969 172.57C136.158 165.524 149.43 162.046 162.576 161.814ZM162.575 161.314C162.911 161.308 163.247 161.304 163.582 161.302C148.773 136.004 122.2 121.811 94.8264 121.654C109.449 146.652 135.554 160.814 162.575 161.314ZM94.3919 120.902C101.219 109.187 111.097 99.0364 123.677 91.7647C136.256 84.4932 149.982 80.9985 163.54 80.9297C148.678 55.5417 121.969 41.3375 94.4925 41.2795C80.83 65.1188 79.809 95.3525 94.3919 120.902ZM93.9162 41.2804C81.2266 63.6064 79.5241 91.4522 91.1985 115.88C75.8572 93.5721 50.8777 81.1502 25.198 81.0041C31.9823 69.3617 41.7995 59.2747 54.3008 52.0482C66.8018 44.8219 80.442 41.349 93.9162 41.2804ZM94.2034 40.7793C80.5508 40.7996 66.7193 44.292 54.0506 51.6153C41.3815 58.9388 31.4519 69.1819 24.6205 81.0029C10.9677 81.0231 -2.864 84.5155 -15.533 91.8388C-28.2019 99.1622 -38.1314 109.405 -44.9628 121.226C-58.6155 121.246 -72.4471 124.739 -85.116 132.062C-123.619 154.319 -136.82 203.544 -114.647 242.072C-128.441 266.139 -129.43 296.683 -114.605 322.445C-128.399 346.512 -129.388 377.056 -114.562 402.818C-128.38 426.928 -129.348 457.538 -114.439 483.33C-99.5305 509.12 -72.5222 523.558 -44.7335 523.616C-29.8081 549.321 -2.84603 563.708 24.8937 563.766C39.819 589.47 66.7805 603.856 94.5195 603.914C116.841 642.358 166.085 655.485 204.588 633.228C217.257 625.904 227.187 615.661 234.018 603.84C247.671 603.82 261.503 600.328 274.172 593.004C286.841 585.681 296.77 575.438 303.601 563.617C317.254 563.597 331.086 560.104 343.755 552.781C356.424 545.458 366.353 535.215 373.185 523.394C386.837 523.373 400.669 519.881 413.338 512.557C451.841 490.3 465.041 441.076 442.868 402.548C456.662 378.481 457.651 347.938 442.826 322.176C456.62 298.109 457.609 267.565 442.783 241.802C456.602 217.692 457.57 187.082 442.661 161.291C427.752 135.5 400.743 121.062 372.954 121.004C358.029 95.2985 331.066 80.9118 303.327 80.854C288.401 55.1503 261.44 40.764 233.702 40.7056C211.38 2.26272 162.137 -10.8655 123.634 11.3916C110.964 18.7151 101.035 28.9582 94.2034 40.7793ZM94.7809 40.7806C122.329 40.9371 149.071 55.2206 163.974 80.6806C170.8 68.9645 180.679 58.8136 193.26 51.5415C205.839 44.2699 219.565 40.7752 233.123 40.7064C210.872 2.69532 162.065 -10.2463 123.884 11.8244C111.382 19.051 101.565 29.1381 94.7809 40.7806ZM97.5986 126.951C111.726 147.493 134.026 159.652 157.519 161.562C145.962 162.495 134.425 165.948 123.719 172.137C113.014 178.325 104.265 186.598 97.688 196.146C107.756 174.835 108.348 149.444 97.5986 126.951ZM24.8511 241.498C10.3198 216.039 11.2826 185.928 24.8083 162.128C39.1699 187.269 38.4174 216.951 25.3744 240.613C25.1981 240.907 25.0236 241.202 24.8511 241.498ZM25.8078 240.862C25.6442 241.159 25.4788 241.455 25.3115 241.749C25.6476 241.751 25.9837 241.756 26.3196 241.762C39.461 241.527 52.7286 238.049 64.9139 231.005C77.097 223.963 86.731 214.203 93.4928 202.935C93.656 202.639 93.8212 202.344 93.9883 202.05C93.6509 202.048 93.3136 202.043 92.9764 202.037C79.8364 202.272 66.5702 205.75 54.3862 212.793C42.2034 219.836 32.5696 229.595 25.8078 240.862ZM162.615 241.687C135.604 241.186 109.508 227.033 94.883 202.05C95.224 202.048 95.5651 202.044 95.9062 202.038C122.913 202.543 149.003 216.696 163.626 241.675C163.289 241.677 162.952 241.681 162.615 241.687ZM160.867 236.4C146.74 215.86 124.442 203.701 100.95 201.79C112.506 200.856 124.042 197.403 134.748 191.215C145.453 185.026 154.202 176.754 160.778 167.206C150.71 188.517 150.118 213.907 160.867 236.4ZM164.031 162.079C163.859 162.374 163.685 162.669 163.509 162.962C150.47 186.617 149.714 216.288 164.061 241.424C164.229 241.135 164.4 240.847 164.572 240.56C177.622 216.903 178.383 187.222 164.031 162.079ZM164.407 81.43C177.966 105.164 178.139 132.92 167.272 155.922C173.848 146.375 182.597 138.102 193.302 131.914C205.882 124.642 219.607 121.147 233.166 121.079C218.356 95.7799 191.782 81.5865 164.407 81.43ZM164.541 160.166C177.584 136.504 178.336 106.823 163.975 81.6812C150.449 105.481 149.486 135.592 164.018 161.051C164.19 160.755 164.365 160.46 164.541 160.166ZM-15.2827 92.2717C-2.78151 85.0453 10.8589 81.5724 24.3334 81.5039C11.644 103.829 9.94117 131.675 21.6147 156.102C6.27316 133.795 -18.706 121.373 -44.3853 121.227C-37.6011 109.585 -27.7839 99.4981 -15.2827 92.2717ZM24.9097 81.503C11.2471 105.342 10.226 135.576 24.8086 161.125C31.6352 149.41 41.5137 139.26 54.093 131.988C66.6723 124.717 80.398 121.222 93.9567 121.153C79.0948 95.7655 52.3862 81.5613 24.9097 81.503ZM28.1051 236.369C38.1731 215.059 38.7654 189.668 28.0165 167.176C42.143 187.716 64.441 199.875 87.9328 201.785C76.3767 202.719 64.8412 206.172 54.136 212.36C43.431 218.548 34.6818 226.821 28.1051 236.369ZM25.2431 161.877C39.8626 186.87 65.9608 201.032 92.9759 201.537C93.3171 201.531 93.6583 201.527 93.9993 201.525C79.1897 176.227 52.6171 162.034 25.2431 161.877ZM93.9261 203.185C94.1021 202.892 94.2761 202.597 94.4482 202.302C108.799 227.444 108.039 257.121 94.9917 280.778C94.8185 281.067 94.6471 281.357 94.4776 281.648C80.1299 256.511 80.8865 226.84 93.9261 203.185ZM91.1949 207.429C84.6182 216.977 75.8691 225.25 65.1641 231.438C54.4583 237.627 42.9223 241.08 31.3655 242.014C54.8578 243.924 77.1565 256.083 91.2832 276.624C80.5341 254.131 81.1266 228.74 91.1949 207.429ZM25.2995 242.274C25.6395 242.272 25.9796 242.268 26.3198 242.262C53.3274 242.766 79.4191 256.919 94.0421 281.898C93.7023 281.9 93.3624 281.904 93.0223 281.91C66.0144 281.406 39.9224 267.254 25.2995 242.274ZM23.3958 242.261C23.7321 242.267 24.0685 242.271 24.405 242.273C24.2378 242.568 24.0725 242.863 23.9091 243.159C17.1474 254.427 7.51366 264.186 -4.66916 271.228C-16.8601 278.276 -30.1345 281.753 -43.282 281.985C-43.6213 281.979 -43.9607 281.975 -44.3002 281.973C-37.516 270.331 -27.6987 260.243 -15.1973 253.017C-3.01236 245.973 10.2549 242.496 23.3958 242.261ZM18.35 242.009C6.79358 242.943 -4.74208 246.396 -15.4475 252.584C-28.0269 259.856 -37.9054 270.006 -44.732 281.721C-59.2635 256.261 -58.3004 226.15 -44.7738 202.35C-30.9737 225.945 -7.00729 239.947 18.35 242.009ZM23.3956 241.761C-3.62048 241.256 -29.7201 227.095 -44.3402 202.101C-16.9664 202.258 9.60612 216.451 24.4157 241.749C24.2858 241.75 24.1559 241.751 24.0259 241.752C23.8159 241.754 23.6058 241.757 23.3956 241.761ZM-44.7747 201.349C-37.9481 189.633 -28.0695 179.483 -15.49 172.211C-2.91066 164.94 10.815 161.445 24.3737 161.376C9.51171 135.989 -17.197 121.784 -44.6737 121.726C-58.3365 145.565 -59.3576 175.799 -44.7747 201.349ZM-45.2068 201.6C-59.8321 175.98 -58.863 145.677 -45.2499 121.727C-58.7243 121.796 -72.3646 125.269 -84.8657 132.495C-123.047 154.566 -136.191 203.319 -114.358 241.572C-107.531 229.857 -97.6527 219.707 -85.0735 212.435C-72.4932 205.163 -58.7665 201.669 -45.2068 201.6ZM94.3915 121.905C80.8661 145.705 79.9034 175.815 94.4345 201.274C94.6067 200.979 94.7808 200.684 94.9569 200.39C108 176.729 108.753 147.047 94.3915 121.905ZM24.8648 242.526C24.6926 242.821 24.5185 243.116 24.3424 243.409C11.3034 267.064 10.5471 296.734 24.8946 321.871C25.0635 321.581 25.2343 321.292 25.407 321.004C38.4552 297.347 39.2155 267.668 24.8648 242.526ZM-4.41892 271.661C-15.126 277.851 -26.6636 281.304 -38.2219 282.237C-14.7266 284.147 7.57507 296.307 21.7025 316.851C10.9511 294.358 11.5429 268.965 21.6118 247.653C15.0351 257.201 6.28604 265.473 -4.41892 271.661ZM-43.2817 282.485C-43.6157 282.491 -43.9496 282.495 -44.2835 282.497C-29.6585 307.48 -3.56116 321.633 23.4508 322.133C23.7868 322.128 24.1227 322.124 24.4585 322.122C9.83223 297.137 -16.2678 282.984 -43.2817 282.485ZM-45.1782 282.496C-45.5086 282.494 -45.8389 282.49 -46.1691 282.484C-59.3161 282.716 -72.5901 286.194 -84.7808 293.241C-97.3708 300.519 -107.239 310.698 -114.028 322.445C-99.4347 347.598 -73.2474 361.853 -46.1382 362.357C-45.7991 362.351 -45.4601 362.347 -45.1213 362.346C-59.7417 336.734 -58.7782 306.443 -45.1782 282.496ZM-45.1639 281.973C-45.4989 281.974 -45.834 281.978 -46.1691 281.984C-73.2824 281.484 -99.4749 267.229 -114.07 242.072C-107.281 230.325 -97.4132 220.146 -84.8233 212.868C-72.3221 205.642 -58.6818 202.169 -45.2073 202.1C-58.82 226.051 -59.789 256.353 -45.1639 281.973ZM-51.2291 282.232C-76.5879 280.171 -100.556 266.169 -114.357 242.573C-127.884 266.373 -128.847 296.485 -114.316 321.945C-107.489 310.23 -97.6104 300.079 -85.031 292.808C-74.3242 286.619 -62.787 283.166 -51.2291 282.232ZM95.4248 281.028C95.2642 281.319 95.1017 281.609 94.9374 281.899C95.2738 281.901 95.6101 281.905 95.9462 281.911C109.087 281.676 122.355 278.198 134.54 271.155C146.73 264.108 156.369 254.341 163.131 243.064C163.291 242.775 163.452 242.486 163.615 242.199C163.282 242.197 162.949 242.193 162.616 242.187C149.472 242.42 136.201 245.898 124.013 252.943C111.824 259.989 102.187 269.754 95.4248 281.028ZM232.257 281.836C205.24 281.34 179.137 267.187 164.509 242.199C164.846 242.198 165.183 242.194 165.519 242.188C192.531 242.689 218.627 256.842 233.252 281.825C232.92 281.826 232.589 281.83 232.257 281.836ZM230.493 276.55C216.366 256.008 194.066 243.85 170.573 241.94C182.13 241.006 193.667 237.553 204.374 231.364C215.08 225.175 223.83 216.901 230.406 207.352C220.337 228.664 219.744 254.056 230.493 276.55ZM234.592 200.581C234.431 200.872 234.268 201.163 234.104 201.452C234.233 201.453 234.361 201.454 234.49 201.455C234.697 201.458 234.904 201.461 235.111 201.464C248.253 201.23 261.521 197.752 273.706 190.708C285.899 183.66 295.538 173.891 302.3 162.612C302.463 162.317 302.629 162.022 302.795 161.729C289.321 161.797 275.68 165.27 263.179 172.496C250.991 179.542 241.354 189.307 234.592 200.581ZM303.687 161.229C303.849 160.943 304.01 160.656 304.169 160.368C310.932 149.089 320.571 139.32 332.763 132.272C345.353 124.995 359.098 121.524 372.666 121.504C387.364 147.022 386.443 177.266 372.866 201.153C357.971 175.686 331.234 161.395 303.687 161.229ZM302.733 162.863C302.904 162.578 303.073 162.292 303.241 162.004C317.596 187.154 316.831 216.843 303.771 240.503C303.603 240.784 303.436 241.067 303.271 241.349C288.919 216.204 289.681 186.522 302.733 162.863ZM299.991 167.126C293.414 176.677 284.664 184.951 273.957 191.141C263.251 197.329 251.715 200.782 240.158 201.716C263.652 203.627 285.952 215.787 300.079 236.33C289.327 213.834 289.92 188.44 299.991 167.126ZM234.094 201.976C234.433 201.974 234.772 201.971 235.111 201.965C262.119 202.468 288.212 216.621 302.836 241.601C302.612 241.602 302.389 241.604 302.166 241.607L301.993 241.61L301.842 241.612C274.825 241.117 248.721 226.963 234.094 201.976ZM232.19 201.963C232.526 201.97 232.862 201.974 233.198 201.976C233.034 202.265 232.871 202.556 232.711 202.847C225.948 214.121 216.312 223.886 204.123 230.931C191.935 237.977 178.663 241.455 165.518 241.688C165.186 241.682 164.853 241.678 164.52 241.676C164.684 241.388 164.845 241.1 165.005 240.81C171.767 229.533 181.406 219.766 193.596 212.72C205.781 205.676 219.049 202.198 232.19 201.963ZM167.225 167.102C181.352 187.643 203.651 199.801 227.143 201.712C215.587 202.645 204.051 206.098 193.346 212.287C182.639 218.476 173.889 226.75 167.312 236.3C177.382 214.989 177.975 189.596 167.225 167.102ZM163.543 81.4298C150.853 103.755 149.15 131.601 160.824 156.028C145.482 133.721 120.503 121.3 94.824 121.153C101.608 109.511 111.426 99.4241 123.927 92.1976C136.428 84.9713 150.068 81.4983 163.543 81.4298ZM303.616 81.3552C317.176 105.091 317.348 132.85 306.478 155.854C313.055 146.304 321.806 138.029 332.513 131.839C345.092 124.568 358.818 121.073 372.376 121.004C357.566 95.7048 330.991 81.5111 303.616 81.3552ZM233.658 202.228C233.578 202.364 233.499 202.499 233.419 202.635L233.328 202.789C233.267 202.891 233.205 202.994 233.144 203.097C220.097 226.754 219.337 256.432 233.687 281.573C233.854 281.286 234.024 281 234.195 280.715C247.247 257.056 248.01 227.374 233.658 202.228ZM234.033 121.579C247.593 145.314 247.765 173.072 236.896 196.075C243.473 186.526 252.223 178.252 262.929 172.063C275.508 164.792 289.234 161.297 302.792 161.228C287.982 135.929 261.408 121.735 234.033 121.579ZM54.3433 132.421C66.8445 125.195 80.4849 121.722 93.9593 121.653C81.2699 143.979 79.5671 171.824 91.2406 196.251C75.8991 173.944 50.92 161.523 25.2407 161.377C32.0249 149.734 41.8421 139.648 54.3433 132.421ZM97.7293 276.522C107.799 255.211 108.392 229.819 97.6424 207.326C111.77 227.867 134.069 240.025 157.562 241.935C146.005 242.869 134.468 246.322 123.762 252.51C113.056 258.699 104.306 266.973 97.7293 276.522ZM163.564 243.314C163.736 243.027 163.906 242.74 164.074 242.451C178.428 267.599 177.664 297.285 164.608 320.944C164.438 321.227 164.27 321.512 164.104 321.797C149.753 296.653 150.514 266.972 163.564 243.314ZM160.824 247.574C154.247 257.124 145.497 265.398 134.79 271.588C124.084 277.776 112.549 281.229 100.992 282.163C124.484 284.074 146.783 296.232 160.91 316.773C150.16 294.279 150.754 268.886 160.824 247.574ZM94.9258 282.423C95.2657 282.421 95.6058 282.417 95.9459 282.411C122.954 282.915 149.046 297.068 163.669 322.048C163.48 322.049 163.291 322.051 163.102 322.053C162.957 322.055 162.812 322.057 162.668 322.059C135.653 321.562 109.552 307.409 94.9258 282.423ZM93.4453 282.417C93.6407 282.42 93.8362 282.421 94.0318 282.423C93.8675 282.712 93.7051 283.002 93.5445 283.293C86.7823 294.567 77.1453 304.332 64.9568 311.378C52.768 318.424 39.4961 321.902 26.351 322.135C26.0188 322.128 25.6865 322.124 25.354 322.122C25.518 321.834 25.6801 321.544 25.8403 321.254C32.6027 309.978 42.2403 300.212 54.4297 293.166C66.6146 286.123 79.8817 282.645 93.0227 282.41C93.1635 282.413 93.3044 282.415 93.4453 282.417ZM87.9766 282.158C76.4203 283.092 64.8847 286.545 54.1794 292.733C43.4729 298.922 34.7228 307.197 28.1457 316.746C38.2156 295.435 38.8086 270.042 28.0584 247.548C42.1851 268.089 64.484 280.248 87.9766 282.158ZM21.6576 236.476C9.98353 212.048 11.6863 184.202 24.376 161.877C10.9017 161.945 -2.73866 165.418 -15.2398 172.644C-27.7411 179.871 -37.5584 189.958 -44.3427 201.601C-18.6631 201.747 6.31616 214.168 21.6576 236.476ZM94.491 282.675C94.4244 282.789 94.3575 282.903 94.2903 283.017C94.1868 283.193 94.0827 283.368 93.9778 283.543C80.9303 307.2 80.1704 336.878 94.5207 362.02C94.6875 361.734 94.8561 361.449 95.0266 361.164C108.081 337.505 108.844 307.821 94.491 282.675ZM65.2071 311.811C54.5006 318 42.9636 321.453 31.406 322.386C54.8995 324.296 77.1993 336.455 91.3267 356.997C80.5769 334.503 81.1701 309.111 91.24 287.799C84.6631 297.348 75.9133 305.622 65.2071 311.811ZM26.3511 322.635C26.0149 322.641 25.6788 322.644 25.3428 322.646C39.9718 347.636 66.0792 361.79 93.0989 362.283C93.4279 362.277 93.7569 362.273 94.0857 362.272C79.4606 337.288 53.3632 323.135 26.3511 322.635ZM24.4487 322.646C24.116 322.644 23.7834 322.64 23.4509 322.634C10.3062 322.867 -2.9653 326.344 -15.1538 333.39C-27.6551 340.616 -37.4724 350.703 -44.2567 362.346C-43.9136 362.348 -43.5707 362.352 -43.2279 362.358C-30.0843 362.125 -16.8141 358.647 -4.62667 351.602C7.56264 344.555 17.2002 334.79 23.9625 323.514C24.0024 323.442 24.0425 323.37 24.0827 323.297L24.1518 323.173C24.2501 322.997 24.3491 322.821 24.4487 322.646ZM18.3959 322.382C-6.96265 320.32 -30.9305 306.318 -44.7311 282.722C-58.2581 306.522 -59.2212 336.634 -44.6889 362.094C-37.8623 350.379 -27.9836 340.229 -15.4041 332.957C-4.69788 326.768 6.83865 323.315 18.3959 322.382ZM24.3958 323.764C24.5682 323.477 24.7388 323.188 24.9075 322.899C39.262 348.048 38.4972 377.736 25.4384 401.397C25.2698 401.678 25.1029 401.96 24.9379 402.244C10.587 377.101 11.3473 347.422 24.3958 323.764ZM-38.1766 362.61C-26.6193 361.677 -15.0827 358.223 -4.37644 352.035C6.33005 345.846 15.0801 337.571 21.6571 328.022C11.5862 349.336 10.9938 374.731 21.7466 397.226C7.61975 376.681 -14.6815 364.521 -38.1766 362.61ZM-44.2406 362.87C-43.9029 362.868 -43.5652 362.864 -43.2274 362.859C-16.2173 363.36 9.8776 377.514 24.5017 402.495C24.173 402.497 23.844 402.501 23.5151 402.506C-3.50441 402.013 -29.6116 387.86 -44.2406 362.87ZM-46.138 362.857C-45.8038 362.863 -45.4694 362.868 -45.1349 362.87C-58.739 386.824 -59.6988 417.126 -45.0643 442.742C-72.5389 442.586 -99.2068 428.29 -113.985 402.818C-107.196 391.071 -97.328 380.891 -84.7378 373.614C-72.5508 366.569 -59.2812 363.091 -46.138 362.857ZM-114.315 322.946C-100.514 346.541 -76.547 360.544 -51.189 362.605C-62.7459 363.539 -74.2821 366.992 -84.988 373.181C-97.5675 380.452 -107.446 390.603 -114.273 402.318C-128.805 376.858 -127.841 346.746 -114.315 322.946ZM164.563 322.048C164.724 321.765 164.883 321.48 165.041 321.195C171.804 309.913 181.444 300.142 193.639 293.093C205.832 286.044 219.108 282.567 232.257 282.336C232.585 282.342 232.913 282.346 233.241 282.348C233.079 282.634 232.919 282.921 232.76 283.208C225.997 294.487 216.358 304.256 204.166 311.304C191.975 318.351 178.7 321.829 165.552 322.06C165.223 322.054 164.893 322.05 164.563 322.048ZM234.135 282.348C248.758 307.328 274.85 321.481 301.858 321.985C302.198 321.979 302.538 321.975 302.878 321.974C288.251 296.986 262.147 282.833 235.13 282.337C234.799 282.343 234.467 282.347 234.135 282.348ZM240.196 282.089C263.692 283.998 285.994 296.158 300.122 316.702C289.369 294.206 289.963 268.81 300.036 247.496C293.459 257.047 284.708 265.323 274 271.513C263.292 277.702 251.754 281.156 240.196 282.089ZM303.73 241.601C303.798 241.481 303.866 241.36 303.934 241.24C304.025 241.078 304.115 240.916 304.204 240.754C310.967 229.469 320.609 219.696 332.806 212.645C345.316 205.414 358.966 201.942 372.449 201.878C365.665 213.53 355.843 223.625 343.333 230.856C331.14 237.905 317.863 241.383 304.713 241.613C304.385 241.607 304.057 241.603 303.73 241.601ZM343.584 231.289C356.162 224.018 366.041 213.868 372.867 202.154C387.399 227.614 386.436 257.725 372.909 281.525C359.108 257.928 335.139 243.926 309.779 241.865C321.338 240.932 332.876 237.479 343.584 231.289ZM303.925 242.123L303.719 242.125C318.345 267.109 344.443 281.262 371.455 281.761C371.791 281.755 372.126 281.752 372.461 281.75C357.833 256.762 331.729 242.609 304.712 242.113L304.503 242.117C304.406 242.118 304.309 242.12 304.213 242.121L304.074 242.122L303.925 242.123ZM302.826 242.124C302.647 242.123 302.469 242.122 302.291 242.119C302.141 242.117 301.992 242.115 301.842 242.112C288.693 242.343 275.415 245.82 263.222 252.869C251.03 259.917 241.391 269.685 234.628 280.964C234.469 281.252 234.309 281.539 234.146 281.825C234.318 281.826 234.49 281.828 234.662 281.83L234.807 281.832L234.924 281.833L235.13 281.837C248.28 281.606 261.556 278.128 273.749 271.08C285.946 264.029 295.588 254.256 302.351 242.972C302.466 242.764 302.581 242.557 302.698 242.35C302.74 242.275 302.783 242.2 302.826 242.124ZM296.775 241.86C273.279 239.951 250.976 227.79 236.848 207.245C247.601 229.741 247.009 255.137 236.937 276.45C243.514 266.9 252.265 258.625 262.972 252.436C273.679 246.247 285.217 242.794 296.775 241.86ZM373.313 201.378C386.918 177.424 387.878 147.122 373.243 121.505C400.758 121.662 427.463 136 442.228 161.541C456.993 187.083 456.089 217.38 442.493 241.302C427.598 215.835 400.861 201.544 373.313 201.378ZM302.784 243.222C302.953 242.941 303.119 242.659 303.284 242.376C317.632 267.513 316.875 297.184 303.836 320.839C303.66 321.132 303.486 321.426 303.314 321.721C288.959 296.571 289.724 266.882 302.784 243.222ZM306.519 236.23C317.391 213.225 317.22 185.466 303.659 161.729C331.034 161.885 357.608 176.079 372.418 201.378C358.86 201.447 345.135 204.941 332.556 212.213C321.848 218.403 313.097 226.678 306.519 236.23ZM167.268 247.474C178.019 269.97 177.425 295.363 167.353 316.675C173.931 307.125 182.681 298.849 193.389 292.66C204.096 286.47 215.633 283.017 227.192 282.084C203.697 280.175 181.396 268.017 167.268 247.474ZM233.7 282.6C233.533 282.887 233.364 283.173 233.193 283.458C220.14 307.117 219.378 336.8 233.73 361.945C233.902 361.65 234.076 361.356 234.252 361.062C247.292 337.408 248.048 307.737 233.7 282.6ZM204.416 311.737C215.123 305.547 223.873 297.272 230.451 287.722C220.38 309.035 219.786 334.428 230.537 356.923C216.409 336.381 194.108 324.222 170.613 322.312C182.172 321.379 193.709 317.926 204.416 311.737ZM165.101 322.567C164.995 322.569 164.889 322.57 164.783 322.57C164.706 322.571 164.629 322.571 164.552 322.572C179.175 347.551 205.266 361.704 232.273 362.208C232.613 362.202 232.954 362.198 233.295 362.197C218.668 337.211 192.567 323.058 165.552 322.561C165.402 322.563 165.251 322.565 165.101 322.567ZM163.659 322.572C163.328 322.57 162.998 322.565 162.668 322.559C149.52 322.791 136.246 326.269 124.056 333.316C111.862 340.364 102.222 350.134 95.4598 361.414C95.3698 361.577 95.2793 361.74 95.1883 361.902C95.119 362.026 95.0494 362.149 94.9795 362.272C95.3046 362.274 95.6297 362.278 95.9546 362.284C109.107 362.054 122.387 358.577 134.583 351.527C146.777 344.478 156.418 334.707 163.18 323.425C163.338 323.14 163.497 322.855 163.659 322.572ZM123.805 332.883C134.512 326.694 146.049 323.241 157.607 322.308C134.113 320.398 111.812 308.24 97.6848 287.698C108.435 310.193 107.841 335.586 97.7702 356.898C104.347 347.348 113.098 339.073 123.805 332.883ZM163.614 323.674C163.784 323.391 163.951 323.108 164.117 322.823C178.465 347.96 177.709 377.63 164.669 401.285C164.493 401.578 164.319 401.873 164.147 402.169C149.793 377.021 150.557 347.334 163.614 323.674ZM101.027 362.536C112.586 361.603 124.125 358.15 134.833 351.96C145.541 345.77 154.291 337.495 160.868 327.944C150.796 349.257 150.203 374.651 160.954 397.147C146.825 376.604 124.523 364.444 101.027 362.536ZM94.9687 362.795C95.2976 362.793 95.6267 362.79 95.9558 362.784C122.975 363.277 149.083 377.431 163.712 402.42C163.373 402.422 163.034 402.426 162.695 402.432C135.686 401.929 109.592 387.776 94.9687 362.795ZM93.7181 362.792C93.8371 362.793 93.9561 362.794 94.0751 362.795C94.0009 362.925 93.927 363.056 93.8535 363.187C93.7668 363.342 93.6806 363.497 93.595 363.652C86.8324 374.932 77.1926 384.702 64.9993 391.75C52.8036 398.8 39.5235 402.278 26.3711 402.507C26.0462 402.502 25.7212 402.498 25.3961 402.496C25.4326 402.431 25.469 402.367 25.5053 402.303C25.5423 402.237 25.5791 402.172 25.6159 402.106C25.7018 401.953 25.7872 401.799 25.872 401.646C32.6349 390.362 42.2765 380.59 54.4726 373.54C66.6679 366.49 79.9473 363.012 93.0991 362.783C93.3054 362.787 93.5117 362.79 93.7181 362.792ZM28.0991 327.917C42.2271 348.462 64.5303 360.622 88.0269 362.531C76.4682 363.464 64.93 366.917 54.2224 373.107C43.5144 379.297 34.7633 387.572 28.1859 397.124C38.2586 375.81 38.8519 350.414 28.0991 327.917ZM94.5338 363.047C94.3671 363.333 94.1985 363.618 94.0282 363.902C80.9737 387.561 80.2106 417.246 94.5634 442.392C94.7352 442.097 94.909 441.804 95.0847 441.511C108.125 417.856 108.882 388.184 94.5338 363.047ZM65.2495 392.183C54.5415 398.373 43.0028 401.826 31.4435 402.759C54.9401 404.668 77.2433 416.828 91.3715 437.373C80.6193 414.877 81.2125 389.482 91.2845 368.169C84.7073 377.719 75.9568 385.994 65.2495 392.183ZM25.556 403.018L25.3859 403.019C40.0102 428.001 66.1057 442.154 93.1162 442.655C93.4534 442.649 93.7905 442.645 94.1275 442.644C79.4982 417.654 53.3908 403.5 26.3712 403.008L26.2388 403.01C26.1348 403.011 26.0309 403.013 25.9269 403.014C25.8032 403.016 25.6796 403.017 25.556 403.018ZM24.4921 403.018C24.1664 403.016 23.8407 403.012 23.5151 403.006C10.3633 403.236 -2.91608 406.714 -15.1113 413.763C-27.621 420.995 -37.4431 431.09 -44.2278 442.743C-30.7444 442.679 -17.0939 439.206 -4.58418 431.974C7.61179 424.924 17.2532 415.152 24.016 403.869C24.173 403.584 24.3317 403.301 24.4921 403.018ZM18.4432 402.755C-6.91674 400.695 -30.8864 386.693 -44.688 363.095C-58.2145 386.896 -59.1776 417.007 -44.6459 442.467C-37.8193 430.752 -27.9408 420.602 -15.3616 413.33C-4.65391 407.141 6.88435 403.688 18.4432 402.755ZM24.4497 404.118C24.6183 403.836 24.7851 403.554 24.9501 403.271C39.3011 428.414 38.5407 458.093 25.492 481.75C25.3196 482.038 25.149 482.326 24.9803 482.616C10.626 457.466 11.3909 427.778 24.4497 404.118ZM-44.1974 443.243C-30.6388 443.173 -16.9132 439.679 -4.33395 432.407C6.37396 426.217 15.1249 417.942 21.7022 408.391C10.8307 431.395 11.0016 459.155 24.5619 482.891C-2.81332 482.735 -29.3875 468.542 -44.1974 443.243ZM-114.272 403.319C-99.377 428.785 -72.6392 443.077 -45.092 443.242C-58.6964 467.196 -59.6564 497.498 -45.0221 523.115C-72.5365 522.958 -99.2418 508.621 -114.006 483.079C-128.771 457.538 -127.867 427.24 -114.272 403.319ZM24.5341 483.391C24.3704 483.68 24.2085 483.969 24.0485 484.259C17.2862 495.535 7.64845 505.301 -4.54121 512.347C-17.1314 519.625 -30.8771 523.096 -44.445 523.116C-59.1421 497.598 -58.221 467.354 -44.645 443.468C-29.7503 468.934 -3.01285 483.225 24.5341 483.391ZM25.4259 482.892C38.9007 482.823 52.5414 479.35 65.0428 472.123C77.2266 465.08 86.8611 455.32 93.6229 444.051C93.7858 443.756 93.9506 443.461 94.1173 443.168C93.7837 443.166 93.4502 443.162 93.1168 443.155C79.9731 443.389 66.7027 446.867 54.5151 453.912C42.3255 460.958 32.6878 470.724 25.9254 482C25.7608 482.298 25.5943 482.595 25.4259 482.892ZM162.742 482.805C135.731 482.303 109.636 468.15 95.0118 443.168C95.1787 443.167 95.3456 443.166 95.5126 443.164C95.683 443.162 95.8535 443.16 96.024 443.157C123.035 443.658 149.13 457.811 163.755 482.793C163.417 482.795 163.079 482.799 162.742 482.805ZM160.996 477.519C146.869 456.978 124.569 444.819 101.076 442.908C112.633 441.975 124.17 438.522 134.876 432.333C145.582 426.145 154.331 417.872 160.907 408.324C150.839 429.635 150.246 455.026 160.996 477.519ZM164.839 402.009C164.762 402.147 164.685 402.284 164.607 402.421C164.941 402.423 165.276 402.427 165.61 402.433C178.753 402.199 192.023 398.721 204.209 391.677C216.393 384.634 226.027 374.874 232.788 363.606C232.952 363.31 233.117 363.015 233.284 362.721C233.059 362.72 232.835 362.717 232.611 362.714L232.413 362.711L232.273 362.709C219.132 362.944 205.866 366.421 193.682 373.465C181.498 380.507 171.864 390.267 165.103 401.535C165.015 401.693 164.927 401.851 164.839 402.009ZM301.913 402.358C274.901 401.858 248.803 387.705 234.178 362.721C234.519 362.72 234.86 362.716 235.2 362.71C262.207 363.214 288.299 377.367 302.921 402.347C302.585 402.348 302.249 402.352 301.913 402.358ZM300.162 397.071C286.035 376.531 263.737 364.372 240.245 362.461C251.801 361.528 263.337 358.075 274.043 351.886C284.748 345.698 293.497 337.425 300.074 327.877C290.006 349.188 289.413 374.579 300.162 397.071ZM304.269 321.088C304.106 321.385 303.94 321.68 303.773 321.974C304.11 321.976 304.446 321.98 304.782 321.986C317.923 321.751 331.191 318.274 343.376 311.23C355.877 304.003 365.694 293.916 372.479 282.274C372.388 282.273 372.298 282.273 372.208 282.272L372.083 282.271L371.93 282.269C371.772 282.267 371.613 282.264 371.455 282.262C358.309 282.494 345.037 285.972 332.848 293.018C320.665 300.061 311.031 309.82 304.269 321.088ZM373.399 362.124C386.999 338.177 387.963 307.886 373.342 282.274C373.679 282.272 374.015 282.269 374.352 282.263C401.464 282.764 427.655 297.02 442.249 322.176C435.46 333.923 425.592 344.101 413.003 351.379C400.814 358.425 387.542 361.903 374.397 362.136C374.064 362.13 373.732 362.126 373.399 362.124ZM442.536 321.675C428.735 298.079 404.767 284.076 379.408 282.014C390.966 281.081 402.503 277.628 413.21 271.439C425.789 264.167 435.667 254.017 442.494 242.303C457.026 267.763 456.063 297.875 442.536 321.675ZM306.567 316.594C316.636 295.282 317.227 269.89 306.476 247.397C320.603 267.94 342.904 280.1 366.399 282.01C354.841 282.943 343.304 286.396 332.598 292.585C321.893 298.773 313.144 307.046 306.567 316.594ZM373.357 281.75C373.688 281.752 374.02 281.756 374.351 281.763C387.497 281.53 400.77 278.052 412.96 271.006C425.55 263.728 435.417 253.549 442.206 241.802C427.428 216.331 400.76 202.035 373.285 201.878C387.92 227.495 386.961 257.797 373.357 281.75ZM372.91 282.526C366.084 294.241 356.205 304.391 343.626 311.663C332.92 317.851 321.384 321.304 309.827 322.238C335.185 324.301 359.152 338.303 372.952 361.898C386.479 338.098 387.442 307.987 372.91 282.526ZM303.763 322.498C304.102 322.496 304.442 322.493 304.781 322.487C331.789 322.99 357.881 337.143 372.504 362.123C372.168 362.125 371.832 362.129 371.496 362.135C344.484 361.634 318.387 347.481 303.763 322.498ZM301.858 322.485C302.194 322.492 302.53 322.496 302.867 322.498C302.795 322.624 302.724 322.75 302.653 322.877C302.559 323.045 302.465 323.214 302.372 323.383C295.61 334.651 285.976 344.41 273.793 351.453C261.608 358.497 248.34 361.975 235.199 362.21C234.995 362.206 234.79 362.203 234.586 362.201L234.498 362.2L234.348 362.198L234.19 362.197C234.357 361.903 234.522 361.608 234.685 361.312C241.447 350.044 251.081 340.284 263.265 333.241C275.45 326.198 288.717 322.72 301.858 322.485ZM236.895 287.624C251.021 308.165 273.32 320.323 296.812 322.234C285.256 323.167 273.72 326.62 263.014 332.809C252.309 338.997 243.56 347.27 236.983 356.818C247.052 335.507 247.644 310.117 236.895 287.624ZM303.327 322.75C303.155 323.045 302.981 323.339 302.805 323.632C289.765 347.287 289.009 376.958 303.356 402.095C303.454 401.927 303.553 401.759 303.652 401.591C303.727 401.465 303.802 401.339 303.878 401.213C316.918 377.558 317.675 347.887 303.327 322.75ZM167.4 397.041C177.468 375.73 178.061 350.34 167.312 327.848C181.438 348.388 203.737 360.546 227.229 362.457C215.672 363.391 204.137 366.843 193.431 373.032C182.726 379.22 173.977 387.493 167.4 397.041ZM233.222 363.855C233.398 363.562 233.572 363.268 233.744 362.973C248.093 388.114 247.334 417.791 234.288 441.447C234.115 441.737 233.943 442.027 233.773 442.319C219.425 417.182 220.182 387.51 233.222 363.855ZM230.49 368.101C223.914 377.649 215.165 385.921 204.459 392.11C193.753 398.298 182.217 401.751 170.66 402.685C194.153 404.595 216.452 416.754 230.579 437.296C219.829 414.803 220.422 389.412 230.49 368.101ZM164.595 402.945C164.934 402.943 165.272 402.939 165.611 402.933C192.62 403.436 218.714 417.589 233.337 442.57C232.998 442.572 232.658 442.575 232.318 442.581C205.31 442.077 179.218 427.925 164.595 402.945ZM162.696 402.932C163.031 402.938 163.366 402.943 163.7 402.945C163.533 403.239 163.368 403.534 163.205 403.83C156.443 415.098 146.809 424.857 134.626 431.9C122.438 438.945 109.168 442.423 96.0235 442.656L95.8122 442.653L95.5897 442.65C95.401 442.647 95.2122 442.645 95.0234 442.644C95.1902 442.351 95.355 442.056 95.5179 441.761C102.28 430.492 111.914 420.731 124.098 413.688C136.285 406.644 149.554 403.166 162.696 402.932ZM97.7283 368.071C111.855 388.612 134.154 400.77 157.646 402.68C146.09 403.614 134.554 407.067 123.848 413.256C113.143 419.444 104.393 427.717 97.8166 437.265C107.885 415.954 108.477 390.564 97.7283 368.071ZM164.16 403.197L164.059 403.37C163.92 403.607 163.78 403.844 163.638 404.08C150.599 427.734 149.842 457.406 164.19 482.542C164.361 482.249 164.534 481.957 164.708 481.665C177.751 458.01 178.509 428.336 164.16 403.197ZM28.231 477.492C38.3019 456.178 38.8941 430.784 28.1413 408.288C42.2681 428.833 64.5692 440.993 88.0642 442.904C76.5072 443.837 64.9709 447.29 54.2649 453.479C43.5583 459.668 34.8082 467.942 28.231 477.492ZM94.0558 444.302C94.2314 444.009 94.405 443.715 94.5767 443.421C108.927 468.563 108.167 498.242 95.1187 521.899C94.9461 522.187 94.7754 522.476 94.6064 522.766C80.2585 497.629 81.0154 467.957 94.0558 444.302ZM91.3241 448.547C80.4561 471.55 80.6285 499.307 94.1878 523.041C66.8126 522.885 40.2385 508.691 25.4288 483.392C38.9877 483.323 52.7135 479.828 65.293 472.556C75.9982 466.368 84.7474 458.095 91.3241 448.547ZM24.995 483.64C24.8258 483.931 24.6547 484.22 24.4817 484.509C11.3848 508.253 10.6668 538.064 25.1821 563.266C38.7499 563.245 52.4953 559.775 65.0852 552.497C77.2745 545.451 86.912 535.685 93.6743 524.41C93.8345 524.119 93.9966 523.83 94.1605 523.541C66.6219 523.375 39.8922 509.093 24.995 483.64ZM-4.29098 512.78C-16.8704 520.052 -30.5963 523.546 -44.1552 523.615C-29.3452 548.915 -2.77057 563.109 24.605 563.265C11.0449 539.529 10.873 511.771 21.7427 488.767C15.1656 498.317 6.41558 506.591 -4.29098 512.78ZM373.626 362.646C373.697 362.645 373.768 362.645 373.84 362.644C374.025 362.642 374.211 362.639 374.397 362.636C401.508 363.138 427.697 377.394 442.291 402.548C435.502 414.295 425.635 424.474 413.045 431.751C400.543 438.978 386.903 442.451 373.428 442.52C387.041 418.57 388.01 388.268 373.385 362.647C373.465 362.647 373.546 362.646 373.626 362.646ZM372.127 362.644L372.263 362.645C372.349 362.646 372.435 362.647 372.521 362.647C365.737 374.289 355.92 384.376 343.419 391.602C331.23 398.649 317.957 402.126 304.812 402.359C304.577 402.355 304.343 402.352 304.108 402.349C304.011 402.348 303.914 402.348 303.816 402.347C303.983 402.053 304.148 401.759 304.311 401.463C311.073 390.194 320.707 380.434 332.891 373.391C345.08 366.345 358.351 362.868 371.496 362.635L371.652 362.637L371.779 362.639C371.849 362.64 371.92 362.641 371.99 362.642L372.127 362.644ZM366.441 362.383C354.884 363.316 343.347 366.769 332.641 372.958C321.936 379.146 313.186 387.419 306.61 396.967C316.678 375.656 317.27 350.264 306.52 327.77C320.647 348.313 342.947 360.473 366.441 362.383ZM442.537 322.676C457.068 348.136 456.105 378.247 442.578 402.047C428.777 378.451 404.81 364.449 379.451 362.388C391.009 361.454 402.546 358.001 413.253 351.812C425.832 344.54 435.71 334.391 442.537 322.676ZM343.669 392.035C332.962 398.224 321.425 401.677 309.868 402.611C335.226 404.672 359.194 418.674 372.995 442.27C386.521 418.47 387.485 388.359 372.953 362.899C366.126 374.614 356.248 384.764 343.669 392.035ZM304.813 402.859C304.626 402.863 304.44 402.865 304.253 402.867C304.103 402.869 303.954 402.87 303.805 402.871C318.614 428.169 345.187 442.362 372.561 442.519C357.939 417.521 331.833 403.359 304.813 402.859ZM302.91 402.87C302.578 402.868 302.245 402.864 301.913 402.858C288.768 403.091 275.497 406.569 263.308 413.614C251.12 420.66 241.483 430.424 234.721 441.698C234.56 441.99 234.397 442.28 234.233 442.57L234.386 442.571L234.513 442.572C234.586 442.573 234.658 442.574 234.73 442.575C234.841 442.576 234.951 442.578 235.062 442.579L235.242 442.583C248.383 442.348 261.651 438.87 273.836 431.826C286.019 424.783 295.654 415.023 302.415 403.755C302.479 403.639 302.544 403.523 302.608 403.407C302.647 403.338 302.685 403.27 302.723 403.201C302.785 403.091 302.848 402.981 302.91 402.87ZM296.858 402.606C273.364 400.696 251.065 388.538 236.937 367.996C247.687 390.49 247.095 415.882 237.025 437.193C243.602 427.644 252.352 419.37 263.058 413.182C273.764 406.993 285.301 403.54 296.858 402.606ZM302.849 404.004C302.892 403.933 302.934 403.862 302.976 403.792C303.108 403.569 303.24 403.346 303.37 403.123C317.901 428.582 316.938 458.692 303.413 482.492C289.051 457.349 289.804 427.666 302.849 404.004ZM300.117 408.25C293.54 417.798 284.791 426.071 274.086 432.259C263.38 438.448 251.844 441.901 240.288 442.834C263.779 444.745 286.077 456.903 300.204 477.442C289.456 454.95 290.049 429.56 300.117 408.25ZM234.221 443.094C234.561 443.093 234.901 443.089 235.241 443.083C262.258 443.587 288.358 457.748 302.978 482.743C275.604 482.586 249.031 468.393 234.221 443.094ZM232.857 443.09C233.014 443.092 233.17 443.093 233.327 443.094C233.247 443.235 233.167 443.377 233.088 443.519C233.032 443.618 232.976 443.718 232.921 443.819L232.839 443.966C226.077 455.24 216.44 465.004 204.252 472.049C192.065 479.095 178.794 482.572 165.65 482.806C165.317 482.8 164.984 482.796 164.65 482.794C164.816 482.502 164.98 482.209 165.142 481.915C171.904 470.644 181.539 460.882 193.725 453.838C205.91 446.794 219.178 443.316 232.319 443.082C232.414 443.083 232.508 443.085 232.603 443.086C232.688 443.088 232.772 443.089 232.857 443.09ZM227.272 442.83C215.716 443.764 204.18 447.216 193.475 453.405C182.769 459.593 174.02 467.867 167.443 477.415C177.512 456.104 178.104 430.713 167.354 408.22C181.481 428.761 203.78 440.919 227.272 442.83ZM233.786 443.346C233.617 443.637 233.445 443.927 233.272 444.216C220.222 467.88 219.466 497.569 233.83 522.715C247.355 498.915 248.318 468.805 233.786 443.346ZM204.502 472.482C193.796 478.671 182.26 482.124 170.702 483.058C194.195 484.968 216.495 497.127 230.622 517.668C219.872 495.175 220.465 469.782 230.535 448.471C223.958 458.02 215.209 466.294 204.502 472.482ZM165.65 483.306C165.313 483.312 164.976 483.316 164.638 483.318C179.448 508.616 206.021 522.809 233.395 522.966C218.773 497.969 192.669 483.808 165.65 483.306ZM163.744 483.317C163.41 483.315 163.076 483.311 162.742 483.305C149.598 483.539 136.329 487.016 124.142 494.061C111.952 501.108 102.314 510.874 95.552 522.149C95.3874 522.448 95.2209 522.745 95.0524 523.041C108.527 522.973 122.168 519.5 134.669 512.273C146.855 505.229 156.49 495.467 163.252 484.196C163.414 483.902 163.578 483.609 163.744 483.317ZM157.69 483.053C134.196 481.143 111.896 468.983 97.7689 448.44C108.521 470.935 107.928 496.329 97.8576 517.641C104.435 508.092 113.185 499.817 123.891 493.628C134.597 487.44 146.133 483.987 157.69 483.053ZM163.686 484.445C163.86 484.154 164.033 483.863 164.203 483.57C178.735 509.029 177.772 539.139 164.247 562.938C149.884 537.794 150.639 508.108 163.686 484.445ZM160.951 488.696C150.083 511.699 150.255 539.455 163.815 563.19C136.439 563.034 109.865 548.841 95.0547 523.541C108.614 523.473 122.34 519.978 134.919 512.706C145.625 506.517 154.375 498.244 160.951 488.696ZM94.4024 524.164C94.3048 524.329 94.2067 524.494 94.1079 524.659C81.0115 548.403 80.2934 578.213 94.808 603.414C108.376 603.394 122.122 599.923 134.712 592.645C147.213 585.419 157.03 575.332 163.814 563.69C136.266 563.534 109.524 549.25 94.6212 523.791C94.5792 523.863 94.537 523.935 94.4948 524.007L94.4024 524.164ZM65.3355 552.93C52.7562 560.201 39.0306 563.696 25.4719 563.765C40.2819 589.064 66.8559 603.257 94.2308 603.413C80.6714 579.678 80.4996 551.92 91.369 528.917C84.792 538.466 76.042 546.741 65.3355 552.93ZM236.98 448.369C252.321 470.676 277.301 483.097 302.98 483.243C296.196 494.885 286.379 504.972 273.878 512.198C261.377 519.425 247.737 522.898 234.262 522.966C246.951 500.641 248.654 472.796 236.98 448.369ZM372.895 522.894C345.418 522.836 318.709 508.632 303.847 483.243C317.406 483.174 331.132 479.68 343.711 472.408C356.291 465.136 366.169 454.986 372.996 443.271C387.579 468.821 386.558 499.054 372.895 522.894ZM442.579 403.048C435.752 414.763 425.874 424.913 413.295 432.184C400.715 439.457 386.988 442.951 373.428 443.02C388.053 468.64 387.085 498.943 373.472 522.893C386.946 522.824 400.587 519.351 413.088 512.125C451.268 490.054 464.413 441.301 442.579 403.048ZM306.564 408.146C318.237 432.573 316.535 460.418 303.845 482.743C317.32 482.675 330.96 479.201 343.461 471.975C355.962 464.749 365.779 454.662 372.564 443.019C346.884 442.874 321.905 430.453 306.564 408.146ZM234.264 523.466C247.823 523.398 261.549 519.903 274.128 512.631C286.708 505.359 296.586 495.209 303.413 483.495C317.996 509.044 316.975 539.278 303.312 563.117C275.835 563.059 249.126 548.855 234.264 523.466ZM167.397 488.592C182.738 510.899 207.718 523.32 233.397 523.466C226.613 535.108 216.796 545.195 204.295 552.422C191.794 559.648 178.153 563.122 164.679 563.19C177.368 540.864 179.071 513.019 167.397 488.592ZM233.729 603.34C206.252 603.282 179.543 589.078 164.681 563.69C178.24 563.621 191.966 560.126 204.545 552.855C217.124 545.583 227.003 535.433 233.829 523.718C248.413 549.268 247.392 579.501 233.729 603.34ZM95.0978 603.914C108.657 603.845 122.383 600.35 134.962 593.078C147.542 585.806 157.421 575.655 164.248 563.939C179.15 589.399 205.892 603.683 233.441 603.839C226.656 615.481 216.839 625.568 204.338 632.795C166.157 654.866 117.349 641.925 95.0978 603.914ZM306.609 488.521C321.95 510.827 346.929 523.247 372.607 523.393C365.823 535.035 356.006 545.122 343.505 552.348C331.003 559.574 317.363 563.048 303.889 563.116C316.578 540.792 318.281 512.948 306.609 488.521ZM303.024 563.616C277.344 563.47 252.365 551.049 237.024 528.742C248.697 553.169 246.995 581.014 234.305 603.339C247.78 603.271 261.42 599.798 273.922 592.571C286.423 585.345 296.24 575.258 303.024 563.616Z" fill="#FDFDFD"/>
</svg>
