<svg width="1243" height="298" viewBox="0 0 1243 298" fill="none" xmlns="http://www.w3.org/2000/svg">
<g opacity="0.5">
<path fill-rule="evenodd" clip-rule="evenodd" d="M483.561 -273.439C497.129 -296.724 516.764 -316.898 541.766 -331.351C618.129 -375.493 715.745 -349.61 760.247 -273.587C733.129 -273.45 705.677 -266.46 680.518 -251.917C655.358 -237.373 635.6 -217.071 621.947 -193.64C592.142 -244.56 538.657 -273.126 483.561 -273.439ZM482.406 -273.441C496.069 -297.083 515.928 -317.57 541.266 -332.216C618.273 -376.731 716.76 -350.475 761.404 -273.589C816.881 -273.472 870.803 -244.7 900.654 -193.292C956.133 -193.177 1010.06 -164.403 1039.91 -112.993C1095.49 -112.877 1149.5 -84.0008 1179.32 -32.4185C1209.14 19.164 1207.2 80.3843 1179.57 128.604C1209.22 180.129 1207.24 241.217 1179.65 289.351C1209.3 340.875 1207.32 401.962 1179.74 450.095C1224.08 527.153 1197.68 625.601 1120.68 670.116C1095.34 684.763 1067.67 691.748 1040.37 691.788C1026.71 715.43 1006.85 735.916 981.509 750.563C956.171 765.21 928.508 772.194 901.202 772.235C887.54 795.877 867.681 816.362 842.343 831.009C817.005 845.656 789.342 852.641 762.036 852.682C748.373 876.323 728.514 896.809 703.176 911.456C626.169 955.971 527.682 929.716 483.039 852.83C427.561 852.713 373.638 823.941 343.787 772.532C288.308 772.417 234.384 743.643 204.533 692.233C148.955 692.117 94.9382 663.241 65.1205 611.659C35.3027 560.076 37.2386 498.856 64.8752 450.637C35.2237 399.112 37.202 338.024 64.7895 289.89C35.1386 238.366 37.1173 177.278 64.705 129.145C20.3599 52.0867 46.7605 -46.361 123.767 -90.8756C149.105 -105.522 176.768 -112.507 204.074 -112.548C217.736 -136.19 237.595 -156.675 262.933 -171.322C288.271 -185.969 315.935 -192.954 343.24 -192.994C356.903 -216.636 376.762 -237.122 402.1 -251.769C427.438 -266.416 455.101 -273.401 482.406 -273.441ZM760.827 -272.589C733.691 -272.549 706.199 -265.607 681.018 -251.051C656.016 -236.598 636.382 -216.424 622.814 -193.14C677.91 -192.827 731.395 -164.261 761.199 -113.34C761.541 -113.927 761.887 -114.512 762.237 -115.095C788.421 -162.58 789.853 -222.192 760.827 -272.589ZM767.707 -123.598C789.444 -169.604 789.099 -225.117 761.981 -272.587C816.73 -272.273 869.877 -243.887 899.497 -193.29C872.381 -193.152 844.93 -186.163 819.772 -171.62C798.36 -159.243 780.861 -142.695 767.707 -123.598ZM762.122 -112.842C762.453 -113.425 762.78 -114.009 763.103 -114.595C776.627 -137.139 795.899 -156.665 820.272 -170.754C845.452 -185.309 872.942 -192.251 900.077 -192.292C929.107 -141.891 927.673 -82.2733 901.483 -34.7855C901.136 -34.206 900.792 -33.6246 900.452 -33.0412C870.658 -83.9448 817.199 -112.51 762.122 -112.842ZM760.196 -109.542C760.544 -110.123 760.889 -110.706 761.229 -111.29C789.926 -61.015 788.411 -1.66986 762.329 45.6402C761.978 46.2246 761.632 46.8109 761.289 47.3992C732.59 -2.88022 734.108 -62.2307 760.196 -109.542ZM759.33 -110.043C759.662 -110.645 759.998 -111.245 760.338 -111.843C733.388 -111.706 706.107 -104.76 681.104 -90.3067C656.746 -76.2262 637.483 -56.716 623.96 -34.1894C623.629 -33.5894 623.295 -32.9912 622.956 -32.395C623.628 -32.3909 624.299 -32.3827 624.971 -32.3703C651.254 -32.8397 677.789 -39.7952 702.16 -53.883C726.533 -67.9723 745.805 -87.4982 759.33 -110.043ZM635.064 -31.8666C658.177 -33.7343 681.249 -40.6402 702.66 -53.0172C724.072 -65.3946 741.572 -81.9418 754.726 -101.039C734.586 -58.4143 733.402 -7.62759 754.905 37.361C726.652 -3.7251 682.052 -28.0451 635.064 -31.8666ZM622.931 -31.3467C623.611 -31.3501 624.291 -31.3578 624.97 -31.3699C678.987 -30.3626 731.171 -2.05699 760.418 47.9031C759.731 47.9066 759.043 47.9145 758.356 47.9268C704.348 46.9118 652.173 18.6069 622.931 -31.3467ZM619.127 -31.3723C619.798 -31.3598 620.47 -31.3515 621.142 -31.3475C620.804 -30.7511 620.469 -30.1528 620.138 -29.5525C606.615 -7.02613 587.352 12.4841 562.994 26.5645C538.633 40.6466 512.109 47.6021 485.837 48.0767C485.155 48.0639 484.472 48.0554 483.79 48.0513C484.128 47.4562 484.462 46.859 484.792 46.26C498.315 23.7325 517.579 4.22143 541.937 -9.85953C566.308 -23.9473 592.844 -30.9028 619.127 -31.3723ZM619.127 -32.3726C619.806 -32.3846 620.486 -32.3924 621.165 -32.3959C591.546 -82.9921 538.4 -111.378 483.652 -111.693C512.893 -61.7035 565.093 -33.3804 619.127 -32.3726ZM489.199 -101.094C517.452 -60.0138 562.049 -35.6971 609.034 -31.8759C585.92 -30.0083 562.848 -23.1023 541.437 -10.7253C520.028 1.65017 502.531 18.1941 489.378 37.288C509.512 -5.33246 510.696 -56.1112 489.199 -101.094ZM476.395 -123.245C445.712 -167.858 395.754 -192.7 344.395 -192.992C357.964 -216.276 377.598 -236.45 402.601 -250.903C427.603 -265.356 454.883 -272.302 481.832 -272.439C456.453 -227.789 453.048 -172.099 476.395 -123.245ZM482.783 -113.197C453.617 -164.295 455.659 -224.763 482.984 -272.441C537.938 -272.326 591.356 -243.917 621.081 -193.141C593.963 -193.003 566.511 -186.014 541.352 -171.47C516.193 -156.927 496.436 -136.627 482.783 -113.197ZM124.267 -90.0098C47.9059 -45.8681 21.6167 51.6382 65.2837 128.143C78.9368 104.714 98.6937 84.414 123.852 69.8709C149.013 55.3266 176.466 48.3372 203.586 48.2003C174.335 -3.04051 176.273 -63.6455 203.499 -111.546C176.55 -111.409 149.27 -104.463 124.267 -90.0098ZM263.434 -170.456C288.436 -184.909 315.717 -191.855 342.666 -191.992C317.288 -147.343 313.882 -91.6542 337.227 -42.8009C306.544 -87.4126 256.586 -112.254 205.229 -112.546C218.797 -135.83 238.431 -156.003 263.434 -170.456ZM343.819 -191.994C316.493 -144.316 314.451 -83.849 343.617 -32.7506C357.27 -56.1803 377.027 -76.48 402.185 -91.0232C427.344 -105.567 454.796 -112.556 481.913 -112.694C452.19 -163.47 398.772 -191.878 343.819 -191.994ZM350.212 117.734C370.346 75.1148 371.53 24.3378 350.035 -20.6444C378.287 20.4326 422.88 44.7479 469.86 48.571C446.749 50.4395 423.68 57.3453 402.271 69.721C380.863 82.0964 363.365 98.6402 350.212 117.734ZM344.486 -31.2466C373.72 18.7334 425.906 47.0555 479.927 48.0743C480.388 48.066 480.849 48.0597 481.31 48.0554C481.54 48.0532 481.769 48.0516 481.999 48.0504C452.38 -2.54593 399.234 -30.9323 344.486 -31.2466ZM484.95 49.0905C484.555 49.0954 484.16 49.0988 483.766 49.1008C513.011 99.0591 565.193 127.364 619.207 128.374C619.889 128.361 620.57 128.354 621.252 128.35C592.012 78.3996 539.842 50.0951 485.837 49.077C485.541 49.0823 485.245 49.0868 484.95 49.0905ZM481.975 49.1C481.293 49.0958 480.61 49.0874 479.928 49.0746C453.656 49.5492 427.132 56.5048 402.771 70.5868C378.413 84.6673 359.15 104.178 345.627 126.704C345.296 127.304 344.962 127.902 344.623 128.499C345.304 128.503 345.984 128.511 346.664 128.524C372.938 128.05 399.464 121.095 423.827 107.012C448.186 92.9305 467.45 73.4193 480.973 50.8917C481.303 50.2925 481.637 49.6953 481.975 49.1ZM563.495 27.4302C542.085 39.806 519.016 46.7118 495.905 48.5803C542.886 52.4034 587.479 76.7187 615.731 117.796C594.235 72.8136 595.42 22.0367 615.553 -20.5825C602.4 -1.48881 584.903 15.0549 563.495 27.4302ZM622.035 -32.8982C622.384 -33.4973 622.737 -34.0943 623.094 -34.6892C649.168 -82.0097 650.669 -141.363 621.949 -191.639C594.897 -144.039 592.972 -83.817 622.035 -32.8982ZM622.814 -192.14C649.932 -144.674 650.278 -89.1641 628.545 -43.1596C641.698 -62.2533 659.196 -78.7971 680.604 -91.1724C705.763 -105.716 733.214 -112.705 760.332 -112.843C730.712 -163.441 677.564 -191.827 622.814 -192.14ZM622.063 -30.8423C621.714 -30.244 621.362 -29.6477 621.005 -29.0534C594.938 18.252 593.431 77.5829 622.121 127.848C622.462 127.264 622.806 126.681 623.154 126.101C649.244 78.7889 650.761 19.4378 622.063 -30.8423ZM204.652 -111.548C177.326 -63.8694 175.284 -3.40172 204.45 47.697C218.103 24.2668 237.86 3.96663 263.019 -10.5767C288.178 -25.1202 315.63 -32.1096 342.747 -32.2473C313.023 -83.0235 259.606 -111.432 204.652 -111.548ZM204.452 49.6989C177.398 97.299 175.472 157.522 204.535 208.441C218.188 185.011 237.945 164.711 263.104 150.168C284.513 137.792 307.583 130.886 330.695 129.018C279.982 124.892 232.051 96.888 204.452 49.6989ZM340.767 128.521C286.743 127.505 234.555 99.1827 205.319 49.201C260.067 49.5155 313.212 77.9017 342.832 128.498C342.144 128.501 341.455 128.509 340.767 128.521ZM344.599 129.548C345.287 129.544 345.976 129.536 346.665 129.524C400.671 130.541 452.843 158.845 482.084 208.797C481.396 208.8 480.708 208.808 480.02 208.82C426.013 207.804 373.84 179.5 344.599 129.548ZM340.767 129.522C341.447 129.535 342.128 129.543 342.809 129.547C342.47 130.143 342.136 130.74 341.806 131.34C328.283 153.867 309.019 173.377 284.661 187.458C260.287 201.548 233.747 208.503 207.461 208.971C206.774 208.958 206.086 208.95 205.399 208.946C218.967 185.661 238.602 165.487 263.604 151.034C287.967 136.951 314.493 129.995 340.767 129.522ZM356.737 129.027C379.848 127.159 402.918 120.253 424.327 107.877C445.736 95.5018 463.233 78.9579 476.386 59.8641C456.253 102.483 455.068 153.261 476.564 198.243C448.311 157.166 403.718 132.85 356.737 129.027ZM481.839 51.3912C482.196 50.7974 482.548 50.2015 482.897 49.6036C511.593 99.8797 510.078 159.225 483.995 206.536C483.644 207.12 483.297 207.707 482.954 208.295C454.263 158.029 455.772 98.697 481.839 51.3912ZM482.783 -111.191C511.502 -60.9149 510.001 -1.5603 483.925 45.7605C483.569 46.3542 483.217 46.9499 482.868 47.5478C453.806 -3.37044 455.731 -63.5914 482.783 -111.191ZM343.701 127.995C314.639 77.0765 316.564 16.8548 343.616 -30.745C372.336 19.5305 370.835 78.8846 344.76 126.205C344.403 126.8 344.05 127.397 343.701 127.995ZM343.73 130.051C343.381 130.65 343.029 131.246 342.672 131.84C316.605 179.145 315.098 238.476 343.788 288.741C344.13 288.154 344.476 287.57 344.826 286.987C370.911 239.676 372.427 180.329 343.73 130.051ZM285.161 188.324C263.749 200.701 240.676 207.607 217.562 209.475C264.549 213.295 309.148 237.614 337.402 278.698C315.902 233.714 317.085 182.933 337.22 140.311C324.067 159.405 306.57 175.948 285.161 188.324ZM207.462 209.971C206.786 209.983 206.109 209.991 205.433 209.994C234.678 259.953 286.861 288.258 340.876 289.267C341.557 289.255 342.237 289.247 342.917 289.244C313.669 239.281 261.481 210.976 207.462 209.971ZM203.642 209.993C202.974 209.989 202.306 209.981 201.638 209.969C175.351 210.437 148.812 217.392 124.437 231.482C99.2575 246.037 79.522 266.395 65.944 289.889C95.1256 340.189 147.489 368.699 201.699 369.715C202.385 369.702 203.071 369.694 203.757 369.691C174.516 318.468 176.443 257.886 203.642 209.993ZM123.937 230.616C145.349 218.238 168.422 211.332 191.536 209.465C140.82 205.341 92.8862 177.337 65.2855 130.145C38.2313 177.745 36.3047 237.969 65.3682 288.889C79.0214 265.459 98.7784 245.159 123.937 230.616ZM65.8594 129.144C95.0451 179.45 147.419 207.96 201.636 208.969C202.315 208.957 202.993 208.949 203.672 208.945C174.421 157.705 176.359 97.1008 203.585 49.2005C176.636 49.3377 149.355 56.2838 124.352 70.7367C99.1728 85.2921 79.4375 105.65 65.8594 129.144ZM263.519 -9.71097C238.517 4.74208 218.882 24.9161 205.314 48.2008C256.672 48.4926 306.629 73.3343 337.313 117.947C313.966 69.0927 317.372 13.4033 342.751 -31.2472C315.802 -31.1099 288.522 -24.1638 263.519 -9.71097ZM621.084 -192.141C594.135 -192.003 566.855 -185.057 541.853 -170.604C516.85 -156.151 497.216 -135.978 483.647 -112.693C535.005 -112.401 584.962 -87.56 615.645 -42.9485C592.3 -91.802 595.706 -147.491 621.084 -192.141ZM628.453 -20.7921C649.95 24.1936 648.763 74.975 628.625 117.596C641.779 98.4984 659.279 81.9512 680.691 69.5737C702.1 57.1977 725.17 50.292 748.281 48.4236C701.299 44.6013 656.705 20.2857 628.453 -20.7921ZM762.187 48.9531C762.874 48.9496 763.561 48.9417 764.248 48.9295C818.255 49.9445 870.429 78.2489 899.671 128.202C899.001 128.205 898.33 128.213 897.659 128.225C843.634 127.226 791.438 98.92 762.187 48.9531ZM758.356 48.9271C759.036 48.9398 759.715 48.9482 760.395 48.9523C760.062 49.5384 759.733 50.1263 759.408 50.7161C745.884 73.2553 726.615 92.7766 702.246 106.863C677.877 120.95 651.344 127.905 625.064 128.376C624.39 128.363 623.715 128.355 623.041 128.351C623.105 128.239 623.168 128.127 623.231 128.015C623.325 127.849 623.419 127.683 623.512 127.516C623.682 127.212 623.852 126.906 624.021 126.601C637.545 104.056 656.817 84.5291 681.191 70.4394C705.555 56.356 732.081 49.4004 758.356 48.9271ZM774.322 48.4327C797.433 46.5643 820.503 39.6585 841.912 27.2826C863.325 14.9046 880.825 -1.64346 893.979 -20.7422C873.84 21.8818 872.654 72.6669 894.155 117.655C865.903 76.5731 821.306 52.2551 774.322 48.4327ZM898.588 -29.753C885.063 -7.2043 865.789 12.3254 841.412 26.4168C817.049 40.5003 790.522 47.4558 764.247 47.9291C763.976 47.924 763.705 47.9197 763.435 47.916C763.285 47.9139 763.136 47.9121 762.987 47.9105C762.831 47.9088 762.675 47.9073 762.518 47.9061C762.415 47.9053 762.312 47.9045 762.208 47.9039C762.541 47.3178 762.87 46.7299 763.195 46.1401C776.719 23.601 795.989 4.07971 820.357 -10.007C845.36 -24.46 872.641 -31.4061 899.59 -31.5432C899.521 -31.4219 899.452 -31.3006 899.384 -31.1791C899.274 -30.9847 899.165 -30.7901 899.056 -30.5953C898.998 -30.4928 898.941 -30.3902 898.884 -30.2875C898.785 -30.1096 898.686 -29.9314 898.588 -29.753ZM901.374 -32.5425C901.703 -33.1216 902.028 -33.7026 902.35 -34.2854C915.874 -56.8341 935.148 -76.3637 959.525 -90.4551C984.705 -105.011 1012.2 -111.952 1039.33 -111.993C1068.73 -60.9561 1066.89 -0.467645 1039.73 47.3056C1009.94 -3.62777 956.468 -32.2105 901.374 -32.5425ZM899.453 -29.2515C899.8 -29.8296 900.143 -30.4097 900.482 -30.9917C929.187 19.3005 927.662 78.6684 901.554 125.986C901.37 126.293 901.187 126.601 901.005 126.909C900.929 127.038 900.853 127.166 900.778 127.295L900.655 127.505L900.542 127.699C871.842 77.4163 873.36 18.0618 899.453 -29.2515ZM906.958 -43.2963C928.696 -89.3036 928.352 -144.819 901.231 -192.29C955.983 -191.978 1009.13 -163.591 1038.75 -112.991C1011.63 -112.854 984.183 -105.864 959.025 -91.3209C937.612 -78.943 920.112 -62.395 906.958 -43.2963ZM402.685 -90.1574C427.688 -104.61 454.969 -111.556 481.918 -111.694C456.54 -67.0437 453.134 -11.3554 476.479 37.4979C445.795 -7.1138 395.838 -31.9551 344.481 -32.2468C358.049 -55.531 377.683 -75.7046 402.685 -90.1574ZM489.461 198.04C509.597 155.42 510.783 104.639 489.287 59.6544C517.54 100.733 562.136 125.049 609.119 128.87C586.006 130.738 562.935 137.644 541.524 150.021C520.113 162.398 502.614 178.944 489.461 198.04ZM625.063 129.376C624.381 129.388 623.7 129.396 623.019 129.4C652.269 179.366 704.463 207.672 758.487 208.672C759.16 208.66 759.832 208.652 760.504 208.649C731.259 158.691 679.077 130.385 625.063 129.376ZM621.229 129.399C620.555 129.395 619.881 129.386 619.207 129.374C592.926 129.844 566.393 136.8 542.024 150.887C517.655 164.974 498.385 184.495 484.861 207.035L484.741 207.253L484.596 207.515C484.549 207.599 484.502 207.683 484.456 207.766C484.263 208.111 484.07 208.454 483.875 208.797C484.556 208.801 485.237 208.81 485.917 208.823C512.191 208.349 538.717 201.393 563.079 187.31C587.453 173.221 606.725 153.694 620.249 131.149C620.572 130.564 620.899 129.98 621.229 129.399ZM702.746 107.729C681.336 120.106 658.264 127.012 635.152 128.88C682.135 132.701 726.73 157.017 754.984 198.095C733.487 153.111 734.673 102.331 754.81 59.7099C741.656 78.8063 724.157 95.3523 702.746 107.729ZM762.066 -111.842C789.185 -64.3732 789.53 -8.85977 767.794 37.1465C780.947 18.0501 798.446 1.50399 819.857 -10.8727C845.016 -25.4161 872.467 -32.4055 899.585 -32.5433C869.965 -83.1424 816.816 -111.53 762.066 -111.842ZM761.315 49.456C760.972 50.0446 760.625 50.6312 760.275 51.2158C734.192 98.5258 732.678 157.871 761.374 208.146C761.712 207.565 762.055 206.986 762.401 206.408C788.495 159.095 790.015 99.7393 761.315 49.456ZM350.119 140.1C371.616 185.086 370.431 235.867 350.293 278.488C363.447 259.391 380.946 242.844 402.358 230.467C423.767 218.091 446.836 211.186 469.948 209.317C422.966 205.495 378.371 181.179 350.119 140.1ZM483.851 209.847C484.54 209.843 485.228 209.835 485.917 209.823C539.924 210.839 592.097 239.143 621.339 289.096C620.663 289.099 619.986 289.107 619.31 289.119C565.29 288.115 513.1 259.81 483.851 209.847ZM480.02 209.821C480.7 209.833 481.381 209.842 482.062 209.846C481.865 210.193 481.669 210.54 481.475 210.889C481.341 211.128 481.208 211.368 481.076 211.608C467.552 234.148 448.282 253.67 423.913 267.757C399.543 281.844 373.009 288.799 346.727 289.269C346.055 289.257 345.382 289.249 344.708 289.245C345.04 288.661 345.368 288.074 345.692 287.487C359.216 264.945 378.487 245.421 402.858 231.333C427.22 217.25 453.746 210.294 480.02 209.821ZM495.99 209.326C519.101 207.458 542.17 200.552 563.579 188.176C584.991 175.799 602.491 159.251 615.645 140.154C595.507 182.775 594.321 233.556 615.818 278.542C587.565 237.464 542.971 213.149 495.99 209.326ZM621.116 131.648C621.464 131.068 621.808 130.486 622.149 129.902C650.851 180.189 649.329 239.55 623.229 286.865C622.885 287.439 622.544 288.015 622.208 288.593C593.509 238.312 595.027 178.961 621.116 131.648ZM482.982 210.35C482.64 210.937 482.293 211.523 481.943 212.107C455.859 259.418 454.344 318.764 483.041 369.04C483.094 368.948 483.148 368.857 483.201 368.765C483.283 368.626 483.365 368.486 483.447 368.347C483.652 368 483.858 367.653 484.065 367.307C510.162 319.993 511.683 260.635 482.982 210.35ZM424.413 268.623C403.002 280.999 379.931 287.905 356.818 289.773C403.801 293.594 448.397 317.91 476.651 358.989C455.154 314.004 456.34 263.224 476.477 220.603C463.323 239.7 445.824 256.246 424.413 268.623ZM346.728 290.27C346.047 290.282 345.366 290.29 344.686 290.293C373.939 340.265 426.141 368.571 480.171 369.566C480.304 369.563 480.437 369.561 480.569 369.559C480.717 369.557 480.864 369.555 481.011 369.553C481.398 369.548 481.785 369.545 482.172 369.543C452.926 319.584 400.743 291.278 346.728 290.27ZM342.896 290.292C342.223 290.288 341.55 290.28 340.878 290.267C314.596 290.737 288.061 297.693 263.691 311.78C238.689 326.233 219.054 346.407 205.486 369.692C206.181 369.696 206.875 369.704 207.57 369.717C233.848 369.245 260.379 362.29 284.746 348.204C309.117 334.116 328.388 314.592 341.912 292.05C342.236 291.462 342.564 290.876 342.896 290.292ZM330.786 289.764C280.071 285.639 232.137 257.635 204.537 210.443C177.483 258.044 175.557 318.268 204.621 369.189C218.275 345.758 238.032 325.458 263.191 310.914C284.602 298.538 307.673 291.632 330.786 289.764ZM342.779 292.55C343.128 291.968 343.473 291.384 343.815 290.797C372.519 341.088 370.995 400.453 344.89 447.77C344.548 448.34 344.21 448.913 343.875 449.487C315.178 399.209 316.693 339.861 342.779 292.55ZM217.653 370.221C240.765 368.353 263.836 361.447 285.246 349.07C306.658 336.693 324.157 320.146 337.311 301.049C317.172 343.674 315.988 394.46 337.491 439.448C309.238 398.363 264.639 374.043 217.653 370.221ZM205.519 370.741C206.202 370.737 206.886 370.729 207.571 370.717C261.582 371.729 313.76 400.034 343.004 449.99C342.337 449.994 341.671 450.001 341.004 450.013C286.974 449.018 234.772 420.712 205.519 370.741ZM201.699 370.715C202.375 370.728 203.052 370.736 203.729 370.74C176.521 418.648 174.602 479.252 203.871 530.485C148.922 530.172 95.5857 501.58 66.0296 450.636C79.6077 427.141 99.3432 406.783 124.523 392.227C148.89 378.142 175.421 371.187 201.699 370.715ZM191.617 370.211C168.504 372.079 145.433 378.985 124.023 391.362C98.8641 405.905 79.107 426.205 65.4539 449.635C36.3898 398.715 38.3161 338.491 65.3701 290.891C92.9698 338.081 140.902 366.086 191.617 370.211ZM767.876 197.897C788.017 155.271 789.202 104.483 767.699 59.4932C795.953 100.581 840.555 124.901 887.545 128.721C864.43 130.588 841.356 137.494 819.943 149.872C798.53 162.25 781.03 178.798 767.876 197.897ZM903.449 129.227C902.779 129.239 902.109 129.247 901.439 129.25C930.685 179.21 982.869 207.515 1036.88 208.523C1037.56 208.511 1038.24 208.503 1038.92 208.5C1009.67 158.532 957.475 130.226 903.449 129.227ZM899.65 129.249C898.986 129.245 898.323 129.237 897.66 129.225C871.368 129.69 844.823 136.645 820.443 150.738C796.066 164.83 776.792 184.36 763.267 206.909C762.946 207.491 762.621 208.071 762.292 208.65C762.957 208.654 763.621 208.662 764.286 208.674C790.576 208.208 817.12 201.253 841.498 187.161C865.884 173.064 885.164 153.525 898.689 130.966C898.75 130.855 898.811 130.745 898.872 130.635L899.002 130.401C899.217 130.016 899.432 129.632 899.65 129.249ZM981.166 107.579C959.753 119.958 936.679 126.864 913.564 128.731C964.281 132.853 1012.22 160.858 1039.82 208.051C1066.87 160.45 1068.8 100.227 1039.73 49.3074C1026.08 72.7369 1006.32 93.0364 981.166 107.579ZM980.666 106.714C1005.69 92.2509 1025.33 72.0595 1038.9 48.755C1011.93 48.883 984.631 55.8285 959.611 70.2913C935.225 84.3881 915.945 103.927 902.42 126.487C902.328 126.654 902.235 126.822 902.142 126.989L902.041 127.17C901.953 127.328 901.865 127.485 901.776 127.643C901.671 127.829 901.565 128.016 901.459 128.203C901.832 128.205 902.205 128.208 902.577 128.213C902.868 128.217 903.159 128.222 903.449 128.227C929.741 127.762 956.287 120.806 980.666 106.714ZM1178.99 127.603C1149.2 76.67 1095.72 48.0876 1040.63 47.7559C1067.84 -0.152068 1069.76 -60.7568 1040.49 -111.991C1095.52 -111.677 1148.93 -83.0014 1178.46 -31.918C1207.99 19.1655 1206.18 79.7604 1178.99 127.603ZM628.539 139.952C650.036 184.94 648.849 235.723 628.709 278.346C641.863 259.246 659.364 242.698 680.777 230.32C702.189 217.942 725.263 211.036 748.377 209.169C701.392 205.349 656.793 181.033 628.539 139.952ZM762.27 209.697C762.943 209.694 763.615 209.686 764.288 209.675C818.312 210.674 870.506 238.98 899.757 288.947C899.068 288.95 898.38 288.958 897.691 288.971C843.684 287.954 791.512 259.65 762.27 209.697ZM758.489 209.672C759.153 209.684 759.817 209.693 760.482 209.697C760.153 210.275 759.828 210.856 759.507 211.438C745.982 233.987 726.708 253.517 702.331 267.608C677.957 281.698 651.417 288.653 625.131 289.121C624.463 289.109 623.795 289.101 623.126 289.097C623.453 288.522 623.775 287.945 624.095 287.367C637.619 264.813 656.896 245.279 681.277 231.185C705.655 217.094 732.198 210.138 758.489 209.672ZM774.397 209.178C797.512 207.311 820.586 200.405 841.998 188.027C863.413 175.648 880.914 159.098 894.069 139.997C873.926 182.622 872.739 233.41 894.241 278.4C865.986 237.316 821.385 212.997 774.397 209.178ZM907.041 117.455C928.782 71.4472 928.439 15.9298 901.319 -31.5426C956.069 -31.2298 1009.22 -2.84315 1038.84 47.755C1011.72 47.8931 984.269 54.8826 959.111 69.4256C937.696 81.8045 920.195 98.3542 907.041 117.455ZM899.555 131.466C899.896 130.897 900.234 130.326 900.568 129.753C929.258 180.018 927.751 239.348 901.684 286.654C901.328 287.248 900.975 287.844 900.626 288.443C871.922 238.15 873.448 178.783 899.555 131.466ZM489.543 358.792C509.682 316.169 510.869 265.386 489.372 220.399C517.626 261.479 562.223 285.795 609.208 289.616C586.094 291.483 563.022 298.389 541.61 310.766C520.197 323.144 502.697 339.693 489.543 358.792ZM625.13 290.122C624.455 290.133 623.78 290.141 623.105 290.145C652.345 340.095 704.516 368.4 758.521 369.417C758.818 369.412 759.114 369.407 759.411 369.403C759.804 369.399 760.197 369.395 760.589 369.393C731.341 319.43 679.15 291.125 625.13 290.122ZM621.316 290.144C620.885 290.141 620.455 290.137 620.025 290.131C619.787 290.127 619.549 290.124 619.311 290.119C593.025 290.587 566.485 297.542 542.11 311.632C517.731 325.725 498.456 345.257 484.931 367.808C484.611 368.389 484.287 368.967 483.959 369.544C484.618 369.548 485.277 369.556 485.936 369.568C512.232 369.105 538.782 362.149 563.165 348.054C587.546 333.961 606.823 314.427 620.348 291.873C620.456 291.676 620.565 291.479 620.675 291.282C620.887 290.902 621.101 290.523 621.316 290.144ZM702.831 268.474C681.42 280.851 658.347 287.757 635.233 289.625C682.218 293.445 726.816 317.761 755.071 358.842C733.572 313.855 734.759 263.072 754.898 220.45C741.744 239.548 724.244 256.096 702.831 268.474ZM761.401 210.2C761.062 210.781 760.72 211.36 760.374 211.937C734.279 259.251 732.759 318.607 761.459 368.89C761.808 368.292 762.16 367.696 762.516 367.102C788.584 319.797 790.092 260.465 761.401 210.2ZM621.214 292.373C621.558 291.799 621.898 291.224 622.235 290.646C650.926 340.911 649.418 400.242 623.351 447.548C622.994 448.142 622.642 448.739 622.293 449.337C593.59 399.05 595.113 339.688 621.214 292.373ZM496.061 370.072C519.177 368.205 542.252 361.299 563.665 348.92C585.079 336.542 602.579 319.993 615.733 300.894C595.593 343.517 594.406 394.301 615.904 439.289C587.649 398.207 543.048 373.89 496.061 370.072ZM483.937 370.591C484.604 370.587 485.271 370.58 485.938 370.568C539.967 371.562 592.17 399.869 621.424 449.841C620.739 449.844 620.054 449.852 619.369 449.864C565.358 448.852 513.18 420.547 483.937 370.591ZM480.173 370.566C480.472 370.571 480.771 370.576 481.07 370.58C481.311 370.583 481.551 370.585 481.791 370.587C481.911 370.588 482.03 370.589 482.149 370.59C481.821 371.167 481.497 371.746 481.177 372.326C467.652 394.877 448.377 414.409 423.998 428.502C399.615 442.597 373.065 449.552 346.769 450.015C346.111 450.003 345.452 449.995 344.792 449.991C345.117 449.419 345.439 448.845 345.756 448.27C359.281 425.712 378.56 406.175 402.944 392.079C427.327 377.985 453.877 371.029 480.173 370.566ZM350.2 300.838C378.455 341.925 423.058 366.244 470.048 370.062C446.932 371.929 423.858 378.835 402.444 391.214C381.03 403.592 363.529 420.142 350.374 439.242C370.517 396.617 371.703 345.828 350.2 300.838ZM483.068 371.093C482.73 371.673 482.389 372.251 482.043 372.826C455.946 420.141 454.425 479.499 483.126 529.784C483.317 529.456 483.51 529.128 483.704 528.801C483.862 528.534 484.021 528.267 484.181 528.001C510.251 480.694 511.76 421.361 483.068 371.093ZM424.498 429.368C403.084 441.746 380.009 448.652 356.893 450.519C403.883 454.338 448.485 478.656 476.74 519.743C455.239 474.753 456.425 423.967 476.566 381.342C463.412 400.441 445.911 416.989 424.498 429.368ZM346.77 451.016C346.104 451.027 345.438 451.035 344.772 451.038C374.016 500.995 426.195 529.3 480.207 530.311C480.89 530.299 481.573 530.291 482.255 530.287C453.002 480.316 400.799 452.01 346.77 451.016ZM342.983 451.037C342.324 451.033 341.664 451.025 341.006 451.013C314.71 451.476 288.159 458.432 263.776 472.527C238.757 486.99 219.112 507.181 205.543 530.486C232.51 530.358 259.811 523.412 284.831 508.95C309.215 494.854 328.494 475.317 342.019 452.759C342.337 452.183 342.658 451.609 342.983 451.037ZM330.881 450.51C280.163 446.388 232.226 418.383 204.623 371.19C177.57 418.791 175.644 479.014 204.708 529.933C218.361 506.504 238.118 486.204 263.276 471.661C284.69 459.282 307.765 452.376 330.881 450.51ZM342.885 453.26C343.227 452.689 343.566 452.116 343.9 451.542C372.598 501.82 371.082 561.168 344.996 608.479C344.647 609.061 344.301 609.645 343.96 610.231C315.256 559.941 316.78 500.576 342.885 453.26ZM205.605 531.486C232.722 531.348 260.173 524.358 285.331 509.815C306.746 497.436 324.247 480.887 337.401 461.787C315.66 507.794 316.003 563.311 343.124 610.784C288.373 610.471 235.225 582.084 205.605 531.486ZM203.815 531.485C176.606 579.393 174.686 639.997 203.956 691.231C148.926 690.917 95.5156 662.241 65.9863 611.158C36.4569 560.075 38.2643 499.48 65.4557 451.637C95.245 502.571 148.72 531.153 203.815 531.485ZM907.136 278.183C927.271 235.561 928.454 184.781 906.955 139.797C935.208 180.88 979.806 205.198 1026.79 209.02C1003.68 210.887 980.606 217.793 959.195 230.17C937.786 242.546 920.289 259.089 907.136 278.183ZM1040.71 208.501C1041.39 208.505 1042.06 208.513 1042.73 208.525C1069.01 208.056 1095.55 201.101 1119.92 187.013C1145.1 172.457 1164.83 152.099 1178.41 128.605C1148.86 77.6609 1095.52 49.0689 1040.57 48.7557C1069.84 99.9889 1067.92 160.593 1040.71 208.501ZM1120.42 187.878C1099.01 200.256 1075.94 207.161 1052.82 209.029C1103.54 213.154 1151.47 241.159 1179.07 288.351C1206.13 240.75 1208.05 180.526 1178.99 129.605C1165.33 153.035 1145.58 173.335 1120.42 187.878ZM1042.73 209.526C1042.45 209.531 1042.16 209.535 1041.88 209.539C1041.48 209.544 1041.08 209.547 1040.68 209.549C1069.93 260.773 1068 321.354 1040.8 369.247C1041.47 369.251 1042.15 369.259 1042.82 369.272C1069.1 368.802 1095.63 361.846 1120 347.759C1145.18 333.204 1164.92 312.846 1178.5 289.352C1149.31 239.048 1096.95 210.538 1042.73 209.526ZM1038.96 209.548C1038.27 209.545 1037.58 209.536 1036.89 209.523C1010.6 209.993 984.066 216.948 959.695 231.036C935.337 245.117 916.073 264.628 902.55 287.155C902.22 287.754 901.885 288.352 901.547 288.948C902.228 288.952 902.909 288.96 903.589 288.973C929.863 288.499 956.389 281.544 980.751 267.461C1005.75 253.008 1025.39 232.833 1038.96 209.548ZM767.792 220.252C789.287 265.234 788.102 316.011 767.969 358.631C781.122 339.537 798.619 322.993 820.028 310.617C841.437 298.241 864.507 291.336 887.619 289.467C840.637 285.645 796.044 261.329 767.792 220.252ZM901.525 289.997C902.213 289.994 902.901 289.986 903.589 289.973C957.595 290.99 1009.77 319.294 1039.01 369.246C1038.33 369.249 1037.65 369.257 1036.97 369.269C982.952 368.26 930.77 339.955 901.525 289.997ZM897.69 289.971C898.37 289.984 899.051 289.992 899.733 289.996C899.395 290.592 899.06 291.189 898.73 291.788C885.207 314.315 865.943 333.826 841.585 347.907C817.223 361.99 790.698 368.945 764.425 369.419C764.036 369.412 763.648 369.406 763.259 369.402C762.966 369.398 762.673 369.396 762.38 369.394C762.718 368.799 763.052 368.202 763.382 367.603C776.905 345.076 796.169 325.564 820.528 311.483C844.89 297.4 871.416 290.445 897.69 289.971ZM913.661 289.477C936.772 287.608 959.842 280.702 981.251 268.327C1006.41 253.783 1026.17 233.483 1039.82 210.053C1068.88 260.973 1066.96 321.196 1039.9 368.797C1012.3 321.607 964.374 293.603 913.661 289.477ZM628.803 439.077C648.936 396.458 650.121 345.681 628.626 300.699C656.878 341.776 701.471 366.091 748.452 369.914C725.341 371.782 702.271 378.688 680.862 391.064C659.453 403.439 641.956 419.983 628.803 439.077ZM764.425 370.42C763.736 370.432 763.046 370.44 762.357 370.444C791.602 420.402 843.785 448.707 897.799 449.716C898.481 449.704 899.162 449.696 899.843 449.693C870.602 399.742 818.431 371.437 764.425 370.42ZM760.566 370.443C759.884 370.439 759.202 370.43 758.521 370.417C732.248 370.892 705.723 377.847 681.362 391.93C657.004 406.01 637.74 425.521 624.217 448.048C623.887 448.648 623.552 449.246 623.214 449.842C623.89 449.846 624.566 449.854 625.242 449.867C651.521 449.395 678.051 442.44 702.418 428.354C726.776 414.273 746.04 394.763 759.563 372.235C759.893 371.636 760.228 371.038 760.566 370.443ZM842.085 348.773C820.676 361.149 797.606 368.055 774.495 369.923C821.476 373.746 866.069 398.061 894.321 439.138C872.826 394.156 874.011 343.379 894.144 300.76C880.991 319.854 863.494 336.397 842.085 348.773ZM900.654 290.5C900.306 291.097 899.954 291.693 899.597 292.287C873.53 339.593 872.021 398.924 900.712 449.19C900.783 449.068 900.854 448.946 900.925 448.825L901.044 448.622L901.104 448.521C901.171 448.407 901.238 448.293 901.305 448.18C901.459 447.921 901.613 447.663 901.768 447.404C927.836 400.099 929.345 340.766 900.654 290.5ZM489.459 381.146C510.954 426.128 509.77 476.906 489.635 519.525C502.789 500.431 520.286 483.887 541.695 471.511C563.105 459.135 586.176 452.229 609.288 450.361C562.306 446.539 517.711 422.224 489.459 381.146ZM623.191 450.891C623.875 450.887 624.559 450.879 625.243 450.867C679.254 451.879 731.432 480.184 760.675 530.139C760.388 530.141 760.101 530.143 759.813 530.146C759.413 530.15 759.012 530.156 758.611 530.163C704.604 529.147 652.432 500.842 623.191 450.891ZM619.368 450.865C620.045 450.877 620.722 450.886 621.4 450.89C621.2 451.242 621.001 451.594 620.804 451.948C620.734 452.074 620.664 452.2 620.594 452.326L620.513 452.471L620.396 452.683C606.873 475.21 587.61 494.72 563.252 508.801C538.885 522.886 512.354 529.842 486.075 530.313C485.687 530.306 485.299 530.3 484.911 530.296C484.623 530.292 484.335 530.29 484.047 530.288C484.385 529.694 484.718 529.098 485.048 528.5C498.571 505.971 517.835 486.459 542.195 472.377C566.561 458.292 593.09 451.337 619.368 450.865ZM635.325 450.37C658.437 448.502 681.508 441.597 702.918 429.22C724.327 416.845 741.824 400.301 754.977 381.207C734.843 423.827 733.659 474.604 755.155 519.587C726.902 478.508 682.307 454.192 635.325 450.37ZM760.43 372.734C760.786 372.14 761.139 371.544 761.487 370.947C790.182 421.22 788.669 480.563 762.589 527.872C762.502 528.018 762.414 528.164 762.327 528.311C762.184 528.551 762.041 528.792 761.899 529.033L761.812 529.181C761.723 529.333 761.634 529.485 761.545 529.638C732.854 479.372 734.362 420.04 760.43 372.734ZM350.464 599.979C370.603 557.354 371.787 506.568 350.285 461.58C378.537 502.666 423.136 526.985 470.123 530.808C447.01 532.675 423.939 539.581 402.529 551.958C381.117 564.335 363.618 580.882 350.464 599.979ZM486.073 531.314C485.39 531.326 484.707 531.333 484.024 531.337C513.267 581.293 565.446 609.598 619.458 610.61C620.142 610.598 620.826 610.59 621.509 610.587C592.265 560.63 540.086 532.325 486.073 531.314ZM482.233 531.336C481.558 531.332 480.882 531.324 480.207 531.311C453.928 531.782 427.396 538.738 403.029 552.824C378.658 566.912 359.387 586.436 345.863 608.979C345.53 609.582 345.192 610.184 344.852 610.784C371.801 610.647 399.082 603.701 424.085 589.248C448.445 575.166 467.709 555.654 481.232 533.125C481.562 532.527 481.896 531.93 482.233 531.336ZM563.752 509.666C542.342 522.043 519.271 528.949 496.158 530.817C543.141 534.639 587.736 558.955 615.989 600.034C594.493 555.051 595.677 504.273 615.811 461.653C602.658 480.747 585.161 497.291 563.752 509.666ZM622.321 451.393C621.972 451.992 621.62 452.588 621.263 453.182C595.196 500.488 593.689 559.819 622.379 610.084C622.725 609.491 623.075 608.899 623.429 608.31C649.503 561.002 651.015 501.664 622.321 451.393ZM204.709 531.935C177.557 579.708 175.715 640.196 205.11 691.233C232.246 691.193 259.737 684.251 284.917 669.695C309.288 655.607 328.559 636.083 342.083 613.541C342.407 612.954 342.735 612.367 343.067 611.783C287.973 611.451 234.498 582.868 204.709 531.935ZM344.857 611.784C374.477 662.383 427.625 690.77 482.375 691.083C455.257 643.616 454.911 588.105 476.645 542.1C463.491 561.194 445.994 577.738 424.585 590.114C399.427 604.657 371.975 611.646 344.857 611.784ZM482.1 533.624C482.455 533.032 482.806 532.438 483.154 531.841C511.85 582.119 510.335 641.466 484.25 688.776C483.9 689.359 483.554 689.944 483.212 690.531C454.52 640.264 456.03 580.93 482.1 533.624ZM343.99 612.281C343.647 612.87 343.3 613.457 342.95 614.041C316.768 661.526 315.338 721.137 344.364 771.533C371.499 771.492 398.99 764.55 424.17 749.994C448.541 735.906 467.812 716.383 481.336 693.841C481.66 693.253 481.988 692.667 482.32 692.083C427.243 691.75 373.784 663.185 343.99 612.281ZM343.21 771.53C316.09 724.061 315.745 668.546 337.482 622.54C324.328 641.637 306.829 658.184 285.417 670.561C260.259 685.104 232.807 692.094 205.69 692.232C235.31 742.831 288.459 771.218 343.21 771.53ZM907.041 300.544C928.54 345.529 927.356 396.309 907.221 438.93C920.375 419.836 937.872 403.292 959.281 390.917C980.692 378.54 1003.76 371.634 1026.88 369.766C979.892 365.944 935.294 341.627 907.041 300.544ZM1040.77 370.295C1041.04 370.294 1041.31 370.292 1041.58 370.289C1041.99 370.285 1042.4 370.279 1042.82 370.272C1097.03 371.285 1149.4 399.794 1178.58 450.096C1165 473.59 1145.27 493.948 1120.09 508.504C1095.09 522.957 1067.81 529.903 1040.86 530.04C1068.08 482.14 1070.02 421.536 1040.77 370.295ZM1036.97 370.27C1037.66 370.283 1038.35 370.291 1039.04 370.295C1025.47 393.579 1005.84 413.753 980.837 428.206C956.467 442.293 929.933 449.248 903.651 449.719C902.979 449.706 902.306 449.698 901.633 449.694C901.97 449.1 902.304 448.504 902.633 447.906C916.156 425.377 935.421 405.864 959.781 391.782C984.151 377.695 1010.68 370.74 1036.97 370.27ZM1052.91 369.775C1076.02 367.908 1099.09 361.002 1120.51 348.625C1145.66 334.082 1165.42 313.782 1179.07 290.352C1208.14 341.272 1206.21 401.495 1179.16 449.094C1151.56 401.904 1103.62 373.9 1052.91 369.775ZM981.337 429.072C959.926 441.448 936.855 448.354 913.742 450.222C964.456 454.347 1012.39 482.35 1039.99 529.541C1067.04 481.941 1068.97 421.718 1039.91 370.799C1026.25 394.229 1006.5 414.528 981.337 429.072ZM903.651 450.719C902.97 450.731 902.29 450.739 901.609 450.742C931.228 501.339 984.375 529.725 1039.12 530.039C1009.88 480.051 957.684 451.728 903.651 450.719ZM899.819 450.741C899.146 450.737 898.473 450.729 897.801 450.717C871.519 451.187 844.985 458.142 820.615 472.229C796.247 486.315 776.979 505.835 763.455 528.373C763.129 528.964 762.8 529.553 762.466 530.14C762.76 530.142 763.054 530.145 763.348 530.148C763.735 530.152 764.121 530.158 764.507 530.165C790.781 529.692 817.308 522.736 841.671 508.653C866.031 494.571 885.295 475.059 898.819 452.53C898.999 452.202 899.181 451.876 899.363 451.549L899.435 451.422C899.496 451.314 899.557 451.206 899.617 451.098C899.685 450.979 899.752 450.86 899.819 450.741ZM887.71 450.213C840.726 446.392 796.13 422.075 767.876 380.996C789.374 425.98 788.189 476.761 768.052 519.382C781.206 500.286 798.704 483.74 820.115 471.363C841.526 458.987 864.597 452.081 887.71 450.213ZM628.711 461.443C650.207 506.427 649.023 557.206 628.887 599.826C642.041 580.731 659.539 564.186 680.949 551.81C702.358 539.434 725.428 532.528 748.539 530.66C701.557 526.837 656.963 502.521 628.711 461.443ZM762.442 531.189C763.131 531.186 763.819 531.178 764.508 531.166C818.533 532.182 870.721 560.505 899.957 610.487C845.209 610.173 792.062 581.787 762.442 531.189ZM758.61 531.163C759.291 531.176 759.972 531.185 760.653 531.189C760.319 531.776 759.989 532.366 759.663 532.958C746.139 555.495 726.871 575.014 702.504 589.1C678.137 603.185 651.606 610.141 625.327 610.612C624.652 610.6 623.976 610.592 623.3 610.587C623.635 609.997 623.967 609.404 624.295 608.81C637.818 586.276 657.085 566.76 681.449 552.676C705.811 538.593 732.337 531.637 758.61 531.163ZM774.581 530.669C797.692 528.801 820.762 521.895 842.171 509.519C863.58 497.143 881.077 480.599 894.231 461.505C874.097 504.123 872.912 554.898 894.405 599.879C866.152 558.805 821.56 534.491 774.581 530.669ZM899.685 453.03C900.041 452.437 900.392 451.842 900.74 451.245C929.802 502.164 927.877 562.385 900.825 609.984C872.105 559.707 873.607 500.351 899.685 453.03ZM760.692 533.185C760.638 533.276 760.584 533.366 760.53 533.456C734.442 580.78 732.935 640.146 761.659 690.431C788.71 642.831 790.635 582.611 761.573 531.693C761.358 532.061 761.142 532.428 760.925 532.795C760.848 532.925 760.77 533.055 760.692 533.185ZM703.004 589.966C681.594 602.342 658.523 609.248 635.411 611.116C682.393 614.938 726.988 639.253 755.242 680.332C733.745 635.348 734.93 584.568 755.067 541.947C741.913 561.043 724.415 577.589 703.004 589.966ZM625.329 611.613C624.645 611.625 623.96 611.633 623.277 611.636C652.896 662.232 706.042 690.619 760.79 690.933C731.551 640.948 679.357 612.625 625.329 611.613ZM621.487 611.635C620.811 611.631 620.134 611.623 619.459 611.61C593.18 612.082 566.649 619.037 542.282 633.123C517.911 647.211 498.64 666.735 485.116 689.276C484.783 689.881 484.446 690.483 484.104 691.083C511.054 690.946 538.335 684 563.338 669.547C587.702 655.463 606.969 635.947 620.492 613.413C620.82 612.819 621.151 612.226 621.487 611.635ZM609.375 611.107C562.39 607.285 517.793 582.967 489.54 541.884C511.04 586.871 509.855 637.655 489.717 680.278C502.871 661.181 520.37 644.634 541.782 632.257C563.192 619.881 586.263 612.975 609.375 611.107ZM484.109 692.084C513.73 742.682 566.878 771.068 621.629 771.381C594.511 723.913 594.165 668.401 615.9 622.396C602.746 641.492 585.248 658.037 563.838 670.413C538.679 684.956 511.227 691.946 484.109 692.084ZM621.359 613.913C621.712 613.324 622.062 612.733 622.407 612.14C651.469 663.057 649.544 723.278 622.493 770.877C593.771 720.596 595.275 661.235 621.359 613.913ZM483.242 692.582C482.899 693.17 482.553 693.756 482.202 694.34C456.021 741.825 454.591 801.435 483.616 851.83C510.751 851.789 538.243 844.847 563.423 830.291C588.425 815.839 608.059 795.665 621.628 772.381C566.532 772.068 513.047 743.501 483.242 692.582ZM482.462 851.827C455.343 804.358 454.998 748.845 476.735 702.839C463.581 721.936 446.082 738.483 424.67 750.86C399.512 765.403 372.061 772.393 344.944 772.531C374.564 823.128 427.712 851.514 482.462 851.827ZM907.13 461.295C930.475 510.149 927.068 565.837 901.69 610.487C928.639 610.35 955.919 603.404 980.922 588.951C1005.92 574.498 1025.56 554.324 1039.13 531.04C987.77 530.748 937.813 505.907 907.13 461.295ZM1040.86 531.04C1067.98 530.903 1095.43 523.914 1120.59 509.37C1145.75 494.826 1165.5 474.526 1179.16 451.096C1222.83 527.601 1196.54 625.108 1120.17 669.25C1095.17 683.703 1067.89 690.649 1040.94 690.786C1068.17 642.886 1070.11 582.281 1040.86 531.04ZM762.524 690.933C787.902 646.283 791.308 590.595 767.962 541.741C798.645 586.354 848.603 611.195 899.961 611.487C886.392 634.771 866.758 654.944 841.756 669.397C816.753 683.85 789.473 690.796 762.524 690.933ZM1039.79 690.788C984.837 690.672 931.418 662.264 901.694 611.487C928.812 611.349 956.264 604.36 981.422 589.817C1006.58 575.273 1026.34 554.973 1039.99 531.543C1069.16 582.641 1067.12 643.109 1039.79 690.788ZM762.528 691.934C789.646 691.796 817.097 684.806 842.256 670.263C867.415 655.72 887.172 635.419 900.826 611.989C929.992 663.088 927.95 723.556 900.624 771.235C845.67 771.119 792.252 742.71 762.528 691.934ZM628.796 622.187C659.479 666.8 709.436 691.641 760.794 691.933C747.226 715.218 727.591 735.392 702.589 749.845C677.587 764.298 650.306 771.244 623.357 771.381C648.736 726.731 652.142 671.041 628.796 622.187ZM761.458 851.681C706.504 851.565 653.087 823.157 623.363 772.381C650.48 772.243 677.931 765.254 703.089 750.711C728.248 736.167 748.005 715.867 761.659 692.436C790.825 743.535 788.783 804.003 761.458 851.681ZM622.495 772.878C652.3 823.799 705.785 852.366 760.881 852.679C747.313 875.964 727.678 896.138 702.676 910.591C626.314 954.733 528.698 928.85 484.195 852.828C511.313 852.69 538.764 845.7 563.923 831.157C589.084 816.613 608.842 796.311 622.495 772.878ZM1039.21 691.786C987.858 691.494 937.903 666.655 907.219 622.047C930.561 670.899 927.155 726.585 901.777 771.233C928.726 771.096 956.006 764.15 981.009 749.697C1006.01 735.244 1025.65 715.07 1039.21 691.786ZM900.048 772.233C848.69 771.941 798.732 747.1 768.049 702.488C791.395 751.341 787.989 807.03 762.61 851.68C789.559 851.542 816.84 844.596 841.843 830.143C866.845 815.691 886.479 795.517 900.048 772.233Z" fill="#FDFDFD"/>
</g>
</svg>
