<svg width="512" height="881" viewBox="0 0 512 881" fill="none" xmlns="http://www.w3.org/2000/svg">
<path fill-rule="evenodd" clip-rule="evenodd" d="M118.561 -326.439C132.129 -349.724 151.764 -369.898 176.766 -384.351C253.129 -428.493 350.745 -402.61 395.247 -326.587C368.129 -326.45 340.677 -319.46 315.518 -304.917C290.358 -290.373 270.6 -270.071 256.947 -246.64C227.142 -297.56 173.657 -326.126 118.561 -326.439ZM117.406 -326.441C131.069 -350.083 150.928 -370.57 176.266 -385.216C253.273 -429.731 351.76 -403.475 396.404 -326.589C451.881 -326.472 505.803 -297.7 535.654 -246.292C591.133 -246.177 645.058 -217.403 674.909 -165.993C730.487 -165.877 784.504 -137.001 814.322 -85.4185C844.14 -33.836 842.203 27.3843 814.567 75.6039C844.219 127.129 842.24 188.217 814.652 236.351C844.302 287.875 842.324 348.962 814.737 397.095C859.082 474.153 832.682 572.601 755.675 617.116C730.337 631.763 702.674 638.748 675.369 638.788C661.706 662.43 641.847 682.916 616.509 697.563C591.171 712.21 563.508 719.194 536.202 719.235C522.54 742.877 502.681 763.362 477.343 778.009C452.005 792.656 424.342 799.641 397.036 799.682C383.373 823.323 363.514 843.809 338.176 858.456C261.169 902.971 162.682 876.716 118.039 799.83C62.5609 799.713 8.6381 770.941 -21.2128 719.532C-76.692 719.417 -130.616 690.643 -160.467 639.233C-216.045 639.117 -270.062 610.241 -299.88 558.659C-329.697 507.076 -327.761 445.856 -300.125 397.637C-329.776 346.112 -327.798 285.024 -300.21 236.89C-329.861 185.366 -327.883 124.278 -300.295 76.1445C-344.64 -0.913349 -318.239 -99.361 -241.233 -143.876C-215.895 -158.522 -188.232 -165.507 -160.926 -165.548C-147.264 -189.19 -127.405 -209.675 -102.067 -224.322C-76.729 -238.969 -49.0655 -245.954 -21.7597 -245.994C-8.09686 -269.636 11.7622 -290.122 37.1001 -304.769C62.4376 -319.416 90.1006 -326.401 117.406 -326.441ZM395.827 -325.589C368.691 -325.549 341.199 -318.607 316.018 -304.051C291.016 -289.598 271.382 -269.424 257.814 -246.14C312.91 -245.827 366.395 -217.261 396.199 -166.34C396.541 -166.927 396.887 -167.512 397.237 -168.095C423.421 -215.58 424.853 -275.192 395.827 -325.589ZM402.707 -176.598C424.444 -222.604 424.099 -278.117 396.981 -325.587C451.73 -325.273 504.877 -296.887 534.497 -246.29C507.381 -246.152 479.93 -239.163 454.772 -224.62C433.36 -212.243 415.861 -195.695 402.707 -176.598ZM397.122 -165.842C397.453 -166.425 397.78 -167.009 398.103 -167.595C411.627 -190.139 430.899 -209.665 455.272 -223.754C480.452 -238.309 507.942 -245.251 535.077 -245.292C564.107 -194.891 562.673 -135.273 536.483 -87.7855C536.136 -87.206 535.792 -86.6246 535.452 -86.0412C505.658 -136.945 452.199 -165.51 397.122 -165.842ZM395.196 -162.542C395.544 -163.123 395.889 -163.706 396.229 -164.29C424.926 -114.015 423.411 -54.6699 397.329 -7.35977C396.978 -6.77544 396.632 -6.18913 396.289 -5.60081C367.59 -55.8802 369.108 -115.231 395.196 -162.542ZM394.33 -163.043C394.662 -163.645 394.998 -164.245 395.338 -164.843C368.388 -164.706 341.107 -157.76 316.104 -143.307C291.746 -129.226 272.483 -109.716 258.96 -87.1894C258.629 -86.5894 258.295 -85.9912 257.956 -85.395C258.628 -85.3909 259.299 -85.3827 259.971 -85.3703C286.254 -85.8397 312.789 -92.7952 337.16 -106.883C361.533 -120.972 380.805 -140.498 394.33 -163.043ZM270.064 -84.8666C293.177 -86.7343 316.249 -93.6402 337.66 -106.017C359.072 -118.395 376.572 -134.942 389.726 -154.039C369.586 -111.414 368.402 -60.6276 389.905 -15.639C361.652 -56.7251 317.052 -81.0451 270.064 -84.8666ZM257.931 -84.3467C258.611 -84.3501 259.291 -84.3578 259.97 -84.3699C313.987 -83.3626 366.171 -55.057 395.418 -5.09692C394.731 -5.09344 394.043 -5.08551 393.356 -5.0732C339.348 -6.08816 287.173 -34.3931 257.931 -84.3467ZM254.127 -84.3723C254.798 -84.3598 255.47 -84.3515 256.142 -84.3475C255.804 -83.7511 255.469 -83.1528 255.138 -82.5525C241.615 -60.0261 222.352 -40.5159 197.994 -26.4355C173.633 -12.3534 147.109 -5.39786 120.837 -4.92334C120.155 -4.93612 119.472 -4.9446 118.79 -4.94871C119.128 -5.54385 119.462 -6.14099 119.792 -6.74001C133.315 -29.2675 152.579 -48.7786 176.937 -62.8595C201.308 -76.9473 227.844 -83.9028 254.127 -84.3723ZM254.127 -85.3726C254.806 -85.3846 255.486 -85.3924 256.165 -85.3959C226.546 -135.992 173.4 -164.378 118.652 -164.693C147.893 -114.703 200.093 -86.3804 254.127 -85.3726ZM124.199 -154.094C152.452 -113.014 197.049 -88.6971 244.034 -84.8759C220.92 -83.0083 197.848 -76.1023 176.437 -63.7253C155.028 -51.3498 137.531 -34.8059 124.378 -15.712C144.512 -58.3325 145.696 -109.111 124.199 -154.094ZM111.395 -176.245C80.7116 -220.858 30.7536 -245.7 -20.6047 -245.992C-7.03623 -269.276 12.5981 -289.45 37.6006 -303.903C62.6026 -318.356 89.883 -325.302 116.832 -325.439C91.453 -280.789 88.0475 -225.099 111.395 -176.245ZM117.783 -166.197C88.6171 -217.295 90.6591 -277.763 117.984 -325.441C172.938 -325.326 226.356 -296.917 256.081 -246.141C228.963 -246.003 201.511 -239.014 176.352 -224.47C151.193 -209.927 131.436 -189.627 117.783 -166.197ZM-240.733 -143.01C-317.094 -98.8681 -343.383 -1.36176 -299.716 75.1432C-286.063 51.7136 -266.306 31.414 -241.148 16.8709C-215.987 2.32656 -188.534 -4.66283 -161.414 -4.7997C-190.665 -56.0405 -188.727 -116.645 -161.501 -164.546C-188.45 -164.409 -215.73 -157.463 -240.733 -143.01ZM-101.566 -223.456C-76.564 -237.909 -49.2831 -244.855 -22.334 -244.992C-47.7124 -200.343 -51.1184 -144.654 -27.7732 -95.8009C-58.4565 -140.413 -108.414 -165.254 -159.771 -165.546C-146.203 -188.83 -126.569 -209.003 -101.566 -223.456ZM-21.1814 -244.994C-48.5068 -197.316 -50.5489 -136.849 -21.3835 -85.7506C-7.73032 -109.18 12.0266 -129.48 37.185 -144.023C62.344 -158.567 89.7957 -165.556 116.913 -165.694C87.1896 -216.47 33.772 -244.878 -21.1814 -244.994ZM-14.7878 64.734C5.34565 22.1148 6.53002 -28.6622 -14.9653 -73.6444C13.2868 -32.5674 57.8795 -8.25209 104.86 -4.42902C81.7492 -2.56047 58.68 4.34526 37.271 16.721C15.8625 29.0964 -1.63464 45.6402 -14.7878 64.734ZM-20.5144 -84.2466C8.72029 -34.2666 60.9057 -5.94451 114.927 -4.92574C115.388 -4.93402 115.849 -4.94033 116.31 -4.94462C116.54 -4.94676 116.769 -4.9484 116.999 -4.94959C87.3797 -55.5459 34.2338 -83.9323 -20.5144 -84.2466ZM119.95 -3.90954C119.555 -3.90462 119.16 -3.90118 118.766 -3.89917C148.011 46.0591 200.193 74.3643 254.207 75.3736C254.889 75.3615 255.57 75.3537 256.252 75.3502C227.012 25.3996 174.842 -2.90492 120.837 -3.92301C120.541 -3.91771 120.245 -3.91323 119.95 -3.90954ZM116.975 -3.90002C116.293 -3.90416 115.61 -3.9126 114.928 -3.92539C88.6558 -3.45077 62.1321 3.50476 37.7714 17.5868C13.4133 31.6673 -5.84996 51.1777 -19.3729 73.7042C-19.7036 74.3043 -20.0383 74.9024 -20.3769 75.4985C-19.6963 75.5026 -19.016 75.511 -18.336 75.5238C7.93839 75.0501 34.4644 68.0946 58.827 54.0115C83.186 39.9305 102.45 20.4193 115.973 -2.10827C116.303 -2.70746 116.637 -3.30471 116.975 -3.90002ZM198.495 -25.5698C177.085 -13.194 154.016 -6.2882 130.905 -4.41967C177.886 -0.596606 222.479 23.7187 250.731 64.7957C229.235 19.8136 230.42 -30.9633 250.553 -73.5825C237.4 -54.4888 219.903 -37.9451 198.495 -25.5698ZM257.035 -85.8982C257.384 -86.4973 257.737 -87.0943 258.094 -87.6892C284.168 -135.01 285.669 -194.363 256.949 -244.639C229.897 -197.039 227.972 -136.817 257.035 -85.8982ZM257.814 -245.14C284.932 -197.674 285.278 -142.164 263.545 -96.1596C276.698 -115.253 294.196 -131.797 315.604 -144.172C340.763 -158.716 368.214 -165.705 395.332 -165.843C365.712 -216.441 312.564 -244.827 257.814 -245.14ZM257.063 -83.8423C256.714 -83.244 256.362 -82.6477 256.005 -82.0534C229.938 -34.748 228.431 24.5829 257.121 74.8479C257.462 74.2635 257.806 73.6812 258.154 73.1008C284.244 25.7889 285.761 -33.5622 257.063 -83.8423ZM-160.348 -164.548C-187.674 -116.869 -189.716 -56.4017 -160.55 -5.30299C-146.897 -28.7332 -127.14 -49.0334 -101.981 -63.5767C-76.8221 -78.1202 -49.3703 -85.1096 -22.2525 -85.2473C-51.9765 -136.024 -105.394 -164.432 -160.348 -164.548ZM-160.548 -3.30105C-187.602 44.299 -189.528 104.522 -160.465 155.441C-146.812 132.011 -127.055 111.711 -101.896 97.1683C-80.4865 84.7923 -57.4167 77.8865 -34.3053 76.0181C-85.0182 71.8918 -132.949 43.888 -160.548 -3.30105ZM-24.233 75.5214C-78.2569 74.5049 -130.445 46.1827 -159.681 -3.79896C-104.933 -3.48453 -51.7876 24.9017 -22.1684 75.4977C-22.8564 75.5012 -23.5446 75.5091 -24.233 75.5214ZM-20.401 76.5479C-19.7127 76.5444 -19.0241 76.5365 -18.3354 76.5241C35.6712 77.5405 87.8431 105.845 117.084 155.797C116.396 155.8 115.708 155.808 115.02 155.82C61.0128 154.804 8.8404 126.5 -20.401 76.5479ZM-24.233 76.5218C-23.5527 76.5345 -22.8721 76.5429 -22.1912 76.547C-22.5296 77.1427 -22.864 77.7405 -23.1945 78.3401C-36.7175 100.867 -55.9808 120.377 -80.339 134.458C-104.713 148.548 -131.253 155.503 -157.539 155.971C-158.226 155.958 -158.914 155.95 -159.601 155.946C-146.033 132.661 -126.398 112.487 -101.396 98.034C-77.0331 83.951 -50.5072 76.9955 -24.233 76.5218ZM-8.26325 76.0274C14.8482 74.1591 37.918 67.2533 59.3275 54.8773C80.736 42.5018 98.2332 25.9579 111.386 6.86408C91.2527 49.4835 90.0683 100.261 111.564 145.243C83.3115 104.166 38.718 79.8501 -8.26325 76.0274ZM116.839 -1.60881C117.196 -2.20263 117.548 -2.7985 117.897 -3.39644C146.593 46.8797 145.078 106.225 118.995 153.536C118.644 154.12 118.297 154.707 117.954 155.295C89.2633 105.029 90.7715 45.697 116.839 -1.60881ZM117.783 -164.191C146.502 -113.915 145.001 -54.5603 118.925 -7.23955C118.569 -6.64584 118.217 -6.05006 117.868 -5.45224C88.8058 -56.3704 90.7313 -116.591 117.783 -164.191ZM-21.2985 74.9953C-50.3615 24.0765 -48.4357 -36.1452 -21.3837 -83.745C7.33563 -33.4695 5.83526 25.8846 -20.24 73.2053C-20.5968 73.7999 -20.9496 74.3965 -21.2985 74.9953ZM-21.2702 77.0514C-21.6188 77.6495 -21.9713 78.2455 -22.3277 78.8395C-48.3945 126.145 -49.9023 185.476 -21.2116 235.741C-20.8696 235.154 -20.5239 234.57 -20.1743 233.987C5.91087 186.676 7.42671 127.329 -21.2702 77.0514ZM-79.8386 135.324C-101.251 147.701 -124.324 154.607 -147.438 156.475C-100.451 160.295 -55.8516 184.614 -27.5979 225.698C-49.0978 180.714 -47.9147 129.933 -27.7798 87.3109C-40.933 106.405 -58.4302 122.948 -79.8386 135.324ZM-157.538 156.971C-158.214 156.983 -158.891 156.991 -159.567 156.994C-130.322 206.953 -78.1388 235.258 -24.124 236.267C-23.4434 236.255 -22.763 236.247 -22.0829 236.244C-51.3306 186.281 -103.519 157.976 -157.538 156.971ZM-161.358 156.993C-162.026 156.989 -162.694 156.981 -163.362 156.969C-189.649 157.437 -216.188 164.392 -240.563 178.482C-265.743 193.037 -285.478 213.395 -299.056 236.889C-269.874 287.189 -217.511 315.699 -163.301 316.715C-162.615 316.702 -161.929 316.694 -161.243 316.691C-190.484 265.468 -188.557 204.886 -161.358 156.993ZM-241.063 177.616C-219.651 165.238 -196.578 158.332 -173.464 156.465C-224.18 152.341 -272.114 124.337 -299.715 77.1451C-326.769 124.745 -328.695 184.969 -299.632 235.889C-285.979 212.459 -266.222 192.159 -241.063 177.616ZM-299.141 76.1437C-269.955 126.45 -217.581 154.96 -163.364 155.969C-162.685 155.957 -162.007 155.949 -161.328 155.945C-190.579 104.705 -188.641 44.1008 -161.415 -3.79952C-188.364 -3.6623 -215.645 3.28377 -240.648 17.7367C-265.827 32.2921 -285.563 52.6498 -299.141 76.1437ZM-101.481 -62.711C-126.483 -48.2579 -146.118 -28.0839 -159.686 -4.79916C-108.328 -4.50736 -58.3706 20.3343 -27.6874 64.9466C-51.0337 16.0927 -47.6277 -39.5967 -22.2487 -84.2472C-49.1976 -84.1099 -76.4783 -77.1638 -101.481 -62.711ZM256.084 -245.141C229.135 -245.003 201.855 -238.057 176.853 -223.604C151.85 -209.151 132.216 -188.978 118.647 -165.693C170.005 -165.401 219.962 -140.56 250.645 -95.9485C227.3 -144.802 230.706 -200.491 256.084 -245.141ZM263.453 -73.7921C284.95 -28.8064 283.763 21.975 263.625 64.5963C276.779 45.4984 294.279 28.9512 315.691 16.5737C337.1 4.19772 360.17 -2.70804 383.281 -4.57644C336.299 -8.39871 291.705 -32.7143 263.453 -73.7921ZM397.187 -4.04686C397.874 -4.05038 398.561 -4.05826 399.248 -4.07055C453.255 -3.05553 505.429 25.2489 534.671 75.2017C534.001 75.2051 533.33 75.2127 532.659 75.2245C478.634 74.2257 426.438 45.92 397.187 -4.04686ZM393.356 -4.07289C394.036 -4.06021 394.715 -4.05176 395.395 -4.04768C395.062 -3.46161 394.733 -2.87368 394.408 -2.28385C380.884 20.2553 361.615 39.7766 337.246 53.8633C312.877 67.9499 286.344 74.9053 260.064 75.3759C259.39 75.3634 258.715 75.3551 258.041 75.351C258.105 75.2392 258.168 75.1272 258.231 75.0153C258.325 74.8491 258.419 74.6827 258.512 74.5163C258.682 74.2116 258.852 73.9064 259.021 73.6007C272.545 51.0556 291.817 31.5291 316.191 17.4394C340.555 3.35597 367.081 -3.59955 393.356 -4.07289ZM409.322 -4.56732C432.433 -6.43572 455.503 -13.3415 476.912 -25.7174C498.325 -38.0954 515.825 -54.6435 528.979 -73.7422C508.84 -31.1182 507.654 19.6669 529.155 64.6549C500.903 23.5731 456.306 -0.744851 409.322 -4.56732ZM533.588 -82.753C520.063 -60.2043 500.789 -40.6746 476.412 -26.5832C452.049 -12.4997 425.522 -5.54421 399.247 -5.07089C398.976 -5.07597 398.705 -5.08033 398.435 -5.084C398.285 -5.08606 398.136 -5.08787 397.987 -5.08949C397.831 -5.0912 397.675 -5.09266 397.518 -5.0939C397.415 -5.09475 397.312 -5.09546 397.208 -5.09608C397.541 -5.68216 397.87 -6.27008 398.195 -6.85991C411.719 -29.399 430.989 -48.9203 455.357 -63.007C480.36 -77.46 507.641 -84.4061 534.59 -84.5432C534.521 -84.4219 534.452 -84.3006 534.384 -84.1791C534.274 -83.9847 534.165 -83.7901 534.056 -83.5953C533.998 -83.4928 533.941 -83.3902 533.884 -83.2875C533.785 -83.1096 533.686 -82.9314 533.588 -82.753ZM536.374 -85.5425C536.703 -86.1216 537.028 -86.7026 537.35 -87.2854C550.874 -109.834 570.148 -129.364 594.525 -143.455C619.705 -158.011 647.196 -164.952 674.332 -164.993C703.727 -113.956 701.885 -53.4676 674.733 -5.69442C644.943 -56.6278 591.468 -85.2105 536.374 -85.5425ZM534.453 -82.2515C534.8 -82.8296 535.143 -83.4097 535.482 -83.9917C564.187 -33.6995 562.662 25.6684 536.554 72.986C536.37 73.2931 536.187 73.6007 536.005 73.9088C535.929 74.0376 535.853 74.1664 535.778 74.2954L535.655 74.5049L535.542 74.6987C506.842 24.4163 508.36 -34.9382 534.453 -82.2515ZM541.958 -96.2963C563.696 -142.304 563.352 -197.819 536.231 -245.29C590.983 -244.978 644.132 -216.591 673.753 -165.991C646.635 -165.854 619.183 -158.864 594.025 -144.321C572.612 -131.943 555.112 -115.395 541.958 -96.2963ZM37.6855 -143.157C62.6879 -157.61 89.9689 -164.556 116.918 -164.694C91.5396 -120.044 88.1336 -64.3554 111.479 -15.5021C80.7955 -60.1138 30.8382 -84.9551 -20.5194 -85.2468C-6.951 -108.531 12.6833 -128.705 37.6855 -143.157ZM124.461 145.04C144.597 102.42 145.783 51.6392 124.287 6.65439C152.54 47.7333 197.136 72.049 244.119 75.8703C221.006 77.7382 197.935 84.6441 176.524 97.0208C155.113 109.398 137.614 125.944 124.461 145.04ZM260.063 76.3763C259.381 76.3884 258.7 76.3962 258.019 76.3997C287.269 126.366 339.463 154.672 393.487 155.672C394.16 155.66 394.832 155.652 395.504 155.649C366.259 105.691 314.077 77.3855 260.063 76.3763ZM256.229 76.3988C255.555 76.3947 254.881 76.3864 254.207 76.3739C227.926 76.8444 201.393 83.7999 177.024 97.8866C152.655 111.974 133.385 131.495 119.861 154.035L119.741 154.253L119.596 154.515C119.549 154.599 119.502 154.683 119.456 154.766C119.263 155.111 119.07 155.454 118.875 155.797C119.556 155.801 120.237 155.81 120.917 155.823C147.191 155.349 173.717 148.393 198.079 134.31C222.453 120.221 241.725 100.694 255.249 78.1495C255.572 77.5641 255.899 76.9805 256.229 76.3988ZM337.746 54.729C316.336 67.1058 293.264 74.0116 270.152 75.8795C317.135 79.7009 361.73 104.017 389.984 145.095C368.487 100.111 369.673 49.3306 389.81 6.70989C376.656 25.8063 359.157 42.3523 337.746 54.729ZM397.066 -164.842C424.185 -117.373 424.53 -61.8598 402.794 -15.8535C415.947 -34.9499 433.446 -51.496 454.857 -63.8727C480.016 -78.4161 507.467 -85.4055 534.585 -85.5433C504.965 -136.142 451.816 -164.53 397.066 -164.842ZM396.315 -3.54398C395.972 -2.9554 395.625 -2.36878 395.275 -1.78417C369.192 45.5258 367.678 104.871 396.374 155.146C396.712 154.565 397.055 153.986 397.401 153.408C423.495 106.095 425.015 46.7393 396.315 -3.54398ZM-14.8812 87.1004C6.6163 132.086 5.43074 182.867 -14.7065 225.488C-1.55272 206.391 15.9464 189.844 37.3579 177.467C58.767 165.091 81.8365 158.186 104.948 156.317C57.9656 152.495 13.3714 128.179 -14.8812 87.1004ZM118.851 156.847C119.54 156.843 120.228 156.835 120.917 156.823C174.924 157.839 227.097 186.143 256.339 236.096C255.663 236.099 254.986 236.107 254.31 236.119C200.29 235.115 148.1 206.81 118.851 156.847ZM115.02 156.821C115.7 156.833 116.381 156.842 117.062 156.846C116.865 157.193 116.669 157.54 116.475 157.889C116.341 158.128 116.208 158.368 116.076 158.608C102.552 181.148 83.2824 200.67 58.913 214.757C34.5433 228.844 8.009 235.799 -18.2728 236.269C-18.9455 236.257 -19.6185 236.249 -20.2917 236.245C-19.9599 235.661 -19.632 235.074 -19.3077 234.487C-5.78368 211.945 13.4871 192.421 37.8583 178.333C62.2205 164.25 88.746 157.294 115.02 156.821ZM130.99 156.326C154.101 154.458 177.17 147.552 198.579 135.176C219.991 122.799 237.491 106.251 250.645 87.1536C230.507 129.775 229.321 180.556 250.818 225.542C222.565 184.464 177.971 160.149 130.99 156.326ZM256.116 78.6484C256.464 78.0682 256.808 77.486 257.149 76.9019C285.851 127.189 284.329 186.55 258.229 233.865C257.885 234.439 257.544 235.015 257.208 235.593C228.509 185.312 230.027 125.961 256.116 78.6484ZM117.982 157.35C117.64 157.937 117.293 158.523 116.943 159.107C90.8593 206.418 89.3442 265.764 118.041 316.04C118.094 315.948 118.148 315.857 118.201 315.765C118.283 315.626 118.365 315.486 118.447 315.347C118.652 315 118.858 314.653 119.065 314.307C145.162 266.993 146.683 207.635 117.982 157.35ZM59.4134 215.623C38.0025 227.999 14.9309 234.905 -8.18209 236.773C38.8012 240.594 83.397 264.91 111.651 305.989C90.154 261.004 91.3398 210.224 111.477 167.603C98.323 186.7 80.8243 203.246 59.4134 215.623ZM-18.2725 237.27C-18.9533 237.282 -19.634 237.29 -20.3145 237.293C8.93893 287.265 61.1415 315.571 115.171 316.566C115.304 316.563 115.437 316.561 115.569 316.559C115.717 316.557 115.864 316.555 116.011 316.553C116.398 316.548 116.785 316.545 117.172 316.543C87.926 266.584 35.7427 238.278 -18.2725 237.27ZM-22.1038 237.292C-22.7769 237.288 -23.4498 237.28 -24.1224 237.267C-50.4043 237.737 -76.9388 244.693 -101.309 258.78C-126.311 273.233 -145.946 293.407 -159.514 316.692C-158.819 316.696 -158.125 316.704 -157.43 316.717C-131.152 316.245 -104.621 309.29 -80.2541 295.204C-55.8827 281.116 -36.6118 261.592 -23.0878 239.05C-22.7636 238.462 -22.4356 237.876 -22.1038 237.292ZM-34.2137 236.764C-84.9291 232.639 -132.863 204.635 -160.463 157.443C-187.517 205.044 -189.443 265.268 -160.379 316.189C-146.725 292.758 -126.968 272.458 -101.809 257.914C-80.3982 245.538 -57.3267 238.632 -34.2137 236.764ZM-22.2214 239.55C-21.8721 238.968 -21.5266 238.384 -21.1849 237.797C7.5193 288.088 5.99491 347.453 -20.1102 394.77C-20.4521 395.34 -20.7904 395.913 -21.125 396.487C-49.8224 346.209 -48.3067 286.861 -22.2214 239.55ZM-147.347 317.221C-124.235 315.353 -101.164 308.447 -79.7536 296.07C-58.3421 283.693 -40.8429 267.146 -27.6891 248.049C-47.8281 290.674 -49.0123 341.46 -27.5094 386.448C-55.762 345.363 -100.361 321.043 -147.347 317.221ZM-159.481 317.741C-158.798 317.737 -158.114 317.729 -157.429 317.717C-103.418 318.729 -51.24 347.034 -21.9964 396.99C-22.6628 396.994 -23.3294 397.001 -23.9962 397.013C-78.0257 396.018 -130.228 367.712 -159.481 317.741ZM-163.301 317.715C-162.625 317.728 -161.948 317.736 -161.271 317.74C-188.479 365.648 -190.398 426.252 -161.129 477.485C-216.078 477.172 -269.414 448.58 -298.97 397.636C-285.392 374.141 -265.657 353.783 -240.477 339.227C-216.11 325.142 -189.579 318.187 -163.301 317.715ZM-173.383 317.211C-196.496 319.079 -219.567 325.985 -240.977 338.362C-266.136 352.905 -285.893 373.205 -299.546 396.635C-328.61 345.715 -326.684 285.491 -299.63 237.891C-272.03 285.081 -224.098 313.086 -173.383 317.211ZM402.876 144.897C423.017 102.271 424.202 51.4828 402.699 6.49321C430.953 47.581 475.555 71.9013 522.545 75.7212C499.43 77.5882 476.356 84.4942 454.943 96.8723C433.53 109.25 416.03 125.798 402.876 144.897ZM538.449 76.2272C537.779 76.239 537.109 76.2466 536.439 76.25C565.685 126.21 617.869 154.515 671.885 155.523C672.564 155.511 673.244 155.503 673.923 155.5C644.672 105.532 592.475 77.2256 538.449 76.2272ZM534.65 76.2492C533.986 76.2452 533.323 76.2371 532.66 76.2249C506.368 76.69 479.823 83.6454 455.443 97.7381C431.066 111.83 411.792 131.36 398.267 153.909C397.946 154.491 397.621 155.071 397.292 155.65C397.957 155.654 398.621 155.662 399.286 155.674C425.576 155.208 452.12 148.253 476.498 134.161C500.884 120.064 520.164 100.525 533.689 77.9658C533.75 77.8555 533.811 77.7452 533.872 77.635L534.002 77.4008C534.217 77.0161 534.432 76.6322 534.65 76.2492ZM616.166 54.5794C594.753 66.9576 571.679 73.8636 548.564 75.7305C599.281 79.8534 647.217 107.858 674.819 155.051C701.872 107.45 703.798 47.2272 674.734 -3.69255C661.081 19.7369 641.324 40.0364 616.166 54.5794ZM615.666 53.7136C640.685 39.2509 660.329 19.0595 673.899 -4.24503C646.932 -4.117 619.631 2.82853 594.611 17.2913C570.225 31.3881 550.945 50.9272 537.42 73.4867C537.328 73.6544 537.235 73.8219 537.142 73.9893L537.041 74.1703C536.953 74.3279 536.865 74.4853 536.776 74.6426C536.671 74.8295 536.565 75.0161 536.459 75.2026C536.832 75.2049 537.205 75.2084 537.577 75.2132C537.868 75.217 538.159 75.2215 538.449 75.2269C564.741 74.7618 591.287 67.8064 615.666 53.7136ZM813.986 74.6032C784.197 23.67 730.721 -4.91238 675.627 -5.24412C702.836 -53.1521 704.756 -113.757 675.486 -164.991C730.516 -164.677 783.927 -136.001 813.456 -84.918C842.985 -33.8345 841.178 26.7604 813.986 74.6032ZM263.539 86.9522C285.036 131.94 283.849 182.723 263.709 225.346C276.863 206.246 294.364 189.698 315.777 177.32C337.189 164.942 360.263 158.036 383.377 156.169C336.392 152.349 291.793 128.033 263.539 86.9522ZM397.27 156.697C397.943 156.694 398.615 156.686 399.288 156.675C453.312 157.674 505.506 185.98 534.757 235.947C534.068 235.95 533.38 235.958 532.691 235.971C478.684 234.954 426.512 206.65 397.27 156.697ZM393.489 156.672C394.153 156.684 394.817 156.693 395.482 156.697C395.153 157.275 394.828 157.856 394.507 158.438C380.982 180.987 361.708 200.517 337.331 214.608C312.957 228.698 286.417 235.653 260.131 236.121C259.463 236.109 258.795 236.101 258.126 236.097C258.453 235.522 258.775 234.945 259.095 234.367C272.619 211.813 291.896 192.279 316.277 178.185C340.655 164.094 367.198 157.138 393.489 156.672ZM409.397 156.178C432.512 154.311 455.586 147.405 476.998 135.027C498.413 122.648 515.914 106.098 529.069 86.9971C508.926 129.622 507.739 180.41 529.241 225.4C500.986 184.316 456.385 159.997 409.397 156.178ZM542.041 64.455C563.782 18.4472 563.439 -37.0702 536.319 -84.5426C591.069 -84.2298 644.217 -55.8431 673.837 -5.24504C646.72 -5.10695 619.269 1.88256 594.111 16.4256C572.696 28.8045 555.195 45.3542 542.041 64.455ZM534.555 78.4659C534.896 77.8967 535.234 77.3256 535.568 76.7526C564.258 127.018 562.751 186.348 536.684 233.654C536.328 234.248 535.975 234.844 535.626 235.443C506.922 185.15 508.448 125.783 534.555 78.4659ZM124.543 305.792C144.682 263.169 145.869 212.386 124.372 167.399C152.626 208.479 197.223 232.795 244.208 236.616C221.094 238.483 198.022 245.389 176.61 257.766C155.197 270.144 137.697 286.693 124.543 305.792ZM260.13 237.122C259.455 237.133 258.78 237.141 258.105 237.145C287.345 287.095 339.516 315.4 393.521 316.417C393.818 316.412 394.114 316.407 394.411 316.403C394.804 316.399 395.197 316.395 395.589 316.393C366.341 266.43 314.15 238.125 260.13 237.122ZM256.316 237.144C255.885 237.141 255.455 237.137 255.025 237.131C254.787 237.127 254.549 237.124 254.311 237.119C228.025 237.587 201.485 244.542 177.11 258.632C152.731 272.725 133.456 292.257 119.931 314.808C119.611 315.389 119.287 315.967 118.959 316.544C119.618 316.548 120.277 316.556 120.936 316.568C147.232 316.105 173.782 309.149 198.165 295.054C222.546 280.961 241.823 261.427 255.348 238.873C255.456 238.676 255.565 238.479 255.675 238.282C255.887 237.902 256.101 237.523 256.316 237.144ZM337.831 215.474C316.42 227.851 293.347 234.757 270.233 236.625C317.218 240.445 361.816 264.761 390.071 305.842C368.572 260.855 369.759 210.072 389.898 167.45C376.744 186.548 359.244 203.096 337.831 215.474ZM396.401 157.2C396.062 157.781 395.72 158.36 395.374 158.937C369.279 206.251 367.759 265.607 396.459 315.89C396.808 315.292 397.16 314.696 397.516 314.102C423.584 266.797 425.092 207.465 396.401 157.2ZM256.214 239.373C256.558 238.799 256.898 238.224 257.235 237.646C285.926 287.911 284.418 347.242 258.351 394.548C257.994 395.142 257.642 395.739 257.293 396.337C228.59 346.05 230.113 286.688 256.214 239.373ZM131.061 317.072C154.177 315.205 177.252 308.299 198.665 295.92C220.079 283.542 237.579 266.993 250.733 247.894C230.593 290.517 229.406 341.301 250.904 386.289C222.649 345.207 178.048 320.89 131.061 317.072ZM118.937 317.591C119.604 317.587 120.271 317.58 120.938 317.568C174.967 318.562 227.17 346.869 256.424 396.841C255.739 396.844 255.054 396.852 254.369 396.864C200.358 395.852 148.18 367.547 118.937 317.591ZM115.173 317.566C115.472 317.571 115.771 317.576 116.07 317.58C116.311 317.583 116.551 317.585 116.791 317.587C116.911 317.588 117.03 317.589 117.149 317.59C116.821 318.167 116.497 318.746 116.177 319.326C102.652 341.877 83.377 361.409 58.9979 375.502C34.615 389.597 8.06511 396.552 -18.2307 397.015C-18.8894 397.003 -19.5483 396.995 -20.2075 396.991C-19.8827 396.419 -19.5614 395.845 -19.2438 395.27C-5.7187 372.712 13.5598 353.175 37.9442 339.079C62.3271 324.985 88.8769 318.029 115.173 317.566ZM-14.7999 247.838C13.4554 288.925 58.0584 313.244 105.048 317.062C81.9323 318.929 58.8575 325.835 37.4438 338.214C16.0295 350.592 -1.47139 367.142 -14.6258 386.242C5.51668 343.617 6.70293 292.828 -14.7999 247.838ZM118.068 318.093C117.73 318.673 117.389 319.251 117.043 319.826C90.946 367.141 89.4248 426.499 118.126 476.784C118.317 476.456 118.51 476.128 118.704 475.801C118.862 475.534 119.021 475.267 119.181 475.001C145.251 427.694 146.76 368.361 118.068 318.093ZM59.4984 376.368C38.0845 388.746 15.0095 395.652 -8.10672 397.519C38.8827 401.338 83.4852 425.656 111.74 466.743C90.2388 421.753 91.4247 370.967 111.566 328.342C98.4115 347.441 80.9114 363.989 59.4984 376.368ZM-18.2303 398.016C-18.8964 398.027 -19.5624 398.035 -20.2282 398.038C9.01585 447.995 61.1949 476.3 115.207 477.311C115.89 477.299 116.573 477.291 117.255 477.287C88.0017 427.316 35.7993 399.01 -18.2303 398.016ZM-22.017 398.037C-22.6764 398.033 -23.3355 398.025 -23.9944 398.013C-50.2904 398.476 -76.8406 405.432 -101.224 419.527C-126.243 433.99 -145.888 454.181 -159.457 477.486C-132.49 477.358 -105.189 470.412 -80.1691 455.95C-55.7847 441.854 -36.5062 422.317 -22.9811 399.759C-22.6633 399.183 -22.342 398.609 -22.017 398.037ZM-34.1191 397.51C-84.8372 393.388 -132.774 365.383 -160.377 318.19C-187.43 365.791 -189.356 426.014 -160.292 476.933C-146.639 453.504 -126.882 433.204 -101.724 418.661C-80.3103 406.282 -57.2353 399.376 -34.1191 397.51ZM-22.115 400.26C-21.7729 399.689 -21.4343 399.116 -21.0996 398.542C7.59786 448.82 6.08185 508.168 -20.004 555.479C-20.3532 556.061 -20.6986 556.645 -21.0402 557.231C-49.744 506.941 -48.2197 447.576 -22.115 400.26ZM-159.395 478.486C-132.278 478.348 -104.827 471.358 -79.6686 456.815C-58.2543 444.436 -40.7534 427.887 -27.599 408.787C-49.3397 454.794 -48.9968 510.311 -21.8764 557.784C-76.6267 557.471 -129.775 529.084 -159.395 478.486ZM-161.185 478.485C-188.394 526.393 -190.314 586.997 -161.044 638.231C-216.074 637.917 -269.484 609.241 -299.014 558.158C-328.543 507.075 -326.736 446.48 -299.544 398.637C-269.755 449.571 -216.28 478.153 -161.185 478.485ZM542.136 225.183C562.271 182.561 563.454 131.781 541.955 86.7972C570.208 127.88 614.806 152.198 661.792 156.02C638.678 157.887 615.606 164.793 594.195 177.17C572.786 189.546 555.289 206.089 542.136 225.183ZM675.713 155.501C676.385 155.505 677.057 155.513 677.729 155.525C704.012 155.056 730.548 148.101 754.919 134.013C780.099 119.457 799.834 99.099 813.412 75.6047C783.856 24.6609 730.52 -3.93113 675.571 -4.24435C704.84 46.9889 702.921 107.593 675.713 155.501ZM755.419 134.878C734.008 147.256 710.936 154.161 687.822 156.029C738.538 160.154 786.472 188.159 814.072 235.351C841.126 187.75 843.053 127.526 813.988 76.6052C800.335 100.035 780.578 120.335 755.419 134.878ZM677.731 156.526C677.446 156.531 677.161 156.535 676.876 156.539C676.479 156.544 676.082 156.547 675.685 156.549C704.925 207.773 702.999 268.354 675.799 316.247C676.472 316.251 677.145 316.259 677.818 316.272C704.1 315.802 730.635 308.846 755.005 294.759C780.184 280.204 799.92 259.846 813.498 236.352C784.314 186.048 731.945 157.538 677.731 156.526ZM673.957 156.548C673.266 156.545 672.576 156.536 671.885 156.523C645.602 156.993 619.066 163.948 594.695 178.036C570.337 192.117 551.073 211.628 537.55 234.155C537.22 234.754 536.885 235.352 536.547 235.948C537.228 235.952 537.909 235.96 538.589 235.973C564.863 235.499 591.389 228.544 615.751 214.461C640.754 200.008 660.388 179.833 673.957 156.548ZM402.792 167.252C424.287 212.234 423.102 263.011 402.969 305.631C416.122 286.537 433.619 269.993 455.028 257.617C476.437 245.241 499.507 238.336 522.619 236.467C475.637 232.645 431.044 208.329 402.792 167.252ZM536.525 236.997C537.213 236.994 537.901 236.986 538.589 236.973C592.595 237.99 644.767 266.294 674.008 316.246C673.328 316.249 672.647 316.257 671.966 316.269C617.952 315.26 565.77 286.955 536.525 236.997ZM532.69 236.971C533.37 236.984 534.051 236.992 534.733 236.996C534.395 237.592 534.06 238.189 533.73 238.788C520.207 261.315 500.943 280.826 476.585 294.907C452.223 308.99 425.698 315.945 399.425 316.419C399.036 316.412 398.648 316.406 398.259 316.402C397.966 316.398 397.673 316.396 397.38 316.394C397.718 315.799 398.052 315.202 398.382 314.603C411.905 292.076 431.169 272.564 455.528 258.483C479.89 244.4 506.416 237.445 532.69 236.971ZM548.661 236.477C571.772 234.608 594.842 227.702 616.251 215.327C641.41 200.783 661.167 180.483 674.821 157.053C703.884 207.973 701.958 268.196 674.904 315.797C647.305 268.607 599.374 240.603 548.661 236.477ZM263.803 386.077C283.936 343.458 285.121 292.681 263.626 247.699C291.878 288.776 336.471 313.091 383.452 316.914C360.341 318.782 337.271 325.688 315.862 338.064C294.453 350.439 276.956 366.983 263.803 386.077ZM399.425 317.42C398.736 317.432 398.046 317.44 397.357 317.444C426.602 367.402 478.785 395.707 532.799 396.716C533.481 396.704 534.162 396.696 534.843 396.693C505.602 346.742 453.431 318.437 399.425 317.42ZM395.566 317.443C394.884 317.439 394.202 317.43 393.521 317.417C367.248 317.892 340.723 324.847 316.362 338.93C292.004 353.01 272.74 372.521 259.217 395.048C258.887 395.648 258.552 396.246 258.214 396.842C258.89 396.846 259.566 396.854 260.242 396.867C286.521 396.395 313.051 389.44 337.418 375.354C361.776 361.273 381.04 341.763 394.563 319.235C394.893 318.636 395.228 318.038 395.566 317.443ZM477.085 295.773C455.676 308.149 432.606 315.055 409.495 316.923C456.476 320.746 501.069 345.061 529.321 386.138C507.826 341.156 509.011 290.379 529.144 247.76C515.991 266.854 498.494 283.397 477.085 295.773ZM535.654 237.5C535.306 238.097 534.954 238.693 534.597 239.287C508.53 286.593 507.021 345.924 535.712 396.19C535.783 396.068 535.854 395.946 535.925 395.825L536.044 395.622L536.104 395.521C536.171 395.407 536.238 395.293 536.305 395.18C536.459 394.921 536.613 394.663 536.768 394.404C562.836 347.099 564.345 287.766 535.654 237.5ZM124.459 328.146C145.954 373.128 144.77 423.906 124.635 466.525C137.789 447.431 155.286 430.887 176.695 418.511C198.105 406.135 221.176 399.229 244.288 397.361C197.306 393.539 152.711 369.224 124.459 328.146ZM258.191 397.891C258.875 397.887 259.559 397.879 260.243 397.867C314.254 398.879 366.432 427.184 395.675 477.139C395.388 477.141 395.101 477.143 394.813 477.146C394.413 477.15 394.012 477.156 393.611 477.163C339.604 476.147 287.432 447.842 258.191 397.891ZM254.368 397.865C255.045 397.877 255.722 397.886 256.4 397.89C256.2 398.242 256.001 398.594 255.804 398.948C255.734 399.074 255.664 399.2 255.594 399.326L255.513 399.471L255.396 399.683C241.873 422.21 222.61 441.72 198.252 455.801C173.885 469.886 147.354 476.842 121.075 477.313C120.687 477.306 120.299 477.3 119.911 477.296C119.623 477.292 119.335 477.29 119.047 477.288C119.385 476.694 119.718 476.098 120.048 475.5C133.571 452.971 152.835 433.459 177.195 419.377C201.561 405.292 228.09 398.337 254.368 397.865ZM270.325 397.37C293.437 395.502 316.508 388.597 337.918 376.22C359.327 363.845 376.824 347.301 389.977 328.207C369.843 370.827 368.659 421.604 390.155 466.587C361.902 425.508 317.307 401.192 270.325 397.37ZM395.43 319.734C395.786 319.14 396.139 318.544 396.487 317.947C425.182 368.22 423.669 427.563 397.589 474.872C397.502 475.018 397.414 475.164 397.327 475.311C397.184 475.551 397.041 475.792 396.899 476.033L396.812 476.181C396.723 476.333 396.634 476.485 396.545 476.638C367.854 426.372 369.362 367.04 395.43 319.734ZM-14.5358 546.979C5.60325 504.354 6.78749 453.568 -14.7154 408.58C13.5373 449.666 58.1362 473.985 105.123 477.808C82.0104 479.675 58.9393 486.581 37.5287 498.958C16.1172 511.335 -1.38195 527.882 -14.5358 546.979ZM121.073 478.314C120.39 478.326 119.707 478.333 119.024 478.337C148.267 528.293 200.446 556.598 254.458 557.61C255.142 557.598 255.826 557.59 256.509 557.587C227.265 507.63 175.086 479.325 121.073 478.314ZM117.233 478.336C116.558 478.332 115.882 478.324 115.207 478.311C88.9279 478.782 62.3965 485.738 38.0292 499.824C13.6576 513.912 -5.61338 533.436 -19.1375 555.979C-19.4705 556.582 -19.8075 557.184 -20.1485 557.784C6.80089 557.647 34.0821 550.701 59.0848 536.248C83.4449 522.166 102.709 502.654 116.232 480.125C116.562 479.527 116.896 478.93 117.233 478.336ZM198.752 456.666C177.342 469.043 154.271 475.949 131.158 477.817C178.141 481.639 222.736 505.955 250.989 547.034C229.493 502.051 230.677 451.273 250.811 408.653C237.658 427.747 220.161 444.291 198.752 456.666ZM257.321 398.393C256.972 398.992 256.62 399.588 256.263 400.182C230.196 447.488 228.689 506.819 257.379 557.084C257.725 556.491 258.075 555.899 258.429 555.31C284.503 508.002 286.015 448.664 257.321 398.393ZM-160.291 478.935C-187.443 526.708 -189.285 587.196 -159.89 638.233C-132.754 638.193 -105.263 631.251 -80.0831 616.695C-55.7119 602.607 -36.4411 583.083 -22.9171 560.541C-22.5928 559.954 -22.2649 559.367 -21.9331 558.783C-77.0269 558.451 -130.502 529.868 -160.291 478.935ZM-20.1426 558.784C9.47713 609.383 62.6253 637.77 117.375 638.083C90.2573 590.616 89.9111 535.105 111.645 489.1C98.4914 508.194 80.9941 524.738 59.5853 537.114C34.4265 551.657 6.975 558.646 -20.1426 558.784ZM117.1 480.624C117.455 480.032 117.806 479.438 118.154 478.841C146.85 529.119 145.335 588.466 119.25 635.776C118.9 636.359 118.554 636.944 118.212 637.531C89.5203 587.264 91.0295 527.93 117.1 480.624ZM-21.0102 559.281C-21.3531 559.87 -21.6998 560.457 -22.0504 561.041C-48.2319 608.526 -49.6625 668.137 -20.6359 718.533C6.49939 718.492 33.99 711.55 59.1698 696.994C83.5409 682.906 102.812 663.383 116.336 640.841C116.66 640.253 116.988 639.667 117.32 639.083C62.243 638.75 8.78416 610.185 -21.0102 559.281ZM-21.7901 718.53C-48.91 671.061 -49.255 615.546 -27.5183 569.54C-40.6721 588.637 -58.1712 605.184 -79.5827 617.561C-104.741 632.104 -132.193 639.094 -159.31 639.232C-129.69 689.831 -76.5412 718.218 -21.7901 718.53ZM542.041 247.544C563.54 292.529 562.356 343.309 542.221 385.93C555.375 366.836 572.872 350.292 594.281 337.917C615.692 325.54 638.764 318.634 661.877 316.766C614.892 312.944 570.294 288.627 542.041 247.544ZM675.77 317.295C676.039 317.294 676.308 317.292 676.576 317.289C676.99 317.285 677.405 317.279 677.819 317.272C732.032 318.285 784.399 346.794 813.582 397.096C800.004 420.59 780.269 440.948 755.089 455.504C730.086 469.957 702.805 476.903 675.856 477.04C703.082 429.14 705.02 368.536 675.77 317.295ZM671.966 317.27C672.658 317.283 673.35 317.291 674.042 317.295C660.474 340.579 640.839 360.753 615.837 375.206C591.467 389.293 564.933 396.248 538.651 396.719C537.979 396.706 537.306 396.698 536.633 396.694C536.97 396.1 537.304 395.504 537.633 394.906C551.156 372.377 570.421 352.864 594.781 338.782C619.151 324.695 645.685 317.74 671.966 317.27ZM687.909 316.775C711.022 314.908 734.094 308.002 755.505 295.625C780.664 281.082 800.42 260.782 814.074 237.352C843.136 288.272 841.21 348.495 814.156 396.094C786.556 348.904 738.623 320.9 687.909 316.775ZM616.337 376.072C594.926 388.448 571.855 395.354 548.742 397.222C599.456 401.347 647.389 429.35 674.99 476.541C702.043 428.941 703.969 368.718 674.906 317.799C661.253 341.229 641.496 361.528 616.337 376.072ZM538.651 397.719C537.97 397.731 537.29 397.739 536.609 397.742C566.228 448.339 619.375 476.725 674.123 477.039C644.883 427.051 592.684 398.728 538.651 397.719ZM534.819 397.741C534.146 397.737 533.473 397.729 532.801 397.717C506.519 398.187 479.985 405.142 455.615 419.229C431.247 433.315 411.979 452.835 398.455 475.373C398.129 475.964 397.8 476.553 397.466 477.14C397.76 477.142 398.054 477.145 398.348 477.148C398.735 477.152 399.121 477.158 399.507 477.165C425.781 476.692 452.308 469.736 476.671 455.653C501.031 441.571 520.295 422.059 533.819 399.53C533.999 399.202 534.181 398.876 534.363 398.549L534.435 398.422C534.496 398.314 534.557 398.206 534.617 398.098C534.685 397.979 534.752 397.86 534.819 397.741ZM522.71 397.213C475.726 393.392 431.13 369.075 402.876 327.996C424.374 372.98 423.189 423.761 403.052 466.382C416.206 447.286 433.704 430.74 455.115 418.363C476.526 405.987 499.597 399.081 522.71 397.213ZM263.711 408.443C285.207 453.427 284.023 504.206 263.887 546.826C277.041 527.731 294.539 511.186 315.949 498.81C337.358 486.434 360.428 479.528 383.539 477.66C336.557 473.837 291.963 449.521 263.711 408.443ZM397.442 478.189C398.131 478.186 398.819 478.178 399.508 478.166C453.533 479.182 505.721 507.505 534.957 557.487C480.209 557.173 427.062 528.787 397.442 478.189ZM393.61 478.163C394.291 478.176 394.972 478.185 395.653 478.189C395.319 478.776 394.989 479.366 394.663 479.958C381.139 502.495 361.871 522.014 337.504 536.1C313.137 550.185 286.606 557.141 260.327 557.612C259.652 557.6 258.976 557.592 258.3 557.587C258.635 556.997 258.967 556.404 259.295 555.81C272.818 533.276 292.085 513.76 316.449 499.676C340.811 485.593 367.337 478.637 393.61 478.163ZM409.581 477.669C432.692 475.801 455.762 468.895 477.171 456.519C498.58 444.143 516.077 427.599 529.231 408.505C509.097 451.123 507.912 501.898 529.405 546.879C501.152 505.805 456.56 481.491 409.581 477.669ZM534.685 400.03C535.041 399.437 535.392 398.842 535.74 398.245C564.802 449.164 562.877 509.385 535.825 556.984C507.105 506.707 508.607 447.351 534.685 400.03ZM395.692 480.185C395.638 480.276 395.584 480.366 395.53 480.456C369.442 527.78 367.935 587.146 396.659 637.431C423.71 589.831 425.635 529.611 396.573 478.693C396.358 479.061 396.142 479.428 395.925 479.795C395.848 479.925 395.77 480.055 395.692 480.185ZM338.004 536.966C316.594 549.342 293.523 556.248 270.411 558.116C317.393 561.938 361.988 586.253 390.242 627.332C368.745 582.348 369.93 531.568 390.067 488.947C376.913 508.043 359.415 524.589 338.004 536.966ZM260.329 558.613C259.645 558.625 258.96 558.633 258.277 558.636C287.896 609.232 341.042 637.619 395.79 637.933C366.551 587.948 314.357 559.625 260.329 558.613ZM256.487 558.635C255.811 558.631 255.134 558.623 254.459 558.61C228.18 559.082 201.649 566.037 177.282 580.123C152.911 594.211 133.64 613.735 120.116 636.276C119.783 636.881 119.446 637.483 119.104 638.083C146.054 637.946 173.335 631 198.338 616.547C222.702 602.463 241.969 582.947 255.492 560.413C255.82 559.819 256.151 559.226 256.487 558.635ZM244.375 558.107C197.39 554.285 152.793 529.967 124.54 488.884C146.04 533.871 144.855 584.655 124.717 627.278C137.871 608.181 155.37 591.634 176.782 579.257C198.192 566.881 221.263 559.975 244.375 558.107ZM119.109 639.084C148.73 689.682 201.878 718.068 256.629 718.381C229.511 670.913 229.165 615.401 250.9 569.396C237.746 588.492 220.248 605.037 198.838 617.413C173.679 631.956 146.227 638.946 119.109 639.084ZM256.359 560.913C256.712 560.324 257.062 559.733 257.407 559.14C286.469 610.057 284.544 670.278 257.493 717.877C228.771 667.596 230.275 608.235 256.359 560.913ZM118.242 639.582C117.899 640.17 117.553 640.756 117.202 641.34C91.0214 688.825 89.5905 748.435 118.616 798.83C145.751 798.789 173.243 791.847 198.423 777.291C223.425 762.839 243.059 742.665 256.628 719.381C201.532 719.068 148.047 690.501 118.242 639.582ZM117.462 798.827C90.3429 751.358 89.9982 695.845 111.735 649.839C98.5808 668.936 81.0817 685.483 59.6702 697.86C34.5119 712.403 7.0609 719.393 -20.0562 719.531C9.56392 770.128 62.7118 798.514 117.462 798.827ZM542.13 408.295C565.475 457.149 562.068 512.837 536.69 557.487C563.639 557.35 590.919 550.404 615.922 535.951C640.924 521.498 660.559 501.324 674.127 478.04C622.77 477.748 572.813 452.907 542.13 408.295ZM675.856 478.04C702.976 477.903 730.429 470.914 755.589 456.37C780.748 441.826 800.505 421.526 814.158 398.096C857.826 474.601 831.537 572.108 755.175 616.25C730.172 630.703 702.892 637.649 675.943 637.786C703.169 589.886 705.107 529.281 675.856 478.04ZM397.524 637.933C422.902 593.283 426.308 537.595 402.962 488.741C433.645 533.354 483.603 558.195 534.961 558.487C521.392 581.771 501.758 601.944 476.756 616.397C451.753 630.85 424.473 637.796 397.524 637.933ZM674.791 637.788C619.837 637.672 566.418 609.264 536.694 558.487C563.812 558.349 591.264 551.36 616.422 536.817C641.581 522.273 661.338 501.973 674.992 478.543C704.158 529.641 702.116 590.109 674.791 637.788ZM397.528 638.934C424.646 638.796 452.097 631.806 477.256 617.263C502.415 602.72 522.172 582.419 535.826 558.989C564.992 610.088 562.95 670.556 535.624 718.235C480.67 718.119 427.252 689.71 397.528 638.934ZM263.796 569.187C294.479 613.8 344.436 638.641 395.794 638.933C382.226 662.218 362.591 682.392 337.589 696.845C312.587 711.298 285.306 718.244 258.357 718.381C283.736 673.731 287.142 618.041 263.796 569.187ZM396.458 798.681C341.504 798.565 288.087 770.157 258.363 719.381C285.48 719.243 312.931 712.254 338.089 697.711C363.248 683.167 383.005 662.867 396.659 639.436C425.825 690.535 423.783 751.003 396.458 798.681ZM257.495 719.878C287.3 770.799 340.785 799.366 395.881 799.679C382.313 822.964 362.678 843.138 337.676 857.591C261.314 901.733 163.698 875.85 119.195 799.828C146.313 799.69 173.764 792.7 198.923 778.157C224.084 763.613 243.842 743.311 257.495 719.878ZM674.214 638.786C622.858 638.494 572.903 613.655 542.219 569.047C565.561 617.899 562.155 673.585 536.777 718.233C563.726 718.096 591.006 711.15 616.009 696.697C641.011 682.244 660.645 662.07 674.214 638.786ZM535.048 719.233C483.69 718.941 433.732 694.1 403.049 649.488C426.395 698.341 422.989 754.03 397.61 798.68C424.559 798.542 451.84 791.596 476.843 777.143C501.845 762.691 521.479 742.517 535.048 719.233Z" fill="#FDFDFD"/>
</svg>
