<svg width="178" height="125" viewBox="0 0 178 125" fill="none" xmlns="http://www.w3.org/2000/svg">
<g id="Property 1=lv">
<path id="path5" d="M112.71 1.65388C121.375 1.65388 130.041 1.65262 138.706 1.65514C138.711 3.59698 138.696 5.54008 138.714 7.48317C136.513 7.57876 134.262 7.824 132.235 8.74084C130.179 9.6602 128.455 11.3329 127.568 13.4043C117.031 38.0521 106.503 62.7024 95.9777 87.3552C95.7957 87.7602 95.6491 88.179 95.4368 88.5701C91.6681 88.5261 87.8982 88.5638 84.1295 88.55C82.4664 85.2612 80.8297 81.9585 79.1527 78.6773C77.2304 83.8035 75.2968 88.9248 73.3746 94.0498C85.8066 94.051 98.2386 94.0498 110.671 94.051C112.947 94.0812 115.291 93.9869 117.421 93.1015C120.959 91.6866 123.776 88.9524 126.069 85.9881C128.837 82.3962 130.937 78.3528 132.809 74.244C134.908 74.2264 137.006 74.2503 139.104 74.2465C135.125 82.7031 131.127 91.1521 127.113 99.5923C98.4649 99.5936 69.8182 99.5923 41.1703 99.5923C41.8679 97.78 42.5314 95.9526 43.2796 94.1592C43.3251 93.9743 43.5564 94.0208 43.6967 94.0032C47.2732 93.9768 50.8738 93.8385 54.3834 93.0977C56.2096 92.6714 58.099 92.1029 59.5043 90.805C60.2474 90.0994 60.4787 89.0694 60.7251 88.1186C64.1083 79.1087 67.4966 70.1 70.8823 61.0913C63.7267 45.9188 56.547 30.7551 49.3876 15.5838C48.8113 14.257 48.0505 12.9427 46.8536 12.0787C44.3766 10.2324 41.1577 9.99851 38.1751 9.88029C38.1726 7.70578 38.1751 5.53253 38.1738 3.35802C48.2324 3.35425 58.2898 3.3555 68.3484 3.35676C68.3497 5.53127 68.3509 7.70578 68.3471 9.88029C67.0366 9.9633 65.6451 9.94192 64.4584 10.5871C63.8695 10.8638 63.5232 11.5605 63.6749 12.1944C63.8606 13.232 64.6846 13.9727 65.1017 14.9097C69.3493 24.014 73.597 33.1195 77.8573 42.22C79.9918 36.28 82.1264 30.3413 84.2698 24.4051C84.5845 23.5801 84.6957 22.6268 84.3368 21.7967C84.055 21.1415 83.4155 20.7365 82.7848 20.4636C81.5589 19.9605 80.2117 19.9655 78.9125 19.8725C79.576 18.0375 80.2433 16.2026 80.9308 14.3777C81.0901 14.2758 81.3112 14.3538 81.4945 14.3287C91.6997 14.335 101.906 14.3287 112.113 14.3324C111.407 16.1762 110.706 18.0199 110.008 19.8662C107.55 19.9794 105.016 20.041 102.711 20.9968C101.655 21.437 100.655 22.1099 100.031 23.0833C99.5972 23.7964 99.328 24.5925 99.0373 25.3697C94.7733 36.9428 90.47 48.5008 86.254 60.0915C88.5895 65.3447 91.0236 70.5527 93.4058 75.7846C102.057 55.4557 110.705 35.1242 119.366 14.799C119.95 13.5766 120.9 12.461 120.974 11.055C121.046 9.95449 120.226 9.00495 119.276 8.55345C117.227 7.61271 114.925 7.56618 112.71 7.48695C112.708 5.54259 112.708 3.59823 112.71 1.65388Z" fill="#232323"/>
<path id="path7" d="M128.441 111.114C131.172 113.928 133.882 116.762 136.586 119.601C136.582 116.962 136.598 114.322 136.595 111.683C137.063 111.685 137.53 111.68 137.999 111.673C138 115.44 138 119.208 137.999 122.975C135.265 120.174 132.572 117.335 129.853 114.521C129.856 117.176 129.846 119.832 129.845 122.488C129.376 122.492 128.909 122.491 128.441 122.491C128.44 118.698 128.438 114.906 128.441 111.114Z" fill="#232323"/>
<path id="path9" d="M48.9368 111.501C51.9459 111.041 55.1294 113.385 55.3973 116.439C55.6501 118.186 54.9689 120.007 53.6836 121.21C51.5705 123.268 47.7703 123.23 45.7191 121.1C44.6108 120.031 43.9789 118.49 44.0459 116.952C44.0762 114.276 46.2992 111.885 48.9368 111.501ZM48.938 112.885C47.1864 113.169 45.7608 114.699 45.5157 116.434C45.182 118.405 46.4041 120.525 48.3162 121.169C49.9895 121.798 52.0255 121.205 53.0997 119.784C54.4887 118.05 54.2536 115.252 52.5449 113.812C51.5844 112.943 50.1955 112.656 48.938 112.885Z" fill="#232323"/>
<path id="path11" d="M70.6674 112.083C72.2093 110.931 74.728 111.408 75.6177 113.149C75.2462 113.357 74.8746 113.567 74.5031 113.776C73.8345 112.736 72.2055 112.482 71.3069 113.365C70.9265 113.642 70.9682 114.148 71.0086 114.565C71.1173 115.108 71.6987 115.338 72.1271 115.594C73.2317 116.172 74.5587 116.505 75.3346 117.554C76.2003 118.725 76.0575 120.468 75.1135 121.552C74.1264 122.741 72.3217 123.03 70.9417 122.408C69.8826 121.887 69.2279 120.786 69.0156 119.658C69.4896 119.546 69.966 119.443 70.4412 119.338C70.4892 120.366 71.2917 121.407 72.3837 121.425C73.8573 121.585 75.0288 119.678 74.1707 118.462C73.2544 117.221 71.4876 117.203 70.4336 116.131C69.1926 115.121 69.3177 112.944 70.6674 112.083Z" fill="#232323"/>
<path id="path13" d="M120.976 111.494C122.947 111.248 124.984 112.154 126.195 113.706C127.941 115.879 127.661 119.347 125.59 121.215C124.407 122.379 122.668 122.858 121.035 122.686C119.421 122.58 117.911 121.68 116.98 120.377C115.976 118.987 115.716 117.129 116.191 115.496C116.811 113.379 118.791 111.77 120.976 111.494ZM120.734 112.904C118.561 113.272 117.006 115.576 117.388 117.719C117.629 119.78 119.594 121.458 121.673 121.419C123.091 121.443 124.444 120.643 125.208 119.474C126.37 117.798 126.064 115.323 124.567 113.945C123.588 112.958 122.075 112.624 120.734 112.904Z" fill="#232323"/>
<path id="path15" d="M39.3047 111.676C39.7533 111.673 40.202 111.673 40.6506 111.676C40.6519 114.869 40.6494 118.064 40.6519 121.257C41.7666 121.259 42.88 121.257 43.9947 121.258C43.9972 121.668 43.9972 122.078 43.9959 122.489C42.4313 122.491 40.868 122.492 39.3047 122.489C39.306 118.885 39.306 115.28 39.3047 111.676Z" fill="#232323"/>
<path id="path17" d="M56.4851 111.685C56.9603 111.681 57.4355 111.682 57.9119 111.684C57.9157 113.812 57.9056 115.941 57.917 118.069C57.9385 119.004 58.0547 120.033 58.7195 120.754C59.7773 121.786 61.855 121.639 62.5931 120.301C62.9659 119.672 63.0746 118.928 63.0645 118.208C63.0556 116.034 63.0556 113.859 63.0569 111.684C63.5321 111.681 64.0073 111.682 64.4825 111.684C64.4825 113.903 64.4875 116.123 64.4812 118.343C64.4837 119.35 64.308 120.416 63.661 121.226C62.2695 123.143 59.0443 123.253 57.5202 121.441C56.796 120.686 56.4977 119.622 56.4876 118.598C56.4813 116.294 56.4864 113.989 56.4851 111.685Z" fill="#232323"/>
<path id="path19" d="M66.2376 111.677C66.7052 111.672 67.1741 111.674 67.6429 111.676C67.6429 115.281 67.6442 118.885 67.6417 122.491C67.1741 122.491 66.7052 122.492 66.2363 122.488C66.2389 118.885 66.2389 115.281 66.2376 111.677Z" fill="#232323"/>
<path id="path21" d="M80.3105 111.686C80.8249 111.672 81.3418 111.672 81.8574 111.675C82.9367 114.303 83.9996 116.938 85.0599 119.574C86.1177 116.947 87.2059 114.332 88.2396 111.696C88.7692 111.652 89.3 111.682 89.8308 111.675C88.2523 115.499 86.6675 119.321 85.0751 123.14C83.4549 119.335 81.8928 115.506 80.3105 111.686Z" fill="#232323"/>
<path id="path23" d="M90.4741 111.674C90.9417 111.68 91.4093 111.685 91.8782 111.684C91.8946 113.779 91.8757 115.875 91.8934 117.971C91.9262 118.966 92.0033 120.094 92.7667 120.831C93.6475 121.581 95.0503 121.628 95.9906 120.96C96.5378 120.573 96.8386 119.929 96.9574 119.288C97.1445 118.183 97.0775 117.06 97.0901 115.946C97.0977 114.526 97.099 113.106 97.0964 111.686C97.5464 111.681 97.9975 111.682 98.4487 111.684C98.4689 113.653 98.4525 115.621 98.4576 117.591C98.4892 118.812 98.45 120.138 97.7031 121.169C96.395 123.047 93.3847 123.249 91.7291 121.724C90.9013 120.961 90.4855 119.837 90.4792 118.728C90.4665 116.376 90.4766 114.025 90.4741 111.674Z" fill="#232323"/>
<path id="path25" d="M100.212 111.684C100.7 111.685 101.187 111.68 101.676 111.675C101.676 115.279 101.675 118.884 101.676 122.489C101.185 122.491 100.694 122.491 100.204 122.489C100.199 118.888 100.215 115.286 100.212 111.684Z" fill="#232323"/>
<path id="path27" d="M102.556 111.684C106.937 111.687 111.318 111.676 115.699 111.677C115.698 112.109 115.698 112.54 115.699 112.973C114.859 112.977 114.02 112.973 113.18 112.974C113.177 116.146 113.179 119.318 113.179 122.49C112.69 122.491 112.202 122.491 111.713 122.49C111.711 119.318 111.722 116.146 111.708 112.974C109.988 112.977 108.268 112.973 106.548 112.975C106.545 116.147 106.548 119.318 106.547 122.49C106.098 122.491 105.649 122.491 105.202 122.49C105.201 119.318 105.203 116.147 105.201 112.975C104.319 112.973 103.438 112.977 102.556 112.973C102.554 112.543 102.554 112.112 102.556 111.684Z" fill="#232323"/>
</g>
</svg>
