<svg width="156" height="109" viewBox="0 0 156 109" fill="none" xmlns="http://www.w3.org/2000/svg">
<path d="M98.78 1.44217C106.374 1.44217 113.969 1.44107 121.562 1.44327C121.567 3.13655 121.553 4.83093 121.57 6.52531C119.641 6.60866 117.668 6.82252 115.891 7.622C114.089 8.42368 112.579 9.88227 111.801 11.6885C102.567 33.1814 93.3395 54.6765 84.1154 76.1737C83.9559 76.5269 83.8274 76.892 83.6413 77.2331C80.3384 77.1947 77.0345 77.2276 73.7316 77.2156C72.274 74.3477 70.8396 71.4678 69.3698 68.6066C67.6852 73.0767 65.9905 77.5424 64.3059 82.0114C75.2014 82.0125 86.0969 82.0114 96.9924 82.0125C98.9871 82.0388 101.042 81.9565 102.908 81.1845C106.009 79.9507 108.478 77.5665 110.487 74.9816C112.913 71.8495 114.754 68.3236 116.394 64.7408C118.234 64.7254 120.073 64.7462 121.911 64.7429C118.424 72.1171 114.92 79.4846 111.402 86.8445C86.2951 86.8456 61.1891 86.8445 36.0819 86.8445C36.6933 85.2642 37.2748 83.6707 37.9305 82.1068C37.9704 81.9456 38.1731 81.9862 38.296 81.9708C41.4306 81.9478 44.5861 81.8271 47.6619 81.1812C49.2624 80.8094 50.9183 80.3137 52.1499 79.1819C52.8012 78.5667 53.0039 77.6685 53.2199 76.8394C56.1849 68.9827 59.1544 61.1272 62.1217 53.2716C55.8504 40.0412 49.5581 26.8184 43.2836 13.5891C42.7785 12.4321 42.1117 11.286 41.0628 10.5326C38.8919 8.92267 36.0709 8.71869 33.4569 8.6156C33.4547 6.71943 33.4569 4.82435 33.4558 2.92818C42.2712 2.92489 51.0855 2.92599 59.9009 2.92708C59.9021 4.82326 59.9032 6.71943 59.8998 8.6156C58.7512 8.68798 57.5318 8.66934 56.4917 9.23194C55.9756 9.47321 55.6721 10.0808 55.805 10.6335C55.9678 11.5383 56.69 12.1842 57.0555 13.0013C60.7782 20.9402 64.5008 28.8802 68.2345 36.8158C70.1053 31.6362 71.976 26.4576 73.8545 21.2812C74.1303 20.5618 74.2278 19.7305 73.9132 19.0067C73.6662 18.4353 73.1058 18.0822 72.5531 17.8442C71.4787 17.4055 70.298 17.4099 69.1594 17.3288C69.7409 15.7287 70.3257 14.1286 70.9282 12.5374C71.0678 12.4485 71.2616 12.5165 71.4222 12.4946C80.3661 12.5001 89.3111 12.4946 98.2561 12.4979C97.6381 14.1056 97.0234 15.7134 96.412 17.3233C94.2577 17.422 92.0369 17.4757 90.0167 18.3092C89.0907 18.6931 88.2146 19.2798 87.6674 20.1286C87.2875 20.7504 87.0516 21.4446 86.7969 22.1224C83.0598 32.2141 79.2884 42.2927 75.5935 52.3997C77.6403 56.9806 79.7736 61.522 81.8614 66.0842C89.4429 48.3573 97.0223 30.6283 104.613 12.9047C105.124 11.8388 105.957 10.866 106.023 9.6399C106.086 8.6803 105.367 7.85231 104.534 7.45859C102.739 6.63827 100.721 6.5977 98.78 6.5286C98.7778 4.83313 98.7778 3.13765 98.78 1.44217Z" fill="#636363"/>
<path d="M112.566 96.8911C114.96 99.3455 117.334 101.816 119.705 104.292C119.701 101.991 119.715 99.6888 119.712 97.3879C120.122 97.389 120.532 97.3846 120.943 97.3791C120.944 100.664 120.944 103.949 120.943 107.234C118.547 104.792 116.187 102.316 113.803 99.862C113.807 102.177 113.798 104.493 113.797 106.81C113.386 106.813 112.976 106.812 112.566 106.812C112.565 103.504 112.564 100.198 112.566 96.8911Z" fill="#636363"/>
<path d="M42.8883 97.2292C45.5255 96.8278 48.3156 98.872 48.5504 101.535C48.7719 103.058 48.1749 104.646 47.0485 105.696C45.1966 107.49 41.866 107.457 40.0684 105.599C39.097 104.667 38.5432 103.323 38.6019 101.982C38.6285 99.6485 40.5768 97.5637 42.8883 97.2292ZM42.8894 98.4355C41.3543 98.6834 40.1049 100.018 39.89 101.53C39.5976 103.249 40.6687 105.098 42.3445 105.659C43.811 106.208 45.5953 105.691 46.5368 104.452C47.754 102.94 47.548 100.499 46.0505 99.2438C45.2087 98.486 43.9915 98.2359 42.8894 98.4355Z" fill="#636363"/>
<path d="M61.9325 97.7369C63.2838 96.7323 65.4912 97.1479 66.271 98.6658C65.9453 98.8478 65.6197 99.031 65.2941 99.213C64.7082 98.3061 63.2805 98.0845 62.4929 98.8544C62.1596 99.0957 62.1961 99.5376 62.2316 99.9006C62.3268 100.374 62.8363 100.575 63.2118 100.798C64.1798 101.302 65.3428 101.593 66.0229 102.507C66.7816 103.528 66.6564 105.048 65.8291 105.994C64.964 107.03 63.3824 107.282 62.1729 106.74C61.2447 106.286 60.6709 105.326 60.4849 104.342C60.9002 104.245 61.3178 104.155 61.7342 104.063C61.7763 104.96 62.4797 105.867 63.4366 105.883C64.7281 106.022 65.7548 104.36 65.0028 103.299C64.1998 102.217 62.6513 102.201 61.7276 101.266C60.6399 100.385 60.7496 98.487 61.9325 97.7369Z" fill="#636363"/>
<path d="M106.023 97.2227C107.751 97.0089 109.536 97.7985 110.597 99.1518C112.127 101.047 111.882 104.07 110.067 105.7C109.03 106.715 107.506 107.132 106.075 106.982C104.661 106.89 103.337 106.105 102.521 104.969C101.641 103.757 101.413 102.137 101.829 100.712C102.373 98.8667 104.108 97.464 106.023 97.2227ZM105.811 98.4521C103.906 98.7734 102.544 100.783 102.878 102.651C103.09 104.449 104.812 105.912 106.634 105.878C107.877 105.899 109.062 105.201 109.732 104.181C110.75 102.72 110.482 100.562 109.171 99.3602C108.312 98.4993 106.986 98.2086 105.811 98.4521Z" fill="#636363"/>
<path d="M34.446 97.3815C34.8392 97.3793 35.2324 97.3793 35.6256 97.3815C35.6267 100.166 35.6245 102.952 35.6267 105.736C36.6037 105.738 37.5795 105.736 38.5564 105.737C38.5586 106.095 38.5586 106.452 38.5575 106.811C37.1863 106.812 35.8161 106.813 34.446 106.811C34.4472 103.668 34.4472 100.525 34.446 97.3815Z" fill="#636363"/>
<path d="M49.5038 97.3891C49.9203 97.3858 50.3367 97.3869 50.7543 97.388C50.7576 99.2436 50.7488 101.1 50.7587 102.956C50.7776 103.772 50.8795 104.669 51.4621 105.297C52.3891 106.198 54.21 106.069 54.8569 104.902C55.1836 104.354 55.2789 103.705 55.27 103.078C55.2622 101.181 55.2622 99.2853 55.2633 97.388C55.6798 97.3858 56.0963 97.3869 56.5127 97.388C56.5127 99.3236 56.5172 101.259 56.5116 103.195C56.5138 104.073 56.3599 105.002 55.7928 105.709C54.5733 107.381 51.7467 107.476 50.4109 105.896C49.7763 105.238 49.5149 104.31 49.506 103.418C49.5005 101.408 49.5049 99.3982 49.5038 97.3891Z" fill="#636363"/>
<path d="M58.0509 97.3824C58.4607 97.378 58.8716 97.3791 59.2826 97.3813C59.2826 100.524 59.2837 103.668 59.2815 106.812C58.8716 106.812 58.4607 106.813 58.0498 106.81C58.052 103.668 58.052 100.524 58.0509 97.3824Z" fill="#636363"/>
<path d="M70.3845 97.3901C70.8353 97.378 71.2883 97.378 71.7402 97.3802C72.6861 99.6723 73.6176 101.97 74.5469 104.268C75.474 101.978 76.4276 99.6975 77.3336 97.3988C77.7977 97.3605 78.2629 97.3868 78.7281 97.3802C77.3447 100.715 75.9558 104.048 74.5602 107.378C73.1402 104.06 71.7712 100.721 70.3845 97.3901Z" fill="#636363"/>
<path d="M79.2918 97.3794C79.7016 97.3849 80.1114 97.3893 80.5224 97.3882C80.5368 99.2153 80.5201 101.043 80.5356 102.871C80.5644 103.738 80.632 104.722 81.301 105.364C82.073 106.019 83.3024 106.06 84.1265 105.477C84.6061 105.14 84.8697 104.578 84.9738 104.019C85.1377 103.056 85.079 102.077 85.0901 101.105C85.0968 99.8667 85.0979 98.6285 85.0956 97.3904C85.49 97.386 85.8854 97.3871 86.2808 97.3882C86.2985 99.1056 86.2841 100.822 86.2885 102.539C86.3162 103.604 86.2819 104.76 85.6273 105.659C84.4809 107.297 81.8426 107.473 80.3917 106.143C79.6662 105.478 79.3018 104.498 79.2962 103.531C79.2852 101.48 79.294 99.4302 79.2918 97.3794Z" fill="#636363"/>
<path d="M87.8268 97.388C88.2544 97.3891 88.6819 97.3848 89.1105 97.3804C89.1105 100.523 89.1094 103.667 89.1105 106.811C88.6797 106.812 88.2499 106.812 87.8202 106.811C87.8158 103.67 87.8302 100.529 87.8268 97.388Z" fill="#636363"/>
<path d="M89.8792 97.3879C93.7193 97.3912 97.5583 97.3813 101.398 97.3824C101.397 97.7586 101.397 98.1347 101.398 98.512C100.662 98.5153 99.9263 98.512 99.1909 98.5131C99.1875 101.279 99.1898 104.045 99.1898 106.811C98.7611 106.812 98.3336 106.812 97.9049 106.811C97.9027 104.045 97.9127 101.279 97.9005 98.5131C96.3931 98.5153 94.8856 98.512 93.3782 98.5142C93.3759 101.28 93.3782 104.045 93.3771 106.811C92.9839 106.812 92.5907 106.812 92.1986 106.811C92.1975 104.045 92.1997 101.28 92.1975 98.5142C91.4244 98.512 90.6524 98.5153 89.8792 98.512C89.8781 98.1369 89.8781 97.7619 89.8792 97.3879Z" fill="#636363"/>
</svg>
