<svg width="156" height="109" viewBox="0 0 156 109" fill="none" xmlns="http://www.w3.org/2000/svg">
<g clip-path="url(#clip0_3231_1129)">
<path d="M14.5681 62.1521C15.5798 60.7367 16.1868 58.9168 16.1868 56.4904C16.1868 54.064 15.5798 52.2441 14.5681 50.8287C13.5564 49.4133 12.1401 48.8067 10.3191 48.8067C8.49805 48.8067 7.08171 49.4133 6.07004 50.8287C5.05837 52.2441 4.45136 54.064 4.45136 56.4904C4.45136 58.9168 5.05837 60.7367 6.07004 62.1521C7.08171 63.5675 8.49805 64.1741 10.3191 64.1741C12.1401 64.1741 13.5564 63.3653 14.5681 62.1521ZM17.4008 65.3873C15.7821 67.005 13.3541 68.016 10.3191 68.016C7.28405 68.016 4.85603 67.2072 3.23735 65.3873C1.01167 63.3653 0 60.3323 0 56.4904C0 52.4464 1.01167 49.6155 3.23735 47.5935C4.85603 45.9759 7.28405 44.9648 10.3191 44.9648C13.3541 44.9648 15.7821 45.7737 17.4008 47.5935C19.6265 49.6155 20.6381 52.6486 20.6381 56.4904C20.6381 60.3323 19.6265 63.3653 17.4008 65.3873Z" fill="#636363"/>
<path d="M30.3504 45.3691C30.5527 45.3691 30.9574 45.3691 31.1597 45.3691V48.8066C30.9574 48.8066 30.5527 48.8066 29.9457 48.8066C29.3387 48.8066 28.9341 49.0088 28.7317 49.211C28.5294 49.4132 28.3271 49.8176 28.3271 50.0198V51.4352H31.1597V54.4683H28.3271V67.4093H24.078V54.4683H22.0547V51.4352H24.2804V50.4242C24.2804 48.8066 24.4827 47.5934 25.0897 46.7846C25.6967 45.7735 27.1131 45.3691 29.5411 45.3691C29.9457 45.3691 30.1481 45.3691 30.3504 45.3691Z" fill="#636363"/>
<path d="M40.4669 45.3691C40.6692 45.3691 41.0739 45.3691 41.2762 45.3691V48.8066C41.0739 48.8066 40.6692 48.8066 40.0622 48.8066C39.4552 48.8066 39.0505 49.0088 38.8482 49.211C38.6459 49.4132 38.4435 49.8176 38.4435 50.0198V51.4352H41.2762V54.4683H38.4435V67.4093H34.1945V54.4683H32.1711V51.4352H34.3968V50.4242C34.3968 48.8066 34.5992 47.5934 35.2062 46.7846C35.8132 45.7735 37.2295 45.3691 39.6575 45.3691C39.8599 45.3691 40.2645 45.3691 40.4669 45.3691Z" fill="#636363"/>
<path d="M50.786 56.895H42.4902V60.9391H50.786V56.895Z" fill="#636363"/>
<path d="M57.0587 45.5718L59.8914 58.1084L60.4984 61.5458L61.1054 58.1084L63.7357 45.5718H68.3894L71.0198 58.1084L71.6268 61.5458L72.2338 58.1084L75.2688 45.5718H79.9225L73.6501 67.2075H69.4011L66.7707 54.6709L65.9614 50.4246L65.1521 54.6709L62.724 67.2075H58.475L52.2026 45.5718H57.0587Z" fill="#636363"/>
<path d="M93.6811 51.4351C94.4904 51.8395 95.0974 52.2439 95.7044 53.0527C96.1091 53.6594 96.3114 54.266 96.5138 54.8726C96.5138 55.4792 96.7161 56.4902 96.7161 57.9056V67.4091H92.4671V57.7034C92.4671 56.8946 92.2647 56.0858 92.0624 55.6814C91.6577 54.8726 91.0507 54.4682 89.8367 54.4682C88.8251 54.4682 87.8134 54.8726 87.4087 55.4792C86.8017 56.288 86.5994 57.299 86.5994 58.7144V67.4091H82.3503V45.7734H86.5994V53.4571C87.2064 52.4461 87.8134 51.8395 88.6227 51.4351C89.432 51.0307 90.2414 50.8285 91.0507 50.8285C92.0624 50.8285 92.8717 51.0307 93.6811 51.4351Z" fill="#636363"/>
<path d="M100.561 51.2335H104.81V67.2075H100.561V51.2335ZM104.81 49.4136H100.561V45.5718H104.81V49.4136Z" fill="#636363"/>
<path d="M107.237 54.4683V51.4353H109.463V46.9868H113.509V51.4353H116.14V54.4683H113.509V62.9608C113.509 63.5675 113.509 63.9719 113.712 64.1741C113.914 64.3763 114.319 64.3763 115.33 64.3763C115.533 64.3763 115.533 64.3763 115.735 64.3763C115.937 64.3763 115.937 64.3763 116.14 64.3763V67.4093H114.116C112.093 67.4093 110.879 67.2071 110.07 66.3983C109.665 65.9939 109.463 65.1851 109.463 64.1741V54.2661L107.237 54.4683Z" fill="#636363"/>
<path d="M123.222 55.2771C122.615 55.8837 122.21 56.6925 122.008 57.7035H129.292C129.292 56.6925 128.887 55.6815 128.078 55.0749C127.471 54.4683 126.662 54.2661 125.65 54.2661C124.638 54.2661 123.829 54.6705 123.222 55.2771ZM129.494 51.6374C130.708 52.0418 131.518 52.8506 132.327 54.0639C132.934 55.0749 133.339 56.0859 133.541 57.2991C133.743 58.1079 133.743 59.1189 133.743 60.5344H122.008C122.008 62.152 122.615 63.3652 123.627 63.9718C124.234 64.3762 125.043 64.5784 125.852 64.5784C126.864 64.5784 127.673 64.3762 128.078 63.7696C128.483 63.5674 128.685 63.163 128.887 62.7586H133.136C132.934 63.7696 132.529 64.5784 131.518 65.5894C130.101 67.207 128.078 68.0159 125.448 68.0159C123.222 68.0159 121.401 67.4092 119.782 65.9938C118.164 64.7806 117.354 62.5564 117.354 59.5233C117.354 56.6925 118.164 54.6705 119.58 53.0528C120.996 51.6374 123.02 50.8286 125.245 50.8286C127.066 50.8286 128.28 51.0308 129.494 51.6374Z" fill="#636363"/>
<path d="M143.051 40.1118V42.1338H139.611V51.8396H137.183V42.1338H133.541V40.1118H143.051Z" fill="#636363"/>
<path d="M152.358 40.1118H156V51.8396H153.572V43.9537C153.572 43.7515 153.572 43.3471 153.572 42.9427C153.572 42.5383 153.572 42.1338 153.572 41.9316L151.347 51.8396H148.919L146.693 41.9316C146.693 42.1338 146.693 42.5383 146.693 42.9427C146.693 43.3471 146.693 43.7515 146.693 43.9537V51.8396H144.467V40.1118H148.109L150.335 49.4131L152.358 40.1118Z" fill="#636363"/>
</g>
<defs>
<clipPath id="clip0_3231_1129">
<rect width="156" height="109" fill="white"/>
</clipPath>
</defs>
</svg>
