<svg width="178" height="125" viewBox="0 0 178 125" fill="none" xmlns="http://www.w3.org/2000/svg">
<g id="Property 1=prada">
<path id="Vector" d="M3.23099 76.9976H0.732098C0.523597 76.9976 0.00195312 76.9976 0.00195312 76.681C0.00195312 76.4712 0.106594 76.3643 0.418956 76.2582C2.71247 75.5181 3.23021 74.2515 3.23021 72.4584V53.544C3.23021 51.853 2.70857 50.5856 0.418956 49.7441C0.106594 49.7441 0.00195312 49.5328 0.00195312 49.4275C0.00195312 49.0055 0.523597 49.1108 0.732098 49.1108H21.3644C26.0537 49.1108 29.9106 52.9107 29.9106 57.6676C29.9106 62.4245 26.0537 66.2196 21.3644 66.2196H10.9432V72.6642C11.0478 74.3544 11.5679 75.5141 13.7545 76.2559C14.0668 76.3619 14.1707 76.468 14.1707 76.6786C14.1707 76.9952 13.6498 76.9952 13.4413 76.9952H3.23099V76.9976ZM157.053 66.75H161.951L157.053 58.2977L156.531 57.4522L152.158 66.75H157.053ZM157.053 49.0024H160.389L174.352 73.9388C174.77 74.5721 175.289 75.2054 175.914 75.522C176.435 75.9455 177.059 76.0524 177.58 76.2622C177.79 76.3691 177.997 76.4751 177.997 76.6857C177.997 77.0024 177.476 77.0024 177.267 77.0024H164.866C164.659 77.0024 164.032 77.0024 164.032 76.6857C164.032 76.4751 164.241 76.3691 164.451 76.2622C165.076 76.0524 165.491 75.735 165.7 75.1017C165.91 74.3607 165.7 73.9403 165.18 72.9872C164.472 71.4625 163.743 69.9484 162.993 68.4448H151.321L151.218 68.6554C151.112 69.0789 150.281 70.5553 149.656 72.1425C148.823 73.8327 148.51 74.2546 148.719 75.1001C148.824 75.7334 149.344 76.05 149.968 76.2614C150.178 76.3683 150.281 76.4744 150.281 76.6841C150.281 77.0008 149.758 77.0008 149.551 77.0008H143.818C143.61 77.0008 143.088 77.0008 143.088 76.6841C143.088 76.4744 143.193 76.3675 143.505 76.2614C144.027 76.0508 144.65 75.9448 145.172 75.5212C145.797 75.2046 146.319 74.5713 146.734 73.938L147.464 72.3547L155.385 55.5515L154.237 53.544C153.197 51.853 152.153 50.797 151.007 50.1629C150.486 49.8463 149.964 49.8463 149.445 49.6349C149.133 49.5288 149.027 49.4227 149.133 49.2114C149.133 49 149.34 49.1061 149.445 49H157.054L157.053 49.0024ZM125.895 76.8908H126.312C145.489 76.8908 145.281 49.1045 126.312 49.1045H110.576C110.264 49.1045 109.744 48.9984 109.744 49.4211C109.744 49.5264 109.952 49.7378 110.159 49.7378C112.452 50.4772 112.971 51.7454 113.077 53.331V72.6698C112.974 74.3591 112.452 75.5196 110.159 76.2606C109.952 76.3675 109.744 76.4736 109.744 76.6841C109.744 77.0008 110.265 77.0008 110.576 77.0008H120.685V76.8939H125.895V76.8908ZM125.895 51.1137C127.303 51.1193 128.652 51.6887 129.648 52.6978C130.644 53.7069 131.206 55.0741 131.213 56.5015V69.3908C131.207 70.8183 130.644 72.1856 129.648 73.1948C128.653 74.204 127.304 74.7733 125.895 74.7787H120.681V51.1137H125.895ZM86.1872 66.75H91.085L86.1872 58.2977L85.6656 57.4522L81.2925 66.75H86.1872ZM86.1872 49.0024H89.6232L103.588 73.9388C103.9 74.5721 104.422 75.2054 105.048 75.522C105.568 75.9455 106.195 76.0524 106.819 76.2622C107.027 76.3691 107.235 76.4751 107.235 76.6857C107.235 77.0024 106.61 77.0024 106.402 77.0024H94.0056C93.7963 77.0024 93.2755 77.0024 93.2755 76.6857C93.2755 76.4751 93.3785 76.3691 93.6909 76.2622C94.2133 76.0524 94.7326 75.735 94.838 75.1017C95.0458 74.3607 94.838 73.9403 94.421 72.9872C93.6909 71.404 92.8592 69.9236 92.1299 68.4448H80.4546L80.3507 68.6554C80.2469 69.0789 79.5167 70.5553 78.7889 72.1425C78.0595 73.8327 77.6433 74.2546 77.8518 75.1001C78.0603 75.7334 78.4765 76.05 79.1013 76.2614C79.309 76.3683 79.5175 76.4744 79.5175 76.6841C79.5175 77.0008 78.9966 77.0008 78.6851 77.0008H73.0555C72.847 77.0008 72.2215 77.0008 72.2215 76.6841C72.2215 76.4744 72.43 76.3675 72.6385 76.2614C73.2632 76.0508 73.7849 75.9448 74.4112 75.5212C74.9312 75.2046 75.5575 74.5713 75.8691 73.938L76.5985 72.3547L84.6238 55.5515L83.479 53.544C82.4373 51.853 81.2925 50.797 80.2484 50.1629C79.6237 49.8463 79.2059 49.8463 78.5804 49.6349C78.3711 49.5288 78.1626 49.4227 78.2681 49.2114C78.3735 49 78.5804 49.1061 78.6858 49H86.1888L86.1872 49.0024ZM51.7954 67.4901C54.1928 68.334 57.111 68.5446 59.403 67.8068L68.4708 75.731L69.2002 76.3643C69.24 76.4057 69.2702 76.4557 69.2884 76.5105C69.3067 76.5653 69.3125 76.6236 69.3056 76.681C69.3056 76.9976 68.784 76.9976 68.5747 76.9976H58.9875L51.797 70.9757L45.9597 66.2204V72.7719C46.0651 74.3552 46.6899 75.5181 48.8779 76.2551C49.0864 76.3619 49.1903 76.4672 49.1903 76.6778C49.1903 76.9945 48.6687 76.9945 48.4594 76.9945H35.8501C35.5378 76.9945 35.0161 76.9945 35.0161 76.6778C35.0161 76.4672 35.2254 76.3612 35.4323 76.2551C37.9312 75.4112 38.2436 74.143 38.3506 72.1386V53.8606C38.2459 51.9607 37.9336 50.5856 35.4323 49.7441C35.2238 49.7441 35.0161 49.5328 35.0161 49.4275C35.0161 49.0055 35.5378 49.1108 35.8501 49.1108H56.1724C57.2763 49.106 58.3703 49.3217 59.392 49.7456C60.4137 50.1694 61.343 50.7932 62.1269 51.5811C62.9108 52.3691 63.5339 53.3059 63.9606 54.3379C64.3873 55.37 64.6093 56.4772 64.6139 57.5963V57.6676C64.6218 59.9265 63.7447 62.0962 62.1752 63.6998C60.6058 65.3034 58.4725 66.2097 56.2442 66.2196H49.6065C49.9189 66.8529 50.6483 67.065 51.273 67.3825C51.4823 67.3825 51.5853 67.4901 51.7946 67.4901H51.7954ZM51.7954 64.2152H52.6333C55.3423 64.2152 57.6358 61.256 57.6358 57.4522C57.6311 53.7545 55.3384 50.797 52.6333 50.797H45.9589V64.2152H51.7954ZM16.8828 50.7978H10.9432V64.2159H17.8222C20.6334 64.2159 22.82 61.2568 22.82 57.453C22.82 53.7561 20.6334 50.7978 17.8222 50.7978H16.8828Z" fill="#232323"/>
</g>
</svg>
