<svg width="156" height="109" viewBox="0 0 156 109" fill="none" xmlns="http://www.w3.org/2000/svg">
<path d="M151.034 53.4036C150.8 53.4036 150.592 53.5885 150.592 53.8528C150.592 54.0906 150.8 54.302 151.034 54.302C151.268 54.302 151.476 54.117 151.476 53.8528C151.476 53.615 151.294 53.4036 151.034 53.4036ZM149.916 52.1088C149.682 52.1088 149.474 52.2937 149.474 52.558C149.474 52.7958 149.656 53.0072 149.916 53.0072C150.15 53.0072 150.358 52.7958 150.358 52.558C150.358 52.2937 150.15 52.1088 149.916 52.1088ZM148.798 50.7876C148.564 50.7876 148.356 50.9725 148.356 51.2368C148.356 51.4746 148.564 51.686 148.798 51.686C149.032 51.686 149.24 51.501 149.24 51.2368C149.24 50.999 149.032 50.7876 148.798 50.7876ZM110.5 56.9708C110.266 56.9973 110.084 57.2087 110.084 57.4465C110.11 57.6843 110.318 57.8693 110.552 57.8693C110.786 57.8428 110.968 57.6314 110.968 57.3936C110.968 57.1294 110.76 56.9444 110.5 56.9708ZM109.486 55.7289C109.252 55.7553 109.07 55.9667 109.07 56.2045C109.096 56.4424 109.304 56.6273 109.538 56.6273C109.772 56.6009 109.954 56.3895 109.954 56.1517C109.954 55.8874 109.746 55.7289 109.486 55.7289ZM111.54 58.1864C111.306 58.2128 111.124 58.4242 111.124 58.662C111.15 58.8998 111.358 59.0848 111.592 59.0848C111.826 59.0584 112.008 58.847 112.008 58.6091C111.982 58.3449 111.774 58.1599 111.54 58.1864ZM55.276 52.4787C55.276 52.2409 55.068 52.0295 54.834 52.0295C54.6 52.0295 54.392 52.2409 54.392 52.4787C54.392 52.7165 54.6 52.9279 54.834 52.9279C55.094 52.9279 55.276 52.743 55.276 52.4787ZM52.156 56.9708C51.922 56.9708 51.714 57.1822 51.714 57.4201C51.714 57.6579 51.922 57.8693 52.156 57.8693C52.39 57.8693 52.598 57.6579 52.598 57.4201C52.598 57.1822 52.39 56.9708 52.156 56.9708ZM52.832 55.7289C52.598 55.7289 52.39 55.9403 52.39 56.1781C52.39 56.4159 52.598 56.6273 52.832 56.6273C53.066 56.6273 53.274 56.4159 53.274 56.1781C53.274 55.9403 53.066 55.7289 52.832 55.7289ZM53.482 54.5134C53.248 54.5134 53.04 54.7248 53.04 54.9626C53.04 55.2004 53.248 55.4118 53.482 55.4118C53.716 55.4118 53.924 55.2004 53.924 54.9626C53.924 54.6984 53.742 54.5134 53.482 54.5134ZM54.184 55.7289C53.95 55.7289 53.742 55.9403 53.742 56.1781C53.742 56.4159 53.95 56.6273 54.184 56.6273C54.418 56.6273 54.626 56.4159 54.626 56.1781C54.626 55.9403 54.418 55.7289 54.184 55.7289ZM51.48 58.2128C51.246 58.2128 51.038 58.4242 51.038 58.662C51.038 58.8998 51.246 59.1112 51.48 59.1112C51.714 59.1112 51.922 58.8998 51.922 58.662C51.922 58.3978 51.714 58.2128 51.48 58.2128ZM54.184 53.2714C53.95 53.2714 53.742 53.4828 53.742 53.7207C53.742 53.9585 53.95 54.1699 54.184 54.1699C54.418 54.1699 54.626 53.9585 54.626 53.7207C54.626 53.4828 54.418 53.2714 54.184 53.2714ZM55.536 55.7289C55.302 55.7289 55.094 55.9403 55.094 56.1781C55.094 56.4159 55.302 56.6273 55.536 56.6273C55.77 56.6273 55.978 56.4159 55.978 56.1781C55.978 55.9403 55.77 55.7289 55.536 55.7289ZM55.536 50.814C55.302 50.814 55.094 51.0254 55.094 51.2632C55.094 51.501 55.302 51.7124 55.536 51.7124C55.77 51.7124 55.978 51.501 55.978 51.2632C55.978 50.999 55.77 50.814 55.536 50.814ZM63.466 54.0642C63.232 54.0642 63.024 54.2491 63.024 54.5134C63.024 54.7512 63.206 54.9626 63.466 54.9626C63.7 54.9626 63.908 54.7776 63.908 54.5134C63.908 54.2756 63.7 54.0642 63.466 54.0642ZM64.454 55.174C64.22 55.174 64.012 55.359 64.012 55.6232C64.012 55.861 64.194 56.0724 64.454 56.0724C64.688 56.0724 64.896 55.8874 64.896 55.6232C64.896 55.359 64.714 55.174 64.454 55.174ZM62.478 52.9808C62.244 52.9808 62.036 53.1657 62.036 53.43C62.036 53.6678 62.218 53.8792 62.478 53.8792C62.712 53.8792 62.92 53.6942 62.92 53.43C62.92 53.1922 62.738 52.9808 62.478 52.9808ZM60.528 50.7876C60.294 50.7876 60.086 50.9725 60.086 51.2368C60.086 51.4746 60.268 51.686 60.528 51.686C60.762 51.686 60.97 51.501 60.97 51.2368C60.97 50.999 60.762 50.7876 60.528 50.7876ZM61.516 51.871C61.282 51.871 61.074 52.0559 61.074 52.3202C61.074 52.558 61.256 52.7694 61.516 52.7694C61.75 52.7694 61.958 52.5844 61.958 52.3202C61.958 52.0824 61.75 51.871 61.516 51.871ZM42.614 50.814C42.38 50.814 42.172 51.0254 42.172 51.2632C42.172 51.501 42.38 51.7124 42.614 51.7124C42.848 51.7124 43.056 51.501 43.056 51.2632C43.056 50.999 42.874 50.814 42.614 50.814ZM44.46 58.2128C44.226 58.2128 44.018 58.4242 44.018 58.662C44.018 58.8998 44.226 59.1112 44.46 59.1112C44.694 59.1112 44.902 58.8998 44.902 58.662C44.902 58.3978 44.694 58.2128 44.46 58.2128ZM42.614 52.2673C42.38 52.2673 42.172 52.4787 42.172 52.7165C42.172 52.9544 42.38 53.1657 42.614 53.1657C42.848 53.1657 43.056 52.9544 43.056 52.7165C43.056 52.4787 42.874 52.2673 42.614 52.2673ZM42.614 53.7471C42.38 53.7471 42.172 53.9585 42.172 54.1963C42.172 54.4341 42.38 54.6455 42.614 54.6455C42.848 54.6455 43.056 54.4341 43.056 54.1963C43.056 53.9585 42.874 53.7471 42.614 53.7471ZM46.254 58.2128C46.02 58.2128 45.812 58.4242 45.812 58.662C45.812 58.8998 46.02 59.1112 46.254 59.1112C46.488 59.1112 46.696 58.8998 46.696 58.662C46.696 58.3978 46.514 58.2128 46.254 58.2128ZM33.072 55.2268C32.838 55.2268 32.63 55.4382 32.63 55.676C32.63 55.9139 32.838 56.1253 33.072 56.1253C33.306 56.1253 33.514 55.9139 33.514 55.676C33.514 55.4382 33.306 55.2268 33.072 55.2268ZM33.072 53.7471C32.838 53.7471 32.63 53.9585 32.63 54.1963C32.63 54.4341 32.838 54.6455 33.072 54.6455C33.306 54.6455 33.514 54.4341 33.514 54.1963C33.514 53.9585 33.306 53.7471 33.072 53.7471ZM33.072 58.2128C32.838 58.2128 32.63 58.4242 32.63 58.662C32.63 58.8998 32.838 59.1112 33.072 59.1112C33.306 59.1112 33.514 58.8998 33.514 58.662C33.514 58.3978 33.306 58.2128 33.072 58.2128ZM33.072 56.733C32.838 56.733 32.63 56.9444 32.63 57.1822C32.63 57.4201 32.838 57.6314 33.072 57.6314C33.306 57.6314 33.514 57.4201 33.514 57.1822C33.514 56.918 33.306 56.733 33.072 56.733ZM27.118 50.814C26.884 50.814 26.676 51.0254 26.676 51.2632C26.676 51.501 26.884 51.7124 27.118 51.7124C27.352 51.7124 27.56 51.501 27.56 51.2632C27.56 50.999 27.352 50.814 27.118 50.814ZM33.072 52.2673C32.838 52.2673 32.63 52.4787 32.63 52.7165C32.63 52.9544 32.838 53.1657 33.072 53.1657C33.306 53.1657 33.514 52.9544 33.514 52.7165C33.514 52.4787 33.306 52.2673 33.072 52.2673ZM42.614 55.2268C42.38 55.2268 42.172 55.4382 42.172 55.676C42.172 55.9139 42.38 56.1253 42.614 56.1253C42.848 56.1253 43.056 55.9139 43.056 55.676C43.056 55.4382 42.874 55.2268 42.614 55.2268ZM42.614 58.2128C42.38 58.2128 42.172 58.4242 42.172 58.662C42.172 58.8998 42.38 59.1112 42.614 59.1112C42.848 59.1112 43.056 58.8998 43.056 58.662C43.056 58.3978 42.874 58.2128 42.614 58.2128ZM42.614 56.733C42.38 56.733 42.172 56.9444 42.172 57.1822C42.172 57.4201 42.38 57.6314 42.614 57.6314C42.848 57.6314 43.056 57.4201 43.056 57.1822C43.056 56.918 42.874 56.733 42.614 56.733ZM36.712 58.2128C36.478 58.2128 36.27 58.4242 36.27 58.662C36.27 58.8998 36.478 59.1112 36.712 59.1112C36.946 59.1112 37.154 58.8998 37.154 58.662C37.154 58.3978 36.972 58.2128 36.712 58.2128ZM33.072 50.814C32.838 50.814 32.63 51.0254 32.63 51.2632C32.63 51.501 32.838 51.7124 33.072 51.7124C33.306 51.7124 33.514 51.501 33.514 51.2632C33.514 50.999 33.306 50.814 33.072 50.814ZM34.892 58.2128C34.658 58.2128 34.45 58.4242 34.45 58.662C34.45 58.8998 34.658 59.1112 34.892 59.1112C35.126 59.1112 35.334 58.8998 35.334 58.662C35.334 58.3978 35.126 58.2128 34.892 58.2128ZM68.432 55.2268C68.198 55.2268 67.99 55.4382 67.99 55.676C67.99 55.9139 68.198 56.1253 68.432 56.1253C68.666 56.1253 68.874 55.9139 68.874 55.676C68.874 55.4382 68.666 55.2268 68.432 55.2268ZM27.118 58.2128C26.884 58.2128 26.676 58.4242 26.676 58.662C26.676 58.8998 26.884 59.1112 27.118 59.1112C27.352 59.1112 27.56 58.8998 27.56 58.662C27.56 58.3978 27.352 58.2128 27.118 58.2128ZM68.432 58.2128C68.198 58.2128 67.99 58.4242 67.99 58.662C67.99 58.8998 68.198 59.1112 68.432 59.1112C68.666 59.1112 68.874 58.8998 68.874 58.662C68.874 58.3978 68.666 58.2128 68.432 58.2128ZM68.432 53.7471C68.198 53.7471 67.99 53.9585 67.99 54.1963C67.99 54.4341 68.198 54.6455 68.432 54.6455C68.666 54.6455 68.874 54.4341 68.874 54.1963C68.874 53.9585 68.666 53.7471 68.432 53.7471ZM68.432 52.2673C68.198 52.2673 67.99 52.4787 67.99 52.7165C67.99 52.9544 68.198 53.1657 68.432 53.1657C68.666 53.1657 68.874 52.9544 68.874 52.7165C68.874 52.4787 68.666 52.2673 68.432 52.2673ZM60.502 55.2268C60.268 55.2268 60.06 55.4382 60.06 55.676C60.06 55.9139 60.268 56.1253 60.502 56.1253C60.736 56.1253 60.944 55.9139 60.944 55.676C60.944 55.4382 60.762 55.2268 60.502 55.2268ZM60.502 56.733C60.268 56.733 60.06 56.9444 60.06 57.1822C60.06 57.4201 60.268 57.6314 60.502 57.6314C60.736 57.6314 60.944 57.4201 60.944 57.1822C60.944 56.918 60.762 56.733 60.502 56.733ZM60.502 53.7471C60.268 53.7471 60.06 53.9585 60.06 54.1963C60.06 54.4341 60.268 54.6455 60.502 54.6455C60.736 54.6455 60.944 54.4341 60.944 54.1963C60.944 53.9585 60.762 53.7471 60.502 53.7471ZM60.502 58.2128C60.268 58.2128 60.06 58.4242 60.06 58.662C60.06 58.8998 60.268 59.1112 60.502 59.1112C60.736 59.1112 60.944 58.8998 60.944 58.662C60.944 58.3978 60.762 58.2128 60.502 58.2128ZM60.502 52.2673C60.268 52.2673 60.06 52.4787 60.06 52.7165C60.06 52.9544 60.268 53.1657 60.502 53.1657C60.736 53.1657 60.944 52.9544 60.944 52.7165C60.944 52.4787 60.762 52.2673 60.502 52.2673ZM68.432 56.733C68.198 56.733 67.99 56.9444 67.99 57.1822C67.99 57.4201 68.198 57.6314 68.432 57.6314C68.666 57.6314 68.874 57.4201 68.874 57.1822C68.874 56.918 68.666 56.733 68.432 56.733ZM108.55 51.7124C108.784 51.7124 108.992 51.501 108.992 51.2632C108.992 51.0254 108.784 50.814 108.55 50.814C108.316 50.814 108.108 51.0254 108.108 51.2632C108.108 51.501 108.29 51.7124 108.55 51.7124ZM109.928 51.7124C110.162 51.7124 110.37 51.501 110.37 51.2632C110.37 51.0254 110.162 50.814 109.928 50.814C109.694 50.814 109.486 51.0254 109.486 51.2632C109.486 51.501 109.694 51.7124 109.928 51.7124ZM111.15 52.2145C111.384 52.2145 111.592 52.0031 111.592 51.7653C111.592 51.5274 111.384 51.316 111.15 51.316C110.916 51.316 110.708 51.5274 110.708 51.7653C110.682 52.0295 110.89 52.2145 111.15 52.2145ZM25.48 50.814C25.246 50.814 25.038 51.0254 25.038 51.2632C25.038 51.501 25.246 51.7124 25.48 51.7124C25.714 51.7124 25.922 51.501 25.922 51.2632C25.922 50.999 25.714 50.814 25.48 50.814ZM22.23 52.2673C21.996 52.2673 21.788 52.4787 21.788 52.7165C21.788 52.9544 21.996 53.1657 22.23 53.1657C22.464 53.1657 22.672 52.9544 22.672 52.7165C22.672 52.4787 22.49 52.2673 22.23 52.2673ZM22.23 50.814C21.996 50.814 21.788 51.0254 21.788 51.2632C21.788 51.501 21.996 51.7124 22.23 51.7124C22.464 51.7124 22.672 51.501 22.672 51.2632C22.672 50.999 22.49 50.814 22.23 50.814ZM23.868 58.2128C23.634 58.2128 23.426 58.4242 23.426 58.662C23.426 58.8998 23.634 59.1112 23.868 59.1112C24.102 59.1112 24.31 58.8998 24.31 58.662C24.31 58.3978 24.102 58.2128 23.868 58.2128ZM22.23 55.2268C21.996 55.2268 21.788 55.4382 21.788 55.676C21.788 55.9139 21.996 56.1253 22.23 56.1253C22.464 56.1253 22.672 55.9139 22.672 55.676C22.672 55.4382 22.49 55.2268 22.23 55.2268ZM23.868 54.5134C23.634 54.5134 23.426 54.7248 23.426 54.9626C23.426 55.2004 23.634 55.4118 23.868 55.4118C24.102 55.4118 24.31 55.2004 24.31 54.9626C24.31 54.6984 24.102 54.5134 23.868 54.5134ZM22.23 56.733C21.996 56.733 21.788 56.9444 21.788 57.1822C21.788 57.4201 21.996 57.6314 22.23 57.6314C22.464 57.6314 22.672 57.4201 22.672 57.1822C22.672 56.918 22.49 56.733 22.23 56.733ZM22.23 53.7471C21.996 53.7471 21.788 53.9585 21.788 54.1963C21.788 54.4341 21.996 54.6455 22.23 54.6455C22.464 54.6455 22.672 54.4341 22.672 54.1963C22.672 53.9585 22.49 53.7471 22.23 53.7471ZM23.868 50.814C23.634 50.814 23.426 51.0254 23.426 51.2632C23.426 51.501 23.634 51.7124 23.868 51.7124C24.102 51.7124 24.31 51.501 24.31 51.2632C24.31 50.999 24.102 50.814 23.868 50.814ZM25.48 54.5134C25.246 54.5134 25.038 54.7248 25.038 54.9626C25.038 55.2004 25.246 55.4118 25.48 55.4118C25.714 55.4118 25.922 55.2004 25.922 54.9626C25.922 54.6984 25.714 54.5134 25.48 54.5134ZM25.48 58.2128C25.246 58.2128 25.038 58.4242 25.038 58.662C25.038 58.8998 25.246 59.1112 25.48 59.1112C25.714 59.1112 25.922 58.8998 25.922 58.662C25.922 58.3978 25.714 58.2128 25.48 58.2128ZM11.856 50.814C11.622 50.814 11.414 51.0254 11.414 51.2632C11.414 51.501 11.622 51.7124 11.856 51.7124C12.09 51.7124 12.298 51.501 12.298 51.2632C12.298 50.999 12.09 50.814 11.856 50.814ZM14.04 58.2128C13.806 58.2128 13.598 58.4242 13.598 58.662C13.598 58.8998 13.806 59.1112 14.04 59.1112C14.274 59.1112 14.482 58.8998 14.482 58.662C14.482 58.3978 14.274 58.2128 14.04 58.2128ZM22.23 58.2128C21.996 58.2128 21.788 58.4242 21.788 58.662C21.788 58.8998 21.996 59.1112 22.23 59.1112C22.464 59.1112 22.672 58.8998 22.672 58.662C22.672 58.3978 22.49 58.2128 22.23 58.2128ZM14.04 55.1211C13.806 55.1211 13.598 55.3325 13.598 55.5704C13.598 55.8082 13.806 56.0196 14.04 56.0196C14.274 56.0196 14.482 55.8082 14.482 55.5704C14.482 55.3061 14.274 55.1211 14.04 55.1211ZM10.4 50.814C10.166 50.814 9.958 51.0254 9.958 51.2632C9.958 51.501 10.166 51.7124 10.4 51.7124C10.634 51.7124 10.842 51.501 10.842 51.2632C10.842 50.999 10.634 50.814 10.4 50.814ZM13.286 50.814C13.052 50.814 12.844 51.0254 12.844 51.2632C12.844 51.501 13.052 51.7124 13.286 51.7124C13.52 51.7124 13.728 51.501 13.728 51.2632C13.728 50.999 13.546 50.814 13.286 50.814ZM14.04 56.6537C13.806 56.6537 13.598 56.8651 13.598 57.103C13.598 57.3408 13.806 57.5522 14.04 57.5522C14.274 57.5522 14.482 57.3408 14.482 57.103C14.482 56.8651 14.274 56.6537 14.04 56.6537ZM14.04 53.5885C13.806 53.5885 13.598 53.7999 13.598 54.0377C13.598 54.2756 13.806 54.487 14.04 54.487C14.274 54.487 14.482 54.2756 14.482 54.0377C14.482 53.7735 14.274 53.5885 14.04 53.5885ZM17.68 50.814C17.446 50.814 17.238 51.0254 17.238 51.2632C17.238 51.501 17.446 51.7124 17.68 51.7124C17.914 51.7124 18.122 51.501 18.122 51.2632C18.122 50.999 17.914 50.814 17.68 50.814ZM14.768 50.814C14.534 50.814 14.326 51.0254 14.326 51.2632C14.326 51.501 14.534 51.7124 14.768 51.7124C15.002 51.7124 15.21 51.501 15.21 51.2632C15.184 50.999 15.002 50.814 14.768 50.814ZM16.224 50.814C15.99 50.814 15.782 51.0254 15.782 51.2632C15.782 51.501 15.99 51.7124 16.224 51.7124C16.458 51.7124 16.666 51.501 16.666 51.2632C16.666 50.999 16.458 50.814 16.224 50.814ZM14.04 52.0295C13.806 52.0295 13.598 52.2409 13.598 52.4787C13.598 52.7165 13.806 52.9279 14.04 52.9279C14.274 52.9279 14.482 52.7165 14.482 52.4787C14.482 52.2145 14.274 52.0295 14.04 52.0295ZM134.29 56.733C134.056 56.733 133.848 56.9444 133.848 57.1822C133.848 57.4201 134.056 57.6314 134.29 57.6314C134.524 57.6314 134.732 57.4201 134.732 57.1822C134.732 56.918 134.524 56.733 134.29 56.733ZM134.29 55.2268C134.056 55.2268 133.848 55.4382 133.848 55.676C133.848 55.9139 134.056 56.1253 134.29 56.1253C134.524 56.1253 134.732 55.9139 134.732 55.676C134.732 55.4382 134.524 55.2268 134.29 55.2268ZM134.29 52.2673C134.056 52.2673 133.848 52.4787 133.848 52.7165C133.848 52.9544 134.056 53.1657 134.29 53.1657C134.524 53.1657 134.732 52.9544 134.732 52.7165C134.732 52.4787 134.524 52.2673 134.29 52.2673ZM134.29 50.814C134.056 50.814 133.848 51.0254 133.848 51.2632C133.848 51.501 134.056 51.7124 134.29 51.7124C134.524 51.7124 134.732 51.501 134.732 51.2632C134.732 50.999 134.524 50.814 134.29 50.814ZM139.672 58.2128C139.438 58.2128 139.23 58.4242 139.23 58.662C139.23 58.8998 139.438 59.1112 139.672 59.1112C139.906 59.1112 140.114 58.8998 140.114 58.662C140.114 58.3978 139.906 58.2128 139.672 58.2128ZM134.29 53.7471C134.056 53.7471 133.848 53.9585 133.848 54.1963C133.848 54.4341 134.056 54.6455 134.29 54.6455C134.524 54.6455 134.732 54.4341 134.732 54.1963C134.732 53.9585 134.524 53.7471 134.29 53.7471ZM127.686 58.2128C127.452 58.2128 127.244 58.4242 127.244 58.662C127.244 58.8998 127.452 59.1112 127.686 59.1112C127.92 59.1112 128.128 58.8998 128.128 58.662C128.154 58.3978 127.946 58.2128 127.686 58.2128ZM121.576 50.814C121.342 50.814 121.134 51.0254 121.134 51.2632C121.134 51.501 121.342 51.7124 121.576 51.7124C121.81 51.7124 122.018 51.501 122.018 51.2632C122.018 50.999 121.81 50.814 121.576 50.814ZM123.006 50.814C122.772 50.814 122.564 51.0254 122.564 51.2632C122.564 51.501 122.772 51.7124 123.006 51.7124C123.24 51.7124 123.448 51.501 123.448 51.2632C123.448 50.999 123.266 50.814 123.006 50.814ZM120.12 50.814C119.886 50.814 119.678 51.0254 119.678 51.2632C119.678 51.501 119.886 51.7124 120.12 51.7124C120.354 51.7124 120.562 51.501 120.562 51.2632C120.562 50.999 120.354 50.814 120.12 50.814ZM119.366 53.5885C119.132 53.5885 118.924 53.7999 118.924 54.0377C118.924 54.2756 119.132 54.487 119.366 54.487C119.6 54.487 119.808 54.2756 119.808 54.0377C119.808 53.7735 119.626 53.5885 119.366 53.5885ZM139.672 56.733C139.438 56.733 139.23 56.9444 139.23 57.1822C139.23 57.4201 139.438 57.6314 139.672 57.6314C139.906 57.6314 140.114 57.4201 140.114 57.1822C140.114 56.918 139.906 56.733 139.672 56.733ZM119.366 52.0295C119.132 52.0295 118.924 52.2409 118.924 52.4787C118.924 52.7165 119.132 52.9279 119.366 52.9279C119.6 52.9279 119.808 52.7165 119.808 52.4787C119.808 52.2145 119.626 52.0295 119.366 52.0295ZM127.686 53.7471C127.452 53.7471 127.244 53.9585 127.244 54.1963C127.244 54.4341 127.452 54.6455 127.686 54.6455C127.92 54.6455 128.128 54.4341 128.128 54.1963C128.128 53.9585 127.946 53.7471 127.686 53.7471ZM127.686 52.2673C127.452 52.2673 127.244 52.4787 127.244 52.7165C127.244 52.9544 127.452 53.1657 127.686 53.1657C127.92 53.1657 128.128 52.9544 128.128 52.7165C128.154 52.4787 127.946 52.2673 127.686 52.2673ZM127.686 56.733C127.452 56.733 127.244 56.9444 127.244 57.1822C127.244 57.4201 127.452 57.6314 127.686 57.6314C127.92 57.6314 128.128 57.4201 128.128 57.1822C128.154 56.918 127.946 56.733 127.686 56.733ZM127.686 55.2268C127.452 55.2268 127.244 55.4382 127.244 55.676C127.244 55.9139 127.452 56.1253 127.686 56.1253C127.92 56.1253 128.128 55.9139 128.128 55.676C128.154 55.4382 127.946 55.2268 127.686 55.2268ZM152.178 58.2128C151.944 58.2128 151.736 58.4242 151.736 58.662C151.736 58.8998 151.944 59.1112 152.178 59.1112C152.412 59.1112 152.62 58.8998 152.62 58.662C152.62 58.3978 152.412 58.2128 152.178 58.2128ZM144.534 50.814C144.3 50.814 144.092 51.0254 144.092 51.2632C144.092 51.501 144.3 51.7124 144.534 51.7124C144.768 51.7124 144.976 51.501 144.976 51.2632C144.976 50.999 144.768 50.814 144.534 50.814ZM144.534 58.2128C144.3 58.2128 144.092 58.4242 144.092 58.662C144.092 58.8998 144.3 59.1112 144.534 59.1112C144.768 59.1112 144.976 58.8998 144.976 58.662C144.976 58.3978 144.768 58.2128 144.534 58.2128ZM152.178 56.4688C151.944 56.4688 151.736 56.6802 151.736 56.918C151.736 57.1558 151.944 57.3672 152.178 57.3672C152.412 57.3672 152.62 57.1558 152.62 56.918C152.62 56.6802 152.412 56.4688 152.178 56.4688ZM139.672 50.814C139.438 50.814 139.23 51.0254 139.23 51.2632C139.23 51.501 139.438 51.7124 139.672 51.7124C139.906 51.7124 140.114 51.501 140.114 51.2632C140.114 50.999 139.906 50.814 139.672 50.814ZM142.896 50.814C142.662 50.814 142.454 51.0254 142.454 51.2632C142.454 51.501 142.662 51.7124 142.896 51.7124C143.13 51.7124 143.338 51.501 143.338 51.2632C143.364 50.999 143.156 50.814 142.896 50.814ZM141.284 54.5134C141.05 54.5134 140.842 54.7248 140.842 54.9626C140.842 55.2004 141.05 55.4118 141.284 55.4118C141.518 55.4118 141.726 55.2004 141.726 54.9626C141.726 54.6984 141.544 54.5134 141.284 54.5134ZM141.284 58.2128C141.05 58.2128 140.842 58.4242 140.842 58.662C140.842 58.8998 141.05 59.1112 141.284 59.1112C141.518 59.1112 141.726 58.8998 141.726 58.662C141.726 58.3978 141.544 58.2128 141.284 58.2128ZM139.672 53.7471C139.438 53.7471 139.23 53.9585 139.23 54.1963C139.23 54.4341 139.438 54.6455 139.672 54.6455C139.906 54.6455 140.114 54.4341 140.114 54.1963C140.114 53.9585 139.906 53.7471 139.672 53.7471ZM139.672 52.2673C139.438 52.2673 139.23 52.4787 139.23 52.7165C139.23 52.9544 139.438 53.1657 139.672 53.1657C139.906 53.1657 140.114 52.9544 140.114 52.7165C140.114 52.4787 139.906 52.2673 139.672 52.2673ZM142.896 58.2128C142.662 58.2128 142.454 58.4242 142.454 58.662C142.454 58.8998 142.662 59.1112 142.896 59.1112C143.13 59.1112 143.338 58.8998 143.338 58.662C143.364 58.3978 143.156 58.2128 142.896 58.2128ZM142.896 54.5134C142.662 54.5134 142.454 54.7248 142.454 54.9626C142.454 55.2004 142.662 55.4118 142.896 55.4118C143.13 55.4118 143.338 55.2004 143.338 54.9626C143.364 54.6984 143.156 54.5134 142.896 54.5134ZM139.672 55.2268C139.438 55.2268 139.23 55.4382 139.23 55.676C139.23 55.9139 139.438 56.1253 139.672 56.1253C139.906 56.1253 140.114 55.9139 140.114 55.676C140.114 55.4382 139.906 55.2268 139.672 55.2268ZM141.284 50.814C141.05 50.814 140.842 51.0254 140.842 51.2632C140.842 51.501 141.05 51.7124 141.284 51.7124C141.518 51.7124 141.726 51.501 141.726 51.2632C141.726 50.999 141.544 50.814 141.284 50.814ZM111.592 54.302C111.592 54.0642 111.384 53.8528 111.15 53.8528C110.916 53.8528 110.708 54.0642 110.708 54.302C110.708 54.5398 110.916 54.7512 111.15 54.7512C111.384 54.7512 111.592 54.5662 111.592 54.302ZM119.366 55.1211C119.132 55.1211 118.924 55.3325 118.924 55.5704C118.924 55.8082 119.132 56.0196 119.366 56.0196C119.6 56.0196 119.808 55.8082 119.808 55.5704C119.808 55.3061 119.626 55.1211 119.366 55.1211ZM152.178 54.7248C151.944 54.7248 151.736 54.9362 151.736 55.174C151.736 55.4118 151.944 55.6232 152.178 55.6232C152.412 55.6232 152.62 55.4118 152.62 55.174C152.62 54.9097 152.412 54.7248 152.178 54.7248ZM112.034 53.0336C112.034 52.7958 111.826 52.5844 111.592 52.5844C111.358 52.5844 111.15 52.7958 111.15 53.0336C111.15 53.2714 111.358 53.4828 111.592 53.4828C111.826 53.4828 112.034 53.2979 112.034 53.0336ZM119.366 58.2128C119.132 58.2128 118.924 58.4242 118.924 58.662C118.924 58.8998 119.132 59.1112 119.366 59.1112C119.6 59.1112 119.808 58.8998 119.808 58.662C119.808 58.3978 119.626 58.2128 119.366 58.2128ZM118.638 50.814C118.404 50.814 118.196 51.0254 118.196 51.2632C118.196 51.501 118.404 51.7124 118.638 51.7124C118.872 51.7124 119.08 51.501 119.08 51.2632C119.08 50.999 118.898 50.814 118.638 50.814ZM119.366 56.6537C119.132 56.6537 118.924 56.8651 118.924 57.103C118.924 57.3408 119.132 57.5522 119.366 57.5522C119.6 57.5522 119.808 57.3408 119.808 57.103C119.808 56.8651 119.626 56.6537 119.366 56.6537ZM115.726 50.814C115.492 50.814 115.284 51.0254 115.284 51.2632C115.284 51.501 115.492 51.7124 115.726 51.7124C115.96 51.7124 116.168 51.501 116.168 51.2632C116.168 50.999 115.986 50.814 115.726 50.814ZM117.182 50.814C116.948 50.814 116.74 51.0254 116.74 51.2632C116.74 51.501 116.948 51.7124 117.182 51.7124C117.416 51.7124 117.624 51.501 117.624 51.2632C117.624 50.999 117.416 50.814 117.182 50.814ZM105.742 55.2268C105.508 55.2268 105.3 55.4382 105.3 55.676C105.3 55.9139 105.508 56.1253 105.742 56.1253C105.976 56.1253 106.184 55.9139 106.184 55.676C106.184 55.4382 106.002 55.2268 105.742 55.2268ZM107.146 50.814C106.912 50.814 106.704 51.0254 106.704 51.2632C106.704 51.501 106.912 51.7124 107.146 51.7124C107.38 51.7124 107.588 51.501 107.588 51.2632C107.588 50.999 107.38 50.814 107.146 50.814ZM105.742 58.2128C105.508 58.2128 105.3 58.4242 105.3 58.662C105.3 58.8998 105.508 59.1112 105.742 59.1112C105.976 59.1112 106.184 58.8998 106.184 58.662C106.184 58.3978 106.002 58.2128 105.742 58.2128ZM105.742 56.733C105.508 56.733 105.3 56.9444 105.3 57.1822C105.3 57.4201 105.508 57.6314 105.742 57.6314C105.976 57.6314 106.184 57.4201 106.184 57.1822C106.184 56.918 106.002 56.733 105.742 56.733ZM105.742 50.814C105.508 50.814 105.3 51.0254 105.3 51.2632C105.3 51.501 105.508 51.7124 105.742 51.7124C105.976 51.7124 106.184 51.501 106.184 51.2632C106.184 50.999 106.002 50.814 105.742 50.814ZM108.524 55.4118C108.758 55.4118 108.966 55.2004 108.966 54.9626C108.966 54.7248 108.758 54.5134 108.524 54.5134C108.29 54.5134 108.082 54.7248 108.082 54.9626C108.082 55.2004 108.29 55.4118 108.524 55.4118ZM109.928 55.4118C110.162 55.4118 110.37 55.2004 110.37 54.9626C110.37 54.7248 110.162 54.5134 109.928 54.5134C109.694 54.5134 109.486 54.7248 109.486 54.9626C109.486 55.2004 109.694 55.4118 109.928 55.4118ZM107.094 54.5134C106.86 54.5134 106.652 54.7248 106.652 54.9626C106.652 55.2004 106.86 55.4118 107.094 55.4118C107.328 55.4118 107.536 55.2004 107.536 54.9626C107.562 54.6984 107.354 54.5134 107.094 54.5134ZM105.742 52.2673C105.508 52.2673 105.3 52.4787 105.3 52.7165C105.3 52.9544 105.508 53.1657 105.742 53.1657C105.976 53.1657 106.184 52.9544 106.184 52.7165C106.184 52.4787 106.002 52.2673 105.742 52.2673ZM105.742 53.7471C105.508 53.7471 105.3 53.9585 105.3 54.1963C105.3 54.4341 105.508 54.6455 105.742 54.6455C105.976 54.6455 106.184 54.4341 106.184 54.1963C106.184 53.9585 106.002 53.7471 105.742 53.7471ZM65 54.5134C65 54.7512 65.208 54.9626 65.442 54.9626C65.676 54.9626 65.884 54.7512 65.884 54.5134C65.884 54.2756 65.676 54.0642 65.442 54.0642C65.182 54.0642 65 54.2756 65 54.5134ZM65.988 53.43C65.988 53.6678 66.196 53.8792 66.43 53.8792C66.664 53.8792 66.872 53.6678 66.872 53.43C66.872 53.1922 66.664 52.9808 66.43 52.9808C66.17 52.9808 65.962 53.1922 65.988 53.43ZM67.938 51.2632C67.938 51.501 68.146 51.7124 68.38 51.7124C68.614 51.7124 68.822 51.501 68.822 51.2632C68.822 51.0254 68.614 50.814 68.38 50.814C68.146 50.814 67.938 50.999 67.938 51.2632ZM66.95 52.3466C66.95 52.5844 67.158 52.7958 67.392 52.7958C67.626 52.7958 67.834 52.5844 67.834 52.3466C67.834 52.1088 67.626 51.8974 67.392 51.8974C67.158 51.8974 66.95 52.0823 66.95 52.3466ZM97.916 52.9279C98.15 52.9279 98.358 52.7165 98.358 52.4787C98.358 52.2409 98.15 52.0295 97.916 52.0295C97.682 52.0295 97.474 52.2409 97.474 52.4787C97.474 52.743 97.682 52.9279 97.916 52.9279ZM100.178 57.4201C100.178 57.6579 100.386 57.8693 100.62 57.8693C100.854 57.8693 101.062 57.6579 101.062 57.4201C101.062 57.1822 100.854 56.9708 100.62 56.9708C100.36 56.9708 100.178 57.1822 100.178 57.4201ZM99.502 56.1781C99.502 56.4159 99.71 56.6273 99.944 56.6273C100.178 56.6273 100.386 56.4159 100.386 56.1781C100.386 55.9403 100.178 55.7289 99.944 55.7289C99.684 55.7289 99.502 55.9403 99.502 56.1781ZM98.826 54.9626C98.826 55.2004 99.034 55.4118 99.268 55.4118C99.502 55.4118 99.71 55.2004 99.71 54.9626C99.71 54.7248 99.502 54.5134 99.268 54.5134C99.034 54.5134 98.826 54.6984 98.826 54.9626ZM98.15 56.1781C98.15 56.4159 98.358 56.6273 98.592 56.6273C98.826 56.6273 99.034 56.4159 99.034 56.1781C99.034 55.9403 98.826 55.7289 98.592 55.7289C98.332 55.7289 98.15 55.9403 98.15 56.1781ZM100.854 58.662C100.854 58.8998 101.062 59.1112 101.296 59.1112C101.53 59.1112 101.738 58.8998 101.738 58.662C101.738 58.4242 101.53 58.2128 101.296 58.2128C101.036 58.2128 100.854 58.3978 100.854 58.662ZM98.15 53.7207C98.15 53.9585 98.358 54.1699 98.592 54.1699C98.826 54.1699 99.034 53.9585 99.034 53.7207C99.034 53.4828 98.826 53.2714 98.592 53.2714C98.332 53.2714 98.15 53.4828 98.15 53.7207ZM96.798 56.1781C96.798 56.4159 97.006 56.6273 97.24 56.6273C97.474 56.6273 97.682 56.4159 97.682 56.1781C97.682 55.9403 97.474 55.7289 97.24 55.7289C96.98 55.7289 96.798 55.9403 96.798 56.1781ZM96.798 51.2632C96.798 51.501 97.006 51.7124 97.24 51.7124C97.474 51.7124 97.682 51.501 97.682 51.2632C97.682 51.0254 97.474 50.814 97.24 50.814C96.98 50.814 96.798 50.999 96.798 51.2632ZM152.854 53.8528C152.854 54.0906 153.062 54.302 153.296 54.302C153.53 54.302 153.738 54.0906 153.738 53.8528C153.738 53.615 153.53 53.4036 153.296 53.4036C153.036 53.4036 152.854 53.615 152.854 53.8528ZM153.972 52.558C153.972 52.7958 154.18 53.0072 154.414 53.0072C154.648 53.0072 154.856 52.7958 154.856 52.558C154.856 52.3202 154.648 52.1088 154.414 52.1088C154.18 52.1088 153.972 52.2937 153.972 52.558ZM155.116 51.2368C155.116 51.4746 155.324 51.686 155.558 51.686C155.792 51.686 156 51.4746 156 51.2368C156 50.999 155.792 50.7876 155.558 50.7876C155.298 50.7876 155.116 50.999 155.116 51.2368ZM133.172 56.9708C132.938 56.9708 132.73 57.1822 132.73 57.4201C132.73 57.6579 132.912 57.8693 133.172 57.8693C133.406 57.8693 133.614 57.6579 133.614 57.4201C133.64 57.1822 133.432 56.9708 133.172 56.9708ZM132.08 55.7289C131.846 55.7289 131.638 55.9139 131.638 56.1781C131.638 56.4159 131.846 56.6273 132.08 56.6273C132.314 56.6273 132.522 56.4159 132.522 56.1781C132.548 55.9403 132.34 55.7289 132.08 55.7289ZM134.29 58.2128C134.056 58.2128 133.848 58.3978 133.848 58.662C133.848 58.8998 134.03 59.1112 134.29 59.1112C134.524 59.1112 134.732 58.9262 134.732 58.662C134.732 58.3978 134.524 58.2128 134.29 58.2128ZM130.988 54.5134C130.754 54.5134 130.546 54.6984 130.546 54.9626C130.546 55.2004 130.728 55.4118 130.988 55.4118C131.222 55.4118 131.43 55.2004 131.43 54.9626C131.43 54.6984 131.248 54.5134 130.988 54.5134ZM129.896 53.2714C129.662 53.2714 129.454 53.4564 129.454 53.7207C129.454 53.9585 129.636 54.1699 129.896 54.1699C130.13 54.1699 130.338 53.9849 130.338 53.7207C130.338 53.4828 130.13 53.2714 129.896 53.2714ZM128.804 52.0295C128.57 52.0295 128.362 52.2145 128.362 52.4787C128.362 52.7165 128.544 52.9279 128.804 52.9279C129.038 52.9279 129.246 52.743 129.246 52.4787C129.246 52.2145 129.038 52.0295 128.804 52.0295ZM127.686 50.814C127.452 50.814 127.244 50.999 127.244 51.2632C127.244 51.501 127.426 51.7124 127.686 51.7124C127.92 51.7124 128.128 51.5274 128.128 51.2632C128.154 50.999 127.946 50.814 127.686 50.814ZM79.092 57.3936C78.858 57.3936 78.65 57.605 78.65 57.8428C78.65 58.0807 78.858 58.292 79.092 58.292C79.326 58.292 79.534 58.0807 79.534 57.8428C79.534 57.605 79.326 57.3936 79.092 57.3936ZM77.818 58.1335C77.584 58.1335 77.376 58.3449 77.376 58.5827C77.376 58.8205 77.584 59.0319 77.818 59.0319C78.052 59.0319 78.26 58.8205 78.26 58.5827C78.26 58.3449 78.052 58.1335 77.818 58.1335ZM76.336 58.3449C76.102 58.3449 75.894 58.5563 75.894 58.7941C75.894 59.0319 76.102 59.2433 76.336 59.2433C76.57 59.2433 76.778 59.0319 76.778 58.7941C76.778 58.5563 76.57 58.3449 76.336 58.3449ZM74.906 58.0542C74.672 58.0542 74.464 58.2656 74.464 58.5034C74.464 58.7413 74.672 58.9527 74.906 58.9527C75.14 58.9527 75.348 58.7413 75.348 58.5034C75.348 58.2392 75.166 58.0542 74.906 58.0542ZM73.84 57.0237C73.606 57.0237 73.398 57.2351 73.398 57.4729C73.398 57.7107 73.606 57.9221 73.84 57.9221C74.074 57.9221 74.282 57.7107 74.282 57.4729C74.282 57.2087 74.1 57.0237 73.84 57.0237ZM73.476 55.5439C73.242 55.5439 73.034 55.7553 73.034 55.9931C73.034 56.231 73.242 56.4423 73.476 56.4423C73.71 56.4423 73.918 56.231 73.918 55.9931C73.918 55.7553 73.71 55.5439 73.476 55.5439ZM73.84 54.0906C73.606 54.0906 73.398 54.302 73.398 54.5398C73.398 54.7776 73.606 54.989 73.84 54.989C74.074 54.989 74.282 54.7776 74.282 54.5398C74.282 54.302 74.1 54.0906 73.84 54.0906ZM74.906 53.06C74.672 53.06 74.464 53.2714 74.464 53.5093C74.464 53.7471 74.672 53.9585 74.906 53.9585C75.14 53.9585 75.348 53.7471 75.348 53.5093C75.348 53.245 75.166 53.06 74.906 53.06ZM76.336 52.743C76.102 52.743 75.894 52.9544 75.894 53.1922C75.894 53.43 76.102 53.6414 76.336 53.6414C76.57 53.6414 76.778 53.43 76.778 53.1922C76.778 52.9544 76.57 52.743 76.336 52.743ZM77.818 52.9544C77.584 52.9544 77.376 53.1657 77.376 53.4036C77.376 53.6414 77.584 53.8528 77.818 53.8528C78.052 53.8528 78.26 53.6414 78.26 53.4036C78.26 53.1657 78.052 52.9544 77.818 52.9544ZM79.092 53.6942C78.858 53.6942 78.65 53.9056 78.65 54.1434C78.65 54.3813 78.858 54.5927 79.092 54.5927C79.326 54.5927 79.534 54.3813 79.534 54.1434C79.534 53.9056 79.326 53.6942 79.092 53.6942ZM91.91 51.9767C91.676 51.9767 91.468 52.1881 91.468 52.4259C91.468 52.6637 91.676 52.8751 91.91 52.8751C92.144 52.8751 92.352 52.6637 92.352 52.4259C92.352 52.1616 92.17 51.9767 91.91 51.9767ZM90.74 51.1047C90.506 51.1047 90.298 51.316 90.298 51.5539C90.298 51.7917 90.506 52.0031 90.74 52.0031C90.974 52.0031 91.182 51.7917 91.182 51.5539C91.182 51.316 90.974 51.1047 90.74 51.1047ZM89.31 50.6554C89.076 50.6554 88.868 50.8668 88.868 51.1047C88.868 51.3425 89.076 51.5539 89.31 51.5539C89.544 51.5539 89.752 51.3425 89.752 51.1047C89.752 50.8668 89.544 50.6554 89.31 50.6554ZM87.776 50.5762C87.542 50.5762 87.334 50.7876 87.334 51.0254C87.334 51.2632 87.542 51.4746 87.776 51.4746C88.01 51.4746 88.218 51.2632 88.218 51.0254C88.218 50.7876 88.036 50.5762 87.776 50.5762ZM86.294 50.8668C86.06 50.8668 85.852 51.0782 85.852 51.316C85.852 51.5539 86.06 51.7653 86.294 51.7653C86.528 51.7653 86.736 51.5539 86.736 51.316C86.762 51.0518 86.554 50.8668 86.294 50.8668ZM85.124 51.6331C84.89 51.6331 84.682 51.8445 84.682 52.0823C84.682 52.3202 84.89 52.5316 85.124 52.5316C85.358 52.5316 85.566 52.3202 85.566 52.0823C85.566 51.8445 85.358 51.6331 85.124 51.6331ZM84.318 52.9544C84.084 52.9544 83.876 53.1657 83.876 53.4036C83.876 53.6414 84.084 53.8528 84.318 53.8528C84.552 53.8528 84.76 53.6414 84.76 53.4036C84.76 53.1657 84.552 52.9544 84.318 52.9544ZM84.006 54.4605C83.772 54.4605 83.564 54.6719 83.564 54.9097C83.564 55.1476 83.772 55.359 84.006 55.359C84.24 55.359 84.448 55.1476 84.448 54.9097C84.448 54.6719 84.266 54.4605 84.006 54.4605ZM91.91 57.8693C91.676 57.8693 91.468 57.6579 91.468 57.4201C91.468 57.1822 91.676 56.9708 91.91 56.9708C92.144 56.9708 92.352 57.1822 92.352 57.4201C92.352 57.6579 92.17 57.8693 91.91 57.8693ZM90.74 58.7413C90.506 58.7413 90.298 58.5299 90.298 58.292C90.298 58.0542 90.506 57.8428 90.74 57.8428C90.974 57.8428 91.182 58.0542 91.182 58.292C91.182 58.5299 90.974 58.7413 90.74 58.7413ZM89.31 59.1905C89.076 59.1905 88.868 58.9791 88.868 58.7413C88.868 58.5034 89.076 58.292 89.31 58.292C89.544 58.292 89.752 58.5034 89.752 58.7413C89.752 58.9791 89.544 59.1905 89.31 59.1905ZM87.776 59.2697C87.542 59.2697 87.334 59.0584 87.334 58.8205C87.334 58.5827 87.542 58.3713 87.776 58.3713C88.01 58.3713 88.218 58.5827 88.218 58.8205C88.218 59.0584 88.036 59.2697 87.776 59.2697ZM86.294 58.9791C86.06 58.9791 85.852 58.7677 85.852 58.5299C85.852 58.2921 86.06 58.0807 86.294 58.0807C86.528 58.0807 86.736 58.2921 86.736 58.5299C86.762 58.7677 86.554 58.9791 86.294 58.9791ZM85.124 58.2128C84.89 58.2128 84.682 58.0014 84.682 57.7636C84.682 57.5257 84.89 57.3144 85.124 57.3144C85.358 57.3144 85.566 57.5257 85.566 57.7636C85.566 58.0014 85.358 58.2128 85.124 58.2128ZM84.318 56.8916C84.084 56.8916 83.876 56.6802 83.876 56.4423C83.876 56.2045 84.084 55.9931 84.318 55.9931C84.552 55.9931 84.76 56.2045 84.76 56.4423C84.76 56.6802 84.552 56.8916 84.318 56.8916ZM2.886 58.3185C2.652 58.3185 2.444 58.5299 2.444 58.7677C2.444 59.0055 2.652 59.2169 2.886 59.2169C3.12 59.2169 3.328 59.0055 3.328 58.7677C3.328 58.5299 3.146 58.3185 2.886 58.3185ZM3.172 54.8569C3.172 54.6191 2.964 54.4077 2.73 54.4077C2.496 54.4077 2.288 54.6191 2.288 54.8569C2.288 55.0947 2.496 55.3061 2.73 55.3061C2.964 55.3061 3.172 55.0947 3.172 54.8569ZM1.508 57.79C1.274 57.79 1.066 58.0014 1.066 58.2392C1.066 58.477 1.274 58.6884 1.508 58.6884C1.742 58.6884 1.95 58.477 1.95 58.2392C1.95 58.0014 1.768 57.79 1.508 57.79ZM0.624 53.5093C0.858 53.5093 1.066 53.2979 1.066 53.06C1.066 52.8222 0.858 52.6108 0.624 52.6108C0.39 52.6108 0.182 52.8222 0.182 53.06C0.182 53.2979 0.39 53.5093 0.624 53.5093ZM0.442 56.6802C0.208 56.6802 0 56.8916 0 57.1294C0 57.3672 0.208 57.5786 0.442 57.5786C0.676 57.5786 0.884 57.3672 0.884 57.1294C0.884 56.8916 0.676 56.6802 0.442 56.6802ZM5.85 58.0542C5.616 58.0542 5.408 58.2656 5.408 58.5034C5.408 58.7413 5.616 58.9527 5.85 58.9527C6.084 58.9527 6.292 58.7413 6.292 58.5034C6.292 58.2656 6.084 58.0542 5.85 58.0542ZM0.884 54.3548C0.884 54.5927 1.092 54.8041 1.326 54.8041C1.56 54.8041 1.768 54.5927 1.768 54.3548C1.768 54.117 1.56 53.9056 1.326 53.9056C1.066 53.9056 0.884 54.117 0.884 54.3548ZM6.916 57.0501C6.682 57.0501 6.474 57.2615 6.474 57.4993C6.474 57.7371 6.682 57.9485 6.916 57.9485C7.15 57.9485 7.358 57.7371 7.358 57.4993C7.358 57.2351 7.15 57.0501 6.916 57.0501ZM6.162 55.1476C6.162 54.9097 5.954 54.6984 5.72 54.6984C5.486 54.6984 5.278 54.9097 5.278 55.1476C5.278 55.3854 5.486 55.5968 5.72 55.5968C5.954 55.5968 6.162 55.4118 6.162 55.1476ZM4.394 58.3978C4.16 58.3978 3.952 58.6091 3.952 58.847C3.952 59.0848 4.16 59.2962 4.394 59.2962C4.628 59.2962 4.836 59.0848 4.836 58.847C4.836 58.6091 4.628 58.3978 4.394 58.3978ZM4.654 54.9626C4.654 54.7248 4.446 54.5134 4.212 54.5134C3.978 54.5134 3.77 54.7248 3.77 54.9626C3.77 55.2004 3.978 55.4118 4.212 55.4118C4.472 55.4118 4.654 55.2268 4.654 54.9626ZM2.548 51.6067C2.782 51.6067 2.99 51.3953 2.99 51.1575C2.99 50.9197 2.782 50.7083 2.548 50.7083C2.314 50.7083 2.106 50.9197 2.106 51.1575C2.106 51.3953 2.288 51.6067 2.548 51.6067ZM6.916 55.5439C6.682 55.5439 6.474 55.7553 6.474 55.9931C6.474 56.231 6.682 56.4423 6.916 56.4423C7.15 56.4423 7.358 56.231 7.358 55.9931C7.358 55.7553 7.15 55.5439 6.916 55.5439ZM4.03 51.5274C4.264 51.5274 4.472 51.316 4.472 51.0782C4.472 50.8404 4.264 50.629 4.03 50.629C3.796 50.629 3.588 50.8404 3.588 51.0782C3.588 51.316 3.796 51.5274 4.03 51.5274ZM1.144 52.1352C1.378 52.1352 1.586 51.9238 1.586 51.686C1.586 51.4482 1.378 51.2368 1.144 51.2368C0.884 51.2632 0.702 51.4482 0.702 51.7124C0.702 51.9502 0.884 52.1352 1.144 52.1352ZM6.76 52.6108C6.994 52.6108 7.202 52.3994 7.202 52.1616C7.202 51.9238 6.994 51.7124 6.76 51.7124C6.526 51.7124 6.318 51.9238 6.318 52.1616C6.318 52.3994 6.5 52.6108 6.76 52.6108ZM5.512 51.7917C5.746 51.7917 5.954 51.5803 5.954 51.3425C5.954 51.1047 5.746 50.8933 5.512 50.8933C5.278 50.8933 5.07 51.1047 5.07 51.3425C5.07 51.5803 5.252 51.7917 5.512 51.7917Z" fill="#636363"/>
</svg>
