<svg width="205" height="206" viewBox="0 0 205 206" fill="none" xmlns="http://www.w3.org/2000/svg">
<g id="sign">
<g id="Group">
<path id="Vector" d="M46.3444 162.43C48.6888 159.83 51.1046 157.292 53.5918 154.815C62.7249 120.077 62.3681 82.8409 52.654 48.2248C51.6958 44.7999 50.6459 41.4055 49.4941 38.0316C48.1588 34.097 46.7012 30.193 45.1008 26.3501C44.9581 25.9934 44.8052 25.6366 44.6625 25.29C40.5547 25.29 36.4468 25.4327 32.3491 25.7283C44.4994 49.7334 51.4614 76.2867 52.6948 103.258C53.6733 123.165 51.492 143.175 46.3444 162.43Z" fill="#232323"/>
<path id="Vector_2" d="M57.1392 159.321C54.6724 161.838 52.2872 164.407 49.9529 167.057L49.9427 167.068C47.1498 170.258 44.4485 173.54 41.8594 176.914C41.4619 177.434 41.0643 177.954 40.677 178.474C42.736 182.041 44.9276 185.548 47.2415 188.963C71.3487 151.808 108.585 123.298 150.999 110.047C153.731 109.18 156.483 108.375 159.246 107.641C155.831 106.917 152.436 106.092 149.062 105.185C114.375 114.644 82.2861 133.562 57.1392 159.321Z" fill="#232323"/>
<path id="Vector_3" d="M55.3457 37.3584C56.416 40.6508 57.3946 43.9738 58.2814 47.3172C83.836 72.6167 116.241 90.9441 151.112 99.853C154.557 100.73 158.023 101.525 161.509 102.208C165.668 103.043 169.857 103.737 174.067 104.287C174.77 104.379 175.464 104.471 176.167 104.552C176.697 103.665 177.166 102.87 177.462 102.32C178.399 100.505 180.683 96.0917 181.641 94.2467C181.722 94.0735 181.824 93.8798 181.926 93.6555C134.537 91.1684 88.9428 70.7208 55.3457 37.3584Z" fill="#232323"/>
</g>
<path id="Vector_4" d="M188.773 78.1684C188.192 79.4629 187.57 80.839 186.938 82.2151C180.394 74.4173 173.279 67.1087 165.603 60.4424C140.181 38.2212 108.908 22.7784 75.8206 16.4383C57.6154 12.8299 38.9922 12.2081 20.5933 13.7473C21.7961 11.3417 23.0499 8.97683 24.3648 6.63239L27.5655 1.00573C89.6631 -0.30919 150.803 29.4346 188.773 78.1684Z" fill="#232323"/>
<path id="Vector_5" d="M57.5341 203.603C56.7034 202.453 55.8217 201.227 54.946 199.992C64.9701 198.22 74.8566 195.71 84.4669 192.393C116.419 181.477 145.423 162.105 167.449 136.613C179.671 122.648 189.516 106.827 197.377 90.1211C198.86 92.3646 200.282 94.6326 201.655 96.9434L204.929 102.527C175.037 156.972 118.721 195.067 57.5341 203.603Z" fill="#232323"/>
<path id="Vector_6" d="M14.4714 27.1901C15.8832 27.0453 17.3857 26.8965 18.8933 26.7559C15.4123 36.3222 12.6407 46.1383 10.705 56.1184C4.17221 89.2454 6.43613 124.05 17.4896 155.873C23.468 173.443 32.2413 189.882 42.7739 205.045C40.089 205.206 37.4143 205.303 34.7264 205.337L28.2527 205.379C-3.93547 152.26 -8.74769 84.4403 14.4714 27.1901Z" fill="#232323"/>
</g>
</svg>
