<svg aria-hidden="true" style="position: absolute; width: 0; height: 0; overflow: hidden;" version="1.1" xmlns="http://www.w3.org/2000/svg" xmlns:xlink="http://www.w3.org/1999/xlink">
<defs>
<symbol id="icon-circle" viewBox="0 0 32 32">
<path fill="#fdfdfd" style="fill: var(--color1, #fdfdfd)" d="M8.276 2.733c-7.309 4.225-9.809 13.576-5.584 20.885s13.576 9.809 20.885 5.584c7.309-4.225 9.809-13.576 5.584-20.885s-13.576-9.809-20.885-5.584zM2.248 23.874c-4.367-7.554-1.783-17.218 5.771-21.584s17.218-1.783 21.584 5.771c4.367 7.554 1.783 17.218-5.771 21.584s-17.218 1.783-21.584-5.771z"></path>
</symbol>
<symbol id="icon-expand-ico-2" viewBox="0 0 32 32">
<path fill="none" stroke="#b0b0b0" style="stroke: var(--color1, #b0b0b0)" stroke-linejoin="miter" stroke-linecap="butt" stroke-miterlimit="4" stroke-width="0.6667" d="M31.667 16c0 8.652-7.014 15.667-15.667 15.667s-15.667-7.014-15.667-15.667c0-8.652 7.014-15.667 15.667-15.667s15.667 7.014 15.667 15.667z"></path>
<path fill="#b0b0b0" style="fill: var(--color1, #b0b0b0)" d="M16 16.333l0.236 0.235 0.234-0.235-0.234-0.235-0.236 0.235zM2.667 16.333l-0.236-0.235-0.234 0.235 0.234 0.235 0.236-0.235zM16.236 16.098c-1.93-1.939-4.312-3.098-6.903-3.098v0.667c2.38 0 4.6 1.063 6.43 2.902l0.472-0.47zM9.333 13c-2.591 0-4.973 1.159-6.903 3.098l0.472 0.47c1.831-1.839 4.050-2.902 6.431-2.902v-0.667zM2.43 16.569c1.93 1.939 4.312 3.098 6.903 3.098v-0.667c-2.38 0-4.6-1.063-6.431-2.902l-0.472 0.47zM9.333 19.667c2.59 0 4.973-1.159 6.903-3.098l-0.472-0.47c-1.831 1.839-4.050 2.902-6.43 2.902v0.667z"></path>
<path fill="#b0b0b0" style="fill: var(--color1, #b0b0b0)" d="M16 16.334l-0.235 0.236 0.235 0.234 0.235-0.234-0.235-0.236zM16 3l0.235-0.236-0.235-0.234-0.235 0.234 0.235 0.236zM16.235 16.57c1.939-1.93 3.098-4.312 3.098-6.903h-0.667c0 2.38-1.063 4.6-2.902 6.431l0.47 0.472zM19.333 9.667c0-2.591-1.159-4.973-3.098-6.903l-0.47 0.472c1.839 1.831 2.902 4.051 2.902 6.431h0.667zM15.765 2.764c-1.939 1.93-3.098 4.313-3.098 6.903h0.667c0-2.38 1.063-4.6 2.902-6.431l-0.47-0.472zM12.666 9.667c0 2.591 1.159 4.973 3.098 6.903l0.47-0.472c-1.839-1.831-2.902-4.050-2.902-6.431h-0.667z"></path>
<path fill="#b0b0b0" style="fill: var(--color1, #b0b0b0)" d="M29.333 16.333l0.236 0.235 0.234-0.235-0.234-0.235-0.236 0.235zM16 16.333l-0.236-0.235-0.234 0.235 0.234 0.235 0.236-0.235zM29.57 16.098c-1.93-1.939-4.312-3.098-6.903-3.098v0.667c2.38 0 4.6 1.063 6.43 2.902l0.472-0.47zM22.667 13c-2.591 0-4.973 1.159-6.903 3.098l0.473 0.47c1.831-1.839 4.050-2.902 6.43-2.902v-0.667zM15.764 16.569c1.93 1.939 4.312 3.098 6.903 3.098v-0.667c-2.38 0-4.6-1.063-6.43-2.902l-0.473 0.47zM22.667 19.667c2.59 0 4.973-1.159 6.903-3.098l-0.472-0.47c-1.831 1.839-4.050 2.902-6.43 2.902v0.667z"></path>
<path fill="#b0b0b0" style="fill: var(--color1, #b0b0b0)" d="M16 29.667l-0.235 0.236 0.235 0.234 0.235-0.234-0.235-0.236zM16 16.333l0.235-0.236-0.235-0.234-0.235 0.234 0.235 0.236zM16.235 29.903c1.939-1.93 3.098-4.312 3.098-6.903h-0.667c0 2.38-1.063 4.6-2.902 6.431l0.47 0.472zM19.333 23c0-2.591-1.159-4.973-3.098-6.903l-0.47 0.473c1.839 1.831 2.902 4.050 2.902 6.431h0.667zM15.765 16.097c-1.939 1.93-3.098 4.313-3.098 6.903h0.667c0-2.38 1.063-4.6 2.902-6.431l-0.47-0.473zM12.666 23c0 2.591 1.159 4.973 3.098 6.903l0.47-0.472c-1.839-1.831-2.902-4.050-2.902-6.431h-0.667z"></path>
</symbol>
<symbol id="icon-expand-ico-1" viewBox="0 0 32 32">
<path fill="none" stroke="#b0b0b0" style="stroke: var(--color1, #b0b0b0)" stroke-linejoin="miter" stroke-linecap="butt" stroke-miterlimit="4" stroke-width="0.6667" d="M31.667 16c0 8.652-7.014 15.667-15.667 15.667s-15.667-7.014-15.667-15.667c0-8.652 7.014-15.667 15.667-15.667s15.667 7.014 15.667 15.667z"></path>
<path fill="#b0b0b0" style="fill: var(--color1, #b0b0b0)" d="M16 16.333l0.236 0.235 0.234-0.235-0.234-0.235-0.236 0.235zM2.667 16.333l-0.236-0.235-0.234 0.235 0.234 0.235 0.236-0.235zM16.236 16.098c-1.93-1.939-4.312-3.098-6.903-3.098v0.667c2.38 0 4.6 1.063 6.43 2.902l0.472-0.47zM9.333 13c-2.591 0-4.973 1.159-6.903 3.098l0.472 0.47c1.831-1.839 4.050-2.902 6.431-2.902v-0.667zM2.43 16.569c1.93 1.939 4.312 3.098 6.903 3.098v-0.667c-2.38 0-4.6-1.063-6.431-2.902l-0.472 0.47zM9.333 19.667c2.59 0 4.973-1.159 6.903-3.098l-0.472-0.47c-1.831 1.839-4.050 2.902-6.43 2.902v0.667z"></path>
<path fill="#b0b0b0" style="fill: var(--color1, #b0b0b0)" d="M29.333 16.333l0.236 0.235 0.234-0.235-0.234-0.235-0.236 0.235zM16 16.333l-0.236-0.235-0.234 0.235 0.234 0.235 0.236-0.235zM29.57 16.098c-1.93-1.939-4.312-3.098-6.903-3.098v0.667c2.38 0 4.6 1.063 6.43 2.902l0.472-0.47zM22.667 13c-2.591 0-4.973 1.159-6.903 3.098l0.473 0.47c1.831-1.839 4.050-2.902 6.43-2.902v-0.667zM15.764 16.569c1.93 1.939 4.312 3.098 6.903 3.098v-0.667c-2.38 0-4.6-1.063-6.43-2.902l-0.473 0.47zM22.667 19.667c2.59 0 4.973-1.159 6.903-3.098l-0.472-0.47c-1.831 1.839-4.050 2.902-6.43 2.902v0.667z"></path>
</symbol>
</defs>
</svg>
