<svg aria-hidden="true" style="position: absolute; width: 0; height: 0; overflow: hidden;" version="1.1" xmlns="http://www.w3.org/2000/svg" xmlns:xlink="http://www.w3.org/1999/xlink">
<defs>
<symbol id="icon-circle" viewBox="0 0 32 32">
<path fill="#fdfdfd" style="fill: var(--color1, #fdfdfd)" d="M8.276 2.733c-7.309 4.225-9.809 13.576-5.584 20.885s13.576 9.809 20.885 5.584c7.309-4.225 9.809-13.576 5.584-20.885s-13.576-9.809-20.885-5.584zM2.248 23.874c-4.367-7.554-1.783-17.218 5.771-21.584s17.218-1.783 21.584 5.771c4.367 7.554 1.783 17.218-5.771 21.584s-17.218 1.783-21.584-5.771z"></path>
</symbol>
<symbol id="icon-expand-ico-2" viewBox="0 0 32 32">
<path fill="none" stroke="#b0b0b0" style="stroke: var(--color1, #b0b0b0)" stroke-linejoin="miter" stroke-linecap="butt" stroke-miterlimit="4" stroke-width="0.6667" d="M31.667 16c0 8.652-7.014 15.667-15.667 15.667s-15.667-7.014-15.667-15.667c0-8.652 7.014-15.667 15.667-15.667s15.667 7.014 15.667 15.667z"></path>
<path fill="#b0b0b0" style="fill: var(--color1, #b0b0b0)" d="M16 16.333l0.236 0.235 0.234-0.235-0.234-0.235-0.236 0.235zM2.667 16.333l-0.236-0.235-0.234 0.235 0.234 0.235 0.236-0.235zM16.236 16.098c-1.93-1.939-4.312-3.098-6.903-3.098v0.667c2.38 0 4.6 1.063 6.43 2.902l0.472-0.47zM9.333 13c-2.591 0-4.973 1.159-6.903 3.098l0.472 0.47c1.831-1.839 4.050-2.902 6.431-2.902v-0.667zM2.43 16.569c1.93 1.939 4.312 3.098 6.903 3.098v-0.667c-2.38 0-4.6-1.063-6.431-2.902l-0.472 0.47zM9.333 19.667c2.59 0 4.973-1.159 6.903-3.098l-0.472-0.47c-1.831 1.839-4.050 2.902-6.43 2.902v0.667z"></path>
<path fill="#b0b0b0" style="fill: var(--color1, #b0b0b0)" d="M16 16.334l-0.235 0.236 0.235 0.234 0.235-0.234-0.235-0.236zM16 3l0.235-0.236-0.235-0.234-0.235 0.234 0.235 0.236zM16.235 16.57c1.939-1.93 3.098-4.312 3.098-6.903h-0.667c0 2.38-1.063 4.6-2.902 6.431l0.47 0.472zM19.333 9.667c0-2.591-1.159-4.973-3.098-6.903l-0.47 0.472c1.839 1.831 2.902 4.051 2.902 6.431h0.667zM15.765 2.764c-1.939 1.93-3.098 4.313-3.098 6.903h0.667c0-2.38 1.063-4.6 2.902-6.431l-0.47-0.472zM12.666 9.667c0 2.591 1.159 4.973 3.098 6.903l0.47-0.472c-1.839-1.831-2.902-4.050-2.902-6.431h-0.667z"></path>
<path fill="#b0b0b0" style="fill: var(--color1, #b0b0b0)" d="M29.333 16.333l0.236 0.235 0.234-0.235-0.234-0.235-0.236 0.235zM16 16.333l-0.236-0.235-0.234 0.235 0.234 0.235 0.236-0.235zM29.57 16.098c-1.93-1.939-4.312-3.098-6.903-3.098v0.667c2.38 0 4.6 1.063 6.43 2.902l0.472-0.47zM22.667 13c-2.591 0-4.973 1.159-6.903 3.098l0.473 0.47c1.831-1.839 4.050-2.902 6.43-2.902v-0.667zM15.764 16.569c1.93 1.939 4.312 3.098 6.903 3.098v-0.667c-2.38 0-4.6-1.063-6.43-2.902l-0.473 0.47zM22.667 19.667c2.59 0 4.973-1.159 6.903-3.098l-0.472-0.47c-1.831 1.839-4.050 2.902-6.43 2.902v0.667z"></path>
<path fill="#b0b0b0" style="fill: var(--color1, #b0b0b0)" d="M16 29.667l-0.235 0.236 0.235 0.234 0.235-0.234-0.235-0.236zM16 16.333l0.235-0.236-0.235-0.234-0.235 0.234 0.235 0.236zM16.235 29.903c1.939-1.93 3.098-4.312 3.098-6.903h-0.667c0 2.38-1.063 4.6-2.902 6.431l0.47 0.472zM19.333 23c0-2.591-1.159-4.973-3.098-6.903l-0.47 0.473c1.839 1.831 2.902 4.050 2.902 6.431h0.667zM15.765 16.097c-1.939 1.93-3.098 4.313-3.098 6.903h0.667c0-2.38 1.063-4.6 2.902-6.431l-0.47-0.473zM12.666 23c0 2.591 1.159 4.973 3.098 6.903l0.47-0.472c-1.839-1.831-2.902-4.050-2.902-6.431h-0.667z"></path>
</symbol>
<symbol id="icon-expand-ico-1" viewBox="0 0 32 32">
<path fill="none" stroke="#b0b0b0" style="stroke: var(--color1, #b0b0b0)" stroke-linejoin="miter" stroke-linecap="butt" stroke-miterlimit="4" stroke-width="0.6667" d="M31.667 16c0 8.652-7.014 15.667-15.667 15.667s-15.667-7.014-15.667-15.667c0-8.652 7.014-15.667 15.667-15.667s15.667 7.014 15.667 15.667z"></path>
<path fill="#b0b0b0" style="fill: var(--color1, #b0b0b0)" d="M16 16.333l0.236 0.235 0.234-0.235-0.234-0.235-0.236 0.235zM2.667 16.333l-0.236-0.235-0.234 0.235 0.234 0.235 0.236-0.235zM16.236 16.098c-1.93-1.939-4.312-3.098-6.903-3.098v0.667c2.38 0 4.6 1.063 6.43 2.902l0.472-0.47zM9.333 13c-2.591 0-4.973 1.159-6.903 3.098l0.472 0.47c1.831-1.839 4.050-2.902 6.431-2.902v-0.667zM2.43 16.569c1.93 1.939 4.312 3.098 6.903 3.098v-0.667c-2.38 0-4.6-1.063-6.431-2.902l-0.472 0.47zM9.333 19.667c2.59 0 4.973-1.159 6.903-3.098l-0.472-0.47c-1.831 1.839-4.050 2.902-6.43 2.902v0.667z"></path>
<path fill="#b0b0b0" style="fill: var(--color1, #b0b0b0)" d="M29.333 16.333l0.236 0.235 0.234-0.235-0.234-0.235-0.236 0.235zM16 16.333l-0.236-0.235-0.234 0.235 0.234 0.235 0.236-0.235zM29.57 16.098c-1.93-1.939-4.312-3.098-6.903-3.098v0.667c2.38 0 4.6 1.063 6.43 2.902l0.472-0.47zM22.667 13c-2.591 0-4.973 1.159-6.903 3.098l0.473 0.47c1.831-1.839 4.050-2.902 6.43-2.902v-0.667zM15.764 16.569c1.93 1.939 4.312 3.098 6.903 3.098v-0.667c-2.38 0-4.6-1.063-6.43-2.902l-0.473 0.47zM22.667 19.667c2.59 0 4.973-1.159 6.903-3.098l-0.472-0.47c-1.831 1.839-4.050 2.902-6.43 2.902v0.667z"></path>
</symbol>
<symbol id="icon-lv" viewBox="0 0 46 32">
<path fill="#636363" style="fill: var(--color3, #636363)" d="M29 0.423c2.229 0 4.459-0 6.688 0 0.001 0.497-0.003 0.995 0.002 1.492-0.566 0.024-1.146 0.087-1.667 0.322-0.529 0.235-0.972 0.664-1.201 1.194-2.711 6.31-5.42 12.62-8.128 18.931-0.047 0.104-0.085 0.211-0.139 0.311-0.97-0.011-1.94-0.002-2.909-0.005-0.428-0.842-0.849-1.687-1.281-2.527-0.495 1.312-0.992 2.623-1.487 3.935 3.199 0 6.397 0 9.596 0 0.586 0.008 1.189-0.016 1.737-0.243 0.91-0.362 1.635-1.062 2.225-1.821 0.712-0.919 1.253-1.955 1.734-3.006 0.54-0.005 1.080 0.002 1.62 0.001-1.024 2.165-2.052 4.328-3.085 6.489-7.371 0-14.741 0-22.112 0 0.18-0.464 0.35-0.932 0.543-1.391 0.012-0.047 0.071-0.035 0.107-0.040 0.92-0.007 1.847-0.042 2.75-0.232 0.47-0.109 0.956-0.255 1.318-0.587 0.191-0.181 0.251-0.444 0.314-0.688 0.87-2.307 1.742-4.613 2.613-6.919-1.841-3.884-3.688-7.766-5.53-11.65-0.148-0.34-0.344-0.676-0.652-0.897-0.637-0.473-1.466-0.533-2.233-0.563-0.001-0.557 0-1.113-0-1.67 2.588-0.001 5.176-0.001 7.764-0 0 0.557 0.001 1.113-0 1.67-0.337 0.021-0.695 0.016-1.001 0.181-0.151 0.071-0.241 0.249-0.202 0.411 0.048 0.266 0.26 0.455 0.367 0.695 1.093 2.331 2.186 4.662 3.282 6.991 0.549-1.521 1.098-3.041 1.65-4.561 0.081-0.211 0.11-0.455 0.017-0.668-0.073-0.168-0.237-0.271-0.399-0.341-0.315-0.129-0.662-0.128-0.996-0.151 0.171-0.47 0.342-0.939 0.519-1.407 0.041-0.026 0.098-0.006 0.145-0.013 2.626 0.002 5.252 0 7.878 0.001-0.181 0.472-0.362 0.944-0.541 1.417-0.632 0.029-1.284 0.045-1.878 0.289-0.272 0.113-0.529 0.285-0.69 0.534-0.112 0.183-0.181 0.386-0.256 0.585-1.097 2.963-2.204 5.922-3.289 8.889 0.601 1.345 1.227 2.678 1.84 4.017 2.226-5.204 4.451-10.409 6.679-15.612 0.15-0.313 0.395-0.599 0.414-0.958 0.018-0.282-0.193-0.525-0.437-0.64-0.527-0.241-1.119-0.253-1.689-0.273-0.001-0.498-0.001-0.996 0-1.493z"></path>
<path fill="#636363" style="fill: var(--color3, #636363)" d="M33.047 28.445c0.703 0.721 1.4 1.446 2.096 2.173-0.001-0.676 0.003-1.351 0.002-2.027 0.12 0 0.241-0.001 0.361-0.003 0 0.964 0 1.929 0 2.893-0.703-0.717-1.396-1.444-2.096-2.164 0.001 0.68-0.001 1.36-0.002 2.040-0.121 0.001-0.241 0.001-0.361 0.001-0-0.971-0.001-1.942 0-2.913z"></path>
<path fill="#636363" style="fill: var(--color3, #636363)" d="M12.591 28.544c0.774-0.118 1.593 0.482 1.662 1.264 0.065 0.447-0.11 0.913-0.441 1.222-0.544 0.527-1.521 0.517-2.049-0.028-0.285-0.274-0.448-0.668-0.431-1.062 0.008-0.685 0.58-1.297 1.258-1.395zM12.591 28.898c-0.451 0.073-0.817 0.465-0.881 0.908-0.086 0.505 0.229 1.047 0.721 1.212 0.431 0.161 0.954 0.009 1.231-0.354 0.357-0.444 0.297-1.16-0.143-1.529-0.247-0.222-0.604-0.296-0.928-0.237z"></path>
<path fill="#636363" style="fill: var(--color3, #636363)" d="M18.182 28.693c0.397-0.295 1.045-0.173 1.274 0.273-0.096 0.053-0.191 0.107-0.287 0.161-0.172-0.266-0.591-0.331-0.822-0.105-0.098 0.071-0.087 0.201-0.077 0.307 0.028 0.139 0.178 0.198 0.288 0.263 0.284 0.148 0.626 0.233 0.825 0.502 0.223 0.3 0.186 0.746-0.057 1.024-0.254 0.304-0.718 0.378-1.073 0.219-0.273-0.133-0.441-0.415-0.496-0.704 0.122-0.028 0.245-0.055 0.367-0.082 0.012 0.263 0.219 0.53 0.5 0.534 0.379 0.041 0.681-0.447 0.46-0.759-0.236-0.318-0.69-0.322-0.962-0.597-0.319-0.259-0.287-0.816 0.060-1.036z"></path>
<path fill="#636363" style="fill: var(--color3, #636363)" d="M31.126 28.542c0.507-0.063 1.031 0.169 1.343 0.566 0.449 0.556 0.377 1.444-0.156 1.922-0.304 0.298-0.752 0.42-1.172 0.376-0.415-0.027-0.804-0.257-1.043-0.591-0.258-0.356-0.325-0.831-0.203-1.25 0.16-0.542 0.669-0.954 1.231-1.024zM31.064 28.903c-0.559 0.094-0.959 0.684-0.861 1.233 0.062 0.528 0.568 0.957 1.103 0.947 0.365 0.006 0.713-0.199 0.91-0.498 0.299-0.429 0.22-1.062-0.165-1.415-0.252-0.253-0.641-0.338-0.986-0.267z"></path>
<path fill="#636363" style="fill: var(--color3, #636363)" d="M10.113 28.589c0.115-0.001 0.231-0.001 0.346 0 0 0.817-0 1.635 0 2.453 0.287 0.001 0.573 0 0.86 0 0.001 0.105 0.001 0.21 0 0.315-0.403 0-0.805 0.001-1.207 0 0-0.923 0-1.845 0-2.768z"></path>
<path fill="#636363" style="fill: var(--color3, #636363)" d="M14.533 28.591c0.122-0.001 0.245-0.001 0.367-0 0.001 0.545-0.002 1.090 0.001 1.635 0.006 0.24 0.035 0.503 0.207 0.687 0.272 0.265 0.807 0.227 0.997-0.116 0.096-0.161 0.124-0.351 0.121-0.535-0.002-0.557-0.002-1.113-0.002-1.67 0.122-0.001 0.245-0 0.367 0 0 0.568 0.001 1.136-0 1.705 0.001 0.258-0.045 0.53-0.211 0.738-0.358 0.491-1.188 0.519-1.58 0.055-0.186-0.193-0.263-0.466-0.266-0.727-0.002-0.59-0-1.18-0.001-1.77z"></path>
<path fill="#636363" style="fill: var(--color3, #636363)" d="M17.042 28.589c0.12-0.001 0.241-0.001 0.362-0 0 0.923 0 1.846-0 2.769-0.12 0-0.241 0-0.362-0.001 0.001-0.922 0.001-1.845 0-2.768z"></path>
<path fill="#636363" style="fill: var(--color3, #636363)" d="M20.663 28.592c0.132-0.004 0.265-0.004 0.398-0.003 0.278 0.673 0.551 1.347 0.824 2.022 0.272-0.672 0.552-1.342 0.818-2.017 0.136-0.011 0.273-0.004 0.409-0.005-0.406 0.979-0.814 1.958-1.224 2.935-0.417-0.974-0.819-1.954-1.226-2.932z"></path>
<path fill="#636363" style="fill: var(--color3, #636363)" d="M23.278 28.588c0.12 0.002 0.241 0.003 0.361 0.003 0.004 0.536-0.001 1.073 0.004 1.61 0.008 0.255 0.028 0.543 0.225 0.732 0.227 0.192 0.588 0.204 0.829 0.033 0.141-0.099 0.218-0.264 0.249-0.428 0.048-0.283 0.031-0.57 0.034-0.855 0.002-0.364 0.002-0.727 0.002-1.091 0.116-0.001 0.232-0.001 0.348-0.001 0.005 0.504 0.001 1.008 0.002 1.512 0.008 0.313-0.002 0.652-0.194 0.916-0.337 0.481-1.111 0.533-1.537 0.142-0.213-0.195-0.32-0.483-0.322-0.767-0.003-0.602-0.001-1.204-0.001-1.806z"></path>
<path fill="#636363" style="fill: var(--color3, #636363)" d="M25.784 28.591c0.126 0 0.251-0.001 0.377-0.002 0 0.923-0 1.846 0 2.769-0.126 0-0.253 0-0.379 0-0.001-0.922 0.003-1.844 0.002-2.766z"></path>
<path fill="#636363" style="fill: var(--color3, #636363)" d="M26.387 28.591c1.127 0.001 2.254-0.002 3.382-0.002-0 0.11-0 0.221 0 0.332-0.216 0.001-0.432 0-0.648 0-0.001 0.812-0 1.624-0 2.436-0.126 0-0.251 0-0.377 0-0.001-0.812 0.002-1.624-0.001-2.436-0.443 0.001-0.885-0-1.328 0-0.001 0.812 0 1.624-0 2.436-0.115 0-0.231 0-0.346 0-0-0.812 0-1.624-0-2.436-0.227-0.001-0.454 0-0.681-0.001-0-0.11-0-0.22 0-0.33z"></path>
</symbol>
<symbol id="icon-youtube" viewBox="0 0 32 32">
<path d="M16.325 5.333c0.712 0.004 2.493 0.021 4.387 0.097l0.672 0.029c1.905 0.089 3.809 0.244 4.755 0.507 1.26 0.355 2.249 1.387 2.584 2.696 0.533 2.080 0.6 6.136 0.608 7.119l0.001 0.203v0.232c-0.009 0.983-0.076 5.040-0.609 7.119-0.339 1.313-1.329 2.347-2.584 2.696-0.945 0.263-2.849 0.417-4.755 0.507l-0.672 0.031c-1.893 0.075-3.675 0.093-4.387 0.096l-0.313 0.001h-0.34c-1.507-0.009-7.808-0.077-9.813-0.635-1.259-0.355-2.249-1.387-2.584-2.696-0.533-2.080-0.6-6.136-0.608-7.119v-0.435c0.008-0.983 0.075-5.040 0.608-7.119 0.339-1.313 1.329-2.347 2.585-2.695 2.004-0.559 8.307-0.627 9.813-0.635h0.652zM13.332 11.333v9.333l8-4.667-8-4.667z"></path>
</symbol>
<symbol id="icon-threads" viewBox="0 0 32 32">
<path d="M28.494 15.369c0.002-1.511 0.003-3.013-0.082-4.525-0.097-2-0.553-3.775-2.016-5.237-1.466-1.466-3.238-1.919-5.238-2.016-1.514-0.085-3.017-0.083-4.526-0.082-0.21 0-0.42 0-0.63 0s-0.421-0-0.631-0c-1.511-0.002-3.014-0.003-4.525 0.082-2 0.097-3.775 0.553-5.237 2.016-1.466 1.466-1.919 3.237-2.016 5.237-0.085 1.514-0.083 3.017-0.082 4.526 0 0.21 0 0.42 0 0.63s-0 0.42-0 0.63c-0.002 1.51-0.003 3.015 0.082 4.526 0.097 2 0.553 3.775 2.016 5.237 1.466 1.466 3.237 1.919 5.237 2.016 1.514 0.085 3.017 0.083 4.526 0.082 0.21-0 0.42-0 0.63-0s0.421 0 0.631 0c1.511 0.002 3.014 0.003 4.525-0.082 2-0.097 3.775-0.553 5.238-2.016 1.466-1.466 1.919-3.237 2.016-5.237 0.086-1.487 0.084-2.964 0.082-4.451-0-0.235-0.001-0.47-0.001-0.706 0-0.211 0-0.421 0.001-0.631zM19.944 15.253c0.078 0.033 0.155 0.068 0.231 0.105 1.072 0.514 1.855 1.292 2.266 2.251 0.573 1.336 0.625 3.513-1.113 5.25-1.329 1.327-2.941 1.926-5.229 1.942h-0.010c-2.574-0.018-4.553-0.884-5.882-2.574-1.183-1.504-1.793-3.597-1.814-6.22l-0-0.006 0-0.006c0.021-2.623 0.631-4.716 1.814-6.22 1.33-1.69 3.309-2.556 5.882-2.574h0.010c2.579 0.018 4.58 0.881 5.949 2.564 0.675 0.831 1.171 1.832 1.487 2.995l-1.48 0.395c-0.26-0.944-0.655-1.754-1.178-2.398-1.067-1.313-2.676-1.987-4.782-2.003-2.091 0.016-3.672 0.686-4.7 1.993-0.963 1.224-1.46 2.992-1.479 5.254 0.019 2.263 0.516 4.030 1.479 5.254 1.028 1.307 2.609 1.977 4.7 1.993 1.885-0.014 3.132-0.462 4.17-1.499 1.184-1.183 1.162-2.635 0.783-3.518-0.223-0.519-0.626-0.952-1.17-1.28-0.133 0.988-0.433 1.772-0.907 2.377-0.625 0.797-1.521 1.232-2.663 1.295-0.865 0.047-1.697-0.161-2.343-0.588-0.764-0.505-1.211-1.277-1.259-2.174-0.094-1.77 1.309-3.043 3.493-3.169 0.775-0.044 1.5-0.009 2.171 0.105-0.089-0.544-0.269-0.976-0.538-1.288-0.369-0.429-0.94-0.649-1.696-0.653l-0.021-0c-0.607 0-1.432 0.17-1.957 0.967l-1.263-0.866c0.703-1.067 1.846-1.653 3.219-1.653l0.031 0c2.297 0.015 3.664 1.448 3.8 3.951zM14.224 17.776c0.049 0.92 1.043 1.35 2 1.296 0.937-0.051 2-0.419 2.182-2.683-0.486-0.106-1.021-0.162-1.592-0.162-0.174 0-0.351 0.005-0.531 0.015-1.573 0.091-2.095 0.852-2.059 1.534z"></path>
</symbol>
<symbol id="icon-linkedin" viewBox="0 0 33 32">
<path d="M27.96 2.667h-22.587c-0.254-0.004-0.506 0.043-0.742 0.137s-0.451 0.233-0.633 0.41c-0.182 0.177-0.327 0.388-0.428 0.621s-0.154 0.484-0.157 0.738v22.853c0.003 0.254 0.057 0.505 0.157 0.738s0.246 0.444 0.428 0.621 0.397 0.317 0.633 0.411c0.236 0.094 0.488 0.14 0.742 0.137h22.587c0.254 0.004 0.506-0.043 0.742-0.137s0.451-0.233 0.633-0.411 0.327-0.388 0.428-0.621c0.1-0.233 0.154-0.484 0.157-0.738v-22.853c-0.003-0.254-0.057-0.505-0.157-0.738s-0.246-0.444-0.428-0.621c-0.182-0.177-0.397-0.317-0.633-0.41s-0.488-0.14-0.742-0.137zM11.453 24.987h-4v-12h4v12zM9.453 11.307c-0.552 0-1.081-0.219-1.471-0.609s-0.609-0.919-0.609-1.471c0-0.552 0.219-1.081 0.609-1.471s0.919-0.609 1.471-0.609c0.293-0.033 0.59-0.004 0.87 0.085s0.54 0.237 0.76 0.433c0.22 0.196 0.396 0.437 0.516 0.706s0.183 0.561 0.183 0.855c0 0.295-0.062 0.586-0.183 0.855s-0.296 0.51-0.516 0.706c-0.22 0.196-0.479 0.344-0.76 0.433s-0.578 0.118-0.87 0.085zM25.88 24.987h-4v-6.44c0-1.613-0.573-2.667-2.027-2.667-0.45 0.003-0.888 0.144-1.255 0.404s-0.646 0.626-0.798 1.049c-0.104 0.313-0.15 0.643-0.133 0.973v6.667h-4v-12h4v1.693c0.363-0.631 0.892-1.15 1.529-1.502s1.357-0.524 2.085-0.498c2.667 0 4.6 1.72 4.6 5.413v6.907z"></path>
</symbol>
<symbol id="icon-instagram" viewBox="0 0 33 32">
<path d="M16.667 11.834c-2.294 0-4.166 1.872-4.166 4.166s1.872 4.166 4.166 4.166c2.294 0 4.166-1.872 4.166-4.166s-1.872-4.166-4.166-4.166zM29.161 16c0-1.725 0.016-3.434-0.081-5.156-0.097-2-0.553-3.775-2.016-5.237-1.466-1.466-3.238-1.919-5.238-2.016-1.725-0.097-3.434-0.081-5.156-0.081-1.725 0-3.434-0.016-5.156 0.081-2 0.097-3.775 0.553-5.237 2.016-1.466 1.466-1.919 3.237-2.016 5.237-0.097 1.725-0.081 3.434-0.081 5.156s-0.016 3.434 0.081 5.156c0.097 2 0.553 3.775 2.016 5.237 1.466 1.466 3.237 1.919 5.237 2.016 1.725 0.097 3.434 0.081 5.156 0.081 1.725 0 3.434 0.016 5.156-0.081 2-0.097 3.775-0.553 5.238-2.016 1.466-1.466 1.919-3.237 2.016-5.237 0.1-1.722 0.081-3.431 0.081-5.156zM16.667 22.409c-3.547 0-6.409-2.862-6.409-6.409s2.863-6.409 6.409-6.409c3.547 0 6.409 2.863 6.409 6.409s-2.862 6.409-6.409 6.409zM23.339 10.825c-0.828 0-1.497-0.669-1.497-1.497s0.669-1.497 1.497-1.497c0.828 0 1.497 0.669 1.497 1.497 0 0.197-0.038 0.391-0.113 0.573s-0.185 0.347-0.324 0.486-0.304 0.249-0.486 0.324c-0.182 0.075-0.377 0.114-0.573 0.113z"></path>
</symbol>

</defs>
</svg>
