<svg aria-hidden="true" style="position: absolute; width: 0; height: 0; overflow: hidden;" version="1.1" xmlns="http://www.w3.org/2000/svg" xmlns:xlink="http://www.w3.org/1999/xlink">
<defs>
<symbol id="icon-circle" viewBox="0 0 32 32">
<path fill="#fdfdfd" style="fill: var(--color1, #fdfdfd)" d="M8.276 2.733c-7.309 4.225-9.809 13.576-5.584 20.885s13.576 9.809 20.885 5.584c7.309-4.225 9.809-13.576 5.584-20.885s-13.576-9.809-20.885-5.584zM2.248 23.874c-4.367-7.554-1.783-17.218 5.771-21.584s17.218-1.783 21.584 5.771c4.367 7.554 1.783 17.218-5.771 21.584s-17.218 1.783-21.584-5.771z"></path>
</symbol>
<symbol id="icon-flower_of_life" viewBox="0 0 29 32">
<path d="M10.998 1.998c1.351 0.020 2.659 0.72 3.399 1.96 0.34-0.572 0.827-1.067 1.443-1.424s1.288-0.531 1.953-0.54c-1.107-1.853-3.501-2.48-5.376-1.396-0.606 0.351-1.085 0.837-1.419 1.399zM10.922 1.997c0.341-0.585 0.834-1.093 1.462-1.456 1.918-1.108 4.369-0.458 5.485 1.452 1.376 0.007 2.712 0.72 3.456 1.993 1.376 0.007 2.712 0.72 3.456 1.993 1.382 0.007 2.724 0.727 3.466 2.010s0.696 2.805 0.012 4.006c0.731 1.279 0.683 2.793 0.002 3.989 0.731 1.279 0.683 2.793 0.002 3.989 1.098 1.921 0.438 4.37-1.479 5.478-0.628 0.363-1.314 0.538-1.991 0.541-0.341 0.585-0.834 1.093-1.462 1.456s-1.314 0.538-1.991 0.541c-0.341 0.585-0.834 1.093-1.462 1.456s-1.314 0.538-1.991 0.541c-0.341 0.585-0.834 1.093-1.462 1.456-1.918 1.108-4.369 0.458-5.485-1.452-1.376-0.007-2.712-0.72-3.456-1.993-1.376-0.007-2.712-0.72-3.456-1.993-1.382-0.007-2.724-0.727-3.466-2.010s-0.696-2.805-0.012-4.006c-0.731-1.28-0.683-2.793-0.002-3.989-0.731-1.279-0.683-2.793-0.002-3.989-1.098-1.921-0.438-4.37 1.479-5.478 0.628-0.363 1.314-0.538 1.991-0.541 0.341-0.585 0.834-1.093 1.462-1.456s1.314-0.538 1.991-0.541c0.341-0.585 0.834-1.093 1.462-1.456s1.314-0.538 1.991-0.541zM17.832 2.059c-0.666 0.003-1.341 0.174-1.959 0.532-0.606 0.351-1.085 0.837-1.419 1.399 1.351 0.020 2.658 0.72 3.399 1.96 0.003-0.005 0.005-0.009 0.008-0.014 0.645-1.169 0.681-2.636-0.029-3.878zM18.112 5.567c0.313-0.41 0.71-0.766 1.185-1.041 0.617-0.356 1.288-0.531 1.953-0.54-0.728-1.219-2.014-1.908-3.342-1.927 0.625 1.117 0.661 2.407 0.204 3.508zM17.911 5.983c1.351 0.020 2.658 0.72 3.398 1.96 0.003-0.004 0.005-0.009 0.008-0.013 0.645-1.169 0.682-2.636-0.029-3.878-0.666 0.003-1.341 0.175-1.959 0.532-0.602 0.348-1.077 0.83-1.411 1.386-0.002 0.004-0.005 0.009-0.007 0.013zM17.846 6.095c-0.639 1.158-0.681 2.609 0.010 3.844l0.008-0.013c0.639-1.158 0.68-2.609-0.010-3.844-0.003 0.004-0.005 0.008-0.008 0.013zM17.789 6.063c0.003-0.005 0.005-0.009 0.008-0.014-0.654 0.009-1.315 0.181-1.921 0.531-0.601 0.348-1.077 0.829-1.411 1.385-0.003 0.005-0.005 0.009-0.008 0.014 0.005 0 0.010 0 0.015 0 0.649-0.012 1.304-0.183 1.905-0.531s1.077-0.83 1.411-1.386zM14.918 8.013c1.038 0.135 2.013 0.672 2.68 1.546-0.424-1.013-0.403-2.127-0.002-3.093-0.313 0.41-0.71 0.766-1.185 1.041s-0.982 0.441-1.493 0.507zM14.457 8.046c0.725 1.214 2.003 1.902 3.325 1.927l0.015-0c-0.725-1.214-2.003-1.902-3.326-1.927-0.005 0-0.010 0-0.015 0zM14.327 8.046c-0.649 0.012-1.304 0.183-1.905 0.531s-1.077 0.829-1.411 1.385l-0.008 0.014c0.005 0 0.011 0 0.016 0 0.649-0.012 1.303-0.184 1.905-0.531s1.077-0.829 1.411-1.385c0.003-0.005 0.005-0.009 0.008-0.014-0.005-0-0.010-0-0.015-0zM14.327 7.98c0.005-0 0.010-0 0.015-0-0.728-1.219-2.013-1.907-3.341-1.927 0.725 1.215 2.003 1.902 3.326 1.927zM11.202 6.467c0.424 1.013 0.403 2.126 0.002 3.093 0.313-0.41 0.71-0.766 1.185-1.040s0.982-0.441 1.493-0.507c-1.038-0.135-2.013-0.672-2.68-1.546zM10.685 5.573c-0.487-1.162-0.387-2.456 0.199-3.51-0.654 0.009-1.315 0.181-1.921 0.531s-1.085 0.837-1.419 1.399c1.206 0.018 2.377 0.577 3.141 1.579zM10.944 5.954c0.34-0.572 0.826-1.067 1.443-1.423s1.288-0.531 1.953-0.54c-0.735-1.231-2.038-1.921-3.38-1.927-0.664 1.166-0.716 2.639-0.017 3.891zM2.056 6.588c-1.875 1.084-2.527 3.471-1.474 5.355 0.34-0.572 0.826-1.066 1.443-1.423s1.289-0.531 1.954-0.54c-0.706-1.261-0.66-2.743-0.002-3.924-0.654 0.009-1.315 0.181-1.921 0.531zM5.51 4.591c-0.606 0.351-1.085 0.837-1.419 1.399 1.206 0.018 2.377 0.577 3.141 1.579-0.487-1.162-0.387-2.456 0.199-3.51-0.654 0.009-1.315 0.181-1.921 0.531zM7.506 4.059c-0.664 1.166-0.716 2.639-0.016 3.891 0.34-0.572 0.826-1.067 1.443-1.423s1.288-0.531 1.953-0.54c-0.735-1.231-2.038-1.921-3.38-1.927zM7.75 11.557c0.313-0.41 0.71-0.766 1.185-1.040s0.981-0.441 1.493-0.507c-1.038-0.135-2.013-0.672-2.679-1.545 0.424 1.013 0.403 2.126 0.002 3.093zM7.547 8.049c0.725 1.214 2.003 1.902 3.325 1.927 0.005-0 0.011-0 0.016-0-0.728-1.219-2.013-1.907-3.341-1.927zM11.019 10.042c-0.005 0-0.011 0-0.016 0 0.725 1.214 2.003 1.902 3.326 1.927 0.005-0 0.010-0 0.015-0-0.725-1.214-2.003-1.902-3.325-1.927zM10.88 10.042c-0.002 0-0.005-0-0.008-0-0.649 0.012-1.303 0.184-1.905 0.531s-1.077 0.829-1.411 1.385l-0.006 0.010-0.002 0.004 0.016 0c0.649-0.012 1.303-0.183 1.905-0.531s1.077-0.829 1.411-1.385c0.003-0.005 0.005-0.009 0.008-0.014-0.003 0-0.006-0-0.009-0zM12.957 9.502c-0.474 0.274-0.981 0.441-1.493 0.507 1.038 0.135 2.013 0.672 2.679 1.545-0.424-1.013-0.403-2.126-0.002-3.093-0.313 0.41-0.71 0.766-1.185 1.040zM14.4 7.946c0.003-0.005 0.005-0.009 0.008-0.014 0.638-1.158 0.68-2.609-0.011-3.843-0.646 1.161-0.691 2.618 0.002 3.857zM14.454 4.056c0.625 1.117 0.661 2.407 0.204 3.508 0.313-0.41 0.71-0.766 1.185-1.040 0.617-0.356 1.288-0.531 1.953-0.54-0.728-1.219-2.014-1.908-3.342-1.927zM14.4 8.079c-0.003 0.005-0.005 0.009-0.008 0.014-0.638 1.158-0.68 2.608 0.010 3.843 0.003-0.004 0.005-0.008 0.008-0.013 0.639-1.158 0.681-2.609-0.010-3.844zM4.053 6.056c-0.664 1.166-0.716 2.639-0.016 3.891 0.34-0.572 0.826-1.067 1.443-1.423s1.288-0.531 1.953-0.54c-0.735-1.231-2.038-1.921-3.38-1.927zM4.036 10.078c-0.646 1.161-0.691 2.618 0.002 3.858 0.34-0.571 0.826-1.066 1.443-1.423 0.474-0.274 0.981-0.441 1.493-0.507-1.182-0.154-2.282-0.829-2.938-1.928zM7.419 11.973l0.008-0 0.008-0c-0.728-1.219-2.013-1.907-3.341-1.927 0.725 1.215 2.003 1.902 3.325 1.927zM7.55 12.039c0.725 1.214 2.003 1.902 3.325 1.927 0.005-0 0.010-0 0.016-0-0.725-1.214-2.003-1.902-3.325-1.927-0.005 0-0.010 0-0.016 0zM7.419 12.039c-0.649 0.012-1.303 0.183-1.905 0.531-0.606 0.351-1.085 0.837-1.419 1.399l0.007 0 0.009 0c0.649-0.012 1.304-0.183 1.906-0.531s1.077-0.829 1.411-1.385c0.001-0.002 0.003-0.005 0.004-0.007s0.003-0.005 0.004-0.007c-0.005-0-0.011-0-0.016-0zM8.010 12.006c1.038 0.135 2.013 0.672 2.679 1.545-0.424-1.013-0.403-2.126-0.002-3.093-0.313 0.41-0.71 0.766-1.185 1.040s-0.981 0.441-1.493 0.507zM10.938 10.090c-0.638 1.158-0.68 2.608 0.010 3.843l0.004-0.007 0.003-0.006c0.639-1.158 0.681-2.609-0.010-3.844-0.003 0.005-0.005 0.009-0.008 0.014zM10.943 6.086c-0.646 1.161-0.691 2.618 0.002 3.857 0.003-0.005 0.005-0.009 0.008-0.014 0.638-1.158 0.68-2.609-0.011-3.843zM7.492 11.939c0.003-0.005 0.005-0.009 0.008-0.014 0.638-1.158 0.68-2.609-0.011-3.843-0.646 1.161-0.691 2.618 0.002 3.857zM7.492 12.072l-0.003 0.006-0.005 0.008c-0.638 1.158-0.68 2.608 0.010 3.843 0.003-0.004 0.005-0.009 0.008-0.013 0.639-1.158 0.681-2.609-0.010-3.844zM6.049 13.495c-0.474 0.274-0.982 0.441-1.493 0.507 1.038 0.135 2.013 0.672 2.68 1.546-0.424-1.013-0.403-2.126-0.002-3.093-0.313 0.41-0.71 0.766-1.185 1.040zM4.111 14.035c-0.005 0-0.010 0-0.015 0 0.725 1.214 2.003 1.902 3.326 1.927 0.005-0 0.010-0 0.015-0-0.725-1.215-2.003-1.902-3.326-1.927zM3.981 14.036c-0.005-0-0.010-0-0.015-0-0.649 0.012-1.304 0.183-1.906 0.531-0.618 0.357-1.103 0.856-1.438 1.432 0.722 1.235 2.011 1.935 3.345 1.961 0.005-0 0.011-0 0.016-0-0.705-1.261-0.66-2.743-0.003-3.923zM2.027 14.51c0.474-0.274 0.982-0.441 1.493-0.507-1.182-0.154-2.282-0.829-2.938-1.928-0.646 1.161-0.691 2.618 0.002 3.858 0.34-0.572 0.826-1.067 1.443-1.423zM0.62 12.009c0.722 1.236 2.011 1.936 3.346 1.961l0.009-0 0.006-0c-0.706-1.261-0.66-2.743-0.002-3.924-0.654 0.009-1.315 0.181-1.921 0.531-0.618 0.357-1.103 0.856-1.438 1.432zM5.512 8.581c-0.606 0.351-1.085 0.837-1.419 1.399 1.206 0.017 2.377 0.577 3.141 1.579-0.487-1.162-0.387-2.456 0.199-3.51-0.654 0.009-1.315 0.181-1.921 0.531zM14.341 4.056c-0.654 0.009-1.315 0.181-1.921 0.531s-1.085 0.837-1.419 1.399c1.206 0.018 2.377 0.577 3.141 1.579-0.487-1.162-0.387-2.456 0.199-3.51zM14.658 8.46c0.424 1.013 0.403 2.127 0.002 3.093 0.313-0.41 0.71-0.766 1.185-1.041s0.981-0.441 1.493-0.507c-1.038-0.135-2.013-0.672-2.679-1.546zM17.913 10.039c0.725 1.215 2.004 1.902 3.326 1.927 0.005-0 0.010-0 0.014-0-0.725-1.214-2.003-1.902-3.325-1.927-0.005 0-0.010 0-0.015 0zM17.783 10.039c-0.649 0.012-1.303 0.184-1.905 0.531s-1.077 0.83-1.411 1.386l-0.003 0.006-0.004 0.007 0.008 0 0.008 0c0.649-0.012 1.304-0.183 1.905-0.531s1.077-0.83 1.411-1.386c0.003-0.005 0.005-0.009 0.007-0.014-0.005-0-0.011-0-0.016-0zM18.374 10.006c1.038 0.135 2.013 0.672 2.68 1.546-0.424-1.013-0.403-2.127-0.002-3.093-0.313 0.41-0.71 0.766-1.185 1.041s-0.981 0.441-1.493 0.507zM21.245 8.055c0.002-0.004 0.005-0.009 0.007-0.013-0.654 0.009-1.315 0.181-1.921 0.531-0.602 0.348-1.077 0.83-1.411 1.386-0.003 0.005-0.005 0.009-0.008 0.014l0.006 0 0.010 0c0.649-0.012 1.303-0.183 1.905-0.531s1.078-0.83 1.412-1.387zM21.367 7.976c1.351 0.020 2.658 0.72 3.399 1.961 0.652-1.171 0.692-2.645-0.021-3.892-0.666 0.003-1.341 0.174-1.959 0.532-0.602 0.348-1.078 0.83-1.411 1.387-0.002 0.004-0.005 0.009-0.007 0.013zM21.302 8.088c-0.639 1.159-0.681 2.609 0.010 3.844 0.002-0.004 0.005-0.008 0.007-0.012 0.639-1.159 0.681-2.61-0.009-3.845-0.002 0.004-0.005 0.008-0.007 0.012zM21.568 7.56c0.313-0.41 0.71-0.766 1.185-1.041 0.617-0.356 1.288-0.531 1.953-0.54-0.728-1.219-2.014-1.908-3.342-1.927 0.625 1.117 0.661 2.407 0.204 3.508zM8.966 6.584c-0.606 0.351-1.085 0.837-1.419 1.399 1.206 0.017 2.377 0.577 3.141 1.579-0.487-1.162-0.387-2.456 0.199-3.51-0.654 0.009-1.315 0.181-1.921 0.531zM11.206 13.55c0.313-0.41 0.71-0.766 1.185-1.040s0.981-0.441 1.493-0.507c-1.038-0.135-2.013-0.672-2.68-1.545 0.424 1.013 0.403 2.126 0.002 3.093zM14.475 12.035l-0.015 0c0.725 1.215 2.004 1.902 3.326 1.927 0.005-0 0.010-0 0.014-0-0.725-1.214-2.003-1.902-3.326-1.927zM14.345 12.035l-0.005-0-0.010-0c-0.649 0.012-1.304 0.183-1.905 0.531s-1.077 0.83-1.411 1.386l-0.003 0.006-0.004 0.008c0.005 0 0.011 0 0.016 0 0.649-0.012 1.303-0.184 1.905-0.531s1.077-0.83 1.411-1.386l0.002-0.005 0.005-0.009zM16.413 11.495c-0.474 0.274-0.981 0.441-1.493 0.507 1.038 0.135 2.013 0.672 2.68 1.546-0.424-1.013-0.403-2.126-0.002-3.093-0.313 0.41-0.71 0.766-1.185 1.041zM17.91 6.049c0.625 1.117 0.661 2.407 0.204 3.508 0.313-0.41 0.71-0.766 1.185-1.040 0.617-0.356 1.288-0.531 1.953-0.54-0.728-1.219-2.014-1.908-3.342-1.927zM17.851 10.080l-0.003 0.005c-0.639 1.158-0.68 2.609 0.010 3.843 0.003-0.004 0.005-0.008 0.007-0.012 0.639-1.159 0.681-2.609-0.010-3.844l-0.005 0.008zM7.751 12.453c0.424 1.013 0.403 2.126 0.002 3.093 0.313-0.41 0.71-0.766 1.185-1.041s0.981-0.441 1.493-0.507c-1.038-0.135-2.013-0.672-2.679-1.545zM11.014 14.032l-0.009 0c0.725 1.215 2.003 1.902 3.326 1.927 0.005-0 0.010-0 0.015-0-0.725-1.214-2.003-1.902-3.325-1.927l-0.007 0zM10.875 14.032c-0.649 0.012-1.303 0.184-1.905 0.531s-1.077 0.83-1.411 1.386c-0.003 0.004-0.005 0.009-0.007 0.013 0.005 0 0.010 0 0.015 0 0.649-0.012 1.304-0.183 1.905-0.531s1.077-0.83 1.411-1.386c0.002-0.005 0.005-0.009 0.007-0.013-0.005-0-0.011-0-0.016-0zM11.466 13.999c1.038 0.135 2.013 0.672 2.679 1.545-0.424-1.013-0.403-2.126-0.002-3.093-0.313 0.41-0.71 0.766-1.185 1.041s-0.981 0.441-1.493 0.507zM14.394 12.081c-0.639 1.159-0.681 2.609 0.010 3.844l0.006-0.010 0.001-0.002c0.639-1.159 0.681-2.609-0.009-3.844-0.002 0.004-0.005 0.008-0.008 0.013zM10.948 14.065c-0.003 0.004-0.005 0.009-0.008 0.013-0.639 1.158-0.681 2.609 0.010 3.844l0.003-0.005 0.005-0.008c0.639-1.159 0.681-2.609-0.010-3.844zM9.505 15.488c-0.474 0.274-0.981 0.441-1.493 0.507 1.038 0.135 2.013 0.672 2.679 1.545-0.424-1.013-0.403-2.126-0.002-3.093-0.313 0.41-0.71 0.766-1.185 1.041zM7.567 16.028c-0.005 0-0.010 0-0.015 0 0.725 1.215 2.004 1.902 3.327 1.927 0.005-0 0.009-0 0.014-0-0.725-1.215-2.003-1.902-3.326-1.927zM7.437 16.028c-0.005-0-0.010-0-0.015-0-0.649 0.012-1.304 0.183-1.905 0.531-0.606 0.351-1.085 0.837-1.419 1.399 0.005 0 0.011 0 0.016 0 0.649-0.012 1.304-0.183 1.905-0.531s1.077-0.83 1.411-1.386c0.002-0.004 0.005-0.009 0.007-0.013zM6.976 15.995c-1.182-0.154-2.282-0.829-2.938-1.928-0.646 1.161-0.691 2.618 0.002 3.858 0.34-0.572 0.826-1.067 1.443-1.423 0.474-0.274 0.981-0.441 1.493-0.507zM7.487 16.075c-0.638 1.158-0.681 2.609 0.010 3.844 0.002-0.004 0.005-0.008 0.007-0.012 0.639-1.159 0.681-2.61-0.009-3.845-0.003 0.004-0.005 0.009-0.008 0.013zM4.558 17.992c1.038 0.135 2.013 0.672 2.68 1.546-0.424-1.013-0.403-2.127-0.002-3.093-0.313 0.41-0.71 0.766-1.185 1.041s-0.981 0.441-1.493 0.507zM4.098 18.025c0.725 1.215 2.004 1.902 3.327 1.927 0.005-0 0.009-0 0.014-0-0.725-1.214-2.003-1.902-3.325-1.927-0.005 0-0.010 0-0.015 0zM3.968 18.025c-0.649 0.012-1.304 0.183-1.905 0.531-0.618 0.357-1.103 0.856-1.438 1.432 0.725 1.241 2.022 1.941 3.362 1.961-0.706-1.261-0.66-2.743-0.003-3.924l-0.016-0zM3.522 17.992c-1.182-0.154-2.282-0.829-2.938-1.928-0.646 1.161-0.691 2.618 0.002 3.858 0.34-0.572 0.826-1.067 1.443-1.423 0.474-0.274 0.981-0.441 1.493-0.507zM18.116 13.546c0.313-0.41 0.71-0.766 1.185-1.041s0.982-0.441 1.493-0.507c-1.038-0.135-2.014-0.672-2.68-1.546 0.424 1.013 0.403 2.127 0.002 3.094zM21.383 12.031c-0.005 0-0.009 0-0.014 0 0.725 1.214 2.003 1.902 3.326 1.927l0.009-0 0.006-0c-0.725-1.215-2.004-1.902-3.327-1.927zM21.254 12.032c-0.005-0-0.010-0-0.015-0-0.649 0.011-1.304 0.183-1.906 0.531s-1.078 0.83-1.411 1.386l-0.003 0.006-0.004 0.007c0.005 0 0.010 0 0.015 0 0.649-0.012 1.304-0.183 1.906-0.531s1.078-0.83 1.412-1.387l0.004-0.007 0.003-0.005zM23.322 11.491c-0.474 0.274-0.982 0.441-1.493 0.507 1.182 0.154 2.282 0.829 2.938 1.928 0.646-1.161 0.691-2.618-0.002-3.858-0.34 0.571-0.826 1.066-1.443 1.423zM23.29 11.435c0.607-0.351 1.085-0.838 1.419-1.4-0.654 0.009-1.315 0.181-1.922 0.531-0.602 0.348-1.078 0.83-1.412 1.387-0.002 0.004-0.005 0.008-0.007 0.012 0.005 0 0.010 0 0.015 0 0.649-0.012 1.304-0.183 1.906-0.531zM28.221 11.93c0.655-1.176 0.692-2.658-0.030-3.908s-2.025-1.957-3.371-1.977c0.706 1.261 0.66 2.743 0.003 3.924 1.351 0.020 2.658 0.72 3.399 1.961zM14.66 12.449c0.424 1.013 0.403 2.127 0.002 3.093 0.313-0.41 0.71-0.766 1.185-1.041s0.982-0.441 1.493-0.507c-1.038-0.135-2.013-0.672-2.68-1.545zM17.915 14.028c0.725 1.214 2.003 1.902 3.325 1.927 0.005-0 0.010-0 0.016-0-0.725-1.215-2.004-1.902-3.326-1.927-0.005 0-0.010 0-0.014 0zM17.793 14.028l-0.007-0c-0.649 0.012-1.304 0.183-1.906 0.531s-1.078 0.83-1.412 1.387c-0.002 0.004-0.005 0.008-0.007 0.013l0.007 0 0.008 0c0.649-0.012 1.304-0.183 1.906-0.531s1.078-0.83 1.411-1.386c0.002-0.004 0.005-0.009 0.007-0.013l-0.008-0zM18.376 13.995c1.038 0.135 2.013 0.672 2.68 1.546-0.424-1.013-0.403-2.127-0.002-3.094-0.313 0.41-0.71 0.766-1.185 1.041s-0.982 0.441-1.493 0.507zM21.57 11.55c0.313-0.41 0.71-0.766 1.185-1.041 0.617-0.356 1.288-0.531 1.953-0.54-0.728-1.219-2.014-1.908-3.342-1.927 0.625 1.117 0.661 2.407 0.204 3.508zM21.305 12.077c-0.639 1.159-0.681 2.61 0.009 3.845 0.003-0.005 0.005-0.009 0.008-0.014 0.638-1.158 0.68-2.608-0.010-3.843-0.002 0.004-0.005 0.008-0.007 0.012zM11.208 17.539c0.313-0.41 0.71-0.766 1.185-1.041s0.982-0.441 1.493-0.507c-1.038-0.135-2.013-0.672-2.68-1.546 0.424 1.013 0.403 2.127 0.002 3.093zM14.476 16.024c-0.005 0-0.010 0-0.015 0 0.725 1.214 2.003 1.902 3.325 1.927l0.009-0 0.006-0c-0.725-1.215-2.003-1.902-3.326-1.927zM14.347 16.025c-0.005-0-0.010-0-0.015-0-0.649 0.012-1.304 0.183-1.906 0.531s-1.078 0.83-1.412 1.387c-0.002 0.004-0.005 0.009-0.007 0.013 0.005 0 0.010 0 0.014 0 0.649-0.012 1.304-0.183 1.906-0.531s1.078-0.83 1.412-1.387c0.002-0.004 0.005-0.008 0.007-0.013zM16.415 15.485c-0.474 0.274-0.981 0.441-1.493 0.507 1.038 0.135 2.013 0.672 2.68 1.546-0.424-1.013-0.403-2.127-0.002-3.093-0.313 0.41-0.71 0.766-1.185 1.041zM17.858 14.061c-0.003 0.004-0.005 0.008-0.007 0.012-0.639 1.159-0.681 2.609 0.010 3.844 0.003-0.005 0.005-0.009 0.008-0.014 0.638-1.158 0.68-2.608-0.010-3.843zM14.401 16.063l-0.004 0.007c-0.639 1.159-0.681 2.609 0.009 3.844l0.003-0.006 0.005-0.008c0.638-1.158 0.68-2.608-0.010-3.843l-0.003 0.005zM11.468 17.988c1.038 0.135 2.013 0.672 2.68 1.545-0.424-1.013-0.403-2.127-0.002-3.093-0.313 0.41-0.71 0.766-1.185 1.041s-0.982 0.441-1.493 0.507zM11.008 18.021c0.725 1.214 2.003 1.902 3.325 1.927 0.005-0 0.010-0 0.015-0-0.726-1.215-2.004-1.902-3.327-1.927-0.005 0-0.009 0-0.014 0zM10.879 18.021c-0.649 0.012-1.305 0.183-1.906 0.531s-1.078 0.83-1.412 1.387c-0.002 0.004-0.005 0.008-0.007 0.012 0.005 0 0.010 0 0.014 0 0.649-0.012 1.304-0.183 1.906-0.531s1.078-0.83 1.412-1.387c0.002-0.004 0.005-0.009 0.007-0.013-0.005-0-0.010-0-0.014-0zM7.753 16.442c0.424 1.013 0.403 2.127 0.002 3.094 0.313-0.41 0.71-0.766 1.185-1.041s0.982-0.441 1.493-0.507c-1.038-0.135-2.014-0.672-2.68-1.546zM10.95 18.055c-0.002 0.004-0.005 0.008-0.007 0.012-0.639 1.159-0.681 2.609 0.010 3.844 0.003-0.004 0.005-0.009 0.008-0.014 0.638-1.158 0.68-2.609-0.010-3.843zM9.507 19.477c-0.474 0.274-0.982 0.441-1.493 0.507 1.038 0.135 2.013 0.672 2.68 1.546-0.424-1.013-0.403-2.127-0.002-3.093-0.313 0.41-0.71 0.766-1.185 1.041zM7.568 20.018c-0.005 0-0.009 0-0.014 0 0.725 1.214 2.003 1.902 3.326 1.927l0.010-0 0.005-0c-0.726-1.215-2.004-1.902-3.327-1.927zM7.439 20.018l-0.006-0-0.008-0c-0.649 0.012-1.304 0.183-1.906 0.531-0.607 0.351-1.085 0.838-1.42 1.4 0.654-0.009 1.315-0.181 1.922-0.531 0.602-0.348 1.078-0.83 1.412-1.387 0.002-0.004 0.005-0.008 0.007-0.012zM6.979 19.985c-1.182-0.154-2.282-0.829-2.938-1.928-0.646 1.161-0.691 2.618 0.002 3.858 0.34-0.572 0.826-1.067 1.443-1.423 0.474-0.274 0.982-0.441 1.493-0.507zM7.489 20.063c-0.639 1.159-0.681 2.61 0.009 3.845 0.003-0.004 0.005-0.009 0.008-0.013 0.639-1.158 0.681-2.609-0.010-3.844l-0.004 0.007-0.003 0.005zM4.1 22.014c0.728 1.219 2.014 1.908 3.342 1.927-0.625-1.117-0.661-2.407-0.204-3.508-0.313 0.41-0.71 0.766-1.185 1.041-0.617 0.356-1.288 0.531-1.953 0.54zM3.985 22.014c-1.351-0.020-2.658-0.72-3.399-1.961-0.655 1.176-0.692 2.657 0.030 3.908s2.025 1.957 3.371 1.977c-0.706-1.261-0.66-2.743-0.003-3.924zM21.572 15.539c0.313-0.41 0.71-0.766 1.185-1.040s0.982-0.441 1.493-0.507c-1.038-0.135-2.013-0.672-2.68-1.546 0.424 1.013 0.403 2.126 0.002 3.093zM24.825 13.958c0.005 0 0.010 0 0.015 0 0.649-0.012 1.304-0.183 1.905-0.531 0.618-0.357 1.103-0.856 1.438-1.432-0.725-1.241-2.022-1.941-3.362-1.961 0.706 1.261 0.66 2.743 0.003 3.924zM26.778 13.484c-0.474 0.274-0.982 0.441-1.493 0.507 1.182 0.154 2.282 0.829 2.938 1.928 0.646-1.161 0.691-2.618-0.002-3.858-0.34 0.572-0.826 1.067-1.443 1.423zM24.84 14.024c-0.005 0-0.011 0-0.016 0 0.705 1.261 0.66 2.743 0.003 3.923 0.005 0 0.010 0 0.015 0 0.649-0.012 1.304-0.183 1.905-0.531 0.618-0.357 1.103-0.856 1.438-1.432-0.722-1.236-2.011-1.936-3.346-1.961zM24.711 14.024c-0.005-0-0.011-0-0.016-0-0.649 0.012-1.304 0.183-1.905 0.531s-1.077 0.829-1.411 1.385l-0.003 0.004-0.005 0.010c0.005 0 0.011 0 0.016 0 0.649-0.012 1.303-0.183 1.905-0.531 0.606-0.351 1.085-0.837 1.419-1.399zM18.116 14.442c0.424 1.013 0.403 2.126 0.002 3.093 0.313-0.41 0.71-0.766 1.185-1.040s0.981-0.441 1.493-0.507c-1.038-0.135-2.013-0.672-2.679-1.545zM21.371 16.021c0.725 1.214 2.003 1.902 3.326 1.927 0.005-0 0.010-0 0.015-0-0.725-1.214-2.003-1.902-3.325-1.927-0.005 0-0.010 0-0.016 0zM21.241 16.021c-0.649 0.012-1.303 0.183-1.905 0.531s-1.077 0.829-1.411 1.385c-0.003 0.005-0.005 0.009-0.008 0.014 0.005 0 0.011 0 0.016 0 0.649-0.012 1.303-0.184 1.905-0.531s1.077-0.829 1.411-1.385l0.005-0.008 0.003-0.006c-0.005-0-0.011-0-0.016-0zM21.832 15.988c1.182 0.154 2.282 0.829 2.938 1.928 0.646-1.161 0.691-2.618-0.002-3.858-0.34 0.572-0.826 1.067-1.443 1.423-0.474 0.274-0.981 0.441-1.493 0.507zM14.665 19.532c0.313-0.41 0.71-0.766 1.185-1.041s0.981-0.441 1.493-0.507c-1.038-0.135-2.013-0.672-2.679-1.545 0.424 1.013 0.403 2.126 0.002 3.093zM17.933 18.017c-0.005 0-0.011 0-0.016 0 0.725 1.214 2.003 1.902 3.326 1.927 0.005-0 0.010-0 0.015-0-0.725-1.214-2.003-1.902-3.325-1.927zM17.803 18.017c-0.005-0-0.011-0-0.016-0-0.649 0.012-1.303 0.184-1.905 0.531s-1.077 0.829-1.411 1.385c-0.003 0.005-0.005 0.009-0.008 0.014 0.005 0 0.010 0 0.016 0 0.649-0.012 1.304-0.183 1.905-0.531s1.077-0.829 1.411-1.385l0.002-0.003 0.006-0.011zM19.871 17.477c-0.474 0.274-0.981 0.441-1.493 0.507 1.038 0.135 2.013 0.672 2.679 1.545-0.424-1.013-0.403-2.126-0.002-3.093-0.313 0.41-0.71 0.766-1.185 1.040zM21.314 16.054c-0.003 0.005-0.005 0.009-0.008 0.014-0.638 1.158-0.68 2.608 0.010 3.843 0.003-0.005 0.005-0.009 0.008-0.014 0.638-1.158 0.68-2.609-0.010-3.843zM11.209 18.435c0.424 1.013 0.403 2.126 0.002 3.093 0.313-0.41 0.71-0.766 1.185-1.041s0.981-0.441 1.493-0.507c-1.038-0.135-2.013-0.672-2.679-1.545zM14.464 20.014c0.725 1.214 2.003 1.902 3.325 1.927 0.005-0 0.010-0 0.016-0-0.725-1.214-2.003-1.902-3.325-1.927l-0.008 0-0.008 0zM14.333 20.014c-0.649 0.012-1.304 0.183-1.905 0.531s-1.077 0.829-1.411 1.385c-0.003 0.005-0.005 0.009-0.008 0.014 0.005 0 0.010 0 0.015 0 0.649-0.012 1.304-0.183 1.905-0.531s1.077-0.829 1.411-1.385c0.003-0.005 0.005-0.009 0.008-0.014-0.005-0-0.010-0-0.016-0zM14.924 19.981c1.038 0.135 2.013 0.672 2.679 1.546-0.424-1.013-0.403-2.126-0.002-3.093-0.313 0.41-0.71 0.766-1.185 1.040s-0.981 0.441-1.493 0.507zM17.856 18.057l-0.004 0.007c-0.638 1.158-0.68 2.608 0.010 3.843 0.003-0.004 0.005-0.009 0.008-0.013 0.638-1.158 0.68-2.609-0.010-3.843l-0.004 0.006zM7.757 23.525c0.313-0.41 0.71-0.766 1.185-1.041s0.981-0.441 1.493-0.507c-1.038-0.135-2.013-0.672-2.68-1.546 0.424 1.013 0.403 2.127 0.002 3.093zM11.025 22.010c-0.005 0-0.010 0-0.015 0 0.725 1.214 2.003 1.902 3.326 1.927 0.005-0 0.010-0 0.015-0-0.725-1.214-2.003-1.902-3.326-1.927zM10.888 22.010l-0.008-0c-0.649 0.012-1.304 0.183-1.905 0.531s-1.077 0.83-1.411 1.386c-0.003 0.005-0.005 0.009-0.008 0.014 0.654-0.009 1.315-0.181 1.921-0.531 0.601-0.348 1.077-0.829 1.411-1.385 0.003-0.005 0.005-0.009 0.008-0.014l-0.007-0zM12.963 21.47c-0.474 0.274-0.982 0.441-1.493 0.507 1.038 0.135 2.013 0.672 2.679 1.545-0.424-1.013-0.403-2.126-0.002-3.093-0.313 0.41-0.71 0.766-1.185 1.040zM14.406 20.047l-0.004 0.006-0.005 0.008c-0.638 1.158-0.68 2.608 0.010 3.843 0.003-0.004 0.005-0.009 0.008-0.013 0.638-1.158 0.68-2.609-0.010-3.843zM4.043 22.046c-0.652 1.171-0.692 2.645 0.021 3.892 0.666-0.003 1.341-0.174 1.959-0.532 0.602-0.348 1.077-0.83 1.411-1.386 0.002-0.004 0.005-0.009 0.007-0.013-1.351-0.020-2.658-0.72-3.399-1.961zM7.556 24.007c0.728 1.219 2.014 1.908 3.342 1.927-0.625-1.117-0.661-2.407-0.204-3.508-0.313 0.41-0.71 0.766-1.185 1.041-0.617 0.356-1.288 0.531-1.953 0.54zM10.944 22.057c-0.638 1.158-0.68 2.609 0.010 3.843 0.003-0.004 0.005-0.009 0.008-0.013 0.639-1.158 0.681-2.609-0.010-3.844l-0.004 0.007-0.004 0.007zM7.499 24.040c-0.003 0.005-0.005 0.009-0.008 0.014-0.644 1.169-0.681 2.636 0.029 3.878 0.666-0.003 1.341-0.175 1.959-0.532 0.602-0.348 1.077-0.83 1.411-1.386 0.002-0.004 0.005-0.009 0.007-0.013-1.351-0.020-2.658-0.72-3.398-1.96zM7.444 27.931c-0.625-1.117-0.661-2.407-0.204-3.508-0.313 0.41-0.71 0.766-1.185 1.041-0.617 0.356-1.288 0.531-1.953 0.54 0.728 1.219 2.014 1.908 3.342 1.927zM21.572 16.435c0.424 1.013 0.403 2.126 0.002 3.093 0.313-0.41 0.71-0.766 1.185-1.040s0.982-0.441 1.493-0.507c-1.038-0.135-2.013-0.672-2.68-1.546zM24.826 18.014c0.706 1.261 0.66 2.743 0.002 3.924 0.654-0.009 1.315-0.181 1.921-0.531 0.618-0.357 1.103-0.856 1.438-1.432-0.722-1.235-2.011-1.936-3.346-1.961-0.005 0-0.011 0-0.016 0zM24.697 18.014c-0.649 0.012-1.304 0.183-1.905 0.531s-1.077 0.829-1.411 1.385c-0.003 0.005-0.005 0.009-0.008 0.014l0.008 0 0.007 0c0.649-0.012 1.304-0.183 1.905-0.531 0.606-0.351 1.085-0.837 1.419-1.399-0.005-0-0.011-0-0.016-0zM25.288 17.981c1.182 0.154 2.282 0.829 2.938 1.928 0.646-1.161 0.691-2.618-0.002-3.858-0.34 0.572-0.826 1.067-1.443 1.423-0.474 0.274-0.982 0.441-1.493 0.507zM23.327 19.47c-0.474 0.274-0.982 0.441-1.493 0.507 1.182 0.154 2.282 0.829 2.938 1.928 0.646-1.161 0.691-2.618-0.002-3.858-0.34 0.571-0.826 1.067-1.443 1.423zM21.388 20.010c-0.005 0-0.010 0-0.015 0 0.728 1.219 2.013 1.907 3.341 1.927-0.725-1.215-2.003-1.903-3.326-1.927zM21.259 20.010c-0.005-0-0.010-0-0.015-0-0.649 0.012-1.304 0.183-1.905 0.531s-1.077 0.83-1.411 1.386c-0.003 0.005-0.005 0.009-0.008 0.014 0.005 0 0.011 0 0.016 0 0.649-0.012 1.303-0.184 1.905-0.531s1.077-0.829 1.411-1.385c0.003-0.005 0.005-0.009 0.008-0.014zM20.798 19.977c-1.038-0.135-2.013-0.672-2.68-1.546 0.424 1.013 0.403 2.126 0.002 3.093 0.313-0.41 0.71-0.766 1.185-1.041s0.982-0.441 1.493-0.507zM14.665 20.428c0.424 1.013 0.403 2.126 0.002 3.093 0.313-0.41 0.71-0.766 1.185-1.041s0.981-0.441 1.493-0.507c-1.038-0.135-2.013-0.672-2.679-1.545zM17.927 22.007l-0.007 0c0.728 1.219 2.013 1.907 3.341 1.927-0.725-1.215-2.003-1.902-3.325-1.927l-0.009 0zM17.789 22.007c-0.649 0.012-1.303 0.184-1.905 0.531s-1.077 0.829-1.411 1.386c-0.002 0.005-0.005 0.009-0.008 0.014 0.005 0 0.010 0 0.015 0 0.649-0.012 1.304-0.183 1.905-0.531s1.077-0.83 1.411-1.386c0.003-0.005 0.005-0.009 0.008-0.014l-0.009-0-0.007-0zM18.38 21.974c1.038 0.135 2.013 0.672 2.679 1.545-0.424-1.013-0.403-2.126-0.002-3.093-0.313 0.41-0.71 0.766-1.185 1.040s-0.981 0.441-1.493 0.507zM21.308 20.057c-0.638 1.158-0.68 2.609 0.010 3.843 0.646-1.161 0.691-2.618-0.002-3.857-0.003 0.005-0.005 0.009-0.008 0.014zM17.862 22.040c-0.003 0.004-0.005 0.009-0.008 0.013-0.639 1.159-0.68 2.609 0.010 3.844 0.646-1.161 0.691-2.618-0.002-3.857zM16.419 23.463c-0.474 0.274-0.982 0.441-1.493 0.507 1.038 0.135 2.013 0.672 2.679 1.545-0.424-1.013-0.403-2.126-0.002-3.093-0.313 0.41-0.71 0.766-1.185 1.041zM14.481 24.003c-0.005 0-0.010 0-0.015 0 0.728 1.219 2.013 1.907 3.341 1.927-0.725-1.215-2.003-1.902-3.326-1.927zM14.344 24.003l-0.009-0c-0.649 0.012-1.304 0.183-1.905 0.531s-1.077 0.83-1.411 1.386c-0.003 0.005-0.005 0.009-0.008 0.014 0.654-0.009 1.315-0.181 1.921-0.531 0.601-0.348 1.077-0.829 1.411-1.386l0.003-0.005 0.005-0.008-0.007-0zM13.89 23.97c-1.038-0.135-2.013-0.672-2.68-1.546 0.424 1.013 0.403 2.127 0.002 3.093 0.313-0.41 0.71-0.766 1.185-1.041s0.981-0.441 1.493-0.507zM11.012 26c0.728 1.219 2.014 1.908 3.342 1.927-0.625-1.117-0.661-2.407-0.204-3.508-0.313 0.41-0.71 0.766-1.185 1.041-0.617 0.356-1.288 0.531-1.953 0.54zM14.405 24.042l-0.005 0.008c-0.638 1.159-0.68 2.609 0.010 3.844 0.646-1.161 0.691-2.618-0.002-3.857l-0.003 0.005zM10.955 26.032c-0.003 0.005-0.005 0.009-0.008 0.014-0.644 1.169-0.681 2.636 0.029 3.878 0.666-0.003 1.341-0.175 1.959-0.532 0.606-0.351 1.085-0.837 1.419-1.399-1.351-0.020-2.659-0.72-3.399-1.96zM10.9 29.924c-0.625-1.117-0.661-2.407-0.204-3.508-0.313 0.41-0.71 0.766-1.185 1.041-0.617 0.356-1.288 0.531-1.953 0.54 0.728 1.219 2.014 1.908 3.342 1.927zM21.574 20.424c0.487 1.162 0.387 2.456-0.199 3.51 0.654-0.009 1.315-0.181 1.921-0.531s1.085-0.837 1.419-1.399c-1.206-0.017-2.377-0.577-3.141-1.579zM24.828 22.003c0.706 1.261 0.66 2.743 0.002 3.924 0.654-0.009 1.315-0.181 1.921-0.531 1.875-1.084 2.527-3.471 1.474-5.355-0.34 0.572-0.826 1.067-1.443 1.423s-1.289 0.531-1.954 0.54zM17.921 25.93c0.654-0.009 1.315-0.181 1.921-0.531s1.085-0.837 1.419-1.399c-1.206-0.018-2.377-0.577-3.141-1.579 0.487 1.162 0.387 2.456-0.199 3.51zM24.755 25.927c0.664-1.166 0.716-2.639 0.016-3.891-0.34 0.572-0.826 1.067-1.443 1.423s-1.288 0.531-1.953 0.54c0.735 1.231 2.038 1.921 3.38 1.927zM17.922 25.996c0.735 1.231 2.038 1.921 3.38 1.927 0.664-1.166 0.716-2.639 0.017-3.891-0.34 0.572-0.826 1.067-1.443 1.423s-1.288 0.531-1.953 0.54zM14.667 24.417c0.487 1.162 0.387 2.456-0.199 3.51 0.654-0.009 1.315-0.181 1.921-0.531s1.085-0.837 1.419-1.399c-1.206-0.017-2.377-0.577-3.141-1.579zM17.848 29.92c0.664-1.166 0.716-2.639 0.017-3.891-0.34 0.572-0.826 1.067-1.443 1.423s-1.288 0.531-1.953 0.54c0.735 1.231 2.038 1.921 3.38 1.927zM14.411 28.025c-0.34 0.572-0.827 1.067-1.443 1.424s-1.288 0.531-1.953 0.54c1.107 1.854 3.501 2.48 5.376 1.396 0.606-0.351 1.085-0.837 1.419-1.399-1.351-0.020-2.659-0.72-3.399-1.96zM21.377 27.923c0.654-0.009 1.315-0.181 1.921-0.531s1.085-0.837 1.419-1.399c-1.206-0.017-2.377-0.577-3.141-1.579 0.487 1.162 0.387 2.456-0.199 3.509zM21.263 27.989c-1.206-0.017-2.377-0.577-3.141-1.579 0.487 1.162 0.387 2.456-0.199 3.51 0.654-0.009 1.315-0.181 1.921-0.531s1.085-0.837 1.419-1.399z"></path>
</symbol>
</defs>
</svg>
