<svg width="1243" height="298" viewBox="0 0 1243 298" fill="none" xmlns="http://www.w3.org/2000/svg">
<path fill-rule="evenodd" clip-rule="evenodd" d="M80 64.0256C80 72.8622 72.8366 80.0256 64 80.0256H16C7.16344 80.0256 0 87.1891 0 96.0257V211.744C0 220.58 7.16344 227.744 16 227.744H17.5C26.3366 227.744 33.5 234.907 33.5 243.744V252C33.5 260.837 40.6634 268 49.5 268H298C306.837 268 314 260.837 314 252V204.513C314 195.676 321.163 188.513 330 188.513H378C386.837 188.513 394 181.349 394 172.513V56C394 47.1634 386.837 40 378 40H297.25C288.413 40 281.25 32.8366 281.25 24V16C281.25 7.16344 274.087 0 265.25 0H96C87.1634 0 80 7.16344 80 16V64.0256ZM543 45.0128C543 53.3042 536.279 60.0256 527.987 60.0256H479C470.163 60.0256 463 67.1891 463 76.0257V191.744C463 200.58 470.163 207.744 479 207.744H480.5C489.337 207.744 496.5 214.907 496.5 223.744V282C496.5 290.837 503.663 298 512.5 298H1148.5C1157.34 298 1164.5 290.837 1164.5 282V268.513C1164.5 259.676 1171.66 252.513 1180.5 252.513H1227C1235.84 252.513 1243 245.349 1243 236.513V90C1243 81.1634 1235.84 74 1227 74H1147.75C1138.91 74 1131.75 66.8366 1131.75 58V46C1131.75 37.1634 1124.59 30 1115.75 30H558.013C549.721 30 543 36.7215 543 45.0128Z" fill="url(#paint0_linear_375_7365)"/>
<defs>
<linearGradient id="paint0_linear_375_7365" x1="-234.433" y1="100.109" x2="1300.2" y2="593.937" gradientUnits="userSpaceOnUse">
<stop offset="0.119792" stop-color="#C4D8F5"/>
<stop offset="0.390625" stop-color="#ADE2F2"/>
<stop offset="0.614583" stop-color="#E5D0F1"/>
<stop offset="0.791667" stop-color="#F3D7EA"/>
<stop offset="0.904425" stop-color="#ECD1D1"/>
<stop offset="1" stop-color="#F5F5D9"/>
</linearGradient>
</defs>
</svg>
