<svg width="328" height="638" viewBox="0 0 328 638" fill="none" xmlns="http://www.w3.org/2000/svg">
<path fill-rule="evenodd" clip-rule="evenodd" d="M48 15.0128C48 23.3042 41.2785 30.0256 32.9872 30.0256H16C7.16344 30.0256 0 37.1891 0 46.0257V213.799C0 221.501 6.24302 227.744 13.9442 227.744C21.6453 227.744 27.8883 233.987 27.8883 241.688V252C27.8883 260.837 35.0518 268 43.8883 268H264C272.837 268 280 260.837 280 252V240C280 231.163 287.163 224 296 224H312C320.837 224 328 216.837 328 208V56C328 47.1634 320.837 40 312 40H296C287.163 40 280 32.8366 280 24V16C280 7.16344 272.837 0 264 0H63.0128C54.7215 0 48 6.72147 48 15.0128ZM33.641 307.422C33.641 312.625 29.4227 316.844 24.2192 316.844H16C7.16344 316.844 0 324.007 0 332.844V574.313C0 578.203 3.15352 581.356 7.04359 581.356C10.9337 581.356 14.0872 584.51 14.0872 588.4V622C14.0872 630.837 21.2506 638 30.0872 638H280.716C288.599 638 294.99 631.609 294.99 623.726C294.99 615.843 301.38 609.453 309.263 609.453H312C320.837 609.453 328 602.289 328 593.453V341.614C328 332.777 320.837 325.614 312 325.614H293.807C286.182 325.614 280 319.432 280 311.807C280 304.182 273.818 298 266.193 298H43.0629C37.8593 298 33.641 302.218 33.641 307.422Z" fill="url(#paint0_linear_375_7640)"/>
<defs>
<linearGradient id="paint0_linear_375_7640" x1="-61.8618" y1="214.328" x2="384.324" y2="232.024" gradientUnits="userSpaceOnUse">
<stop offset="0.119792" stop-color="#C4D8F5"/>
<stop offset="0.390625" stop-color="#ADE2F2"/>
<stop offset="0.614583" stop-color="#E5D0F1"/>
<stop offset="0.791667" stop-color="#F3D7EA"/>
<stop offset="0.904425" stop-color="#ECD1D1"/>
<stop offset="1" stop-color="#F5F5D9"/>
</linearGradient>
</defs>
</svg>
