<svg width="156" height="109" viewBox="0 0 156 109" fill="none" xmlns="http://www.w3.org/2000/svg">
<path d="M24.4469 50.3555L27.0427 56.0668H21.8329L24.4286 50.3555H24.4469ZM20.7683 58.548H28.1256L29.5076 61.6057H32.5323L25.8289 47.394H23.1024L16.399 61.6057H19.3863L20.7683 58.548ZM112.693 50.3555L115.289 56.0668H110.078L112.674 50.3555H112.693ZM109.014 58.548H116.371L117.753 61.6057H120.778L114.074 47.394H111.348L104.645 61.6057H107.632L109.014 58.548ZM81.6236 54.4711C81.6236 58.8174 84.7416 61.9137 89.2974 61.9137C92.2663 61.9137 93.8724 60.7786 95.2736 59.587L93.7233 57.509C92.7712 58.2597 91.4258 59.2978 89.3541 59.2978C86.4785 59.2978 84.5358 57.3177 84.5358 54.4711C84.5358 51.6253 86.4593 49.7018 89.2416 49.7018C91.1093 49.7018 92.3413 50.3169 93.3685 51.2015L94.8996 49.1055C93.4618 47.8744 91.7815 47.0859 89.2416 47.0859C84.8724 47.0859 81.6236 50.1634 81.6236 54.4711ZM135.829 48.9906C134.167 47.7594 132.636 47.0859 130.077 47.0859C125.633 47.0859 122.366 50.1248 122.366 54.4711C122.366 58.8362 125.558 61.9137 130.077 61.9137C132.954 61.9137 134.932 60.9133 136.576 59.3562V53.8937H129.891V56.3174H133.961V58.2014C133.383 58.6827 132.188 59.3562 130.152 59.3562C127.259 59.3562 125.241 57.3177 125.241 54.4711C125.241 51.6253 127.277 49.682 130.077 49.682C132.02 49.682 133.29 50.3367 134.298 51.0865L135.829 48.9906ZM9.04172 55.4319C9.71398 55.4319 10.1813 55.5289 10.5728 55.836C10.9469 56.1252 11.2076 56.5868 11.2076 57.2207C11.2076 57.8556 10.9469 58.3361 10.5728 58.6252C10.1813 58.9323 9.71398 59.0096 9.04172 59.0096H3.57125V55.4319H9.04172ZM8.50026 49.9901C9.28499 49.9901 9.69567 50.1436 9.97556 50.413C10.2371 50.7022 10.3862 51.0677 10.3862 51.4709C10.3862 51.875 10.2371 52.2404 9.97556 52.5287C9.69567 52.7972 9.28499 52.9517 8.50026 52.9517H3.57125V49.9901H8.50026ZM48.7964 61.6057H60.448V59.0096H51.5229V55.4319H58.2071V52.9517H51.5229V49.9901H60.0748V47.394H48.7964V61.6057ZM147.07 50.3555L149.665 56.0668H144.456L147.051 50.3555H147.07ZM143.392 58.548H150.748L152.13 61.6057H155.155L148.452 47.394H145.726L139.022 61.6057H142.01L143.392 58.548ZM101.489 47.394H98.7622V61.6057H101.489V47.394ZM45.0244 59.0096H38.4143V47.394H35.6878V61.6057H45.0244V59.0096ZM67.3946 57.298C67.3946 54.2789 67.2638 51.6253 67.2638 51.6253H67.3013C67.3013 51.6253 68.5708 53.4905 70.8867 56.4323L74.9577 61.6057H77.6275V47.394H74.901V51.7789C74.901 54.7979 75.0126 57.4713 75.0126 57.4713H74.976C74.976 57.4713 73.7056 55.6061 71.409 52.6436L67.3388 47.394H64.6681V61.6057H67.3946V57.298ZM9.22832 61.6057C10.7969 61.6057 11.7491 61.2599 12.4963 60.6637C13.4859 59.8752 14.1024 58.6441 14.1024 57.1633C14.1024 55.0673 12.7579 53.952 11.6374 53.6629V53.6252C12.7021 53.125 13.281 51.9899 13.281 50.8746C13.281 49.6057 12.7954 48.7212 12.0298 48.1635C11.2826 47.6247 10.2746 47.394 8.51943 47.394H0.844727V61.6057H9.22832Z" fill="#636363"/>
</svg>
