<svg width="178" height="125" viewBox="0 0 178 125" fill="none" xmlns="http://www.w3.org/2000/svg">
<g id="Property 1=balenciaga">
<path id="path32" d="M27.8956 57.7474L30.8574 64.297H24.9129L27.8747 57.7474H27.8956ZM23.6981 67.1423H32.093L33.6699 70.6489H37.1212L29.4725 54.351H26.3615L18.7127 70.6489H22.1212L23.6981 67.1423ZM128.587 57.7474L131.548 64.297H125.603L128.565 57.7474H128.587ZM124.389 67.1423H132.783L134.36 70.6489H137.812L130.162 54.351H127.051L119.404 70.6489H122.812L124.389 67.1423ZM93.1356 62.467C93.1356 67.4513 96.6933 71.0021 101.892 71.0021C105.279 71.0021 107.112 69.7004 108.711 68.3338L106.942 65.9509C105.855 66.8118 104.32 68.0022 101.956 68.0022C98.6752 68.0022 96.4585 65.7315 96.4585 62.467C96.4585 59.2035 98.6533 56.9977 101.828 56.9977C103.959 56.9977 105.365 57.7031 106.537 58.7174L108.284 56.3139C106.643 54.902 104.726 53.9978 101.828 53.9978C96.8426 53.9978 93.1356 57.527 93.1356 62.467ZM154.985 56.182C153.089 54.7702 151.342 53.9978 148.423 53.9978C143.352 53.9978 139.624 57.4827 139.624 62.467C139.624 67.4729 143.266 71.0021 148.423 71.0021C151.705 71.0021 153.962 69.8549 155.838 68.0692V61.8048H148.21V64.5843H152.854V66.7448C152.194 67.2968 150.83 68.0692 148.508 68.0692C145.206 68.0692 142.904 65.7315 142.904 62.467C142.904 59.2035 145.227 56.975 148.423 56.975C150.639 56.975 152.088 57.7257 153.238 58.5856L154.985 56.182ZM10.3178 63.5689C11.0849 63.5689 11.6181 63.6801 12.0649 64.0323C12.4917 64.3639 12.7891 64.8932 12.7891 65.6203C12.7891 66.3484 12.4917 66.8993 12.0649 67.2309C11.6181 67.5831 11.0849 67.6717 10.3178 67.6717H4.07588V63.5689H10.3178ZM9.7 57.3282C10.5954 57.3282 11.064 57.5043 11.3834 57.8133C11.6818 58.1449 11.8519 58.564 11.8519 59.0264C11.8519 59.4898 11.6818 59.9089 11.3834 60.2395C11.064 60.5474 10.5954 60.7245 9.7 60.7245H4.07588V57.3282H9.7ZM55.6789 70.6489H68.9737V67.6717H58.7899V63.5689H66.4168V60.7245H58.7899V57.3282H68.5478V54.351H55.6789V70.6489ZM167.812 57.7474L170.773 64.297H164.829L167.79 57.7474H167.812ZM163.615 67.1423H172.009L173.586 70.6489H177.037L169.388 54.351H166.278L158.628 70.6489H162.038L163.615 67.1423ZM115.802 54.351H112.691V70.6489H115.802V54.351ZM51.375 67.6717H43.8327V54.351H40.7217V70.6489H51.375V67.6717ZM76.9 65.7088C76.9 62.2466 76.7507 59.2035 76.7507 59.2035H76.7935C76.7935 59.2035 78.2421 61.3424 80.8845 64.7161L85.5296 70.6489H88.576V54.351H85.465V59.3796C85.465 62.8418 85.5923 65.9076 85.5923 65.9076H85.5505C85.5505 65.9076 84.101 63.7687 81.4804 60.3713L76.8363 54.351H73.7889V70.6489H76.9V65.7088ZM10.5307 70.6489C12.3205 70.6489 13.407 70.2524 14.2596 69.5686C15.3888 68.6644 16.0922 67.2525 16.0922 65.5544C16.0922 63.1508 14.5581 61.8718 13.2796 61.5402V61.4969C14.4944 60.9233 15.155 59.6216 15.155 58.3426C15.155 56.8875 14.6008 55.8731 13.7273 55.2336C12.8747 54.6157 11.7246 54.351 9.72188 54.351H0.964844V70.6489H10.5307Z" fill="#232323"/>
</g>
</svg>
