<svg width="178" height="125" viewBox="0 0 178 125" fill="none" xmlns="http://www.w3.org/2000/svg">
<g id="Property 1=burberry">
<path id="Vector" d="M131.34 73.8767L125.981 64.5299C128.355 63.4 129.866 61.0174 129.869 58.401C129.869 54.6401 126.79 51.5801 123.006 51.5801H111.544V73.8758H116.641V65.2219H120.698L125.66 73.8767H131.34ZM116.558 60.9178V55.8948H122.051L122.03 55.9034C123.702 55.9926 124.768 56.9562 124.768 58.4113C124.768 59.8505 123.626 60.8591 121.925 60.9191H116.558V60.9178ZM90.7276 73.8767V51.5801H107.485V55.8344H95.9626V60.295H106.066V64.644H95.9626V69.4002H108.056V73.8767H90.7276ZM66.8266 73.8767L61.4673 64.5299C63.8408 63.4 65.3525 61.017 65.3546 58.401C65.3546 54.6401 62.2765 51.5801 58.4932 51.5801H47.0303V73.8758H52.128V65.2219H56.1862L61.1471 73.8767H66.8266ZM52.043 60.9178V55.8948H57.5373L57.5158 55.9034C59.188 55.9926 60.2543 56.9562 60.2543 58.4113C60.2543 59.8505 59.1124 60.8591 57.4105 60.9191H52.043V60.9178ZM33.4464 74.4262C39.579 74.4262 43.2414 70.921 43.2414 65.0507V51.5964H38.0069V64.7028C38.0069 67.8769 36.3446 69.6975 33.4468 69.6975H33.4438C30.546 69.6975 28.8846 67.8773 28.8846 64.7028V51.5964H23.6479V65.0516C23.6479 70.9214 27.3104 74.4267 33.4438 74.4267L33.4464 74.4262ZM16.8016 61.5279C19.8224 62.5519 21.2948 65.1065 21.2948 67.5697C21.2948 71.0402 18.46 73.8655 14.9719 73.8767H2.58984V51.5784H13.994C16.9626 51.6058 19.3559 54.0043 19.3593 56.9557C19.3632 58.8175 18.3949 60.5481 16.8016 61.527V61.5279ZM7.72858 69.7164H13.4516C15.2507 69.7164 16.1919 68.3827 16.1919 67.064C16.1919 66.0018 15.3422 64.5063 13.4516 64.5063H7.72858V69.7164ZM11.9192 60.3473C13.2371 60.3473 14.2711 59.3353 14.2711 58.0432C14.2711 56.794 13.1923 55.7391 11.9184 55.7391H7.72858V60.3473H11.9192Z" fill="#232323"/>
<path id="Vector_2" d="M83.4223 61.5234C86.443 62.5466 87.9154 65.102 87.9154 67.5653C87.9154 71.0362 85.0807 73.8602 81.5926 73.8722L69.2109 73.8714V51.5739L80.6134 51.5735C83.5828 51.6014 85.9761 54.0003 85.9796 56.9521C85.983 58.8139 85.0151 60.544 83.4219 61.5226L83.4223 61.5234ZM74.3492 69.7119H80.0718C81.8709 69.7119 82.8121 68.3782 82.8121 67.0595C82.8121 65.9978 81.9615 64.5019 80.0718 64.5019H74.3492V69.7119ZM78.5386 60.3428C79.8582 60.3428 80.8922 59.3309 80.8922 58.0388C80.8922 56.7895 79.8133 55.7347 78.5386 55.7347H74.3492V60.3428H78.5386Z" fill="#232323"/>
<path id="Vector_3" d="M153.522 73.8765L148.163 64.5297C150.537 63.3997 152.048 61.0167 152.05 58.4007C152.05 54.6398 148.972 51.5798 145.189 51.5798H133.727V73.8756H138.824V65.2216H142.882L147.843 73.8765H153.523H153.522ZM138.739 60.9176V55.8946H144.233L144.212 55.9032C145.884 55.9924 146.951 56.9559 146.951 58.411C146.951 59.8503 145.809 60.8588 144.106 60.9189H138.739V60.9176ZM160.971 73.8765V64.7909L152.073 51.5798H158.609L163.731 59.2454L168.875 51.5798H175.412L166.492 64.7909V73.8765H160.971Z" fill="#232323"/>
</g>
</svg>
