<svg width="156" height="109" viewBox="0 0 156 109" fill="none" xmlns="http://www.w3.org/2000/svg">
<path d="M115.106 64.4207L110.409 56.2703C112.49 55.285 113.814 53.2074 113.817 50.9259C113.817 47.6464 111.118 44.9781 107.802 44.9781H97.7568V64.42H102.224V56.8737H105.78L110.128 64.4207H115.106ZM102.151 53.1206V48.7405H106.965L106.947 48.748C108.412 48.8258 109.346 49.666 109.346 50.9349C109.346 52.1899 108.346 53.0693 106.854 53.1217H102.151V53.1206ZM79.5132 64.4207V44.9781H94.1998V48.6878H84.1011V52.5774H92.9555V56.3698H84.1011V60.5172H94.6994V64.4207H79.5132ZM58.5662 64.4207L53.8693 56.2703C55.9494 55.285 57.2742 53.207 57.2761 50.9259C57.2761 47.6464 54.5784 44.9781 51.2627 44.9781H41.2166V64.42H45.6843V56.8737H49.2409L53.5887 64.4207H58.5662ZM45.6098 53.1206V48.7405H50.425L50.4061 48.748C51.8716 48.8258 52.8062 49.666 52.8062 50.9349C52.8062 52.1899 51.8055 53.0693 50.3138 53.1217H45.6098V53.1206ZM29.3116 64.8999C34.6862 64.8999 37.896 61.8433 37.896 56.7244V44.9923H33.3084V56.4211C33.3084 59.1889 31.8516 60.7764 29.312 60.7764H29.3094C26.7697 60.7764 25.3137 59.1892 25.3137 56.4211V44.9923H20.7242V56.7252C20.7242 61.8437 23.934 64.9003 29.3094 64.9003L29.3116 64.8999ZM14.7241 53.6525C17.3715 54.5455 18.6619 56.7731 18.6619 58.921C18.6619 61.9473 16.1775 64.411 13.1205 64.4207H2.2688V44.9766H12.2635C14.8651 45.0005 16.9626 47.092 16.9657 49.6656C16.9691 51.2891 16.1204 52.7981 14.7241 53.6518V53.6525ZM6.77241 60.7929H11.7881C13.3648 60.7929 14.1897 59.6299 14.1897 58.48C14.1897 57.5538 13.445 56.2497 11.7881 56.2497H6.77241V60.7929ZM10.4451 52.6231C11.6001 52.6231 12.5063 51.7406 12.5063 50.6139C12.5063 49.5246 11.5608 48.6047 10.4444 48.6047H6.77241V52.6231H10.4451Z" fill="#636363"/>
<path d="M73.1126 53.6485C75.76 54.5407 77.0504 56.7691 77.0504 58.917C77.0504 61.9437 74.566 64.4062 71.509 64.4167L60.6577 64.4159V44.9725L70.6509 44.9722C73.2533 44.9965 75.3508 47.0883 75.3538 49.6623C75.3568 51.2858 74.5085 52.7945 73.1122 53.6478L73.1126 53.6485ZM65.1609 60.7889H70.1763C71.753 60.7889 72.5778 59.6259 72.5778 58.476C72.5778 57.5501 71.8324 56.2457 70.1763 56.2457H65.1609V60.7889ZM68.8325 52.619C69.989 52.619 70.8952 51.7366 70.8952 50.6099C70.8952 49.5206 69.9497 48.6007 68.8325 48.6007H65.1609V52.619H68.8325Z" fill="#636363"/>
<path d="M134.547 64.4202L129.85 56.2698C131.93 55.2845 133.255 53.2065 133.257 50.9254C133.257 47.6458 130.559 44.9775 127.243 44.9775H117.198V64.4194H121.665V56.8732H125.222L129.569 64.4202H134.547H134.547ZM121.591 53.1201V48.74H126.406L126.387 48.7475C127.852 48.8253 128.787 49.6655 128.787 50.9343C128.787 52.1894 127.787 53.0688 126.295 53.1212H121.591V53.1201ZM141.075 64.4202V56.4976L133.277 44.9775H139.005L143.494 51.6619L148.002 44.9775H153.731L145.914 56.4976V64.4202H141.075Z" fill="#636363"/>
</svg>
