<svg width="156" height="109" viewBox="0 0 156 109" fill="none" xmlns="http://www.w3.org/2000/svg">
<path d="M128.054 60.594C128.008 60.3168 128.008 60.0755 129.381 59.6442C130.748 59.2181 134.075 58.0835 136.096 56.9591C138.117 55.8245 138.453 55.6653 138.928 55.9836C139.403 56.2968 139.265 57.0669 139.265 57.6111V63.1251C140.005 61.9032 142.434 57.837 144.362 56.6408C145.878 55.6961 146.414 55.6191 147.353 55.5986C148.48 55.578 151.144 56.2763 151.261 59.1051C151.353 61.3179 149.73 62.2061 148.7 62.0675C147.873 61.9494 147.281 61.1844 146.791 60.4143C146.296 59.6339 145.51 59.1719 144.725 59.4388C143.939 59.711 139.535 62.586 139.285 66.6727C139.107 69.6813 139.285 79.0612 139.285 79.0612C139.285 80.4833 139.826 81.0326 140.459 81.4126C141.086 81.7976 143.398 81.8182 144.046 81.9106C144.704 82.003 144.679 82.157 144.679 82.3624C144.679 82.5626 144.679 82.6601 144.097 82.6601H128.616C128.121 82.6601 127.922 82.5626 127.922 82.27C127.922 81.8644 128.57 81.9362 129.065 81.8644C129.56 81.7976 132.177 82.0133 132.927 80.6887C133.478 79.821 133.412 78.4246 133.412 78.4246L133.336 61.9494C133.336 60.6197 132.943 60.4246 132.58 60.2141C132.213 60.0036 131.606 59.8906 130.325 60.327C129.116 60.7275 128.284 61.1023 128.054 60.594Z" fill="#636363"/>
<path d="M73.9101 60.5992C73.7009 60.1936 74.0887 59.9318 75.2368 59.6289C76.5175 59.2849 79.324 58.4275 81.5488 57.1594C83.7735 55.8964 84.1562 55.7629 84.6256 55.9169C85.1002 56.0761 85.0543 56.913 85.0543 57.5906V78.9072C85.0543 80.1034 85.2125 80.6014 85.7482 81.0994C86.2891 81.5974 87.6362 81.8901 89.3864 81.8901C90.1773 81.8901 90.4222 81.9825 90.4222 82.3213C90.4222 82.6602 90.1773 82.6602 89.861 82.6602H74.4969C74.0224 82.6602 73.9101 82.4548 73.9101 82.2546C73.9101 82.003 74.1193 81.8439 74.8337 81.8439C75.4358 81.8439 78.2167 82.0544 78.8495 80.6014C79.0944 80.047 79.2117 79.2717 79.2117 78.5478V61.6363C79.2117 60.3528 78.2218 59.7829 77.0788 60.0601C75.7419 60.3682 74.1856 61.128 73.9101 60.5992Z" fill="#636363"/>
<path d="M81.7427 45.8542C83.8296 45.8542 85.5237 44.1497 85.5237 42.0551C85.5237 39.9552 83.8296 38.2559 81.7427 38.2559C79.6608 38.2559 77.9718 39.9552 77.9718 42.0551C77.9718 44.1497 79.6608 45.8542 81.7427 45.8542Z" fill="#636363"/>
<path d="M100.209 70.0302C100.969 76.9457 105.062 82.3262 110.134 81.4226C115.216 80.519 117.762 75.6365 117.15 67.8174C116.522 59.8648 112.614 55.8961 107.353 56.3736C101.913 56.8716 99.4436 63.1095 100.209 70.0302ZM105.24 55.1568C111.787 53.9247 121.099 55.3776 123.217 65.6868C125.329 75.9959 118.277 81.4842 112.159 82.8242C106.179 84.1283 96.0249 83.199 94.1879 72.1095C92.5346 62.1545 99.7141 56.1939 105.24 55.1568Z" fill="#636363"/>
<path d="M27.7314 80.9914H31.5278C45.6519 80.9914 49.4432 79.6719 54.4131 73.0285C59.3831 66.385 59.975 56.846 59.975 53.6218C59.975 50.3976 59.1229 42.3063 54.1529 35.4627C49.1778 28.619 40.8758 26.8426 33.6147 26.8426H27.7008C26.2975 26.8426 26.2261 27.4689 26.2261 28.4547V79.7387C26.2261 80.8579 26.619 80.9914 27.7314 80.9914ZM4.73376 82.1928C4.73376 81.6742 5.40221 81.5869 6.02473 81.5664C13.2144 81.361 14.5564 81.1095 15.3779 80.2521C15.8269 79.7798 16.4852 79.3947 16.4852 76.0422V29.9179C16.4852 25.7747 11.4846 26.4319 7.95354 26.0674C6.71359 25.9441 6.61154 25.7747 6.61154 25.4102C6.61154 25.0508 6.84626 24.8763 7.4943 24.8506H36.462C68.3127 24.8506 69.9405 48.2772 69.9405 54.5254C69.9405 67.9509 61.118 82.7164 42.677 82.7164H5.66245C5.20831 82.7164 4.73376 82.6548 4.73376 82.1928Z" fill="#636363"/>
</svg>
