<svg width="178" height="125" viewBox="0 0 178 125" fill="none" xmlns="http://www.w3.org/2000/svg">
<g id="Property 1=dior">
<path id="path2495" d="M146.112 69.4885C146.06 69.1705 146.06 68.8938 147.626 68.3993C149.186 67.9106 152.983 66.6094 155.288 65.32C157.594 64.0188 157.978 63.8363 158.52 64.2014C159.061 64.5605 158.904 65.4436 158.904 66.0677V72.3911C159.748 70.9898 162.519 66.3268 164.72 64.955C166.449 63.8716 167.061 63.7833 168.132 63.7598C169.419 63.7362 172.458 64.5369 172.592 67.7811C172.697 70.3186 170.845 71.3372 169.669 71.1782C168.726 71.0428 168.051 70.1656 167.492 69.2824C166.927 68.3875 166.03 67.8576 165.134 68.1638C164.237 68.4758 159.212 71.7729 158.927 76.4595C158.723 79.9097 158.927 90.6664 158.927 90.6664C158.927 92.2973 159.544 92.9273 160.266 93.363C160.982 93.8045 163.62 93.8281 164.359 93.9341C165.11 94.0401 165.081 94.2167 165.081 94.4522C165.081 94.6818 165.081 94.7937 164.417 94.7937H146.753C146.188 94.7937 145.961 94.6818 145.961 94.3462C145.961 93.8811 146.7 93.9635 147.265 93.8811C147.83 93.8045 150.817 94.0518 151.673 92.5328C152.301 91.5378 152.226 89.9364 152.226 89.9364L152.138 71.0428C152.138 69.5179 151.69 69.2942 151.277 69.0528C150.857 68.8114 150.165 68.6819 148.703 69.1823C147.323 69.6416 146.374 70.0714 146.112 69.4885Z" fill="#232323"/>
<path id="path2497" d="M84.3333 69.4945C84.0945 69.0293 84.537 68.7291 85.847 68.3817C87.3084 67.9872 90.5107 67.004 93.0492 65.5497C95.5877 64.1014 96.0243 63.9483 96.56 64.1249C97.1014 64.3074 97.049 65.2671 97.049 66.0443V90.4899C97.049 91.8617 97.2295 92.4328 97.8409 93.0039C98.458 93.575 99.9951 93.9106 101.992 93.9106C102.895 93.9106 103.174 94.0166 103.174 94.4052C103.174 94.7938 102.895 94.7938 102.534 94.7938H85.0028C84.4613 94.7938 84.3333 94.5583 84.3333 94.3286C84.3333 94.0401 84.572 93.8576 85.3871 93.8576C86.0741 93.8576 89.2472 94.099 89.9692 92.4328C90.2487 91.7969 90.3826 90.9079 90.3826 90.0777V70.6838C90.3826 69.2118 89.2531 68.5583 87.9489 68.8763C86.4234 69.2295 84.6477 70.1009 84.3333 69.4945Z" fill="#232323"/>
<path id="path2499" d="M93.2714 52.5851C95.6527 52.5851 97.5857 50.6304 97.5857 48.2282C97.5857 45.8202 95.6527 43.8713 93.2714 43.8713C90.8959 43.8713 88.9688 45.8202 88.9688 48.2282C88.9688 50.6304 90.8959 52.5851 93.2714 52.5851Z" fill="#232323"/>
<path id="path2501" d="M114.341 80.3101C115.209 88.2408 119.878 94.4111 125.665 93.3748C131.464 92.3386 134.37 86.7394 133.671 77.7725C132.955 68.6525 128.495 64.1013 122.492 64.6489C116.286 65.22 113.468 72.3735 114.341 80.3101ZM120.082 63.2535C127.552 61.8405 138.177 63.5067 140.594 75.3291C143.004 87.1516 134.958 93.4455 127.977 94.9822C121.153 96.4776 109.567 95.412 107.471 82.6946C105.584 71.2784 113.776 64.4428 120.082 63.2535Z" fill="#232323"/>
<path id="path2503" d="M31.6432 92.8802H35.975C52.091 92.8802 56.4169 91.3671 62.0878 83.7484C67.7586 76.1298 68.434 65.1905 68.434 61.493C68.434 57.7956 67.4617 48.5166 61.7908 40.6683C56.1141 32.8201 46.6413 30.7829 38.3563 30.7829H31.6083C30.0072 30.7829 29.9257 31.5012 29.9257 32.6317V91.4436C29.9257 92.7271 30.374 92.8802 31.6432 92.8802ZM5.40234 94.2579C5.40234 93.6632 6.16506 93.5632 6.87537 93.5396C15.0789 93.3041 16.6102 93.0156 17.5476 92.0324C18.0599 91.4907 18.811 91.0491 18.811 87.2045V34.3097C18.811 29.5583 13.1052 30.3119 9.07618 29.8939C7.66138 29.7526 7.54493 29.5583 7.54493 29.1403C7.54493 28.7282 7.81275 28.528 8.55218 28.4985H41.6051C77.9476 28.4985 79.8049 55.364 79.8049 62.5293C79.8049 77.9255 69.7382 94.8584 48.6966 94.8584H6.46199C5.94381 94.8584 5.40234 94.7878 5.40234 94.2579Z" fill="#232323"/>
</g>
</svg>
