<svg width="156" height="109" viewBox="0 0 156 109" fill="none" xmlns="http://www.w3.org/2000/svg">
<g clip-path="url(#clip0_3231_6825)">
<path fill-rule="evenodd" clip-rule="evenodd" d="M126.354 77.1673C126.354 94.7442 111.979 109.004 94.2589 109.004C89.1539 109.004 84.3428 107.84 80.001 105.686C75.717 107.782 70.8472 109.004 65.8018 109.004C48.081 109.004 33.7056 94.7442 33.7056 77.1673C33.7056 59.5904 48.081 45.3311 65.801 45.3311C70.9059 45.3311 75.717 46.4952 80.0001 48.5903C84.2841 46.4952 89.1539 45.3311 94.2589 45.3311C111.979 45.3311 126.354 59.5904 126.354 77.1673ZM120.018 77.1673C120.018 63.0828 108.458 51.6172 94.2589 51.6172C91.5599 51.6172 88.9197 52.0244 86.5138 52.7814C91.4424 56.855 95.022 62.3259 96.7816 68.612H90.1513C88.2889 63.3644 84.7442 58.8667 80.0598 55.8074C75.4241 58.8335 71.9032 63.316 70.0262 68.612H63.3959C65.1322 62.4131 68.7101 56.8764 73.6637 52.7231C71.1357 51.9501 68.5051 51.5577 65.8598 51.5589C51.6606 51.5589 40.1017 63.0245 40.1017 77.109C40.1017 91.1935 51.6606 102.66 65.8598 102.66C68.5587 102.66 71.1401 102.253 73.5461 101.496C67.1509 96.1998 62.9854 88.4006 62.3398 79.6705H77.595V85.8974L70.1428 86.014C72.0795 91.1361 75.5416 95.4437 80.0598 98.4115C84.577 95.4429 88.0391 91.1361 89.9758 86.014L82.5236 85.8974V79.6705H97.7797C97.0754 88.4006 92.8511 96.1415 86.455 101.438C88.9197 102.194 91.5599 102.66 94.2589 102.66C108.517 102.718 120.018 91.3101 120.018 77.1673Z" fill="#232323"/>
<path d="M121.025 6.48093L120.828 6.54607C120.061 4.89388 118.966 3.57859 117.541 2.60019C116.138 1.62236 114.375 1.13345 112.249 1.13345C111.066 1.13345 109.937 1.38348 108.863 1.88354C107.789 2.36131 106.847 3.04595 106.036 3.93749C105.247 4.80673 104.611 5.86114 104.13 7.10071C103.648 8.33914 103.406 9.70844 103.406 11.2086C103.406 12.7082 103.648 14.0775 104.13 15.3165C104.612 16.5555 105.248 17.6208 106.036 18.5123C106.847 19.3815 107.789 20.0553 108.862 20.5337C109.937 21.012 111.066 21.2512 112.249 21.2512C114.353 21.2512 116.062 20.9252 117.377 20.2731C118.713 19.5987 119.842 18.5769 120.763 17.2076L120.96 17.2727L120.894 19.3593C120.39 19.881 119.809 20.3485 119.152 20.7617C118.495 21.1532 117.783 21.4904 117.015 21.7733C116.27 22.0333 115.493 22.2287 114.682 22.3596C113.871 22.5116 113.06 22.5876 112.249 22.5876C110.562 22.5876 108.951 22.3162 107.417 21.7733C105.883 21.2292 104.535 20.4683 103.374 19.4904C102.212 18.4903 101.292 17.2947 100.612 15.9037C99.9331 14.491 99.5935 12.926 99.5935 11.2086C99.5935 9.49128 99.9334 7.93681 100.613 6.54522C101.292 5.13249 102.212 3.92634 103.374 2.9268C104.535 1.92668 105.883 1.16574 107.417 0.643967C108.951 0.101047 110.561 -0.17041 112.248 -0.17041C113.059 -0.17041 113.871 -0.105541 114.682 0.024188C115.493 0.15506 116.27 0.361649 117.015 0.643967C117.782 0.90514 118.494 1.24233 119.152 1.65552C119.809 2.04642 120.39 2.50276 120.894 3.02453L121.025 6.48093Z" fill="#232323"/>
<path d="M48.5898 12.7083C48.349 12.8169 48.1191 12.958 47.9002 13.1318C47.6813 13.3055 47.5718 13.5447 47.5718 13.8493V17.8603C46.5192 19.3599 45.171 20.5229 43.5272 21.3493C41.8841 22.1751 40.0655 22.588 38.0714 22.588C36.3839 22.588 34.773 22.3163 33.2387 21.7728C31.705 21.2293 30.3574 20.4683 29.1959 19.4899C28.0344 18.4898 27.114 17.2945 26.4347 15.9041C25.7554 14.4908 25.4158 12.9255 25.4158 11.2081C25.4158 9.49136 25.7557 7.93717 26.4356 6.54558C27.1143 5.13285 28.0344 3.92642 29.1959 2.92631C30.3574 1.92619 31.705 1.16554 33.2387 0.644342C34.773 0.100851 36.3839 -0.170898 38.0714 -0.170898C38.8821 -0.170898 39.6927 -0.105751 40.5033 0.02455C41.3145 0.154851 42.0923 0.361452 42.8367 0.644342C43.6042 0.904943 44.3166 1.24184 44.9739 1.65503C45.6313 2.0465 46.2121 2.50284 46.7162 3.02405L46.8484 6.48044L46.6505 6.54558C45.8843 4.89396 44.7887 3.57896 43.3639 2.60057C41.961 1.62217 40.1968 1.13296 38.0714 1.13296C36.888 1.13296 35.7593 1.38299 34.6854 1.88305C33.612 2.36139 32.67 3.04604 31.8594 3.937C31.0701 4.80681 30.4343 5.86122 29.9521 7.10022C29.4698 8.33922 29.2287 9.70853 29.2287 11.2081C29.2287 12.686 29.4592 14.0445 29.9201 15.2835C30.4017 16.523 31.0369 17.5883 31.8257 18.4792C32.6369 19.3485 33.5792 20.0331 34.6526 20.5332C35.7265 21.0115 36.8661 21.2507 38.0714 21.2507C40.3507 21.2507 42.3009 20.8161 43.9222 19.9469V13.8493C43.9222 13.5453 43.8018 13.3061 43.5609 13.1318C43.342 12.958 43.1231 12.8166 42.9041 12.7074L42.9335 12.5446C43.043 12.5646 43.2403 12.5863 43.5255 12.6097C43.8107 12.6297 44.1066 12.6514 44.4131 12.6749H47.2399C47.5032 12.6549 47.7553 12.6331 47.9961 12.6097C48.2369 12.5897 48.423 12.568 48.5544 12.5446L48.5898 12.7083Z" fill="#232323"/>
<path d="M72.3991 0.513464C72.1801 0.622048 71.9612 0.763489 71.7423 0.937794C71.5227 1.11153 71.402 1.43756 71.3802 1.9159C71.36 2.43767 71.3381 3.10061 71.3145 3.90471C71.3145 4.68765 71.3047 5.57918 71.2851 6.5793C71.2851 7.57884 71.275 8.66554 71.2548 9.83939V13.4912C71.2347 14.904 71.0592 16.1104 70.7285 17.1105C70.4001 18.1106 69.962 18.9473 69.4141 19.6205C68.888 20.2949 68.2963 20.8275 67.6389 21.2184C67.0035 21.6099 66.368 21.9034 65.7325 22.0988C65.1189 22.316 64.5381 22.4466 63.9902 22.4906C63.4423 22.5557 63.0148 22.5883 62.7077 22.5883C61.4586 22.5883 60.2533 22.4254 59.0918 22.0997C57.9303 21.7951 56.9114 21.295 56.0351 20.5995C55.1587 19.9034 54.4576 19.0013 53.9315 17.8932C53.4055 16.7845 53.1425 15.4366 53.1425 13.8496V10.1651V6.77389C53.1425 5.73092 53.1324 4.79652 53.1123 3.97071C53.1123 3.12261 53.1022 2.43767 53.082 1.9159C53.0624 1.43756 52.942 1.11181 52.7208 0.938645C52.5018 0.764339 52.2829 0.622619 52.064 0.513464L52.0933 0.350586C52.2028 0.370588 52.3785 0.392295 52.6205 0.415727C52.8832 0.435729 53.146 0.457449 53.4087 0.48088C53.6939 0.48088 53.9676 0.490885 54.2297 0.510887H55.4137C55.677 0.490885 55.9509 0.48088 56.2356 0.48088C56.5208 0.460878 56.7838 0.439158 57.0246 0.415727C57.2873 0.395724 57.4734 0.374017 57.5829 0.350586L57.6131 0.513464C57.3723 0.622048 57.1421 0.763489 56.9226 0.937794C56.7256 1.11153 56.6161 1.43756 56.5942 1.9159C56.574 2.43767 56.5521 3.12233 56.5285 3.96986V13.8496C56.5285 16.219 57.0874 17.9689 58.2051 19.0993C59.3228 20.2297 60.9772 20.7949 63.1683 20.7949C63.8038 20.7949 64.5269 20.7186 65.3375 20.5661C66.1487 20.3923 66.9049 20.0446 67.6061 19.5228C68.3292 19.001 68.9318 18.2621 69.4141 17.306C69.9182 16.3493 70.1702 15.0777 70.1702 13.4912C70.1702 11.7739 70.1602 10.3066 70.14 9.08931C70.14 7.85031 70.1299 6.7959 70.1097 5.92608C70.1097 5.03455 70.0997 4.27389 70.0795 3.6441C70.0599 3.01375 70.038 2.43767 70.0138 1.9159C69.9942 1.43756 69.8738 1.11153 69.6526 0.937794C69.4336 0.76406 69.2147 0.622619 68.9958 0.513464L69.0252 0.350586C69.2666 0.39402 69.5405 0.437739 69.847 0.481744C70.1541 0.501175 70.4393 0.510887 70.7026 0.510887C70.9429 0.510887 71.2165 0.501175 71.5236 0.481744C71.852 0.43831 72.1369 0.394591 72.3783 0.350586L72.3991 0.513464Z" fill="#232323"/>
<path d="M96.2515 6.48093L96.0545 6.54607C95.287 4.89388 94.1912 3.57859 92.767 2.60019C91.3646 1.62236 89.6005 1.13345 87.4745 1.13345C86.2917 1.13345 85.1633 1.38348 84.0893 1.88354C83.0154 2.36131 82.0731 3.04595 81.2625 3.93749C80.4732 4.80673 79.8377 5.86114 79.356 7.10071C78.8738 8.33914 78.6327 9.70844 78.6327 11.2086C78.6327 12.7082 78.8738 14.0775 79.356 15.3165C79.8377 16.5555 80.4732 17.6208 81.2625 18.5123C82.0731 19.3815 83.0151 20.0553 84.0885 20.5337C85.163 21.012 86.2917 21.2512 87.4745 21.2512C89.5786 21.2512 91.288 20.9252 92.6028 20.2731C93.9394 19.5987 95.0681 18.5769 95.9888 17.2076L96.1858 17.2727L96.1201 19.3593C95.616 19.881 95.0353 20.3485 94.3779 20.7617C93.7211 21.1532 93.009 21.4904 92.2415 21.7733C91.4966 22.0333 90.7188 22.2287 89.9081 22.3596C89.0969 22.5116 88.286 22.5876 87.4754 22.5876C85.7872 22.5876 84.1763 22.3162 82.6426 21.7733C81.1089 21.2292 79.7613 20.4683 78.5998 19.4904C77.4383 18.4903 76.5179 17.2947 75.8386 15.9037C75.1588 14.491 74.8188 12.926 74.8188 11.2086C74.8188 9.49128 75.1588 7.93681 75.8386 6.54522C76.5185 5.13249 77.4389 3.92634 78.5998 2.9268C79.7613 1.92668 81.1089 1.16574 82.6426 0.643967C84.1769 0.101047 85.7878 -0.17041 87.4754 -0.17041C88.286 -0.17041 89.0966 -0.105541 89.9073 0.024188C90.7185 0.15506 91.4963 0.361649 92.2407 0.643967C93.0081 0.90514 93.7205 1.24233 94.3779 1.65552C95.0353 2.04642 95.616 2.50276 96.1201 3.02453L96.2515 6.48093Z" fill="#232323"/>
<path d="M130.933 22.0327C130.824 22.0132 130.637 21.9918 130.375 21.9684C130.134 21.9684 129.871 21.9584 129.586 21.9384C129.3 21.9384 129.027 21.9287 128.764 21.9092H126.792C126.529 21.9287 126.266 21.9501 126.003 21.9735C125.762 21.9935 125.576 22.0152 125.444 22.0387L125.414 21.9084C125.633 21.7998 125.852 21.6583 126.071 21.484C126.29 21.3103 126.411 20.9843 126.433 20.5059C126.453 19.9841 126.463 19.4407 126.463 18.8755C126.483 18.3102 126.493 17.669 126.493 16.9518V14.5061V11.2134V7.91991V5.44248C126.493 4.72468 126.483 4.09404 126.463 3.55055C126.463 2.98534 126.453 2.44213 126.433 1.92093C126.413 1.44259 126.292 1.11655 126.072 0.942813C125.853 0.74679 125.634 0.594483 125.415 0.485899L125.444 0.355604C125.576 0.399038 125.762 0.431612 126.003 0.453328C126.266 0.453328 126.529 0.463333 126.792 0.483335C127.077 0.503337 127.351 0.513342 127.614 0.513342H128.764C129.027 0.493339 129.3 0.483335 129.585 0.483335C129.871 0.463333 130.134 0.441612 130.375 0.418181C130.637 0.398179 130.824 0.376459 130.933 0.353027L130.963 0.484185C130.722 0.592769 130.492 0.744798 130.273 0.940249C130.076 1.11398 129.966 1.43973 129.944 1.9175C129.924 2.43985 129.902 2.98363 129.879 3.54883V18.8737C129.899 19.4384 129.921 19.9816 129.944 20.5034C129.964 20.9817 130.073 21.3077 130.273 21.4815C130.492 21.6552 130.722 21.7966 130.963 21.9058L130.933 22.0327Z" fill="#232323"/>
</g>
<defs>
<clipPath id="clip0_3231_6825">
<rect width="156" height="109" fill="white"/>
</clipPath>
</defs>
</svg>
