<svg width="156" height="109" viewBox="0 0 156 109" fill="none" xmlns="http://www.w3.org/2000/svg">
<g clip-path="url(#clip0_3231_4144)">
<path d="M17.208 81.9452C12.5598 81.7598 8.75692 80.4831 5.78337 78.1119C5.21589 77.6589 3.86362 76.3007 3.40995 75.7278C2.20413 74.2058 1.38434 72.7246 0.837544 71.0812C-0.845026 66.0223 0.0209324 59.3839 3.31444 52.0984C6.13437 45.861 10.4857 39.6748 18.0771 31.107C19.1954 29.8463 22.5255 26.1592 22.547 26.1592C22.5549 26.1592 22.3735 26.4748 22.145 26.8591C20.1712 30.1778 18.4822 34.087 17.5622 37.4714C16.0841 42.9018 16.2624 47.562 18.0843 51.1756C19.341 53.6651 21.4956 55.8214 23.9184 57.0134C28.1598 59.0995 34.3695 59.2721 41.953 57.5184C42.4752 57.3969 68.3472 50.5029 99.4469 42.1979C130.547 33.8921 155.996 27.1019 156 27.1075C156.009 27.1147 83.7467 58.1535 46.2343 74.2562C40.2935 76.8056 38.7049 77.4495 35.912 78.4338C28.7726 80.9505 22.3775 82.1513 17.208 81.9452Z" fill="#545454"/>
</g>
<defs>
<clipPath id="clip0_3231_4144">
<rect width="156" height="109" fill="white"/>
</clipPath>
</defs>
</svg>
