<svg width="178" height="125" viewBox="0 0 178 125" fill="none" xmlns="http://www.w3.org/2000/svg">
<g id="Property 1=nike" clip-path="url(#clip0_362_7009)">
<path id="Vector" d="M19.6347 93.9736C14.3311 93.761 9.99187 92.2969 6.59898 89.5775C5.95146 89.0581 4.40849 87.5005 3.89084 86.8435C2.51497 85.0982 1.57957 83.3995 0.955659 81.5148C-0.964196 75.7134 0.0238844 68.1005 3.78186 59.7456C6.99948 52.5927 11.9644 45.4984 20.6264 35.6729C21.9024 34.2271 25.7022 29.9988 25.7267 29.9988C25.7358 29.9988 25.5287 30.3607 25.2681 30.8014C23.0158 34.6073 21.0887 39.0904 20.0389 42.9715C18.3524 49.199 18.5558 54.5433 20.6346 58.6873C22.0686 61.5422 24.527 64.0151 27.2914 65.3821C32.131 67.7743 39.2165 67.9723 47.8695 65.9612C48.4652 65.8219 77.986 57.9159 113.471 48.3918C148.957 38.8668 177.995 31.0799 178 31.0863C178.01 31.0946 95.5571 66.6895 52.7545 85.1559C45.976 88.0795 44.1633 88.818 40.9765 89.9468C32.8303 92.8328 25.5332 94.2099 19.6347 93.9736Z" fill="#232323"/>
</g>
<defs>
<clipPath id="clip0_362_7009">
<rect width="178" height="125" fill="white"/>
</clipPath>
</defs>
</svg>
