<svg width="178" height="125" viewBox="0 0 178 125" fill="none" xmlns="http://www.w3.org/2000/svg">
<g id="Property 1=off-white" clip-path="url(#clip0_362_6995)">
<path id="Vector" d="M16.6226 71.2753C17.7769 69.6521 18.4695 67.5652 18.4695 64.7826C18.4695 62 17.7769 59.913 16.6226 58.2898C15.4682 56.6666 13.8521 55.971 11.7743 55.971C9.6965 55.971 8.08042 56.6666 6.92607 58.2898C5.77173 59.913 5.07912 62 5.07912 64.7826C5.07912 67.5652 5.77173 69.6521 6.92607 71.2753C8.08042 72.8985 9.6965 73.5942 11.7743 73.5942C13.8521 73.5942 15.4682 72.6666 16.6226 71.2753ZM19.8547 74.9855C18.0078 76.8405 15.2374 78 11.7743 78C8.31128 78 5.54086 77.0724 3.6939 74.9855C1.15435 72.6666 0 69.1884 0 64.7826C0 60.1449 1.15435 56.8985 3.6939 54.5797C5.54086 52.7246 8.31128 51.5652 11.7743 51.5652C15.2374 51.5652 18.0078 52.4927 19.8547 54.5797C22.3943 56.8985 23.5486 60.3768 23.5486 64.7826C23.5486 69.1884 22.3943 72.6666 19.8547 74.9855Z" fill="#232323"/>
<path id="Vector_2" d="M34.6297 52.0291C34.8606 52.0291 35.3223 52.0291 35.5532 52.0291V55.9711C35.3223 55.9711 34.8606 55.9711 34.168 55.9711C33.4753 55.9711 33.0136 56.203 32.7827 56.4349C32.5519 56.6667 32.321 57.1305 32.321 57.3624V58.9856H35.5532V62.4638H32.321V77.3044H27.4728V62.4638H25.1641V58.9856H27.7036V57.8262C27.7036 55.9711 27.9345 54.5798 28.6271 53.6522C29.3197 52.4928 30.9358 52.0291 33.7062 52.0291C34.168 52.0291 34.3988 52.0291 34.6297 52.0291Z" fill="#232323"/>
<path id="Vector_3" d="M46.1727 52.0291C46.4035 52.0291 46.8653 52.0291 47.0961 52.0291V55.9711C46.8653 55.9711 46.4035 55.9711 45.7109 55.9711C45.0183 55.9711 44.5566 56.203 44.3257 56.4349C44.0948 56.6667 43.864 57.1305 43.864 57.3624V58.9856H47.0961V62.4638H43.864V77.3044H39.0157V62.4638H36.707V58.9856H39.2466V57.8262C39.2466 55.9711 39.4775 54.5798 40.1701 53.6522C40.8627 52.4928 42.4788 52.0291 45.2492 52.0291C45.4801 52.0291 45.9418 52.0291 46.1727 52.0291Z" fill="#232323"/>
<path id="Vector_4" d="M57.9481 65.2463H48.4824V69.884H57.9481V65.2463Z" fill="#232323"/>
<path id="Vector_5" d="M65.1053 52.261L68.3375 66.6378L69.0301 70.5798L69.7227 66.6378L72.724 52.261H78.034L81.0353 66.6378L81.7279 70.5798L82.4205 66.6378L85.8835 52.261H91.1935L84.0366 77.0726H79.1883L76.187 62.6958L75.2635 57.8262L74.3401 62.6958L71.5696 77.0726H66.7214L59.5645 52.261H65.1053Z" fill="#232323"/>
<path id="Vector_6" d="M106.894 58.9854C107.817 59.4492 108.51 59.913 109.202 60.8405C109.664 61.5362 109.895 62.2318 110.126 62.9275C110.126 63.6231 110.357 64.7825 110.357 66.4057V77.3043H105.508V66.1738C105.508 65.2463 105.277 64.3188 105.047 63.855C104.585 62.9275 103.892 62.4637 102.507 62.4637C101.353 62.4637 100.198 62.9275 99.7366 63.6231C99.044 64.5506 98.8131 65.7101 98.8131 67.3333V77.3043H93.9648V52.4927H98.8131V61.3043C99.5057 60.1448 100.198 59.4492 101.122 58.9854C102.045 58.5217 102.969 58.2898 103.892 58.2898C105.047 58.2898 105.97 58.5217 106.894 58.9854Z" fill="#232323"/>
<path id="Vector_7" d="M114.742 58.7537H119.59V77.0726H114.742V58.7537ZM119.59 56.6668H114.742V52.261H119.59V56.6668Z" fill="#232323"/>
<path id="Vector_8" d="M122.359 62.4637V58.9855H124.899V53.884H129.516V58.9855H132.518V62.4637H129.516V72.2029C129.516 72.8985 129.516 73.3623 129.747 73.5942C129.978 73.8261 130.44 73.8261 131.594 73.8261C131.825 73.8261 131.825 73.8261 132.056 73.8261C132.287 73.8261 132.287 73.8261 132.518 73.8261V77.3043H130.209C127.9 77.3043 126.515 77.0724 125.592 76.1449C125.13 75.6811 124.899 74.7536 124.899 73.5942V62.2319L122.359 62.4637Z" fill="#232323"/>
<path id="Vector_9" d="M140.6 63.3912C139.907 64.0869 139.445 65.0144 139.214 66.1739H147.526C147.526 65.0144 147.064 63.855 146.14 63.1594C145.448 62.4637 144.524 62.2318 143.37 62.2318C142.216 62.2318 141.292 62.6956 140.6 63.3912ZM147.756 59.2173C149.142 59.6811 150.065 60.6086 150.989 61.9999C151.681 63.1594 152.143 64.3188 152.374 65.7101C152.605 66.6376 152.605 67.797 152.605 69.4202H139.214C139.214 71.2753 139.907 72.6666 141.061 73.3623C141.754 73.826 142.677 74.0579 143.601 74.0579C144.755 74.0579 145.679 73.826 146.14 73.1304C146.602 72.8985 146.833 72.4347 147.064 71.971H151.912C151.681 73.1304 151.219 74.0579 150.065 75.2173C148.449 77.0724 146.14 77.9999 143.139 77.9999C140.599 77.9999 138.522 77.3043 136.675 75.6811C134.828 74.2898 133.904 71.7391 133.904 68.2608C133.904 65.0144 134.828 62.6956 136.444 60.8405C138.06 59.2173 140.369 58.2898 142.908 58.2898C144.986 58.2898 146.371 58.5217 147.756 59.2173Z" fill="#232323"/>
<path id="Vector_10" d="M163.226 46V48.3188H159.301V59.4493H156.531V48.3188H152.375V46H163.226Z" fill="#232323"/>
<path id="Vector_11" d="M173.844 46H177.999V59.4493H175.229V50.4058C175.229 50.1739 175.229 49.7101 175.229 49.2464C175.229 48.7826 175.229 48.3188 175.229 48.087L172.689 59.4493H169.919L167.379 48.087C167.379 48.3188 167.379 48.7826 167.379 49.2464C167.379 49.7101 167.379 50.1739 167.379 50.4058V59.4493H164.84V46H168.995L171.535 56.6667L173.844 46Z" fill="#232323"/>
</g>
<defs>
<clipPath id="clip0_362_6995">
<rect width="178" height="125" fill="white"/>
</clipPath>
</defs>
</svg>
