<svg width="156" height="109" viewBox="0 0 156 109" fill="none" xmlns="http://www.w3.org/2000/svg">
<path d="M2.83165 67.142H0.641611C0.45888 67.142 0.00170898 67.142 0.00170898 66.8658C0.00170898 66.6829 0.093417 66.5897 0.367172 66.4972C2.37722 65.8518 2.83097 64.7473 2.83097 63.1838V46.6904C2.83097 45.2159 2.3738 44.1107 0.367172 43.3769C0.093417 43.3769 0.00170898 43.1926 0.00170898 43.1008C0.00170898 42.7329 0.45888 42.8247 0.641611 42.8247H18.7238C22.8336 42.8247 26.2138 46.1381 26.2138 50.2861C26.2138 54.4342 22.8336 57.7435 18.7238 57.7435H9.59067V63.3632C9.68237 64.837 10.1382 65.8483 12.0545 66.4951C12.3282 66.5876 12.4192 66.6801 12.4192 66.8638C12.4192 67.1399 11.9628 67.1399 11.78 67.1399H2.83165V67.142ZM137.642 58.206H141.935L137.642 50.8356L137.184 50.0984L133.352 58.206H137.642ZM137.642 42.7301H140.565L152.803 64.4746C153.169 65.0269 153.624 65.5791 154.172 65.8552C154.628 66.2245 155.176 66.3177 155.632 66.5007C155.816 66.5939 155.998 66.6864 155.998 66.87C155.998 67.1461 155.541 67.1461 155.358 67.1461H144.49C144.308 67.1461 143.758 67.1461 143.758 66.87C143.758 66.6864 143.941 66.5939 144.126 66.5007C144.673 66.3177 145.037 66.0409 145.221 65.4887C145.404 64.8426 145.221 64.476 144.764 63.6449C144.144 62.3154 143.505 60.995 142.848 59.6839H132.618L132.528 59.8675C132.436 60.2369 131.707 61.5243 131.159 62.9083C130.43 64.3821 130.155 64.7501 130.338 65.4873C130.43 66.0395 130.885 66.3157 131.433 66.5C131.617 66.5932 131.707 66.6857 131.707 66.8686C131.707 67.1447 131.249 67.1447 131.067 67.1447H126.043C125.861 67.1447 125.403 67.1447 125.403 66.8686C125.403 66.6857 125.495 66.5925 125.768 66.5C126.226 66.3164 126.772 66.2239 127.229 65.8545C127.777 65.5784 128.235 65.0262 128.598 64.4739L129.238 63.0933L136.18 48.441L135.174 46.6904C134.262 45.2159 133.348 44.295 132.343 43.7421C131.887 43.466 131.429 43.466 130.974 43.2817C130.701 43.1891 130.608 43.0966 130.701 42.9123C130.701 42.728 130.883 42.8205 130.974 42.728H137.643L137.642 42.7301ZM110.335 67.0488H110.701C127.507 67.0488 127.325 42.8191 110.701 42.8191H96.9096C96.6359 42.8191 96.1801 42.7266 96.1801 43.0953C96.1801 43.1871 96.3621 43.3714 96.5442 43.3714C98.5535 44.0161 99.008 45.122 99.1011 46.5047V63.3681C99.0107 64.8412 98.5535 65.8532 96.5442 66.4993C96.3621 66.5925 96.1801 66.685 96.1801 66.8686C96.1801 67.1447 96.6366 67.1447 96.9096 67.1447H105.769V67.0515H110.335V67.0488ZM110.335 44.5711C111.569 44.576 112.751 45.0725 113.624 45.9525C114.497 46.8325 114.99 48.0246 114.995 49.2693V60.5088C114.99 61.7536 114.497 62.9459 113.624 63.8259C112.752 64.7059 111.569 65.2023 110.335 65.207H105.766V44.5711H110.335ZM75.5349 58.206H79.8273L75.5349 50.8356L75.0777 50.0984L71.2451 58.206H75.5349ZM75.5349 42.7301H78.5462L90.7851 64.4746C91.0588 65.0269 91.516 65.5791 92.0642 65.8552C92.52 66.2245 93.0695 66.3177 93.6171 66.5007C93.7991 66.5939 93.9811 66.6864 93.9811 66.87C93.9811 67.1461 93.4336 67.1461 93.2516 67.1461H82.3869C82.2035 67.1461 81.747 67.1461 81.747 66.87C81.747 66.6864 81.8374 66.5939 82.1111 66.5007C82.569 66.3177 83.0241 66.0409 83.1165 65.4887C83.2985 64.8426 83.1165 64.476 82.751 63.6449C82.1111 62.2643 81.3823 60.9734 80.743 59.6839H70.5108L70.4197 59.8675C70.3287 60.2369 69.6888 61.5243 69.051 62.9083C68.4117 64.3821 68.047 64.7501 68.2297 65.4873C68.4124 66.0395 68.7772 66.3157 69.3247 66.5C69.5068 66.5932 69.6895 66.6857 69.6895 66.8686C69.6895 67.1447 69.233 67.1447 68.9599 67.1447H64.0262C63.8435 67.1447 63.2953 67.1447 63.2953 66.8686C63.2953 66.6857 63.478 66.5925 63.6607 66.5C64.2082 66.3164 64.6654 66.2239 65.2143 65.8545C65.6701 65.5784 66.219 65.0262 66.492 64.4739L67.1313 63.0933L74.1647 48.441L73.1614 46.6904C72.2484 45.2159 71.2451 44.295 70.3301 43.7421C69.7826 43.466 69.4164 43.466 68.8682 43.2817C68.6848 43.1891 68.5021 43.0966 68.5945 42.9123C68.6869 42.728 68.8682 42.8205 68.9606 42.728H75.5362L75.5349 42.7301ZM45.3937 58.8514C47.4948 59.5873 50.0524 59.7709 52.061 59.1275L60.0081 66.0375L60.6474 66.5897C60.6823 66.6258 60.7087 66.6694 60.7247 66.7172C60.7407 66.765 60.7458 66.8158 60.7398 66.8658C60.7398 67.142 60.2826 67.142 60.0992 67.142H51.6969L45.3951 61.8908L40.2793 57.7442V63.4571C40.3717 64.8377 40.9192 65.8518 42.8369 66.4945C43.0196 66.5876 43.1106 66.6795 43.1106 66.8631C43.1106 67.1392 42.6534 67.1392 42.47 67.1392H31.4192C31.1455 67.1392 30.6883 67.1392 30.6883 66.8631C30.6883 66.6795 30.8717 66.587 31.0531 66.4945C33.2431 65.7586 33.5169 64.6527 33.6106 62.9049V46.9665C33.5189 45.3098 33.2452 44.1107 31.0531 43.3769C30.8703 43.3769 30.6883 43.1926 30.6883 43.1008C30.6883 42.7329 31.1455 42.8247 31.4192 42.8247H49.2297C50.1972 42.8205 51.156 43.0086 52.0514 43.3782C52.9468 43.7478 53.7613 44.2917 54.4483 44.9788C55.1353 45.6659 55.6814 46.4827 56.0554 47.3827C56.4293 48.2827 56.6239 49.2482 56.6279 50.224V50.2861C56.6349 52.2559 55.8661 54.1479 54.4907 55.5462C53.1152 56.9446 51.2456 57.7349 49.2927 57.7435H43.4754C43.7491 58.2957 44.3884 58.4807 44.9359 58.7575C45.1193 58.7575 45.2096 58.8514 45.393 58.8514H45.3937ZM45.3937 55.9956H46.1281C48.5022 55.9956 50.5123 53.4153 50.5123 50.0984C50.5082 46.874 48.4988 44.295 46.1281 44.295H40.2786V55.9956H45.3937ZM14.7961 44.2957H9.59067V55.9963H15.6194C18.0832 55.9963 19.9995 53.416 19.9995 50.0991C19.9995 46.8754 18.0832 44.2957 15.6194 44.2957H14.7961Z" fill="#636363"/>
</svg>
