<svg width="156" height="109" viewBox="0 0 156 109" fill="none" xmlns="http://www.w3.org/2000/svg">
<path fill-rule="evenodd" clip-rule="evenodd" d="M9.7138 32.2642C4.40194 32.2642 0.0958252 36.5449 0.0958252 41.8256V66.3028C0.0958252 71.5833 4.40194 75.8642 9.7138 75.8642H34.3358C39.6477 75.8642 43.9538 71.5833 43.9538 66.3028V41.8256C43.9538 36.5449 39.6477 32.2642 34.3358 32.2642H9.7138ZM30.4282 54.0095C31.8053 53.6481 33.0306 52.6078 33.0306 50.5163C33.0306 47.0342 30.1029 46.2239 26.3511 46.2239H11.4092V61.9045H17.6983V56.5828H25.1584C26.3078 56.5828 26.9801 57.0426 26.9801 58.1815V61.9045H33.2691V57.9844C33.2691 55.8491 32.0763 54.5022 30.4282 54.0095ZM26.2032 50.6049H17.7011V52.7429H26.2032C26.2159 52.7433 26.2286 52.7429 26.2414 52.7429C26.826 52.7429 27.3 52.2643 27.3 51.6739C27.3 51.0835 26.826 50.6049 26.2414 50.6049C26.2286 50.6049 26.2159 50.6044 26.2032 50.6049Z" fill="#545454"/>
<path fill-rule="evenodd" clip-rule="evenodd" d="M131.071 57.5947C131.071 62.1694 128.412 65.3183 123.901 65.3183C122.049 65.3183 120.345 64.546 119.598 63.3577V65.0807H115.834V44.0483H119.598V51.7721C120.465 50.6432 122.078 49.8709 123.96 49.8709C128.412 49.8709 131.071 53.0198 131.071 57.5947ZM119.36 57.5947C119.36 60.298 120.943 62.0803 123.363 62.0803C125.753 62.0803 127.337 60.298 127.337 57.5947C127.337 54.8913 125.753 53.1089 123.363 53.1089C120.943 53.1089 119.36 54.8913 119.36 57.5947Z" fill="#545454"/>
<path fill-rule="evenodd" clip-rule="evenodd" d="M77.3959 65.0807L72.7977 55.7826C74.8592 54.7725 76.0841 52.7822 76.0841 50.4354C76.0841 46.6924 73.4251 44.2861 69.3321 44.2861H59.3481L59.3781 65.0807H63.4411V56.555H68.645L72.6755 65.0807H77.3959ZM63.4411 47.7617H68.7048C70.7961 47.7617 71.9911 48.7718 71.9911 50.4354C71.9911 52.099 70.7961 53.0793 68.7048 53.0793H63.4411V47.7617Z" fill="#545454"/>
<path fill-rule="evenodd" clip-rule="evenodd" d="M89.7599 50.1087H93.5242V65.0809H89.7599V63.3579C89.0129 64.5462 87.3399 65.3185 85.4577 65.3185C80.9465 65.3185 78.2876 62.1696 78.2876 57.5948C78.2876 53.02 80.9465 49.8711 85.398 49.8711C87.2802 49.8711 88.8934 50.6434 89.7599 51.7723V50.1087ZM82.0221 57.5948C82.0221 60.2981 83.6054 62.0805 85.9955 62.0805C88.4155 62.0805 89.9988 60.2981 89.9988 57.5948C89.9988 54.8914 88.4155 53.1091 85.9955 53.1091C83.6054 53.1091 82.0221 54.8914 82.0221 57.5948Z" fill="#545454"/>
<path d="M106.832 50.1087L106.594 53.733C106.056 53.4952 105.339 53.3764 104.682 53.3764C102.56 53.3764 100.648 55.1292 100.648 59.5852V65.0809H96.8838V50.1087H100.648V52.8417C101.395 51.1485 103.367 49.8711 105.19 49.8711C105.727 49.8711 106.384 49.9602 106.832 50.1087Z" fill="#545454"/>
<path d="M112.487 65.0805H108.722V50.1084H112.487V65.0805Z" fill="#232323"/>
<path d="M133.624 65.0807H137.388V44.0483H133.624V65.0807Z" fill="#232323"/>
<path fill-rule="evenodd" clip-rule="evenodd" d="M154.926 57.0898C154.926 53.6141 152.447 49.8711 147.368 49.8711C142.379 49.8711 139.929 53.7032 139.929 57.5948C139.929 61.4863 142.588 65.3185 147.578 65.3185C151.103 65.3185 153.731 63.6549 154.568 60.8328L151.042 59.8821C150.655 61.3378 149.4 62.1696 147.637 62.1696C145.486 62.1696 144.022 60.8328 143.693 58.5751H154.867C154.897 58.2781 154.926 57.6245 154.926 57.0898ZM143.783 55.8421C144.201 53.822 145.516 52.7229 147.368 52.7229C149.549 52.7229 150.714 54.0597 150.893 55.8421H143.783Z" fill="#232323"/>
<path d="M108.276 44.8202C108.276 43.8698 109.049 43.0991 110.002 43.0991H111.237C112.19 43.0991 112.963 43.8698 112.963 44.8202V46.0516C112.963 47.0021 112.19 47.7726 111.237 47.7726H110.002C109.049 47.7726 108.276 47.0021 108.276 46.0516V44.8202Z" fill="#232323"/>
</svg>
