<svg width="178" height="125" viewBox="0 0 178 125" fill="none" xmlns="http://www.w3.org/2000/svg">
<g id="Property 1=rarible">
<path id="Vector" fill-rule="evenodd" clip-rule="evenodd" d="M11.0837 37C5.02277 37 0.109375 41.9092 0.109375 47.9649V76.0351C0.109375 82.0908 5.02277 87 11.0837 87H39.178C45.2391 87 50.1525 82.0908 50.1525 76.0351V47.9649C50.1525 41.9092 45.2391 37 39.178 37H11.0837ZM34.7194 61.9373C36.2907 61.5228 37.6888 60.3299 37.6888 57.9314C37.6888 53.9381 34.3482 53.0089 30.0674 53.0089H13.0183V70.9912H20.1943V64.8883H28.7064C30.0179 64.8883 30.785 65.4157 30.785 66.7217V70.9912H37.9609V66.4957C37.9609 64.0469 36.6 62.5024 34.7194 61.9373ZM29.8986 58.033H20.1974V60.4848H29.8986C29.9131 60.4852 29.9276 60.4848 29.9422 60.4848C30.6092 60.4848 31.15 59.9359 31.15 59.2589C31.15 58.5818 30.6092 58.033 29.9422 58.033C29.9276 58.033 29.9131 58.0324 29.8986 58.033Z" fill="#232323"/>
<path id="Vector_2" fill-rule="evenodd" clip-rule="evenodd" d="M149.555 66.0489C149.555 71.2952 146.521 74.9063 141.374 74.9063C139.26 74.9063 137.317 74.0206 136.465 72.6579V74.6338H132.17V50.5142H136.465V59.3717C137.453 58.0771 139.294 57.1914 141.442 57.1914C146.521 57.1914 149.555 60.8026 149.555 66.0489ZM136.192 66.0489C136.192 69.149 137.999 71.193 140.76 71.193C143.487 71.193 145.294 69.149 145.294 66.0489C145.294 62.9487 143.487 60.9047 140.76 60.9047C137.999 60.9047 136.192 62.9487 136.192 66.0489Z" fill="#232323"/>
<path id="Vector_3" fill-rule="evenodd" clip-rule="evenodd" d="M88.3116 74.6337L83.0651 63.9706C85.4173 62.8123 86.8149 60.5298 86.8149 57.8386C86.8149 53.5461 83.7809 50.7866 79.1107 50.7866H67.7188L67.7529 74.6337H72.3889V64.8564H78.3268L82.9256 74.6337H88.3116ZM72.3889 54.7724H78.3949C80.7811 54.7724 82.1447 55.9307 82.1447 57.8386C82.1447 59.7463 80.7811 60.8705 78.3949 60.8705H72.3889V54.7724Z" fill="#232323"/>
<path id="Vector_4" fill-rule="evenodd" clip-rule="evenodd" d="M102.418 57.4639H106.714V74.6338H102.418V72.6579C101.566 74.0206 99.657 74.9063 97.5094 74.9063C92.362 74.9063 89.3281 71.2952 89.3281 66.0489C89.3281 60.8025 92.3619 57.1914 97.4413 57.1914C99.5889 57.1914 101.43 58.0771 102.418 59.3716V57.4639ZM93.5892 66.0489C93.5892 69.149 95.3959 71.193 98.123 71.193C100.884 71.193 102.691 69.149 102.691 66.0489C102.691 62.9487 100.884 60.9047 98.123 60.9047C95.3959 60.9047 93.5892 62.9487 93.5892 66.0489Z" fill="#232323"/>
<path id="Vector_5" d="M121.898 57.4639L121.626 61.6202C121.013 61.3475 120.194 61.2113 119.445 61.2113C117.024 61.2113 114.842 63.2213 114.842 68.3314V74.6338H110.547V57.4639H114.842V60.5981C115.694 58.6563 117.945 57.1914 120.024 57.1914C120.637 57.1914 121.387 57.2936 121.898 57.4639Z" fill="#232323"/>
<path id="Vector_6" d="M128.35 74.6338H124.055V57.4639H128.35V74.6338Z" fill="#232323"/>
<path id="Vector_7" d="M152.469 74.6338H156.763V50.5142H152.469V74.6338Z" fill="#232323"/>
<path id="Vector_8" fill-rule="evenodd" clip-rule="evenodd" d="M176.775 65.4697C176.775 61.4838 173.946 57.1914 168.151 57.1914C162.458 57.1914 159.662 61.5861 159.662 66.0489C159.662 70.5116 162.696 74.9063 168.39 74.9063C172.412 74.9063 175.411 72.9986 176.366 69.7622L172.343 68.672C171.901 70.3413 170.469 71.2952 168.458 71.2952C166.003 71.2952 164.333 69.7622 163.958 67.1731H176.707C176.741 66.8324 176.775 66.0829 176.775 65.4697ZM164.06 64.0389C164.537 61.7223 166.037 60.4619 168.151 60.4619C170.639 60.4619 171.969 61.9948 172.173 64.0389H164.06Z" fill="#232323"/>
<path id="Vector_9" d="M123.547 51.399C123.547 50.309 124.429 49.4253 125.516 49.4253H126.925C128.013 49.4253 128.895 50.309 128.895 51.399V52.8112C128.895 53.9012 128.013 54.7848 126.925 54.7848H125.516C124.429 54.7848 123.547 53.9012 123.547 52.8112V51.399Z" fill="#232323"/>
</g>
</svg>
