<svg width="178" height="125" viewBox="0 0 178 125" fill="none" xmlns="http://www.w3.org/2000/svg">
<g id="Property 1=stella">
<path id="Vector" d="M172.334 61.2424C172.067 61.2424 171.829 61.4545 171.829 61.7576C171.829 62.0303 172.067 62.2727 172.334 62.2727C172.601 62.2727 172.838 62.0606 172.838 61.7576C172.838 61.4848 172.63 61.2424 172.334 61.2424ZM171.058 59.7576C170.791 59.7576 170.554 59.9697 170.554 60.2727C170.554 60.5455 170.761 60.7879 171.058 60.7879C171.325 60.7879 171.562 60.5455 171.562 60.2727C171.562 59.9697 171.325 59.7576 171.058 59.7576ZM169.782 58.2424C169.515 58.2424 169.278 58.4545 169.278 58.7576C169.278 59.0303 169.515 59.2727 169.782 59.2727C170.049 59.2727 170.287 59.0606 170.287 58.7576C170.287 58.4848 170.049 58.2424 169.782 58.2424ZM126.083 65.3333C125.816 65.3636 125.609 65.6061 125.609 65.8788C125.638 66.1515 125.876 66.3636 126.143 66.3636C126.41 66.3333 126.617 66.0909 126.617 65.8182C126.617 65.5151 126.38 65.303 126.083 65.3333ZM124.926 63.9091C124.659 63.9394 124.452 64.1818 124.452 64.4545C124.481 64.7273 124.719 64.9394 124.986 64.9394C125.253 64.9091 125.46 64.6667 125.46 64.3939C125.46 64.0909 125.223 63.9091 124.926 63.9091ZM127.27 66.7273C127.003 66.7576 126.795 67 126.795 67.2727C126.825 67.5455 127.062 67.7576 127.329 67.7576C127.596 67.7273 127.804 67.4848 127.804 67.2121C127.774 66.9091 127.537 66.697 127.27 66.7273ZM63.0713 60.1818C63.0713 59.9091 62.834 59.6667 62.567 59.6667C62.3 59.6667 62.0627 59.9091 62.0627 60.1818C62.0627 60.4545 62.3 60.697 62.567 60.697C62.8637 60.697 63.0713 60.4848 63.0713 60.1818ZM59.5113 65.3333C59.2443 65.3333 59.007 65.5758 59.007 65.8485C59.007 66.1212 59.2443 66.3636 59.5113 66.3636C59.7783 66.3636 60.0157 66.1212 60.0157 65.8485C60.0157 65.5758 59.7783 65.3333 59.5113 65.3333ZM60.2827 63.9091C60.0157 63.9091 59.7783 64.1515 59.7783 64.4242C59.7783 64.697 60.0157 64.9394 60.2827 64.9394C60.5497 64.9394 60.787 64.697 60.787 64.4242C60.787 64.1515 60.5497 63.9091 60.2827 63.9091ZM61.0243 62.5151C60.7573 62.5151 60.52 62.7576 60.52 63.0303C60.52 63.303 60.7573 63.5455 61.0243 63.5455C61.2913 63.5455 61.5287 63.303 61.5287 63.0303C61.5287 62.7273 61.321 62.5151 61.0243 62.5151ZM61.8253 63.9091C61.5583 63.9091 61.321 64.1515 61.321 64.4242C61.321 64.697 61.5583 64.9394 61.8253 64.9394C62.0923 64.9394 62.3297 64.697 62.3297 64.4242C62.3297 64.1515 62.0923 63.9091 61.8253 63.9091ZM58.74 66.7576C58.473 66.7576 58.2357 67 58.2357 67.2727C58.2357 67.5455 58.473 67.7879 58.74 67.7879C59.007 67.7879 59.2443 67.5455 59.2443 67.2727C59.2443 66.9697 59.007 66.7576 58.74 66.7576ZM61.8253 61.0909C61.5583 61.0909 61.321 61.3333 61.321 61.6061C61.321 61.8788 61.5583 62.1212 61.8253 62.1212C62.0923 62.1212 62.3297 61.8788 62.3297 61.6061C62.3297 61.3333 62.0923 61.0909 61.8253 61.0909ZM63.368 63.9091C63.101 63.9091 62.8637 64.1515 62.8637 64.4242C62.8637 64.697 63.101 64.9394 63.368 64.9394C63.635 64.9394 63.8723 64.697 63.8723 64.4242C63.8723 64.1515 63.635 63.9091 63.368 63.9091ZM63.368 58.2727C63.101 58.2727 62.8637 58.5152 62.8637 58.7879C62.8637 59.0606 63.101 59.303 63.368 59.303C63.635 59.303 63.8723 59.0606 63.8723 58.7879C63.8723 58.4849 63.635 58.2727 63.368 58.2727ZM72.4163 62C72.1493 62 71.912 62.2121 71.912 62.5151C71.912 62.7879 72.1197 63.0303 72.4163 63.0303C72.6833 63.0303 72.9207 62.8182 72.9207 62.5151C72.9207 62.2424 72.6833 62 72.4163 62ZM73.5437 63.2727C73.2767 63.2727 73.0393 63.4849 73.0393 63.7879C73.0393 64.0606 73.247 64.303 73.5437 64.303C73.8107 64.303 74.048 64.0909 74.048 63.7879C74.048 63.4849 73.8403 63.2727 73.5437 63.2727ZM71.289 60.7576C71.022 60.7576 70.7847 60.9697 70.7847 61.2727C70.7847 61.5455 70.9923 61.7879 71.289 61.7879C71.556 61.7879 71.7933 61.5758 71.7933 61.2727C71.7933 61 71.5857 60.7576 71.289 60.7576ZM69.064 58.2424C68.797 58.2424 68.5597 58.4545 68.5597 58.7576C68.5597 59.0303 68.7673 59.2727 69.064 59.2727C69.331 59.2727 69.5683 59.0606 69.5683 58.7576C69.5683 58.4848 69.331 58.2424 69.064 58.2424ZM70.1913 59.4848C69.9243 59.4848 69.687 59.697 69.687 60C69.687 60.2727 69.8947 60.5151 70.1913 60.5151C70.4583 60.5151 70.6957 60.303 70.6957 60C70.6957 59.7273 70.4583 59.4848 70.1913 59.4848ZM48.6237 58.2727C48.3567 58.2727 48.1193 58.5152 48.1193 58.7879C48.1193 59.0606 48.3567 59.303 48.6237 59.303C48.8907 59.303 49.128 59.0606 49.128 58.7879C49.128 58.4849 48.9203 58.2727 48.6237 58.2727ZM50.73 66.7576C50.463 66.7576 50.2257 67 50.2257 67.2727C50.2257 67.5455 50.463 67.7879 50.73 67.7879C50.997 67.7879 51.2343 67.5455 51.2343 67.2727C51.2343 66.9697 50.997 66.7576 50.73 66.7576ZM48.6237 59.9394C48.3567 59.9394 48.1193 60.1818 48.1193 60.4545C48.1193 60.7273 48.3567 60.9697 48.6237 60.9697C48.8907 60.9697 49.128 60.7273 49.128 60.4545C49.128 60.1818 48.9203 59.9394 48.6237 59.9394ZM48.6237 61.6364C48.3567 61.6364 48.1193 61.8788 48.1193 62.1515C48.1193 62.4242 48.3567 62.6667 48.6237 62.6667C48.8907 62.6667 49.128 62.4242 49.128 62.1515C49.128 61.8788 48.9203 61.6364 48.6237 61.6364ZM52.777 66.7576C52.51 66.7576 52.2727 67 52.2727 67.2727C52.2727 67.5455 52.51 67.7879 52.777 67.7879C53.044 67.7879 53.2813 67.5455 53.2813 67.2727C53.2813 66.9697 53.0737 66.7576 52.777 66.7576ZM37.736 63.3333C37.469 63.3333 37.2317 63.5758 37.2317 63.8485C37.2317 64.1212 37.469 64.3636 37.736 64.3636C38.003 64.3636 38.2403 64.1212 38.2403 63.8485C38.2403 63.5758 38.003 63.3333 37.736 63.3333ZM37.736 61.6364C37.469 61.6364 37.2317 61.8788 37.2317 62.1515C37.2317 62.4242 37.469 62.6667 37.736 62.6667C38.003 62.6667 38.2403 62.4242 38.2403 62.1515C38.2403 61.8788 38.003 61.6364 37.736 61.6364ZM37.736 66.7576C37.469 66.7576 37.2317 67 37.2317 67.2727C37.2317 67.5455 37.469 67.7879 37.736 67.7879C38.003 67.7879 38.2403 67.5455 38.2403 67.2727C38.2403 66.9697 38.003 66.7576 37.736 66.7576ZM37.736 65.0606C37.469 65.0606 37.2317 65.303 37.2317 65.5758C37.2317 65.8485 37.469 66.0909 37.736 66.0909C38.003 66.0909 38.2403 65.8485 38.2403 65.5758C38.2403 65.2727 38.003 65.0606 37.736 65.0606ZM30.9423 58.2727C30.6753 58.2727 30.438 58.5152 30.438 58.7879C30.438 59.0606 30.6753 59.303 30.9423 59.303C31.2093 59.303 31.4467 59.0606 31.4467 58.7879C31.4467 58.4849 31.2093 58.2727 30.9423 58.2727ZM37.736 59.9394C37.469 59.9394 37.2317 60.1818 37.2317 60.4545C37.2317 60.7273 37.469 60.9697 37.736 60.9697C38.003 60.9697 38.2403 60.7273 38.2403 60.4545C38.2403 60.1818 38.003 59.9394 37.736 59.9394ZM48.6237 63.3333C48.3567 63.3333 48.1193 63.5758 48.1193 63.8485C48.1193 64.1212 48.3567 64.3636 48.6237 64.3636C48.8907 64.3636 49.128 64.1212 49.128 63.8485C49.128 63.5758 48.9203 63.3333 48.6237 63.3333ZM48.6237 66.7576C48.3567 66.7576 48.1193 67 48.1193 67.2727C48.1193 67.5455 48.3567 67.7879 48.6237 67.7879C48.8907 67.7879 49.128 67.5455 49.128 67.2727C49.128 66.9697 48.9203 66.7576 48.6237 66.7576ZM48.6237 65.0606C48.3567 65.0606 48.1193 65.303 48.1193 65.5758C48.1193 65.8485 48.3567 66.0909 48.6237 66.0909C48.8907 66.0909 49.128 65.8485 49.128 65.5758C49.128 65.2727 48.9203 65.0606 48.6237 65.0606ZM41.8893 66.7576C41.6223 66.7576 41.385 67 41.385 67.2727C41.385 67.5455 41.6223 67.7879 41.8893 67.7879C42.1563 67.7879 42.3937 67.5455 42.3937 67.2727C42.3937 66.9697 42.186 66.7576 41.8893 66.7576ZM37.736 58.2727C37.469 58.2727 37.2317 58.5152 37.2317 58.7879C37.2317 59.0606 37.469 59.303 37.736 59.303C38.003 59.303 38.2403 59.0606 38.2403 58.7879C38.2403 58.4849 38.003 58.2727 37.736 58.2727ZM39.8127 66.7576C39.5457 66.7576 39.3083 67 39.3083 67.2727C39.3083 67.5455 39.5457 67.7879 39.8127 67.7879C40.0797 67.7879 40.317 67.5455 40.317 67.2727C40.317 66.9697 40.0797 66.7576 39.8127 66.7576ZM78.0827 63.3333C77.8157 63.3333 77.5783 63.5758 77.5783 63.8485C77.5783 64.1212 77.8157 64.3636 78.0827 64.3636C78.3497 64.3636 78.587 64.1212 78.587 63.8485C78.587 63.5758 78.3497 63.3333 78.0827 63.3333ZM30.9423 66.7576C30.6753 66.7576 30.438 67 30.438 67.2727C30.438 67.5455 30.6753 67.7879 30.9423 67.7879C31.2093 67.7879 31.4467 67.5455 31.4467 67.2727C31.4467 66.9697 31.2093 66.7576 30.9423 66.7576ZM78.0827 66.7576C77.8157 66.7576 77.5783 67 77.5783 67.2727C77.5783 67.5455 77.8157 67.7879 78.0827 67.7879C78.3497 67.7879 78.587 67.5455 78.587 67.2727C78.587 66.9697 78.3497 66.7576 78.0827 66.7576ZM78.0827 61.6364C77.8157 61.6364 77.5783 61.8788 77.5783 62.1515C77.5783 62.4242 77.8157 62.6667 78.0827 62.6667C78.3497 62.6667 78.587 62.4242 78.587 62.1515C78.587 61.8788 78.3497 61.6364 78.0827 61.6364ZM78.0827 59.9394C77.8157 59.9394 77.5783 60.1818 77.5783 60.4545C77.5783 60.7273 77.8157 60.9697 78.0827 60.9697C78.3497 60.9697 78.587 60.7273 78.587 60.4545C78.587 60.1818 78.3497 59.9394 78.0827 59.9394ZM69.0343 63.3333C68.7673 63.3333 68.53 63.5758 68.53 63.8485C68.53 64.1212 68.7673 64.3636 69.0343 64.3636C69.3013 64.3636 69.5387 64.1212 69.5387 63.8485C69.5387 63.5758 69.331 63.3333 69.0343 63.3333ZM69.0343 65.0606C68.7673 65.0606 68.53 65.303 68.53 65.5758C68.53 65.8485 68.7673 66.0909 69.0343 66.0909C69.3013 66.0909 69.5387 65.8485 69.5387 65.5758C69.5387 65.2727 69.331 65.0606 69.0343 65.0606ZM69.0343 61.6364C68.7673 61.6364 68.53 61.8788 68.53 62.1515C68.53 62.4242 68.7673 62.6667 69.0343 62.6667C69.3013 62.6667 69.5387 62.4242 69.5387 62.1515C69.5387 61.8788 69.331 61.6364 69.0343 61.6364ZM69.0343 66.7576C68.7673 66.7576 68.53 67 68.53 67.2727C68.53 67.5455 68.7673 67.7879 69.0343 67.7879C69.3013 67.7879 69.5387 67.5455 69.5387 67.2727C69.5387 66.9697 69.331 66.7576 69.0343 66.7576ZM69.0343 59.9394C68.7673 59.9394 68.53 60.1818 68.53 60.4545C68.53 60.7273 68.7673 60.9697 69.0343 60.9697C69.3013 60.9697 69.5387 60.7273 69.5387 60.4545C69.5387 60.1818 69.331 59.9394 69.0343 59.9394ZM78.0827 65.0606C77.8157 65.0606 77.5783 65.303 77.5783 65.5758C77.5783 65.8485 77.8157 66.0909 78.0827 66.0909C78.3497 66.0909 78.587 65.8485 78.587 65.5758C78.587 65.2727 78.3497 65.0606 78.0827 65.0606ZM123.858 59.303C124.125 59.303 124.363 59.0606 124.363 58.7879C124.363 58.5152 124.125 58.2727 123.858 58.2727C123.591 58.2727 123.354 58.5152 123.354 58.7879C123.354 59.0606 123.562 59.303 123.858 59.303ZM125.431 59.303C125.698 59.303 125.935 59.0606 125.935 58.7879C125.935 58.5152 125.698 58.2727 125.431 58.2727C125.164 58.2727 124.926 58.5152 124.926 58.7879C124.926 59.0606 125.164 59.303 125.431 59.303ZM126.825 59.8788C127.092 59.8788 127.329 59.6364 127.329 59.3636C127.329 59.0909 127.092 58.8485 126.825 58.8485C126.558 58.8485 126.321 59.0909 126.321 59.3636C126.291 59.6667 126.528 59.8788 126.825 59.8788ZM29.0733 58.2727C28.8063 58.2727 28.569 58.5152 28.569 58.7879C28.569 59.0606 28.8063 59.303 29.0733 59.303C29.3403 59.303 29.5777 59.0606 29.5777 58.7879C29.5777 58.4849 29.3403 58.2727 29.0733 58.2727ZM25.365 59.9394C25.098 59.9394 24.8607 60.1818 24.8607 60.4545C24.8607 60.7273 25.098 60.9697 25.365 60.9697C25.632 60.9697 25.8693 60.7273 25.8693 60.4545C25.8693 60.1818 25.6617 59.9394 25.365 59.9394ZM25.365 58.2727C25.098 58.2727 24.8607 58.5152 24.8607 58.7879C24.8607 59.0606 25.098 59.303 25.365 59.303C25.632 59.303 25.8693 59.0606 25.8693 58.7879C25.8693 58.4849 25.6617 58.2727 25.365 58.2727ZM27.234 66.7576C26.967 66.7576 26.7297 67 26.7297 67.2727C26.7297 67.5455 26.967 67.7879 27.234 67.7879C27.501 67.7879 27.7383 67.5455 27.7383 67.2727C27.7383 66.9697 27.501 66.7576 27.234 66.7576ZM25.365 63.3333C25.098 63.3333 24.8607 63.5758 24.8607 63.8485C24.8607 64.1212 25.098 64.3636 25.365 64.3636C25.632 64.3636 25.8693 64.1212 25.8693 63.8485C25.8693 63.5758 25.6617 63.3333 25.365 63.3333ZM27.234 62.5151C26.967 62.5151 26.7297 62.7576 26.7297 63.0303C26.7297 63.303 26.967 63.5455 27.234 63.5455C27.501 63.5455 27.7383 63.303 27.7383 63.0303C27.7383 62.7273 27.501 62.5151 27.234 62.5151ZM25.365 65.0606C25.098 65.0606 24.8607 65.303 24.8607 65.5758C24.8607 65.8485 25.098 66.0909 25.365 66.0909C25.632 66.0909 25.8693 65.8485 25.8693 65.5758C25.8693 65.2727 25.6617 65.0606 25.365 65.0606ZM25.365 61.6364C25.098 61.6364 24.8607 61.8788 24.8607 62.1515C24.8607 62.4242 25.098 62.6667 25.365 62.6667C25.632 62.6667 25.8693 62.4242 25.8693 62.1515C25.8693 61.8788 25.6617 61.6364 25.365 61.6364ZM27.234 58.2727C26.967 58.2727 26.7297 58.5152 26.7297 58.7879C26.7297 59.0606 26.967 59.303 27.234 59.303C27.501 59.303 27.7383 59.0606 27.7383 58.7879C27.7383 58.4849 27.501 58.2727 27.234 58.2727ZM29.0733 62.5151C28.8063 62.5151 28.569 62.7576 28.569 63.0303C28.569 63.303 28.8063 63.5455 29.0733 63.5455C29.3403 63.5455 29.5777 63.303 29.5777 63.0303C29.5777 62.7273 29.3403 62.5151 29.0733 62.5151ZM29.0733 66.7576C28.8063 66.7576 28.569 67 28.569 67.2727C28.569 67.5455 28.8063 67.7879 29.0733 67.7879C29.3403 67.7879 29.5777 67.5455 29.5777 67.2727C29.5777 66.9697 29.3403 66.7576 29.0733 66.7576ZM13.528 58.2727C13.261 58.2727 13.0237 58.5152 13.0237 58.7879C13.0237 59.0606 13.261 59.303 13.528 59.303C13.795 59.303 14.0323 59.0606 14.0323 58.7879C14.0323 58.4849 13.795 58.2727 13.528 58.2727ZM16.02 66.7576C15.753 66.7576 15.5157 67 15.5157 67.2727C15.5157 67.5455 15.753 67.7879 16.02 67.7879C16.287 67.7879 16.5243 67.5455 16.5243 67.2727C16.5243 66.9697 16.287 66.7576 16.02 66.7576ZM25.365 66.7576C25.098 66.7576 24.8607 67 24.8607 67.2727C24.8607 67.5455 25.098 67.7879 25.365 67.7879C25.632 67.7879 25.8693 67.5455 25.8693 67.2727C25.8693 66.9697 25.6617 66.7576 25.365 66.7576ZM16.02 63.2121C15.753 63.2121 15.5157 63.4545 15.5157 63.7273C15.5157 64 15.753 64.2424 16.02 64.2424C16.287 64.2424 16.5243 64 16.5243 63.7273C16.5243 63.4242 16.287 63.2121 16.02 63.2121ZM11.8667 58.2727C11.5997 58.2727 11.3623 58.5152 11.3623 58.7879C11.3623 59.0606 11.5997 59.303 11.8667 59.303C12.1337 59.303 12.371 59.0606 12.371 58.7879C12.371 58.4849 12.1337 58.2727 11.8667 58.2727ZM15.1597 58.2727C14.8927 58.2727 14.6553 58.5152 14.6553 58.7879C14.6553 59.0606 14.8927 59.303 15.1597 59.303C15.4267 59.303 15.664 59.0606 15.664 58.7879C15.664 58.4849 15.4563 58.2727 15.1597 58.2727ZM16.02 64.9697C15.753 64.9697 15.5157 65.2121 15.5157 65.4848C15.5157 65.7576 15.753 66 16.02 66C16.287 66 16.5243 65.7576 16.5243 65.4848C16.5243 65.2121 16.287 64.9697 16.02 64.9697ZM16.02 61.4545C15.753 61.4545 15.5157 61.697 15.5157 61.9697C15.5157 62.2424 15.753 62.4848 16.02 62.4848C16.287 62.4848 16.5243 62.2424 16.5243 61.9697C16.5243 61.6667 16.287 61.4545 16.02 61.4545ZM20.1733 58.2727C19.9063 58.2727 19.669 58.5152 19.669 58.7879C19.669 59.0606 19.9063 59.303 20.1733 59.303C20.4403 59.303 20.6777 59.0606 20.6777 58.7879C20.6777 58.4849 20.4403 58.2727 20.1733 58.2727ZM16.8507 58.2727C16.5837 58.2727 16.3463 58.5152 16.3463 58.7879C16.3463 59.0606 16.5837 59.303 16.8507 59.303C17.1177 59.303 17.355 59.0606 17.355 58.7879C17.3253 58.4849 17.1177 58.2727 16.8507 58.2727ZM18.512 58.2727C18.245 58.2727 18.0077 58.5152 18.0077 58.7879C18.0077 59.0606 18.245 59.303 18.512 59.303C18.779 59.303 19.0163 59.0606 19.0163 58.7879C19.0163 58.4849 18.779 58.2727 18.512 58.2727ZM16.02 59.6667C15.753 59.6667 15.5157 59.9091 15.5157 60.1818C15.5157 60.4545 15.753 60.697 16.02 60.697C16.287 60.697 16.5243 60.4545 16.5243 60.1818C16.5243 59.8788 16.287 59.6667 16.02 59.6667ZM153.228 65.0606C152.961 65.0606 152.724 65.303 152.724 65.5758C152.724 65.8485 152.961 66.0909 153.228 66.0909C153.495 66.0909 153.733 65.8485 153.733 65.5758C153.733 65.2727 153.495 65.0606 153.228 65.0606ZM153.228 63.3333C152.961 63.3333 152.724 63.5758 152.724 63.8485C152.724 64.1212 152.961 64.3636 153.228 64.3636C153.495 64.3636 153.733 64.1212 153.733 63.8485C153.733 63.5758 153.495 63.3333 153.228 63.3333ZM153.228 59.9394C152.961 59.9394 152.724 60.1818 152.724 60.4545C152.724 60.7273 152.961 60.9697 153.228 60.9697C153.495 60.9697 153.733 60.7273 153.733 60.4545C153.733 60.1818 153.495 59.9394 153.228 59.9394ZM153.228 58.2727C152.961 58.2727 152.724 58.5152 152.724 58.7879C152.724 59.0606 152.961 59.303 153.228 59.303C153.495 59.303 153.733 59.0606 153.733 58.7879C153.733 58.4849 153.495 58.2727 153.228 58.2727ZM159.369 66.7576C159.102 66.7576 158.865 67 158.865 67.2727C158.865 67.5455 159.102 67.7879 159.369 67.7879C159.636 67.7879 159.874 67.5455 159.874 67.2727C159.874 66.9697 159.636 66.7576 159.369 66.7576ZM153.228 61.6364C152.961 61.6364 152.724 61.8788 152.724 62.1515C152.724 62.4242 152.961 62.6667 153.228 62.6667C153.495 62.6667 153.733 62.4242 153.733 62.1515C153.733 61.8788 153.495 61.6364 153.228 61.6364ZM145.693 66.7576C145.426 66.7576 145.189 67 145.189 67.2727C145.189 67.5455 145.426 67.7879 145.693 67.7879C145.96 67.7879 146.197 67.5455 146.197 67.2727C146.227 66.9697 145.99 66.7576 145.693 66.7576ZM138.721 58.2727C138.454 58.2727 138.217 58.5152 138.217 58.7879C138.217 59.0606 138.454 59.303 138.721 59.303C138.988 59.303 139.226 59.0606 139.226 58.7879C139.226 58.4849 138.988 58.2727 138.721 58.2727ZM140.353 58.2727C140.086 58.2727 139.849 58.5152 139.849 58.7879C139.849 59.0606 140.086 59.303 140.353 59.303C140.62 59.303 140.857 59.0606 140.857 58.7879C140.857 58.4849 140.65 58.2727 140.353 58.2727ZM137.06 58.2727C136.793 58.2727 136.556 58.5152 136.556 58.7879C136.556 59.0606 136.793 59.303 137.06 59.303C137.327 59.303 137.564 59.0606 137.564 58.7879C137.564 58.4849 137.327 58.2727 137.06 58.2727ZM136.2 61.4545C135.933 61.4545 135.695 61.697 135.695 61.9697C135.695 62.2424 135.933 62.4848 136.2 62.4848C136.467 62.4848 136.704 62.2424 136.704 61.9697C136.704 61.6667 136.496 61.4545 136.2 61.4545ZM159.369 65.0606C159.102 65.0606 158.865 65.303 158.865 65.5758C158.865 65.8485 159.102 66.0909 159.369 66.0909C159.636 66.0909 159.874 65.8485 159.874 65.5758C159.874 65.2727 159.636 65.0606 159.369 65.0606ZM136.2 59.6667C135.933 59.6667 135.695 59.9091 135.695 60.1818C135.695 60.4545 135.933 60.697 136.2 60.697C136.467 60.697 136.704 60.4545 136.704 60.1818C136.704 59.8788 136.496 59.6667 136.2 59.6667ZM145.693 61.6364C145.426 61.6364 145.189 61.8788 145.189 62.1515C145.189 62.4242 145.426 62.6667 145.693 62.6667C145.96 62.6667 146.197 62.4242 146.197 62.1515C146.197 61.8788 145.99 61.6364 145.693 61.6364ZM145.693 59.9394C145.426 59.9394 145.189 60.1818 145.189 60.4545C145.189 60.7273 145.426 60.9697 145.693 60.9697C145.96 60.9697 146.197 60.7273 146.197 60.4545C146.227 60.1818 145.99 59.9394 145.693 59.9394ZM145.693 65.0606C145.426 65.0606 145.189 65.303 145.189 65.5758C145.189 65.8485 145.426 66.0909 145.693 66.0909C145.96 66.0909 146.197 65.8485 146.197 65.5758C146.227 65.2727 145.99 65.0606 145.693 65.0606ZM145.693 63.3333C145.426 63.3333 145.189 63.5758 145.189 63.8485C145.189 64.1212 145.426 64.3636 145.693 64.3636C145.96 64.3636 146.197 64.1212 146.197 63.8485C146.227 63.5758 145.99 63.3333 145.693 63.3333ZM173.639 66.7576C173.372 66.7576 173.135 67 173.135 67.2727C173.135 67.5455 173.372 67.7879 173.639 67.7879C173.906 67.7879 174.143 67.5455 174.143 67.2727C174.143 66.9697 173.906 66.7576 173.639 66.7576ZM164.917 58.2727C164.65 58.2727 164.413 58.5152 164.413 58.7879C164.413 59.0606 164.65 59.303 164.917 59.303C165.184 59.303 165.421 59.0606 165.421 58.7879C165.421 58.4849 165.184 58.2727 164.917 58.2727ZM164.917 66.7576C164.65 66.7576 164.413 67 164.413 67.2727C164.413 67.5455 164.65 67.7879 164.917 67.7879C165.184 67.7879 165.421 67.5455 165.421 67.2727C165.421 66.9697 165.184 66.7576 164.917 66.7576ZM173.639 64.7576C173.372 64.7576 173.135 65 173.135 65.2727C173.135 65.5455 173.372 65.7879 173.639 65.7879C173.906 65.7879 174.143 65.5455 174.143 65.2727C174.143 65 173.906 64.7576 173.639 64.7576ZM159.369 58.2727C159.102 58.2727 158.865 58.5152 158.865 58.7879C158.865 59.0606 159.102 59.303 159.369 59.303C159.636 59.303 159.874 59.0606 159.874 58.7879C159.874 58.4849 159.636 58.2727 159.369 58.2727ZM163.048 58.2727C162.781 58.2727 162.544 58.5152 162.544 58.7879C162.544 59.0606 162.781 59.303 163.048 59.303C163.315 59.303 163.552 59.0606 163.552 58.7879C163.582 58.4849 163.345 58.2727 163.048 58.2727ZM161.209 62.5151C160.942 62.5151 160.704 62.7576 160.704 63.0303C160.704 63.303 160.942 63.5455 161.209 63.5455C161.476 63.5455 161.713 63.303 161.713 63.0303C161.713 62.7273 161.505 62.5151 161.209 62.5151ZM161.209 66.7576C160.942 66.7576 160.704 67 160.704 67.2727C160.704 67.5455 160.942 67.7879 161.209 67.7879C161.476 67.7879 161.713 67.5455 161.713 67.2727C161.713 66.9697 161.505 66.7576 161.209 66.7576ZM159.369 61.6364C159.102 61.6364 158.865 61.8788 158.865 62.1515C158.865 62.4242 159.102 62.6667 159.369 62.6667C159.636 62.6667 159.874 62.4242 159.874 62.1515C159.874 61.8788 159.636 61.6364 159.369 61.6364ZM159.369 59.9394C159.102 59.9394 158.865 60.1818 158.865 60.4545C158.865 60.7273 159.102 60.9697 159.369 60.9697C159.636 60.9697 159.874 60.7273 159.874 60.4545C159.874 60.1818 159.636 59.9394 159.369 59.9394ZM163.048 66.7576C162.781 66.7576 162.544 67 162.544 67.2727C162.544 67.5455 162.781 67.7879 163.048 67.7879C163.315 67.7879 163.552 67.5455 163.552 67.2727C163.582 66.9697 163.345 66.7576 163.048 66.7576ZM163.048 62.5151C162.781 62.5151 162.544 62.7576 162.544 63.0303C162.544 63.303 162.781 63.5455 163.048 63.5455C163.315 63.5455 163.552 63.303 163.552 63.0303C163.582 62.7273 163.345 62.5151 163.048 62.5151ZM159.369 63.3333C159.102 63.3333 158.865 63.5758 158.865 63.8485C158.865 64.1212 159.102 64.3636 159.369 64.3636C159.636 64.3636 159.874 64.1212 159.874 63.8485C159.874 63.5758 159.636 63.3333 159.369 63.3333ZM161.209 58.2727C160.942 58.2727 160.704 58.5152 160.704 58.7879C160.704 59.0606 160.942 59.303 161.209 59.303C161.476 59.303 161.713 59.0606 161.713 58.7879C161.713 58.4849 161.505 58.2727 161.209 58.2727ZM127.329 62.2727C127.329 62 127.092 61.7576 126.825 61.7576C126.558 61.7576 126.321 62 126.321 62.2727C126.321 62.5455 126.558 62.7879 126.825 62.7879C127.092 62.7879 127.329 62.5758 127.329 62.2727ZM136.2 63.2121C135.933 63.2121 135.695 63.4545 135.695 63.7273C135.695 64 135.933 64.2424 136.2 64.2424C136.467 64.2424 136.704 64 136.704 63.7273C136.704 63.4242 136.496 63.2121 136.2 63.2121ZM173.639 62.7576C173.372 62.7576 173.135 63 173.135 63.2727C173.135 63.5455 173.372 63.7879 173.639 63.7879C173.906 63.7879 174.143 63.5455 174.143 63.2727C174.143 62.9697 173.906 62.7576 173.639 62.7576ZM127.834 60.8182C127.834 60.5455 127.596 60.303 127.329 60.303C127.062 60.303 126.825 60.5455 126.825 60.8182C126.825 61.0909 127.062 61.3333 127.329 61.3333C127.596 61.3333 127.834 61.1212 127.834 60.8182ZM136.2 66.7576C135.933 66.7576 135.695 67 135.695 67.2727C135.695 67.5455 135.933 67.7879 136.2 67.7879C136.467 67.7879 136.704 67.5455 136.704 67.2727C136.704 66.9697 136.496 66.7576 136.2 66.7576ZM135.369 58.2727C135.102 58.2727 134.865 58.5152 134.865 58.7879C134.865 59.0606 135.102 59.303 135.369 59.303C135.636 59.303 135.873 59.0606 135.873 58.7879C135.873 58.4849 135.666 58.2727 135.369 58.2727ZM136.2 64.9697C135.933 64.9697 135.695 65.2121 135.695 65.4848C135.695 65.7576 135.933 66 136.2 66C136.467 66 136.704 65.7576 136.704 65.4848C136.704 65.2121 136.496 64.9697 136.2 64.9697ZM132.046 58.2727C131.779 58.2727 131.542 58.5152 131.542 58.7879C131.542 59.0606 131.779 59.303 132.046 59.303C132.313 59.303 132.551 59.0606 132.551 58.7879C132.551 58.4849 132.343 58.2727 132.046 58.2727ZM133.708 58.2727C133.441 58.2727 133.203 58.5152 133.203 58.7879C133.203 59.0606 133.441 59.303 133.708 59.303C133.975 59.303 134.212 59.0606 134.212 58.7879C134.212 58.4849 133.975 58.2727 133.708 58.2727ZM120.654 63.3333C120.387 63.3333 120.15 63.5758 120.15 63.8485C120.15 64.1212 120.387 64.3636 120.654 64.3636C120.921 64.3636 121.159 64.1212 121.159 63.8485C121.159 63.5758 120.951 63.3333 120.654 63.3333ZM122.256 58.2727C121.989 58.2727 121.752 58.5152 121.752 58.7879C121.752 59.0606 121.989 59.303 122.256 59.303C122.523 59.303 122.761 59.0606 122.761 58.7879C122.761 58.4849 122.523 58.2727 122.256 58.2727ZM120.654 66.7576C120.387 66.7576 120.15 67 120.15 67.2727C120.15 67.5455 120.387 67.7879 120.654 67.7879C120.921 67.7879 121.159 67.5455 121.159 67.2727C121.159 66.9697 120.951 66.7576 120.654 66.7576ZM120.654 65.0606C120.387 65.0606 120.15 65.303 120.15 65.5758C120.15 65.8485 120.387 66.0909 120.654 66.0909C120.921 66.0909 121.159 65.8485 121.159 65.5758C121.159 65.2727 120.951 65.0606 120.654 65.0606ZM120.654 58.2727C120.387 58.2727 120.15 58.5152 120.15 58.7879C120.15 59.0606 120.387 59.303 120.654 59.303C120.921 59.303 121.159 59.0606 121.159 58.7879C121.159 58.4849 120.951 58.2727 120.654 58.2727ZM123.829 63.5455C124.096 63.5455 124.333 63.303 124.333 63.0303C124.333 62.7576 124.096 62.5151 123.829 62.5151C123.562 62.5151 123.324 62.7576 123.324 63.0303C123.324 63.303 123.562 63.5455 123.829 63.5455ZM125.431 63.5455C125.698 63.5455 125.935 63.303 125.935 63.0303C125.935 62.7576 125.698 62.5151 125.431 62.5151C125.164 62.5151 124.926 62.7576 124.926 63.0303C124.926 63.303 125.164 63.5455 125.431 63.5455ZM122.197 62.5151C121.93 62.5151 121.693 62.7576 121.693 63.0303C121.693 63.303 121.93 63.5455 122.197 63.5455C122.464 63.5455 122.701 63.303 122.701 63.0303C122.731 62.7273 122.494 62.5151 122.197 62.5151ZM120.654 59.9394C120.387 59.9394 120.15 60.1818 120.15 60.4545C120.15 60.7273 120.387 60.9697 120.654 60.9697C120.921 60.9697 121.159 60.7273 121.159 60.4545C121.159 60.1818 120.951 59.9394 120.654 59.9394ZM120.654 61.6364C120.387 61.6364 120.15 61.8788 120.15 62.1515C120.15 62.4242 120.387 62.6667 120.654 62.6667C120.921 62.6667 121.159 62.4242 121.159 62.1515C121.159 61.8788 120.951 61.6364 120.654 61.6364ZM74.1667 62.5151C74.1667 62.7879 74.404 63.0303 74.671 63.0303C74.938 63.0303 75.1753 62.7879 75.1753 62.5151C75.1753 62.2424 74.938 62 74.671 62C74.3743 62 74.1667 62.2424 74.1667 62.5151ZM75.294 61.2727C75.294 61.5455 75.5313 61.7879 75.7983 61.7879C76.0653 61.7879 76.3027 61.5455 76.3027 61.2727C76.3027 61 76.0653 60.7576 75.7983 60.7576C75.5017 60.7576 75.2643 61 75.294 61.2727ZM77.519 58.7879C77.519 59.0606 77.7563 59.303 78.0233 59.303C78.2903 59.303 78.5277 59.0606 78.5277 58.7879C78.5277 58.5152 78.2903 58.2727 78.0233 58.2727C77.7563 58.2727 77.519 58.4849 77.519 58.7879ZM76.3917 60.0303C76.3917 60.303 76.629 60.5455 76.896 60.5455C77.163 60.5455 77.4003 60.303 77.4003 60.0303C77.4003 59.7576 77.163 59.5152 76.896 59.5152C76.629 59.5152 76.3917 59.7273 76.3917 60.0303ZM111.725 60.697C111.992 60.697 112.229 60.4545 112.229 60.1818C112.229 59.9091 111.992 59.6667 111.725 59.6667C111.458 59.6667 111.22 59.9091 111.22 60.1818C111.22 60.4848 111.458 60.697 111.725 60.697ZM114.306 65.8485C114.306 66.1212 114.543 66.3636 114.81 66.3636C115.077 66.3636 115.314 66.1212 115.314 65.8485C115.314 65.5758 115.077 65.3333 114.81 65.3333C114.513 65.3333 114.306 65.5758 114.306 65.8485ZM113.534 64.4242C113.534 64.697 113.772 64.9394 114.039 64.9394C114.306 64.9394 114.543 64.697 114.543 64.4242C114.543 64.1515 114.306 63.9091 114.039 63.9091C113.742 63.9091 113.534 64.1515 113.534 64.4242ZM112.763 63.0303C112.763 63.303 113 63.5455 113.267 63.5455C113.534 63.5455 113.772 63.303 113.772 63.0303C113.772 62.7576 113.534 62.5151 113.267 62.5151C113 62.5151 112.763 62.7273 112.763 63.0303ZM111.992 64.4242C111.992 64.697 112.229 64.9394 112.496 64.9394C112.763 64.9394 113 64.697 113 64.4242C113 64.1515 112.763 63.9091 112.496 63.9091C112.199 63.9091 111.992 64.1515 111.992 64.4242ZM115.077 67.2727C115.077 67.5455 115.314 67.7879 115.581 67.7879C115.848 67.7879 116.086 67.5455 116.086 67.2727C116.086 67 115.848 66.7576 115.581 66.7576C115.285 66.7576 115.077 66.9697 115.077 67.2727ZM111.992 61.6061C111.992 61.8788 112.229 62.1212 112.496 62.1212C112.763 62.1212 113 61.8788 113 61.6061C113 61.3333 112.763 61.0909 112.496 61.0909C112.199 61.0909 111.992 61.3333 111.992 61.6061ZM110.449 64.4242C110.449 64.697 110.686 64.9394 110.953 64.9394C111.22 64.9394 111.458 64.697 111.458 64.4242C111.458 64.1515 111.22 63.9091 110.953 63.9091C110.657 63.9091 110.449 64.1515 110.449 64.4242ZM110.449 58.7879C110.449 59.0606 110.686 59.303 110.953 59.303C111.22 59.303 111.458 59.0606 111.458 58.7879C111.458 58.5152 111.22 58.2727 110.953 58.2727C110.657 58.2727 110.449 58.4849 110.449 58.7879ZM174.41 61.7576C174.41 62.0303 174.648 62.2727 174.915 62.2727C175.182 62.2727 175.419 62.0303 175.419 61.7576C175.419 61.4848 175.182 61.2424 174.915 61.2424C174.618 61.2424 174.41 61.4848 174.41 61.7576ZM175.686 60.2727C175.686 60.5455 175.923 60.7879 176.19 60.7879C176.457 60.7879 176.695 60.5455 176.695 60.2727C176.695 60 176.457 59.7576 176.19 59.7576C175.923 59.7576 175.686 59.9697 175.686 60.2727ZM176.991 58.7576C176.991 59.0303 177.229 59.2727 177.496 59.2727C177.763 59.2727 178 59.0303 178 58.7576C178 58.4848 177.763 58.2424 177.496 58.2424C177.199 58.2424 176.991 58.4848 176.991 58.7576ZM151.953 65.3333C151.686 65.3333 151.448 65.5758 151.448 65.8485C151.448 66.1212 151.656 66.3636 151.953 66.3636C152.22 66.3636 152.457 66.1212 152.457 65.8485C152.487 65.5758 152.249 65.3333 151.953 65.3333ZM150.707 63.9091C150.44 63.9091 150.202 64.1212 150.202 64.4242C150.202 64.697 150.44 64.9394 150.707 64.9394C150.974 64.9394 151.211 64.697 151.211 64.4242C151.241 64.1515 151.003 63.9091 150.707 63.9091ZM153.228 66.7576C152.961 66.7576 152.724 66.9697 152.724 67.2727C152.724 67.5455 152.932 67.7879 153.228 67.7879C153.495 67.7879 153.733 67.5758 153.733 67.2727C153.733 66.9697 153.495 66.7576 153.228 66.7576ZM149.461 62.5151C149.194 62.5151 148.956 62.7273 148.956 63.0303C148.956 63.303 149.164 63.5455 149.461 63.5455C149.728 63.5455 149.965 63.303 149.965 63.0303C149.965 62.7273 149.757 62.5151 149.461 62.5151ZM148.215 61.0909C147.948 61.0909 147.71 61.303 147.71 61.6061C147.71 61.8788 147.918 62.1212 148.215 62.1212C148.482 62.1212 148.719 61.9091 148.719 61.6061C148.719 61.3333 148.482 61.0909 148.215 61.0909ZM146.969 59.6667C146.702 59.6667 146.464 59.8788 146.464 60.1818C146.464 60.4545 146.672 60.697 146.969 60.697C147.236 60.697 147.473 60.4848 147.473 60.1818C147.473 59.8788 147.236 59.6667 146.969 59.6667ZM145.693 58.2727C145.426 58.2727 145.189 58.4849 145.189 58.7879C145.189 59.0606 145.396 59.303 145.693 59.303C145.96 59.303 146.197 59.0909 146.197 58.7879C146.227 58.4849 145.99 58.2727 145.693 58.2727ZM90.246 65.8182C89.979 65.8182 89.7417 66.0606 89.7417 66.3333C89.7417 66.6061 89.979 66.8485 90.246 66.8485C90.513 66.8485 90.7503 66.6061 90.7503 66.3333C90.7503 66.0606 90.513 65.8182 90.246 65.8182ZM88.7923 66.6667C88.5253 66.6667 88.288 66.9091 88.288 67.1818C88.288 67.4545 88.5253 67.697 88.7923 67.697C89.0593 67.697 89.2967 67.4545 89.2967 67.1818C89.2967 66.9091 89.0593 66.6667 88.7923 66.6667ZM87.1013 66.9091C86.8343 66.9091 86.597 67.1515 86.597 67.4242C86.597 67.697 86.8343 67.9394 87.1013 67.9394C87.3683 67.9394 87.6057 67.697 87.6057 67.4242C87.6057 67.1515 87.3683 66.9091 87.1013 66.9091ZM85.4697 66.5758C85.2027 66.5758 84.9653 66.8182 84.9653 67.0909C84.9653 67.3636 85.2027 67.6061 85.4697 67.6061C85.7367 67.6061 85.974 67.3636 85.974 67.0909C85.974 66.7879 85.7663 66.5758 85.4697 66.5758ZM84.2533 65.3939C83.9863 65.3939 83.749 65.6364 83.749 65.9091C83.749 66.1818 83.9863 66.4242 84.2533 66.4242C84.5203 66.4242 84.7577 66.1818 84.7577 65.9091C84.7577 65.6061 84.55 65.3939 84.2533 65.3939ZM83.838 63.697C83.571 63.697 83.3337 63.9394 83.3337 64.2121C83.3337 64.4848 83.571 64.7273 83.838 64.7273C84.105 64.7273 84.3423 64.4848 84.3423 64.2121C84.3423 63.9394 84.105 63.697 83.838 63.697ZM84.2533 62.0303C83.9863 62.0303 83.749 62.2727 83.749 62.5455C83.749 62.8182 83.9863 63.0606 84.2533 63.0606C84.5203 63.0606 84.7577 62.8182 84.7577 62.5455C84.7577 62.2727 84.55 62.0303 84.2533 62.0303ZM85.4697 60.8485C85.2027 60.8485 84.9653 61.0909 84.9653 61.3636C84.9653 61.6364 85.2027 61.8788 85.4697 61.8788C85.7367 61.8788 85.974 61.6364 85.974 61.3636C85.974 61.0606 85.7663 60.8485 85.4697 60.8485ZM87.1013 60.4848C86.8343 60.4848 86.597 60.7273 86.597 61C86.597 61.2727 86.8343 61.5152 87.1013 61.5152C87.3683 61.5152 87.6057 61.2727 87.6057 61C87.6057 60.7273 87.3683 60.4848 87.1013 60.4848ZM88.7923 60.7273C88.5253 60.7273 88.288 60.9697 88.288 61.2424C88.288 61.5151 88.5253 61.7576 88.7923 61.7576C89.0593 61.7576 89.2967 61.5151 89.2967 61.2424C89.2967 60.9697 89.0593 60.7273 88.7923 60.7273ZM90.246 61.5758C89.979 61.5758 89.7417 61.8182 89.7417 62.0909C89.7417 62.3636 89.979 62.6061 90.246 62.6061C90.513 62.6061 90.7503 62.3636 90.7503 62.0909C90.7503 61.8182 90.513 61.5758 90.246 61.5758ZM104.872 59.6061C104.605 59.6061 104.367 59.8485 104.367 60.1212C104.367 60.3939 104.605 60.6364 104.872 60.6364C105.139 60.6364 105.376 60.3939 105.376 60.1212C105.376 59.8182 105.168 59.6061 104.872 59.6061ZM103.537 58.6061C103.27 58.6061 103.032 58.8485 103.032 59.1212C103.032 59.3939 103.27 59.6364 103.537 59.6364C103.804 59.6364 104.041 59.3939 104.041 59.1212C104.041 58.8485 103.804 58.6061 103.537 58.6061ZM101.905 58.0909C101.638 58.0909 101.401 58.3333 101.401 58.6061C101.401 58.8788 101.638 59.1212 101.905 59.1212C102.172 59.1212 102.409 58.8788 102.409 58.6061C102.409 58.3333 102.172 58.0909 101.905 58.0909ZM100.155 58C99.8877 58 99.6503 58.2424 99.6503 58.5151C99.6503 58.7879 99.8877 59.0303 100.155 59.0303C100.422 59.0303 100.659 58.7879 100.659 58.5151C100.659 58.2424 100.451 58 100.155 58ZM98.4637 58.3333C98.1967 58.3333 97.9593 58.5758 97.9593 58.8485C97.9593 59.1212 98.1967 59.3636 98.4637 59.3636C98.7307 59.3636 98.968 59.1212 98.968 58.8485C98.9977 58.5455 98.7603 58.3333 98.4637 58.3333ZM97.1287 59.2121C96.8617 59.2121 96.6243 59.4545 96.6243 59.7273C96.6243 60 96.8617 60.2424 97.1287 60.2424C97.3957 60.2424 97.633 60 97.633 59.7273C97.633 59.4545 97.3957 59.2121 97.1287 59.2121ZM96.209 60.7273C95.942 60.7273 95.7047 60.9697 95.7047 61.2424C95.7047 61.5151 95.942 61.7576 96.209 61.7576C96.476 61.7576 96.7133 61.5151 96.7133 61.2424C96.7133 60.9697 96.476 60.7273 96.209 60.7273ZM95.853 62.4545C95.586 62.4545 95.3487 62.697 95.3487 62.9697C95.3487 63.2424 95.586 63.4849 95.853 63.4849C96.12 63.4849 96.3573 63.2424 96.3573 62.9697C96.3573 62.697 96.1497 62.4545 95.853 62.4545ZM104.872 66.3636C104.605 66.3636 104.367 66.1212 104.367 65.8485C104.367 65.5758 104.605 65.3333 104.872 65.3333C105.139 65.3333 105.376 65.5758 105.376 65.8485C105.376 66.1212 105.168 66.3636 104.872 66.3636ZM103.537 67.3636C103.27 67.3636 103.032 67.1212 103.032 66.8485C103.032 66.5758 103.27 66.3333 103.537 66.3333C103.804 66.3333 104.041 66.5758 104.041 66.8485C104.041 67.1212 103.804 67.3636 103.537 67.3636ZM101.905 67.8788C101.638 67.8788 101.401 67.6364 101.401 67.3636C101.401 67.0909 101.638 66.8485 101.905 66.8485C102.172 66.8485 102.409 67.0909 102.409 67.3636C102.409 67.6364 102.172 67.8788 101.905 67.8788ZM100.155 67.9697C99.8877 67.9697 99.6503 67.7273 99.6503 67.4545C99.6503 67.1818 99.8877 66.9394 100.155 66.9394C100.422 66.9394 100.659 67.1818 100.659 67.4545C100.659 67.7273 100.451 67.9697 100.155 67.9697ZM98.4637 67.6364C98.1967 67.6364 97.9593 67.3939 97.9593 67.1212C97.9593 66.8485 98.1967 66.6061 98.4637 66.6061C98.7307 66.6061 98.968 66.8485 98.968 67.1212C98.9977 67.3939 98.7603 67.6364 98.4637 67.6364ZM97.1287 66.7576C96.8617 66.7576 96.6243 66.5151 96.6243 66.2424C96.6243 65.9697 96.8617 65.7273 97.1287 65.7273C97.3957 65.7273 97.633 65.9697 97.633 66.2424C97.633 66.5151 97.3957 66.7576 97.1287 66.7576ZM96.209 65.2424C95.942 65.2424 95.7047 65 95.7047 64.7273C95.7047 64.4545 95.942 64.2121 96.209 64.2121C96.476 64.2121 96.7133 64.4545 96.7133 64.7273C96.7133 65 96.476 65.2424 96.209 65.2424ZM3.293 66.8788C3.026 66.8788 2.78867 67.1212 2.78867 67.3939C2.78867 67.6667 3.026 67.9091 3.293 67.9091C3.56 67.9091 3.79733 67.6667 3.79733 67.3939C3.79733 67.1212 3.58967 66.8788 3.293 66.8788ZM3.61933 62.9091C3.61933 62.6364 3.382 62.3939 3.115 62.3939C2.848 62.3939 2.61067 62.6364 2.61067 62.9091C2.61067 63.1818 2.848 63.4242 3.115 63.4242C3.382 63.4242 3.61933 63.1818 3.61933 62.9091ZM1.72067 66.2727C1.45367 66.2727 1.21633 66.5152 1.21633 66.7879C1.21633 67.0606 1.45367 67.303 1.72067 67.303C1.98767 67.303 2.225 67.0606 2.225 66.7879C2.225 66.5152 2.01733 66.2727 1.72067 66.2727ZM0.712 61.3636C0.979 61.3636 1.21633 61.1212 1.21633 60.8485C1.21633 60.5758 0.979 60.3333 0.712 60.3333C0.445 60.3333 0.207667 60.5758 0.207667 60.8485C0.207667 61.1212 0.445 61.3636 0.712 61.3636ZM0.504334 65C0.237334 65 0 65.2424 0 65.5151C0 65.7879 0.237334 66.0303 0.504334 66.0303C0.771334 66.0303 1.00867 65.7879 1.00867 65.5151C1.00867 65.2424 0.771334 65 0.504334 65ZM6.675 66.5758C6.408 66.5758 6.17067 66.8182 6.17067 67.0909C6.17067 67.3636 6.408 67.6061 6.675 67.6061C6.942 67.6061 7.17933 67.3636 7.17933 67.0909C7.17933 66.8182 6.942 66.5758 6.675 66.5758ZM1.00867 62.3333C1.00867 62.6061 1.246 62.8485 1.513 62.8485C1.78 62.8485 2.01733 62.6061 2.01733 62.3333C2.01733 62.0606 1.78 61.8182 1.513 61.8182C1.21633 61.8182 1.00867 62.0606 1.00867 62.3333ZM7.89133 65.4242C7.62433 65.4242 7.387 65.6667 7.387 65.9394C7.387 66.2121 7.62433 66.4545 7.89133 66.4545C8.15833 66.4545 8.39567 66.2121 8.39567 65.9394C8.39567 65.6364 8.15833 65.4242 7.89133 65.4242ZM7.031 63.2424C7.031 62.9697 6.79367 62.7273 6.52667 62.7273C6.25967 62.7273 6.02233 62.9697 6.02233 63.2424C6.02233 63.5151 6.25967 63.7576 6.52667 63.7576C6.79367 63.7576 7.031 63.5455 7.031 63.2424ZM5.01367 66.9697C4.74667 66.9697 4.50933 67.2121 4.50933 67.4848C4.50933 67.7576 4.74667 68 5.01367 68C5.28067 68 5.518 67.7576 5.518 67.4848C5.518 67.2121 5.28067 66.9697 5.01367 66.9697ZM5.31033 63.0303C5.31033 62.7576 5.073 62.5151 4.806 62.5151C4.539 62.5151 4.30167 62.7576 4.30167 63.0303C4.30167 63.303 4.539 63.5455 4.806 63.5455C5.10267 63.5455 5.31033 63.3333 5.31033 63.0303ZM2.90733 59.1818C3.17433 59.1818 3.41167 58.9394 3.41167 58.6667C3.41167 58.3939 3.17433 58.1515 2.90733 58.1515C2.64033 58.1515 2.403 58.3939 2.403 58.6667C2.403 58.9394 2.61067 59.1818 2.90733 59.1818ZM7.89133 63.697C7.62433 63.697 7.387 63.9394 7.387 64.2121C7.387 64.4848 7.62433 64.7273 7.89133 64.7273C8.15833 64.7273 8.39567 64.4848 8.39567 64.2121C8.39567 63.9394 8.15833 63.697 7.89133 63.697ZM4.59833 59.0909C4.86533 59.0909 5.10267 58.8485 5.10267 58.5758C5.10267 58.303 4.86533 58.0606 4.59833 58.0606C4.33133 58.0606 4.094 58.303 4.094 58.5758C4.094 58.8485 4.33133 59.0909 4.59833 59.0909ZM1.30533 59.7879C1.57233 59.7879 1.80967 59.5454 1.80967 59.2727C1.80967 59 1.57233 58.7576 1.30533 58.7576C1.00867 58.7879 0.801 59 0.801 59.303C0.801 59.5758 1.00867 59.7879 1.30533 59.7879ZM7.71333 60.3333C7.98033 60.3333 8.21767 60.0909 8.21767 59.8182C8.21767 59.5455 7.98033 59.303 7.71333 59.303C7.44633 59.303 7.209 59.5455 7.209 59.8182C7.209 60.0909 7.41667 60.3333 7.71333 60.3333ZM6.28933 59.3939C6.55633 59.3939 6.79367 59.1515 6.79367 58.8788C6.79367 58.6061 6.55633 58.3636 6.28933 58.3636C6.02233 58.3636 5.785 58.6061 5.785 58.8788C5.785 59.1515 5.99267 59.3939 6.28933 59.3939Z" fill="#232323"/>
</g>
</svg>
