<svg width="156" height="109" viewBox="0 0 156 109" fill="none" xmlns="http://www.w3.org/2000/svg">
<path d="M156 67.7501H145.198V55.9681H153.694V52.8642H145.198V41.2067H156V38.0865H138.798V70.8866H156V67.7501ZM137.185 47.1655C136.987 40.6217 132.315 37.4961 126.141 37.4961C115.971 37.4961 113.148 45.4645 113.148 54.4188C113.148 63.839 116.197 71.4391 126.355 71.4391C131.655 71.4391 136.954 68.8552 137.125 61.8239H131.787C131.71 65.5345 130.009 69.4077 126.388 69.4077C120.566 69.4077 119.966 61.0222 119.966 54.7276V54.3051C119.966 49.4623 120.093 39.5221 125.986 39.5221C129.96 39.5221 130.939 44.0994 131.082 47.1763L137.185 47.1655ZM103.941 38.0865H98.9886L87.6523 70.8866H90.8276L94.5256 60.0525H104.117L107.392 70.8866H114.386L103.941 38.0865ZM95.5712 56.9757L99.4233 45.6379H99.6985L103.171 56.9757H95.5712ZM88.4172 60.8109C88.4172 56.0385 85.9189 52.8154 80.4984 51.3907L77.7469 50.6757C74.5496 49.8415 72.0017 48.5847 72.0017 45.0203C72.0017 41.846 74.0488 40.275 76.5252 40.275C79.0015 40.275 81.8191 41.846 83.492 44.9445L86.992 41.4559C85.8224 40.229 84.41 39.2509 82.8417 38.582C81.2734 37.9131 79.5826 37.5675 77.8734 37.5665C72.3539 37.5665 67.137 41.2555 67.137 48.1351C67.137 54.2347 71.4844 56.3527 75.7327 57.4849L77.6808 58.0266C81.3789 59.007 83.0298 61.4447 83.0298 63.8553C83.0298 67.3005 80.6084 69.1206 77.8569 69.1206C74.3075 69.1206 71.5614 66.2929 70.0371 63.3894C66.4161 66.8075 66.3666 66.878 66.3666 66.878C69.1621 70.5182 73.8122 71.5041 77.2571 71.5041C84.378 71.5041 88.4007 66.7588 88.4007 60.8542M59.1466 55.5239C60.8974 54.9487 62.4172 53.8405 63.4865 52.3596C64.5557 50.8786 65.1192 49.1014 65.0954 47.2846C65.0954 42.7073 61.8211 38.0757 54.6396 38.0757H43.7381V70.8866H50.1381V56.9757H52.8897L59.5428 70.8866H66.5867L59.1466 55.5239ZM58.5963 47.5555C58.5963 51.6832 57.0444 54.6626 52.9997 54.6626H50.1767V40.47H52.9997C57.0444 40.47 58.5963 43.4223 58.5963 47.5555ZM42.2523 67.7501H31.4553V55.9681H39.952V52.8642H31.4553V41.2067H42.2523V38.0865H25.0608V70.8866H42.2523V67.7501ZM20.9115 38.0865L13.9447 63.3677H13.6695L7.02187 38.0865H0L9.42119 70.8866H14.572L24.0923 38.1028L20.9115 38.0865Z" fill="#636363"/>
</svg>
