<svg width="178" height="125" viewBox="0 0 178 125" fill="none" xmlns="http://www.w3.org/2000/svg">
<g id="Property 1=versace">
<path id="path9" d="M178 77.695H165.674V64.1835H175.369V60.6239H165.674V47.2553H178V43.6771H158.372V81.2918H178V77.695ZM156.532 54.0887C156.306 46.5844 150.975 43 143.93 43C132.326 43 129.105 52.1381 129.105 62.4068C129.105 73.2098 132.583 81.9255 144.174 81.9255C150.221 81.9255 156.268 78.9622 156.463 70.8989H150.372C150.284 75.1542 148.344 79.5959 144.212 79.5959C137.569 79.5959 136.884 69.9795 136.884 62.7609V62.2764C136.884 56.7227 137.029 45.3234 143.754 45.3234C148.287 45.3234 149.405 50.5726 149.568 54.1011L156.532 54.0887ZM118.6 43.6771H112.948L100.014 81.2918H103.637L107.856 68.8675H118.801L122.537 81.2918H130.517L118.6 43.6771ZM109.049 65.339L113.445 52.3369H113.758L117.721 65.339H109.049ZM100.886 69.7372C100.886 64.2643 98.0356 60.568 91.8507 58.9342L88.7112 58.1142C85.063 57.1575 82.1558 55.7163 82.1558 51.6287C82.1558 47.9884 84.4916 46.1868 87.3172 46.1868C90.1428 46.1868 93.3577 47.9884 95.2665 51.5417L99.2601 47.5411C97.9256 46.1341 96.314 45.0124 94.5245 44.2453C92.7351 43.4782 90.8058 43.0819 88.8556 43.0808C82.5576 43.0808 76.605 47.3112 76.605 55.2007C76.605 62.1956 81.5655 64.6246 86.413 65.9229L88.6358 66.5441C92.8554 67.6685 94.7391 70.464 94.7391 73.2284C94.7391 77.1794 91.9763 79.2666 88.8367 79.2666C84.7867 79.2666 81.6534 76.0239 79.9141 72.6942C75.7825 76.6141 75.726 76.6948 75.726 76.6948C78.9158 80.8694 84.2216 82 88.1523 82C96.2775 82 100.868 76.5581 100.868 69.7869M67.4878 63.6741C69.4855 63.0144 71.2196 61.7436 72.4397 60.0453C73.6598 58.3469 74.3026 56.3088 74.2755 54.2254C74.2755 48.9761 70.5394 43.6647 62.3452 43.6647H49.9063V81.2918H57.2089V65.339H60.3485L67.9399 81.2918H75.9771L67.4878 63.6741ZM66.8599 54.536C66.8599 59.2697 65.0892 62.6864 60.474 62.6864H57.2529V46.4105H60.474C65.0892 46.4105 66.8599 49.7961 66.8599 54.536ZM48.2109 77.695H35.8913V64.1835H45.5863V60.6239H35.8913V47.2553H48.2109V43.6771H28.595V81.2918H48.2109V77.695ZM23.8606 43.6771L15.9112 72.6693H15.5973L8.01213 43.6771H0L10.7498 81.2918H16.6271L27.4899 43.6958L23.8606 43.6771Z" fill="#232323"/>
</g>
</svg>
